G04 #@! TF.GenerationSoftware,KiCad,Pcbnew,(2017-11-24 revision a01d81e)-master*
G04 #@! TF.CreationDate,2018-01-08T17:27:27+01:00*
G04 #@! TF.ProjectId,PWRCTRLBRD,5057524354524C4252442E6B69636164,rev?*
G04 #@! TF.SameCoordinates,Original*
G04 #@! TF.FileFunction,Copper,L1,Top,Signal*
G04 #@! TF.FilePolarity,Positive*
%FSLAX46Y46*%
G04 Gerber Fmt 4.6, Leading zero omitted, Abs format (unit mm)*
G04 Created by KiCad (PCBNEW (2017-11-24 revision a01d81e)-master) date Monday '08en' 08. January 2018 'kl'. 17.27.27*
%MOMM*%
%LPD*%
G01*
G04 APERTURE LIST*
%ADD10C,0.900000*%
%ADD11C,10.600000*%
%ADD12C,3.650000*%
%ADD13R,1.500000X1.500000*%
%ADD14C,1.500000*%
%ADD15C,2.000000*%
%ADD16R,1.200000X2.200000*%
%ADD17R,5.800000X6.400000*%
%ADD18R,2.750000X3.050000*%
%ADD19R,1.300000X1.500000*%
%ADD20R,1.500000X1.300000*%
%ADD21R,1.600000X1.600000*%
%ADD22O,1.600000X1.600000*%
%ADD23R,1.700000X1.700000*%
%ADD24O,1.700000X1.700000*%
%ADD25R,1.800000X1.800000*%
%ADD26C,1.800000*%
%ADD27R,1.100000X1.100000*%
%ADD28R,1.000000X1.600000*%
%ADD29R,0.650000X2.000000*%
%ADD30C,0.600000*%
%ADD31C,1.000000*%
%ADD32C,0.500000*%
%ADD33C,0.250000*%
%ADD34C,0.254000*%
G04 APERTURE END LIST*
D10*
X124834749Y-146881251D03*
X122024000Y-145717000D03*
X119213251Y-146881251D03*
X118049000Y-149692000D03*
X119213251Y-152502749D03*
X122024000Y-153667000D03*
X124834749Y-152502749D03*
X125999000Y-149692000D03*
D11*
X122024000Y-149692000D03*
X122024000Y-81692000D03*
D10*
X125999000Y-81692000D03*
X124834749Y-84502749D03*
X122024000Y-85667000D03*
X119213251Y-84502749D03*
X118049000Y-81692000D03*
X119213251Y-78881251D03*
X122024000Y-77717000D03*
X124834749Y-78881251D03*
X212434749Y-78881251D03*
X209624000Y-77717000D03*
X206813251Y-78881251D03*
X205649000Y-81692000D03*
X206813251Y-84502749D03*
X209624000Y-85667000D03*
X212434749Y-84502749D03*
X213599000Y-81692000D03*
D11*
X209624000Y-81692000D03*
D12*
X123974000Y-119992000D03*
X123974000Y-108122000D03*
D13*
X130324000Y-109612000D03*
D14*
X132864000Y-110882000D03*
X130324000Y-112152000D03*
X132864000Y-113422000D03*
X130324000Y-114692000D03*
X132864000Y-115962000D03*
X130324000Y-117232000D03*
X132864000Y-118502000D03*
D15*
X128324000Y-126442000D03*
X123244000Y-126442000D03*
X176824000Y-88272000D03*
X176824000Y-83192000D03*
X184324000Y-88272000D03*
X184324000Y-83192000D03*
X191824000Y-88272000D03*
X191824000Y-83192000D03*
X199324000Y-88272000D03*
X199324000Y-83192000D03*
X142074000Y-143442000D03*
X142074000Y-148522000D03*
D12*
X123974000Y-102282000D03*
X123974000Y-90412000D03*
D13*
X130324000Y-91902000D03*
D14*
X132864000Y-93172000D03*
X130324000Y-94442000D03*
X132864000Y-95712000D03*
X130324000Y-96982000D03*
X132864000Y-98252000D03*
X130324000Y-99522000D03*
X132864000Y-100792000D03*
D15*
X156824000Y-143362000D03*
X156824000Y-148442000D03*
X171324000Y-143362000D03*
X171324000Y-148442000D03*
X185574000Y-143362000D03*
X185574000Y-148442000D03*
X199824000Y-143362000D03*
X199824000Y-148442000D03*
D16*
X137104000Y-140142000D03*
X132544000Y-140142000D03*
D17*
X134824000Y-146442000D03*
D18*
X133299000Y-148117000D03*
X136349000Y-144767000D03*
X136349000Y-148117000D03*
X133299000Y-144767000D03*
D16*
X151379000Y-140217000D03*
X146819000Y-140217000D03*
D17*
X149099000Y-146517000D03*
D18*
X147574000Y-148192000D03*
X150624000Y-144842000D03*
X150624000Y-148192000D03*
X147574000Y-144842000D03*
D16*
X165879000Y-140217000D03*
X161319000Y-140217000D03*
D17*
X163599000Y-146517000D03*
D18*
X162074000Y-148192000D03*
X165124000Y-144842000D03*
X165124000Y-148192000D03*
X162074000Y-144842000D03*
D16*
X180104000Y-140242000D03*
X175544000Y-140242000D03*
D17*
X177824000Y-146542000D03*
D18*
X176299000Y-148217000D03*
X179349000Y-144867000D03*
X179349000Y-148217000D03*
X176299000Y-144867000D03*
D16*
X194329000Y-140217000D03*
X189769000Y-140217000D03*
D17*
X192049000Y-146517000D03*
D18*
X190524000Y-148192000D03*
X193574000Y-144842000D03*
X193574000Y-148192000D03*
X190524000Y-144842000D03*
D19*
X118824000Y-132792000D03*
X118824000Y-130092000D03*
D20*
X155224000Y-79692000D03*
X157924000Y-79692000D03*
X155224000Y-82692000D03*
X157924000Y-82692000D03*
X155224000Y-85442000D03*
X157924000Y-85442000D03*
D21*
X167614000Y-78822000D03*
D22*
X162534000Y-86442000D03*
X165074000Y-78822000D03*
X165074000Y-86442000D03*
X162534000Y-78822000D03*
X167614000Y-86442000D03*
D23*
X136744000Y-84942000D03*
D24*
X136744000Y-82402000D03*
X139284000Y-84942000D03*
X139284000Y-82402000D03*
X141824000Y-84942000D03*
X141824000Y-82402000D03*
D23*
X146494000Y-84942000D03*
D24*
X146494000Y-82402000D03*
X149034000Y-84942000D03*
X149034000Y-82402000D03*
X151574000Y-84942000D03*
X151574000Y-82402000D03*
D23*
X140824000Y-131612000D03*
D24*
X140824000Y-134152000D03*
X140824000Y-136692000D03*
D23*
X155074000Y-131652000D03*
D24*
X155074000Y-134192000D03*
X155074000Y-136732000D03*
D23*
X170074000Y-131652000D03*
D24*
X170074000Y-134192000D03*
X170074000Y-136732000D03*
D23*
X184324000Y-131652000D03*
D24*
X184324000Y-134192000D03*
X184324000Y-136732000D03*
D23*
X198574000Y-131612000D03*
D24*
X198574000Y-134152000D03*
X198574000Y-136692000D03*
D25*
X124114000Y-131692000D03*
D26*
X121574000Y-131692000D03*
D11*
X209624000Y-149692000D03*
D10*
X213599000Y-149692000D03*
X212434749Y-152502749D03*
X209624000Y-153667000D03*
X206813251Y-152502749D03*
X205649000Y-149692000D03*
X206813251Y-146881251D03*
X209624000Y-145717000D03*
X212434749Y-146881251D03*
D27*
X133224000Y-151192000D03*
X136024000Y-151192000D03*
X150524000Y-151192000D03*
X147724000Y-151192000D03*
X164974000Y-151192000D03*
X162174000Y-151192000D03*
X179024000Y-151192000D03*
X176224000Y-151192000D03*
X193474000Y-151192000D03*
X190674000Y-151192000D03*
D28*
X140824000Y-78192000D03*
X137824000Y-78192000D03*
X147574000Y-78192000D03*
X150574000Y-78192000D03*
D29*
X135074000Y-136902000D03*
X134124000Y-133482000D03*
X136024000Y-133482000D03*
X149774000Y-133732000D03*
X147874000Y-133732000D03*
X148824000Y-137152000D03*
X164524000Y-133732000D03*
X162624000Y-133732000D03*
X163574000Y-137152000D03*
X178074000Y-137152000D03*
X177124000Y-133732000D03*
X179024000Y-133732000D03*
X192074000Y-137152000D03*
X191124000Y-133732000D03*
X193024000Y-133732000D03*
D28*
X136574000Y-129942000D03*
X133574000Y-129942000D03*
X147324000Y-129692000D03*
X150324000Y-129692000D03*
X165324000Y-129692000D03*
X162324000Y-129692000D03*
X176324000Y-129692000D03*
X179324000Y-129692000D03*
X193324000Y-129692000D03*
X190324000Y-129692000D03*
D30*
X147574000Y-78192000D03*
X137824000Y-78192000D03*
X176424000Y-130942000D03*
X190424000Y-130942000D03*
X162424000Y-130942000D03*
X133424000Y-130692000D03*
X147424000Y-130942000D03*
X134124000Y-133482000D03*
X156874000Y-103517000D03*
X156874000Y-107327000D03*
X156874000Y-108597000D03*
X159324000Y-108942000D03*
X162824000Y-112442000D03*
X166274000Y-112407000D03*
X151574000Y-99692000D03*
X150824000Y-99692000D03*
X153074000Y-102442000D03*
X135324000Y-100692000D03*
X161319000Y-140217000D03*
X189769000Y-140217000D03*
X175544000Y-140242000D03*
X146819000Y-140217000D03*
X132544000Y-140142000D03*
X162724000Y-94192000D03*
X135074000Y-136902000D03*
X137104000Y-140142000D03*
X150424000Y-139942000D03*
X165879000Y-140217000D03*
X180104000Y-140242000D03*
X194329000Y-140217000D03*
X159324000Y-98692000D03*
X152324008Y-110192000D03*
X152324000Y-115442000D03*
X159324000Y-105442000D03*
X159324000Y-103192000D03*
X152574000Y-125942000D03*
X153370042Y-110271599D03*
X153324000Y-115692000D03*
X160049000Y-107327000D03*
X160074000Y-102692000D03*
X160074000Y-97192000D03*
X152574000Y-128942000D03*
X166574000Y-125416968D03*
X160824000Y-101942000D03*
X160074000Y-96192000D03*
X167324010Y-128442000D03*
X160824000Y-103942000D03*
X181071771Y-125416968D03*
X181324000Y-127192000D03*
X161523994Y-101445147D03*
X160565042Y-95444986D03*
X161574000Y-103442000D03*
X163074000Y-111192000D03*
X164824000Y-111192000D03*
X162324000Y-108192000D03*
X162324000Y-101442000D03*
X161324000Y-95192000D03*
X133324004Y-103692000D03*
X135274022Y-103692000D03*
X168074000Y-100942000D03*
X167998979Y-99639030D03*
X167548968Y-96944426D03*
X136324000Y-133592000D03*
X149774000Y-133732000D03*
X164774000Y-133732000D03*
X179324000Y-133342000D03*
X193324000Y-133342000D03*
X137324000Y-107192000D03*
X141074000Y-107692000D03*
X138574000Y-107442000D03*
X142324000Y-107692000D03*
X139824000Y-107692000D03*
X143324000Y-107192000D03*
X166274000Y-114947000D03*
X136324000Y-136292000D03*
X150324000Y-136192000D03*
X165824000Y-136192000D03*
X179324000Y-136042000D03*
X193324000Y-136042000D03*
D31*
X126078001Y-133937999D02*
X125074000Y-134942000D01*
X170574000Y-75942000D02*
X170574000Y-96525260D01*
X170574000Y-96525260D02*
X170899009Y-96850269D01*
X170899009Y-96850269D02*
X170899009Y-100783731D01*
X170899009Y-100783731D02*
X170574000Y-101108740D01*
X130824000Y-123942000D02*
X126078001Y-123942000D01*
X170574000Y-101108740D02*
X170574000Y-112942000D01*
X137824000Y-116942000D02*
X130824000Y-123942000D01*
X170574000Y-112942000D02*
X166574000Y-116942000D01*
X166574000Y-116942000D02*
X137824000Y-116942000D01*
X126078001Y-123942000D02*
X126078001Y-133937999D01*
X125074000Y-134942000D02*
X116074000Y-134942000D01*
D32*
X162324000Y-129692000D02*
X162324000Y-130842000D01*
X162324000Y-130842000D02*
X162424000Y-130942000D01*
X176324000Y-129692000D02*
X176324000Y-130842000D01*
X176324000Y-130842000D02*
X176424000Y-130942000D01*
X190324000Y-129692000D02*
X190324000Y-130842000D01*
X190324000Y-130842000D02*
X190424000Y-130942000D01*
X177124000Y-133732000D02*
X177124000Y-131642000D01*
X177124000Y-131642000D02*
X176424000Y-130942000D01*
X191124000Y-133732000D02*
X191124000Y-131642000D01*
X191124000Y-131642000D02*
X190424000Y-130942000D01*
X162874000Y-133732000D02*
X162874000Y-131392000D01*
X162874000Y-131392000D02*
X162424000Y-130942000D01*
X147324000Y-129692000D02*
X147324000Y-130842000D01*
X147324000Y-130842000D02*
X147424000Y-130942000D01*
X133574000Y-129942000D02*
X133574000Y-130542000D01*
X133574000Y-130542000D02*
X133424000Y-130692000D01*
X147874000Y-133732000D02*
X147874000Y-131392000D01*
X147874000Y-131392000D02*
X147424000Y-130942000D01*
D33*
X156874000Y-103517000D02*
X156874000Y-104067000D01*
X156874000Y-104067000D02*
X156874000Y-106057000D01*
X156874000Y-107327000D02*
X156874000Y-106057000D01*
X159324000Y-108942000D02*
X158979000Y-108597000D01*
X158979000Y-108597000D02*
X156874000Y-108597000D01*
X166274000Y-112407000D02*
X162859000Y-112407000D01*
X162859000Y-112407000D02*
X162824000Y-112442000D01*
X151074000Y-100317000D02*
X150824000Y-100067000D01*
X153074000Y-102317000D02*
X151074000Y-100317000D01*
X151074000Y-100317000D02*
X151074000Y-100192000D01*
X151074000Y-100192000D02*
X151574000Y-99692000D01*
X153074000Y-102442000D02*
X153074000Y-102317000D01*
X150824000Y-100067000D02*
X150824000Y-99692000D01*
X132864000Y-100792000D02*
X135224000Y-100792000D01*
X135224000Y-100792000D02*
X135324000Y-100692000D01*
D32*
X155224000Y-79692000D02*
X155224000Y-82692000D01*
X155224000Y-82692000D02*
X155224000Y-85442000D01*
X162724000Y-94192000D02*
X162624000Y-94192000D01*
X162624000Y-94192000D02*
X155224000Y-86792000D01*
X155224000Y-86792000D02*
X155224000Y-86592000D01*
X155224000Y-86592000D02*
X155224000Y-85442000D01*
X151379000Y-140217000D02*
X150699000Y-140217000D01*
X150699000Y-140217000D02*
X150424000Y-139942000D01*
X148824000Y-137152000D02*
X148824000Y-137662000D01*
X148824000Y-137662000D02*
X151379000Y-140217000D01*
X163824000Y-137152000D02*
X163824000Y-138162000D01*
X163824000Y-138162000D02*
X165879000Y-140217000D01*
X178074000Y-137152000D02*
X178074000Y-138212000D01*
X178074000Y-138212000D02*
X180104000Y-140242000D01*
X192074000Y-137152000D02*
X192074000Y-137962000D01*
X192074000Y-137962000D02*
X194329000Y-140217000D01*
D33*
X118824000Y-132792000D02*
X120474000Y-132792000D01*
X120474000Y-132792000D02*
X121574000Y-131692000D01*
X158589543Y-97957543D02*
X158589543Y-96457543D01*
X158589543Y-96457543D02*
X147074000Y-84942000D01*
X159324000Y-98692000D02*
X158589543Y-97957543D01*
X147074000Y-84942000D02*
X146494000Y-84942000D01*
X152324000Y-110192008D02*
X152324008Y-110192000D01*
X152324000Y-115442000D02*
X152324000Y-110192008D01*
X159324000Y-103192000D02*
X159324000Y-105442000D01*
X152574000Y-128942000D02*
X152574000Y-125942000D01*
X149034000Y-84942000D02*
X149034000Y-86152000D01*
X159774001Y-96892001D02*
X160074000Y-97192000D01*
X149034000Y-86152000D02*
X159774001Y-96892001D01*
X153324000Y-110317641D02*
X153370042Y-110271599D01*
X153324000Y-115692000D02*
X153324000Y-110317641D01*
X160049000Y-102717000D02*
X160074000Y-102692000D01*
X160049000Y-107327000D02*
X160049000Y-102717000D01*
X167324010Y-128442000D02*
X166574000Y-127691990D01*
X166574000Y-127691990D02*
X166574000Y-125841232D01*
X166574000Y-125841232D02*
X166574000Y-125416968D01*
X158624013Y-94742013D02*
X151574000Y-87692000D01*
X158624013Y-94742013D02*
X158574000Y-94742013D01*
X160074000Y-96192000D02*
X158624013Y-94742013D01*
X151574000Y-87692000D02*
X151574000Y-86144081D01*
X151574000Y-86144081D02*
X151574000Y-84942000D01*
X167324000Y-128442000D02*
X167324010Y-128442000D01*
X160824000Y-101942000D02*
X160824000Y-103942000D01*
X181324000Y-125669197D02*
X181071771Y-125416968D01*
X181324000Y-127192000D02*
X181324000Y-125669197D01*
X160565042Y-95444986D02*
X160326986Y-95444986D01*
X160326986Y-95444986D02*
X152824000Y-87942000D01*
X152824000Y-87942000D02*
X152824000Y-84452998D01*
X147669001Y-83577001D02*
X147343999Y-83251999D01*
X152824000Y-84452998D02*
X152138001Y-83766999D01*
X152138001Y-83756001D02*
X151959001Y-83577001D01*
X152138001Y-83766999D02*
X152138001Y-83756001D01*
X151959001Y-83577001D02*
X147669001Y-83577001D01*
X147343999Y-83251999D02*
X146494000Y-82402000D01*
X161574000Y-101495153D02*
X161523994Y-101445147D01*
X161574000Y-103442000D02*
X161574000Y-101495153D01*
X149034000Y-82402000D02*
X150209001Y-81226999D01*
X150209001Y-81226999D02*
X152138001Y-81226999D01*
X153324000Y-82412998D02*
X153324000Y-86767736D01*
X152138001Y-81226999D02*
X153324000Y-82412998D01*
X153324000Y-86767736D02*
X161324000Y-94767736D01*
X161324000Y-94767736D02*
X161324000Y-95192000D01*
X164824000Y-111192000D02*
X163074000Y-111192000D01*
X162324000Y-101442000D02*
X162324000Y-108192000D01*
X135274022Y-103692000D02*
X133324004Y-103692000D01*
X132864000Y-113422000D02*
X131788999Y-114497001D01*
X131788999Y-114497001D02*
X131788999Y-118777001D01*
X131788999Y-118777001D02*
X127874000Y-122692000D01*
X127874000Y-122692000D02*
X120574000Y-122692000D01*
X120574000Y-122692000D02*
X118824000Y-124442000D01*
X118824000Y-124442000D02*
X118824000Y-130092000D01*
X132864000Y-95712000D02*
X131574000Y-97002000D01*
X131574000Y-97002000D02*
X131574000Y-111174587D01*
X131574000Y-111174587D02*
X131849012Y-111449599D01*
X131849012Y-111449599D02*
X131849012Y-112407012D01*
X131849012Y-112407012D02*
X132114001Y-112672001D01*
X132114001Y-112672001D02*
X132864000Y-113422000D01*
X128574000Y-110192000D02*
X129458999Y-111076999D01*
X130840001Y-111076999D02*
X131399001Y-111635999D01*
X130324000Y-96982000D02*
X128574000Y-98732000D01*
X129458999Y-111076999D02*
X130840001Y-111076999D01*
X128574000Y-98732000D02*
X128574000Y-110192000D01*
X131399001Y-111635999D02*
X131399001Y-113616999D01*
X131399001Y-113616999D02*
X131073999Y-113942001D01*
X131073999Y-113942001D02*
X130324000Y-114692000D01*
X168623989Y-100392011D02*
X168623989Y-87451989D01*
X168074000Y-100942000D02*
X168623989Y-100392011D01*
X168413999Y-87241999D02*
X167614000Y-86442000D01*
X168623989Y-87451989D02*
X168413999Y-87241999D01*
D32*
X157924000Y-79692000D02*
X160864000Y-79692000D01*
X160864000Y-79692000D02*
X167614000Y-86442000D01*
D33*
X167998979Y-99214766D02*
X167998979Y-99639030D01*
X168173978Y-99039767D02*
X167998979Y-99214766D01*
X168173978Y-89541978D02*
X168173978Y-99039767D01*
X165074000Y-86442000D02*
X168173978Y-89541978D01*
D32*
X165074000Y-86442000D02*
X161324000Y-82692000D01*
X161324000Y-82692000D02*
X157924000Y-82692000D01*
D33*
X167548968Y-96520162D02*
X167548968Y-96944426D01*
X162534000Y-86442000D02*
X167548968Y-91456968D01*
X167548968Y-91456968D02*
X167548968Y-96520162D01*
D32*
X162534000Y-86442000D02*
X158924000Y-86442000D01*
X158924000Y-86442000D02*
X157924000Y-85442000D01*
D33*
X129263340Y-112152000D02*
X130324000Y-112152000D01*
X128123989Y-111012649D02*
X129263340Y-112152000D01*
X128123989Y-96642011D02*
X128123989Y-111012649D01*
X130324000Y-94442000D02*
X128123989Y-96642011D01*
D32*
X136024000Y-133482000D02*
X136214000Y-133482000D01*
X136214000Y-133482000D02*
X136324000Y-133592000D01*
X179024000Y-133732000D02*
X179024000Y-133642000D01*
X179024000Y-133642000D02*
X179324000Y-133342000D01*
X193024000Y-133732000D02*
X193024000Y-133642000D01*
X193024000Y-133642000D02*
X193324000Y-133342000D01*
D33*
X137324000Y-107192000D02*
X137324000Y-102942000D01*
X137324000Y-102942000D02*
X137824000Y-102442000D01*
X137824000Y-102442000D02*
X137824000Y-86022000D01*
X137824000Y-86022000D02*
X136744000Y-84942000D01*
X142999001Y-85506001D02*
X142999001Y-84377999D01*
X141073999Y-104191999D02*
X139923978Y-103041979D01*
X137593999Y-83251999D02*
X136744000Y-82402000D01*
X139923978Y-103041979D02*
X139923978Y-88581021D01*
X141074000Y-107692000D02*
X141073999Y-104191999D01*
X142999001Y-84377999D02*
X142388001Y-83766999D01*
X142388001Y-83766999D02*
X138108999Y-83766999D01*
X139923978Y-88581021D02*
X142999001Y-85506001D01*
X138108999Y-83766999D02*
X137593999Y-83251999D01*
X139284000Y-84942000D02*
X139284000Y-86144081D01*
X139284000Y-86144081D02*
X138524011Y-86904070D01*
X138524011Y-86904070D02*
X138524011Y-103317725D01*
X138324000Y-103517736D02*
X138324000Y-103942000D01*
X138524011Y-103317725D02*
X138324000Y-103517736D01*
X138574000Y-107442000D02*
X138574000Y-104192000D01*
X138574000Y-104192000D02*
X138324000Y-103942000D01*
X143574000Y-81692000D02*
X143074000Y-81192000D01*
X142324000Y-107692000D02*
X141524010Y-106892010D01*
X142388001Y-81226999D02*
X140459001Y-81226999D01*
X141524010Y-106892010D02*
X141524010Y-104005600D01*
X142423000Y-81192000D02*
X142388001Y-81226999D01*
X140373989Y-102855579D02*
X140373989Y-88767421D01*
X140373989Y-88767421D02*
X143574000Y-85567410D01*
X143074000Y-81192000D02*
X142423000Y-81192000D01*
X143574000Y-85567410D02*
X143574000Y-81692000D01*
X141524010Y-104005600D02*
X140373989Y-102855579D01*
X140459001Y-81226999D02*
X140133999Y-81552001D01*
X140133999Y-81552001D02*
X139284000Y-82402000D01*
X139824000Y-107692000D02*
X139824000Y-104192000D01*
X139824000Y-104192000D02*
X139173978Y-103541978D01*
X139173978Y-103541978D02*
X139173978Y-87592022D01*
X139173978Y-87592022D02*
X141824000Y-84942000D01*
X141574000Y-78192000D02*
X140824000Y-78192000D01*
X144074000Y-80692000D02*
X141574000Y-78192000D01*
X143324000Y-107192000D02*
X144074000Y-106442000D01*
X144074000Y-106442000D02*
X144074000Y-80692000D01*
X150574000Y-78192000D02*
X151324000Y-78192000D01*
X166279000Y-114942000D02*
X166274000Y-114947000D01*
X151324000Y-78192000D02*
X152324000Y-77192000D01*
X169074000Y-112692000D02*
X166824000Y-114942000D01*
X152324000Y-77192000D02*
X169074000Y-77192000D01*
X169074000Y-77192000D02*
X169074000Y-112692000D01*
X166824000Y-114942000D02*
X166279000Y-114942000D01*
D32*
X138464000Y-134152000D02*
X138464000Y-133132000D01*
X136574000Y-131242000D02*
X136574000Y-129942000D01*
X138464000Y-133132000D02*
X136574000Y-131242000D01*
X140824000Y-134152000D02*
X138464000Y-134152000D01*
X138464000Y-134152000D02*
X136324000Y-136292000D01*
X152324000Y-134192000D02*
X152324000Y-131192000D01*
X150824000Y-129692000D02*
X150324000Y-129692000D01*
X152324000Y-131192000D02*
X150824000Y-129692000D01*
X155074000Y-134192000D02*
X152324000Y-134192000D01*
X152324000Y-134192000D02*
X150324000Y-136192000D01*
X166374000Y-130992000D02*
X167324000Y-131942000D01*
X167324000Y-131942000D02*
X167324000Y-134192000D01*
X166324000Y-130992000D02*
X166374000Y-130992000D01*
X165324000Y-129692000D02*
X165324000Y-129992000D01*
X165324000Y-129992000D02*
X166324000Y-130992000D01*
X170074000Y-134192000D02*
X167324000Y-134192000D01*
X167324000Y-134192000D02*
X165824000Y-135692000D01*
X165824000Y-135692000D02*
X165824000Y-136192000D01*
X179324000Y-129692000D02*
X179324000Y-129992000D01*
X179324000Y-129992000D02*
X181174000Y-131842000D01*
X181174000Y-131842000D02*
X181174000Y-134192000D01*
X184324000Y-134192000D02*
X181174000Y-134192000D01*
X181174000Y-134192000D02*
X179324000Y-136042000D01*
X193324000Y-129692000D02*
X193324000Y-129992000D01*
X195184000Y-131852000D02*
X195184000Y-134152000D01*
X193324000Y-129992000D02*
X195184000Y-131852000D01*
X195184000Y-134152000D02*
X195184000Y-134182000D01*
X195184000Y-134182000D02*
X193324000Y-136042000D01*
X198574000Y-134152000D02*
X195184000Y-134152000D01*
D31*
X135824000Y-151192000D02*
X135824000Y-148642000D01*
X135824000Y-148642000D02*
X136349000Y-148117000D01*
X165124000Y-150842000D02*
X164774000Y-151192000D01*
X165124000Y-148192000D02*
X165124000Y-150842000D01*
X179349000Y-150667000D02*
X178824000Y-151192000D01*
X179349000Y-148217000D02*
X179349000Y-150667000D01*
X193574000Y-150892000D02*
X193274000Y-151192000D01*
X193574000Y-148192000D02*
X193574000Y-150892000D01*
D34*
G36*
X206266484Y-76657618D02*
X204595485Y-78325703D01*
X203690032Y-80506276D01*
X203687972Y-82867365D01*
X204589618Y-85049516D01*
X206257703Y-86720515D01*
X208438276Y-87625968D01*
X210799365Y-87628028D01*
X212981516Y-86726382D01*
X214652515Y-85058297D01*
X215114000Y-83946918D01*
X215114000Y-147437164D01*
X214658382Y-146334484D01*
X212990297Y-144663485D01*
X210809724Y-143758032D01*
X208448635Y-143755972D01*
X206266484Y-144657618D01*
X204595485Y-146325703D01*
X203690032Y-148506276D01*
X203687972Y-150867365D01*
X204589618Y-153049516D01*
X206257703Y-154720515D01*
X206887429Y-154982000D01*
X124762873Y-154982000D01*
X125381516Y-154726382D01*
X127052515Y-153058297D01*
X127957968Y-150877724D01*
X127960028Y-148516635D01*
X127058382Y-146334484D01*
X125390297Y-144663485D01*
X123209724Y-143758032D01*
X120848635Y-143755972D01*
X118666484Y-144657618D01*
X116995485Y-146325703D01*
X116534000Y-147437082D01*
X116534000Y-143242000D01*
X131276560Y-143242000D01*
X131276560Y-149642000D01*
X131325843Y-149889765D01*
X131466191Y-150099809D01*
X131676235Y-150240157D01*
X131924000Y-150289440D01*
X134689000Y-150289440D01*
X134689000Y-151942000D01*
X134737336Y-152185004D01*
X134874987Y-152391013D01*
X135080996Y-152528664D01*
X135324000Y-152577000D01*
X136324000Y-152577000D01*
X136487616Y-152555559D01*
X143987616Y-150555559D01*
X144273013Y-150391013D01*
X144410664Y-150185004D01*
X144459000Y-149942000D01*
X144459000Y-143317000D01*
X145551560Y-143317000D01*
X145551560Y-149717000D01*
X145600843Y-149964765D01*
X145741191Y-150174809D01*
X145951235Y-150315157D01*
X146199000Y-150364440D01*
X149010802Y-150364440D01*
X149010802Y-151942000D01*
X149059138Y-152185004D01*
X149196789Y-152391013D01*
X149402798Y-152528664D01*
X149645802Y-152577000D01*
X150645802Y-152577000D01*
X150809418Y-152555559D01*
X158309418Y-150555559D01*
X158594815Y-150391013D01*
X158732466Y-150185004D01*
X158780802Y-149942000D01*
X158780802Y-143317000D01*
X160051560Y-143317000D01*
X160051560Y-149717000D01*
X160100843Y-149964765D01*
X160241191Y-150174809D01*
X160451235Y-150315157D01*
X160699000Y-150364440D01*
X163608841Y-150364440D01*
X163608841Y-152080043D01*
X163657177Y-152323047D01*
X163794828Y-152529056D01*
X164000837Y-152666707D01*
X164243841Y-152715043D01*
X165243841Y-152715043D01*
X165407457Y-152693602D01*
X172907457Y-150693602D01*
X173192854Y-150529056D01*
X173330505Y-150323047D01*
X173378841Y-150080043D01*
X173378841Y-143342000D01*
X174276560Y-143342000D01*
X174276560Y-149742000D01*
X174325843Y-149989765D01*
X174466191Y-150199809D01*
X174676235Y-150340157D01*
X174924000Y-150389440D01*
X177800670Y-150389440D01*
X177800670Y-150719831D01*
X177775397Y-150757655D01*
X177689000Y-151192000D01*
X177775397Y-151626345D01*
X177800670Y-151664169D01*
X177800670Y-152080043D01*
X177849006Y-152323047D01*
X177986657Y-152529056D01*
X178192666Y-152666707D01*
X178435670Y-152715043D01*
X179435670Y-152715043D01*
X179599286Y-152693602D01*
X187099286Y-150693602D01*
X187384683Y-150529056D01*
X187522334Y-150323047D01*
X187570670Y-150080043D01*
X187570670Y-143317000D01*
X188501560Y-143317000D01*
X188501560Y-149717000D01*
X188550843Y-149964765D01*
X188691191Y-150174809D01*
X188901235Y-150315157D01*
X189149000Y-150364440D01*
X192178707Y-150364440D01*
X192178707Y-150992380D01*
X192139000Y-151192000D01*
X192178707Y-151391620D01*
X192178707Y-152078079D01*
X192227043Y-152321083D01*
X192364694Y-152527092D01*
X192570703Y-152664743D01*
X192813707Y-152713079D01*
X193813707Y-152713079D01*
X193977323Y-152691638D01*
X201477323Y-150691638D01*
X201762720Y-150527092D01*
X201900371Y-150321083D01*
X201948707Y-150078079D01*
X201948707Y-141578079D01*
X201900371Y-141335075D01*
X201762720Y-141129066D01*
X201556711Y-140991415D01*
X201313707Y-140943079D01*
X199563707Y-140943079D01*
X199305809Y-140997809D01*
X195291323Y-142782025D01*
X195196765Y-142718843D01*
X194949000Y-142669560D01*
X189149000Y-142669560D01*
X188901235Y-142718843D01*
X188691191Y-142859191D01*
X188550843Y-143069235D01*
X188501560Y-143317000D01*
X187570670Y-143317000D01*
X187570670Y-141580043D01*
X187522334Y-141337039D01*
X187384683Y-141131030D01*
X187178674Y-140993379D01*
X186935670Y-140945043D01*
X185185670Y-140945043D01*
X184927772Y-140999773D01*
X180984488Y-142752344D01*
X180971765Y-142743843D01*
X180724000Y-142694560D01*
X174924000Y-142694560D01*
X174676235Y-142743843D01*
X174466191Y-142884191D01*
X174325843Y-143094235D01*
X174276560Y-143342000D01*
X173378841Y-143342000D01*
X173378841Y-141580043D01*
X173330505Y-141337039D01*
X173192854Y-141131030D01*
X172986845Y-140993379D01*
X172743841Y-140945043D01*
X170993841Y-140945043D01*
X170735943Y-140999773D01*
X166795207Y-142751211D01*
X166746765Y-142718843D01*
X166499000Y-142669560D01*
X160699000Y-142669560D01*
X160451235Y-142718843D01*
X160241191Y-142859191D01*
X160100843Y-143069235D01*
X160051560Y-143317000D01*
X158780802Y-143317000D01*
X158780802Y-141442000D01*
X158732466Y-141198996D01*
X158594815Y-140992987D01*
X158388806Y-140855336D01*
X158145802Y-140807000D01*
X156395802Y-140807000D01*
X156137904Y-140861730D01*
X152048247Y-142679356D01*
X151999000Y-142669560D01*
X146199000Y-142669560D01*
X145951235Y-142718843D01*
X145741191Y-142859191D01*
X145600843Y-143069235D01*
X145551560Y-143317000D01*
X144459000Y-143317000D01*
X144459000Y-141442000D01*
X144410664Y-141198996D01*
X144273013Y-140992987D01*
X144067004Y-140855336D01*
X143824000Y-140807000D01*
X142074000Y-140807000D01*
X141816102Y-140861730D01*
X137857491Y-142621113D01*
X137724000Y-142594560D01*
X131924000Y-142594560D01*
X131676235Y-142643843D01*
X131466191Y-142784191D01*
X131325843Y-142994235D01*
X131276560Y-143242000D01*
X116534000Y-143242000D01*
X116534000Y-139042000D01*
X135856560Y-139042000D01*
X135856560Y-141242000D01*
X135905843Y-141489765D01*
X136046191Y-141699809D01*
X136256235Y-141840157D01*
X136504000Y-141889440D01*
X137704000Y-141889440D01*
X137951765Y-141840157D01*
X138161809Y-141699809D01*
X138302157Y-141489765D01*
X138351440Y-141242000D01*
X138351440Y-139042000D01*
X138302157Y-138794235D01*
X138161809Y-138584191D01*
X137951765Y-138443843D01*
X137704000Y-138394560D01*
X136504000Y-138394560D01*
X136256235Y-138443843D01*
X136046191Y-138584191D01*
X135905843Y-138794235D01*
X135856560Y-139042000D01*
X116534000Y-139042000D01*
X116534000Y-136077000D01*
X125074000Y-136077000D01*
X125508346Y-135990603D01*
X125876566Y-135744566D01*
X126880567Y-134740565D01*
X126929830Y-134666838D01*
X127126604Y-134372345D01*
X127213001Y-133937999D01*
X127213001Y-132482000D01*
X133151560Y-132482000D01*
X133151560Y-134482000D01*
X133200843Y-134729765D01*
X133341191Y-134939809D01*
X133551235Y-135080157D01*
X133799000Y-135129440D01*
X134449000Y-135129440D01*
X134696765Y-135080157D01*
X134906809Y-134939809D01*
X135047157Y-134729765D01*
X135074000Y-134594815D01*
X135100843Y-134729765D01*
X135241191Y-134939809D01*
X135451235Y-135080157D01*
X135699000Y-135129440D01*
X136234980Y-135129440D01*
X135915164Y-135449256D01*
X135872086Y-135467055D01*
X135856809Y-135444191D01*
X135646765Y-135303843D01*
X135399000Y-135254560D01*
X134749000Y-135254560D01*
X134501235Y-135303843D01*
X134291191Y-135444191D01*
X134150843Y-135654235D01*
X134101560Y-135902000D01*
X134101560Y-137902000D01*
X134150843Y-138149765D01*
X134291191Y-138359809D01*
X134501235Y-138500157D01*
X134749000Y-138549440D01*
X135399000Y-138549440D01*
X135646765Y-138500157D01*
X135856809Y-138359809D01*
X135997157Y-138149765D01*
X136046440Y-137902000D01*
X136046440Y-137189151D01*
X136137201Y-137226838D01*
X136509167Y-137227162D01*
X136852943Y-137085117D01*
X137116192Y-136822327D01*
X137166566Y-136701014D01*
X138830579Y-135037000D01*
X139634568Y-135037000D01*
X139744853Y-135202054D01*
X140074026Y-135422000D01*
X139744853Y-135641946D01*
X139422946Y-136123715D01*
X139309907Y-136692000D01*
X139422946Y-137260285D01*
X139744853Y-137742054D01*
X140226622Y-138063961D01*
X140794907Y-138177000D01*
X140853093Y-138177000D01*
X141421378Y-138063961D01*
X141903147Y-137742054D01*
X142225054Y-137260285D01*
X142338093Y-136692000D01*
X142225054Y-136123715D01*
X141903147Y-135641946D01*
X141573974Y-135422000D01*
X141903147Y-135202054D01*
X142225054Y-134720285D01*
X142338093Y-134152000D01*
X142225054Y-133583715D01*
X141903147Y-133101946D01*
X141859223Y-133072597D01*
X141921765Y-133060157D01*
X142131809Y-132919809D01*
X142272157Y-132709765D01*
X142321440Y-132462000D01*
X142321440Y-130762000D01*
X142272157Y-130514235D01*
X142131809Y-130304191D01*
X141921765Y-130163843D01*
X141674000Y-130114560D01*
X139974000Y-130114560D01*
X139726235Y-130163843D01*
X139516191Y-130304191D01*
X139375843Y-130514235D01*
X139326560Y-130762000D01*
X139326560Y-132462000D01*
X139375843Y-132709765D01*
X139516191Y-132919809D01*
X139726235Y-133060157D01*
X139788777Y-133072597D01*
X139744853Y-133101946D01*
X139634568Y-133267000D01*
X139349000Y-133267000D01*
X139349000Y-133132005D01*
X139349001Y-133132000D01*
X139283557Y-132802999D01*
X139281633Y-132793325D01*
X139089790Y-132506210D01*
X139089787Y-132506208D01*
X137632578Y-131048998D01*
X137672157Y-130989765D01*
X137721440Y-130742000D01*
X137721440Y-129142000D01*
X137672157Y-128894235D01*
X137670664Y-128892000D01*
X146176560Y-128892000D01*
X146176560Y-130492000D01*
X146225843Y-130739765D01*
X146366191Y-130949809D01*
X146474892Y-131022441D01*
X146477264Y-131034367D01*
X146488868Y-131092702D01*
X146488838Y-131127167D01*
X146502115Y-131159301D01*
X146506367Y-131180675D01*
X146518369Y-131198637D01*
X146630883Y-131470943D01*
X146893673Y-131734192D01*
X146989000Y-131773775D01*
X146989000Y-132427129D01*
X146950843Y-132484235D01*
X146901560Y-132732000D01*
X146901560Y-134732000D01*
X146950843Y-134979765D01*
X147091191Y-135189809D01*
X147301235Y-135330157D01*
X147549000Y-135379440D01*
X148199000Y-135379440D01*
X148446765Y-135330157D01*
X148656809Y-135189809D01*
X148797157Y-134979765D01*
X148824000Y-134844815D01*
X148850843Y-134979765D01*
X148991191Y-135189809D01*
X149201235Y-135330157D01*
X149449000Y-135379440D01*
X149842113Y-135379440D01*
X149795057Y-135398883D01*
X149542367Y-135651132D01*
X149396765Y-135553843D01*
X149149000Y-135504560D01*
X148499000Y-135504560D01*
X148251235Y-135553843D01*
X148041191Y-135694191D01*
X147900843Y-135904235D01*
X147851560Y-136152000D01*
X147851560Y-138152000D01*
X147900843Y-138399765D01*
X148041191Y-138609809D01*
X148251235Y-138750157D01*
X148499000Y-138799440D01*
X148709860Y-138799440D01*
X149540936Y-139630516D01*
X149489162Y-139755201D01*
X149488838Y-140127167D01*
X149630883Y-140470943D01*
X149893673Y-140734192D01*
X150014987Y-140784566D01*
X150073208Y-140842787D01*
X150073210Y-140842790D01*
X150131560Y-140881778D01*
X150131560Y-141317000D01*
X150180843Y-141564765D01*
X150321191Y-141774809D01*
X150531235Y-141915157D01*
X150779000Y-141964440D01*
X151979000Y-141964440D01*
X152226765Y-141915157D01*
X152436809Y-141774809D01*
X152577157Y-141564765D01*
X152626440Y-141317000D01*
X152626440Y-139117000D01*
X152577157Y-138869235D01*
X152436809Y-138659191D01*
X152226765Y-138518843D01*
X151979000Y-138469560D01*
X150883139Y-138469560D01*
X149796440Y-137382860D01*
X149796440Y-136985341D01*
X150137201Y-137126838D01*
X150509167Y-137127162D01*
X150852943Y-136985117D01*
X151116192Y-136722327D01*
X151166566Y-136601014D01*
X152690579Y-135077000D01*
X153884568Y-135077000D01*
X153994853Y-135242054D01*
X154324026Y-135462000D01*
X153994853Y-135681946D01*
X153672946Y-136163715D01*
X153559907Y-136732000D01*
X153672946Y-137300285D01*
X153994853Y-137782054D01*
X154476622Y-138103961D01*
X155044907Y-138217000D01*
X155103093Y-138217000D01*
X155671378Y-138103961D01*
X156153147Y-137782054D01*
X156475054Y-137300285D01*
X156588093Y-136732000D01*
X156475054Y-136163715D01*
X156467227Y-136152000D01*
X162601560Y-136152000D01*
X162601560Y-138152000D01*
X162650843Y-138399765D01*
X162791191Y-138609809D01*
X163001235Y-138750157D01*
X163200142Y-138789722D01*
X164631560Y-140221139D01*
X164631560Y-141317000D01*
X164680843Y-141564765D01*
X164821191Y-141774809D01*
X165031235Y-141915157D01*
X165279000Y-141964440D01*
X166479000Y-141964440D01*
X166726765Y-141915157D01*
X166936809Y-141774809D01*
X167077157Y-141564765D01*
X167126440Y-141317000D01*
X167126440Y-139117000D01*
X167077157Y-138869235D01*
X166936809Y-138659191D01*
X166726765Y-138518843D01*
X166479000Y-138469560D01*
X165383140Y-138469560D01*
X164709000Y-137795420D01*
X164709000Y-137152000D01*
X164641633Y-136813325D01*
X164546440Y-136670858D01*
X164546440Y-136152000D01*
X164497157Y-135904235D01*
X164356809Y-135694191D01*
X164146765Y-135553843D01*
X163899000Y-135504560D01*
X163249000Y-135504560D01*
X163001235Y-135553843D01*
X162791191Y-135694191D01*
X162650843Y-135904235D01*
X162601560Y-136152000D01*
X156467227Y-136152000D01*
X156153147Y-135681946D01*
X155823974Y-135462000D01*
X156153147Y-135242054D01*
X156475054Y-134760285D01*
X156588093Y-134192000D01*
X156475054Y-133623715D01*
X156153147Y-133141946D01*
X156109223Y-133112597D01*
X156171765Y-133100157D01*
X156381809Y-132959809D01*
X156522157Y-132749765D01*
X156571440Y-132502000D01*
X156571440Y-130802000D01*
X156522157Y-130554235D01*
X156381809Y-130344191D01*
X156171765Y-130203843D01*
X155924000Y-130154560D01*
X154224000Y-130154560D01*
X153976235Y-130203843D01*
X153766191Y-130344191D01*
X153625843Y-130554235D01*
X153576560Y-130802000D01*
X153576560Y-132502000D01*
X153625843Y-132749765D01*
X153766191Y-132959809D01*
X153976235Y-133100157D01*
X154038777Y-133112597D01*
X153994853Y-133141946D01*
X153884568Y-133307000D01*
X153209000Y-133307000D01*
X153209000Y-131192000D01*
X153141633Y-130853325D01*
X152949790Y-130566210D01*
X152949787Y-130566208D01*
X152170389Y-129786809D01*
X152387201Y-129876838D01*
X152759167Y-129877162D01*
X153102943Y-129735117D01*
X153366192Y-129472327D01*
X153508838Y-129128799D01*
X153509044Y-128892000D01*
X161176560Y-128892000D01*
X161176560Y-130492000D01*
X161225843Y-130739765D01*
X161366191Y-130949809D01*
X161474892Y-131022441D01*
X161477264Y-131034367D01*
X161488868Y-131092702D01*
X161488838Y-131127167D01*
X161502115Y-131159301D01*
X161506367Y-131180675D01*
X161518369Y-131198637D01*
X161630883Y-131470943D01*
X161893673Y-131734192D01*
X161989000Y-131773775D01*
X161989000Y-132175427D01*
X161841191Y-132274191D01*
X161700843Y-132484235D01*
X161651560Y-132732000D01*
X161651560Y-134732000D01*
X161700843Y-134979765D01*
X161841191Y-135189809D01*
X162051235Y-135330157D01*
X162299000Y-135379440D01*
X162949000Y-135379440D01*
X163196765Y-135330157D01*
X163406809Y-135189809D01*
X163547157Y-134979765D01*
X163574000Y-134844815D01*
X163600843Y-134979765D01*
X163741191Y-135189809D01*
X163951235Y-135330157D01*
X164199000Y-135379440D01*
X164849000Y-135379440D01*
X165010364Y-135347343D01*
X165006367Y-135353325D01*
X165001788Y-135376345D01*
X164938999Y-135692000D01*
X164939000Y-135692005D01*
X164939000Y-135885178D01*
X164889162Y-136005201D01*
X164888838Y-136377167D01*
X165030883Y-136720943D01*
X165293673Y-136984192D01*
X165637201Y-137126838D01*
X166009167Y-137127162D01*
X166352943Y-136985117D01*
X166616192Y-136722327D01*
X166758838Y-136378799D01*
X166759161Y-136008419D01*
X167690579Y-135077000D01*
X168884568Y-135077000D01*
X168994853Y-135242054D01*
X169324026Y-135462000D01*
X168994853Y-135681946D01*
X168672946Y-136163715D01*
X168559907Y-136732000D01*
X168672946Y-137300285D01*
X168994853Y-137782054D01*
X169476622Y-138103961D01*
X170044907Y-138217000D01*
X170103093Y-138217000D01*
X170671378Y-138103961D01*
X171153147Y-137782054D01*
X171475054Y-137300285D01*
X171588093Y-136732000D01*
X171475054Y-136163715D01*
X171153147Y-135681946D01*
X170823974Y-135462000D01*
X171153147Y-135242054D01*
X171475054Y-134760285D01*
X171588093Y-134192000D01*
X171475054Y-133623715D01*
X171153147Y-133141946D01*
X171109223Y-133112597D01*
X171171765Y-133100157D01*
X171381809Y-132959809D01*
X171522157Y-132749765D01*
X171571440Y-132502000D01*
X171571440Y-130802000D01*
X171522157Y-130554235D01*
X171381809Y-130344191D01*
X171171765Y-130203843D01*
X170924000Y-130154560D01*
X169224000Y-130154560D01*
X168976235Y-130203843D01*
X168766191Y-130344191D01*
X168625843Y-130554235D01*
X168576560Y-130802000D01*
X168576560Y-132502000D01*
X168625843Y-132749765D01*
X168766191Y-132959809D01*
X168976235Y-133100157D01*
X169038777Y-133112597D01*
X168994853Y-133141946D01*
X168884568Y-133307000D01*
X168209000Y-133307000D01*
X168209000Y-131942005D01*
X168209001Y-131942000D01*
X168141633Y-131603326D01*
X168141633Y-131603325D01*
X167949790Y-131316210D01*
X167949787Y-131316208D01*
X166999790Y-130366210D01*
X166906971Y-130304191D01*
X166849106Y-130265526D01*
X166471440Y-129887861D01*
X166471440Y-128892000D01*
X166446530Y-128766769D01*
X166530893Y-128970943D01*
X166793683Y-129234192D01*
X167137211Y-129376838D01*
X167509177Y-129377162D01*
X167852953Y-129235117D01*
X168116202Y-128972327D01*
X168149556Y-128892000D01*
X175176560Y-128892000D01*
X175176560Y-130492000D01*
X175225843Y-130739765D01*
X175366191Y-130949809D01*
X175474892Y-131022441D01*
X175477264Y-131034367D01*
X175488868Y-131092702D01*
X175488838Y-131127167D01*
X175502115Y-131159301D01*
X175506367Y-131180675D01*
X175518369Y-131198637D01*
X175630883Y-131470943D01*
X175893673Y-131734192D01*
X176014986Y-131784566D01*
X176239000Y-132008579D01*
X176239000Y-132427129D01*
X176200843Y-132484235D01*
X176151560Y-132732000D01*
X176151560Y-134732000D01*
X176200843Y-134979765D01*
X176341191Y-135189809D01*
X176551235Y-135330157D01*
X176799000Y-135379440D01*
X177449000Y-135379440D01*
X177696765Y-135330157D01*
X177906809Y-135189809D01*
X178047157Y-134979765D01*
X178074000Y-134844815D01*
X178100843Y-134979765D01*
X178241191Y-135189809D01*
X178451235Y-135330157D01*
X178670042Y-135373680D01*
X178531808Y-135511673D01*
X178524404Y-135529504D01*
X178399000Y-135504560D01*
X177749000Y-135504560D01*
X177501235Y-135553843D01*
X177291191Y-135694191D01*
X177150843Y-135904235D01*
X177101560Y-136152000D01*
X177101560Y-138152000D01*
X177150843Y-138399765D01*
X177291191Y-138609809D01*
X177299660Y-138615468D01*
X177448210Y-138837790D01*
X178856560Y-140246139D01*
X178856560Y-141342000D01*
X178905843Y-141589765D01*
X179046191Y-141799809D01*
X179256235Y-141940157D01*
X179504000Y-141989440D01*
X180704000Y-141989440D01*
X180951765Y-141940157D01*
X181161809Y-141799809D01*
X181302157Y-141589765D01*
X181351440Y-141342000D01*
X181351440Y-139142000D01*
X181302157Y-138894235D01*
X181161809Y-138684191D01*
X180951765Y-138543843D01*
X180704000Y-138494560D01*
X179608140Y-138494560D01*
X179046440Y-137932860D01*
X179046440Y-136939151D01*
X179137201Y-136976838D01*
X179509167Y-136977162D01*
X179852943Y-136835117D01*
X180116192Y-136572327D01*
X180166566Y-136451014D01*
X181540579Y-135077000D01*
X183134568Y-135077000D01*
X183244853Y-135242054D01*
X183574026Y-135462000D01*
X183244853Y-135681946D01*
X182922946Y-136163715D01*
X182809907Y-136732000D01*
X182922946Y-137300285D01*
X183244853Y-137782054D01*
X183726622Y-138103961D01*
X184294907Y-138217000D01*
X184353093Y-138217000D01*
X184921378Y-138103961D01*
X185403147Y-137782054D01*
X185725054Y-137300285D01*
X185838093Y-136732000D01*
X185725054Y-136163715D01*
X185403147Y-135681946D01*
X185073974Y-135462000D01*
X185403147Y-135242054D01*
X185725054Y-134760285D01*
X185838093Y-134192000D01*
X185725054Y-133623715D01*
X185403147Y-133141946D01*
X185359223Y-133112597D01*
X185421765Y-133100157D01*
X185631809Y-132959809D01*
X185772157Y-132749765D01*
X185821440Y-132502000D01*
X185821440Y-130802000D01*
X185772157Y-130554235D01*
X185631809Y-130344191D01*
X185421765Y-130203843D01*
X185174000Y-130154560D01*
X183474000Y-130154560D01*
X183226235Y-130203843D01*
X183016191Y-130344191D01*
X182875843Y-130554235D01*
X182826560Y-130802000D01*
X182826560Y-132502000D01*
X182875843Y-132749765D01*
X183016191Y-132959809D01*
X183226235Y-133100157D01*
X183288777Y-133112597D01*
X183244853Y-133141946D01*
X183134568Y-133307000D01*
X182059000Y-133307000D01*
X182059000Y-131842005D01*
X182059001Y-131842000D01*
X181991633Y-131503325D01*
X181967889Y-131467790D01*
X181799790Y-131216210D01*
X181799787Y-131216208D01*
X180471440Y-129887860D01*
X180471440Y-128892000D01*
X189176560Y-128892000D01*
X189176560Y-130492000D01*
X189225843Y-130739765D01*
X189366191Y-130949809D01*
X189474892Y-131022441D01*
X189477264Y-131034367D01*
X189488868Y-131092702D01*
X189488838Y-131127167D01*
X189502115Y-131159301D01*
X189506367Y-131180675D01*
X189518369Y-131198637D01*
X189630883Y-131470943D01*
X189893673Y-131734192D01*
X190014986Y-131784566D01*
X190239000Y-132008579D01*
X190239000Y-132427129D01*
X190200843Y-132484235D01*
X190151560Y-132732000D01*
X190151560Y-134732000D01*
X190200843Y-134979765D01*
X190341191Y-135189809D01*
X190551235Y-135330157D01*
X190799000Y-135379440D01*
X191449000Y-135379440D01*
X191696765Y-135330157D01*
X191906809Y-135189809D01*
X192047157Y-134979765D01*
X192074000Y-134844815D01*
X192100843Y-134979765D01*
X192241191Y-135189809D01*
X192451235Y-135330157D01*
X192670042Y-135373680D01*
X192531808Y-135511673D01*
X192524404Y-135529504D01*
X192399000Y-135504560D01*
X191749000Y-135504560D01*
X191501235Y-135553843D01*
X191291191Y-135694191D01*
X191150843Y-135904235D01*
X191101560Y-136152000D01*
X191101560Y-138152000D01*
X191150843Y-138399765D01*
X191291191Y-138609809D01*
X191501235Y-138750157D01*
X191637727Y-138777307D01*
X193081560Y-140221139D01*
X193081560Y-141317000D01*
X193130843Y-141564765D01*
X193271191Y-141774809D01*
X193481235Y-141915157D01*
X193729000Y-141964440D01*
X194929000Y-141964440D01*
X195176765Y-141915157D01*
X195386809Y-141774809D01*
X195527157Y-141564765D01*
X195576440Y-141317000D01*
X195576440Y-139117000D01*
X195527157Y-138869235D01*
X195386809Y-138659191D01*
X195176765Y-138518843D01*
X194929000Y-138469560D01*
X193833139Y-138469560D01*
X193046440Y-137682860D01*
X193046440Y-136939151D01*
X193137201Y-136976838D01*
X193509167Y-136977162D01*
X193852943Y-136835117D01*
X194116192Y-136572327D01*
X194166566Y-136451014D01*
X195580579Y-135037000D01*
X197384568Y-135037000D01*
X197494853Y-135202054D01*
X197824026Y-135422000D01*
X197494853Y-135641946D01*
X197172946Y-136123715D01*
X197059907Y-136692000D01*
X197172946Y-137260285D01*
X197494853Y-137742054D01*
X197976622Y-138063961D01*
X198544907Y-138177000D01*
X198603093Y-138177000D01*
X199171378Y-138063961D01*
X199653147Y-137742054D01*
X199975054Y-137260285D01*
X200088093Y-136692000D01*
X199975054Y-136123715D01*
X199653147Y-135641946D01*
X199323974Y-135422000D01*
X199653147Y-135202054D01*
X199975054Y-134720285D01*
X200088093Y-134152000D01*
X199975054Y-133583715D01*
X199653147Y-133101946D01*
X199609223Y-133072597D01*
X199671765Y-133060157D01*
X199881809Y-132919809D01*
X200022157Y-132709765D01*
X200071440Y-132462000D01*
X200071440Y-130762000D01*
X200022157Y-130514235D01*
X199881809Y-130304191D01*
X199671765Y-130163843D01*
X199424000Y-130114560D01*
X197724000Y-130114560D01*
X197476235Y-130163843D01*
X197266191Y-130304191D01*
X197125843Y-130514235D01*
X197076560Y-130762000D01*
X197076560Y-132462000D01*
X197125843Y-132709765D01*
X197266191Y-132919809D01*
X197476235Y-133060157D01*
X197538777Y-133072597D01*
X197494853Y-133101946D01*
X197384568Y-133267000D01*
X196069000Y-133267000D01*
X196069000Y-131852005D01*
X196069001Y-131852000D01*
X196001633Y-131513325D01*
X195943953Y-131427000D01*
X195809790Y-131226210D01*
X195809787Y-131226208D01*
X194471440Y-129887860D01*
X194471440Y-128892000D01*
X194422157Y-128644235D01*
X194281809Y-128434191D01*
X194071765Y-128293843D01*
X193824000Y-128244560D01*
X192824000Y-128244560D01*
X192576235Y-128293843D01*
X192366191Y-128434191D01*
X192225843Y-128644235D01*
X192176560Y-128892000D01*
X192176560Y-130492000D01*
X192225843Y-130739765D01*
X192366191Y-130949809D01*
X192576235Y-131090157D01*
X192824000Y-131139440D01*
X193219860Y-131139440D01*
X194299000Y-132218579D01*
X194299000Y-133815421D01*
X193996440Y-134117981D01*
X193996440Y-133991870D01*
X194116192Y-133872327D01*
X194258838Y-133528799D01*
X194259162Y-133156833D01*
X194117117Y-132813057D01*
X193986546Y-132682258D01*
X193947157Y-132484235D01*
X193806809Y-132274191D01*
X193596765Y-132133843D01*
X193349000Y-132084560D01*
X192699000Y-132084560D01*
X192451235Y-132133843D01*
X192241191Y-132274191D01*
X192100843Y-132484235D01*
X192074000Y-132619185D01*
X192047157Y-132484235D01*
X192009000Y-132427129D01*
X192009000Y-131642000D01*
X191941633Y-131303325D01*
X191749790Y-131016210D01*
X191749787Y-131016208D01*
X191430649Y-130697070D01*
X191471440Y-130492000D01*
X191471440Y-128892000D01*
X191422157Y-128644235D01*
X191281809Y-128434191D01*
X191071765Y-128293843D01*
X190824000Y-128244560D01*
X189824000Y-128244560D01*
X189576235Y-128293843D01*
X189366191Y-128434191D01*
X189225843Y-128644235D01*
X189176560Y-128892000D01*
X180471440Y-128892000D01*
X180422157Y-128644235D01*
X180281809Y-128434191D01*
X180071765Y-128293843D01*
X179824000Y-128244560D01*
X178824000Y-128244560D01*
X178576235Y-128293843D01*
X178366191Y-128434191D01*
X178225843Y-128644235D01*
X178176560Y-128892000D01*
X178176560Y-130492000D01*
X178225843Y-130739765D01*
X178366191Y-130949809D01*
X178576235Y-131090157D01*
X178824000Y-131139440D01*
X179219860Y-131139440D01*
X180289000Y-132208579D01*
X180289000Y-133825421D01*
X179996440Y-134117981D01*
X179996440Y-133991870D01*
X180116192Y-133872327D01*
X180258838Y-133528799D01*
X180259162Y-133156833D01*
X180117117Y-132813057D01*
X179986546Y-132682258D01*
X179947157Y-132484235D01*
X179806809Y-132274191D01*
X179596765Y-132133843D01*
X179349000Y-132084560D01*
X178699000Y-132084560D01*
X178451235Y-132133843D01*
X178241191Y-132274191D01*
X178100843Y-132484235D01*
X178074000Y-132619185D01*
X178047157Y-132484235D01*
X178009000Y-132427129D01*
X178009000Y-131642000D01*
X177941633Y-131303325D01*
X177749790Y-131016210D01*
X177749787Y-131016208D01*
X177430649Y-130697070D01*
X177471440Y-130492000D01*
X177471440Y-128892000D01*
X177422157Y-128644235D01*
X177281809Y-128434191D01*
X177071765Y-128293843D01*
X176824000Y-128244560D01*
X175824000Y-128244560D01*
X175576235Y-128293843D01*
X175366191Y-128434191D01*
X175225843Y-128644235D01*
X175176560Y-128892000D01*
X168149556Y-128892000D01*
X168258848Y-128628799D01*
X168259172Y-128256833D01*
X168117127Y-127913057D01*
X167854337Y-127649808D01*
X167510809Y-127507162D01*
X167463933Y-127507121D01*
X167334000Y-127377188D01*
X167334000Y-125979431D01*
X167366192Y-125947295D01*
X167508838Y-125603767D01*
X167508839Y-125602135D01*
X180136609Y-125602135D01*
X180278654Y-125945911D01*
X180541444Y-126209160D01*
X180564000Y-126218526D01*
X180564000Y-126629537D01*
X180531808Y-126661673D01*
X180389162Y-127005201D01*
X180388838Y-127377167D01*
X180530883Y-127720943D01*
X180793673Y-127984192D01*
X181137201Y-128126838D01*
X181509167Y-128127162D01*
X181852943Y-127985117D01*
X182116192Y-127722327D01*
X182258838Y-127378799D01*
X182259162Y-127006833D01*
X182117117Y-126663057D01*
X182084000Y-126629882D01*
X182084000Y-125669197D01*
X182026148Y-125378358D01*
X182006831Y-125349447D01*
X182006933Y-125231801D01*
X181864888Y-124888025D01*
X181602098Y-124624776D01*
X181258570Y-124482130D01*
X180886604Y-124481806D01*
X180542828Y-124623851D01*
X180279579Y-124886641D01*
X180136933Y-125230169D01*
X180136609Y-125602135D01*
X167508839Y-125602135D01*
X167509162Y-125231801D01*
X167367117Y-124888025D01*
X167104327Y-124624776D01*
X166760799Y-124482130D01*
X166388833Y-124481806D01*
X166045057Y-124623851D01*
X165781808Y-124886641D01*
X165639162Y-125230169D01*
X165638838Y-125602135D01*
X165780883Y-125945911D01*
X165814000Y-125979086D01*
X165814000Y-127691990D01*
X165871852Y-127982829D01*
X166036599Y-128229391D01*
X166160025Y-128352817D01*
X166071765Y-128293843D01*
X165824000Y-128244560D01*
X164824000Y-128244560D01*
X164576235Y-128293843D01*
X164366191Y-128434191D01*
X164225843Y-128644235D01*
X164176560Y-128892000D01*
X164176560Y-130492000D01*
X164225843Y-130739765D01*
X164366191Y-130949809D01*
X164576235Y-131090157D01*
X164824000Y-131139440D01*
X165219861Y-131139440D01*
X165698208Y-131617787D01*
X165698210Y-131617790D01*
X165809274Y-131692000D01*
X165848892Y-131718472D01*
X166439000Y-132308579D01*
X166439000Y-133825421D01*
X165487506Y-134776914D01*
X165496440Y-134732000D01*
X165496440Y-134331957D01*
X165566192Y-134262327D01*
X165708838Y-133918799D01*
X165709162Y-133546833D01*
X165567117Y-133203057D01*
X165496440Y-133132257D01*
X165496440Y-132732000D01*
X165447157Y-132484235D01*
X165306809Y-132274191D01*
X165096765Y-132133843D01*
X164849000Y-132084560D01*
X164199000Y-132084560D01*
X163951235Y-132133843D01*
X163759000Y-132262291D01*
X163759000Y-131392005D01*
X163759001Y-131392000D01*
X163691633Y-131053325D01*
X163617248Y-130942000D01*
X163499790Y-130766210D01*
X163499787Y-130766208D01*
X163430649Y-130697070D01*
X163471440Y-130492000D01*
X163471440Y-128892000D01*
X163422157Y-128644235D01*
X163281809Y-128434191D01*
X163071765Y-128293843D01*
X162824000Y-128244560D01*
X161824000Y-128244560D01*
X161576235Y-128293843D01*
X161366191Y-128434191D01*
X161225843Y-128644235D01*
X161176560Y-128892000D01*
X153509044Y-128892000D01*
X153509162Y-128756833D01*
X153367117Y-128413057D01*
X153334000Y-128379882D01*
X153334000Y-126504463D01*
X153366192Y-126472327D01*
X153508838Y-126128799D01*
X153509162Y-125756833D01*
X153367117Y-125413057D01*
X153104327Y-125149808D01*
X152760799Y-125007162D01*
X152388833Y-125006838D01*
X152045057Y-125148883D01*
X151781808Y-125411673D01*
X151639162Y-125755201D01*
X151638838Y-126127167D01*
X151780883Y-126470943D01*
X151814000Y-126504118D01*
X151814000Y-128379537D01*
X151781808Y-128411673D01*
X151639162Y-128755201D01*
X151638838Y-129127167D01*
X151729031Y-129345451D01*
X151471440Y-129087860D01*
X151471440Y-128892000D01*
X151422157Y-128644235D01*
X151281809Y-128434191D01*
X151071765Y-128293843D01*
X150824000Y-128244560D01*
X149824000Y-128244560D01*
X149576235Y-128293843D01*
X149366191Y-128434191D01*
X149225843Y-128644235D01*
X149176560Y-128892000D01*
X149176560Y-130492000D01*
X149225843Y-130739765D01*
X149366191Y-130949809D01*
X149576235Y-131090157D01*
X149824000Y-131139440D01*
X150824000Y-131139440D01*
X150987365Y-131106945D01*
X151439000Y-131558579D01*
X151439000Y-133825421D01*
X150746440Y-134517981D01*
X150746440Y-132732000D01*
X150697157Y-132484235D01*
X150556809Y-132274191D01*
X150346765Y-132133843D01*
X150099000Y-132084560D01*
X149449000Y-132084560D01*
X149201235Y-132133843D01*
X148991191Y-132274191D01*
X148850843Y-132484235D01*
X148824000Y-132619185D01*
X148797157Y-132484235D01*
X148759000Y-132427129D01*
X148759000Y-131392005D01*
X148759001Y-131392000D01*
X148691633Y-131053325D01*
X148617248Y-130942000D01*
X148499790Y-130766210D01*
X148499787Y-130766208D01*
X148430649Y-130697070D01*
X148471440Y-130492000D01*
X148471440Y-128892000D01*
X148422157Y-128644235D01*
X148281809Y-128434191D01*
X148071765Y-128293843D01*
X147824000Y-128244560D01*
X146824000Y-128244560D01*
X146576235Y-128293843D01*
X146366191Y-128434191D01*
X146225843Y-128644235D01*
X146176560Y-128892000D01*
X137670664Y-128892000D01*
X137531809Y-128684191D01*
X137321765Y-128543843D01*
X137074000Y-128494560D01*
X136074000Y-128494560D01*
X135826235Y-128543843D01*
X135616191Y-128684191D01*
X135475843Y-128894235D01*
X135426560Y-129142000D01*
X135426560Y-130742000D01*
X135475843Y-130989765D01*
X135616191Y-131199809D01*
X135690481Y-131249448D01*
X135734540Y-131470943D01*
X135756367Y-131580675D01*
X135909351Y-131809633D01*
X135926007Y-131834560D01*
X135699000Y-131834560D01*
X135451235Y-131883843D01*
X135241191Y-132024191D01*
X135100843Y-132234235D01*
X135074000Y-132369185D01*
X135047157Y-132234235D01*
X134906809Y-132024191D01*
X134696765Y-131883843D01*
X134449000Y-131834560D01*
X133799000Y-131834560D01*
X133551235Y-131883843D01*
X133341191Y-132024191D01*
X133200843Y-132234235D01*
X133151560Y-132482000D01*
X127213001Y-132482000D01*
X127213001Y-129142000D01*
X132426560Y-129142000D01*
X132426560Y-130742000D01*
X132475843Y-130989765D01*
X132616191Y-131199809D01*
X132624424Y-131205310D01*
X132630883Y-131220943D01*
X132893673Y-131484192D01*
X133237201Y-131626838D01*
X133609167Y-131627162D01*
X133952943Y-131485117D01*
X134048787Y-131389440D01*
X134074000Y-131389440D01*
X134321765Y-131340157D01*
X134531809Y-131199809D01*
X134672157Y-130989765D01*
X134721440Y-130742000D01*
X134721440Y-129142000D01*
X134672157Y-128894235D01*
X134531809Y-128684191D01*
X134321765Y-128543843D01*
X134074000Y-128494560D01*
X133074000Y-128494560D01*
X132826235Y-128543843D01*
X132616191Y-128684191D01*
X132475843Y-128894235D01*
X132426560Y-129142000D01*
X127213001Y-129142000D01*
X127213001Y-127643321D01*
X127396637Y-127827278D01*
X127997352Y-128076716D01*
X128647795Y-128077284D01*
X129248943Y-127828894D01*
X129709278Y-127369363D01*
X129958716Y-126768648D01*
X129959284Y-126118205D01*
X129710894Y-125517057D01*
X129271606Y-125077000D01*
X130824000Y-125077000D01*
X131258346Y-124990603D01*
X131626566Y-124744566D01*
X138294132Y-118077000D01*
X166574000Y-118077000D01*
X167008346Y-117990603D01*
X167376566Y-117744566D01*
X171376566Y-113744566D01*
X171408826Y-113696285D01*
X171622603Y-113376346D01*
X171709000Y-112942000D01*
X171709000Y-101575185D01*
X171721151Y-101557000D01*
X171947612Y-101218077D01*
X172034009Y-100783731D01*
X172034009Y-96850269D01*
X171947612Y-96415923D01*
X171709000Y-96058815D01*
X171709000Y-76402000D01*
X206885127Y-76402000D01*
X206266484Y-76657618D01*
X206266484Y-76657618D01*
G37*
X206266484Y-76657618D02*
X204595485Y-78325703D01*
X203690032Y-80506276D01*
X203687972Y-82867365D01*
X204589618Y-85049516D01*
X206257703Y-86720515D01*
X208438276Y-87625968D01*
X210799365Y-87628028D01*
X212981516Y-86726382D01*
X214652515Y-85058297D01*
X215114000Y-83946918D01*
X215114000Y-147437164D01*
X214658382Y-146334484D01*
X212990297Y-144663485D01*
X210809724Y-143758032D01*
X208448635Y-143755972D01*
X206266484Y-144657618D01*
X204595485Y-146325703D01*
X203690032Y-148506276D01*
X203687972Y-150867365D01*
X204589618Y-153049516D01*
X206257703Y-154720515D01*
X206887429Y-154982000D01*
X124762873Y-154982000D01*
X125381516Y-154726382D01*
X127052515Y-153058297D01*
X127957968Y-150877724D01*
X127960028Y-148516635D01*
X127058382Y-146334484D01*
X125390297Y-144663485D01*
X123209724Y-143758032D01*
X120848635Y-143755972D01*
X118666484Y-144657618D01*
X116995485Y-146325703D01*
X116534000Y-147437082D01*
X116534000Y-143242000D01*
X131276560Y-143242000D01*
X131276560Y-149642000D01*
X131325843Y-149889765D01*
X131466191Y-150099809D01*
X131676235Y-150240157D01*
X131924000Y-150289440D01*
X134689000Y-150289440D01*
X134689000Y-151942000D01*
X134737336Y-152185004D01*
X134874987Y-152391013D01*
X135080996Y-152528664D01*
X135324000Y-152577000D01*
X136324000Y-152577000D01*
X136487616Y-152555559D01*
X143987616Y-150555559D01*
X144273013Y-150391013D01*
X144410664Y-150185004D01*
X144459000Y-149942000D01*
X144459000Y-143317000D01*
X145551560Y-143317000D01*
X145551560Y-149717000D01*
X145600843Y-149964765D01*
X145741191Y-150174809D01*
X145951235Y-150315157D01*
X146199000Y-150364440D01*
X149010802Y-150364440D01*
X149010802Y-151942000D01*
X149059138Y-152185004D01*
X149196789Y-152391013D01*
X149402798Y-152528664D01*
X149645802Y-152577000D01*
X150645802Y-152577000D01*
X150809418Y-152555559D01*
X158309418Y-150555559D01*
X158594815Y-150391013D01*
X158732466Y-150185004D01*
X158780802Y-149942000D01*
X158780802Y-143317000D01*
X160051560Y-143317000D01*
X160051560Y-149717000D01*
X160100843Y-149964765D01*
X160241191Y-150174809D01*
X160451235Y-150315157D01*
X160699000Y-150364440D01*
X163608841Y-150364440D01*
X163608841Y-152080043D01*
X163657177Y-152323047D01*
X163794828Y-152529056D01*
X164000837Y-152666707D01*
X164243841Y-152715043D01*
X165243841Y-152715043D01*
X165407457Y-152693602D01*
X172907457Y-150693602D01*
X173192854Y-150529056D01*
X173330505Y-150323047D01*
X173378841Y-150080043D01*
X173378841Y-143342000D01*
X174276560Y-143342000D01*
X174276560Y-149742000D01*
X174325843Y-149989765D01*
X174466191Y-150199809D01*
X174676235Y-150340157D01*
X174924000Y-150389440D01*
X177800670Y-150389440D01*
X177800670Y-150719831D01*
X177775397Y-150757655D01*
X177689000Y-151192000D01*
X177775397Y-151626345D01*
X177800670Y-151664169D01*
X177800670Y-152080043D01*
X177849006Y-152323047D01*
X177986657Y-152529056D01*
X178192666Y-152666707D01*
X178435670Y-152715043D01*
X179435670Y-152715043D01*
X179599286Y-152693602D01*
X187099286Y-150693602D01*
X187384683Y-150529056D01*
X187522334Y-150323047D01*
X187570670Y-150080043D01*
X187570670Y-143317000D01*
X188501560Y-143317000D01*
X188501560Y-149717000D01*
X188550843Y-149964765D01*
X188691191Y-150174809D01*
X188901235Y-150315157D01*
X189149000Y-150364440D01*
X192178707Y-150364440D01*
X192178707Y-150992380D01*
X192139000Y-151192000D01*
X192178707Y-151391620D01*
X192178707Y-152078079D01*
X192227043Y-152321083D01*
X192364694Y-152527092D01*
X192570703Y-152664743D01*
X192813707Y-152713079D01*
X193813707Y-152713079D01*
X193977323Y-152691638D01*
X201477323Y-150691638D01*
X201762720Y-150527092D01*
X201900371Y-150321083D01*
X201948707Y-150078079D01*
X201948707Y-141578079D01*
X201900371Y-141335075D01*
X201762720Y-141129066D01*
X201556711Y-140991415D01*
X201313707Y-140943079D01*
X199563707Y-140943079D01*
X199305809Y-140997809D01*
X195291323Y-142782025D01*
X195196765Y-142718843D01*
X194949000Y-142669560D01*
X189149000Y-142669560D01*
X188901235Y-142718843D01*
X188691191Y-142859191D01*
X188550843Y-143069235D01*
X188501560Y-143317000D01*
X187570670Y-143317000D01*
X187570670Y-141580043D01*
X187522334Y-141337039D01*
X187384683Y-141131030D01*
X187178674Y-140993379D01*
X186935670Y-140945043D01*
X185185670Y-140945043D01*
X184927772Y-140999773D01*
X180984488Y-142752344D01*
X180971765Y-142743843D01*
X180724000Y-142694560D01*
X174924000Y-142694560D01*
X174676235Y-142743843D01*
X174466191Y-142884191D01*
X174325843Y-143094235D01*
X174276560Y-143342000D01*
X173378841Y-143342000D01*
X173378841Y-141580043D01*
X173330505Y-141337039D01*
X173192854Y-141131030D01*
X172986845Y-140993379D01*
X172743841Y-140945043D01*
X170993841Y-140945043D01*
X170735943Y-140999773D01*
X166795207Y-142751211D01*
X166746765Y-142718843D01*
X166499000Y-142669560D01*
X160699000Y-142669560D01*
X160451235Y-142718843D01*
X160241191Y-142859191D01*
X160100843Y-143069235D01*
X160051560Y-143317000D01*
X158780802Y-143317000D01*
X158780802Y-141442000D01*
X158732466Y-141198996D01*
X158594815Y-140992987D01*
X158388806Y-140855336D01*
X158145802Y-140807000D01*
X156395802Y-140807000D01*
X156137904Y-140861730D01*
X152048247Y-142679356D01*
X151999000Y-142669560D01*
X146199000Y-142669560D01*
X145951235Y-142718843D01*
X145741191Y-142859191D01*
X145600843Y-143069235D01*
X145551560Y-143317000D01*
X144459000Y-143317000D01*
X144459000Y-141442000D01*
X144410664Y-141198996D01*
X144273013Y-140992987D01*
X144067004Y-140855336D01*
X143824000Y-140807000D01*
X142074000Y-140807000D01*
X141816102Y-140861730D01*
X137857491Y-142621113D01*
X137724000Y-142594560D01*
X131924000Y-142594560D01*
X131676235Y-142643843D01*
X131466191Y-142784191D01*
X131325843Y-142994235D01*
X131276560Y-143242000D01*
X116534000Y-143242000D01*
X116534000Y-139042000D01*
X135856560Y-139042000D01*
X135856560Y-141242000D01*
X135905843Y-141489765D01*
X136046191Y-141699809D01*
X136256235Y-141840157D01*
X136504000Y-141889440D01*
X137704000Y-141889440D01*
X137951765Y-141840157D01*
X138161809Y-141699809D01*
X138302157Y-141489765D01*
X138351440Y-141242000D01*
X138351440Y-139042000D01*
X138302157Y-138794235D01*
X138161809Y-138584191D01*
X137951765Y-138443843D01*
X137704000Y-138394560D01*
X136504000Y-138394560D01*
X136256235Y-138443843D01*
X136046191Y-138584191D01*
X135905843Y-138794235D01*
X135856560Y-139042000D01*
X116534000Y-139042000D01*
X116534000Y-136077000D01*
X125074000Y-136077000D01*
X125508346Y-135990603D01*
X125876566Y-135744566D01*
X126880567Y-134740565D01*
X126929830Y-134666838D01*
X127126604Y-134372345D01*
X127213001Y-133937999D01*
X127213001Y-132482000D01*
X133151560Y-132482000D01*
X133151560Y-134482000D01*
X133200843Y-134729765D01*
X133341191Y-134939809D01*
X133551235Y-135080157D01*
X133799000Y-135129440D01*
X134449000Y-135129440D01*
X134696765Y-135080157D01*
X134906809Y-134939809D01*
X135047157Y-134729765D01*
X135074000Y-134594815D01*
X135100843Y-134729765D01*
X135241191Y-134939809D01*
X135451235Y-135080157D01*
X135699000Y-135129440D01*
X136234980Y-135129440D01*
X135915164Y-135449256D01*
X135872086Y-135467055D01*
X135856809Y-135444191D01*
X135646765Y-135303843D01*
X135399000Y-135254560D01*
X134749000Y-135254560D01*
X134501235Y-135303843D01*
X134291191Y-135444191D01*
X134150843Y-135654235D01*
X134101560Y-135902000D01*
X134101560Y-137902000D01*
X134150843Y-138149765D01*
X134291191Y-138359809D01*
X134501235Y-138500157D01*
X134749000Y-138549440D01*
X135399000Y-138549440D01*
X135646765Y-138500157D01*
X135856809Y-138359809D01*
X135997157Y-138149765D01*
X136046440Y-137902000D01*
X136046440Y-137189151D01*
X136137201Y-137226838D01*
X136509167Y-137227162D01*
X136852943Y-137085117D01*
X137116192Y-136822327D01*
X137166566Y-136701014D01*
X138830579Y-135037000D01*
X139634568Y-135037000D01*
X139744853Y-135202054D01*
X140074026Y-135422000D01*
X139744853Y-135641946D01*
X139422946Y-136123715D01*
X139309907Y-136692000D01*
X139422946Y-137260285D01*
X139744853Y-137742054D01*
X140226622Y-138063961D01*
X140794907Y-138177000D01*
X140853093Y-138177000D01*
X141421378Y-138063961D01*
X141903147Y-137742054D01*
X142225054Y-137260285D01*
X142338093Y-136692000D01*
X142225054Y-136123715D01*
X141903147Y-135641946D01*
X141573974Y-135422000D01*
X141903147Y-135202054D01*
X142225054Y-134720285D01*
X142338093Y-134152000D01*
X142225054Y-133583715D01*
X141903147Y-133101946D01*
X141859223Y-133072597D01*
X141921765Y-133060157D01*
X142131809Y-132919809D01*
X142272157Y-132709765D01*
X142321440Y-132462000D01*
X142321440Y-130762000D01*
X142272157Y-130514235D01*
X142131809Y-130304191D01*
X141921765Y-130163843D01*
X141674000Y-130114560D01*
X139974000Y-130114560D01*
X139726235Y-130163843D01*
X139516191Y-130304191D01*
X139375843Y-130514235D01*
X139326560Y-130762000D01*
X139326560Y-132462000D01*
X139375843Y-132709765D01*
X139516191Y-132919809D01*
X139726235Y-133060157D01*
X139788777Y-133072597D01*
X139744853Y-133101946D01*
X139634568Y-133267000D01*
X139349000Y-133267000D01*
X139349000Y-133132005D01*
X139349001Y-133132000D01*
X139283557Y-132802999D01*
X139281633Y-132793325D01*
X139089790Y-132506210D01*
X139089787Y-132506208D01*
X137632578Y-131048998D01*
X137672157Y-130989765D01*
X137721440Y-130742000D01*
X137721440Y-129142000D01*
X137672157Y-128894235D01*
X137670664Y-128892000D01*
X146176560Y-128892000D01*
X146176560Y-130492000D01*
X146225843Y-130739765D01*
X146366191Y-130949809D01*
X146474892Y-131022441D01*
X146477264Y-131034367D01*
X146488868Y-131092702D01*
X146488838Y-131127167D01*
X146502115Y-131159301D01*
X146506367Y-131180675D01*
X146518369Y-131198637D01*
X146630883Y-131470943D01*
X146893673Y-131734192D01*
X146989000Y-131773775D01*
X146989000Y-132427129D01*
X146950843Y-132484235D01*
X146901560Y-132732000D01*
X146901560Y-134732000D01*
X146950843Y-134979765D01*
X147091191Y-135189809D01*
X147301235Y-135330157D01*
X147549000Y-135379440D01*
X148199000Y-135379440D01*
X148446765Y-135330157D01*
X148656809Y-135189809D01*
X148797157Y-134979765D01*
X148824000Y-134844815D01*
X148850843Y-134979765D01*
X148991191Y-135189809D01*
X149201235Y-135330157D01*
X149449000Y-135379440D01*
X149842113Y-135379440D01*
X149795057Y-135398883D01*
X149542367Y-135651132D01*
X149396765Y-135553843D01*
X149149000Y-135504560D01*
X148499000Y-135504560D01*
X148251235Y-135553843D01*
X148041191Y-135694191D01*
X147900843Y-135904235D01*
X147851560Y-136152000D01*
X147851560Y-138152000D01*
X147900843Y-138399765D01*
X148041191Y-138609809D01*
X148251235Y-138750157D01*
X148499000Y-138799440D01*
X148709860Y-138799440D01*
X149540936Y-139630516D01*
X149489162Y-139755201D01*
X149488838Y-140127167D01*
X149630883Y-140470943D01*
X149893673Y-140734192D01*
X150014987Y-140784566D01*
X150073208Y-140842787D01*
X150073210Y-140842790D01*
X150131560Y-140881778D01*
X150131560Y-141317000D01*
X150180843Y-141564765D01*
X150321191Y-141774809D01*
X150531235Y-141915157D01*
X150779000Y-141964440D01*
X151979000Y-141964440D01*
X152226765Y-141915157D01*
X152436809Y-141774809D01*
X152577157Y-141564765D01*
X152626440Y-141317000D01*
X152626440Y-139117000D01*
X152577157Y-138869235D01*
X152436809Y-138659191D01*
X152226765Y-138518843D01*
X151979000Y-138469560D01*
X150883139Y-138469560D01*
X149796440Y-137382860D01*
X149796440Y-136985341D01*
X150137201Y-137126838D01*
X150509167Y-137127162D01*
X150852943Y-136985117D01*
X151116192Y-136722327D01*
X151166566Y-136601014D01*
X152690579Y-135077000D01*
X153884568Y-135077000D01*
X153994853Y-135242054D01*
X154324026Y-135462000D01*
X153994853Y-135681946D01*
X153672946Y-136163715D01*
X153559907Y-136732000D01*
X153672946Y-137300285D01*
X153994853Y-137782054D01*
X154476622Y-138103961D01*
X155044907Y-138217000D01*
X155103093Y-138217000D01*
X155671378Y-138103961D01*
X156153147Y-137782054D01*
X156475054Y-137300285D01*
X156588093Y-136732000D01*
X156475054Y-136163715D01*
X156467227Y-136152000D01*
X162601560Y-136152000D01*
X162601560Y-138152000D01*
X162650843Y-138399765D01*
X162791191Y-138609809D01*
X163001235Y-138750157D01*
X163200142Y-138789722D01*
X164631560Y-140221139D01*
X164631560Y-141317000D01*
X164680843Y-141564765D01*
X164821191Y-141774809D01*
X165031235Y-141915157D01*
X165279000Y-141964440D01*
X166479000Y-141964440D01*
X166726765Y-141915157D01*
X166936809Y-141774809D01*
X167077157Y-141564765D01*
X167126440Y-141317000D01*
X167126440Y-139117000D01*
X167077157Y-138869235D01*
X166936809Y-138659191D01*
X166726765Y-138518843D01*
X166479000Y-138469560D01*
X165383140Y-138469560D01*
X164709000Y-137795420D01*
X164709000Y-137152000D01*
X164641633Y-136813325D01*
X164546440Y-136670858D01*
X164546440Y-136152000D01*
X164497157Y-135904235D01*
X164356809Y-135694191D01*
X164146765Y-135553843D01*
X163899000Y-135504560D01*
X163249000Y-135504560D01*
X163001235Y-135553843D01*
X162791191Y-135694191D01*
X162650843Y-135904235D01*
X162601560Y-136152000D01*
X156467227Y-136152000D01*
X156153147Y-135681946D01*
X155823974Y-135462000D01*
X156153147Y-135242054D01*
X156475054Y-134760285D01*
X156588093Y-134192000D01*
X156475054Y-133623715D01*
X156153147Y-133141946D01*
X156109223Y-133112597D01*
X156171765Y-133100157D01*
X156381809Y-132959809D01*
X156522157Y-132749765D01*
X156571440Y-132502000D01*
X156571440Y-130802000D01*
X156522157Y-130554235D01*
X156381809Y-130344191D01*
X156171765Y-130203843D01*
X155924000Y-130154560D01*
X154224000Y-130154560D01*
X153976235Y-130203843D01*
X153766191Y-130344191D01*
X153625843Y-130554235D01*
X153576560Y-130802000D01*
X153576560Y-132502000D01*
X153625843Y-132749765D01*
X153766191Y-132959809D01*
X153976235Y-133100157D01*
X154038777Y-133112597D01*
X153994853Y-133141946D01*
X153884568Y-133307000D01*
X153209000Y-133307000D01*
X153209000Y-131192000D01*
X153141633Y-130853325D01*
X152949790Y-130566210D01*
X152949787Y-130566208D01*
X152170389Y-129786809D01*
X152387201Y-129876838D01*
X152759167Y-129877162D01*
X153102943Y-129735117D01*
X153366192Y-129472327D01*
X153508838Y-129128799D01*
X153509044Y-128892000D01*
X161176560Y-128892000D01*
X161176560Y-130492000D01*
X161225843Y-130739765D01*
X161366191Y-130949809D01*
X161474892Y-131022441D01*
X161477264Y-131034367D01*
X161488868Y-131092702D01*
X161488838Y-131127167D01*
X161502115Y-131159301D01*
X161506367Y-131180675D01*
X161518369Y-131198637D01*
X161630883Y-131470943D01*
X161893673Y-131734192D01*
X161989000Y-131773775D01*
X161989000Y-132175427D01*
X161841191Y-132274191D01*
X161700843Y-132484235D01*
X161651560Y-132732000D01*
X161651560Y-134732000D01*
X161700843Y-134979765D01*
X161841191Y-135189809D01*
X162051235Y-135330157D01*
X162299000Y-135379440D01*
X162949000Y-135379440D01*
X163196765Y-135330157D01*
X163406809Y-135189809D01*
X163547157Y-134979765D01*
X163574000Y-134844815D01*
X163600843Y-134979765D01*
X163741191Y-135189809D01*
X163951235Y-135330157D01*
X164199000Y-135379440D01*
X164849000Y-135379440D01*
X165010364Y-135347343D01*
X165006367Y-135353325D01*
X165001788Y-135376345D01*
X164938999Y-135692000D01*
X164939000Y-135692005D01*
X164939000Y-135885178D01*
X164889162Y-136005201D01*
X164888838Y-136377167D01*
X165030883Y-136720943D01*
X165293673Y-136984192D01*
X165637201Y-137126838D01*
X166009167Y-137127162D01*
X166352943Y-136985117D01*
X166616192Y-136722327D01*
X166758838Y-136378799D01*
X166759161Y-136008419D01*
X167690579Y-135077000D01*
X168884568Y-135077000D01*
X168994853Y-135242054D01*
X169324026Y-135462000D01*
X168994853Y-135681946D01*
X168672946Y-136163715D01*
X168559907Y-136732000D01*
X168672946Y-137300285D01*
X168994853Y-137782054D01*
X169476622Y-138103961D01*
X170044907Y-138217000D01*
X170103093Y-138217000D01*
X170671378Y-138103961D01*
X171153147Y-137782054D01*
X171475054Y-137300285D01*
X171588093Y-136732000D01*
X171475054Y-136163715D01*
X171153147Y-135681946D01*
X170823974Y-135462000D01*
X171153147Y-135242054D01*
X171475054Y-134760285D01*
X171588093Y-134192000D01*
X171475054Y-133623715D01*
X171153147Y-133141946D01*
X171109223Y-133112597D01*
X171171765Y-133100157D01*
X171381809Y-132959809D01*
X171522157Y-132749765D01*
X171571440Y-132502000D01*
X171571440Y-130802000D01*
X171522157Y-130554235D01*
X171381809Y-130344191D01*
X171171765Y-130203843D01*
X170924000Y-130154560D01*
X169224000Y-130154560D01*
X168976235Y-130203843D01*
X168766191Y-130344191D01*
X168625843Y-130554235D01*
X168576560Y-130802000D01*
X168576560Y-132502000D01*
X168625843Y-132749765D01*
X168766191Y-132959809D01*
X168976235Y-133100157D01*
X169038777Y-133112597D01*
X168994853Y-133141946D01*
X168884568Y-133307000D01*
X168209000Y-133307000D01*
X168209000Y-131942005D01*
X168209001Y-131942000D01*
X168141633Y-131603326D01*
X168141633Y-131603325D01*
X167949790Y-131316210D01*
X167949787Y-131316208D01*
X166999790Y-130366210D01*
X166906971Y-130304191D01*
X166849106Y-130265526D01*
X166471440Y-129887861D01*
X166471440Y-128892000D01*
X166446530Y-128766769D01*
X166530893Y-128970943D01*
X166793683Y-129234192D01*
X167137211Y-129376838D01*
X167509177Y-129377162D01*
X167852953Y-129235117D01*
X168116202Y-128972327D01*
X168149556Y-128892000D01*
X175176560Y-128892000D01*
X175176560Y-130492000D01*
X175225843Y-130739765D01*
X175366191Y-130949809D01*
X175474892Y-131022441D01*
X175477264Y-131034367D01*
X175488868Y-131092702D01*
X175488838Y-131127167D01*
X175502115Y-131159301D01*
X175506367Y-131180675D01*
X175518369Y-131198637D01*
X175630883Y-131470943D01*
X175893673Y-131734192D01*
X176014986Y-131784566D01*
X176239000Y-132008579D01*
X176239000Y-132427129D01*
X176200843Y-132484235D01*
X176151560Y-132732000D01*
X176151560Y-134732000D01*
X176200843Y-134979765D01*
X176341191Y-135189809D01*
X176551235Y-135330157D01*
X176799000Y-135379440D01*
X177449000Y-135379440D01*
X177696765Y-135330157D01*
X177906809Y-135189809D01*
X178047157Y-134979765D01*
X178074000Y-134844815D01*
X178100843Y-134979765D01*
X178241191Y-135189809D01*
X178451235Y-135330157D01*
X178670042Y-135373680D01*
X178531808Y-135511673D01*
X178524404Y-135529504D01*
X178399000Y-135504560D01*
X177749000Y-135504560D01*
X177501235Y-135553843D01*
X177291191Y-135694191D01*
X177150843Y-135904235D01*
X177101560Y-136152000D01*
X177101560Y-138152000D01*
X177150843Y-138399765D01*
X177291191Y-138609809D01*
X177299660Y-138615468D01*
X177448210Y-138837790D01*
X178856560Y-140246139D01*
X178856560Y-141342000D01*
X178905843Y-141589765D01*
X179046191Y-141799809D01*
X179256235Y-141940157D01*
X179504000Y-141989440D01*
X180704000Y-141989440D01*
X180951765Y-141940157D01*
X181161809Y-141799809D01*
X181302157Y-141589765D01*
X181351440Y-141342000D01*
X181351440Y-139142000D01*
X181302157Y-138894235D01*
X181161809Y-138684191D01*
X180951765Y-138543843D01*
X180704000Y-138494560D01*
X179608140Y-138494560D01*
X179046440Y-137932860D01*
X179046440Y-136939151D01*
X179137201Y-136976838D01*
X179509167Y-136977162D01*
X179852943Y-136835117D01*
X180116192Y-136572327D01*
X180166566Y-136451014D01*
X181540579Y-135077000D01*
X183134568Y-135077000D01*
X183244853Y-135242054D01*
X183574026Y-135462000D01*
X183244853Y-135681946D01*
X182922946Y-136163715D01*
X182809907Y-136732000D01*
X182922946Y-137300285D01*
X183244853Y-137782054D01*
X183726622Y-138103961D01*
X184294907Y-138217000D01*
X184353093Y-138217000D01*
X184921378Y-138103961D01*
X185403147Y-137782054D01*
X185725054Y-137300285D01*
X185838093Y-136732000D01*
X185725054Y-136163715D01*
X185403147Y-135681946D01*
X185073974Y-135462000D01*
X185403147Y-135242054D01*
X185725054Y-134760285D01*
X185838093Y-134192000D01*
X185725054Y-133623715D01*
X185403147Y-133141946D01*
X185359223Y-133112597D01*
X185421765Y-133100157D01*
X185631809Y-132959809D01*
X185772157Y-132749765D01*
X185821440Y-132502000D01*
X185821440Y-130802000D01*
X185772157Y-130554235D01*
X185631809Y-130344191D01*
X185421765Y-130203843D01*
X185174000Y-130154560D01*
X183474000Y-130154560D01*
X183226235Y-130203843D01*
X183016191Y-130344191D01*
X182875843Y-130554235D01*
X182826560Y-130802000D01*
X182826560Y-132502000D01*
X182875843Y-132749765D01*
X183016191Y-132959809D01*
X183226235Y-133100157D01*
X183288777Y-133112597D01*
X183244853Y-133141946D01*
X183134568Y-133307000D01*
X182059000Y-133307000D01*
X182059000Y-131842005D01*
X182059001Y-131842000D01*
X181991633Y-131503325D01*
X181967889Y-131467790D01*
X181799790Y-131216210D01*
X181799787Y-131216208D01*
X180471440Y-129887860D01*
X180471440Y-128892000D01*
X189176560Y-128892000D01*
X189176560Y-130492000D01*
X189225843Y-130739765D01*
X189366191Y-130949809D01*
X189474892Y-131022441D01*
X189477264Y-131034367D01*
X189488868Y-131092702D01*
X189488838Y-131127167D01*
X189502115Y-131159301D01*
X189506367Y-131180675D01*
X189518369Y-131198637D01*
X189630883Y-131470943D01*
X189893673Y-131734192D01*
X190014986Y-131784566D01*
X190239000Y-132008579D01*
X190239000Y-132427129D01*
X190200843Y-132484235D01*
X190151560Y-132732000D01*
X190151560Y-134732000D01*
X190200843Y-134979765D01*
X190341191Y-135189809D01*
X190551235Y-135330157D01*
X190799000Y-135379440D01*
X191449000Y-135379440D01*
X191696765Y-135330157D01*
X191906809Y-135189809D01*
X192047157Y-134979765D01*
X192074000Y-134844815D01*
X192100843Y-134979765D01*
X192241191Y-135189809D01*
X192451235Y-135330157D01*
X192670042Y-135373680D01*
X192531808Y-135511673D01*
X192524404Y-135529504D01*
X192399000Y-135504560D01*
X191749000Y-135504560D01*
X191501235Y-135553843D01*
X191291191Y-135694191D01*
X191150843Y-135904235D01*
X191101560Y-136152000D01*
X191101560Y-138152000D01*
X191150843Y-138399765D01*
X191291191Y-138609809D01*
X191501235Y-138750157D01*
X191637727Y-138777307D01*
X193081560Y-140221139D01*
X193081560Y-141317000D01*
X193130843Y-141564765D01*
X193271191Y-141774809D01*
X193481235Y-141915157D01*
X193729000Y-141964440D01*
X194929000Y-141964440D01*
X195176765Y-141915157D01*
X195386809Y-141774809D01*
X195527157Y-141564765D01*
X195576440Y-141317000D01*
X195576440Y-139117000D01*
X195527157Y-138869235D01*
X195386809Y-138659191D01*
X195176765Y-138518843D01*
X194929000Y-138469560D01*
X193833139Y-138469560D01*
X193046440Y-137682860D01*
X193046440Y-136939151D01*
X193137201Y-136976838D01*
X193509167Y-136977162D01*
X193852943Y-136835117D01*
X194116192Y-136572327D01*
X194166566Y-136451014D01*
X195580579Y-135037000D01*
X197384568Y-135037000D01*
X197494853Y-135202054D01*
X197824026Y-135422000D01*
X197494853Y-135641946D01*
X197172946Y-136123715D01*
X197059907Y-136692000D01*
X197172946Y-137260285D01*
X197494853Y-137742054D01*
X197976622Y-138063961D01*
X198544907Y-138177000D01*
X198603093Y-138177000D01*
X199171378Y-138063961D01*
X199653147Y-137742054D01*
X199975054Y-137260285D01*
X200088093Y-136692000D01*
X199975054Y-136123715D01*
X199653147Y-135641946D01*
X199323974Y-135422000D01*
X199653147Y-135202054D01*
X199975054Y-134720285D01*
X200088093Y-134152000D01*
X199975054Y-133583715D01*
X199653147Y-133101946D01*
X199609223Y-133072597D01*
X199671765Y-133060157D01*
X199881809Y-132919809D01*
X200022157Y-132709765D01*
X200071440Y-132462000D01*
X200071440Y-130762000D01*
X200022157Y-130514235D01*
X199881809Y-130304191D01*
X199671765Y-130163843D01*
X199424000Y-130114560D01*
X197724000Y-130114560D01*
X197476235Y-130163843D01*
X197266191Y-130304191D01*
X197125843Y-130514235D01*
X197076560Y-130762000D01*
X197076560Y-132462000D01*
X197125843Y-132709765D01*
X197266191Y-132919809D01*
X197476235Y-133060157D01*
X197538777Y-133072597D01*
X197494853Y-133101946D01*
X197384568Y-133267000D01*
X196069000Y-133267000D01*
X196069000Y-131852005D01*
X196069001Y-131852000D01*
X196001633Y-131513325D01*
X195943953Y-131427000D01*
X195809790Y-131226210D01*
X195809787Y-131226208D01*
X194471440Y-129887860D01*
X194471440Y-128892000D01*
X194422157Y-128644235D01*
X194281809Y-128434191D01*
X194071765Y-128293843D01*
X193824000Y-128244560D01*
X192824000Y-128244560D01*
X192576235Y-128293843D01*
X192366191Y-128434191D01*
X192225843Y-128644235D01*
X192176560Y-128892000D01*
X192176560Y-130492000D01*
X192225843Y-130739765D01*
X192366191Y-130949809D01*
X192576235Y-131090157D01*
X192824000Y-131139440D01*
X193219860Y-131139440D01*
X194299000Y-132218579D01*
X194299000Y-133815421D01*
X193996440Y-134117981D01*
X193996440Y-133991870D01*
X194116192Y-133872327D01*
X194258838Y-133528799D01*
X194259162Y-133156833D01*
X194117117Y-132813057D01*
X193986546Y-132682258D01*
X193947157Y-132484235D01*
X193806809Y-132274191D01*
X193596765Y-132133843D01*
X193349000Y-132084560D01*
X192699000Y-132084560D01*
X192451235Y-132133843D01*
X192241191Y-132274191D01*
X192100843Y-132484235D01*
X192074000Y-132619185D01*
X192047157Y-132484235D01*
X192009000Y-132427129D01*
X192009000Y-131642000D01*
X191941633Y-131303325D01*
X191749790Y-131016210D01*
X191749787Y-131016208D01*
X191430649Y-130697070D01*
X191471440Y-130492000D01*
X191471440Y-128892000D01*
X191422157Y-128644235D01*
X191281809Y-128434191D01*
X191071765Y-128293843D01*
X190824000Y-128244560D01*
X189824000Y-128244560D01*
X189576235Y-128293843D01*
X189366191Y-128434191D01*
X189225843Y-128644235D01*
X189176560Y-128892000D01*
X180471440Y-128892000D01*
X180422157Y-128644235D01*
X180281809Y-128434191D01*
X180071765Y-128293843D01*
X179824000Y-128244560D01*
X178824000Y-128244560D01*
X178576235Y-128293843D01*
X178366191Y-128434191D01*
X178225843Y-128644235D01*
X178176560Y-128892000D01*
X178176560Y-130492000D01*
X178225843Y-130739765D01*
X178366191Y-130949809D01*
X178576235Y-131090157D01*
X178824000Y-131139440D01*
X179219860Y-131139440D01*
X180289000Y-132208579D01*
X180289000Y-133825421D01*
X179996440Y-134117981D01*
X179996440Y-133991870D01*
X180116192Y-133872327D01*
X180258838Y-133528799D01*
X180259162Y-133156833D01*
X180117117Y-132813057D01*
X179986546Y-132682258D01*
X179947157Y-132484235D01*
X179806809Y-132274191D01*
X179596765Y-132133843D01*
X179349000Y-132084560D01*
X178699000Y-132084560D01*
X178451235Y-132133843D01*
X178241191Y-132274191D01*
X178100843Y-132484235D01*
X178074000Y-132619185D01*
X178047157Y-132484235D01*
X178009000Y-132427129D01*
X178009000Y-131642000D01*
X177941633Y-131303325D01*
X177749790Y-131016210D01*
X177749787Y-131016208D01*
X177430649Y-130697070D01*
X177471440Y-130492000D01*
X177471440Y-128892000D01*
X177422157Y-128644235D01*
X177281809Y-128434191D01*
X177071765Y-128293843D01*
X176824000Y-128244560D01*
X175824000Y-128244560D01*
X175576235Y-128293843D01*
X175366191Y-128434191D01*
X175225843Y-128644235D01*
X175176560Y-128892000D01*
X168149556Y-128892000D01*
X168258848Y-128628799D01*
X168259172Y-128256833D01*
X168117127Y-127913057D01*
X167854337Y-127649808D01*
X167510809Y-127507162D01*
X167463933Y-127507121D01*
X167334000Y-127377188D01*
X167334000Y-125979431D01*
X167366192Y-125947295D01*
X167508838Y-125603767D01*
X167508839Y-125602135D01*
X180136609Y-125602135D01*
X180278654Y-125945911D01*
X180541444Y-126209160D01*
X180564000Y-126218526D01*
X180564000Y-126629537D01*
X180531808Y-126661673D01*
X180389162Y-127005201D01*
X180388838Y-127377167D01*
X180530883Y-127720943D01*
X180793673Y-127984192D01*
X181137201Y-128126838D01*
X181509167Y-128127162D01*
X181852943Y-127985117D01*
X182116192Y-127722327D01*
X182258838Y-127378799D01*
X182259162Y-127006833D01*
X182117117Y-126663057D01*
X182084000Y-126629882D01*
X182084000Y-125669197D01*
X182026148Y-125378358D01*
X182006831Y-125349447D01*
X182006933Y-125231801D01*
X181864888Y-124888025D01*
X181602098Y-124624776D01*
X181258570Y-124482130D01*
X180886604Y-124481806D01*
X180542828Y-124623851D01*
X180279579Y-124886641D01*
X180136933Y-125230169D01*
X180136609Y-125602135D01*
X167508839Y-125602135D01*
X167509162Y-125231801D01*
X167367117Y-124888025D01*
X167104327Y-124624776D01*
X166760799Y-124482130D01*
X166388833Y-124481806D01*
X166045057Y-124623851D01*
X165781808Y-124886641D01*
X165639162Y-125230169D01*
X165638838Y-125602135D01*
X165780883Y-125945911D01*
X165814000Y-125979086D01*
X165814000Y-127691990D01*
X165871852Y-127982829D01*
X166036599Y-128229391D01*
X166160025Y-128352817D01*
X166071765Y-128293843D01*
X165824000Y-128244560D01*
X164824000Y-128244560D01*
X164576235Y-128293843D01*
X164366191Y-128434191D01*
X164225843Y-128644235D01*
X164176560Y-128892000D01*
X164176560Y-130492000D01*
X164225843Y-130739765D01*
X164366191Y-130949809D01*
X164576235Y-131090157D01*
X164824000Y-131139440D01*
X165219861Y-131139440D01*
X165698208Y-131617787D01*
X165698210Y-131617790D01*
X165809274Y-131692000D01*
X165848892Y-131718472D01*
X166439000Y-132308579D01*
X166439000Y-133825421D01*
X165487506Y-134776914D01*
X165496440Y-134732000D01*
X165496440Y-134331957D01*
X165566192Y-134262327D01*
X165708838Y-133918799D01*
X165709162Y-133546833D01*
X165567117Y-133203057D01*
X165496440Y-133132257D01*
X165496440Y-132732000D01*
X165447157Y-132484235D01*
X165306809Y-132274191D01*
X165096765Y-132133843D01*
X164849000Y-132084560D01*
X164199000Y-132084560D01*
X163951235Y-132133843D01*
X163759000Y-132262291D01*
X163759000Y-131392005D01*
X163759001Y-131392000D01*
X163691633Y-131053325D01*
X163617248Y-130942000D01*
X163499790Y-130766210D01*
X163499787Y-130766208D01*
X163430649Y-130697070D01*
X163471440Y-130492000D01*
X163471440Y-128892000D01*
X163422157Y-128644235D01*
X163281809Y-128434191D01*
X163071765Y-128293843D01*
X162824000Y-128244560D01*
X161824000Y-128244560D01*
X161576235Y-128293843D01*
X161366191Y-128434191D01*
X161225843Y-128644235D01*
X161176560Y-128892000D01*
X153509044Y-128892000D01*
X153509162Y-128756833D01*
X153367117Y-128413057D01*
X153334000Y-128379882D01*
X153334000Y-126504463D01*
X153366192Y-126472327D01*
X153508838Y-126128799D01*
X153509162Y-125756833D01*
X153367117Y-125413057D01*
X153104327Y-125149808D01*
X152760799Y-125007162D01*
X152388833Y-125006838D01*
X152045057Y-125148883D01*
X151781808Y-125411673D01*
X151639162Y-125755201D01*
X151638838Y-126127167D01*
X151780883Y-126470943D01*
X151814000Y-126504118D01*
X151814000Y-128379537D01*
X151781808Y-128411673D01*
X151639162Y-128755201D01*
X151638838Y-129127167D01*
X151729031Y-129345451D01*
X151471440Y-129087860D01*
X151471440Y-128892000D01*
X151422157Y-128644235D01*
X151281809Y-128434191D01*
X151071765Y-128293843D01*
X150824000Y-128244560D01*
X149824000Y-128244560D01*
X149576235Y-128293843D01*
X149366191Y-128434191D01*
X149225843Y-128644235D01*
X149176560Y-128892000D01*
X149176560Y-130492000D01*
X149225843Y-130739765D01*
X149366191Y-130949809D01*
X149576235Y-131090157D01*
X149824000Y-131139440D01*
X150824000Y-131139440D01*
X150987365Y-131106945D01*
X151439000Y-131558579D01*
X151439000Y-133825421D01*
X150746440Y-134517981D01*
X150746440Y-132732000D01*
X150697157Y-132484235D01*
X150556809Y-132274191D01*
X150346765Y-132133843D01*
X150099000Y-132084560D01*
X149449000Y-132084560D01*
X149201235Y-132133843D01*
X148991191Y-132274191D01*
X148850843Y-132484235D01*
X148824000Y-132619185D01*
X148797157Y-132484235D01*
X148759000Y-132427129D01*
X148759000Y-131392005D01*
X148759001Y-131392000D01*
X148691633Y-131053325D01*
X148617248Y-130942000D01*
X148499790Y-130766210D01*
X148499787Y-130766208D01*
X148430649Y-130697070D01*
X148471440Y-130492000D01*
X148471440Y-128892000D01*
X148422157Y-128644235D01*
X148281809Y-128434191D01*
X148071765Y-128293843D01*
X147824000Y-128244560D01*
X146824000Y-128244560D01*
X146576235Y-128293843D01*
X146366191Y-128434191D01*
X146225843Y-128644235D01*
X146176560Y-128892000D01*
X137670664Y-128892000D01*
X137531809Y-128684191D01*
X137321765Y-128543843D01*
X137074000Y-128494560D01*
X136074000Y-128494560D01*
X135826235Y-128543843D01*
X135616191Y-128684191D01*
X135475843Y-128894235D01*
X135426560Y-129142000D01*
X135426560Y-130742000D01*
X135475843Y-130989765D01*
X135616191Y-131199809D01*
X135690481Y-131249448D01*
X135734540Y-131470943D01*
X135756367Y-131580675D01*
X135909351Y-131809633D01*
X135926007Y-131834560D01*
X135699000Y-131834560D01*
X135451235Y-131883843D01*
X135241191Y-132024191D01*
X135100843Y-132234235D01*
X135074000Y-132369185D01*
X135047157Y-132234235D01*
X134906809Y-132024191D01*
X134696765Y-131883843D01*
X134449000Y-131834560D01*
X133799000Y-131834560D01*
X133551235Y-131883843D01*
X133341191Y-132024191D01*
X133200843Y-132234235D01*
X133151560Y-132482000D01*
X127213001Y-132482000D01*
X127213001Y-129142000D01*
X132426560Y-129142000D01*
X132426560Y-130742000D01*
X132475843Y-130989765D01*
X132616191Y-131199809D01*
X132624424Y-131205310D01*
X132630883Y-131220943D01*
X132893673Y-131484192D01*
X133237201Y-131626838D01*
X133609167Y-131627162D01*
X133952943Y-131485117D01*
X134048787Y-131389440D01*
X134074000Y-131389440D01*
X134321765Y-131340157D01*
X134531809Y-131199809D01*
X134672157Y-130989765D01*
X134721440Y-130742000D01*
X134721440Y-129142000D01*
X134672157Y-128894235D01*
X134531809Y-128684191D01*
X134321765Y-128543843D01*
X134074000Y-128494560D01*
X133074000Y-128494560D01*
X132826235Y-128543843D01*
X132616191Y-128684191D01*
X132475843Y-128894235D01*
X132426560Y-129142000D01*
X127213001Y-129142000D01*
X127213001Y-127643321D01*
X127396637Y-127827278D01*
X127997352Y-128076716D01*
X128647795Y-128077284D01*
X129248943Y-127828894D01*
X129709278Y-127369363D01*
X129958716Y-126768648D01*
X129959284Y-126118205D01*
X129710894Y-125517057D01*
X129271606Y-125077000D01*
X130824000Y-125077000D01*
X131258346Y-124990603D01*
X131626566Y-124744566D01*
X138294132Y-118077000D01*
X166574000Y-118077000D01*
X167008346Y-117990603D01*
X167376566Y-117744566D01*
X171376566Y-113744566D01*
X171408826Y-113696285D01*
X171622603Y-113376346D01*
X171709000Y-112942000D01*
X171709000Y-101575185D01*
X171721151Y-101557000D01*
X171947612Y-101218077D01*
X172034009Y-100783731D01*
X172034009Y-96850269D01*
X171947612Y-96415923D01*
X171709000Y-96058815D01*
X171709000Y-76402000D01*
X206885127Y-76402000D01*
X206266484Y-76657618D01*
G36*
X143697000Y-149844429D02*
X136307357Y-151815000D01*
X135451000Y-151815000D01*
X135451000Y-149442000D01*
X135441333Y-149393399D01*
X135413803Y-149352197D01*
X135372601Y-149324667D01*
X135324000Y-149315000D01*
X132201000Y-149315000D01*
X132201000Y-143569000D01*
X137574000Y-143569000D01*
X137625580Y-143558054D01*
X142100952Y-141569000D01*
X143697000Y-141569000D01*
X143697000Y-149844429D01*
X143697000Y-149844429D01*
G37*
X143697000Y-149844429D02*
X136307357Y-151815000D01*
X135451000Y-151815000D01*
X135451000Y-149442000D01*
X135441333Y-149393399D01*
X135413803Y-149352197D01*
X135372601Y-149324667D01*
X135324000Y-149315000D01*
X132201000Y-149315000D01*
X132201000Y-143569000D01*
X137574000Y-143569000D01*
X137625580Y-143558054D01*
X142100952Y-141569000D01*
X143697000Y-141569000D01*
X143697000Y-149844429D01*
G36*
X158018802Y-149844429D02*
X150629159Y-151815000D01*
X149772802Y-151815000D01*
X149772802Y-149442000D01*
X149763135Y-149393399D01*
X149735605Y-149352197D01*
X149694403Y-149324667D01*
X149645802Y-149315000D01*
X146522802Y-149315000D01*
X146522802Y-143569000D01*
X151895802Y-143569000D01*
X151947382Y-143558054D01*
X156422754Y-141569000D01*
X158018802Y-141569000D01*
X158018802Y-149844429D01*
X158018802Y-149844429D01*
G37*
X158018802Y-149844429D02*
X150629159Y-151815000D01*
X149772802Y-151815000D01*
X149772802Y-149442000D01*
X149763135Y-149393399D01*
X149735605Y-149352197D01*
X149694403Y-149324667D01*
X149645802Y-149315000D01*
X146522802Y-149315000D01*
X146522802Y-143569000D01*
X151895802Y-143569000D01*
X151947382Y-143558054D01*
X156422754Y-141569000D01*
X158018802Y-141569000D01*
X158018802Y-149844429D01*
G36*
X172616841Y-149982472D02*
X165227198Y-151953043D01*
X164370841Y-151953043D01*
X164370841Y-149580043D01*
X164361174Y-149531442D01*
X164333644Y-149490240D01*
X164292442Y-149462710D01*
X164243841Y-149453043D01*
X161120841Y-149453043D01*
X161120841Y-143707043D01*
X166493841Y-143707043D01*
X166545421Y-143696097D01*
X171020793Y-141707043D01*
X172616841Y-141707043D01*
X172616841Y-149982472D01*
X172616841Y-149982472D01*
G37*
X172616841Y-149982472D02*
X165227198Y-151953043D01*
X164370841Y-151953043D01*
X164370841Y-149580043D01*
X164361174Y-149531442D01*
X164333644Y-149490240D01*
X164292442Y-149462710D01*
X164243841Y-149453043D01*
X161120841Y-149453043D01*
X161120841Y-143707043D01*
X166493841Y-143707043D01*
X166545421Y-143696097D01*
X171020793Y-141707043D01*
X172616841Y-141707043D01*
X172616841Y-149982472D01*
G36*
X186808670Y-149982472D02*
X179419027Y-151953043D01*
X178562670Y-151953043D01*
X178562670Y-149580043D01*
X178553003Y-149531442D01*
X178525473Y-149490240D01*
X178484271Y-149462710D01*
X178435670Y-149453043D01*
X175312670Y-149453043D01*
X175312670Y-143707043D01*
X180685670Y-143707043D01*
X180737250Y-143696097D01*
X185212622Y-141707043D01*
X186808670Y-141707043D01*
X186808670Y-149982472D01*
X186808670Y-149982472D01*
G37*
X186808670Y-149982472D02*
X179419027Y-151953043D01*
X178562670Y-151953043D01*
X178562670Y-149580043D01*
X178553003Y-149531442D01*
X178525473Y-149490240D01*
X178484271Y-149462710D01*
X178435670Y-149453043D01*
X175312670Y-149453043D01*
X175312670Y-143707043D01*
X180685670Y-143707043D01*
X180737250Y-143696097D01*
X185212622Y-141707043D01*
X186808670Y-141707043D01*
X186808670Y-149982472D01*
G36*
X201186707Y-149980508D02*
X193797064Y-151951079D01*
X192940707Y-151951079D01*
X192940707Y-149578079D01*
X192931040Y-149529478D01*
X192903510Y-149488276D01*
X192862308Y-149460746D01*
X192813707Y-149451079D01*
X189690707Y-149451079D01*
X189690707Y-143705079D01*
X195063707Y-143705079D01*
X195115287Y-143694133D01*
X199590659Y-141705079D01*
X201186707Y-141705079D01*
X201186707Y-149980508D01*
X201186707Y-149980508D01*
G37*
X201186707Y-149980508D02*
X193797064Y-151951079D01*
X192940707Y-151951079D01*
X192940707Y-149578079D01*
X192931040Y-149529478D01*
X192903510Y-149488276D01*
X192862308Y-149460746D01*
X192813707Y-149451079D01*
X189690707Y-149451079D01*
X189690707Y-143705079D01*
X195063707Y-143705079D01*
X195115287Y-143694133D01*
X199590659Y-141705079D01*
X201186707Y-141705079D01*
X201186707Y-149980508D01*
M02*
