G04 #@! TF.GenerationSoftware,KiCad,Pcbnew,(2017-11-24 revision a01d81e)-master*
G04 #@! TF.CreationDate,2018-01-08T17:27:27+01:00*
G04 #@! TF.ProjectId,PWRCTRLBRD,5057524354524C4252442E6B69636164,rev?*
G04 #@! TF.SameCoordinates,Original*
G04 #@! TF.FileFunction,Legend,Top*
G04 #@! TF.FilePolarity,Positive*
%FSLAX46Y46*%
G04 Gerber Fmt 4.6, Leading zero omitted, Abs format (unit mm)*
G04 Created by KiCad (PCBNEW (2017-11-24 revision a01d81e)-master) date Monday '08en' 08. January 2018 'kl'. 17.27.27*
%MOMM*%
%LPD*%
G01*
G04 APERTURE LIST*
%ADD10C,0.300000*%
%ADD11C,0.200000*%
%ADD12C,0.010000*%
%ADD13C,0.120000*%
%ADD14C,0.150000*%
G04 APERTURE END LIST*
D10*
X147466857Y-88334857D02*
X147966857Y-88334857D01*
X148181142Y-89120571D02*
X147466857Y-89120571D01*
X147466857Y-87620571D01*
X148181142Y-87620571D01*
X148681142Y-87620571D02*
X149681142Y-89120571D01*
X149681142Y-87620571D02*
X148681142Y-89120571D01*
X150038285Y-87620571D02*
X150895428Y-87620571D01*
X150466857Y-89120571D02*
X150466857Y-87620571D01*
X138038285Y-89049142D02*
X138252571Y-89120571D01*
X138609714Y-89120571D01*
X138752571Y-89049142D01*
X138824000Y-88977714D01*
X138895428Y-88834857D01*
X138895428Y-88692000D01*
X138824000Y-88549142D01*
X138752571Y-88477714D01*
X138609714Y-88406285D01*
X138324000Y-88334857D01*
X138181142Y-88263428D01*
X138109714Y-88192000D01*
X138038285Y-88049142D01*
X138038285Y-87906285D01*
X138109714Y-87763428D01*
X138181142Y-87692000D01*
X138324000Y-87620571D01*
X138681142Y-87620571D01*
X138895428Y-87692000D01*
X139395428Y-87620571D02*
X139752571Y-89120571D01*
X140038285Y-88049142D01*
X140324000Y-89120571D01*
X140681142Y-87620571D01*
X143716857Y-137906285D02*
X143716857Y-137406285D01*
X144502571Y-137192000D02*
X144502571Y-137906285D01*
X143002571Y-137906285D01*
X143002571Y-137192000D01*
X143002571Y-136692000D02*
X144502571Y-135692000D01*
X143002571Y-135692000D02*
X144502571Y-136692000D01*
X143002571Y-135334857D02*
X143002571Y-134477714D01*
X144502571Y-134906285D02*
X143002571Y-134906285D01*
X142931142Y-132906285D02*
X144859714Y-134192000D01*
X144431142Y-132477714D02*
X144502571Y-132263428D01*
X144502571Y-131906285D01*
X144431142Y-131763428D01*
X144359714Y-131692000D01*
X144216857Y-131620571D01*
X144074000Y-131620571D01*
X143931142Y-131692000D01*
X143859714Y-131763428D01*
X143788285Y-131906285D01*
X143716857Y-132192000D01*
X143645428Y-132334857D01*
X143574000Y-132406285D01*
X143431142Y-132477714D01*
X143288285Y-132477714D01*
X143145428Y-132406285D01*
X143074000Y-132334857D01*
X143002571Y-132192000D01*
X143002571Y-131834857D01*
X143074000Y-131620571D01*
X143002571Y-131120571D02*
X144502571Y-130763428D01*
X143431142Y-130477714D01*
X144502571Y-130192000D01*
X143002571Y-129834857D01*
X201716857Y-137906285D02*
X201716857Y-137406285D01*
X202502571Y-137192000D02*
X202502571Y-137906285D01*
X201002571Y-137906285D01*
X201002571Y-137192000D01*
X201002571Y-136692000D02*
X202502571Y-135692000D01*
X201002571Y-135692000D02*
X202502571Y-136692000D01*
X201002571Y-135334857D02*
X201002571Y-134477714D01*
X202502571Y-134906285D02*
X201002571Y-134906285D01*
X200931142Y-132906285D02*
X202859714Y-134192000D01*
X202431142Y-132477714D02*
X202502571Y-132263428D01*
X202502571Y-131906285D01*
X202431142Y-131763428D01*
X202359714Y-131692000D01*
X202216857Y-131620571D01*
X202074000Y-131620571D01*
X201931142Y-131692000D01*
X201859714Y-131763428D01*
X201788285Y-131906285D01*
X201716857Y-132192000D01*
X201645428Y-132334857D01*
X201574000Y-132406285D01*
X201431142Y-132477714D01*
X201288285Y-132477714D01*
X201145428Y-132406285D01*
X201074000Y-132334857D01*
X201002571Y-132192000D01*
X201002571Y-131834857D01*
X201074000Y-131620571D01*
X201002571Y-131120571D02*
X202502571Y-130763428D01*
X201431142Y-130477714D01*
X202502571Y-130192000D01*
X201002571Y-129834857D01*
X187216857Y-137906285D02*
X187216857Y-137406285D01*
X188002571Y-137192000D02*
X188002571Y-137906285D01*
X186502571Y-137906285D01*
X186502571Y-137192000D01*
X186502571Y-136692000D02*
X188002571Y-135692000D01*
X186502571Y-135692000D02*
X188002571Y-136692000D01*
X186502571Y-135334857D02*
X186502571Y-134477714D01*
X188002571Y-134906285D02*
X186502571Y-134906285D01*
X186431142Y-132906285D02*
X188359714Y-134192000D01*
X187931142Y-132477714D02*
X188002571Y-132263428D01*
X188002571Y-131906285D01*
X187931142Y-131763428D01*
X187859714Y-131692000D01*
X187716857Y-131620571D01*
X187574000Y-131620571D01*
X187431142Y-131692000D01*
X187359714Y-131763428D01*
X187288285Y-131906285D01*
X187216857Y-132192000D01*
X187145428Y-132334857D01*
X187074000Y-132406285D01*
X186931142Y-132477714D01*
X186788285Y-132477714D01*
X186645428Y-132406285D01*
X186574000Y-132334857D01*
X186502571Y-132192000D01*
X186502571Y-131834857D01*
X186574000Y-131620571D01*
X186502571Y-131120571D02*
X188002571Y-130763428D01*
X186931142Y-130477714D01*
X188002571Y-130192000D01*
X186502571Y-129834857D01*
X172966857Y-137906285D02*
X172966857Y-137406285D01*
X173752571Y-137192000D02*
X173752571Y-137906285D01*
X172252571Y-137906285D01*
X172252571Y-137192000D01*
X172252571Y-136692000D02*
X173752571Y-135692000D01*
X172252571Y-135692000D02*
X173752571Y-136692000D01*
X172252571Y-135334857D02*
X172252571Y-134477714D01*
X173752571Y-134906285D02*
X172252571Y-134906285D01*
X172181142Y-132906285D02*
X174109714Y-134192000D01*
X173681142Y-132477714D02*
X173752571Y-132263428D01*
X173752571Y-131906285D01*
X173681142Y-131763428D01*
X173609714Y-131692000D01*
X173466857Y-131620571D01*
X173324000Y-131620571D01*
X173181142Y-131692000D01*
X173109714Y-131763428D01*
X173038285Y-131906285D01*
X172966857Y-132192000D01*
X172895428Y-132334857D01*
X172824000Y-132406285D01*
X172681142Y-132477714D01*
X172538285Y-132477714D01*
X172395428Y-132406285D01*
X172324000Y-132334857D01*
X172252571Y-132192000D01*
X172252571Y-131834857D01*
X172324000Y-131620571D01*
X172252571Y-131120571D02*
X173752571Y-130763428D01*
X172681142Y-130477714D01*
X173752571Y-130192000D01*
X172252571Y-129834857D01*
X157966857Y-137906285D02*
X157966857Y-137406285D01*
X158752571Y-137192000D02*
X158752571Y-137906285D01*
X157252571Y-137906285D01*
X157252571Y-137192000D01*
X157252571Y-136692000D02*
X158752571Y-135692000D01*
X157252571Y-135692000D02*
X158752571Y-136692000D01*
X157252571Y-135334857D02*
X157252571Y-134477714D01*
X158752571Y-134906285D02*
X157252571Y-134906285D01*
X157181142Y-132906285D02*
X159109714Y-134192000D01*
X158681142Y-132477714D02*
X158752571Y-132263428D01*
X158752571Y-131906285D01*
X158681142Y-131763428D01*
X158609714Y-131692000D01*
X158466857Y-131620571D01*
X158324000Y-131620571D01*
X158181142Y-131692000D01*
X158109714Y-131763428D01*
X158038285Y-131906285D01*
X157966857Y-132192000D01*
X157895428Y-132334857D01*
X157824000Y-132406285D01*
X157681142Y-132477714D01*
X157538285Y-132477714D01*
X157395428Y-132406285D01*
X157324000Y-132334857D01*
X157252571Y-132192000D01*
X157252571Y-131834857D01*
X157324000Y-131620571D01*
X157252571Y-131120571D02*
X158752571Y-130763428D01*
X157681142Y-130477714D01*
X158752571Y-130192000D01*
X157252571Y-129834857D01*
X197895428Y-153870571D02*
X197181142Y-153870571D01*
X197181142Y-152370571D01*
X198681142Y-152370571D02*
X198966857Y-152370571D01*
X199109714Y-152442000D01*
X199252571Y-152584857D01*
X199324000Y-152870571D01*
X199324000Y-153370571D01*
X199252571Y-153656285D01*
X199109714Y-153799142D01*
X198966857Y-153870571D01*
X198681142Y-153870571D01*
X198538285Y-153799142D01*
X198395428Y-153656285D01*
X198324000Y-153370571D01*
X198324000Y-152870571D01*
X198395428Y-152584857D01*
X198538285Y-152442000D01*
X198681142Y-152370571D01*
X199895428Y-153442000D02*
X200609714Y-153442000D01*
X199752571Y-153870571D02*
X200252571Y-152370571D01*
X200752571Y-153870571D01*
X201252571Y-153870571D02*
X201252571Y-152370571D01*
X201609714Y-152370571D01*
X201824000Y-152442000D01*
X201966857Y-152584857D01*
X202038285Y-152727714D01*
X202109714Y-153013428D01*
X202109714Y-153227714D01*
X202038285Y-153513428D01*
X201966857Y-153656285D01*
X201824000Y-153799142D01*
X201609714Y-153870571D01*
X201252571Y-153870571D01*
X203395428Y-152870571D02*
X203395428Y-153870571D01*
X203038285Y-152299142D02*
X202681142Y-153370571D01*
X203609714Y-153370571D01*
X183145428Y-153870571D02*
X182431142Y-153870571D01*
X182431142Y-152370571D01*
X183931142Y-152370571D02*
X184216857Y-152370571D01*
X184359714Y-152442000D01*
X184502571Y-152584857D01*
X184574000Y-152870571D01*
X184574000Y-153370571D01*
X184502571Y-153656285D01*
X184359714Y-153799142D01*
X184216857Y-153870571D01*
X183931142Y-153870571D01*
X183788285Y-153799142D01*
X183645428Y-153656285D01*
X183574000Y-153370571D01*
X183574000Y-152870571D01*
X183645428Y-152584857D01*
X183788285Y-152442000D01*
X183931142Y-152370571D01*
X185145428Y-153442000D02*
X185859714Y-153442000D01*
X185002571Y-153870571D02*
X185502571Y-152370571D01*
X186002571Y-153870571D01*
X186502571Y-153870571D02*
X186502571Y-152370571D01*
X186859714Y-152370571D01*
X187074000Y-152442000D01*
X187216857Y-152584857D01*
X187288285Y-152727714D01*
X187359714Y-153013428D01*
X187359714Y-153227714D01*
X187288285Y-153513428D01*
X187216857Y-153656285D01*
X187074000Y-153799142D01*
X186859714Y-153870571D01*
X186502571Y-153870571D01*
X187859714Y-152370571D02*
X188788285Y-152370571D01*
X188288285Y-152942000D01*
X188502571Y-152942000D01*
X188645428Y-153013428D01*
X188716857Y-153084857D01*
X188788285Y-153227714D01*
X188788285Y-153584857D01*
X188716857Y-153727714D01*
X188645428Y-153799142D01*
X188502571Y-153870571D01*
X188074000Y-153870571D01*
X187931142Y-153799142D01*
X187859714Y-153727714D01*
X168645428Y-153870571D02*
X167931142Y-153870571D01*
X167931142Y-152370571D01*
X169431142Y-152370571D02*
X169716857Y-152370571D01*
X169859714Y-152442000D01*
X170002571Y-152584857D01*
X170074000Y-152870571D01*
X170074000Y-153370571D01*
X170002571Y-153656285D01*
X169859714Y-153799142D01*
X169716857Y-153870571D01*
X169431142Y-153870571D01*
X169288285Y-153799142D01*
X169145428Y-153656285D01*
X169074000Y-153370571D01*
X169074000Y-152870571D01*
X169145428Y-152584857D01*
X169288285Y-152442000D01*
X169431142Y-152370571D01*
X170645428Y-153442000D02*
X171359714Y-153442000D01*
X170502571Y-153870571D02*
X171002571Y-152370571D01*
X171502571Y-153870571D01*
X172002571Y-153870571D02*
X172002571Y-152370571D01*
X172359714Y-152370571D01*
X172574000Y-152442000D01*
X172716857Y-152584857D01*
X172788285Y-152727714D01*
X172859714Y-153013428D01*
X172859714Y-153227714D01*
X172788285Y-153513428D01*
X172716857Y-153656285D01*
X172574000Y-153799142D01*
X172359714Y-153870571D01*
X172002571Y-153870571D01*
X173431142Y-152513428D02*
X173502571Y-152442000D01*
X173645428Y-152370571D01*
X174002571Y-152370571D01*
X174145428Y-152442000D01*
X174216857Y-152513428D01*
X174288285Y-152656285D01*
X174288285Y-152799142D01*
X174216857Y-153013428D01*
X173359714Y-153870571D01*
X174288285Y-153870571D01*
X154145428Y-153870571D02*
X153431142Y-153870571D01*
X153431142Y-152370571D01*
X154931142Y-152370571D02*
X155216857Y-152370571D01*
X155359714Y-152442000D01*
X155502571Y-152584857D01*
X155574000Y-152870571D01*
X155574000Y-153370571D01*
X155502571Y-153656285D01*
X155359714Y-153799142D01*
X155216857Y-153870571D01*
X154931142Y-153870571D01*
X154788285Y-153799142D01*
X154645428Y-153656285D01*
X154574000Y-153370571D01*
X154574000Y-152870571D01*
X154645428Y-152584857D01*
X154788285Y-152442000D01*
X154931142Y-152370571D01*
X156145428Y-153442000D02*
X156859714Y-153442000D01*
X156002571Y-153870571D02*
X156502571Y-152370571D01*
X157002571Y-153870571D01*
X157502571Y-153870571D02*
X157502571Y-152370571D01*
X157859714Y-152370571D01*
X158074000Y-152442000D01*
X158216857Y-152584857D01*
X158288285Y-152727714D01*
X158359714Y-153013428D01*
X158359714Y-153227714D01*
X158288285Y-153513428D01*
X158216857Y-153656285D01*
X158074000Y-153799142D01*
X157859714Y-153870571D01*
X157502571Y-153870571D01*
X159788285Y-153870571D02*
X158931142Y-153870571D01*
X159359714Y-153870571D02*
X159359714Y-152370571D01*
X159216857Y-152584857D01*
X159074000Y-152727714D01*
X158931142Y-152799142D01*
X139645428Y-153870571D02*
X138931142Y-153870571D01*
X138931142Y-152370571D01*
X140431142Y-152370571D02*
X140716857Y-152370571D01*
X140859714Y-152442000D01*
X141002571Y-152584857D01*
X141074000Y-152870571D01*
X141074000Y-153370571D01*
X141002571Y-153656285D01*
X140859714Y-153799142D01*
X140716857Y-153870571D01*
X140431142Y-153870571D01*
X140288285Y-153799142D01*
X140145428Y-153656285D01*
X140074000Y-153370571D01*
X140074000Y-152870571D01*
X140145428Y-152584857D01*
X140288285Y-152442000D01*
X140431142Y-152370571D01*
X141645428Y-153442000D02*
X142359714Y-153442000D01*
X141502571Y-153870571D02*
X142002571Y-152370571D01*
X142502571Y-153870571D01*
X143002571Y-153870571D02*
X143002571Y-152370571D01*
X143359714Y-152370571D01*
X143574000Y-152442000D01*
X143716857Y-152584857D01*
X143788285Y-152727714D01*
X143859714Y-153013428D01*
X143859714Y-153227714D01*
X143788285Y-153513428D01*
X143716857Y-153656285D01*
X143574000Y-153799142D01*
X143359714Y-153870571D01*
X143002571Y-153870571D01*
X144788285Y-152370571D02*
X144931142Y-152370571D01*
X145074000Y-152442000D01*
X145145428Y-152513428D01*
X145216857Y-152656285D01*
X145288285Y-152942000D01*
X145288285Y-153299142D01*
X145216857Y-153584857D01*
X145145428Y-153727714D01*
X145074000Y-153799142D01*
X144931142Y-153870571D01*
X144788285Y-153870571D01*
X144645428Y-153799142D01*
X144574000Y-153727714D01*
X144502571Y-153584857D01*
X144431142Y-153299142D01*
X144431142Y-152942000D01*
X144502571Y-152656285D01*
X144574000Y-152513428D01*
X144645428Y-152442000D01*
X144788285Y-152370571D01*
D11*
X174574000Y-90692000D02*
X174574000Y-75692000D01*
X202074000Y-90692000D02*
X174574000Y-90692000D01*
X202074000Y-75692000D02*
X202074000Y-90692000D01*
D10*
X167824000Y-90763428D02*
X167824000Y-90049142D01*
X168252571Y-90906285D02*
X166752571Y-90406285D01*
X168252571Y-89906285D01*
X166895428Y-89477714D02*
X166824000Y-89406285D01*
X166752571Y-89263428D01*
X166752571Y-88906285D01*
X166824000Y-88763428D01*
X166895428Y-88692000D01*
X167038285Y-88620571D01*
X167181142Y-88620571D01*
X167395428Y-88692000D01*
X168252571Y-89549142D01*
X168252571Y-88620571D01*
X165324000Y-90763428D02*
X165324000Y-90049142D01*
X165752571Y-90906285D02*
X164252571Y-90406285D01*
X165752571Y-89906285D01*
X165752571Y-88620571D02*
X165752571Y-89477714D01*
X165752571Y-89049142D02*
X164252571Y-89049142D01*
X164466857Y-89192000D01*
X164609714Y-89334857D01*
X164681142Y-89477714D01*
X162824000Y-90763428D02*
X162824000Y-90049142D01*
X163252571Y-90906285D02*
X161752571Y-90406285D01*
X163252571Y-89906285D01*
X161752571Y-89120571D02*
X161752571Y-88977714D01*
X161824000Y-88834857D01*
X161895428Y-88763428D01*
X162038285Y-88692000D01*
X162324000Y-88620571D01*
X162681142Y-88620571D01*
X162966857Y-88692000D01*
X163109714Y-88763428D01*
X163181142Y-88834857D01*
X163252571Y-88977714D01*
X163252571Y-89120571D01*
X163181142Y-89263428D01*
X163109714Y-89334857D01*
X162966857Y-89406285D01*
X162681142Y-89477714D01*
X162324000Y-89477714D01*
X162038285Y-89406285D01*
X161895428Y-89334857D01*
X161824000Y-89263428D01*
X161752571Y-89120571D01*
X182919238Y-92870571D02*
X184824000Y-92870571D01*
X183871619Y-93822952D02*
X183871619Y-91918190D01*
X187324000Y-93822952D02*
X185895428Y-93822952D01*
X186609714Y-93822952D02*
X186609714Y-91322952D01*
X186371619Y-91680095D01*
X186133523Y-91918190D01*
X185895428Y-92037238D01*
X188276380Y-91561047D02*
X188395428Y-91442000D01*
X188633523Y-91322952D01*
X189228761Y-91322952D01*
X189466857Y-91442000D01*
X189585904Y-91561047D01*
X189704952Y-91799142D01*
X189704952Y-92037238D01*
X189585904Y-92394380D01*
X188157333Y-93822952D01*
X189704952Y-93822952D01*
X190419238Y-91322952D02*
X191252571Y-93822952D01*
X192085904Y-91322952D01*
X117681142Y-125692000D02*
X117538285Y-125620571D01*
X117324000Y-125620571D01*
X117109714Y-125692000D01*
X116966857Y-125834857D01*
X116895428Y-125977714D01*
X116824000Y-126263428D01*
X116824000Y-126477714D01*
X116895428Y-126763428D01*
X116966857Y-126906285D01*
X117109714Y-127049142D01*
X117324000Y-127120571D01*
X117466857Y-127120571D01*
X117681142Y-127049142D01*
X117752571Y-126977714D01*
X117752571Y-126477714D01*
X117466857Y-126477714D01*
X118395428Y-127120571D02*
X118395428Y-125620571D01*
X119252571Y-127120571D01*
X119252571Y-125620571D01*
X119966857Y-127120571D02*
X119966857Y-125620571D01*
X120324000Y-125620571D01*
X120538285Y-125692000D01*
X120681142Y-125834857D01*
X120752571Y-125977714D01*
X120824000Y-126263428D01*
X120824000Y-126477714D01*
X120752571Y-126763428D01*
X120681142Y-126906285D01*
X120538285Y-127049142D01*
X120324000Y-127120571D01*
X119966857Y-127120571D01*
D12*
G36*
X181417164Y-117873446D02*
X181057496Y-117888021D01*
X180697828Y-117902597D01*
X180697828Y-119271046D01*
X181003856Y-119356129D01*
X181252255Y-119448583D01*
X181446309Y-119580763D01*
X181499950Y-119631278D01*
X181690015Y-119821343D01*
X181690015Y-120535477D01*
X181684546Y-120889975D01*
X181660196Y-121157621D01*
X181605047Y-121350538D01*
X181507185Y-121480849D01*
X181354694Y-121560676D01*
X181135658Y-121602141D01*
X180838160Y-121617368D01*
X180625007Y-121618954D01*
X180052906Y-121618954D01*
X180052906Y-121420516D01*
X180697828Y-121420516D01*
X180984446Y-121420516D01*
X181202666Y-121403916D01*
X181357493Y-121357601D01*
X181381321Y-121343289D01*
X181426654Y-121305796D01*
X181457511Y-121256262D01*
X181476662Y-121176697D01*
X181486876Y-121049110D01*
X181490921Y-120855512D01*
X181491578Y-120626993D01*
X181491578Y-119987924D01*
X181255933Y-119954383D01*
X181023920Y-119885877D01*
X180859058Y-119767979D01*
X180697828Y-119615115D01*
X180697828Y-121420516D01*
X180052906Y-121420516D01*
X180052906Y-117302938D01*
X181446920Y-117302938D01*
X181417164Y-117873446D01*
X181417164Y-117873446D01*
G37*
X181417164Y-117873446D02*
X181057496Y-117888021D01*
X180697828Y-117902597D01*
X180697828Y-119271046D01*
X181003856Y-119356129D01*
X181252255Y-119448583D01*
X181446309Y-119580763D01*
X181499950Y-119631278D01*
X181690015Y-119821343D01*
X181690015Y-120535477D01*
X181684546Y-120889975D01*
X181660196Y-121157621D01*
X181605047Y-121350538D01*
X181507185Y-121480849D01*
X181354694Y-121560676D01*
X181135658Y-121602141D01*
X180838160Y-121617368D01*
X180625007Y-121618954D01*
X180052906Y-121618954D01*
X180052906Y-121420516D01*
X180697828Y-121420516D01*
X180984446Y-121420516D01*
X181202666Y-121403916D01*
X181357493Y-121357601D01*
X181381321Y-121343289D01*
X181426654Y-121305796D01*
X181457511Y-121256262D01*
X181476662Y-121176697D01*
X181486876Y-121049110D01*
X181490921Y-120855512D01*
X181491578Y-120626993D01*
X181491578Y-119987924D01*
X181255933Y-119954383D01*
X181023920Y-119885877D01*
X180859058Y-119767979D01*
X180697828Y-119615115D01*
X180697828Y-121420516D01*
X180052906Y-121420516D01*
X180052906Y-117302938D01*
X181446920Y-117302938D01*
X181417164Y-117873446D01*
G36*
X196523219Y-119340184D02*
X196521989Y-119828405D01*
X196518429Y-120264005D01*
X196512728Y-120638934D01*
X196505078Y-120945146D01*
X196495670Y-121174592D01*
X196484696Y-121319225D01*
X196475056Y-121368202D01*
X196369927Y-121471426D01*
X196195075Y-121549512D01*
X195977844Y-121597893D01*
X195745574Y-121612000D01*
X195525608Y-121587265D01*
X195400970Y-121547669D01*
X195323749Y-121513506D01*
X195260234Y-121478323D01*
X195209089Y-121432720D01*
X195168972Y-121367296D01*
X195138547Y-121272652D01*
X195116474Y-121139387D01*
X195101415Y-120958103D01*
X195092031Y-120719398D01*
X195086982Y-120413873D01*
X195084931Y-120032128D01*
X195084539Y-119564763D01*
X195084547Y-119325884D01*
X195084547Y-118047079D01*
X195729469Y-118047079D01*
X195729469Y-121420516D01*
X195899872Y-121420516D01*
X196060110Y-121405893D01*
X196197528Y-121372134D01*
X196324781Y-121323753D01*
X196324781Y-118047079D01*
X195729469Y-118047079D01*
X195084547Y-118047079D01*
X195084547Y-117402157D01*
X196523219Y-117402157D01*
X196523219Y-119340184D01*
X196523219Y-119340184D01*
G37*
X196523219Y-119340184D02*
X196521989Y-119828405D01*
X196518429Y-120264005D01*
X196512728Y-120638934D01*
X196505078Y-120945146D01*
X196495670Y-121174592D01*
X196484696Y-121319225D01*
X196475056Y-121368202D01*
X196369927Y-121471426D01*
X196195075Y-121549512D01*
X195977844Y-121597893D01*
X195745574Y-121612000D01*
X195525608Y-121587265D01*
X195400970Y-121547669D01*
X195323749Y-121513506D01*
X195260234Y-121478323D01*
X195209089Y-121432720D01*
X195168972Y-121367296D01*
X195138547Y-121272652D01*
X195116474Y-121139387D01*
X195101415Y-120958103D01*
X195092031Y-120719398D01*
X195086982Y-120413873D01*
X195084931Y-120032128D01*
X195084539Y-119564763D01*
X195084547Y-119325884D01*
X195084547Y-118047079D01*
X195729469Y-118047079D01*
X195729469Y-121420516D01*
X195899872Y-121420516D01*
X196060110Y-121405893D01*
X196197528Y-121372134D01*
X196324781Y-121323753D01*
X196324781Y-118047079D01*
X195729469Y-118047079D01*
X195084547Y-118047079D01*
X195084547Y-117402157D01*
X196523219Y-117402157D01*
X196523219Y-119340184D01*
G36*
X187729957Y-115567287D02*
X188252237Y-115567916D01*
X188746869Y-115569481D01*
X189204577Y-115571890D01*
X189616085Y-115575046D01*
X189972114Y-115578855D01*
X190263390Y-115583223D01*
X190480635Y-115588054D01*
X190614573Y-115593255D01*
X190654118Y-115597148D01*
X190728906Y-115644483D01*
X190850693Y-115751303D01*
X191002252Y-115901465D01*
X191156897Y-116068195D01*
X191333072Y-116270331D01*
X191457030Y-116428702D01*
X191545598Y-116570793D01*
X191615608Y-116724091D01*
X191683889Y-116916080D01*
X191692990Y-116943706D01*
X191787299Y-117281227D01*
X191830154Y-117583101D01*
X191820931Y-117880009D01*
X191759007Y-118202631D01*
X191660737Y-118531233D01*
X191584753Y-118767753D01*
X191540383Y-118932510D01*
X191523922Y-119046460D01*
X191531665Y-119130561D01*
X191546688Y-119176155D01*
X191590303Y-119280932D01*
X191661086Y-119448626D01*
X191747085Y-119650974D01*
X191793034Y-119758602D01*
X191983961Y-120205086D01*
X191998089Y-122053036D01*
X192012217Y-123900985D01*
X189404273Y-123897367D01*
X189119019Y-123628477D01*
X188833765Y-123359588D01*
X188833765Y-119987924D01*
X188615060Y-119955127D01*
X188386915Y-119879457D01*
X188258513Y-119778454D01*
X188161995Y-119687299D01*
X188091543Y-119637639D01*
X188080343Y-119634579D01*
X188071850Y-119682499D01*
X188063965Y-119819510D01*
X188056880Y-120035481D01*
X188050786Y-120320285D01*
X188045875Y-120663793D01*
X188042338Y-121055877D01*
X188040367Y-121486407D01*
X188040015Y-121767782D01*
X188040015Y-123900985D01*
X186737769Y-123899915D01*
X185435523Y-123898844D01*
X184914625Y-123397854D01*
X184914625Y-115765047D01*
X185113062Y-115765047D01*
X185113062Y-123256063D01*
X187395094Y-123256063D01*
X187395094Y-117302938D01*
X188784156Y-117302938D01*
X188784156Y-117898250D01*
X188040015Y-117898250D01*
X188040015Y-119282817D01*
X188226051Y-119316634D01*
X188436650Y-119376465D01*
X188648854Y-119471983D01*
X188829980Y-119585694D01*
X188947342Y-119700103D01*
X188950067Y-119704170D01*
X188972305Y-119747466D01*
X188990193Y-119809228D01*
X189004188Y-119899747D01*
X189014753Y-120029318D01*
X189022345Y-120208232D01*
X189027426Y-120446782D01*
X189030455Y-120755260D01*
X189031891Y-121143960D01*
X189032203Y-121542794D01*
X189032203Y-123256063D01*
X191363844Y-123256063D01*
X191363844Y-121552306D01*
X191363719Y-121076492D01*
X191362153Y-120686882D01*
X191357361Y-120370461D01*
X191347557Y-120114214D01*
X191330955Y-119905127D01*
X191305768Y-119730186D01*
X191270211Y-119576375D01*
X191222497Y-119430680D01*
X191160841Y-119280086D01*
X191083457Y-119111580D01*
X191006795Y-118950451D01*
X190834451Y-118588785D01*
X190999919Y-118082287D01*
X191073669Y-117840994D01*
X191137412Y-117604061D01*
X191182311Y-117405779D01*
X191196550Y-117319440D01*
X191199146Y-117062320D01*
X191157001Y-116768806D01*
X191078777Y-116468248D01*
X190973136Y-116189997D01*
X190848741Y-115963404D01*
X190766473Y-115862208D01*
X190742742Y-115841387D01*
X190711294Y-115823773D01*
X190664204Y-115809098D01*
X190593548Y-115797093D01*
X190491404Y-115787491D01*
X190349847Y-115780025D01*
X190160953Y-115774426D01*
X189916799Y-115770427D01*
X189609462Y-115767759D01*
X189231017Y-115766156D01*
X188773541Y-115765350D01*
X188229110Y-115765072D01*
X187891187Y-115765047D01*
X185113062Y-115765047D01*
X184914625Y-115765047D01*
X184914625Y-115566610D01*
X187729957Y-115567287D01*
X187729957Y-115567287D01*
G37*
X187729957Y-115567287D02*
X188252237Y-115567916D01*
X188746869Y-115569481D01*
X189204577Y-115571890D01*
X189616085Y-115575046D01*
X189972114Y-115578855D01*
X190263390Y-115583223D01*
X190480635Y-115588054D01*
X190614573Y-115593255D01*
X190654118Y-115597148D01*
X190728906Y-115644483D01*
X190850693Y-115751303D01*
X191002252Y-115901465D01*
X191156897Y-116068195D01*
X191333072Y-116270331D01*
X191457030Y-116428702D01*
X191545598Y-116570793D01*
X191615608Y-116724091D01*
X191683889Y-116916080D01*
X191692990Y-116943706D01*
X191787299Y-117281227D01*
X191830154Y-117583101D01*
X191820931Y-117880009D01*
X191759007Y-118202631D01*
X191660737Y-118531233D01*
X191584753Y-118767753D01*
X191540383Y-118932510D01*
X191523922Y-119046460D01*
X191531665Y-119130561D01*
X191546688Y-119176155D01*
X191590303Y-119280932D01*
X191661086Y-119448626D01*
X191747085Y-119650974D01*
X191793034Y-119758602D01*
X191983961Y-120205086D01*
X191998089Y-122053036D01*
X192012217Y-123900985D01*
X189404273Y-123897367D01*
X189119019Y-123628477D01*
X188833765Y-123359588D01*
X188833765Y-119987924D01*
X188615060Y-119955127D01*
X188386915Y-119879457D01*
X188258513Y-119778454D01*
X188161995Y-119687299D01*
X188091543Y-119637639D01*
X188080343Y-119634579D01*
X188071850Y-119682499D01*
X188063965Y-119819510D01*
X188056880Y-120035481D01*
X188050786Y-120320285D01*
X188045875Y-120663793D01*
X188042338Y-121055877D01*
X188040367Y-121486407D01*
X188040015Y-121767782D01*
X188040015Y-123900985D01*
X186737769Y-123899915D01*
X185435523Y-123898844D01*
X184914625Y-123397854D01*
X184914625Y-115765047D01*
X185113062Y-115765047D01*
X185113062Y-123256063D01*
X187395094Y-123256063D01*
X187395094Y-117302938D01*
X188784156Y-117302938D01*
X188784156Y-117898250D01*
X188040015Y-117898250D01*
X188040015Y-119282817D01*
X188226051Y-119316634D01*
X188436650Y-119376465D01*
X188648854Y-119471983D01*
X188829980Y-119585694D01*
X188947342Y-119700103D01*
X188950067Y-119704170D01*
X188972305Y-119747466D01*
X188990193Y-119809228D01*
X189004188Y-119899747D01*
X189014753Y-120029318D01*
X189022345Y-120208232D01*
X189027426Y-120446782D01*
X189030455Y-120755260D01*
X189031891Y-121143960D01*
X189032203Y-121542794D01*
X189032203Y-123256063D01*
X191363844Y-123256063D01*
X191363844Y-121552306D01*
X191363719Y-121076492D01*
X191362153Y-120686882D01*
X191357361Y-120370461D01*
X191347557Y-120114214D01*
X191330955Y-119905127D01*
X191305768Y-119730186D01*
X191270211Y-119576375D01*
X191222497Y-119430680D01*
X191160841Y-119280086D01*
X191083457Y-119111580D01*
X191006795Y-118950451D01*
X190834451Y-118588785D01*
X190999919Y-118082287D01*
X191073669Y-117840994D01*
X191137412Y-117604061D01*
X191182311Y-117405779D01*
X191196550Y-117319440D01*
X191199146Y-117062320D01*
X191157001Y-116768806D01*
X191078777Y-116468248D01*
X190973136Y-116189997D01*
X190848741Y-115963404D01*
X190766473Y-115862208D01*
X190742742Y-115841387D01*
X190711294Y-115823773D01*
X190664204Y-115809098D01*
X190593548Y-115797093D01*
X190491404Y-115787491D01*
X190349847Y-115780025D01*
X190160953Y-115774426D01*
X189916799Y-115770427D01*
X189609462Y-115767759D01*
X189231017Y-115766156D01*
X188773541Y-115765350D01*
X188229110Y-115765072D01*
X187891187Y-115765047D01*
X185113062Y-115765047D01*
X184914625Y-115765047D01*
X184914625Y-115566610D01*
X187729957Y-115567287D01*
G36*
X182093774Y-115575994D02*
X182515720Y-115580230D01*
X182849022Y-115586659D01*
X183090710Y-115595247D01*
X183237814Y-115605955D01*
X183277515Y-115612790D01*
X183407089Y-115678276D01*
X183568145Y-115811893D01*
X183770133Y-116021607D01*
X183793850Y-116048083D01*
X183998473Y-116290576D01*
X184148034Y-116505902D01*
X184260119Y-116727421D01*
X184352314Y-116988494D01*
X184420768Y-117237272D01*
X184466479Y-117445765D01*
X184486507Y-117634839D01*
X184478359Y-117826948D01*
X184439545Y-118044542D01*
X184367570Y-118310077D01*
X184266620Y-118625959D01*
X184115378Y-119080816D01*
X184266583Y-119380352D01*
X184486852Y-119891201D01*
X184625419Y-120400175D01*
X184691051Y-120924422D01*
X184701780Y-121486874D01*
X184656592Y-121973158D01*
X184554541Y-122389704D01*
X184433683Y-122672573D01*
X184240617Y-122977767D01*
X183993809Y-123275856D01*
X183720606Y-123537376D01*
X183451148Y-123731234D01*
X183203101Y-123876180D01*
X180648219Y-123887864D01*
X178093336Y-123899547D01*
X177807779Y-123629286D01*
X177522222Y-123359024D01*
X177534927Y-119475219D01*
X177547064Y-115765047D01*
X177721265Y-115765047D01*
X177721265Y-123256063D01*
X180109162Y-123256063D01*
X180754579Y-123254991D01*
X181303246Y-123251739D01*
X181757608Y-123246254D01*
X182120112Y-123238482D01*
X182393202Y-123228370D01*
X182579324Y-123215865D01*
X182680925Y-123200913D01*
X182684804Y-123199813D01*
X182905488Y-123097200D01*
X183145357Y-122924401D01*
X183381542Y-122701096D01*
X183591174Y-122446965D01*
X183637210Y-122380232D01*
X183775446Y-122161702D01*
X183877634Y-121969057D01*
X183949107Y-121780426D01*
X183995201Y-121573937D01*
X184021250Y-121327720D01*
X184032588Y-121019903D01*
X184034634Y-120750789D01*
X184033698Y-120443126D01*
X184028481Y-120212073D01*
X184016487Y-120035038D01*
X183995218Y-119889429D01*
X183962177Y-119752654D01*
X183914867Y-119602119D01*
X183904168Y-119570417D01*
X183817882Y-119336088D01*
X183717003Y-119090855D01*
X183623120Y-118887154D01*
X183621655Y-118884246D01*
X183470444Y-118584697D01*
X183643464Y-118055439D01*
X183741999Y-117743598D01*
X183807748Y-117501322D01*
X183843419Y-117305520D01*
X183851719Y-117133103D01*
X183835355Y-116960982D01*
X183797035Y-116766068D01*
X183795466Y-116759148D01*
X183721425Y-116465542D01*
X183646395Y-116245286D01*
X183559872Y-116072968D01*
X183451354Y-115923176D01*
X183448575Y-115919864D01*
X183318305Y-115765047D01*
X177721265Y-115765047D01*
X177547064Y-115765047D01*
X177547633Y-115591414D01*
X180325758Y-115576812D01*
X180995824Y-115574249D01*
X181586152Y-115573989D01*
X182093774Y-115575994D01*
X182093774Y-115575994D01*
G37*
X182093774Y-115575994D02*
X182515720Y-115580230D01*
X182849022Y-115586659D01*
X183090710Y-115595247D01*
X183237814Y-115605955D01*
X183277515Y-115612790D01*
X183407089Y-115678276D01*
X183568145Y-115811893D01*
X183770133Y-116021607D01*
X183793850Y-116048083D01*
X183998473Y-116290576D01*
X184148034Y-116505902D01*
X184260119Y-116727421D01*
X184352314Y-116988494D01*
X184420768Y-117237272D01*
X184466479Y-117445765D01*
X184486507Y-117634839D01*
X184478359Y-117826948D01*
X184439545Y-118044542D01*
X184367570Y-118310077D01*
X184266620Y-118625959D01*
X184115378Y-119080816D01*
X184266583Y-119380352D01*
X184486852Y-119891201D01*
X184625419Y-120400175D01*
X184691051Y-120924422D01*
X184701780Y-121486874D01*
X184656592Y-121973158D01*
X184554541Y-122389704D01*
X184433683Y-122672573D01*
X184240617Y-122977767D01*
X183993809Y-123275856D01*
X183720606Y-123537376D01*
X183451148Y-123731234D01*
X183203101Y-123876180D01*
X180648219Y-123887864D01*
X178093336Y-123899547D01*
X177807779Y-123629286D01*
X177522222Y-123359024D01*
X177534927Y-119475219D01*
X177547064Y-115765047D01*
X177721265Y-115765047D01*
X177721265Y-123256063D01*
X180109162Y-123256063D01*
X180754579Y-123254991D01*
X181303246Y-123251739D01*
X181757608Y-123246254D01*
X182120112Y-123238482D01*
X182393202Y-123228370D01*
X182579324Y-123215865D01*
X182680925Y-123200913D01*
X182684804Y-123199813D01*
X182905488Y-123097200D01*
X183145357Y-122924401D01*
X183381542Y-122701096D01*
X183591174Y-122446965D01*
X183637210Y-122380232D01*
X183775446Y-122161702D01*
X183877634Y-121969057D01*
X183949107Y-121780426D01*
X183995201Y-121573937D01*
X184021250Y-121327720D01*
X184032588Y-121019903D01*
X184034634Y-120750789D01*
X184033698Y-120443126D01*
X184028481Y-120212073D01*
X184016487Y-120035038D01*
X183995218Y-119889429D01*
X183962177Y-119752654D01*
X183914867Y-119602119D01*
X183904168Y-119570417D01*
X183817882Y-119336088D01*
X183717003Y-119090855D01*
X183623120Y-118887154D01*
X183621655Y-118884246D01*
X183470444Y-118584697D01*
X183643464Y-118055439D01*
X183741999Y-117743598D01*
X183807748Y-117501322D01*
X183843419Y-117305520D01*
X183851719Y-117133103D01*
X183835355Y-116960982D01*
X183797035Y-116766068D01*
X183795466Y-116759148D01*
X183721425Y-116465542D01*
X183646395Y-116245286D01*
X183559872Y-116072968D01*
X183451354Y-115923176D01*
X183448575Y-115919864D01*
X183318305Y-115765047D01*
X177721265Y-115765047D01*
X177547064Y-115765047D01*
X177547633Y-115591414D01*
X180325758Y-115576812D01*
X180995824Y-115574249D01*
X181586152Y-115573989D01*
X182093774Y-115575994D01*
G36*
X177028918Y-116163359D02*
X177015424Y-117092817D01*
X177001929Y-118022274D01*
X176440628Y-118047079D01*
X175879327Y-118071883D01*
X176199032Y-118426586D01*
X176358199Y-118617184D01*
X176505626Y-118818088D01*
X176616777Y-118995060D01*
X176643367Y-119046703D01*
X176786808Y-119433684D01*
X176891091Y-119886161D01*
X176956319Y-120383154D01*
X176982593Y-120903683D01*
X176970015Y-121426768D01*
X176918685Y-121931428D01*
X176828705Y-122396683D01*
X176700177Y-122801553D01*
X176624412Y-122969085D01*
X176491400Y-123176827D01*
X176307696Y-123395777D01*
X176102642Y-123595136D01*
X175905580Y-123744102D01*
X175862135Y-123769255D01*
X175815159Y-123793183D01*
X175765394Y-123813308D01*
X175704171Y-123830016D01*
X175622819Y-123843693D01*
X175512669Y-123854723D01*
X175365052Y-123863493D01*
X175171299Y-123870388D01*
X174922740Y-123875794D01*
X174610705Y-123880096D01*
X174226526Y-123883679D01*
X173761533Y-123886930D01*
X173207057Y-123890235D01*
X173132367Y-123890663D01*
X170602257Y-123905146D01*
X170381120Y-123679823D01*
X170256206Y-123562343D01*
X170151158Y-123480827D01*
X170094870Y-123454500D01*
X170072329Y-123436052D01*
X170056096Y-123373421D01*
X170045611Y-123255684D01*
X170040312Y-123071914D01*
X170039635Y-122811185D01*
X170043019Y-122462573D01*
X170043187Y-122449911D01*
X170056617Y-121445321D01*
X171847402Y-121420516D01*
X172338926Y-121412980D01*
X172739820Y-121405039D01*
X173058675Y-121396268D01*
X173304081Y-121386239D01*
X173484626Y-121374527D01*
X173608902Y-121360706D01*
X173685497Y-121344350D01*
X173720156Y-121327625D01*
X173756291Y-121281365D01*
X173780320Y-121202093D01*
X173794467Y-121072096D01*
X173800952Y-120873667D01*
X173802125Y-120674166D01*
X173802125Y-120088793D01*
X172871949Y-120072526D01*
X172505279Y-120064472D01*
X172218347Y-120050372D01*
X171991677Y-120023648D01*
X171805788Y-119977720D01*
X171641202Y-119906009D01*
X171478442Y-119801938D01*
X171298029Y-119658926D01*
X171080484Y-119470396D01*
X171075087Y-119465647D01*
X170801222Y-119206060D01*
X170579245Y-118948613D01*
X170404225Y-118679303D01*
X170271234Y-118384127D01*
X170175341Y-118049083D01*
X170111617Y-117660167D01*
X170075132Y-117203376D01*
X170060956Y-116664708D01*
X170060478Y-116583602D01*
X170057293Y-115765047D01*
X170219727Y-115765047D01*
X170243268Y-116720028D01*
X170266084Y-117246817D01*
X170308626Y-117688727D01*
X170374448Y-118058769D01*
X170467106Y-118369956D01*
X170590154Y-118635299D01*
X170747148Y-118867811D01*
X170867902Y-119006263D01*
X170983685Y-119124024D01*
X171090142Y-119216465D01*
X171201262Y-119287016D01*
X171331030Y-119339108D01*
X171493434Y-119376172D01*
X171702461Y-119401637D01*
X171972098Y-119418934D01*
X172316332Y-119431495D01*
X172636304Y-119439979D01*
X172968725Y-119448528D01*
X173266119Y-119456780D01*
X173514800Y-119464306D01*
X173701082Y-119470676D01*
X173811276Y-119475461D01*
X173835788Y-119477609D01*
X173896273Y-119536681D01*
X173939791Y-119596517D01*
X173969133Y-119673758D01*
X173987090Y-119785041D01*
X173996453Y-119947006D01*
X174000013Y-120176293D01*
X174000562Y-120459938D01*
X173997736Y-120740760D01*
X173989923Y-120991331D01*
X173978122Y-121192815D01*
X173963331Y-121326377D01*
X173952400Y-121368202D01*
X173877903Y-121442223D01*
X173750172Y-121517992D01*
X173703349Y-121538574D01*
X173634629Y-121561100D01*
X173545868Y-121579101D01*
X173426112Y-121593056D01*
X173264404Y-121603445D01*
X173049789Y-121610747D01*
X172771312Y-121615442D01*
X172418016Y-121618008D01*
X171978946Y-121618925D01*
X171866355Y-121618954D01*
X170230250Y-121618954D01*
X170230250Y-123259613D01*
X172673511Y-123245436D01*
X173228926Y-123242114D01*
X173693974Y-123238882D01*
X174077510Y-123235331D01*
X174388384Y-123231050D01*
X174635450Y-123225632D01*
X174827558Y-123218667D01*
X174973561Y-123209747D01*
X175082312Y-123198462D01*
X175162662Y-123184403D01*
X175223464Y-123167162D01*
X175273569Y-123146330D01*
X175318595Y-123123230D01*
X175597529Y-122919836D01*
X175840997Y-122631796D01*
X176042723Y-122269290D01*
X176196430Y-121842501D01*
X176253689Y-121606372D01*
X176292016Y-121344546D01*
X176317076Y-121013453D01*
X176328770Y-120642164D01*
X176326995Y-120259753D01*
X176311651Y-119895294D01*
X176282637Y-119577858D01*
X176261234Y-119436141D01*
X176164929Y-119032540D01*
X176033608Y-118672712D01*
X175874443Y-118369795D01*
X175694607Y-118136931D01*
X175501276Y-117987258D01*
X175459457Y-117967553D01*
X175381068Y-117944883D01*
X175260360Y-117927352D01*
X175086588Y-117914446D01*
X174849004Y-117905652D01*
X174536862Y-117900460D01*
X174139416Y-117898356D01*
X174005699Y-117898250D01*
X173586668Y-117897619D01*
X173256549Y-117894210D01*
X173005041Y-117885751D01*
X172821837Y-117869969D01*
X172696635Y-117844592D01*
X172619130Y-117807347D01*
X172579017Y-117755962D01*
X172565994Y-117688164D01*
X172569756Y-117601681D01*
X172571614Y-117581969D01*
X172586695Y-117426961D01*
X174459449Y-117413962D01*
X176332203Y-117400964D01*
X176332203Y-115765047D01*
X170219727Y-115765047D01*
X170057293Y-115765047D01*
X170056617Y-115591414D01*
X173281226Y-115583167D01*
X176505836Y-115574919D01*
X177028918Y-116163359D01*
X177028918Y-116163359D01*
G37*
X177028918Y-116163359D02*
X177015424Y-117092817D01*
X177001929Y-118022274D01*
X176440628Y-118047079D01*
X175879327Y-118071883D01*
X176199032Y-118426586D01*
X176358199Y-118617184D01*
X176505626Y-118818088D01*
X176616777Y-118995060D01*
X176643367Y-119046703D01*
X176786808Y-119433684D01*
X176891091Y-119886161D01*
X176956319Y-120383154D01*
X176982593Y-120903683D01*
X176970015Y-121426768D01*
X176918685Y-121931428D01*
X176828705Y-122396683D01*
X176700177Y-122801553D01*
X176624412Y-122969085D01*
X176491400Y-123176827D01*
X176307696Y-123395777D01*
X176102642Y-123595136D01*
X175905580Y-123744102D01*
X175862135Y-123769255D01*
X175815159Y-123793183D01*
X175765394Y-123813308D01*
X175704171Y-123830016D01*
X175622819Y-123843693D01*
X175512669Y-123854723D01*
X175365052Y-123863493D01*
X175171299Y-123870388D01*
X174922740Y-123875794D01*
X174610705Y-123880096D01*
X174226526Y-123883679D01*
X173761533Y-123886930D01*
X173207057Y-123890235D01*
X173132367Y-123890663D01*
X170602257Y-123905146D01*
X170381120Y-123679823D01*
X170256206Y-123562343D01*
X170151158Y-123480827D01*
X170094870Y-123454500D01*
X170072329Y-123436052D01*
X170056096Y-123373421D01*
X170045611Y-123255684D01*
X170040312Y-123071914D01*
X170039635Y-122811185D01*
X170043019Y-122462573D01*
X170043187Y-122449911D01*
X170056617Y-121445321D01*
X171847402Y-121420516D01*
X172338926Y-121412980D01*
X172739820Y-121405039D01*
X173058675Y-121396268D01*
X173304081Y-121386239D01*
X173484626Y-121374527D01*
X173608902Y-121360706D01*
X173685497Y-121344350D01*
X173720156Y-121327625D01*
X173756291Y-121281365D01*
X173780320Y-121202093D01*
X173794467Y-121072096D01*
X173800952Y-120873667D01*
X173802125Y-120674166D01*
X173802125Y-120088793D01*
X172871949Y-120072526D01*
X172505279Y-120064472D01*
X172218347Y-120050372D01*
X171991677Y-120023648D01*
X171805788Y-119977720D01*
X171641202Y-119906009D01*
X171478442Y-119801938D01*
X171298029Y-119658926D01*
X171080484Y-119470396D01*
X171075087Y-119465647D01*
X170801222Y-119206060D01*
X170579245Y-118948613D01*
X170404225Y-118679303D01*
X170271234Y-118384127D01*
X170175341Y-118049083D01*
X170111617Y-117660167D01*
X170075132Y-117203376D01*
X170060956Y-116664708D01*
X170060478Y-116583602D01*
X170057293Y-115765047D01*
X170219727Y-115765047D01*
X170243268Y-116720028D01*
X170266084Y-117246817D01*
X170308626Y-117688727D01*
X170374448Y-118058769D01*
X170467106Y-118369956D01*
X170590154Y-118635299D01*
X170747148Y-118867811D01*
X170867902Y-119006263D01*
X170983685Y-119124024D01*
X171090142Y-119216465D01*
X171201262Y-119287016D01*
X171331030Y-119339108D01*
X171493434Y-119376172D01*
X171702461Y-119401637D01*
X171972098Y-119418934D01*
X172316332Y-119431495D01*
X172636304Y-119439979D01*
X172968725Y-119448528D01*
X173266119Y-119456780D01*
X173514800Y-119464306D01*
X173701082Y-119470676D01*
X173811276Y-119475461D01*
X173835788Y-119477609D01*
X173896273Y-119536681D01*
X173939791Y-119596517D01*
X173969133Y-119673758D01*
X173987090Y-119785041D01*
X173996453Y-119947006D01*
X174000013Y-120176293D01*
X174000562Y-120459938D01*
X173997736Y-120740760D01*
X173989923Y-120991331D01*
X173978122Y-121192815D01*
X173963331Y-121326377D01*
X173952400Y-121368202D01*
X173877903Y-121442223D01*
X173750172Y-121517992D01*
X173703349Y-121538574D01*
X173634629Y-121561100D01*
X173545868Y-121579101D01*
X173426112Y-121593056D01*
X173264404Y-121603445D01*
X173049789Y-121610747D01*
X172771312Y-121615442D01*
X172418016Y-121618008D01*
X171978946Y-121618925D01*
X171866355Y-121618954D01*
X170230250Y-121618954D01*
X170230250Y-123259613D01*
X172673511Y-123245436D01*
X173228926Y-123242114D01*
X173693974Y-123238882D01*
X174077510Y-123235331D01*
X174388384Y-123231050D01*
X174635450Y-123225632D01*
X174827558Y-123218667D01*
X174973561Y-123209747D01*
X175082312Y-123198462D01*
X175162662Y-123184403D01*
X175223464Y-123167162D01*
X175273569Y-123146330D01*
X175318595Y-123123230D01*
X175597529Y-122919836D01*
X175840997Y-122631796D01*
X176042723Y-122269290D01*
X176196430Y-121842501D01*
X176253689Y-121606372D01*
X176292016Y-121344546D01*
X176317076Y-121013453D01*
X176328770Y-120642164D01*
X176326995Y-120259753D01*
X176311651Y-119895294D01*
X176282637Y-119577858D01*
X176261234Y-119436141D01*
X176164929Y-119032540D01*
X176033608Y-118672712D01*
X175874443Y-118369795D01*
X175694607Y-118136931D01*
X175501276Y-117987258D01*
X175459457Y-117967553D01*
X175381068Y-117944883D01*
X175260360Y-117927352D01*
X175086588Y-117914446D01*
X174849004Y-117905652D01*
X174536862Y-117900460D01*
X174139416Y-117898356D01*
X174005699Y-117898250D01*
X173586668Y-117897619D01*
X173256549Y-117894210D01*
X173005041Y-117885751D01*
X172821837Y-117869969D01*
X172696635Y-117844592D01*
X172619130Y-117807347D01*
X172579017Y-117755962D01*
X172565994Y-117688164D01*
X172569756Y-117601681D01*
X172571614Y-117581969D01*
X172586695Y-117426961D01*
X174459449Y-117413962D01*
X176332203Y-117400964D01*
X176332203Y-115765047D01*
X170219727Y-115765047D01*
X170057293Y-115765047D01*
X170056617Y-115591414D01*
X173281226Y-115583167D01*
X176505836Y-115574919D01*
X177028918Y-116163359D01*
G36*
X165296063Y-115577851D02*
X168200158Y-115591414D01*
X168572691Y-115988289D01*
X168832604Y-116290260D01*
X169023368Y-116577063D01*
X169163174Y-116880600D01*
X169260472Y-117194477D01*
X169309179Y-117411659D01*
X169330378Y-117603917D01*
X169321916Y-117797143D01*
X169281637Y-118017231D01*
X169207389Y-118290071D01*
X169155248Y-118459467D01*
X169076898Y-118715428D01*
X169028360Y-118896776D01*
X169006250Y-119022402D01*
X169007184Y-119111194D01*
X169026406Y-119178803D01*
X169070047Y-119282426D01*
X169140588Y-119449227D01*
X169226122Y-119651068D01*
X169271753Y-119758602D01*
X169461304Y-120205086D01*
X169475432Y-122053036D01*
X169489560Y-123900985D01*
X168185589Y-123899915D01*
X166881617Y-123898844D01*
X166621816Y-123648967D01*
X166362014Y-123399090D01*
X166348964Y-121703206D01*
X166335914Y-120007323D01*
X166103270Y-119957376D01*
X165885041Y-119877292D01*
X165718798Y-119761723D01*
X165566969Y-119616016D01*
X165566969Y-123900985D01*
X164239918Y-123899915D01*
X162912867Y-123898844D01*
X162391969Y-123397854D01*
X162391969Y-115765047D01*
X162590406Y-115765047D01*
X162590406Y-123256063D01*
X164872437Y-123256063D01*
X164872437Y-117302938D01*
X166261500Y-117302938D01*
X166261500Y-117898250D01*
X165517359Y-117898250D01*
X165517359Y-119276271D01*
X165700654Y-119310657D01*
X165895054Y-119366827D01*
X166100526Y-119457024D01*
X166283930Y-119563857D01*
X166412129Y-119669934D01*
X166431679Y-119694312D01*
X166452795Y-119735595D01*
X166469802Y-119799559D01*
X166483125Y-119896223D01*
X166493189Y-120035607D01*
X166500419Y-120227731D01*
X166505240Y-120482613D01*
X166508076Y-120810273D01*
X166509352Y-121220730D01*
X166509547Y-121530773D01*
X166509547Y-123256063D01*
X168844762Y-123256063D01*
X168830573Y-121482528D01*
X168816383Y-119708993D01*
X168626831Y-119262508D01*
X168538191Y-119053521D01*
X168458425Y-118865100D01*
X168399458Y-118725429D01*
X168381231Y-118682037D01*
X168359856Y-118605704D01*
X168361162Y-118512713D01*
X168388921Y-118381487D01*
X168446908Y-118190452D01*
X168489717Y-118061920D01*
X168564109Y-117821891D01*
X168626758Y-117582535D01*
X168668524Y-117380524D01*
X168678906Y-117302938D01*
X168677588Y-117071065D01*
X168640771Y-116807725D01*
X168575717Y-116535434D01*
X168489685Y-116276711D01*
X168389936Y-116054070D01*
X168283731Y-115890029D01*
X168199594Y-115816438D01*
X168124919Y-115803759D01*
X167952438Y-115792827D01*
X167683551Y-115783667D01*
X167319655Y-115776304D01*
X166862150Y-115770763D01*
X166312433Y-115767070D01*
X165671903Y-115765249D01*
X165346988Y-115765047D01*
X162590406Y-115765047D01*
X162391969Y-115765047D01*
X162391969Y-115564287D01*
X165296063Y-115577851D01*
X165296063Y-115577851D01*
G37*
X165296063Y-115577851D02*
X168200158Y-115591414D01*
X168572691Y-115988289D01*
X168832604Y-116290260D01*
X169023368Y-116577063D01*
X169163174Y-116880600D01*
X169260472Y-117194477D01*
X169309179Y-117411659D01*
X169330378Y-117603917D01*
X169321916Y-117797143D01*
X169281637Y-118017231D01*
X169207389Y-118290071D01*
X169155248Y-118459467D01*
X169076898Y-118715428D01*
X169028360Y-118896776D01*
X169006250Y-119022402D01*
X169007184Y-119111194D01*
X169026406Y-119178803D01*
X169070047Y-119282426D01*
X169140588Y-119449227D01*
X169226122Y-119651068D01*
X169271753Y-119758602D01*
X169461304Y-120205086D01*
X169475432Y-122053036D01*
X169489560Y-123900985D01*
X168185589Y-123899915D01*
X166881617Y-123898844D01*
X166621816Y-123648967D01*
X166362014Y-123399090D01*
X166348964Y-121703206D01*
X166335914Y-120007323D01*
X166103270Y-119957376D01*
X165885041Y-119877292D01*
X165718798Y-119761723D01*
X165566969Y-119616016D01*
X165566969Y-123900985D01*
X164239918Y-123899915D01*
X162912867Y-123898844D01*
X162391969Y-123397854D01*
X162391969Y-115765047D01*
X162590406Y-115765047D01*
X162590406Y-123256063D01*
X164872437Y-123256063D01*
X164872437Y-117302938D01*
X166261500Y-117302938D01*
X166261500Y-117898250D01*
X165517359Y-117898250D01*
X165517359Y-119276271D01*
X165700654Y-119310657D01*
X165895054Y-119366827D01*
X166100526Y-119457024D01*
X166283930Y-119563857D01*
X166412129Y-119669934D01*
X166431679Y-119694312D01*
X166452795Y-119735595D01*
X166469802Y-119799559D01*
X166483125Y-119896223D01*
X166493189Y-120035607D01*
X166500419Y-120227731D01*
X166505240Y-120482613D01*
X166508076Y-120810273D01*
X166509352Y-121220730D01*
X166509547Y-121530773D01*
X166509547Y-123256063D01*
X168844762Y-123256063D01*
X168830573Y-121482528D01*
X168816383Y-119708993D01*
X168626831Y-119262508D01*
X168538191Y-119053521D01*
X168458425Y-118865100D01*
X168399458Y-118725429D01*
X168381231Y-118682037D01*
X168359856Y-118605704D01*
X168361162Y-118512713D01*
X168388921Y-118381487D01*
X168446908Y-118190452D01*
X168489717Y-118061920D01*
X168564109Y-117821891D01*
X168626758Y-117582535D01*
X168668524Y-117380524D01*
X168678906Y-117302938D01*
X168677588Y-117071065D01*
X168640771Y-116807725D01*
X168575717Y-116535434D01*
X168489685Y-116276711D01*
X168389936Y-116054070D01*
X168283731Y-115890029D01*
X168199594Y-115816438D01*
X168124919Y-115803759D01*
X167952438Y-115792827D01*
X167683551Y-115783667D01*
X167319655Y-115776304D01*
X166862150Y-115770763D01*
X166312433Y-115767070D01*
X165671903Y-115765249D01*
X165346988Y-115765047D01*
X162590406Y-115765047D01*
X162391969Y-115765047D01*
X162391969Y-115564287D01*
X165296063Y-115577851D01*
G36*
X161572989Y-115851037D02*
X161842648Y-116137118D01*
X161844456Y-120019051D01*
X161846265Y-123900985D01*
X159237627Y-123900985D01*
X159018531Y-123677743D01*
X158894245Y-123560877D01*
X158789969Y-123480066D01*
X158735052Y-123454500D01*
X158723027Y-123438718D01*
X158712649Y-123387569D01*
X158703841Y-123295353D01*
X158696529Y-123156366D01*
X158690637Y-122964908D01*
X158686091Y-122715275D01*
X158682817Y-122401767D01*
X158680738Y-122018681D01*
X158679780Y-121560316D01*
X158679868Y-121020968D01*
X158680927Y-120394937D01*
X158682883Y-119676521D01*
X158683369Y-119522957D01*
X158695509Y-115765047D01*
X158869703Y-115765047D01*
X158869703Y-123256063D01*
X161201344Y-123256063D01*
X161201344Y-115765047D01*
X158869703Y-115765047D01*
X158695509Y-115765047D01*
X158696070Y-115591414D01*
X159999700Y-115578186D01*
X161303330Y-115564957D01*
X161572989Y-115851037D01*
X161572989Y-115851037D01*
G37*
X161572989Y-115851037D02*
X161842648Y-116137118D01*
X161844456Y-120019051D01*
X161846265Y-123900985D01*
X159237627Y-123900985D01*
X159018531Y-123677743D01*
X158894245Y-123560877D01*
X158789969Y-123480066D01*
X158735052Y-123454500D01*
X158723027Y-123438718D01*
X158712649Y-123387569D01*
X158703841Y-123295353D01*
X158696529Y-123156366D01*
X158690637Y-122964908D01*
X158686091Y-122715275D01*
X158682817Y-122401767D01*
X158680738Y-122018681D01*
X158679780Y-121560316D01*
X158679868Y-121020968D01*
X158680927Y-120394937D01*
X158682883Y-119676521D01*
X158683369Y-119522957D01*
X158695509Y-115765047D01*
X158869703Y-115765047D01*
X158869703Y-123256063D01*
X161201344Y-123256063D01*
X161201344Y-115765047D01*
X158869703Y-115765047D01*
X158695509Y-115765047D01*
X158696070Y-115591414D01*
X159999700Y-115578186D01*
X161303330Y-115564957D01*
X161572989Y-115851037D01*
G36*
X153083056Y-115567525D02*
X153407677Y-115570568D01*
X153651695Y-115576184D01*
X153824411Y-115584818D01*
X153935126Y-115596914D01*
X153993140Y-115612917D01*
X154007984Y-115630695D01*
X154041236Y-115696875D01*
X154127791Y-115805020D01*
X154231226Y-115913875D01*
X154454469Y-116132971D01*
X154454469Y-117699813D01*
X155000172Y-117699813D01*
X155000172Y-115566610D01*
X156339625Y-115566610D01*
X156754150Y-115567525D01*
X157078771Y-115570568D01*
X157322789Y-115576184D01*
X157495505Y-115584818D01*
X157606220Y-115596914D01*
X157664234Y-115612917D01*
X157679078Y-115630695D01*
X157712330Y-115696875D01*
X157798884Y-115805020D01*
X157902320Y-115913875D01*
X158125562Y-116132971D01*
X158125562Y-123900985D01*
X156823316Y-123899915D01*
X155521070Y-123898844D01*
X155000172Y-123397854D01*
X155000172Y-119932235D01*
X154890912Y-119932235D01*
X154789883Y-119898998D01*
X154664992Y-119815415D01*
X154618061Y-119773675D01*
X154454469Y-119615115D01*
X154454469Y-123900985D01*
X153152222Y-123899915D01*
X151849976Y-123898844D01*
X151329078Y-123397854D01*
X151329078Y-115765047D01*
X151477906Y-115765047D01*
X151477906Y-123256063D01*
X153809547Y-123256063D01*
X153809547Y-117902597D01*
X154454469Y-117902597D01*
X154454469Y-119275534D01*
X154667263Y-119329116D01*
X154903508Y-119433627D01*
X155071179Y-119608612D01*
X155150184Y-119787538D01*
X155162187Y-119878542D01*
X155173033Y-120056263D01*
X155182390Y-120308201D01*
X155189925Y-120621858D01*
X155195306Y-120984734D01*
X155198198Y-121384332D01*
X155198609Y-121606224D01*
X155198609Y-123256063D01*
X157480640Y-123256063D01*
X157480640Y-115765047D01*
X155200582Y-115765047D01*
X155187193Y-116819246D01*
X155173804Y-117873446D01*
X154814136Y-117888021D01*
X154454469Y-117902597D01*
X153809547Y-117902597D01*
X153809547Y-115765047D01*
X151477906Y-115765047D01*
X151329078Y-115765047D01*
X151329078Y-115566610D01*
X152668531Y-115566610D01*
X153083056Y-115567525D01*
X153083056Y-115567525D01*
G37*
X153083056Y-115567525D02*
X153407677Y-115570568D01*
X153651695Y-115576184D01*
X153824411Y-115584818D01*
X153935126Y-115596914D01*
X153993140Y-115612917D01*
X154007984Y-115630695D01*
X154041236Y-115696875D01*
X154127791Y-115805020D01*
X154231226Y-115913875D01*
X154454469Y-116132971D01*
X154454469Y-117699813D01*
X155000172Y-117699813D01*
X155000172Y-115566610D01*
X156339625Y-115566610D01*
X156754150Y-115567525D01*
X157078771Y-115570568D01*
X157322789Y-115576184D01*
X157495505Y-115584818D01*
X157606220Y-115596914D01*
X157664234Y-115612917D01*
X157679078Y-115630695D01*
X157712330Y-115696875D01*
X157798884Y-115805020D01*
X157902320Y-115913875D01*
X158125562Y-116132971D01*
X158125562Y-123900985D01*
X156823316Y-123899915D01*
X155521070Y-123898844D01*
X155000172Y-123397854D01*
X155000172Y-119932235D01*
X154890912Y-119932235D01*
X154789883Y-119898998D01*
X154664992Y-119815415D01*
X154618061Y-119773675D01*
X154454469Y-119615115D01*
X154454469Y-123900985D01*
X153152222Y-123899915D01*
X151849976Y-123898844D01*
X151329078Y-123397854D01*
X151329078Y-115765047D01*
X151477906Y-115765047D01*
X151477906Y-123256063D01*
X153809547Y-123256063D01*
X153809547Y-117902597D01*
X154454469Y-117902597D01*
X154454469Y-119275534D01*
X154667263Y-119329116D01*
X154903508Y-119433627D01*
X155071179Y-119608612D01*
X155150184Y-119787538D01*
X155162187Y-119878542D01*
X155173033Y-120056263D01*
X155182390Y-120308201D01*
X155189925Y-120621858D01*
X155195306Y-120984734D01*
X155198198Y-121384332D01*
X155198609Y-121606224D01*
X155198609Y-123256063D01*
X157480640Y-123256063D01*
X157480640Y-115765047D01*
X155200582Y-115765047D01*
X155187193Y-116819246D01*
X155173804Y-117873446D01*
X154814136Y-117888021D01*
X154454469Y-117902597D01*
X153809547Y-117902597D01*
X153809547Y-115765047D01*
X151477906Y-115765047D01*
X151329078Y-115765047D01*
X151329078Y-115566610D01*
X152668531Y-115566610D01*
X153083056Y-115567525D01*
G36*
X147191562Y-111598080D02*
X147920835Y-111598784D01*
X148561026Y-111600039D01*
X149117205Y-111601913D01*
X149594440Y-111604471D01*
X149997798Y-111607781D01*
X150332349Y-111611910D01*
X150603161Y-111616924D01*
X150815302Y-111622890D01*
X150973840Y-111629875D01*
X151083845Y-111637946D01*
X151150384Y-111647169D01*
X151178525Y-111657612D01*
X151180250Y-111661305D01*
X151213578Y-111722343D01*
X151302820Y-111832480D01*
X151431864Y-111972574D01*
X151502711Y-112044344D01*
X151825172Y-112363939D01*
X151825172Y-115219344D01*
X149047047Y-115219344D01*
X149047047Y-123900985D01*
X145149605Y-123900985D01*
X144853501Y-123598967D01*
X144703477Y-123453949D01*
X144566004Y-123335008D01*
X144465039Y-123262472D01*
X144445777Y-123252929D01*
X144334156Y-123208909D01*
X144334156Y-115219344D01*
X142322110Y-115219344D01*
X142002515Y-114896883D01*
X141854877Y-114754537D01*
X141728072Y-114644311D01*
X141641239Y-114582316D01*
X141619476Y-114574422D01*
X141600716Y-114554977D01*
X141585812Y-114490807D01*
X141574391Y-114373156D01*
X141569938Y-114276766D01*
X141802314Y-114276766D01*
X144631812Y-114276766D01*
X144631812Y-122958407D01*
X148104469Y-122958407D01*
X148104469Y-114276766D01*
X150882594Y-114276766D01*
X150882594Y-111845385D01*
X146355738Y-111858048D01*
X141828883Y-111870711D01*
X141815598Y-113073739D01*
X141802314Y-114276766D01*
X141569938Y-114276766D01*
X141566079Y-114193270D01*
X141560504Y-113942395D01*
X141557292Y-113611776D01*
X141556070Y-113192659D01*
X141556031Y-113086141D01*
X141556031Y-111597860D01*
X146368140Y-111597860D01*
X147191562Y-111598080D01*
X147191562Y-111598080D01*
G37*
X147191562Y-111598080D02*
X147920835Y-111598784D01*
X148561026Y-111600039D01*
X149117205Y-111601913D01*
X149594440Y-111604471D01*
X149997798Y-111607781D01*
X150332349Y-111611910D01*
X150603161Y-111616924D01*
X150815302Y-111622890D01*
X150973840Y-111629875D01*
X151083845Y-111637946D01*
X151150384Y-111647169D01*
X151178525Y-111657612D01*
X151180250Y-111661305D01*
X151213578Y-111722343D01*
X151302820Y-111832480D01*
X151431864Y-111972574D01*
X151502711Y-112044344D01*
X151825172Y-112363939D01*
X151825172Y-115219344D01*
X149047047Y-115219344D01*
X149047047Y-123900985D01*
X145149605Y-123900985D01*
X144853501Y-123598967D01*
X144703477Y-123453949D01*
X144566004Y-123335008D01*
X144465039Y-123262472D01*
X144445777Y-123252929D01*
X144334156Y-123208909D01*
X144334156Y-115219344D01*
X142322110Y-115219344D01*
X142002515Y-114896883D01*
X141854877Y-114754537D01*
X141728072Y-114644311D01*
X141641239Y-114582316D01*
X141619476Y-114574422D01*
X141600716Y-114554977D01*
X141585812Y-114490807D01*
X141574391Y-114373156D01*
X141569938Y-114276766D01*
X141802314Y-114276766D01*
X144631812Y-114276766D01*
X144631812Y-122958407D01*
X148104469Y-122958407D01*
X148104469Y-114276766D01*
X150882594Y-114276766D01*
X150882594Y-111845385D01*
X146355738Y-111858048D01*
X141828883Y-111870711D01*
X141815598Y-113073739D01*
X141802314Y-114276766D01*
X141569938Y-114276766D01*
X141566079Y-114193270D01*
X141560504Y-113942395D01*
X141557292Y-113611776D01*
X141556070Y-113192659D01*
X141556031Y-113086141D01*
X141556031Y-111597860D01*
X146368140Y-111597860D01*
X147191562Y-111598080D01*
G36*
X195021122Y-115576841D02*
X195580399Y-115580265D01*
X196049337Y-115583632D01*
X196436813Y-115587334D01*
X196751706Y-115591767D01*
X197002895Y-115597324D01*
X197199256Y-115604400D01*
X197349669Y-115613389D01*
X197463011Y-115624685D01*
X197548161Y-115638682D01*
X197613997Y-115655774D01*
X197669397Y-115676355D01*
X197713844Y-115696384D01*
X197896361Y-115796589D01*
X198083174Y-115920416D01*
X198135523Y-115960317D01*
X198317637Y-116121964D01*
X198526970Y-116332726D01*
X198746050Y-116572291D01*
X198957408Y-116820350D01*
X199143574Y-117056593D01*
X199287076Y-117260710D01*
X199354954Y-117377960D01*
X199502624Y-117677921D01*
X199474976Y-122387899D01*
X199326148Y-122685555D01*
X199183579Y-122915470D01*
X198986053Y-123160890D01*
X198758315Y-123396384D01*
X198525113Y-123596523D01*
X198311189Y-123735878D01*
X198297357Y-123742806D01*
X198040972Y-123838911D01*
X197704878Y-123919766D01*
X197307790Y-123982641D01*
X196868426Y-124024807D01*
X196405500Y-124043535D01*
X196231965Y-124043978D01*
X195951116Y-124039113D01*
X195685120Y-124029825D01*
X195459690Y-124017330D01*
X195300537Y-124002842D01*
X195271246Y-123998576D01*
X194953117Y-123931237D01*
X194667662Y-123836807D01*
X194392823Y-123704000D01*
X194106539Y-123521526D01*
X193786753Y-123278097D01*
X193660068Y-123174107D01*
X193324621Y-122881069D01*
X193063328Y-122620275D01*
X192862897Y-122377086D01*
X192710036Y-122136865D01*
X192697970Y-122114539D01*
X192579273Y-121891805D01*
X192565458Y-118727036D01*
X192552512Y-115761426D01*
X192749998Y-115761426D01*
X192763854Y-118826616D01*
X192766513Y-119463966D01*
X192768829Y-120010061D01*
X192771607Y-120472856D01*
X192775657Y-120860308D01*
X192781784Y-121180371D01*
X192790796Y-121441004D01*
X192803500Y-121650161D01*
X192820702Y-121815798D01*
X192843210Y-121945873D01*
X192871830Y-122048341D01*
X192907370Y-122131158D01*
X192950636Y-122202280D01*
X193002437Y-122269663D01*
X193063577Y-122341265D01*
X193128010Y-122416790D01*
X193484243Y-122767570D01*
X193904705Y-123045914D01*
X194380799Y-123246765D01*
X194671556Y-123324165D01*
X194966514Y-123368541D01*
X195331826Y-123394227D01*
X195740451Y-123401453D01*
X196165343Y-123390448D01*
X196579461Y-123361443D01*
X196955761Y-123314668D01*
X197018509Y-123304184D01*
X197312793Y-123246969D01*
X197535169Y-123188438D01*
X197712693Y-123120187D01*
X197855236Y-123044248D01*
X198162322Y-122812047D01*
X198443300Y-122508186D01*
X198673435Y-122160215D01*
X198707702Y-122094721D01*
X198854859Y-121801544D01*
X198854781Y-117228524D01*
X198713300Y-116930868D01*
X198489280Y-116564089D01*
X198191963Y-116235120D01*
X197846778Y-115971901D01*
X197832916Y-115963485D01*
X197544220Y-115789852D01*
X192749998Y-115761426D01*
X192552512Y-115761426D01*
X192551642Y-115562268D01*
X195021122Y-115576841D01*
X195021122Y-115576841D01*
G37*
X195021122Y-115576841D02*
X195580399Y-115580265D01*
X196049337Y-115583632D01*
X196436813Y-115587334D01*
X196751706Y-115591767D01*
X197002895Y-115597324D01*
X197199256Y-115604400D01*
X197349669Y-115613389D01*
X197463011Y-115624685D01*
X197548161Y-115638682D01*
X197613997Y-115655774D01*
X197669397Y-115676355D01*
X197713844Y-115696384D01*
X197896361Y-115796589D01*
X198083174Y-115920416D01*
X198135523Y-115960317D01*
X198317637Y-116121964D01*
X198526970Y-116332726D01*
X198746050Y-116572291D01*
X198957408Y-116820350D01*
X199143574Y-117056593D01*
X199287076Y-117260710D01*
X199354954Y-117377960D01*
X199502624Y-117677921D01*
X199474976Y-122387899D01*
X199326148Y-122685555D01*
X199183579Y-122915470D01*
X198986053Y-123160890D01*
X198758315Y-123396384D01*
X198525113Y-123596523D01*
X198311189Y-123735878D01*
X198297357Y-123742806D01*
X198040972Y-123838911D01*
X197704878Y-123919766D01*
X197307790Y-123982641D01*
X196868426Y-124024807D01*
X196405500Y-124043535D01*
X196231965Y-124043978D01*
X195951116Y-124039113D01*
X195685120Y-124029825D01*
X195459690Y-124017330D01*
X195300537Y-124002842D01*
X195271246Y-123998576D01*
X194953117Y-123931237D01*
X194667662Y-123836807D01*
X194392823Y-123704000D01*
X194106539Y-123521526D01*
X193786753Y-123278097D01*
X193660068Y-123174107D01*
X193324621Y-122881069D01*
X193063328Y-122620275D01*
X192862897Y-122377086D01*
X192710036Y-122136865D01*
X192697970Y-122114539D01*
X192579273Y-121891805D01*
X192565458Y-118727036D01*
X192552512Y-115761426D01*
X192749998Y-115761426D01*
X192763854Y-118826616D01*
X192766513Y-119463966D01*
X192768829Y-120010061D01*
X192771607Y-120472856D01*
X192775657Y-120860308D01*
X192781784Y-121180371D01*
X192790796Y-121441004D01*
X192803500Y-121650161D01*
X192820702Y-121815798D01*
X192843210Y-121945873D01*
X192871830Y-122048341D01*
X192907370Y-122131158D01*
X192950636Y-122202280D01*
X193002437Y-122269663D01*
X193063577Y-122341265D01*
X193128010Y-122416790D01*
X193484243Y-122767570D01*
X193904705Y-123045914D01*
X194380799Y-123246765D01*
X194671556Y-123324165D01*
X194966514Y-123368541D01*
X195331826Y-123394227D01*
X195740451Y-123401453D01*
X196165343Y-123390448D01*
X196579461Y-123361443D01*
X196955761Y-123314668D01*
X197018509Y-123304184D01*
X197312793Y-123246969D01*
X197535169Y-123188438D01*
X197712693Y-123120187D01*
X197855236Y-123044248D01*
X198162322Y-122812047D01*
X198443300Y-122508186D01*
X198673435Y-122160215D01*
X198707702Y-122094721D01*
X198854859Y-121801544D01*
X198854781Y-117228524D01*
X198713300Y-116930868D01*
X198489280Y-116564089D01*
X198191963Y-116235120D01*
X197846778Y-115971901D01*
X197832916Y-115963485D01*
X197544220Y-115789852D01*
X192749998Y-115761426D01*
X192552512Y-115761426D01*
X192551642Y-115562268D01*
X195021122Y-115576841D01*
D13*
X116104000Y-106442000D02*
X116104000Y-121682000D01*
X134134000Y-121682000D02*
X125144000Y-121672000D01*
X134134000Y-121682000D02*
X134134000Y-106442000D01*
X134134000Y-106442000D02*
X125134000Y-106442000D01*
X122804000Y-121672000D02*
X116104000Y-121682000D01*
X122814000Y-106442000D02*
X116104000Y-106442000D01*
X116104000Y-88732000D02*
X116104000Y-103972000D01*
X134134000Y-103972000D02*
X125144000Y-103962000D01*
X134134000Y-103972000D02*
X134134000Y-88732000D01*
X134134000Y-88732000D02*
X125134000Y-88732000D01*
X122804000Y-103962000D02*
X116104000Y-103972000D01*
X122814000Y-88732000D02*
X116104000Y-88732000D01*
X138274000Y-143372000D02*
X138274000Y-141872000D01*
X138274000Y-141872000D02*
X138004000Y-141872000D01*
X138004000Y-141872000D02*
X138004000Y-139042000D01*
X131374000Y-143372000D02*
X131374000Y-141872000D01*
X131374000Y-141872000D02*
X131644000Y-141872000D01*
X131644000Y-141872000D02*
X131644000Y-140772000D01*
X152549000Y-143447000D02*
X152549000Y-141947000D01*
X152549000Y-141947000D02*
X152279000Y-141947000D01*
X152279000Y-141947000D02*
X152279000Y-139117000D01*
X145649000Y-143447000D02*
X145649000Y-141947000D01*
X145649000Y-141947000D02*
X145919000Y-141947000D01*
X145919000Y-141947000D02*
X145919000Y-140847000D01*
X167049000Y-143447000D02*
X167049000Y-141947000D01*
X167049000Y-141947000D02*
X166779000Y-141947000D01*
X166779000Y-141947000D02*
X166779000Y-139117000D01*
X160149000Y-143447000D02*
X160149000Y-141947000D01*
X160149000Y-141947000D02*
X160419000Y-141947000D01*
X160419000Y-141947000D02*
X160419000Y-140847000D01*
X181274000Y-143472000D02*
X181274000Y-141972000D01*
X181274000Y-141972000D02*
X181004000Y-141972000D01*
X181004000Y-141972000D02*
X181004000Y-139142000D01*
X174374000Y-143472000D02*
X174374000Y-141972000D01*
X174374000Y-141972000D02*
X174644000Y-141972000D01*
X174644000Y-141972000D02*
X174644000Y-140872000D01*
X195499000Y-143447000D02*
X195499000Y-141947000D01*
X195499000Y-141947000D02*
X195229000Y-141947000D01*
X195229000Y-141947000D02*
X195229000Y-139117000D01*
X188599000Y-143447000D02*
X188599000Y-141947000D01*
X188599000Y-141947000D02*
X188869000Y-141947000D01*
X188869000Y-141947000D02*
X188869000Y-140847000D01*
X119704000Y-130842000D02*
X119704000Y-132042000D01*
X117944000Y-132042000D02*
X117944000Y-130842000D01*
X157174000Y-80572000D02*
X155974000Y-80572000D01*
X155974000Y-78812000D02*
X157174000Y-78812000D01*
X157174000Y-83572000D02*
X155974000Y-83572000D01*
X155974000Y-81812000D02*
X157174000Y-81812000D01*
X157174000Y-86322000D02*
X155974000Y-86322000D01*
X155974000Y-84562000D02*
X157174000Y-84562000D01*
X170294000Y-77422000D02*
X169024000Y-77422000D01*
X170294000Y-77422000D02*
X170294000Y-79962000D01*
X170094000Y-77622000D02*
X170094000Y-87642000D01*
X170094000Y-87642000D02*
X160054000Y-87642000D01*
X160054000Y-87642000D02*
X160054000Y-77622000D01*
X160054000Y-77622000D02*
X170094000Y-77622000D01*
X168249000Y-80602000D02*
X166979000Y-80602000D01*
X166979000Y-80602000D02*
X166979000Y-84662000D01*
X166979000Y-84662000D02*
X168249000Y-84662000D01*
X168249000Y-84662000D02*
X168249000Y-80602000D01*
X168249000Y-82632000D02*
X166979000Y-82632000D01*
X165709000Y-80602000D02*
X164439000Y-80602000D01*
X164439000Y-80602000D02*
X164439000Y-84662000D01*
X164439000Y-84662000D02*
X165709000Y-84662000D01*
X165709000Y-84662000D02*
X165709000Y-80602000D01*
X165709000Y-82632000D02*
X164439000Y-82632000D01*
X163169000Y-80602000D02*
X161899000Y-80602000D01*
X161899000Y-80602000D02*
X161899000Y-84662000D01*
X161899000Y-84662000D02*
X163169000Y-84662000D01*
X163169000Y-84662000D02*
X163169000Y-80602000D01*
X163169000Y-82632000D02*
X161899000Y-82632000D01*
X143154000Y-86272000D02*
X143154000Y-81072000D01*
X138014000Y-86272000D02*
X143154000Y-86272000D01*
X135414000Y-81072000D02*
X143154000Y-81072000D01*
X138014000Y-86272000D02*
X138014000Y-83672000D01*
X138014000Y-83672000D02*
X135414000Y-83672000D01*
X135414000Y-83672000D02*
X135414000Y-81072000D01*
X136744000Y-86272000D02*
X135414000Y-86272000D01*
X135414000Y-86272000D02*
X135414000Y-84942000D01*
X152904000Y-86272000D02*
X152904000Y-81072000D01*
X147764000Y-86272000D02*
X152904000Y-86272000D01*
X145164000Y-81072000D02*
X152904000Y-81072000D01*
X147764000Y-86272000D02*
X147764000Y-83672000D01*
X147764000Y-83672000D02*
X145164000Y-83672000D01*
X145164000Y-83672000D02*
X145164000Y-81072000D01*
X146494000Y-86272000D02*
X145164000Y-86272000D01*
X145164000Y-86272000D02*
X145164000Y-84942000D01*
X139494000Y-138022000D02*
X142154000Y-138022000D01*
X139494000Y-132882000D02*
X139494000Y-138022000D01*
X142154000Y-132882000D02*
X142154000Y-138022000D01*
X139494000Y-132882000D02*
X142154000Y-132882000D01*
X139494000Y-131612000D02*
X139494000Y-130282000D01*
X139494000Y-130282000D02*
X140824000Y-130282000D01*
X153744000Y-138062000D02*
X156404000Y-138062000D01*
X153744000Y-132922000D02*
X153744000Y-138062000D01*
X156404000Y-132922000D02*
X156404000Y-138062000D01*
X153744000Y-132922000D02*
X156404000Y-132922000D01*
X153744000Y-131652000D02*
X153744000Y-130322000D01*
X153744000Y-130322000D02*
X155074000Y-130322000D01*
X168744000Y-138062000D02*
X171404000Y-138062000D01*
X168744000Y-132922000D02*
X168744000Y-138062000D01*
X171404000Y-132922000D02*
X171404000Y-138062000D01*
X168744000Y-132922000D02*
X171404000Y-132922000D01*
X168744000Y-131652000D02*
X168744000Y-130322000D01*
X168744000Y-130322000D02*
X170074000Y-130322000D01*
X182994000Y-138062000D02*
X185654000Y-138062000D01*
X182994000Y-132922000D02*
X182994000Y-138062000D01*
X185654000Y-132922000D02*
X185654000Y-138062000D01*
X182994000Y-132922000D02*
X185654000Y-132922000D01*
X182994000Y-131652000D02*
X182994000Y-130322000D01*
X182994000Y-130322000D02*
X184324000Y-130322000D01*
X197244000Y-138022000D02*
X199904000Y-138022000D01*
X197244000Y-132882000D02*
X197244000Y-138022000D01*
X199904000Y-132882000D02*
X199904000Y-138022000D01*
X197244000Y-132882000D02*
X199904000Y-132882000D01*
X197244000Y-131612000D02*
X197244000Y-130282000D01*
X197244000Y-130282000D02*
X198574000Y-130282000D01*
D12*
G36*
X175776603Y-109000391D02*
X175855920Y-109001197D01*
X176088331Y-109006805D01*
X176282974Y-109023462D01*
X176446484Y-109052957D01*
X176585494Y-109097074D01*
X176706639Y-109157602D01*
X176816551Y-109236327D01*
X176855809Y-109270525D01*
X176920931Y-109350542D01*
X176979652Y-109459123D01*
X177024911Y-109579480D01*
X177049645Y-109694824D01*
X177052215Y-109737446D01*
X177036110Y-109855599D01*
X176992953Y-109984659D01*
X176930476Y-110106819D01*
X176856413Y-110204269D01*
X176844383Y-110216027D01*
X176742481Y-110298671D01*
X176630892Y-110363186D01*
X176503182Y-110411260D01*
X176352918Y-110444584D01*
X176173666Y-110464849D01*
X175958993Y-110473746D01*
X175860663Y-110474500D01*
X175735640Y-110473898D01*
X175647718Y-110471381D01*
X175588647Y-110465881D01*
X175550180Y-110456332D01*
X175524068Y-110441666D01*
X175510072Y-110429143D01*
X175496851Y-110413929D01*
X175486480Y-110394302D01*
X175478615Y-110365005D01*
X175472909Y-110320780D01*
X175469019Y-110256369D01*
X175466600Y-110166514D01*
X175465306Y-110045959D01*
X175464794Y-109889444D01*
X175464715Y-109737446D01*
X175464215Y-109534717D01*
X175464323Y-109372768D01*
X175466252Y-109295214D01*
X175759536Y-109295214D01*
X175759536Y-110179679D01*
X175946634Y-110179507D01*
X176059216Y-110176278D01*
X176177128Y-110167960D01*
X176275507Y-110156325D01*
X176278500Y-110155846D01*
X176437500Y-110117404D01*
X176560826Y-110057533D01*
X176654637Y-109972335D01*
X176714243Y-109880091D01*
X176750970Y-109777766D01*
X176748122Y-109681686D01*
X176705498Y-109578696D01*
X176622126Y-109472153D01*
X176506594Y-109393204D01*
X176356423Y-109340433D01*
X176256061Y-109321758D01*
X176142137Y-109308643D01*
X176021395Y-109299150D01*
X175918699Y-109295204D01*
X175912616Y-109295185D01*
X175759536Y-109295214D01*
X175466252Y-109295214D01*
X175467451Y-109247059D01*
X175476014Y-109153048D01*
X175492422Y-109086197D01*
X175519090Y-109041963D01*
X175558429Y-109015806D01*
X175612852Y-109003186D01*
X175684773Y-108999561D01*
X175776603Y-109000391D01*
X175776603Y-109000391D01*
G37*
X175776603Y-109000391D02*
X175855920Y-109001197D01*
X176088331Y-109006805D01*
X176282974Y-109023462D01*
X176446484Y-109052957D01*
X176585494Y-109097074D01*
X176706639Y-109157602D01*
X176816551Y-109236327D01*
X176855809Y-109270525D01*
X176920931Y-109350542D01*
X176979652Y-109459123D01*
X177024911Y-109579480D01*
X177049645Y-109694824D01*
X177052215Y-109737446D01*
X177036110Y-109855599D01*
X176992953Y-109984659D01*
X176930476Y-110106819D01*
X176856413Y-110204269D01*
X176844383Y-110216027D01*
X176742481Y-110298671D01*
X176630892Y-110363186D01*
X176503182Y-110411260D01*
X176352918Y-110444584D01*
X176173666Y-110464849D01*
X175958993Y-110473746D01*
X175860663Y-110474500D01*
X175735640Y-110473898D01*
X175647718Y-110471381D01*
X175588647Y-110465881D01*
X175550180Y-110456332D01*
X175524068Y-110441666D01*
X175510072Y-110429143D01*
X175496851Y-110413929D01*
X175486480Y-110394302D01*
X175478615Y-110365005D01*
X175472909Y-110320780D01*
X175469019Y-110256369D01*
X175466600Y-110166514D01*
X175465306Y-110045959D01*
X175464794Y-109889444D01*
X175464715Y-109737446D01*
X175464215Y-109534717D01*
X175464323Y-109372768D01*
X175466252Y-109295214D01*
X175759536Y-109295214D01*
X175759536Y-110179679D01*
X175946634Y-110179507D01*
X176059216Y-110176278D01*
X176177128Y-110167960D01*
X176275507Y-110156325D01*
X176278500Y-110155846D01*
X176437500Y-110117404D01*
X176560826Y-110057533D01*
X176654637Y-109972335D01*
X176714243Y-109880091D01*
X176750970Y-109777766D01*
X176748122Y-109681686D01*
X176705498Y-109578696D01*
X176622126Y-109472153D01*
X176506594Y-109393204D01*
X176356423Y-109340433D01*
X176256061Y-109321758D01*
X176142137Y-109308643D01*
X176021395Y-109299150D01*
X175918699Y-109295204D01*
X175912616Y-109295185D01*
X175759536Y-109295214D01*
X175466252Y-109295214D01*
X175467451Y-109247059D01*
X175476014Y-109153048D01*
X175492422Y-109086197D01*
X175519090Y-109041963D01*
X175558429Y-109015806D01*
X175612852Y-109003186D01*
X175684773Y-108999561D01*
X175776603Y-109000391D01*
G36*
X178606334Y-109000552D02*
X178745770Y-109001300D01*
X178851017Y-109003040D01*
X178927656Y-109006177D01*
X178981270Y-109011113D01*
X179017443Y-109018253D01*
X179041759Y-109028001D01*
X179059799Y-109040761D01*
X179066331Y-109046633D01*
X179106058Y-109109027D01*
X179113211Y-109180718D01*
X179087077Y-109244364D01*
X179074993Y-109257227D01*
X179055448Y-109269698D01*
X179023977Y-109279320D01*
X178974744Y-109286559D01*
X178901914Y-109291883D01*
X178799651Y-109295762D01*
X178662118Y-109298664D01*
X178536377Y-109300429D01*
X178038732Y-109306554D01*
X178031931Y-109436955D01*
X178025130Y-109567357D01*
X178362925Y-109567357D01*
X178509574Y-109568622D01*
X178616936Y-109573914D01*
X178691043Y-109585478D01*
X178737931Y-109605558D01*
X178763633Y-109636398D01*
X178774184Y-109680244D01*
X178775786Y-109720937D01*
X178770807Y-109770868D01*
X178752016Y-109807660D01*
X178713633Y-109833235D01*
X178649880Y-109849516D01*
X178554976Y-109858426D01*
X178423142Y-109861887D01*
X178351186Y-109862179D01*
X178027393Y-109862179D01*
X178027393Y-110179679D01*
X178526322Y-110179679D01*
X178689867Y-110179906D01*
X178814163Y-110180929D01*
X178905314Y-110183256D01*
X178969428Y-110187395D01*
X179012610Y-110193857D01*
X179040967Y-110203148D01*
X179060605Y-110215779D01*
X179070607Y-110225036D01*
X179104918Y-110279063D01*
X179115965Y-110327089D01*
X179100191Y-110385751D01*
X179070607Y-110429143D01*
X179054824Y-110442803D01*
X179034449Y-110453410D01*
X179004002Y-110461348D01*
X178958003Y-110467003D01*
X178890970Y-110470759D01*
X178797422Y-110473000D01*
X178671880Y-110474111D01*
X178508862Y-110474476D01*
X178424268Y-110474500D01*
X178243112Y-110474340D01*
X178101832Y-110473602D01*
X177994948Y-110471904D01*
X177916978Y-110468859D01*
X177862441Y-110464083D01*
X177825858Y-110457192D01*
X177801747Y-110447801D01*
X177784627Y-110435525D01*
X177777929Y-110429143D01*
X177764672Y-110413882D01*
X177754281Y-110394193D01*
X177746409Y-110364801D01*
X177740707Y-110320430D01*
X177736828Y-110255803D01*
X177734423Y-110165644D01*
X177733144Y-110044678D01*
X177732645Y-109887628D01*
X177732572Y-109741400D01*
X177732639Y-109554134D01*
X177733110Y-109406928D01*
X177734387Y-109294482D01*
X177736871Y-109211499D01*
X177740964Y-109152680D01*
X177747069Y-109112727D01*
X177755588Y-109086341D01*
X177766922Y-109068225D01*
X177781475Y-109053080D01*
X177785060Y-109049703D01*
X177802459Y-109034755D01*
X177822675Y-109023180D01*
X177851316Y-109014545D01*
X177893991Y-109008422D01*
X177956305Y-109004379D01*
X178043868Y-109001986D01*
X178162287Y-109000811D01*
X178317169Y-109000425D01*
X178427123Y-109000393D01*
X178606334Y-109000552D01*
X178606334Y-109000552D01*
G37*
X178606334Y-109000552D02*
X178745770Y-109001300D01*
X178851017Y-109003040D01*
X178927656Y-109006177D01*
X178981270Y-109011113D01*
X179017443Y-109018253D01*
X179041759Y-109028001D01*
X179059799Y-109040761D01*
X179066331Y-109046633D01*
X179106058Y-109109027D01*
X179113211Y-109180718D01*
X179087077Y-109244364D01*
X179074993Y-109257227D01*
X179055448Y-109269698D01*
X179023977Y-109279320D01*
X178974744Y-109286559D01*
X178901914Y-109291883D01*
X178799651Y-109295762D01*
X178662118Y-109298664D01*
X178536377Y-109300429D01*
X178038732Y-109306554D01*
X178031931Y-109436955D01*
X178025130Y-109567357D01*
X178362925Y-109567357D01*
X178509574Y-109568622D01*
X178616936Y-109573914D01*
X178691043Y-109585478D01*
X178737931Y-109605558D01*
X178763633Y-109636398D01*
X178774184Y-109680244D01*
X178775786Y-109720937D01*
X178770807Y-109770868D01*
X178752016Y-109807660D01*
X178713633Y-109833235D01*
X178649880Y-109849516D01*
X178554976Y-109858426D01*
X178423142Y-109861887D01*
X178351186Y-109862179D01*
X178027393Y-109862179D01*
X178027393Y-110179679D01*
X178526322Y-110179679D01*
X178689867Y-110179906D01*
X178814163Y-110180929D01*
X178905314Y-110183256D01*
X178969428Y-110187395D01*
X179012610Y-110193857D01*
X179040967Y-110203148D01*
X179060605Y-110215779D01*
X179070607Y-110225036D01*
X179104918Y-110279063D01*
X179115965Y-110327089D01*
X179100191Y-110385751D01*
X179070607Y-110429143D01*
X179054824Y-110442803D01*
X179034449Y-110453410D01*
X179004002Y-110461348D01*
X178958003Y-110467003D01*
X178890970Y-110470759D01*
X178797422Y-110473000D01*
X178671880Y-110474111D01*
X178508862Y-110474476D01*
X178424268Y-110474500D01*
X178243112Y-110474340D01*
X178101832Y-110473602D01*
X177994948Y-110471904D01*
X177916978Y-110468859D01*
X177862441Y-110464083D01*
X177825858Y-110457192D01*
X177801747Y-110447801D01*
X177784627Y-110435525D01*
X177777929Y-110429143D01*
X177764672Y-110413882D01*
X177754281Y-110394193D01*
X177746409Y-110364801D01*
X177740707Y-110320430D01*
X177736828Y-110255803D01*
X177734423Y-110165644D01*
X177733144Y-110044678D01*
X177732645Y-109887628D01*
X177732572Y-109741400D01*
X177732639Y-109554134D01*
X177733110Y-109406928D01*
X177734387Y-109294482D01*
X177736871Y-109211499D01*
X177740964Y-109152680D01*
X177747069Y-109112727D01*
X177755588Y-109086341D01*
X177766922Y-109068225D01*
X177781475Y-109053080D01*
X177785060Y-109049703D01*
X177802459Y-109034755D01*
X177822675Y-109023180D01*
X177851316Y-109014545D01*
X177893991Y-109008422D01*
X177956305Y-109004379D01*
X178043868Y-109001986D01*
X178162287Y-109000811D01*
X178317169Y-109000425D01*
X178427123Y-109000393D01*
X178606334Y-109000552D01*
G36*
X180657634Y-109002973D02*
X180807932Y-109013480D01*
X180947717Y-109029891D01*
X181068863Y-109051587D01*
X181163246Y-109077950D01*
X181222739Y-109108364D01*
X181231871Y-109117317D01*
X181263625Y-109186788D01*
X181253996Y-109258108D01*
X181204743Y-109319127D01*
X181202393Y-109320875D01*
X181173423Y-109339676D01*
X181143181Y-109349562D01*
X181100999Y-109350763D01*
X181036208Y-109343507D01*
X180938139Y-109328024D01*
X180930250Y-109326721D01*
X180784123Y-109308769D01*
X180626466Y-109299913D01*
X180468344Y-109299827D01*
X180320820Y-109308185D01*
X180194960Y-109324659D01*
X180101828Y-109348923D01*
X180095709Y-109351362D01*
X180028145Y-109389217D01*
X180004407Y-109427527D01*
X180022990Y-109465204D01*
X180082389Y-109501160D01*
X180181099Y-109534306D01*
X180317615Y-109563554D01*
X180408643Y-109577636D01*
X180597862Y-109604723D01*
X180748355Y-109629484D01*
X180866534Y-109654063D01*
X180958809Y-109680605D01*
X181031590Y-109711253D01*
X181091290Y-109748152D01*
X181144318Y-109793445D01*
X181186931Y-109837923D01*
X181237486Y-109899895D01*
X181262365Y-109953184D01*
X181270146Y-110018839D01*
X181270429Y-110042883D01*
X181264585Y-110122671D01*
X181241229Y-110182030D01*
X181200807Y-110234716D01*
X181118656Y-110315254D01*
X181027048Y-110376674D01*
X180919176Y-110420979D01*
X180788235Y-110450172D01*
X180627416Y-110466256D01*
X180429914Y-110471233D01*
X180397304Y-110471149D01*
X180265599Y-110468419D01*
X180134985Y-110462216D01*
X180019699Y-110453430D01*
X179933980Y-110442950D01*
X179927047Y-110441747D01*
X179841821Y-110421558D01*
X179769533Y-110396055D01*
X179728610Y-110372739D01*
X179690526Y-110311229D01*
X179687875Y-110239602D01*
X179720705Y-110175771D01*
X179728050Y-110168553D01*
X179758412Y-110147107D01*
X179796382Y-110137867D01*
X179855148Y-110139440D01*
X179926488Y-110147613D01*
X180006203Y-110154914D01*
X180117951Y-110161074D01*
X180248408Y-110165544D01*
X180384254Y-110167776D01*
X180419982Y-110167923D01*
X180556334Y-110167373D01*
X180656124Y-110164726D01*
X180728132Y-110159063D01*
X180781140Y-110149466D01*
X180823927Y-110135017D01*
X180849640Y-110122982D01*
X180906143Y-110089565D01*
X180942167Y-110059301D01*
X180947432Y-110050722D01*
X180936325Y-110015296D01*
X180883523Y-109981001D01*
X180792684Y-109949394D01*
X180667468Y-109922031D01*
X180630576Y-109915936D01*
X180437882Y-109885670D01*
X180284096Y-109860373D01*
X180163283Y-109838206D01*
X180069505Y-109817330D01*
X179996829Y-109795907D01*
X179939317Y-109772099D01*
X179891035Y-109744068D01*
X179846047Y-109709975D01*
X179798417Y-109667982D01*
X179782389Y-109653259D01*
X179726194Y-109598314D01*
X179696448Y-109554781D01*
X179684811Y-109504965D01*
X179682929Y-109442189D01*
X179703649Y-109319085D01*
X179765571Y-109214491D01*
X179868341Y-109128745D01*
X180011602Y-109062184D01*
X180113822Y-109032329D01*
X180224917Y-109013047D01*
X180358001Y-109002139D01*
X180504948Y-108998987D01*
X180657634Y-109002973D01*
X180657634Y-109002973D01*
G37*
X180657634Y-109002973D02*
X180807932Y-109013480D01*
X180947717Y-109029891D01*
X181068863Y-109051587D01*
X181163246Y-109077950D01*
X181222739Y-109108364D01*
X181231871Y-109117317D01*
X181263625Y-109186788D01*
X181253996Y-109258108D01*
X181204743Y-109319127D01*
X181202393Y-109320875D01*
X181173423Y-109339676D01*
X181143181Y-109349562D01*
X181100999Y-109350763D01*
X181036208Y-109343507D01*
X180938139Y-109328024D01*
X180930250Y-109326721D01*
X180784123Y-109308769D01*
X180626466Y-109299913D01*
X180468344Y-109299827D01*
X180320820Y-109308185D01*
X180194960Y-109324659D01*
X180101828Y-109348923D01*
X180095709Y-109351362D01*
X180028145Y-109389217D01*
X180004407Y-109427527D01*
X180022990Y-109465204D01*
X180082389Y-109501160D01*
X180181099Y-109534306D01*
X180317615Y-109563554D01*
X180408643Y-109577636D01*
X180597862Y-109604723D01*
X180748355Y-109629484D01*
X180866534Y-109654063D01*
X180958809Y-109680605D01*
X181031590Y-109711253D01*
X181091290Y-109748152D01*
X181144318Y-109793445D01*
X181186931Y-109837923D01*
X181237486Y-109899895D01*
X181262365Y-109953184D01*
X181270146Y-110018839D01*
X181270429Y-110042883D01*
X181264585Y-110122671D01*
X181241229Y-110182030D01*
X181200807Y-110234716D01*
X181118656Y-110315254D01*
X181027048Y-110376674D01*
X180919176Y-110420979D01*
X180788235Y-110450172D01*
X180627416Y-110466256D01*
X180429914Y-110471233D01*
X180397304Y-110471149D01*
X180265599Y-110468419D01*
X180134985Y-110462216D01*
X180019699Y-110453430D01*
X179933980Y-110442950D01*
X179927047Y-110441747D01*
X179841821Y-110421558D01*
X179769533Y-110396055D01*
X179728610Y-110372739D01*
X179690526Y-110311229D01*
X179687875Y-110239602D01*
X179720705Y-110175771D01*
X179728050Y-110168553D01*
X179758412Y-110147107D01*
X179796382Y-110137867D01*
X179855148Y-110139440D01*
X179926488Y-110147613D01*
X180006203Y-110154914D01*
X180117951Y-110161074D01*
X180248408Y-110165544D01*
X180384254Y-110167776D01*
X180419982Y-110167923D01*
X180556334Y-110167373D01*
X180656124Y-110164726D01*
X180728132Y-110159063D01*
X180781140Y-110149466D01*
X180823927Y-110135017D01*
X180849640Y-110122982D01*
X180906143Y-110089565D01*
X180942167Y-110059301D01*
X180947432Y-110050722D01*
X180936325Y-110015296D01*
X180883523Y-109981001D01*
X180792684Y-109949394D01*
X180667468Y-109922031D01*
X180630576Y-109915936D01*
X180437882Y-109885670D01*
X180284096Y-109860373D01*
X180163283Y-109838206D01*
X180069505Y-109817330D01*
X179996829Y-109795907D01*
X179939317Y-109772099D01*
X179891035Y-109744068D01*
X179846047Y-109709975D01*
X179798417Y-109667982D01*
X179782389Y-109653259D01*
X179726194Y-109598314D01*
X179696448Y-109554781D01*
X179684811Y-109504965D01*
X179682929Y-109442189D01*
X179703649Y-109319085D01*
X179765571Y-109214491D01*
X179868341Y-109128745D01*
X180011602Y-109062184D01*
X180113822Y-109032329D01*
X180224917Y-109013047D01*
X180358001Y-109002139D01*
X180504948Y-108998987D01*
X180657634Y-109002973D01*
G36*
X182200250Y-109045750D02*
X182213471Y-109060964D01*
X182223841Y-109080591D01*
X182231707Y-109109888D01*
X182237413Y-109154113D01*
X182241303Y-109218524D01*
X182243722Y-109308378D01*
X182245016Y-109428934D01*
X182245528Y-109585448D01*
X182245607Y-109737446D01*
X182245467Y-109925978D01*
X182244818Y-110074410D01*
X182243314Y-110188001D01*
X182240611Y-110272009D01*
X182236364Y-110331690D01*
X182230228Y-110372302D01*
X182221859Y-110399104D01*
X182210911Y-110417353D01*
X182200250Y-110429143D01*
X182133949Y-110468680D01*
X182063304Y-110465131D01*
X182000096Y-110422011D01*
X181985573Y-110405177D01*
X181974223Y-110385644D01*
X181965655Y-110358015D01*
X181959478Y-110316889D01*
X181955302Y-110256868D01*
X181952735Y-110172551D01*
X181951388Y-110058540D01*
X181950868Y-109909434D01*
X181950786Y-109740623D01*
X181950786Y-109111724D01*
X182006452Y-109056058D01*
X182075066Y-109009225D01*
X182141623Y-109007538D01*
X182200250Y-109045750D01*
X182200250Y-109045750D01*
G37*
X182200250Y-109045750D02*
X182213471Y-109060964D01*
X182223841Y-109080591D01*
X182231707Y-109109888D01*
X182237413Y-109154113D01*
X182241303Y-109218524D01*
X182243722Y-109308378D01*
X182245016Y-109428934D01*
X182245528Y-109585448D01*
X182245607Y-109737446D01*
X182245467Y-109925978D01*
X182244818Y-110074410D01*
X182243314Y-110188001D01*
X182240611Y-110272009D01*
X182236364Y-110331690D01*
X182230228Y-110372302D01*
X182221859Y-110399104D01*
X182210911Y-110417353D01*
X182200250Y-110429143D01*
X182133949Y-110468680D01*
X182063304Y-110465131D01*
X182000096Y-110422011D01*
X181985573Y-110405177D01*
X181974223Y-110385644D01*
X181965655Y-110358015D01*
X181959478Y-110316889D01*
X181955302Y-110256868D01*
X181952735Y-110172551D01*
X181951388Y-110058540D01*
X181950868Y-109909434D01*
X181950786Y-109740623D01*
X181950786Y-109111724D01*
X182006452Y-109056058D01*
X182075066Y-109009225D01*
X182141623Y-109007538D01*
X182200250Y-109045750D01*
G36*
X184156427Y-109011506D02*
X184294072Y-109034602D01*
X184399786Y-109070505D01*
X184468560Y-109117778D01*
X184487301Y-109144748D01*
X184506359Y-109207475D01*
X184493534Y-109264222D01*
X184453047Y-109318035D01*
X184390138Y-109343210D01*
X184298857Y-109341165D01*
X184228256Y-109327526D01*
X184071374Y-109301540D01*
X183911046Y-109299070D01*
X183731591Y-109320163D01*
X183682022Y-109329100D01*
X183515157Y-109376146D01*
X183384614Y-109446129D01*
X183291824Y-109537856D01*
X183238219Y-109650134D01*
X183227132Y-109708182D01*
X183234389Y-109825953D01*
X183281241Y-109930150D01*
X183363418Y-110018742D01*
X183476651Y-110089698D01*
X183616671Y-110140987D01*
X183779209Y-110170579D01*
X183959995Y-110176443D01*
X184154762Y-110156548D01*
X184165759Y-110154672D01*
X184243226Y-110140243D01*
X184286178Y-110126306D01*
X184304795Y-110105626D01*
X184309256Y-110070970D01*
X184309357Y-110052618D01*
X184309357Y-109975571D01*
X184171795Y-109975571D01*
X184050318Y-109967250D01*
X183967419Y-109940732D01*
X183919186Y-109893689D01*
X183901704Y-109823790D01*
X183901490Y-109814667D01*
X183911719Y-109754922D01*
X183946792Y-109712261D01*
X184012070Y-109684029D01*
X184112910Y-109667571D01*
X184210585Y-109661520D01*
X184352549Y-109658048D01*
X184455523Y-109663346D01*
X184525753Y-109682893D01*
X184569486Y-109722173D01*
X184592970Y-109786666D01*
X184602451Y-109881854D01*
X184604179Y-110006875D01*
X184601348Y-110146423D01*
X184592833Y-110241347D01*
X184578594Y-110292024D01*
X184575831Y-110295993D01*
X184497650Y-110359316D01*
X184383025Y-110409462D01*
X184239220Y-110445362D01*
X184073504Y-110465944D01*
X183893142Y-110470137D01*
X183705402Y-110456869D01*
X183594982Y-110440572D01*
X183421792Y-110391551D01*
X183260826Y-110311410D01*
X183126056Y-110207398D01*
X183105572Y-110186609D01*
X183039019Y-110099213D01*
X182978969Y-109990898D01*
X182932436Y-109877340D01*
X182906437Y-109774217D01*
X182903304Y-109734611D01*
X182916644Y-109651994D01*
X182952100Y-109549203D01*
X183002869Y-109441006D01*
X183062148Y-109342169D01*
X183114521Y-109276152D01*
X183236974Y-109177952D01*
X183395268Y-109099792D01*
X183583731Y-109043439D01*
X183796690Y-109010663D01*
X183991857Y-109002654D01*
X184156427Y-109011506D01*
X184156427Y-109011506D01*
G37*
X184156427Y-109011506D02*
X184294072Y-109034602D01*
X184399786Y-109070505D01*
X184468560Y-109117778D01*
X184487301Y-109144748D01*
X184506359Y-109207475D01*
X184493534Y-109264222D01*
X184453047Y-109318035D01*
X184390138Y-109343210D01*
X184298857Y-109341165D01*
X184228256Y-109327526D01*
X184071374Y-109301540D01*
X183911046Y-109299070D01*
X183731591Y-109320163D01*
X183682022Y-109329100D01*
X183515157Y-109376146D01*
X183384614Y-109446129D01*
X183291824Y-109537856D01*
X183238219Y-109650134D01*
X183227132Y-109708182D01*
X183234389Y-109825953D01*
X183281241Y-109930150D01*
X183363418Y-110018742D01*
X183476651Y-110089698D01*
X183616671Y-110140987D01*
X183779209Y-110170579D01*
X183959995Y-110176443D01*
X184154762Y-110156548D01*
X184165759Y-110154672D01*
X184243226Y-110140243D01*
X184286178Y-110126306D01*
X184304795Y-110105626D01*
X184309256Y-110070970D01*
X184309357Y-110052618D01*
X184309357Y-109975571D01*
X184171795Y-109975571D01*
X184050318Y-109967250D01*
X183967419Y-109940732D01*
X183919186Y-109893689D01*
X183901704Y-109823790D01*
X183901490Y-109814667D01*
X183911719Y-109754922D01*
X183946792Y-109712261D01*
X184012070Y-109684029D01*
X184112910Y-109667571D01*
X184210585Y-109661520D01*
X184352549Y-109658048D01*
X184455523Y-109663346D01*
X184525753Y-109682893D01*
X184569486Y-109722173D01*
X184592970Y-109786666D01*
X184602451Y-109881854D01*
X184604179Y-110006875D01*
X184601348Y-110146423D01*
X184592833Y-110241347D01*
X184578594Y-110292024D01*
X184575831Y-110295993D01*
X184497650Y-110359316D01*
X184383025Y-110409462D01*
X184239220Y-110445362D01*
X184073504Y-110465944D01*
X183893142Y-110470137D01*
X183705402Y-110456869D01*
X183594982Y-110440572D01*
X183421792Y-110391551D01*
X183260826Y-110311410D01*
X183126056Y-110207398D01*
X183105572Y-110186609D01*
X183039019Y-110099213D01*
X182978969Y-109990898D01*
X182932436Y-109877340D01*
X182906437Y-109774217D01*
X182903304Y-109734611D01*
X182916644Y-109651994D01*
X182952100Y-109549203D01*
X183002869Y-109441006D01*
X183062148Y-109342169D01*
X183114521Y-109276152D01*
X183236974Y-109177952D01*
X183395268Y-109099792D01*
X183583731Y-109043439D01*
X183796690Y-109010663D01*
X183991857Y-109002654D01*
X184156427Y-109011506D01*
G36*
X185462165Y-109009195D02*
X185509507Y-109036967D01*
X185571408Y-109082385D01*
X185651077Y-109147589D01*
X185751720Y-109234717D01*
X185876548Y-109345910D01*
X186028768Y-109483307D01*
X186203018Y-109641276D01*
X186565875Y-109970327D01*
X186577215Y-109528665D01*
X186581309Y-109376634D01*
X186585258Y-109263417D01*
X186589938Y-109182480D01*
X186596221Y-109127293D01*
X186604982Y-109091322D01*
X186617094Y-109068035D01*
X186633431Y-109050899D01*
X186642093Y-109043698D01*
X186711463Y-109005623D01*
X186777473Y-109011190D01*
X186829836Y-109043717D01*
X186883375Y-109087042D01*
X186890034Y-109719759D01*
X186891877Y-109905841D01*
X186892815Y-110052021D01*
X186892523Y-110163751D01*
X186890677Y-110246482D01*
X186886950Y-110305666D01*
X186881020Y-110346753D01*
X186872560Y-110375196D01*
X186861247Y-110396445D01*
X186848700Y-110413488D01*
X186821556Y-110445095D01*
X186794547Y-110466046D01*
X186763930Y-110474088D01*
X186725957Y-110466965D01*
X186676882Y-110442426D01*
X186612960Y-110398214D01*
X186530445Y-110332076D01*
X186425590Y-110241759D01*
X186294649Y-110125008D01*
X186146322Y-109990859D01*
X185613375Y-109507429D01*
X185602036Y-109947647D01*
X185597935Y-110099401D01*
X185593975Y-110212354D01*
X185589279Y-110293052D01*
X185582967Y-110348041D01*
X185574163Y-110383865D01*
X185561988Y-110407070D01*
X185545563Y-110424201D01*
X185537157Y-110431183D01*
X185462866Y-110469534D01*
X185392668Y-110463749D01*
X185331539Y-110414745D01*
X185317555Y-110395030D01*
X185306656Y-110372006D01*
X185298459Y-110340149D01*
X185292580Y-110293935D01*
X185288636Y-110227840D01*
X185286244Y-110136339D01*
X185285021Y-110013911D01*
X185284582Y-109855029D01*
X185284536Y-109737446D01*
X185284683Y-109553533D01*
X185285381Y-109409452D01*
X185287013Y-109299680D01*
X185289961Y-109218693D01*
X185294611Y-109160968D01*
X185301343Y-109120981D01*
X185310543Y-109093207D01*
X185322594Y-109072123D01*
X185331539Y-109060148D01*
X185354214Y-109031780D01*
X185375405Y-109010362D01*
X185398322Y-108998032D01*
X185426172Y-108996930D01*
X185462165Y-109009195D01*
X185462165Y-109009195D01*
G37*
X185462165Y-109009195D02*
X185509507Y-109036967D01*
X185571408Y-109082385D01*
X185651077Y-109147589D01*
X185751720Y-109234717D01*
X185876548Y-109345910D01*
X186028768Y-109483307D01*
X186203018Y-109641276D01*
X186565875Y-109970327D01*
X186577215Y-109528665D01*
X186581309Y-109376634D01*
X186585258Y-109263417D01*
X186589938Y-109182480D01*
X186596221Y-109127293D01*
X186604982Y-109091322D01*
X186617094Y-109068035D01*
X186633431Y-109050899D01*
X186642093Y-109043698D01*
X186711463Y-109005623D01*
X186777473Y-109011190D01*
X186829836Y-109043717D01*
X186883375Y-109087042D01*
X186890034Y-109719759D01*
X186891877Y-109905841D01*
X186892815Y-110052021D01*
X186892523Y-110163751D01*
X186890677Y-110246482D01*
X186886950Y-110305666D01*
X186881020Y-110346753D01*
X186872560Y-110375196D01*
X186861247Y-110396445D01*
X186848700Y-110413488D01*
X186821556Y-110445095D01*
X186794547Y-110466046D01*
X186763930Y-110474088D01*
X186725957Y-110466965D01*
X186676882Y-110442426D01*
X186612960Y-110398214D01*
X186530445Y-110332076D01*
X186425590Y-110241759D01*
X186294649Y-110125008D01*
X186146322Y-109990859D01*
X185613375Y-109507429D01*
X185602036Y-109947647D01*
X185597935Y-110099401D01*
X185593975Y-110212354D01*
X185589279Y-110293052D01*
X185582967Y-110348041D01*
X185574163Y-110383865D01*
X185561988Y-110407070D01*
X185545563Y-110424201D01*
X185537157Y-110431183D01*
X185462866Y-110469534D01*
X185392668Y-110463749D01*
X185331539Y-110414745D01*
X185317555Y-110395030D01*
X185306656Y-110372006D01*
X185298459Y-110340149D01*
X185292580Y-110293935D01*
X185288636Y-110227840D01*
X185286244Y-110136339D01*
X185285021Y-110013911D01*
X185284582Y-109855029D01*
X185284536Y-109737446D01*
X185284683Y-109553533D01*
X185285381Y-109409452D01*
X185287013Y-109299680D01*
X185289961Y-109218693D01*
X185294611Y-109160968D01*
X185301343Y-109120981D01*
X185310543Y-109093207D01*
X185322594Y-109072123D01*
X185331539Y-109060148D01*
X185354214Y-109031780D01*
X185375405Y-109010362D01*
X185398322Y-108998032D01*
X185426172Y-108996930D01*
X185462165Y-109009195D01*
G36*
X188536743Y-109000780D02*
X188690142Y-109002617D01*
X188807695Y-109006911D01*
X188894156Y-109014672D01*
X188954280Y-109026910D01*
X188992820Y-109044635D01*
X189014532Y-109068856D01*
X189024170Y-109100582D01*
X189026488Y-109140823D01*
X189026500Y-109145575D01*
X189024488Y-109191091D01*
X189014975Y-109226269D01*
X188992751Y-109252528D01*
X188952602Y-109271289D01*
X188889316Y-109283973D01*
X188797682Y-109291999D01*
X188672487Y-109296789D01*
X188508519Y-109299761D01*
X188458263Y-109300420D01*
X187971947Y-109306554D01*
X187965145Y-109436955D01*
X187958344Y-109567357D01*
X188296139Y-109567357D01*
X188428107Y-109567844D01*
X188522337Y-109569903D01*
X188586445Y-109574432D01*
X188628044Y-109582330D01*
X188654750Y-109594495D01*
X188674178Y-109611825D01*
X188674302Y-109611963D01*
X188709537Y-109679501D01*
X188708263Y-109752498D01*
X188671284Y-109814725D01*
X188663965Y-109821121D01*
X188637990Y-109837605D01*
X188602397Y-109849073D01*
X188549253Y-109856388D01*
X188470628Y-109860415D01*
X188358590Y-109862017D01*
X188286934Y-109862179D01*
X187960607Y-109862179D01*
X187960607Y-110179679D01*
X188456021Y-110179679D01*
X188619586Y-110179965D01*
X188743797Y-110181134D01*
X188834655Y-110183654D01*
X188898160Y-110187992D01*
X188940313Y-110194614D01*
X188967116Y-110203987D01*
X188984569Y-110216579D01*
X188988967Y-110221152D01*
X189021440Y-110284526D01*
X189023816Y-110356624D01*
X188997175Y-110419135D01*
X188976097Y-110439196D01*
X188954170Y-110450240D01*
X188920195Y-110458785D01*
X188868798Y-110465129D01*
X188794605Y-110469572D01*
X188692241Y-110472413D01*
X188556333Y-110473952D01*
X188381505Y-110474487D01*
X188341980Y-110474500D01*
X188164224Y-110474384D01*
X188026242Y-110473742D01*
X187922456Y-110472134D01*
X187847283Y-110469121D01*
X187795141Y-110464263D01*
X187760451Y-110457121D01*
X187737630Y-110447254D01*
X187721097Y-110434223D01*
X187712027Y-110424866D01*
X187698374Y-110408294D01*
X187687708Y-110387764D01*
X187679660Y-110357893D01*
X187673864Y-110313298D01*
X187669953Y-110248594D01*
X187667557Y-110158397D01*
X187666310Y-110037324D01*
X187665844Y-109879990D01*
X187665786Y-109747568D01*
X187665929Y-109562012D01*
X187666606Y-109416342D01*
X187668192Y-109305088D01*
X187671061Y-109222778D01*
X187675587Y-109163943D01*
X187682144Y-109123111D01*
X187691106Y-109094812D01*
X187702847Y-109073575D01*
X187712789Y-109060148D01*
X187759792Y-109000393D01*
X188342743Y-109000393D01*
X188536743Y-109000780D01*
X188536743Y-109000780D01*
G37*
X188536743Y-109000780D02*
X188690142Y-109002617D01*
X188807695Y-109006911D01*
X188894156Y-109014672D01*
X188954280Y-109026910D01*
X188992820Y-109044635D01*
X189014532Y-109068856D01*
X189024170Y-109100582D01*
X189026488Y-109140823D01*
X189026500Y-109145575D01*
X189024488Y-109191091D01*
X189014975Y-109226269D01*
X188992751Y-109252528D01*
X188952602Y-109271289D01*
X188889316Y-109283973D01*
X188797682Y-109291999D01*
X188672487Y-109296789D01*
X188508519Y-109299761D01*
X188458263Y-109300420D01*
X187971947Y-109306554D01*
X187965145Y-109436955D01*
X187958344Y-109567357D01*
X188296139Y-109567357D01*
X188428107Y-109567844D01*
X188522337Y-109569903D01*
X188586445Y-109574432D01*
X188628044Y-109582330D01*
X188654750Y-109594495D01*
X188674178Y-109611825D01*
X188674302Y-109611963D01*
X188709537Y-109679501D01*
X188708263Y-109752498D01*
X188671284Y-109814725D01*
X188663965Y-109821121D01*
X188637990Y-109837605D01*
X188602397Y-109849073D01*
X188549253Y-109856388D01*
X188470628Y-109860415D01*
X188358590Y-109862017D01*
X188286934Y-109862179D01*
X187960607Y-109862179D01*
X187960607Y-110179679D01*
X188456021Y-110179679D01*
X188619586Y-110179965D01*
X188743797Y-110181134D01*
X188834655Y-110183654D01*
X188898160Y-110187992D01*
X188940313Y-110194614D01*
X188967116Y-110203987D01*
X188984569Y-110216579D01*
X188988967Y-110221152D01*
X189021440Y-110284526D01*
X189023816Y-110356624D01*
X188997175Y-110419135D01*
X188976097Y-110439196D01*
X188954170Y-110450240D01*
X188920195Y-110458785D01*
X188868798Y-110465129D01*
X188794605Y-110469572D01*
X188692241Y-110472413D01*
X188556333Y-110473952D01*
X188381505Y-110474487D01*
X188341980Y-110474500D01*
X188164224Y-110474384D01*
X188026242Y-110473742D01*
X187922456Y-110472134D01*
X187847283Y-110469121D01*
X187795141Y-110464263D01*
X187760451Y-110457121D01*
X187737630Y-110447254D01*
X187721097Y-110434223D01*
X187712027Y-110424866D01*
X187698374Y-110408294D01*
X187687708Y-110387764D01*
X187679660Y-110357893D01*
X187673864Y-110313298D01*
X187669953Y-110248594D01*
X187667557Y-110158397D01*
X187666310Y-110037324D01*
X187665844Y-109879990D01*
X187665786Y-109747568D01*
X187665929Y-109562012D01*
X187666606Y-109416342D01*
X187668192Y-109305088D01*
X187671061Y-109222778D01*
X187675587Y-109163943D01*
X187682144Y-109123111D01*
X187691106Y-109094812D01*
X187702847Y-109073575D01*
X187712789Y-109060148D01*
X187759792Y-109000393D01*
X188342743Y-109000393D01*
X188536743Y-109000780D01*
G36*
X190119710Y-109000811D02*
X190378821Y-109009572D01*
X190599206Y-109036140D01*
X190784499Y-109082105D01*
X190938335Y-109149060D01*
X191064346Y-109238593D01*
X191166167Y-109352296D01*
X191247431Y-109491759D01*
X191249030Y-109495160D01*
X191297529Y-109619979D01*
X191314809Y-109730523D01*
X191300805Y-109841774D01*
X191255448Y-109968710D01*
X191246846Y-109988026D01*
X191188186Y-110101083D01*
X191122260Y-110188442D01*
X191037174Y-110262704D01*
X190921034Y-110336468D01*
X190914287Y-110340319D01*
X190813184Y-110388885D01*
X190698909Y-110425156D01*
X190564121Y-110450383D01*
X190401475Y-110465816D01*
X190203629Y-110472708D01*
X190133727Y-110473307D01*
X189800864Y-110474500D01*
X189753861Y-110414745D01*
X189739918Y-110395096D01*
X189729041Y-110372150D01*
X189720851Y-110340406D01*
X189714967Y-110294359D01*
X189711011Y-110228510D01*
X189709721Y-110179679D01*
X190024357Y-110179679D01*
X190212960Y-110179679D01*
X190323325Y-110176451D01*
X190436621Y-110167958D01*
X190529605Y-110155980D01*
X190535218Y-110154971D01*
X190700370Y-110110665D01*
X190828470Y-110044099D01*
X190923570Y-109952184D01*
X190989723Y-109831832D01*
X191001227Y-109799935D01*
X191012502Y-109750257D01*
X191007620Y-109701177D01*
X190983867Y-109635884D01*
X190969549Y-109603809D01*
X190922662Y-109518574D01*
X190866171Y-109458776D01*
X190804015Y-109417134D01*
X190679512Y-109362945D01*
X190520174Y-109323692D01*
X190334553Y-109301089D01*
X190200116Y-109296114D01*
X190024357Y-109295214D01*
X190024357Y-110179679D01*
X189709721Y-110179679D01*
X189708602Y-110137355D01*
X189707361Y-110015392D01*
X189706908Y-109857118D01*
X189706857Y-109733357D01*
X189706857Y-109111724D01*
X189762523Y-109056058D01*
X189787228Y-109033495D01*
X189813941Y-109018043D01*
X189851244Y-109008375D01*
X189907723Y-109003164D01*
X189991958Y-109001082D01*
X190112535Y-109000801D01*
X190119710Y-109000811D01*
X190119710Y-109000811D01*
G37*
X190119710Y-109000811D02*
X190378821Y-109009572D01*
X190599206Y-109036140D01*
X190784499Y-109082105D01*
X190938335Y-109149060D01*
X191064346Y-109238593D01*
X191166167Y-109352296D01*
X191247431Y-109491759D01*
X191249030Y-109495160D01*
X191297529Y-109619979D01*
X191314809Y-109730523D01*
X191300805Y-109841774D01*
X191255448Y-109968710D01*
X191246846Y-109988026D01*
X191188186Y-110101083D01*
X191122260Y-110188442D01*
X191037174Y-110262704D01*
X190921034Y-110336468D01*
X190914287Y-110340319D01*
X190813184Y-110388885D01*
X190698909Y-110425156D01*
X190564121Y-110450383D01*
X190401475Y-110465816D01*
X190203629Y-110472708D01*
X190133727Y-110473307D01*
X189800864Y-110474500D01*
X189753861Y-110414745D01*
X189739918Y-110395096D01*
X189729041Y-110372150D01*
X189720851Y-110340406D01*
X189714967Y-110294359D01*
X189711011Y-110228510D01*
X189709721Y-110179679D01*
X190024357Y-110179679D01*
X190212960Y-110179679D01*
X190323325Y-110176451D01*
X190436621Y-110167958D01*
X190529605Y-110155980D01*
X190535218Y-110154971D01*
X190700370Y-110110665D01*
X190828470Y-110044099D01*
X190923570Y-109952184D01*
X190989723Y-109831832D01*
X191001227Y-109799935D01*
X191012502Y-109750257D01*
X191007620Y-109701177D01*
X190983867Y-109635884D01*
X190969549Y-109603809D01*
X190922662Y-109518574D01*
X190866171Y-109458776D01*
X190804015Y-109417134D01*
X190679512Y-109362945D01*
X190520174Y-109323692D01*
X190334553Y-109301089D01*
X190200116Y-109296114D01*
X190024357Y-109295214D01*
X190024357Y-110179679D01*
X189709721Y-110179679D01*
X189708602Y-110137355D01*
X189707361Y-110015392D01*
X189706908Y-109857118D01*
X189706857Y-109733357D01*
X189706857Y-109111724D01*
X189762523Y-109056058D01*
X189787228Y-109033495D01*
X189813941Y-109018043D01*
X189851244Y-109008375D01*
X189907723Y-109003164D01*
X189991958Y-109001082D01*
X190112535Y-109000801D01*
X190119710Y-109000811D01*
G36*
X195596765Y-109004345D02*
X195636119Y-109018409D01*
X195637638Y-109019097D01*
X195691080Y-109059881D01*
X195720525Y-109101832D01*
X195726287Y-109121501D01*
X195726002Y-109147637D01*
X195717895Y-109184868D01*
X195700188Y-109237828D01*
X195671104Y-109311145D01*
X195628867Y-109409451D01*
X195571700Y-109537376D01*
X195497826Y-109699552D01*
X195457164Y-109788193D01*
X195383739Y-109946435D01*
X195314811Y-110091957D01*
X195253012Y-110219437D01*
X195200971Y-110323556D01*
X195161321Y-110398993D01*
X195136691Y-110440428D01*
X195131817Y-110446152D01*
X195069458Y-110471402D01*
X194999020Y-110468020D01*
X194942528Y-110437310D01*
X194940226Y-110434812D01*
X194917754Y-110400792D01*
X194880058Y-110334528D01*
X194831786Y-110244549D01*
X194777588Y-110139386D01*
X194758110Y-110100633D01*
X194611082Y-109806140D01*
X194450823Y-110126049D01*
X194393621Y-110236583D01*
X194340551Y-110332444D01*
X194295949Y-110406293D01*
X194264150Y-110450793D01*
X194253373Y-110460229D01*
X194169606Y-110473009D01*
X194100484Y-110446152D01*
X194080151Y-110417449D01*
X194044966Y-110353658D01*
X193997799Y-110261056D01*
X193941520Y-110145920D01*
X193878999Y-110014526D01*
X193813107Y-109873152D01*
X193746714Y-109728074D01*
X193682690Y-109585570D01*
X193623906Y-109451917D01*
X193573232Y-109333391D01*
X193533538Y-109236269D01*
X193507695Y-109166829D01*
X193498572Y-109131347D01*
X193498665Y-109130062D01*
X193520861Y-109085414D01*
X193565226Y-109039940D01*
X193567839Y-109037962D01*
X193622366Y-109007140D01*
X193672801Y-109007438D01*
X193691704Y-109013249D01*
X193714739Y-109025807D01*
X193739200Y-109050511D01*
X193768022Y-109092484D01*
X193804140Y-109156852D01*
X193850488Y-109248740D01*
X193909999Y-109373271D01*
X193963667Y-109488223D01*
X194025412Y-109621472D01*
X194080740Y-109741300D01*
X194126777Y-109841448D01*
X194160650Y-109915655D01*
X194179482Y-109957661D01*
X194182229Y-109964232D01*
X194194582Y-109953490D01*
X194222973Y-109908513D01*
X194263625Y-109835865D01*
X194312759Y-109742111D01*
X194332311Y-109703429D01*
X194398545Y-109572812D01*
X194449624Y-109477688D01*
X194489740Y-109412529D01*
X194523084Y-109371802D01*
X194553849Y-109349978D01*
X194586225Y-109341526D01*
X194607324Y-109340571D01*
X194644542Y-109343869D01*
X194677156Y-109357509D01*
X194709562Y-109387111D01*
X194746156Y-109438293D01*
X194791334Y-109516675D01*
X194849492Y-109627877D01*
X194881580Y-109691135D01*
X194933628Y-109791952D01*
X194979024Y-109875557D01*
X195013760Y-109934897D01*
X195033833Y-109962916D01*
X195036563Y-109964083D01*
X195049526Y-109942031D01*
X195078549Y-109884770D01*
X195120725Y-109798293D01*
X195173148Y-109688593D01*
X195232911Y-109561663D01*
X195262309Y-109498616D01*
X195338788Y-109335907D01*
X195400372Y-109210706D01*
X195450258Y-109118928D01*
X195491643Y-109056487D01*
X195527724Y-109019300D01*
X195561699Y-109003281D01*
X195596765Y-109004345D01*
X195596765Y-109004345D01*
G37*
X195596765Y-109004345D02*
X195636119Y-109018409D01*
X195637638Y-109019097D01*
X195691080Y-109059881D01*
X195720525Y-109101832D01*
X195726287Y-109121501D01*
X195726002Y-109147637D01*
X195717895Y-109184868D01*
X195700188Y-109237828D01*
X195671104Y-109311145D01*
X195628867Y-109409451D01*
X195571700Y-109537376D01*
X195497826Y-109699552D01*
X195457164Y-109788193D01*
X195383739Y-109946435D01*
X195314811Y-110091957D01*
X195253012Y-110219437D01*
X195200971Y-110323556D01*
X195161321Y-110398993D01*
X195136691Y-110440428D01*
X195131817Y-110446152D01*
X195069458Y-110471402D01*
X194999020Y-110468020D01*
X194942528Y-110437310D01*
X194940226Y-110434812D01*
X194917754Y-110400792D01*
X194880058Y-110334528D01*
X194831786Y-110244549D01*
X194777588Y-110139386D01*
X194758110Y-110100633D01*
X194611082Y-109806140D01*
X194450823Y-110126049D01*
X194393621Y-110236583D01*
X194340551Y-110332444D01*
X194295949Y-110406293D01*
X194264150Y-110450793D01*
X194253373Y-110460229D01*
X194169606Y-110473009D01*
X194100484Y-110446152D01*
X194080151Y-110417449D01*
X194044966Y-110353658D01*
X193997799Y-110261056D01*
X193941520Y-110145920D01*
X193878999Y-110014526D01*
X193813107Y-109873152D01*
X193746714Y-109728074D01*
X193682690Y-109585570D01*
X193623906Y-109451917D01*
X193573232Y-109333391D01*
X193533538Y-109236269D01*
X193507695Y-109166829D01*
X193498572Y-109131347D01*
X193498665Y-109130062D01*
X193520861Y-109085414D01*
X193565226Y-109039940D01*
X193567839Y-109037962D01*
X193622366Y-109007140D01*
X193672801Y-109007438D01*
X193691704Y-109013249D01*
X193714739Y-109025807D01*
X193739200Y-109050511D01*
X193768022Y-109092484D01*
X193804140Y-109156852D01*
X193850488Y-109248740D01*
X193909999Y-109373271D01*
X193963667Y-109488223D01*
X194025412Y-109621472D01*
X194080740Y-109741300D01*
X194126777Y-109841448D01*
X194160650Y-109915655D01*
X194179482Y-109957661D01*
X194182229Y-109964232D01*
X194194582Y-109953490D01*
X194222973Y-109908513D01*
X194263625Y-109835865D01*
X194312759Y-109742111D01*
X194332311Y-109703429D01*
X194398545Y-109572812D01*
X194449624Y-109477688D01*
X194489740Y-109412529D01*
X194523084Y-109371802D01*
X194553849Y-109349978D01*
X194586225Y-109341526D01*
X194607324Y-109340571D01*
X194644542Y-109343869D01*
X194677156Y-109357509D01*
X194709562Y-109387111D01*
X194746156Y-109438293D01*
X194791334Y-109516675D01*
X194849492Y-109627877D01*
X194881580Y-109691135D01*
X194933628Y-109791952D01*
X194979024Y-109875557D01*
X195013760Y-109934897D01*
X195033833Y-109962916D01*
X195036563Y-109964083D01*
X195049526Y-109942031D01*
X195078549Y-109884770D01*
X195120725Y-109798293D01*
X195173148Y-109688593D01*
X195232911Y-109561663D01*
X195262309Y-109498616D01*
X195338788Y-109335907D01*
X195400372Y-109210706D01*
X195450258Y-109118928D01*
X195491643Y-109056487D01*
X195527724Y-109019300D01*
X195561699Y-109003281D01*
X195596765Y-109004345D01*
G36*
X196488627Y-109014074D02*
X196536265Y-109043746D01*
X196589804Y-109087100D01*
X196589804Y-109733062D01*
X196589633Y-109922015D01*
X196588903Y-110070881D01*
X196587285Y-110184932D01*
X196584451Y-110269436D01*
X196580072Y-110329663D01*
X196573821Y-110370885D01*
X196565369Y-110398370D01*
X196554388Y-110417390D01*
X196546601Y-110426762D01*
X196483443Y-110467931D01*
X196411523Y-110466252D01*
X196348522Y-110431147D01*
X196294982Y-110387793D01*
X196294982Y-109087100D01*
X196348522Y-109043746D01*
X196400195Y-109012210D01*
X196442393Y-109000393D01*
X196488627Y-109014074D01*
X196488627Y-109014074D01*
G37*
X196488627Y-109014074D02*
X196536265Y-109043746D01*
X196589804Y-109087100D01*
X196589804Y-109733062D01*
X196589633Y-109922015D01*
X196588903Y-110070881D01*
X196587285Y-110184932D01*
X196584451Y-110269436D01*
X196580072Y-110329663D01*
X196573821Y-110370885D01*
X196565369Y-110398370D01*
X196554388Y-110417390D01*
X196546601Y-110426762D01*
X196483443Y-110467931D01*
X196411523Y-110466252D01*
X196348522Y-110431147D01*
X196294982Y-110387793D01*
X196294982Y-109087100D01*
X196348522Y-109043746D01*
X196400195Y-109012210D01*
X196442393Y-109000393D01*
X196488627Y-109014074D01*
G36*
X198044443Y-109000587D02*
X198202561Y-109001347D01*
X198325288Y-109002937D01*
X198417606Y-109005622D01*
X198484499Y-109009667D01*
X198530948Y-109015337D01*
X198561937Y-109022897D01*
X198582448Y-109032612D01*
X198592374Y-109040080D01*
X198643891Y-109105442D01*
X198650123Y-109173305D01*
X198618287Y-109234954D01*
X198597468Y-109259589D01*
X198575065Y-109276387D01*
X198542597Y-109286847D01*
X198491586Y-109292472D01*
X198413550Y-109294760D01*
X198300010Y-109295212D01*
X198277711Y-109295214D01*
X197984536Y-109295214D01*
X197984536Y-109839500D01*
X197984343Y-110011059D01*
X197983466Y-110143066D01*
X197981458Y-110241322D01*
X197977874Y-110311633D01*
X197972267Y-110359800D01*
X197964191Y-110391628D01*
X197953198Y-110412919D01*
X197939179Y-110429143D01*
X197873019Y-110469011D01*
X197803954Y-110465869D01*
X197741320Y-110420382D01*
X197736718Y-110414745D01*
X197721737Y-110393435D01*
X197710323Y-110368502D01*
X197701994Y-110333886D01*
X197696267Y-110283530D01*
X197692659Y-110211375D01*
X197690686Y-110111363D01*
X197689866Y-109977435D01*
X197689715Y-109825102D01*
X197689715Y-109295214D01*
X197409747Y-109295214D01*
X197289602Y-109294401D01*
X197206425Y-109291233D01*
X197151843Y-109284616D01*
X197117486Y-109273456D01*
X197094980Y-109256661D01*
X197092247Y-109253741D01*
X197059386Y-109186967D01*
X197062292Y-109111477D01*
X197100072Y-109045750D01*
X197114682Y-109033001D01*
X197133520Y-109022892D01*
X197161608Y-109015117D01*
X197203970Y-109009372D01*
X197265630Y-109005351D01*
X197351612Y-109002749D01*
X197466938Y-109001259D01*
X197616632Y-109000576D01*
X197805718Y-109000396D01*
X197845952Y-109000393D01*
X198044443Y-109000587D01*
X198044443Y-109000587D01*
G37*
X198044443Y-109000587D02*
X198202561Y-109001347D01*
X198325288Y-109002937D01*
X198417606Y-109005622D01*
X198484499Y-109009667D01*
X198530948Y-109015337D01*
X198561937Y-109022897D01*
X198582448Y-109032612D01*
X198592374Y-109040080D01*
X198643891Y-109105442D01*
X198650123Y-109173305D01*
X198618287Y-109234954D01*
X198597468Y-109259589D01*
X198575065Y-109276387D01*
X198542597Y-109286847D01*
X198491586Y-109292472D01*
X198413550Y-109294760D01*
X198300010Y-109295212D01*
X198277711Y-109295214D01*
X197984536Y-109295214D01*
X197984536Y-109839500D01*
X197984343Y-110011059D01*
X197983466Y-110143066D01*
X197981458Y-110241322D01*
X197977874Y-110311633D01*
X197972267Y-110359800D01*
X197964191Y-110391628D01*
X197953198Y-110412919D01*
X197939179Y-110429143D01*
X197873019Y-110469011D01*
X197803954Y-110465869D01*
X197741320Y-110420382D01*
X197736718Y-110414745D01*
X197721737Y-110393435D01*
X197710323Y-110368502D01*
X197701994Y-110333886D01*
X197696267Y-110283530D01*
X197692659Y-110211375D01*
X197690686Y-110111363D01*
X197689866Y-109977435D01*
X197689715Y-109825102D01*
X197689715Y-109295214D01*
X197409747Y-109295214D01*
X197289602Y-109294401D01*
X197206425Y-109291233D01*
X197151843Y-109284616D01*
X197117486Y-109273456D01*
X197094980Y-109256661D01*
X197092247Y-109253741D01*
X197059386Y-109186967D01*
X197062292Y-109111477D01*
X197100072Y-109045750D01*
X197114682Y-109033001D01*
X197133520Y-109022892D01*
X197161608Y-109015117D01*
X197203970Y-109009372D01*
X197265630Y-109005351D01*
X197351612Y-109002749D01*
X197466938Y-109001259D01*
X197616632Y-109000576D01*
X197805718Y-109000396D01*
X197845952Y-109000393D01*
X198044443Y-109000587D01*
G36*
X200587262Y-109011374D02*
X200650299Y-109056058D01*
X200705965Y-109111724D01*
X200705965Y-109733357D01*
X200705819Y-109917936D01*
X200705130Y-110062660D01*
X200703517Y-110173032D01*
X200700600Y-110254553D01*
X200696002Y-110312726D01*
X200689341Y-110353054D01*
X200680238Y-110381037D01*
X200668314Y-110402180D01*
X200658961Y-110414745D01*
X200597225Y-110464112D01*
X200526337Y-110469470D01*
X200461546Y-110439196D01*
X200440137Y-110421323D01*
X200425826Y-110397582D01*
X200417194Y-110359352D01*
X200412822Y-110298010D01*
X200411290Y-110204937D01*
X200411143Y-110133035D01*
X200411143Y-109862179D01*
X199413286Y-109862179D01*
X199413286Y-110108584D01*
X199412254Y-110221259D01*
X199408126Y-110298695D01*
X199399351Y-110350985D01*
X199384382Y-110388221D01*
X199366283Y-110414745D01*
X199304201Y-110463973D01*
X199233992Y-110469802D01*
X199166779Y-110434812D01*
X199148428Y-110416470D01*
X199135468Y-110392154D01*
X199126919Y-110354278D01*
X199121805Y-110295255D01*
X199119149Y-110207499D01*
X199117971Y-110083423D01*
X199117834Y-110054946D01*
X199116862Y-109821169D01*
X199116361Y-109628505D01*
X199116524Y-109472712D01*
X199117545Y-109349548D01*
X199119617Y-109254770D01*
X199122933Y-109184136D01*
X199127687Y-109133403D01*
X199134071Y-109098329D01*
X199142280Y-109074670D01*
X199152507Y-109058186D01*
X199163822Y-109045750D01*
X199227829Y-109005971D01*
X199294583Y-109011374D01*
X199357620Y-109056058D01*
X199383129Y-109084887D01*
X199399389Y-109116732D01*
X199408461Y-109162085D01*
X199412406Y-109231443D01*
X199413285Y-109335299D01*
X199413286Y-109339541D01*
X199413286Y-109567357D01*
X200411143Y-109567357D01*
X200411143Y-109329232D01*
X200412161Y-109219528D01*
X200416251Y-109145453D01*
X200424965Y-109097304D01*
X200439855Y-109065378D01*
X200456500Y-109045750D01*
X200520507Y-109005971D01*
X200587262Y-109011374D01*
X200587262Y-109011374D01*
G37*
X200587262Y-109011374D02*
X200650299Y-109056058D01*
X200705965Y-109111724D01*
X200705965Y-109733357D01*
X200705819Y-109917936D01*
X200705130Y-110062660D01*
X200703517Y-110173032D01*
X200700600Y-110254553D01*
X200696002Y-110312726D01*
X200689341Y-110353054D01*
X200680238Y-110381037D01*
X200668314Y-110402180D01*
X200658961Y-110414745D01*
X200597225Y-110464112D01*
X200526337Y-110469470D01*
X200461546Y-110439196D01*
X200440137Y-110421323D01*
X200425826Y-110397582D01*
X200417194Y-110359352D01*
X200412822Y-110298010D01*
X200411290Y-110204937D01*
X200411143Y-110133035D01*
X200411143Y-109862179D01*
X199413286Y-109862179D01*
X199413286Y-110108584D01*
X199412254Y-110221259D01*
X199408126Y-110298695D01*
X199399351Y-110350985D01*
X199384382Y-110388221D01*
X199366283Y-110414745D01*
X199304201Y-110463973D01*
X199233992Y-110469802D01*
X199166779Y-110434812D01*
X199148428Y-110416470D01*
X199135468Y-110392154D01*
X199126919Y-110354278D01*
X199121805Y-110295255D01*
X199119149Y-110207499D01*
X199117971Y-110083423D01*
X199117834Y-110054946D01*
X199116862Y-109821169D01*
X199116361Y-109628505D01*
X199116524Y-109472712D01*
X199117545Y-109349548D01*
X199119617Y-109254770D01*
X199122933Y-109184136D01*
X199127687Y-109133403D01*
X199134071Y-109098329D01*
X199142280Y-109074670D01*
X199152507Y-109058186D01*
X199163822Y-109045750D01*
X199227829Y-109005971D01*
X199294583Y-109011374D01*
X199357620Y-109056058D01*
X199383129Y-109084887D01*
X199399389Y-109116732D01*
X199408461Y-109162085D01*
X199412406Y-109231443D01*
X199413285Y-109335299D01*
X199413286Y-109339541D01*
X199413286Y-109567357D01*
X200411143Y-109567357D01*
X200411143Y-109329232D01*
X200412161Y-109219528D01*
X200416251Y-109145453D01*
X200424965Y-109097304D01*
X200439855Y-109065378D01*
X200456500Y-109045750D01*
X200520507Y-109005971D01*
X200587262Y-109011374D01*
G36*
X182154893Y-99397689D02*
X182176720Y-99626585D01*
X182240237Y-99842791D01*
X182342497Y-100041673D01*
X182480554Y-100218597D01*
X182651462Y-100368929D01*
X182846302Y-100485181D01*
X183059788Y-100564777D01*
X183274771Y-100602080D01*
X183487014Y-100599791D01*
X183692276Y-100560609D01*
X183886320Y-100487234D01*
X184064907Y-100382368D01*
X184223796Y-100248708D01*
X184358750Y-100088957D01*
X184465529Y-99905814D01*
X184539895Y-99701978D01*
X184577608Y-99480151D01*
X184581500Y-99379914D01*
X184581500Y-99203250D01*
X184685822Y-99203250D01*
X184758761Y-99208965D01*
X184812796Y-99232669D01*
X184867250Y-99280357D01*
X184944357Y-99357464D01*
X184944357Y-103760173D01*
X184944339Y-104286789D01*
X184944274Y-104769939D01*
X184944146Y-105211515D01*
X184943938Y-105613409D01*
X184943634Y-105977512D01*
X184943217Y-106305715D01*
X184942672Y-106599911D01*
X184941981Y-106861990D01*
X184941128Y-107093845D01*
X184940098Y-107297366D01*
X184938873Y-107474446D01*
X184937437Y-107626976D01*
X184935774Y-107756847D01*
X184933867Y-107865951D01*
X184931701Y-107956179D01*
X184929258Y-108029424D01*
X184926522Y-108087576D01*
X184923477Y-108132528D01*
X184920107Y-108166170D01*
X184916394Y-108190395D01*
X184912324Y-108207093D01*
X184907878Y-108218157D01*
X184905704Y-108221874D01*
X184897341Y-108235960D01*
X184890240Y-108248911D01*
X184882547Y-108260772D01*
X184872407Y-108271593D01*
X184857966Y-108281420D01*
X184837369Y-108290300D01*
X184808761Y-108298282D01*
X184770289Y-108305412D01*
X184720097Y-108311738D01*
X184656331Y-108317308D01*
X184577136Y-108322168D01*
X184480658Y-108326366D01*
X184365042Y-108329950D01*
X184228435Y-108332968D01*
X184068980Y-108335465D01*
X183884825Y-108337490D01*
X183674114Y-108339091D01*
X183434992Y-108340314D01*
X183165605Y-108341208D01*
X182864100Y-108341819D01*
X182528620Y-108342194D01*
X182157312Y-108342383D01*
X181748321Y-108342431D01*
X181299792Y-108342386D01*
X180809872Y-108342295D01*
X180276705Y-108342207D01*
X180199595Y-108342198D01*
X179663255Y-108342111D01*
X179170425Y-108341969D01*
X178719258Y-108341758D01*
X178307907Y-108341462D01*
X177934524Y-108341067D01*
X177597262Y-108340559D01*
X177294275Y-108339924D01*
X177023714Y-108339146D01*
X176783733Y-108338211D01*
X176572485Y-108337105D01*
X176388122Y-108335813D01*
X176228798Y-108334320D01*
X176092665Y-108332613D01*
X175977875Y-108330676D01*
X175882583Y-108328496D01*
X175804940Y-108326057D01*
X175743100Y-108323345D01*
X175695215Y-108320346D01*
X175659438Y-108317045D01*
X175633922Y-108313427D01*
X175616819Y-108309479D01*
X175608065Y-108306127D01*
X175591065Y-108298954D01*
X175575458Y-108293659D01*
X175561184Y-108288362D01*
X175548184Y-108281188D01*
X175536400Y-108270256D01*
X175525772Y-108253691D01*
X175516241Y-108229614D01*
X175507747Y-108196147D01*
X175500231Y-108151413D01*
X175493634Y-108093533D01*
X175487896Y-108020631D01*
X175482960Y-107930828D01*
X175478764Y-107822246D01*
X175475250Y-107693007D01*
X175472359Y-107541235D01*
X175470032Y-107365050D01*
X175468209Y-107162576D01*
X175466830Y-106931935D01*
X175465838Y-106671248D01*
X175465172Y-106378638D01*
X175464773Y-106052227D01*
X175464583Y-105690138D01*
X175464541Y-105290492D01*
X175464588Y-104851412D01*
X175464666Y-104371020D01*
X175464714Y-103847438D01*
X175464715Y-103762759D01*
X175464687Y-103234618D01*
X175464637Y-102749943D01*
X175464615Y-102306841D01*
X175464674Y-101903421D01*
X175464864Y-101537791D01*
X175465237Y-101208060D01*
X175465846Y-100912334D01*
X175466740Y-100648724D01*
X175467904Y-100427893D01*
X176076284Y-100427893D01*
X176156219Y-100544098D01*
X176178660Y-100575775D01*
X176198891Y-100603823D01*
X176217027Y-100630628D01*
X176233180Y-100658571D01*
X176247466Y-100690036D01*
X176259999Y-100727406D01*
X176270893Y-100773066D01*
X176280261Y-100829399D01*
X176288218Y-100898787D01*
X176294878Y-100983614D01*
X176300356Y-101086264D01*
X176304764Y-101209120D01*
X176308218Y-101354566D01*
X176310832Y-101524984D01*
X176312719Y-101722759D01*
X176313994Y-101950274D01*
X176314770Y-102209911D01*
X176315163Y-102504055D01*
X176315286Y-102835090D01*
X176315253Y-103205397D01*
X176315178Y-103617361D01*
X176315161Y-103863696D01*
X176315209Y-104299532D01*
X176315277Y-104692396D01*
X176315253Y-105044675D01*
X176315023Y-105358756D01*
X176314475Y-105637025D01*
X176313496Y-105881867D01*
X176311972Y-106095669D01*
X176309791Y-106280817D01*
X176306840Y-106439696D01*
X176303006Y-106574694D01*
X176298175Y-106688196D01*
X176292235Y-106782588D01*
X176285074Y-106860257D01*
X176276577Y-106923588D01*
X176266632Y-106974968D01*
X176255127Y-107016783D01*
X176241947Y-107051418D01*
X176226981Y-107081261D01*
X176210115Y-107108696D01*
X176191236Y-107136111D01*
X176170232Y-107165891D01*
X176157996Y-107183752D01*
X176080103Y-107299500D01*
X177147977Y-107299500D01*
X177395575Y-107299430D01*
X177601482Y-107299128D01*
X177769363Y-107298452D01*
X177902884Y-107297261D01*
X178005710Y-107295415D01*
X178081508Y-107292772D01*
X178133943Y-107289193D01*
X178166680Y-107284535D01*
X178183386Y-107278659D01*
X178187725Y-107271423D01*
X178183364Y-107262686D01*
X178180961Y-107259812D01*
X178130437Y-107185339D01*
X178078410Y-107079265D01*
X178030981Y-106954708D01*
X178014369Y-106901646D01*
X178005094Y-106865603D01*
X177997256Y-106823293D01*
X177990690Y-106770526D01*
X177985231Y-106703113D01*
X177980712Y-106616863D01*
X177976970Y-106507588D01*
X177973839Y-106371098D01*
X177971155Y-106203203D01*
X177968751Y-105999714D01*
X177966463Y-105756441D01*
X177965705Y-105666643D01*
X177963663Y-105415223D01*
X177962139Y-105205557D01*
X177961250Y-105034046D01*
X177961114Y-104897088D01*
X177961848Y-104791082D01*
X177963570Y-104712429D01*
X177966396Y-104657527D01*
X177970445Y-104622776D01*
X177975834Y-104604575D01*
X177982679Y-104599323D01*
X177991099Y-104603420D01*
X178000087Y-104612089D01*
X178020889Y-104638075D01*
X178065202Y-104696483D01*
X178129891Y-104783033D01*
X178211821Y-104893443D01*
X178307856Y-105023430D01*
X178414861Y-105168714D01*
X178529701Y-105325013D01*
X178649240Y-105488045D01*
X178770342Y-105653529D01*
X178889873Y-105817183D01*
X179004696Y-105974725D01*
X179111678Y-106121874D01*
X179207682Y-106254349D01*
X179289572Y-106367866D01*
X179354214Y-106458146D01*
X179398472Y-106520907D01*
X179407649Y-106534231D01*
X179453697Y-106608366D01*
X179507553Y-106704774D01*
X179558577Y-106804292D01*
X179565047Y-106817713D01*
X179608596Y-106914534D01*
X179633881Y-106989992D01*
X179645392Y-107061963D01*
X179647638Y-107146420D01*
X179646365Y-107299500D01*
X181965550Y-107299500D01*
X181782409Y-107111201D01*
X181688397Y-107010967D01*
X181587373Y-106897504D01*
X181494873Y-106788480D01*
X181453840Y-106737549D01*
X181392691Y-106658105D01*
X181312225Y-106551207D01*
X181214793Y-106420126D01*
X181102748Y-106268138D01*
X180978443Y-106098516D01*
X180844231Y-105914532D01*
X180702464Y-105719462D01*
X180555495Y-105516577D01*
X180405678Y-105309153D01*
X180255364Y-105100462D01*
X180106906Y-104893779D01*
X179962658Y-104692376D01*
X179824971Y-104499527D01*
X179696199Y-104318506D01*
X179578694Y-104152586D01*
X179474810Y-104005041D01*
X179386898Y-103879145D01*
X179317312Y-103778171D01*
X179268405Y-103705393D01*
X179242528Y-103664084D01*
X179238996Y-103655843D01*
X179254986Y-103633089D01*
X179296761Y-103578486D01*
X179361584Y-103495451D01*
X179446716Y-103387400D01*
X179549419Y-103257749D01*
X179666955Y-103109914D01*
X179796584Y-102947312D01*
X179935568Y-102773360D01*
X180081170Y-102591472D01*
X180230650Y-102405066D01*
X180350642Y-102255687D01*
X182381679Y-102255687D01*
X182393551Y-102281717D01*
X182422338Y-102326414D01*
X182424442Y-102329392D01*
X182462184Y-102389967D01*
X182501653Y-102463959D01*
X182509486Y-102480304D01*
X182516590Y-102497237D01*
X182522868Y-102517565D01*
X182528382Y-102544086D01*
X182533191Y-102579598D01*
X182537356Y-102626901D01*
X182540939Y-102688794D01*
X182543999Y-102768074D01*
X182546596Y-102867541D01*
X182548792Y-102989993D01*
X182550647Y-103138228D01*
X182552221Y-103315046D01*
X182553576Y-103523246D01*
X182554770Y-103765625D01*
X182555866Y-104044983D01*
X182556923Y-104364118D01*
X182557996Y-104723428D01*
X182559077Y-105095317D01*
X182559950Y-105424658D01*
X182560479Y-105714261D01*
X182560529Y-105966935D01*
X182559964Y-106185490D01*
X182558650Y-106372735D01*
X182556450Y-106531480D01*
X182553229Y-106664535D01*
X182548851Y-106774708D01*
X182543182Y-106864809D01*
X182536086Y-106937648D01*
X182527427Y-106996034D01*
X182517070Y-107042777D01*
X182504879Y-107080686D01*
X182490720Y-107112570D01*
X182474456Y-107141240D01*
X182455953Y-107169504D01*
X182438876Y-107194550D01*
X182404451Y-107247373D01*
X182384068Y-107282698D01*
X182381679Y-107289168D01*
X182403590Y-107291332D01*
X182466255Y-107293342D01*
X182565070Y-107295150D01*
X182695431Y-107296708D01*
X182852735Y-107297967D01*
X183032379Y-107298880D01*
X183229759Y-107299398D01*
X183368197Y-107299500D01*
X183579120Y-107299057D01*
X183773669Y-107297788D01*
X183947446Y-107295782D01*
X184096056Y-107293126D01*
X184215102Y-107289910D01*
X184300188Y-107286223D01*
X184346916Y-107282153D01*
X184354715Y-107279598D01*
X184339251Y-107249659D01*
X184323182Y-107233527D01*
X184296721Y-107199121D01*
X184262088Y-107138349D01*
X184238138Y-107089009D01*
X184184625Y-106970661D01*
X184178448Y-104606420D01*
X184172270Y-102242178D01*
X183276974Y-102242179D01*
X183080468Y-102242509D01*
X182898873Y-102243450D01*
X182737021Y-102244930D01*
X182599747Y-102246875D01*
X182491880Y-102249214D01*
X182418255Y-102251872D01*
X182383703Y-102254777D01*
X182381679Y-102255687D01*
X180350642Y-102255687D01*
X180381271Y-102217558D01*
X180530293Y-102032364D01*
X180674979Y-101852901D01*
X180812589Y-101682584D01*
X180940386Y-101524831D01*
X181055631Y-101383057D01*
X181155586Y-101260679D01*
X181237512Y-101161112D01*
X181271994Y-101119589D01*
X181445349Y-100917368D01*
X181599231Y-100750109D01*
X181737472Y-100613863D01*
X181863905Y-100504679D01*
X181882750Y-100489878D01*
X181962125Y-100428396D01*
X180825313Y-100428144D01*
X179688500Y-100427893D01*
X179699126Y-100524277D01*
X179692490Y-100639476D01*
X179649236Y-100776635D01*
X179568929Y-100936846D01*
X179477911Y-101082057D01*
X179445329Y-101127550D01*
X179388972Y-101202997D01*
X179312199Y-101304095D01*
X179218369Y-101426544D01*
X179110842Y-101566040D01*
X178992978Y-101718283D01*
X178868135Y-101878969D01*
X178739673Y-102043797D01*
X178610952Y-102208465D01*
X178485331Y-102368671D01*
X178366170Y-102520112D01*
X178256828Y-102658487D01*
X178160664Y-102779494D01*
X178081038Y-102878831D01*
X178021309Y-102952195D01*
X177984838Y-102995285D01*
X177978694Y-103001911D01*
X177972949Y-102985826D01*
X177968502Y-102924968D01*
X177965360Y-102819902D01*
X177963532Y-102671192D01*
X177963023Y-102479404D01*
X177963841Y-102245103D01*
X177965667Y-102004054D01*
X177968324Y-101738651D01*
X177971387Y-101514176D01*
X177975356Y-101326201D01*
X177980731Y-101170298D01*
X177988011Y-101042036D01*
X177997696Y-100936989D01*
X178010286Y-100850727D01*
X178026280Y-100778821D01*
X178046178Y-100716843D01*
X178070480Y-100660364D01*
X178099684Y-100604956D01*
X178129180Y-100554655D01*
X178205513Y-100427893D01*
X176076284Y-100427893D01*
X175467904Y-100427893D01*
X175467971Y-100415337D01*
X175469591Y-100210281D01*
X175471651Y-100031665D01*
X175474202Y-99877596D01*
X175477296Y-99746184D01*
X175480984Y-99635535D01*
X175485317Y-99543760D01*
X175490347Y-99468965D01*
X175496125Y-99409259D01*
X175502702Y-99362750D01*
X175510131Y-99327547D01*
X175518461Y-99301757D01*
X175527745Y-99283490D01*
X175538034Y-99270852D01*
X175549379Y-99261954D01*
X175561832Y-99254902D01*
X175575444Y-99247804D01*
X175587490Y-99240636D01*
X175598002Y-99235461D01*
X175614427Y-99230783D01*
X175638962Y-99226577D01*
X175673807Y-99222818D01*
X175721161Y-99219483D01*
X175783222Y-99216544D01*
X175862189Y-99213979D01*
X175960262Y-99211762D01*
X176079639Y-99209868D01*
X176222519Y-99208273D01*
X176391102Y-99206951D01*
X176587585Y-99205878D01*
X176814168Y-99205029D01*
X177073050Y-99204380D01*
X177366430Y-99203904D01*
X177696507Y-99203578D01*
X178065479Y-99203377D01*
X178475546Y-99203276D01*
X178899720Y-99203250D01*
X182154893Y-99203250D01*
X182154893Y-99397689D01*
X182154893Y-99397689D01*
G37*
X182154893Y-99397689D02*
X182176720Y-99626585D01*
X182240237Y-99842791D01*
X182342497Y-100041673D01*
X182480554Y-100218597D01*
X182651462Y-100368929D01*
X182846302Y-100485181D01*
X183059788Y-100564777D01*
X183274771Y-100602080D01*
X183487014Y-100599791D01*
X183692276Y-100560609D01*
X183886320Y-100487234D01*
X184064907Y-100382368D01*
X184223796Y-100248708D01*
X184358750Y-100088957D01*
X184465529Y-99905814D01*
X184539895Y-99701978D01*
X184577608Y-99480151D01*
X184581500Y-99379914D01*
X184581500Y-99203250D01*
X184685822Y-99203250D01*
X184758761Y-99208965D01*
X184812796Y-99232669D01*
X184867250Y-99280357D01*
X184944357Y-99357464D01*
X184944357Y-103760173D01*
X184944339Y-104286789D01*
X184944274Y-104769939D01*
X184944146Y-105211515D01*
X184943938Y-105613409D01*
X184943634Y-105977512D01*
X184943217Y-106305715D01*
X184942672Y-106599911D01*
X184941981Y-106861990D01*
X184941128Y-107093845D01*
X184940098Y-107297366D01*
X184938873Y-107474446D01*
X184937437Y-107626976D01*
X184935774Y-107756847D01*
X184933867Y-107865951D01*
X184931701Y-107956179D01*
X184929258Y-108029424D01*
X184926522Y-108087576D01*
X184923477Y-108132528D01*
X184920107Y-108166170D01*
X184916394Y-108190395D01*
X184912324Y-108207093D01*
X184907878Y-108218157D01*
X184905704Y-108221874D01*
X184897341Y-108235960D01*
X184890240Y-108248911D01*
X184882547Y-108260772D01*
X184872407Y-108271593D01*
X184857966Y-108281420D01*
X184837369Y-108290300D01*
X184808761Y-108298282D01*
X184770289Y-108305412D01*
X184720097Y-108311738D01*
X184656331Y-108317308D01*
X184577136Y-108322168D01*
X184480658Y-108326366D01*
X184365042Y-108329950D01*
X184228435Y-108332968D01*
X184068980Y-108335465D01*
X183884825Y-108337490D01*
X183674114Y-108339091D01*
X183434992Y-108340314D01*
X183165605Y-108341208D01*
X182864100Y-108341819D01*
X182528620Y-108342194D01*
X182157312Y-108342383D01*
X181748321Y-108342431D01*
X181299792Y-108342386D01*
X180809872Y-108342295D01*
X180276705Y-108342207D01*
X180199595Y-108342198D01*
X179663255Y-108342111D01*
X179170425Y-108341969D01*
X178719258Y-108341758D01*
X178307907Y-108341462D01*
X177934524Y-108341067D01*
X177597262Y-108340559D01*
X177294275Y-108339924D01*
X177023714Y-108339146D01*
X176783733Y-108338211D01*
X176572485Y-108337105D01*
X176388122Y-108335813D01*
X176228798Y-108334320D01*
X176092665Y-108332613D01*
X175977875Y-108330676D01*
X175882583Y-108328496D01*
X175804940Y-108326057D01*
X175743100Y-108323345D01*
X175695215Y-108320346D01*
X175659438Y-108317045D01*
X175633922Y-108313427D01*
X175616819Y-108309479D01*
X175608065Y-108306127D01*
X175591065Y-108298954D01*
X175575458Y-108293659D01*
X175561184Y-108288362D01*
X175548184Y-108281188D01*
X175536400Y-108270256D01*
X175525772Y-108253691D01*
X175516241Y-108229614D01*
X175507747Y-108196147D01*
X175500231Y-108151413D01*
X175493634Y-108093533D01*
X175487896Y-108020631D01*
X175482960Y-107930828D01*
X175478764Y-107822246D01*
X175475250Y-107693007D01*
X175472359Y-107541235D01*
X175470032Y-107365050D01*
X175468209Y-107162576D01*
X175466830Y-106931935D01*
X175465838Y-106671248D01*
X175465172Y-106378638D01*
X175464773Y-106052227D01*
X175464583Y-105690138D01*
X175464541Y-105290492D01*
X175464588Y-104851412D01*
X175464666Y-104371020D01*
X175464714Y-103847438D01*
X175464715Y-103762759D01*
X175464687Y-103234618D01*
X175464637Y-102749943D01*
X175464615Y-102306841D01*
X175464674Y-101903421D01*
X175464864Y-101537791D01*
X175465237Y-101208060D01*
X175465846Y-100912334D01*
X175466740Y-100648724D01*
X175467904Y-100427893D01*
X176076284Y-100427893D01*
X176156219Y-100544098D01*
X176178660Y-100575775D01*
X176198891Y-100603823D01*
X176217027Y-100630628D01*
X176233180Y-100658571D01*
X176247466Y-100690036D01*
X176259999Y-100727406D01*
X176270893Y-100773066D01*
X176280261Y-100829399D01*
X176288218Y-100898787D01*
X176294878Y-100983614D01*
X176300356Y-101086264D01*
X176304764Y-101209120D01*
X176308218Y-101354566D01*
X176310832Y-101524984D01*
X176312719Y-101722759D01*
X176313994Y-101950274D01*
X176314770Y-102209911D01*
X176315163Y-102504055D01*
X176315286Y-102835090D01*
X176315253Y-103205397D01*
X176315178Y-103617361D01*
X176315161Y-103863696D01*
X176315209Y-104299532D01*
X176315277Y-104692396D01*
X176315253Y-105044675D01*
X176315023Y-105358756D01*
X176314475Y-105637025D01*
X176313496Y-105881867D01*
X176311972Y-106095669D01*
X176309791Y-106280817D01*
X176306840Y-106439696D01*
X176303006Y-106574694D01*
X176298175Y-106688196D01*
X176292235Y-106782588D01*
X176285074Y-106860257D01*
X176276577Y-106923588D01*
X176266632Y-106974968D01*
X176255127Y-107016783D01*
X176241947Y-107051418D01*
X176226981Y-107081261D01*
X176210115Y-107108696D01*
X176191236Y-107136111D01*
X176170232Y-107165891D01*
X176157996Y-107183752D01*
X176080103Y-107299500D01*
X177147977Y-107299500D01*
X177395575Y-107299430D01*
X177601482Y-107299128D01*
X177769363Y-107298452D01*
X177902884Y-107297261D01*
X178005710Y-107295415D01*
X178081508Y-107292772D01*
X178133943Y-107289193D01*
X178166680Y-107284535D01*
X178183386Y-107278659D01*
X178187725Y-107271423D01*
X178183364Y-107262686D01*
X178180961Y-107259812D01*
X178130437Y-107185339D01*
X178078410Y-107079265D01*
X178030981Y-106954708D01*
X178014369Y-106901646D01*
X178005094Y-106865603D01*
X177997256Y-106823293D01*
X177990690Y-106770526D01*
X177985231Y-106703113D01*
X177980712Y-106616863D01*
X177976970Y-106507588D01*
X177973839Y-106371098D01*
X177971155Y-106203203D01*
X177968751Y-105999714D01*
X177966463Y-105756441D01*
X177965705Y-105666643D01*
X177963663Y-105415223D01*
X177962139Y-105205557D01*
X177961250Y-105034046D01*
X177961114Y-104897088D01*
X177961848Y-104791082D01*
X177963570Y-104712429D01*
X177966396Y-104657527D01*
X177970445Y-104622776D01*
X177975834Y-104604575D01*
X177982679Y-104599323D01*
X177991099Y-104603420D01*
X178000087Y-104612089D01*
X178020889Y-104638075D01*
X178065202Y-104696483D01*
X178129891Y-104783033D01*
X178211821Y-104893443D01*
X178307856Y-105023430D01*
X178414861Y-105168714D01*
X178529701Y-105325013D01*
X178649240Y-105488045D01*
X178770342Y-105653529D01*
X178889873Y-105817183D01*
X179004696Y-105974725D01*
X179111678Y-106121874D01*
X179207682Y-106254349D01*
X179289572Y-106367866D01*
X179354214Y-106458146D01*
X179398472Y-106520907D01*
X179407649Y-106534231D01*
X179453697Y-106608366D01*
X179507553Y-106704774D01*
X179558577Y-106804292D01*
X179565047Y-106817713D01*
X179608596Y-106914534D01*
X179633881Y-106989992D01*
X179645392Y-107061963D01*
X179647638Y-107146420D01*
X179646365Y-107299500D01*
X181965550Y-107299500D01*
X181782409Y-107111201D01*
X181688397Y-107010967D01*
X181587373Y-106897504D01*
X181494873Y-106788480D01*
X181453840Y-106737549D01*
X181392691Y-106658105D01*
X181312225Y-106551207D01*
X181214793Y-106420126D01*
X181102748Y-106268138D01*
X180978443Y-106098516D01*
X180844231Y-105914532D01*
X180702464Y-105719462D01*
X180555495Y-105516577D01*
X180405678Y-105309153D01*
X180255364Y-105100462D01*
X180106906Y-104893779D01*
X179962658Y-104692376D01*
X179824971Y-104499527D01*
X179696199Y-104318506D01*
X179578694Y-104152586D01*
X179474810Y-104005041D01*
X179386898Y-103879145D01*
X179317312Y-103778171D01*
X179268405Y-103705393D01*
X179242528Y-103664084D01*
X179238996Y-103655843D01*
X179254986Y-103633089D01*
X179296761Y-103578486D01*
X179361584Y-103495451D01*
X179446716Y-103387400D01*
X179549419Y-103257749D01*
X179666955Y-103109914D01*
X179796584Y-102947312D01*
X179935568Y-102773360D01*
X180081170Y-102591472D01*
X180230650Y-102405066D01*
X180350642Y-102255687D01*
X182381679Y-102255687D01*
X182393551Y-102281717D01*
X182422338Y-102326414D01*
X182424442Y-102329392D01*
X182462184Y-102389967D01*
X182501653Y-102463959D01*
X182509486Y-102480304D01*
X182516590Y-102497237D01*
X182522868Y-102517565D01*
X182528382Y-102544086D01*
X182533191Y-102579598D01*
X182537356Y-102626901D01*
X182540939Y-102688794D01*
X182543999Y-102768074D01*
X182546596Y-102867541D01*
X182548792Y-102989993D01*
X182550647Y-103138228D01*
X182552221Y-103315046D01*
X182553576Y-103523246D01*
X182554770Y-103765625D01*
X182555866Y-104044983D01*
X182556923Y-104364118D01*
X182557996Y-104723428D01*
X182559077Y-105095317D01*
X182559950Y-105424658D01*
X182560479Y-105714261D01*
X182560529Y-105966935D01*
X182559964Y-106185490D01*
X182558650Y-106372735D01*
X182556450Y-106531480D01*
X182553229Y-106664535D01*
X182548851Y-106774708D01*
X182543182Y-106864809D01*
X182536086Y-106937648D01*
X182527427Y-106996034D01*
X182517070Y-107042777D01*
X182504879Y-107080686D01*
X182490720Y-107112570D01*
X182474456Y-107141240D01*
X182455953Y-107169504D01*
X182438876Y-107194550D01*
X182404451Y-107247373D01*
X182384068Y-107282698D01*
X182381679Y-107289168D01*
X182403590Y-107291332D01*
X182466255Y-107293342D01*
X182565070Y-107295150D01*
X182695431Y-107296708D01*
X182852735Y-107297967D01*
X183032379Y-107298880D01*
X183229759Y-107299398D01*
X183368197Y-107299500D01*
X183579120Y-107299057D01*
X183773669Y-107297788D01*
X183947446Y-107295782D01*
X184096056Y-107293126D01*
X184215102Y-107289910D01*
X184300188Y-107286223D01*
X184346916Y-107282153D01*
X184354715Y-107279598D01*
X184339251Y-107249659D01*
X184323182Y-107233527D01*
X184296721Y-107199121D01*
X184262088Y-107138349D01*
X184238138Y-107089009D01*
X184184625Y-106970661D01*
X184178448Y-104606420D01*
X184172270Y-102242178D01*
X183276974Y-102242179D01*
X183080468Y-102242509D01*
X182898873Y-102243450D01*
X182737021Y-102244930D01*
X182599747Y-102246875D01*
X182491880Y-102249214D01*
X182418255Y-102251872D01*
X182383703Y-102254777D01*
X182381679Y-102255687D01*
X180350642Y-102255687D01*
X180381271Y-102217558D01*
X180530293Y-102032364D01*
X180674979Y-101852901D01*
X180812589Y-101682584D01*
X180940386Y-101524831D01*
X181055631Y-101383057D01*
X181155586Y-101260679D01*
X181237512Y-101161112D01*
X181271994Y-101119589D01*
X181445349Y-100917368D01*
X181599231Y-100750109D01*
X181737472Y-100613863D01*
X181863905Y-100504679D01*
X181882750Y-100489878D01*
X181962125Y-100428396D01*
X180825313Y-100428144D01*
X179688500Y-100427893D01*
X179699126Y-100524277D01*
X179692490Y-100639476D01*
X179649236Y-100776635D01*
X179568929Y-100936846D01*
X179477911Y-101082057D01*
X179445329Y-101127550D01*
X179388972Y-101202997D01*
X179312199Y-101304095D01*
X179218369Y-101426544D01*
X179110842Y-101566040D01*
X178992978Y-101718283D01*
X178868135Y-101878969D01*
X178739673Y-102043797D01*
X178610952Y-102208465D01*
X178485331Y-102368671D01*
X178366170Y-102520112D01*
X178256828Y-102658487D01*
X178160664Y-102779494D01*
X178081038Y-102878831D01*
X178021309Y-102952195D01*
X177984838Y-102995285D01*
X177978694Y-103001911D01*
X177972949Y-102985826D01*
X177968502Y-102924968D01*
X177965360Y-102819902D01*
X177963532Y-102671192D01*
X177963023Y-102479404D01*
X177963841Y-102245103D01*
X177965667Y-102004054D01*
X177968324Y-101738651D01*
X177971387Y-101514176D01*
X177975356Y-101326201D01*
X177980731Y-101170298D01*
X177988011Y-101042036D01*
X177997696Y-100936989D01*
X178010286Y-100850727D01*
X178026280Y-100778821D01*
X178046178Y-100716843D01*
X178070480Y-100660364D01*
X178099684Y-100604956D01*
X178129180Y-100554655D01*
X178205513Y-100427893D01*
X176076284Y-100427893D01*
X175467904Y-100427893D01*
X175467971Y-100415337D01*
X175469591Y-100210281D01*
X175471651Y-100031665D01*
X175474202Y-99877596D01*
X175477296Y-99746184D01*
X175480984Y-99635535D01*
X175485317Y-99543760D01*
X175490347Y-99468965D01*
X175496125Y-99409259D01*
X175502702Y-99362750D01*
X175510131Y-99327547D01*
X175518461Y-99301757D01*
X175527745Y-99283490D01*
X175538034Y-99270852D01*
X175549379Y-99261954D01*
X175561832Y-99254902D01*
X175575444Y-99247804D01*
X175587490Y-99240636D01*
X175598002Y-99235461D01*
X175614427Y-99230783D01*
X175638962Y-99226577D01*
X175673807Y-99222818D01*
X175721161Y-99219483D01*
X175783222Y-99216544D01*
X175862189Y-99213979D01*
X175960262Y-99211762D01*
X176079639Y-99209868D01*
X176222519Y-99208273D01*
X176391102Y-99206951D01*
X176587585Y-99205878D01*
X176814168Y-99205029D01*
X177073050Y-99204380D01*
X177366430Y-99203904D01*
X177696507Y-99203578D01*
X178065479Y-99203377D01*
X178475546Y-99203276D01*
X178899720Y-99203250D01*
X182154893Y-99203250D01*
X182154893Y-99397689D01*
G36*
X188733791Y-100321830D02*
X189055503Y-100364366D01*
X189384847Y-100445005D01*
X189725969Y-100564544D01*
X190083015Y-100723783D01*
X190105651Y-100734922D01*
X190221556Y-100791223D01*
X190325111Y-100839593D01*
X190408760Y-100876652D01*
X190464951Y-100899025D01*
X190484179Y-100904143D01*
X190522784Y-100914203D01*
X190532048Y-100922652D01*
X190521796Y-100943611D01*
X190489573Y-100996422D01*
X190439088Y-101075551D01*
X190374051Y-101175463D01*
X190298172Y-101290625D01*
X190215161Y-101415501D01*
X190128729Y-101544558D01*
X190042583Y-101672261D01*
X189960436Y-101793076D01*
X189885996Y-101901469D01*
X189822974Y-101991905D01*
X189775079Y-102058851D01*
X189746021Y-102096771D01*
X189742033Y-102101169D01*
X189721706Y-102091831D01*
X189676825Y-102057324D01*
X189615411Y-102004045D01*
X189583783Y-101974963D01*
X189389943Y-101823728D01*
X189175569Y-101712351D01*
X188943529Y-101641836D01*
X188696692Y-101613188D01*
X188557272Y-101615540D01*
X188313913Y-101650015D01*
X188094502Y-101722100D01*
X187898385Y-101832320D01*
X187724905Y-101981203D01*
X187573407Y-102169275D01*
X187443234Y-102397064D01*
X187368065Y-102571018D01*
X187279968Y-102843629D01*
X187215039Y-103139913D01*
X187173110Y-103452229D01*
X187154013Y-103772938D01*
X187157582Y-104094400D01*
X187183649Y-104408975D01*
X187232047Y-104709022D01*
X187302609Y-104986901D01*
X187395167Y-105234973D01*
X187427876Y-105303786D01*
X187564978Y-105532977D01*
X187726616Y-105726824D01*
X187910415Y-105883748D01*
X188114001Y-106002168D01*
X188335001Y-106080506D01*
X188571040Y-106117181D01*
X188654346Y-106119879D01*
X188898548Y-106097940D01*
X189140498Y-106032014D01*
X189377125Y-105923463D01*
X189605362Y-105773648D01*
X189788993Y-105616296D01*
X189882469Y-105526837D01*
X190246623Y-106124017D01*
X190337221Y-106273004D01*
X190420065Y-106410039D01*
X190492218Y-106530199D01*
X190550741Y-106628558D01*
X190592695Y-106700194D01*
X190615142Y-106740182D01*
X190618059Y-106746399D01*
X190601527Y-106765764D01*
X190550141Y-106800479D01*
X190470398Y-106847256D01*
X190368794Y-106902805D01*
X190251828Y-106963839D01*
X190125996Y-107027070D01*
X189997794Y-107089209D01*
X189873720Y-107146968D01*
X189760271Y-107197060D01*
X189663944Y-107236196D01*
X189616830Y-107253130D01*
X189348105Y-107329097D01*
X189071086Y-107379326D01*
X188774357Y-107405450D01*
X188519648Y-107410127D01*
X188383130Y-107407928D01*
X188251342Y-107403714D01*
X188135969Y-107398005D01*
X188048695Y-107391320D01*
X188020359Y-107387938D01*
X187741088Y-107330010D01*
X187456771Y-107239368D01*
X187180579Y-107121408D01*
X186925686Y-106981527D01*
X186769982Y-106875697D01*
X186514030Y-106658328D01*
X186276368Y-106404063D01*
X186061399Y-106119187D01*
X185873525Y-105809982D01*
X185717147Y-105482731D01*
X185629046Y-105247089D01*
X185528102Y-104878195D01*
X185460806Y-104487364D01*
X185427135Y-104083055D01*
X185427069Y-103673722D01*
X185460588Y-103267823D01*
X185527669Y-102873814D01*
X185628292Y-102500152D01*
X185635959Y-102476872D01*
X185762287Y-102151318D01*
X185916467Y-101854163D01*
X186103728Y-101576996D01*
X186329301Y-101311408D01*
X186417423Y-101220479D01*
X186690923Y-100971489D01*
X186972085Y-100765489D01*
X187265227Y-100600237D01*
X187574665Y-100473490D01*
X187904713Y-100383005D01*
X188096679Y-100347869D01*
X188415565Y-100316597D01*
X188733791Y-100321830D01*
X188733791Y-100321830D01*
G37*
X188733791Y-100321830D02*
X189055503Y-100364366D01*
X189384847Y-100445005D01*
X189725969Y-100564544D01*
X190083015Y-100723783D01*
X190105651Y-100734922D01*
X190221556Y-100791223D01*
X190325111Y-100839593D01*
X190408760Y-100876652D01*
X190464951Y-100899025D01*
X190484179Y-100904143D01*
X190522784Y-100914203D01*
X190532048Y-100922652D01*
X190521796Y-100943611D01*
X190489573Y-100996422D01*
X190439088Y-101075551D01*
X190374051Y-101175463D01*
X190298172Y-101290625D01*
X190215161Y-101415501D01*
X190128729Y-101544558D01*
X190042583Y-101672261D01*
X189960436Y-101793076D01*
X189885996Y-101901469D01*
X189822974Y-101991905D01*
X189775079Y-102058851D01*
X189746021Y-102096771D01*
X189742033Y-102101169D01*
X189721706Y-102091831D01*
X189676825Y-102057324D01*
X189615411Y-102004045D01*
X189583783Y-101974963D01*
X189389943Y-101823728D01*
X189175569Y-101712351D01*
X188943529Y-101641836D01*
X188696692Y-101613188D01*
X188557272Y-101615540D01*
X188313913Y-101650015D01*
X188094502Y-101722100D01*
X187898385Y-101832320D01*
X187724905Y-101981203D01*
X187573407Y-102169275D01*
X187443234Y-102397064D01*
X187368065Y-102571018D01*
X187279968Y-102843629D01*
X187215039Y-103139913D01*
X187173110Y-103452229D01*
X187154013Y-103772938D01*
X187157582Y-104094400D01*
X187183649Y-104408975D01*
X187232047Y-104709022D01*
X187302609Y-104986901D01*
X187395167Y-105234973D01*
X187427876Y-105303786D01*
X187564978Y-105532977D01*
X187726616Y-105726824D01*
X187910415Y-105883748D01*
X188114001Y-106002168D01*
X188335001Y-106080506D01*
X188571040Y-106117181D01*
X188654346Y-106119879D01*
X188898548Y-106097940D01*
X189140498Y-106032014D01*
X189377125Y-105923463D01*
X189605362Y-105773648D01*
X189788993Y-105616296D01*
X189882469Y-105526837D01*
X190246623Y-106124017D01*
X190337221Y-106273004D01*
X190420065Y-106410039D01*
X190492218Y-106530199D01*
X190550741Y-106628558D01*
X190592695Y-106700194D01*
X190615142Y-106740182D01*
X190618059Y-106746399D01*
X190601527Y-106765764D01*
X190550141Y-106800479D01*
X190470398Y-106847256D01*
X190368794Y-106902805D01*
X190251828Y-106963839D01*
X190125996Y-107027070D01*
X189997794Y-107089209D01*
X189873720Y-107146968D01*
X189760271Y-107197060D01*
X189663944Y-107236196D01*
X189616830Y-107253130D01*
X189348105Y-107329097D01*
X189071086Y-107379326D01*
X188774357Y-107405450D01*
X188519648Y-107410127D01*
X188383130Y-107407928D01*
X188251342Y-107403714D01*
X188135969Y-107398005D01*
X188048695Y-107391320D01*
X188020359Y-107387938D01*
X187741088Y-107330010D01*
X187456771Y-107239368D01*
X187180579Y-107121408D01*
X186925686Y-106981527D01*
X186769982Y-106875697D01*
X186514030Y-106658328D01*
X186276368Y-106404063D01*
X186061399Y-106119187D01*
X185873525Y-105809982D01*
X185717147Y-105482731D01*
X185629046Y-105247089D01*
X185528102Y-104878195D01*
X185460806Y-104487364D01*
X185427135Y-104083055D01*
X185427069Y-103673722D01*
X185460588Y-103267823D01*
X185527669Y-102873814D01*
X185628292Y-102500152D01*
X185635959Y-102476872D01*
X185762287Y-102151318D01*
X185916467Y-101854163D01*
X186103728Y-101576996D01*
X186329301Y-101311408D01*
X186417423Y-101220479D01*
X186690923Y-100971489D01*
X186972085Y-100765489D01*
X187265227Y-100600237D01*
X187574665Y-100473490D01*
X187904713Y-100383005D01*
X188096679Y-100347869D01*
X188415565Y-100316597D01*
X188733791Y-100321830D01*
G36*
X193445019Y-102164984D02*
X193750212Y-102205192D01*
X194021948Y-102272762D01*
X194261981Y-102368233D01*
X194472066Y-102492143D01*
X194627978Y-102619831D01*
X194766274Y-102768761D01*
X194874236Y-102929017D01*
X194960427Y-103114281D01*
X194991514Y-103200805D01*
X195017347Y-103279115D01*
X195039851Y-103351732D01*
X195059286Y-103422336D01*
X195075912Y-103494610D01*
X195089989Y-103572234D01*
X195101779Y-103658890D01*
X195111540Y-103758259D01*
X195119535Y-103874022D01*
X195126022Y-104009861D01*
X195131264Y-104169457D01*
X195135519Y-104356491D01*
X195139048Y-104574644D01*
X195142112Y-104827598D01*
X195144972Y-105119033D01*
X195147487Y-105405839D01*
X195150152Y-105719615D01*
X195152574Y-105991364D01*
X195155004Y-106224413D01*
X195157695Y-106422090D01*
X195160899Y-106587722D01*
X195164866Y-106724636D01*
X195169851Y-106836160D01*
X195176103Y-106925622D01*
X195183876Y-106996348D01*
X195193420Y-107051666D01*
X195204989Y-107094903D01*
X195218834Y-107129388D01*
X195235207Y-107158446D01*
X195254359Y-107185406D01*
X195276543Y-107213594D01*
X195285183Y-107224509D01*
X195316963Y-107270390D01*
X195331098Y-107301635D01*
X195331143Y-107302558D01*
X195309292Y-107306975D01*
X195247044Y-107311045D01*
X195149361Y-107314652D01*
X195021204Y-107317683D01*
X194867532Y-107320023D01*
X194693307Y-107321558D01*
X194503490Y-107322172D01*
X194481580Y-107322179D01*
X193632016Y-107322179D01*
X193625464Y-107129188D01*
X193618911Y-106936197D01*
X193494179Y-107038627D01*
X193298650Y-107174257D01*
X193077866Y-107284129D01*
X192904165Y-107344857D01*
X192765407Y-107374365D01*
X192597958Y-107394440D01*
X192417624Y-107404458D01*
X192240207Y-107403790D01*
X192081513Y-107391812D01*
X192008732Y-107380334D01*
X191727445Y-107304272D01*
X191473465Y-107194096D01*
X191248629Y-107051446D01*
X191054774Y-106877962D01*
X190893734Y-106675284D01*
X190767346Y-106445054D01*
X190678199Y-106191745D01*
X190653420Y-106078073D01*
X190638133Y-105953119D01*
X190630843Y-105802774D01*
X190629849Y-105734679D01*
X190629980Y-105728280D01*
X192156641Y-105728280D01*
X192175312Y-105879053D01*
X192231937Y-106007277D01*
X192329307Y-106119050D01*
X192339466Y-106127914D01*
X192436486Y-106197879D01*
X192540365Y-106243244D01*
X192662371Y-106267192D01*
X192813770Y-106272904D01*
X192850147Y-106272090D01*
X192958264Y-106266761D01*
X193038681Y-106255880D01*
X193109027Y-106235462D01*
X193186931Y-106201520D01*
X193208310Y-106191117D01*
X193330154Y-106119141D01*
X193424209Y-106033496D01*
X193449797Y-106002884D01*
X193539536Y-105889356D01*
X193539536Y-105495855D01*
X193538460Y-105337860D01*
X193535065Y-105221441D01*
X193529102Y-105142865D01*
X193520321Y-105098399D01*
X193512115Y-105085408D01*
X193480122Y-105079052D01*
X193412254Y-105073784D01*
X193317987Y-105070101D01*
X193206800Y-105068499D01*
X193188945Y-105068469D01*
X192946316Y-105079023D01*
X192740059Y-105111502D01*
X192566179Y-105167145D01*
X192420681Y-105247195D01*
X192310331Y-105341514D01*
X192220839Y-105457804D01*
X192171170Y-105584463D01*
X192156641Y-105728280D01*
X190629980Y-105728280D01*
X190633733Y-105546331D01*
X190650496Y-105387828D01*
X190683133Y-105244747D01*
X190734635Y-105102665D01*
X190782842Y-104997454D01*
X190900603Y-104806009D01*
X191057494Y-104629171D01*
X191248741Y-104470160D01*
X191469569Y-104332192D01*
X191715205Y-104218488D01*
X191980874Y-104132265D01*
X192110786Y-104102253D01*
X192384365Y-104057846D01*
X192682582Y-104028549D01*
X192986846Y-104015731D01*
X193241093Y-104019010D01*
X193566312Y-104032629D01*
X193551406Y-103914145D01*
X193512648Y-103714953D01*
X193450103Y-103552792D01*
X193362041Y-103426418D01*
X193246732Y-103334590D01*
X193102446Y-103276063D01*
X192927453Y-103249594D01*
X192720022Y-103253941D01*
X192643732Y-103261979D01*
X192360091Y-103312539D01*
X192085243Y-103394974D01*
X191895340Y-103471316D01*
X191804617Y-103510238D01*
X191727409Y-103541518D01*
X191674471Y-103560893D01*
X191659026Y-103565007D01*
X191639450Y-103546769D01*
X191605864Y-103488571D01*
X191557950Y-103389757D01*
X191495393Y-103249669D01*
X191417877Y-103067649D01*
X191404623Y-103035929D01*
X191344242Y-102890649D01*
X191290042Y-102759371D01*
X191244364Y-102647837D01*
X191209548Y-102561787D01*
X191187936Y-102506961D01*
X191181695Y-102489204D01*
X191201782Y-102479652D01*
X191254570Y-102469051D01*
X191311366Y-102461659D01*
X191371950Y-102452103D01*
X191467951Y-102433128D01*
X191590856Y-102406594D01*
X191732150Y-102374361D01*
X191883320Y-102338289D01*
X191940697Y-102324182D01*
X192151757Y-102272777D01*
X192327867Y-102232473D01*
X192477709Y-102201982D01*
X192609967Y-102180016D01*
X192733324Y-102165289D01*
X192856460Y-102156511D01*
X192988061Y-102152397D01*
X193104614Y-102151598D01*
X193445019Y-102164984D01*
X193445019Y-102164984D01*
G37*
X193445019Y-102164984D02*
X193750212Y-102205192D01*
X194021948Y-102272762D01*
X194261981Y-102368233D01*
X194472066Y-102492143D01*
X194627978Y-102619831D01*
X194766274Y-102768761D01*
X194874236Y-102929017D01*
X194960427Y-103114281D01*
X194991514Y-103200805D01*
X195017347Y-103279115D01*
X195039851Y-103351732D01*
X195059286Y-103422336D01*
X195075912Y-103494610D01*
X195089989Y-103572234D01*
X195101779Y-103658890D01*
X195111540Y-103758259D01*
X195119535Y-103874022D01*
X195126022Y-104009861D01*
X195131264Y-104169457D01*
X195135519Y-104356491D01*
X195139048Y-104574644D01*
X195142112Y-104827598D01*
X195144972Y-105119033D01*
X195147487Y-105405839D01*
X195150152Y-105719615D01*
X195152574Y-105991364D01*
X195155004Y-106224413D01*
X195157695Y-106422090D01*
X195160899Y-106587722D01*
X195164866Y-106724636D01*
X195169851Y-106836160D01*
X195176103Y-106925622D01*
X195183876Y-106996348D01*
X195193420Y-107051666D01*
X195204989Y-107094903D01*
X195218834Y-107129388D01*
X195235207Y-107158446D01*
X195254359Y-107185406D01*
X195276543Y-107213594D01*
X195285183Y-107224509D01*
X195316963Y-107270390D01*
X195331098Y-107301635D01*
X195331143Y-107302558D01*
X195309292Y-107306975D01*
X195247044Y-107311045D01*
X195149361Y-107314652D01*
X195021204Y-107317683D01*
X194867532Y-107320023D01*
X194693307Y-107321558D01*
X194503490Y-107322172D01*
X194481580Y-107322179D01*
X193632016Y-107322179D01*
X193625464Y-107129188D01*
X193618911Y-106936197D01*
X193494179Y-107038627D01*
X193298650Y-107174257D01*
X193077866Y-107284129D01*
X192904165Y-107344857D01*
X192765407Y-107374365D01*
X192597958Y-107394440D01*
X192417624Y-107404458D01*
X192240207Y-107403790D01*
X192081513Y-107391812D01*
X192008732Y-107380334D01*
X191727445Y-107304272D01*
X191473465Y-107194096D01*
X191248629Y-107051446D01*
X191054774Y-106877962D01*
X190893734Y-106675284D01*
X190767346Y-106445054D01*
X190678199Y-106191745D01*
X190653420Y-106078073D01*
X190638133Y-105953119D01*
X190630843Y-105802774D01*
X190629849Y-105734679D01*
X190629980Y-105728280D01*
X192156641Y-105728280D01*
X192175312Y-105879053D01*
X192231937Y-106007277D01*
X192329307Y-106119050D01*
X192339466Y-106127914D01*
X192436486Y-106197879D01*
X192540365Y-106243244D01*
X192662371Y-106267192D01*
X192813770Y-106272904D01*
X192850147Y-106272090D01*
X192958264Y-106266761D01*
X193038681Y-106255880D01*
X193109027Y-106235462D01*
X193186931Y-106201520D01*
X193208310Y-106191117D01*
X193330154Y-106119141D01*
X193424209Y-106033496D01*
X193449797Y-106002884D01*
X193539536Y-105889356D01*
X193539536Y-105495855D01*
X193538460Y-105337860D01*
X193535065Y-105221441D01*
X193529102Y-105142865D01*
X193520321Y-105098399D01*
X193512115Y-105085408D01*
X193480122Y-105079052D01*
X193412254Y-105073784D01*
X193317987Y-105070101D01*
X193206800Y-105068499D01*
X193188945Y-105068469D01*
X192946316Y-105079023D01*
X192740059Y-105111502D01*
X192566179Y-105167145D01*
X192420681Y-105247195D01*
X192310331Y-105341514D01*
X192220839Y-105457804D01*
X192171170Y-105584463D01*
X192156641Y-105728280D01*
X190629980Y-105728280D01*
X190633733Y-105546331D01*
X190650496Y-105387828D01*
X190683133Y-105244747D01*
X190734635Y-105102665D01*
X190782842Y-104997454D01*
X190900603Y-104806009D01*
X191057494Y-104629171D01*
X191248741Y-104470160D01*
X191469569Y-104332192D01*
X191715205Y-104218488D01*
X191980874Y-104132265D01*
X192110786Y-104102253D01*
X192384365Y-104057846D01*
X192682582Y-104028549D01*
X192986846Y-104015731D01*
X193241093Y-104019010D01*
X193566312Y-104032629D01*
X193551406Y-103914145D01*
X193512648Y-103714953D01*
X193450103Y-103552792D01*
X193362041Y-103426418D01*
X193246732Y-103334590D01*
X193102446Y-103276063D01*
X192927453Y-103249594D01*
X192720022Y-103253941D01*
X192643732Y-103261979D01*
X192360091Y-103312539D01*
X192085243Y-103394974D01*
X191895340Y-103471316D01*
X191804617Y-103510238D01*
X191727409Y-103541518D01*
X191674471Y-103560893D01*
X191659026Y-103565007D01*
X191639450Y-103546769D01*
X191605864Y-103488571D01*
X191557950Y-103389757D01*
X191495393Y-103249669D01*
X191417877Y-103067649D01*
X191404623Y-103035929D01*
X191344242Y-102890649D01*
X191290042Y-102759371D01*
X191244364Y-102647837D01*
X191209548Y-102561787D01*
X191187936Y-102506961D01*
X191181695Y-102489204D01*
X191201782Y-102479652D01*
X191254570Y-102469051D01*
X191311366Y-102461659D01*
X191371950Y-102452103D01*
X191467951Y-102433128D01*
X191590856Y-102406594D01*
X191732150Y-102374361D01*
X191883320Y-102338289D01*
X191940697Y-102324182D01*
X192151757Y-102272777D01*
X192327867Y-102232473D01*
X192477709Y-102201982D01*
X192609967Y-102180016D01*
X192733324Y-102165289D01*
X192856460Y-102156511D01*
X192988061Y-102152397D01*
X193104614Y-102151598D01*
X193445019Y-102164984D01*
G36*
X200502251Y-103381777D02*
X200502290Y-103852705D01*
X200502342Y-104280488D01*
X200502488Y-104667338D01*
X200502805Y-105015466D01*
X200503371Y-105327085D01*
X200504265Y-105604406D01*
X200505565Y-105849640D01*
X200507349Y-106065001D01*
X200509697Y-106252700D01*
X200512685Y-106414948D01*
X200516393Y-106553957D01*
X200520899Y-106671940D01*
X200526282Y-106771109D01*
X200532619Y-106853674D01*
X200539988Y-106921848D01*
X200548470Y-106977843D01*
X200558141Y-107023870D01*
X200569079Y-107062143D01*
X200581365Y-107094871D01*
X200595075Y-107124268D01*
X200610288Y-107152544D01*
X200627083Y-107181913D01*
X200637516Y-107200207D01*
X200706352Y-107322179D01*
X198982393Y-107322179D01*
X198982393Y-107129411D01*
X198980923Y-107042296D01*
X198977002Y-106975671D01*
X198971359Y-106939950D01*
X198968864Y-106936643D01*
X198945918Y-106950472D01*
X198900286Y-106986317D01*
X198854684Y-107025239D01*
X198745027Y-107107072D01*
X198605450Y-107189445D01*
X198450659Y-107264791D01*
X198295360Y-107325543D01*
X198233380Y-107344926D01*
X198095773Y-107374188D01*
X197929331Y-107394199D01*
X197749746Y-107404331D01*
X197572713Y-107403956D01*
X197413925Y-107392445D01*
X197338197Y-107380777D01*
X197060770Y-107304314D01*
X196805031Y-107188351D01*
X196572355Y-107033942D01*
X196364119Y-106842144D01*
X196181701Y-106614012D01*
X196047501Y-106391426D01*
X195937276Y-106156872D01*
X195852900Y-105917108D01*
X195792639Y-105663996D01*
X195754759Y-105389398D01*
X195737526Y-105085174D01*
X195736066Y-104929589D01*
X195740274Y-104815527D01*
X197405909Y-104815527D01*
X197406327Y-105002495D01*
X197412179Y-105178658D01*
X197423554Y-105333506D01*
X197440540Y-105456527D01*
X197445730Y-105481319D01*
X197509616Y-105696843D01*
X197593306Y-105871670D01*
X197697498Y-106006237D01*
X197822891Y-106100983D01*
X197970185Y-106156350D01*
X198140077Y-106172774D01*
X198333267Y-106150695D01*
X198460786Y-106119111D01*
X198559511Y-106082569D01*
X198668252Y-106030642D01*
X198749938Y-105983026D01*
X198891679Y-105889877D01*
X198891679Y-103579225D01*
X198756262Y-103491701D01*
X198598510Y-103409490D01*
X198429387Y-103355951D01*
X198258379Y-103331996D01*
X198094971Y-103338539D01*
X197948647Y-103376493D01*
X197884454Y-103407770D01*
X197768088Y-103494148D01*
X197669736Y-103608199D01*
X197587060Y-103754092D01*
X197517721Y-103935992D01*
X197459380Y-104158069D01*
X197456806Y-104169857D01*
X197436374Y-104294921D01*
X197421021Y-104451229D01*
X197410837Y-104628268D01*
X197405909Y-104815527D01*
X195740274Y-104815527D01*
X195751839Y-104502058D01*
X195795924Y-104108637D01*
X195868214Y-103749587D01*
X195968606Y-103425170D01*
X196096995Y-103135646D01*
X196253278Y-102881276D01*
X196437350Y-102662321D01*
X196649107Y-102479042D01*
X196739839Y-102416864D01*
X196942638Y-102304068D01*
X197150141Y-102224492D01*
X197371300Y-102175957D01*
X197615066Y-102156280D01*
X197800903Y-102158380D01*
X198061369Y-102180410D01*
X198287562Y-102224236D01*
X198486027Y-102291872D01*
X198663306Y-102385331D01*
X198761473Y-102454060D01*
X198820468Y-102498085D01*
X198864043Y-102528160D01*
X198880536Y-102537000D01*
X198883780Y-102515245D01*
X198886373Y-102453665D01*
X198888340Y-102357788D01*
X198889705Y-102233141D01*
X198890495Y-102085250D01*
X198890735Y-101919644D01*
X198890450Y-101741849D01*
X198889665Y-101557393D01*
X198888406Y-101371803D01*
X198886698Y-101190606D01*
X198884567Y-101019330D01*
X198882037Y-100863501D01*
X198879135Y-100728648D01*
X198875886Y-100620297D01*
X198872315Y-100543975D01*
X198871327Y-100529946D01*
X198856105Y-100388486D01*
X198832879Y-100277696D01*
X198797243Y-100183032D01*
X198744791Y-100089952D01*
X198732201Y-100070705D01*
X198683118Y-99997000D01*
X200501857Y-99997000D01*
X200502251Y-103381777D01*
X200502251Y-103381777D01*
G37*
X200502251Y-103381777D02*
X200502290Y-103852705D01*
X200502342Y-104280488D01*
X200502488Y-104667338D01*
X200502805Y-105015466D01*
X200503371Y-105327085D01*
X200504265Y-105604406D01*
X200505565Y-105849640D01*
X200507349Y-106065001D01*
X200509697Y-106252700D01*
X200512685Y-106414948D01*
X200516393Y-106553957D01*
X200520899Y-106671940D01*
X200526282Y-106771109D01*
X200532619Y-106853674D01*
X200539988Y-106921848D01*
X200548470Y-106977843D01*
X200558141Y-107023870D01*
X200569079Y-107062143D01*
X200581365Y-107094871D01*
X200595075Y-107124268D01*
X200610288Y-107152544D01*
X200627083Y-107181913D01*
X200637516Y-107200207D01*
X200706352Y-107322179D01*
X198982393Y-107322179D01*
X198982393Y-107129411D01*
X198980923Y-107042296D01*
X198977002Y-106975671D01*
X198971359Y-106939950D01*
X198968864Y-106936643D01*
X198945918Y-106950472D01*
X198900286Y-106986317D01*
X198854684Y-107025239D01*
X198745027Y-107107072D01*
X198605450Y-107189445D01*
X198450659Y-107264791D01*
X198295360Y-107325543D01*
X198233380Y-107344926D01*
X198095773Y-107374188D01*
X197929331Y-107394199D01*
X197749746Y-107404331D01*
X197572713Y-107403956D01*
X197413925Y-107392445D01*
X197338197Y-107380777D01*
X197060770Y-107304314D01*
X196805031Y-107188351D01*
X196572355Y-107033942D01*
X196364119Y-106842144D01*
X196181701Y-106614012D01*
X196047501Y-106391426D01*
X195937276Y-106156872D01*
X195852900Y-105917108D01*
X195792639Y-105663996D01*
X195754759Y-105389398D01*
X195737526Y-105085174D01*
X195736066Y-104929589D01*
X195740274Y-104815527D01*
X197405909Y-104815527D01*
X197406327Y-105002495D01*
X197412179Y-105178658D01*
X197423554Y-105333506D01*
X197440540Y-105456527D01*
X197445730Y-105481319D01*
X197509616Y-105696843D01*
X197593306Y-105871670D01*
X197697498Y-106006237D01*
X197822891Y-106100983D01*
X197970185Y-106156350D01*
X198140077Y-106172774D01*
X198333267Y-106150695D01*
X198460786Y-106119111D01*
X198559511Y-106082569D01*
X198668252Y-106030642D01*
X198749938Y-105983026D01*
X198891679Y-105889877D01*
X198891679Y-103579225D01*
X198756262Y-103491701D01*
X198598510Y-103409490D01*
X198429387Y-103355951D01*
X198258379Y-103331996D01*
X198094971Y-103338539D01*
X197948647Y-103376493D01*
X197884454Y-103407770D01*
X197768088Y-103494148D01*
X197669736Y-103608199D01*
X197587060Y-103754092D01*
X197517721Y-103935992D01*
X197459380Y-104158069D01*
X197456806Y-104169857D01*
X197436374Y-104294921D01*
X197421021Y-104451229D01*
X197410837Y-104628268D01*
X197405909Y-104815527D01*
X195740274Y-104815527D01*
X195751839Y-104502058D01*
X195795924Y-104108637D01*
X195868214Y-103749587D01*
X195968606Y-103425170D01*
X196096995Y-103135646D01*
X196253278Y-102881276D01*
X196437350Y-102662321D01*
X196649107Y-102479042D01*
X196739839Y-102416864D01*
X196942638Y-102304068D01*
X197150141Y-102224492D01*
X197371300Y-102175957D01*
X197615066Y-102156280D01*
X197800903Y-102158380D01*
X198061369Y-102180410D01*
X198287562Y-102224236D01*
X198486027Y-102291872D01*
X198663306Y-102385331D01*
X198761473Y-102454060D01*
X198820468Y-102498085D01*
X198864043Y-102528160D01*
X198880536Y-102537000D01*
X198883780Y-102515245D01*
X198886373Y-102453665D01*
X198888340Y-102357788D01*
X198889705Y-102233141D01*
X198890495Y-102085250D01*
X198890735Y-101919644D01*
X198890450Y-101741849D01*
X198889665Y-101557393D01*
X198888406Y-101371803D01*
X198886698Y-101190606D01*
X198884567Y-101019330D01*
X198882037Y-100863501D01*
X198879135Y-100728648D01*
X198875886Y-100620297D01*
X198872315Y-100543975D01*
X198871327Y-100529946D01*
X198856105Y-100388486D01*
X198832879Y-100277696D01*
X198797243Y-100183032D01*
X198744791Y-100089952D01*
X198732201Y-100070705D01*
X198683118Y-99997000D01*
X200501857Y-99997000D01*
X200502251Y-103381777D01*
G36*
X183507620Y-98468594D02*
X183701030Y-98517286D01*
X183874971Y-98603332D01*
X184025260Y-98723421D01*
X184147716Y-98874243D01*
X184238155Y-99052486D01*
X184290914Y-99245967D01*
X184302668Y-99441364D01*
X184272827Y-99629920D01*
X184205126Y-99806419D01*
X184103297Y-99965645D01*
X183971075Y-100102385D01*
X183812192Y-100211422D01*
X183630383Y-100287540D01*
X183527394Y-100312498D01*
X183438001Y-100327608D01*
X183369091Y-100333579D01*
X183302876Y-100329913D01*
X183221566Y-100316113D01*
X183155078Y-100302100D01*
X182967412Y-100238800D01*
X182799319Y-100136096D01*
X182654584Y-99997102D01*
X182536993Y-99824935D01*
X182508971Y-99770214D01*
X182475949Y-99697155D01*
X182455240Y-99635803D01*
X182444059Y-99571252D01*
X182439620Y-99488599D01*
X182439061Y-99396018D01*
X182447271Y-99226549D01*
X182474221Y-99087373D01*
X182524826Y-98965582D01*
X182603998Y-98848272D01*
X182681438Y-98759349D01*
X182825864Y-98627125D01*
X182976721Y-98535855D01*
X183142962Y-98481208D01*
X183298922Y-98460567D01*
X183507620Y-98468594D01*
X183507620Y-98468594D01*
G37*
X183507620Y-98468594D02*
X183701030Y-98517286D01*
X183874971Y-98603332D01*
X184025260Y-98723421D01*
X184147716Y-98874243D01*
X184238155Y-99052486D01*
X184290914Y-99245967D01*
X184302668Y-99441364D01*
X184272827Y-99629920D01*
X184205126Y-99806419D01*
X184103297Y-99965645D01*
X183971075Y-100102385D01*
X183812192Y-100211422D01*
X183630383Y-100287540D01*
X183527394Y-100312498D01*
X183438001Y-100327608D01*
X183369091Y-100333579D01*
X183302876Y-100329913D01*
X183221566Y-100316113D01*
X183155078Y-100302100D01*
X182967412Y-100238800D01*
X182799319Y-100136096D01*
X182654584Y-99997102D01*
X182536993Y-99824935D01*
X182508971Y-99770214D01*
X182475949Y-99697155D01*
X182455240Y-99635803D01*
X182444059Y-99571252D01*
X182439620Y-99488599D01*
X182439061Y-99396018D01*
X182447271Y-99226549D01*
X182474221Y-99087373D01*
X182524826Y-98965582D01*
X182603998Y-98848272D01*
X182681438Y-98759349D01*
X182825864Y-98627125D01*
X182976721Y-98535855D01*
X183142962Y-98481208D01*
X183298922Y-98460567D01*
X183507620Y-98468594D01*
D13*
X121171665Y-132770608D02*
G75*
G03X124404000Y-132927516I1672335J1078608D01*
G01*
X121171665Y-130613392D02*
G75*
G02X124404000Y-130456484I1672335J-1078608D01*
G01*
X121802870Y-132771837D02*
G75*
G03X123884961Y-132772000I1041130J1079837D01*
G01*
X121802870Y-130612163D02*
G75*
G02X123884961Y-130612000I1041130J-1079837D01*
G01*
X124404000Y-132928000D02*
X124404000Y-132772000D01*
X124404000Y-130612000D02*
X124404000Y-130456000D01*
X132424000Y-150192000D02*
X132424000Y-152192000D01*
X132424000Y-152192000D02*
X136274000Y-152192000D01*
X132424000Y-150192000D02*
X136274000Y-150192000D01*
X146924000Y-150192000D02*
X150774000Y-150192000D01*
X146924000Y-152192000D02*
X150774000Y-152192000D01*
X146924000Y-150192000D02*
X146924000Y-152192000D01*
X161374000Y-150192000D02*
X165224000Y-150192000D01*
X161374000Y-152192000D02*
X165224000Y-152192000D01*
X161374000Y-150192000D02*
X161374000Y-152192000D01*
X175424000Y-150192000D02*
X179274000Y-150192000D01*
X175424000Y-152192000D02*
X179274000Y-152192000D01*
X175424000Y-150192000D02*
X175424000Y-152192000D01*
X189874000Y-150192000D02*
X193724000Y-150192000D01*
X189874000Y-152192000D02*
X193724000Y-152192000D01*
X189874000Y-150192000D02*
X189874000Y-152192000D01*
X137124000Y-79252000D02*
X140324000Y-79252000D01*
X140324000Y-77132000D02*
X137124000Y-77132000D01*
X137124000Y-77132000D02*
X137124000Y-79252000D01*
X146874000Y-77132000D02*
X146874000Y-79252000D01*
X150074000Y-77132000D02*
X146874000Y-77132000D01*
X146874000Y-79252000D02*
X150074000Y-79252000D01*
X136584000Y-136122000D02*
X136584000Y-133692000D01*
X136574000Y-136142000D02*
X135574000Y-136142000D01*
X133524000Y-136142000D02*
X133524000Y-134292000D01*
X134574000Y-136142000D02*
X133524000Y-136142000D01*
X148324000Y-136392000D02*
X147274000Y-136392000D01*
X147274000Y-136392000D02*
X147274000Y-134542000D01*
X150324000Y-136392000D02*
X149324000Y-136392000D01*
X150334000Y-136372000D02*
X150334000Y-133942000D01*
X163074000Y-136392000D02*
X162024000Y-136392000D01*
X162024000Y-136392000D02*
X162024000Y-134542000D01*
X165074000Y-136392000D02*
X164074000Y-136392000D01*
X165084000Y-136372000D02*
X165084000Y-133942000D01*
X179584000Y-136372000D02*
X179584000Y-133942000D01*
X179574000Y-136392000D02*
X178574000Y-136392000D01*
X176524000Y-136392000D02*
X176524000Y-134542000D01*
X177574000Y-136392000D02*
X176524000Y-136392000D01*
X193584000Y-136372000D02*
X193584000Y-133942000D01*
X193574000Y-136392000D02*
X192574000Y-136392000D01*
X190524000Y-136392000D02*
X190524000Y-134542000D01*
X191574000Y-136392000D02*
X190524000Y-136392000D01*
X132874000Y-131002000D02*
X136074000Y-131002000D01*
X136074000Y-128882000D02*
X132874000Y-128882000D01*
X132874000Y-128882000D02*
X132874000Y-131002000D01*
X146624000Y-128632000D02*
X146624000Y-130752000D01*
X149824000Y-128632000D02*
X146624000Y-128632000D01*
X146624000Y-130752000D02*
X149824000Y-130752000D01*
X161624000Y-130752000D02*
X164824000Y-130752000D01*
X164824000Y-128632000D02*
X161624000Y-128632000D01*
X161624000Y-128632000D02*
X161624000Y-130752000D01*
X175624000Y-128632000D02*
X175624000Y-130752000D01*
X178824000Y-128632000D02*
X175624000Y-128632000D01*
X175624000Y-130752000D02*
X178824000Y-130752000D01*
X189624000Y-130752000D02*
X192824000Y-130752000D01*
X192824000Y-128632000D02*
X189624000Y-128632000D01*
X189624000Y-128632000D02*
X189624000Y-130752000D01*
D14*
X138978761Y-149739619D02*
X138883523Y-149692000D01*
X138788285Y-149596761D01*
X138645428Y-149453904D01*
X138550190Y-149406285D01*
X138454952Y-149406285D01*
X138502571Y-149644380D02*
X138407333Y-149596761D01*
X138312095Y-149501523D01*
X138264476Y-149311047D01*
X138264476Y-148977714D01*
X138312095Y-148787238D01*
X138407333Y-148692000D01*
X138502571Y-148644380D01*
X138693047Y-148644380D01*
X138788285Y-148692000D01*
X138883523Y-148787238D01*
X138931142Y-148977714D01*
X138931142Y-149311047D01*
X138883523Y-149501523D01*
X138788285Y-149596761D01*
X138693047Y-149644380D01*
X138502571Y-149644380D01*
X139312095Y-148739619D02*
X139359714Y-148692000D01*
X139454952Y-148644380D01*
X139693047Y-148644380D01*
X139788285Y-148692000D01*
X139835904Y-148739619D01*
X139883523Y-148834857D01*
X139883523Y-148930095D01*
X139835904Y-149072952D01*
X139264476Y-149644380D01*
X139883523Y-149644380D01*
X153228761Y-149739619D02*
X153133523Y-149692000D01*
X153038285Y-149596761D01*
X152895428Y-149453904D01*
X152800190Y-149406285D01*
X152704952Y-149406285D01*
X152752571Y-149644380D02*
X152657333Y-149596761D01*
X152562095Y-149501523D01*
X152514476Y-149311047D01*
X152514476Y-148977714D01*
X152562095Y-148787238D01*
X152657333Y-148692000D01*
X152752571Y-148644380D01*
X152943047Y-148644380D01*
X153038285Y-148692000D01*
X153133523Y-148787238D01*
X153181142Y-148977714D01*
X153181142Y-149311047D01*
X153133523Y-149501523D01*
X153038285Y-149596761D01*
X152943047Y-149644380D01*
X152752571Y-149644380D01*
X154038285Y-148977714D02*
X154038285Y-149644380D01*
X153800190Y-148596761D02*
X153562095Y-149311047D01*
X154181142Y-149311047D01*
X167728761Y-149739619D02*
X167633523Y-149692000D01*
X167538285Y-149596761D01*
X167395428Y-149453904D01*
X167300190Y-149406285D01*
X167204952Y-149406285D01*
X167252571Y-149644380D02*
X167157333Y-149596761D01*
X167062095Y-149501523D01*
X167014476Y-149311047D01*
X167014476Y-148977714D01*
X167062095Y-148787238D01*
X167157333Y-148692000D01*
X167252571Y-148644380D01*
X167443047Y-148644380D01*
X167538285Y-148692000D01*
X167633523Y-148787238D01*
X167681142Y-148977714D01*
X167681142Y-149311047D01*
X167633523Y-149501523D01*
X167538285Y-149596761D01*
X167443047Y-149644380D01*
X167252571Y-149644380D01*
X168538285Y-148644380D02*
X168347809Y-148644380D01*
X168252571Y-148692000D01*
X168204952Y-148739619D01*
X168109714Y-148882476D01*
X168062095Y-149072952D01*
X168062095Y-149453904D01*
X168109714Y-149549142D01*
X168157333Y-149596761D01*
X168252571Y-149644380D01*
X168443047Y-149644380D01*
X168538285Y-149596761D01*
X168585904Y-149549142D01*
X168633523Y-149453904D01*
X168633523Y-149215809D01*
X168585904Y-149120571D01*
X168538285Y-149072952D01*
X168443047Y-149025333D01*
X168252571Y-149025333D01*
X168157333Y-149072952D01*
X168109714Y-149120571D01*
X168062095Y-149215809D01*
X181978761Y-149739619D02*
X181883523Y-149692000D01*
X181788285Y-149596761D01*
X181645428Y-149453904D01*
X181550190Y-149406285D01*
X181454952Y-149406285D01*
X181502571Y-149644380D02*
X181407333Y-149596761D01*
X181312095Y-149501523D01*
X181264476Y-149311047D01*
X181264476Y-148977714D01*
X181312095Y-148787238D01*
X181407333Y-148692000D01*
X181502571Y-148644380D01*
X181693047Y-148644380D01*
X181788285Y-148692000D01*
X181883523Y-148787238D01*
X181931142Y-148977714D01*
X181931142Y-149311047D01*
X181883523Y-149501523D01*
X181788285Y-149596761D01*
X181693047Y-149644380D01*
X181502571Y-149644380D01*
X182502571Y-149072952D02*
X182407333Y-149025333D01*
X182359714Y-148977714D01*
X182312095Y-148882476D01*
X182312095Y-148834857D01*
X182359714Y-148739619D01*
X182407333Y-148692000D01*
X182502571Y-148644380D01*
X182693047Y-148644380D01*
X182788285Y-148692000D01*
X182835904Y-148739619D01*
X182883523Y-148834857D01*
X182883523Y-148882476D01*
X182835904Y-148977714D01*
X182788285Y-149025333D01*
X182693047Y-149072952D01*
X182502571Y-149072952D01*
X182407333Y-149120571D01*
X182359714Y-149168190D01*
X182312095Y-149263428D01*
X182312095Y-149453904D01*
X182359714Y-149549142D01*
X182407333Y-149596761D01*
X182502571Y-149644380D01*
X182693047Y-149644380D01*
X182788285Y-149596761D01*
X182835904Y-149549142D01*
X182883523Y-149453904D01*
X182883523Y-149263428D01*
X182835904Y-149168190D01*
X182788285Y-149120571D01*
X182693047Y-149072952D01*
X196252571Y-149739619D02*
X196157333Y-149692000D01*
X196062095Y-149596761D01*
X195919238Y-149453904D01*
X195824000Y-149406285D01*
X195728761Y-149406285D01*
X195776380Y-149644380D02*
X195681142Y-149596761D01*
X195585904Y-149501523D01*
X195538285Y-149311047D01*
X195538285Y-148977714D01*
X195585904Y-148787238D01*
X195681142Y-148692000D01*
X195776380Y-148644380D01*
X195966857Y-148644380D01*
X196062095Y-148692000D01*
X196157333Y-148787238D01*
X196204952Y-148977714D01*
X196204952Y-149311047D01*
X196157333Y-149501523D01*
X196062095Y-149596761D01*
X195966857Y-149644380D01*
X195776380Y-149644380D01*
X197157333Y-149644380D02*
X196585904Y-149644380D01*
X196871619Y-149644380D02*
X196871619Y-148644380D01*
X196776380Y-148787238D01*
X196681142Y-148882476D01*
X196585904Y-148930095D01*
X197776380Y-148644380D02*
X197871619Y-148644380D01*
X197966857Y-148692000D01*
X198014476Y-148739619D01*
X198062095Y-148834857D01*
X198109714Y-149025333D01*
X198109714Y-149263428D01*
X198062095Y-149453904D01*
X198014476Y-149549142D01*
X197966857Y-149596761D01*
X197871619Y-149644380D01*
X197776380Y-149644380D01*
X197681142Y-149596761D01*
X197633523Y-149549142D01*
X197585904Y-149453904D01*
X197538285Y-149263428D01*
X197538285Y-149025333D01*
X197585904Y-148834857D01*
X197633523Y-148739619D01*
X197681142Y-148692000D01*
X197776380Y-148644380D01*
X117576380Y-131608666D02*
X117100190Y-131942000D01*
X117576380Y-132180095D02*
X116576380Y-132180095D01*
X116576380Y-131799142D01*
X116624000Y-131703904D01*
X116671619Y-131656285D01*
X116766857Y-131608666D01*
X116909714Y-131608666D01*
X117004952Y-131656285D01*
X117052571Y-131703904D01*
X117100190Y-131799142D01*
X117100190Y-132180095D01*
X117576380Y-130656285D02*
X117576380Y-131227714D01*
X117576380Y-130942000D02*
X116576380Y-130942000D01*
X116719238Y-131037238D01*
X116814476Y-131132476D01*
X116862095Y-131227714D01*
X156407333Y-78144380D02*
X156074000Y-77668190D01*
X155835904Y-78144380D02*
X155835904Y-77144380D01*
X156216857Y-77144380D01*
X156312095Y-77192000D01*
X156359714Y-77239619D01*
X156407333Y-77334857D01*
X156407333Y-77477714D01*
X156359714Y-77572952D01*
X156312095Y-77620571D01*
X156216857Y-77668190D01*
X155835904Y-77668190D01*
X157264476Y-77144380D02*
X157074000Y-77144380D01*
X156978761Y-77192000D01*
X156931142Y-77239619D01*
X156835904Y-77382476D01*
X156788285Y-77572952D01*
X156788285Y-77953904D01*
X156835904Y-78049142D01*
X156883523Y-78096761D01*
X156978761Y-78144380D01*
X157169238Y-78144380D01*
X157264476Y-78096761D01*
X157312095Y-78049142D01*
X157359714Y-77953904D01*
X157359714Y-77715809D01*
X157312095Y-77620571D01*
X157264476Y-77572952D01*
X157169238Y-77525333D01*
X156978761Y-77525333D01*
X156883523Y-77572952D01*
X156835904Y-77620571D01*
X156788285Y-77715809D01*
X152657333Y-80644380D02*
X152324000Y-80168190D01*
X152085904Y-80644380D02*
X152085904Y-79644380D01*
X152466857Y-79644380D01*
X152562095Y-79692000D01*
X152609714Y-79739619D01*
X152657333Y-79834857D01*
X152657333Y-79977714D01*
X152609714Y-80072952D01*
X152562095Y-80120571D01*
X152466857Y-80168190D01*
X152085904Y-80168190D01*
X152990666Y-79644380D02*
X153657333Y-79644380D01*
X153228761Y-80644380D01*
X156407333Y-87894380D02*
X156074000Y-87418190D01*
X155835904Y-87894380D02*
X155835904Y-86894380D01*
X156216857Y-86894380D01*
X156312095Y-86942000D01*
X156359714Y-86989619D01*
X156407333Y-87084857D01*
X156407333Y-87227714D01*
X156359714Y-87322952D01*
X156312095Y-87370571D01*
X156216857Y-87418190D01*
X155835904Y-87418190D01*
X156978761Y-87322952D02*
X156883523Y-87275333D01*
X156835904Y-87227714D01*
X156788285Y-87132476D01*
X156788285Y-87084857D01*
X156835904Y-86989619D01*
X156883523Y-86942000D01*
X156978761Y-86894380D01*
X157169238Y-86894380D01*
X157264476Y-86942000D01*
X157312095Y-86989619D01*
X157359714Y-87084857D01*
X157359714Y-87132476D01*
X157312095Y-87227714D01*
X157264476Y-87275333D01*
X157169238Y-87322952D01*
X156978761Y-87322952D01*
X156883523Y-87370571D01*
X156835904Y-87418190D01*
X156788285Y-87513428D01*
X156788285Y-87703904D01*
X156835904Y-87799142D01*
X156883523Y-87846761D01*
X156978761Y-87894380D01*
X157169238Y-87894380D01*
X157264476Y-87846761D01*
X157312095Y-87799142D01*
X157359714Y-87703904D01*
X157359714Y-87513428D01*
X157312095Y-87418190D01*
X157264476Y-87370571D01*
X157169238Y-87322952D01*
X170689238Y-81298666D02*
X170641619Y-81441523D01*
X170641619Y-81679619D01*
X170689238Y-81774857D01*
X170736857Y-81822476D01*
X170832095Y-81870095D01*
X170927333Y-81870095D01*
X171022571Y-81822476D01*
X171070190Y-81774857D01*
X171117809Y-81679619D01*
X171165428Y-81489142D01*
X171213047Y-81393904D01*
X171260666Y-81346285D01*
X171355904Y-81298666D01*
X171451142Y-81298666D01*
X171546380Y-81346285D01*
X171594000Y-81393904D01*
X171641619Y-81489142D01*
X171641619Y-81727238D01*
X171594000Y-81870095D01*
X171641619Y-82203428D02*
X170641619Y-82441523D01*
X171355904Y-82632000D01*
X170641619Y-82822476D01*
X171641619Y-83060571D01*
X170641619Y-83965333D02*
X170641619Y-83393904D01*
X170641619Y-83679619D02*
X171641619Y-83679619D01*
X171498761Y-83584380D01*
X171403523Y-83489142D01*
X171355904Y-83393904D01*
X123562095Y-134489619D02*
X123562095Y-135489619D01*
X123324000Y-135489619D01*
X123181142Y-135442000D01*
X123085904Y-135346761D01*
X123038285Y-135251523D01*
X122990666Y-135061047D01*
X122990666Y-134918190D01*
X123038285Y-134727714D01*
X123085904Y-134632476D01*
X123181142Y-134537238D01*
X123324000Y-134489619D01*
X123562095Y-134489619D01*
X122038285Y-134489619D02*
X122609714Y-134489619D01*
X122324000Y-134489619D02*
X122324000Y-135489619D01*
X122419238Y-135346761D01*
X122514476Y-135251523D01*
X122609714Y-135203904D01*
X133758904Y-149739380D02*
X133758904Y-148739380D01*
X133997000Y-148739380D01*
X134139857Y-148787000D01*
X134235095Y-148882238D01*
X134282714Y-148977476D01*
X134330333Y-149167952D01*
X134330333Y-149310809D01*
X134282714Y-149501285D01*
X134235095Y-149596523D01*
X134139857Y-149691761D01*
X133997000Y-149739380D01*
X133758904Y-149739380D01*
X134663666Y-148739380D02*
X135282714Y-148739380D01*
X134949380Y-149120333D01*
X135092238Y-149120333D01*
X135187476Y-149167952D01*
X135235095Y-149215571D01*
X135282714Y-149310809D01*
X135282714Y-149548904D01*
X135235095Y-149644142D01*
X135187476Y-149691761D01*
X135092238Y-149739380D01*
X134806523Y-149739380D01*
X134711285Y-149691761D01*
X134663666Y-149644142D01*
X148258904Y-149739380D02*
X148258904Y-148739380D01*
X148497000Y-148739380D01*
X148639857Y-148787000D01*
X148735095Y-148882238D01*
X148782714Y-148977476D01*
X148830333Y-149167952D01*
X148830333Y-149310809D01*
X148782714Y-149501285D01*
X148735095Y-149596523D01*
X148639857Y-149691761D01*
X148497000Y-149739380D01*
X148258904Y-149739380D01*
X149735095Y-148739380D02*
X149258904Y-148739380D01*
X149211285Y-149215571D01*
X149258904Y-149167952D01*
X149354142Y-149120333D01*
X149592238Y-149120333D01*
X149687476Y-149167952D01*
X149735095Y-149215571D01*
X149782714Y-149310809D01*
X149782714Y-149548904D01*
X149735095Y-149644142D01*
X149687476Y-149691761D01*
X149592238Y-149739380D01*
X149354142Y-149739380D01*
X149258904Y-149691761D01*
X149211285Y-149644142D01*
X162708904Y-149739380D02*
X162708904Y-148739380D01*
X162947000Y-148739380D01*
X163089857Y-148787000D01*
X163185095Y-148882238D01*
X163232714Y-148977476D01*
X163280333Y-149167952D01*
X163280333Y-149310809D01*
X163232714Y-149501285D01*
X163185095Y-149596523D01*
X163089857Y-149691761D01*
X162947000Y-149739380D01*
X162708904Y-149739380D01*
X163613666Y-148739380D02*
X164280333Y-148739380D01*
X163851761Y-149739380D01*
X176758904Y-149739380D02*
X176758904Y-148739380D01*
X176997000Y-148739380D01*
X177139857Y-148787000D01*
X177235095Y-148882238D01*
X177282714Y-148977476D01*
X177330333Y-149167952D01*
X177330333Y-149310809D01*
X177282714Y-149501285D01*
X177235095Y-149596523D01*
X177139857Y-149691761D01*
X176997000Y-149739380D01*
X176758904Y-149739380D01*
X177806523Y-149739380D02*
X177997000Y-149739380D01*
X178092238Y-149691761D01*
X178139857Y-149644142D01*
X178235095Y-149501285D01*
X178282714Y-149310809D01*
X178282714Y-148929857D01*
X178235095Y-148834619D01*
X178187476Y-148787000D01*
X178092238Y-148739380D01*
X177901761Y-148739380D01*
X177806523Y-148787000D01*
X177758904Y-148834619D01*
X177711285Y-148929857D01*
X177711285Y-149167952D01*
X177758904Y-149263190D01*
X177806523Y-149310809D01*
X177901761Y-149358428D01*
X178092238Y-149358428D01*
X178187476Y-149310809D01*
X178235095Y-149263190D01*
X178282714Y-149167952D01*
X190732714Y-149739380D02*
X190732714Y-148739380D01*
X190970809Y-148739380D01*
X191113666Y-148787000D01*
X191208904Y-148882238D01*
X191256523Y-148977476D01*
X191304142Y-149167952D01*
X191304142Y-149310809D01*
X191256523Y-149501285D01*
X191208904Y-149596523D01*
X191113666Y-149691761D01*
X190970809Y-149739380D01*
X190732714Y-149739380D01*
X192256523Y-149739380D02*
X191685095Y-149739380D01*
X191970809Y-149739380D02*
X191970809Y-148739380D01*
X191875571Y-148882238D01*
X191780333Y-148977476D01*
X191685095Y-149025095D01*
X193208904Y-149739380D02*
X192637476Y-149739380D01*
X192923190Y-149739380D02*
X192923190Y-148739380D01*
X192827952Y-148882238D01*
X192732714Y-148977476D01*
X192637476Y-149025095D01*
X138109714Y-76844380D02*
X138109714Y-75844380D01*
X138347809Y-75844380D01*
X138490666Y-75892000D01*
X138585904Y-75987238D01*
X138633523Y-76082476D01*
X138681142Y-76272952D01*
X138681142Y-76415809D01*
X138633523Y-76606285D01*
X138585904Y-76701523D01*
X138490666Y-76796761D01*
X138347809Y-76844380D01*
X138109714Y-76844380D01*
X139633523Y-76844380D02*
X139062095Y-76844380D01*
X139347809Y-76844380D02*
X139347809Y-75844380D01*
X139252571Y-75987238D01*
X139157333Y-76082476D01*
X139062095Y-76130095D01*
X140014476Y-75939619D02*
X140062095Y-75892000D01*
X140157333Y-75844380D01*
X140395428Y-75844380D01*
X140490666Y-75892000D01*
X140538285Y-75939619D01*
X140585904Y-76034857D01*
X140585904Y-76130095D01*
X140538285Y-76272952D01*
X139966857Y-76844380D01*
X140585904Y-76844380D01*
X147859714Y-76844380D02*
X147859714Y-75844380D01*
X148097809Y-75844380D01*
X148240666Y-75892000D01*
X148335904Y-75987238D01*
X148383523Y-76082476D01*
X148431142Y-76272952D01*
X148431142Y-76415809D01*
X148383523Y-76606285D01*
X148335904Y-76701523D01*
X148240666Y-76796761D01*
X148097809Y-76844380D01*
X147859714Y-76844380D01*
X149383523Y-76844380D02*
X148812095Y-76844380D01*
X149097809Y-76844380D02*
X149097809Y-75844380D01*
X149002571Y-75987238D01*
X148907333Y-76082476D01*
X148812095Y-76130095D01*
X149716857Y-75844380D02*
X150335904Y-75844380D01*
X150002571Y-76225333D01*
X150145428Y-76225333D01*
X150240666Y-76272952D01*
X150288285Y-76320571D01*
X150335904Y-76415809D01*
X150335904Y-76653904D01*
X150288285Y-76749142D01*
X150240666Y-76796761D01*
X150145428Y-76844380D01*
X149859714Y-76844380D01*
X149764476Y-76796761D01*
X149716857Y-76749142D01*
X136976380Y-135096761D02*
X137024000Y-135001523D01*
X137119238Y-134906285D01*
X137262095Y-134763428D01*
X137309714Y-134668190D01*
X137309714Y-134572952D01*
X137071619Y-134620571D02*
X137119238Y-134525333D01*
X137214476Y-134430095D01*
X137404952Y-134382476D01*
X137738285Y-134382476D01*
X137928761Y-134430095D01*
X138024000Y-134525333D01*
X138071619Y-134620571D01*
X138071619Y-134811047D01*
X138024000Y-134906285D01*
X137928761Y-135001523D01*
X137738285Y-135049142D01*
X137404952Y-135049142D01*
X137214476Y-135001523D01*
X137119238Y-134906285D01*
X137071619Y-134811047D01*
X137071619Y-134620571D01*
X137071619Y-136001523D02*
X137071619Y-135430095D01*
X137071619Y-135715809D02*
X138071619Y-135715809D01*
X137928761Y-135620571D01*
X137833523Y-135525333D01*
X137785904Y-135430095D01*
X150726380Y-135346761D02*
X150774000Y-135251523D01*
X150869238Y-135156285D01*
X151012095Y-135013428D01*
X151059714Y-134918190D01*
X151059714Y-134822952D01*
X150821619Y-134870571D02*
X150869238Y-134775333D01*
X150964476Y-134680095D01*
X151154952Y-134632476D01*
X151488285Y-134632476D01*
X151678761Y-134680095D01*
X151774000Y-134775333D01*
X151821619Y-134870571D01*
X151821619Y-135061047D01*
X151774000Y-135156285D01*
X151678761Y-135251523D01*
X151488285Y-135299142D01*
X151154952Y-135299142D01*
X150964476Y-135251523D01*
X150869238Y-135156285D01*
X150821619Y-135061047D01*
X150821619Y-134870571D01*
X151821619Y-135632476D02*
X151821619Y-136251523D01*
X151440666Y-135918190D01*
X151440666Y-136061047D01*
X151393047Y-136156285D01*
X151345428Y-136203904D01*
X151250190Y-136251523D01*
X151012095Y-136251523D01*
X150916857Y-136203904D01*
X150869238Y-136156285D01*
X150821619Y-136061047D01*
X150821619Y-135775333D01*
X150869238Y-135680095D01*
X150916857Y-135632476D01*
X165476380Y-135346761D02*
X165524000Y-135251523D01*
X165619238Y-135156285D01*
X165762095Y-135013428D01*
X165809714Y-134918190D01*
X165809714Y-134822952D01*
X165571619Y-134870571D02*
X165619238Y-134775333D01*
X165714476Y-134680095D01*
X165904952Y-134632476D01*
X166238285Y-134632476D01*
X166428761Y-134680095D01*
X166524000Y-134775333D01*
X166571619Y-134870571D01*
X166571619Y-135061047D01*
X166524000Y-135156285D01*
X166428761Y-135251523D01*
X166238285Y-135299142D01*
X165904952Y-135299142D01*
X165714476Y-135251523D01*
X165619238Y-135156285D01*
X165571619Y-135061047D01*
X165571619Y-134870571D01*
X166571619Y-136203904D02*
X166571619Y-135727714D01*
X166095428Y-135680095D01*
X166143047Y-135727714D01*
X166190666Y-135822952D01*
X166190666Y-136061047D01*
X166143047Y-136156285D01*
X166095428Y-136203904D01*
X166000190Y-136251523D01*
X165762095Y-136251523D01*
X165666857Y-136203904D01*
X165619238Y-136156285D01*
X165571619Y-136061047D01*
X165571619Y-135822952D01*
X165619238Y-135727714D01*
X165666857Y-135680095D01*
X179976380Y-135346761D02*
X180024000Y-135251523D01*
X180119238Y-135156285D01*
X180262095Y-135013428D01*
X180309714Y-134918190D01*
X180309714Y-134822952D01*
X180071619Y-134870571D02*
X180119238Y-134775333D01*
X180214476Y-134680095D01*
X180404952Y-134632476D01*
X180738285Y-134632476D01*
X180928761Y-134680095D01*
X181024000Y-134775333D01*
X181071619Y-134870571D01*
X181071619Y-135061047D01*
X181024000Y-135156285D01*
X180928761Y-135251523D01*
X180738285Y-135299142D01*
X180404952Y-135299142D01*
X180214476Y-135251523D01*
X180119238Y-135156285D01*
X180071619Y-135061047D01*
X180071619Y-134870571D01*
X181071619Y-135632476D02*
X181071619Y-136299142D01*
X180071619Y-135870571D01*
X193976380Y-135346761D02*
X194024000Y-135251523D01*
X194119238Y-135156285D01*
X194262095Y-135013428D01*
X194309714Y-134918190D01*
X194309714Y-134822952D01*
X194071619Y-134870571D02*
X194119238Y-134775333D01*
X194214476Y-134680095D01*
X194404952Y-134632476D01*
X194738285Y-134632476D01*
X194928761Y-134680095D01*
X195024000Y-134775333D01*
X195071619Y-134870571D01*
X195071619Y-135061047D01*
X195024000Y-135156285D01*
X194928761Y-135251523D01*
X194738285Y-135299142D01*
X194404952Y-135299142D01*
X194214476Y-135251523D01*
X194119238Y-135156285D01*
X194071619Y-135061047D01*
X194071619Y-134870571D01*
X194071619Y-135775333D02*
X194071619Y-135965809D01*
X194119238Y-136061047D01*
X194166857Y-136108666D01*
X194309714Y-136203904D01*
X194500190Y-136251523D01*
X194881142Y-136251523D01*
X194976380Y-136203904D01*
X195024000Y-136156285D01*
X195071619Y-136061047D01*
X195071619Y-135870571D01*
X195024000Y-135775333D01*
X194976380Y-135727714D01*
X194881142Y-135680095D01*
X194643047Y-135680095D01*
X194547809Y-135727714D01*
X194500190Y-135775333D01*
X194452571Y-135870571D01*
X194452571Y-136061047D01*
X194500190Y-136156285D01*
X194547809Y-136203904D01*
X194643047Y-136251523D01*
X133859714Y-128594380D02*
X133859714Y-127594380D01*
X134097809Y-127594380D01*
X134240666Y-127642000D01*
X134335904Y-127737238D01*
X134383523Y-127832476D01*
X134431142Y-128022952D01*
X134431142Y-128165809D01*
X134383523Y-128356285D01*
X134335904Y-128451523D01*
X134240666Y-128546761D01*
X134097809Y-128594380D01*
X133859714Y-128594380D01*
X135383523Y-128594380D02*
X134812095Y-128594380D01*
X135097809Y-128594380D02*
X135097809Y-127594380D01*
X135002571Y-127737238D01*
X134907333Y-127832476D01*
X134812095Y-127880095D01*
X136240666Y-127927714D02*
X136240666Y-128594380D01*
X136002571Y-127546761D02*
X135764476Y-128261047D01*
X136383523Y-128261047D01*
X147609714Y-128344380D02*
X147609714Y-127344380D01*
X147847809Y-127344380D01*
X147990666Y-127392000D01*
X148085904Y-127487238D01*
X148133523Y-127582476D01*
X148181142Y-127772952D01*
X148181142Y-127915809D01*
X148133523Y-128106285D01*
X148085904Y-128201523D01*
X147990666Y-128296761D01*
X147847809Y-128344380D01*
X147609714Y-128344380D01*
X149133523Y-128344380D02*
X148562095Y-128344380D01*
X148847809Y-128344380D02*
X148847809Y-127344380D01*
X148752571Y-127487238D01*
X148657333Y-127582476D01*
X148562095Y-127630095D01*
X150038285Y-127344380D02*
X149562095Y-127344380D01*
X149514476Y-127820571D01*
X149562095Y-127772952D01*
X149657333Y-127725333D01*
X149895428Y-127725333D01*
X149990666Y-127772952D01*
X150038285Y-127820571D01*
X150085904Y-127915809D01*
X150085904Y-128153904D01*
X150038285Y-128249142D01*
X149990666Y-128296761D01*
X149895428Y-128344380D01*
X149657333Y-128344380D01*
X149562095Y-128296761D01*
X149514476Y-128249142D01*
X162609714Y-128344380D02*
X162609714Y-127344380D01*
X162847809Y-127344380D01*
X162990666Y-127392000D01*
X163085904Y-127487238D01*
X163133523Y-127582476D01*
X163181142Y-127772952D01*
X163181142Y-127915809D01*
X163133523Y-128106285D01*
X163085904Y-128201523D01*
X162990666Y-128296761D01*
X162847809Y-128344380D01*
X162609714Y-128344380D01*
X164133523Y-128344380D02*
X163562095Y-128344380D01*
X163847809Y-128344380D02*
X163847809Y-127344380D01*
X163752571Y-127487238D01*
X163657333Y-127582476D01*
X163562095Y-127630095D01*
X164990666Y-127344380D02*
X164800190Y-127344380D01*
X164704952Y-127392000D01*
X164657333Y-127439619D01*
X164562095Y-127582476D01*
X164514476Y-127772952D01*
X164514476Y-128153904D01*
X164562095Y-128249142D01*
X164609714Y-128296761D01*
X164704952Y-128344380D01*
X164895428Y-128344380D01*
X164990666Y-128296761D01*
X165038285Y-128249142D01*
X165085904Y-128153904D01*
X165085904Y-127915809D01*
X165038285Y-127820571D01*
X164990666Y-127772952D01*
X164895428Y-127725333D01*
X164704952Y-127725333D01*
X164609714Y-127772952D01*
X164562095Y-127820571D01*
X164514476Y-127915809D01*
X176609714Y-128344380D02*
X176609714Y-127344380D01*
X176847809Y-127344380D01*
X176990666Y-127392000D01*
X177085904Y-127487238D01*
X177133523Y-127582476D01*
X177181142Y-127772952D01*
X177181142Y-127915809D01*
X177133523Y-128106285D01*
X177085904Y-128201523D01*
X176990666Y-128296761D01*
X176847809Y-128344380D01*
X176609714Y-128344380D01*
X178133523Y-128344380D02*
X177562095Y-128344380D01*
X177847809Y-128344380D02*
X177847809Y-127344380D01*
X177752571Y-127487238D01*
X177657333Y-127582476D01*
X177562095Y-127630095D01*
X178466857Y-127344380D02*
X179133523Y-127344380D01*
X178704952Y-128344380D01*
X190609714Y-128344380D02*
X190609714Y-127344380D01*
X190847809Y-127344380D01*
X190990666Y-127392000D01*
X191085904Y-127487238D01*
X191133523Y-127582476D01*
X191181142Y-127772952D01*
X191181142Y-127915809D01*
X191133523Y-128106285D01*
X191085904Y-128201523D01*
X190990666Y-128296761D01*
X190847809Y-128344380D01*
X190609714Y-128344380D01*
X192133523Y-128344380D02*
X191562095Y-128344380D01*
X191847809Y-128344380D02*
X191847809Y-127344380D01*
X191752571Y-127487238D01*
X191657333Y-127582476D01*
X191562095Y-127630095D01*
X192704952Y-127772952D02*
X192609714Y-127725333D01*
X192562095Y-127677714D01*
X192514476Y-127582476D01*
X192514476Y-127534857D01*
X192562095Y-127439619D01*
X192609714Y-127392000D01*
X192704952Y-127344380D01*
X192895428Y-127344380D01*
X192990666Y-127392000D01*
X193038285Y-127439619D01*
X193085904Y-127534857D01*
X193085904Y-127582476D01*
X193038285Y-127677714D01*
X192990666Y-127725333D01*
X192895428Y-127772952D01*
X192704952Y-127772952D01*
X192609714Y-127820571D01*
X192562095Y-127868190D01*
X192514476Y-127963428D01*
X192514476Y-128153904D01*
X192562095Y-128249142D01*
X192609714Y-128296761D01*
X192704952Y-128344380D01*
X192895428Y-128344380D01*
X192990666Y-128296761D01*
X193038285Y-128249142D01*
X193085904Y-128153904D01*
X193085904Y-127963428D01*
X193038285Y-127868190D01*
X192990666Y-127820571D01*
X192895428Y-127772952D01*
M02*
