G04 #@! TF.GenerationSoftware,KiCad,Pcbnew,(2017-11-24 revision a01d81e)-master*
G04 #@! TF.CreationDate,2018-01-08T17:27:27+01:00*
G04 #@! TF.ProjectId,PWRCTRLBRD,5057524354524C4252442E6B69636164,rev?*
G04 #@! TF.SameCoordinates,Original*
G04 #@! TF.FileFunction,Soldermask,Top*
G04 #@! TF.FilePolarity,Negative*
%FSLAX46Y46*%
G04 Gerber Fmt 4.6, Leading zero omitted, Abs format (unit mm)*
G04 Created by KiCad (PCBNEW (2017-11-24 revision a01d81e)-master) date Monday '08en' 08. January 2018 'kl'. 17.27.27*
%MOMM*%
%LPD*%
G01*
G04 APERTURE LIST*
%ADD10C,1.300000*%
%ADD11C,11.000000*%
%ADD12C,4.050000*%
%ADD13R,1.900000X1.900000*%
%ADD14C,1.900000*%
%ADD15C,3.000000*%
%ADD16R,1.600000X2.600000*%
%ADD17R,6.200000X6.800000*%
%ADD18R,1.700000X1.900000*%
%ADD19R,1.900000X1.700000*%
%ADD20R,2.000000X2.000000*%
%ADD21O,2.000000X2.000000*%
%ADD22R,2.100000X2.100000*%
%ADD23O,2.100000X2.100000*%
%ADD24R,2.200000X2.200000*%
%ADD25C,2.200000*%
%ADD26R,1.500000X1.500000*%
%ADD27R,1.400000X2.000000*%
%ADD28R,1.050000X2.400000*%
G04 APERTURE END LIST*
D10*
X124834749Y-146881251D03*
X122024000Y-145717000D03*
X119213251Y-146881251D03*
X118049000Y-149692000D03*
X119213251Y-152502749D03*
X122024000Y-153667000D03*
X124834749Y-152502749D03*
X125999000Y-149692000D03*
D11*
X122024000Y-149692000D03*
X122024000Y-81692000D03*
D10*
X125999000Y-81692000D03*
X124834749Y-84502749D03*
X122024000Y-85667000D03*
X119213251Y-84502749D03*
X118049000Y-81692000D03*
X119213251Y-78881251D03*
X122024000Y-77717000D03*
X124834749Y-78881251D03*
X212434749Y-78881251D03*
X209624000Y-77717000D03*
X206813251Y-78881251D03*
X205649000Y-81692000D03*
X206813251Y-84502749D03*
X209624000Y-85667000D03*
X212434749Y-84502749D03*
X213599000Y-81692000D03*
D11*
X209624000Y-81692000D03*
D12*
X123974000Y-119992000D03*
X123974000Y-108122000D03*
D13*
X130324000Y-109612000D03*
D14*
X132864000Y-110882000D03*
X130324000Y-112152000D03*
X132864000Y-113422000D03*
X130324000Y-114692000D03*
X132864000Y-115962000D03*
X130324000Y-117232000D03*
X132864000Y-118502000D03*
D15*
X128324000Y-126442000D03*
X123244000Y-126442000D03*
X176824000Y-88272000D03*
X176824000Y-83192000D03*
X184324000Y-88272000D03*
X184324000Y-83192000D03*
X191824000Y-88272000D03*
X191824000Y-83192000D03*
X199324000Y-88272000D03*
X199324000Y-83192000D03*
X142074000Y-143442000D03*
X142074000Y-148522000D03*
D12*
X123974000Y-102282000D03*
X123974000Y-90412000D03*
D13*
X130324000Y-91902000D03*
D14*
X132864000Y-93172000D03*
X130324000Y-94442000D03*
X132864000Y-95712000D03*
X130324000Y-96982000D03*
X132864000Y-98252000D03*
X130324000Y-99522000D03*
X132864000Y-100792000D03*
D15*
X156824000Y-143362000D03*
X156824000Y-148442000D03*
X171324000Y-143362000D03*
X171324000Y-148442000D03*
X185574000Y-143362000D03*
X185574000Y-148442000D03*
X199824000Y-143362000D03*
X199824000Y-148442000D03*
D16*
X137104000Y-140142000D03*
X132544000Y-140142000D03*
D17*
X134824000Y-146442000D03*
D16*
X151379000Y-140217000D03*
X146819000Y-140217000D03*
D17*
X149099000Y-146517000D03*
D16*
X165879000Y-140217000D03*
X161319000Y-140217000D03*
D17*
X163599000Y-146517000D03*
D16*
X180104000Y-140242000D03*
X175544000Y-140242000D03*
D17*
X177824000Y-146542000D03*
D16*
X194329000Y-140217000D03*
X189769000Y-140217000D03*
D17*
X192049000Y-146517000D03*
D18*
X118824000Y-132792000D03*
X118824000Y-130092000D03*
D19*
X155224000Y-79692000D03*
X157924000Y-79692000D03*
X155224000Y-82692000D03*
X157924000Y-82692000D03*
X155224000Y-85442000D03*
X157924000Y-85442000D03*
D20*
X167614000Y-78822000D03*
D21*
X162534000Y-86442000D03*
X165074000Y-78822000D03*
X165074000Y-86442000D03*
X162534000Y-78822000D03*
X167614000Y-86442000D03*
D22*
X136744000Y-84942000D03*
D23*
X136744000Y-82402000D03*
X139284000Y-84942000D03*
X139284000Y-82402000D03*
X141824000Y-84942000D03*
X141824000Y-82402000D03*
D22*
X146494000Y-84942000D03*
D23*
X146494000Y-82402000D03*
X149034000Y-84942000D03*
X149034000Y-82402000D03*
X151574000Y-84942000D03*
X151574000Y-82402000D03*
D22*
X140824000Y-131612000D03*
D23*
X140824000Y-134152000D03*
X140824000Y-136692000D03*
D22*
X155074000Y-131652000D03*
D23*
X155074000Y-134192000D03*
X155074000Y-136732000D03*
D22*
X170074000Y-131652000D03*
D23*
X170074000Y-134192000D03*
X170074000Y-136732000D03*
D22*
X184324000Y-131652000D03*
D23*
X184324000Y-134192000D03*
X184324000Y-136732000D03*
D22*
X198574000Y-131612000D03*
D23*
X198574000Y-134152000D03*
X198574000Y-136692000D03*
D24*
X124114000Y-131692000D03*
D25*
X121574000Y-131692000D03*
D11*
X209624000Y-149692000D03*
D10*
X213599000Y-149692000D03*
X212434749Y-152502749D03*
X209624000Y-153667000D03*
X206813251Y-152502749D03*
X205649000Y-149692000D03*
X206813251Y-146881251D03*
X209624000Y-145717000D03*
X212434749Y-146881251D03*
D26*
X133224000Y-151192000D03*
X136024000Y-151192000D03*
X150524000Y-151192000D03*
X147724000Y-151192000D03*
X164974000Y-151192000D03*
X162174000Y-151192000D03*
X179024000Y-151192000D03*
X176224000Y-151192000D03*
X193474000Y-151192000D03*
X190674000Y-151192000D03*
D27*
X140824000Y-78192000D03*
X137824000Y-78192000D03*
X147574000Y-78192000D03*
X150574000Y-78192000D03*
D28*
X135074000Y-136902000D03*
X134124000Y-133482000D03*
X136024000Y-133482000D03*
X149774000Y-133732000D03*
X147874000Y-133732000D03*
X148824000Y-137152000D03*
X164524000Y-133732000D03*
X162624000Y-133732000D03*
X163574000Y-137152000D03*
X178074000Y-137152000D03*
X177124000Y-133732000D03*
X179024000Y-133732000D03*
X192074000Y-137152000D03*
X191124000Y-133732000D03*
X193024000Y-133732000D03*
D27*
X136574000Y-129942000D03*
X133574000Y-129942000D03*
X147324000Y-129692000D03*
X150324000Y-129692000D03*
X165324000Y-129692000D03*
X162324000Y-129692000D03*
X176324000Y-129692000D03*
X179324000Y-129692000D03*
X193324000Y-129692000D03*
X190324000Y-129692000D03*
M02*
