G04 #@! TF.GenerationSoftware,KiCad,Pcbnew,(2017-11-24 revision a01d81e)-master*
G04 #@! TF.CreationDate,2018-01-08T17:27:27+01:00*
G04 #@! TF.ProjectId,PWRCTRLBRD,5057524354524C4252442E6B69636164,rev?*
G04 #@! TF.SameCoordinates,Original*
G04 #@! TF.FileFunction,Copper,L2,Bot,Signal*
G04 #@! TF.FilePolarity,Positive*
%FSLAX46Y46*%
G04 Gerber Fmt 4.6, Leading zero omitted, Abs format (unit mm)*
G04 Created by KiCad (PCBNEW (2017-11-24 revision a01d81e)-master) date Monday '08en' 08. January 2018 'kl'. 17.27.27*
%MOMM*%
%LPD*%
G01*
G04 APERTURE LIST*
%ADD10C,0.900000*%
%ADD11C,10.600000*%
%ADD12C,3.650000*%
%ADD13R,1.500000X1.500000*%
%ADD14C,1.500000*%
%ADD15R,1.250000X1.500000*%
%ADD16R,1.500000X1.250000*%
%ADD17C,2.000000*%
%ADD18R,1.300000X1.500000*%
%ADD19R,1.500000X1.300000*%
%ADD20R,1.600000X1.600000*%
%ADD21O,1.600000X1.600000*%
%ADD22R,2.000000X0.600000*%
%ADD23R,1.700000X1.700000*%
%ADD24O,1.700000X1.700000*%
%ADD25R,1.800000X1.800000*%
%ADD26C,1.800000*%
%ADD27R,1.100000X1.100000*%
%ADD28C,0.600000*%
%ADD29C,0.250000*%
%ADD30C,0.500000*%
%ADD31C,0.254000*%
G04 APERTURE END LIST*
D10*
X124834749Y-146881251D03*
X122024000Y-145717000D03*
X119213251Y-146881251D03*
X118049000Y-149692000D03*
X119213251Y-152502749D03*
X122024000Y-153667000D03*
X124834749Y-152502749D03*
X125999000Y-149692000D03*
D11*
X122024000Y-149692000D03*
X122024000Y-81692000D03*
D10*
X125999000Y-81692000D03*
X124834749Y-84502749D03*
X122024000Y-85667000D03*
X119213251Y-84502749D03*
X118049000Y-81692000D03*
X119213251Y-78881251D03*
X122024000Y-77717000D03*
X124834749Y-78881251D03*
X212434749Y-78881251D03*
X209624000Y-77717000D03*
X206813251Y-78881251D03*
X205649000Y-81692000D03*
X206813251Y-84502749D03*
X209624000Y-85667000D03*
X212434749Y-84502749D03*
X213599000Y-81692000D03*
D11*
X209624000Y-81692000D03*
D12*
X123974000Y-119992000D03*
X123974000Y-108122000D03*
D13*
X130324000Y-109612000D03*
D14*
X132864000Y-110882000D03*
X130324000Y-112152000D03*
X132864000Y-113422000D03*
X130324000Y-114692000D03*
X132864000Y-115962000D03*
X130324000Y-117232000D03*
X132864000Y-118502000D03*
D15*
X153074000Y-102442000D03*
X153074000Y-104942000D03*
D16*
X133324000Y-141942000D03*
X135824000Y-141942000D03*
X147824000Y-141942000D03*
X150324000Y-141942000D03*
X162324000Y-141942000D03*
X164824000Y-141942000D03*
X176574000Y-141942000D03*
X179074000Y-141942000D03*
X190824000Y-141942000D03*
X193324000Y-141942000D03*
D17*
X128324000Y-126442000D03*
X123244000Y-126442000D03*
X176824000Y-88272000D03*
X176824000Y-83192000D03*
X184324000Y-88272000D03*
X184324000Y-83192000D03*
X191824000Y-88272000D03*
X191824000Y-83192000D03*
X199324000Y-88272000D03*
X199324000Y-83192000D03*
X142074000Y-143442000D03*
X142074000Y-148522000D03*
D12*
X123974000Y-102282000D03*
X123974000Y-90412000D03*
D13*
X130324000Y-91902000D03*
D14*
X132864000Y-93172000D03*
X130324000Y-94442000D03*
X132864000Y-95712000D03*
X130324000Y-96982000D03*
X132864000Y-98252000D03*
X130324000Y-99522000D03*
X132864000Y-100792000D03*
D17*
X156824000Y-143362000D03*
X156824000Y-148442000D03*
X171324000Y-143362000D03*
X171324000Y-148442000D03*
X185574000Y-143362000D03*
X185574000Y-148442000D03*
X199824000Y-143362000D03*
X199824000Y-148442000D03*
D18*
X149574000Y-105042000D03*
X149574000Y-102342000D03*
D19*
X162724000Y-94192000D03*
X165424000Y-94192000D03*
D18*
X153074000Y-95242000D03*
X153074000Y-97942000D03*
D19*
X136324000Y-128442000D03*
X133624000Y-128442000D03*
X133224000Y-139942000D03*
X135924000Y-139942000D03*
X150174000Y-128442000D03*
X147474000Y-128442000D03*
X147724000Y-139942000D03*
X150424000Y-139942000D03*
X165174000Y-128442000D03*
X162474000Y-128442000D03*
X162224000Y-139942000D03*
X164924000Y-139942000D03*
X179174000Y-128442000D03*
X176474000Y-128442000D03*
X176624000Y-139942000D03*
X179324000Y-139942000D03*
X193174000Y-128442000D03*
X190474000Y-128442000D03*
X190624000Y-139942000D03*
X193324000Y-139942000D03*
D20*
X167614000Y-78822000D03*
D21*
X162534000Y-86442000D03*
X165074000Y-78822000D03*
X165074000Y-86442000D03*
X162534000Y-78822000D03*
X167614000Y-86442000D03*
D22*
X156874000Y-114947000D03*
X156874000Y-113677000D03*
X156874000Y-112407000D03*
X156874000Y-111137000D03*
X156874000Y-109867000D03*
X156874000Y-108597000D03*
X156874000Y-107327000D03*
X156874000Y-106057000D03*
X156874000Y-104787000D03*
X156874000Y-103517000D03*
X156874000Y-102247000D03*
X156874000Y-100977000D03*
X156874000Y-99707000D03*
X156874000Y-98437000D03*
X166274000Y-98437000D03*
X166274000Y-99707000D03*
X166274000Y-100977000D03*
X166274000Y-102247000D03*
X166274000Y-103517000D03*
X166274000Y-104787000D03*
X166274000Y-106057000D03*
X166274000Y-107327000D03*
X166274000Y-108597000D03*
X166274000Y-109867000D03*
X166274000Y-111137000D03*
X166274000Y-112407000D03*
X166274000Y-113677000D03*
X166274000Y-114947000D03*
D23*
X136744000Y-84942000D03*
D24*
X136744000Y-82402000D03*
X139284000Y-84942000D03*
X139284000Y-82402000D03*
X141824000Y-84942000D03*
X141824000Y-82402000D03*
D23*
X146494000Y-84942000D03*
D24*
X146494000Y-82402000D03*
X149034000Y-84942000D03*
X149034000Y-82402000D03*
X151574000Y-84942000D03*
X151574000Y-82402000D03*
D23*
X140824000Y-131612000D03*
D24*
X140824000Y-134152000D03*
X140824000Y-136692000D03*
D23*
X155074000Y-131652000D03*
D24*
X155074000Y-134192000D03*
X155074000Y-136732000D03*
D23*
X170074000Y-131652000D03*
D24*
X170074000Y-134192000D03*
X170074000Y-136732000D03*
D23*
X184324000Y-131652000D03*
D24*
X184324000Y-134192000D03*
X184324000Y-136732000D03*
D23*
X198574000Y-131612000D03*
D24*
X198574000Y-134152000D03*
X198574000Y-136692000D03*
D18*
X136324000Y-133592000D03*
X136324000Y-136292000D03*
X150324000Y-133492000D03*
X150324000Y-136192000D03*
X165324000Y-133492000D03*
X165324000Y-136192000D03*
X179324000Y-133342000D03*
X179324000Y-136042000D03*
X193324000Y-133342000D03*
X193324000Y-136042000D03*
D16*
X172074000Y-102942000D03*
X169574000Y-102942000D03*
D25*
X124114000Y-131692000D03*
D26*
X121574000Y-131692000D03*
D11*
X209624000Y-149692000D03*
D10*
X213599000Y-149692000D03*
X212434749Y-152502749D03*
X209624000Y-153667000D03*
X206813251Y-152502749D03*
X205649000Y-149692000D03*
X206813251Y-146881251D03*
X209624000Y-145717000D03*
X212434749Y-146881251D03*
D27*
X133674000Y-130692000D03*
X136474000Y-130692000D03*
X150224000Y-130942000D03*
X147424000Y-130942000D03*
X165224000Y-130942000D03*
X162424000Y-130942000D03*
X179224000Y-130942000D03*
X176424000Y-130942000D03*
X193224000Y-130942000D03*
X190424000Y-130942000D03*
D28*
X147574000Y-78192000D03*
X137824000Y-78192000D03*
X176424000Y-130942000D03*
X190424000Y-130942000D03*
X162424000Y-130942000D03*
X133424000Y-130692000D03*
X147424000Y-130942000D03*
X134124000Y-133482000D03*
X156874000Y-103517000D03*
X156874000Y-107327000D03*
X156874000Y-108597000D03*
X159324000Y-108942000D03*
X162824000Y-112442000D03*
X166274000Y-112407000D03*
X151574000Y-99692000D03*
X150824000Y-99692000D03*
X153074000Y-102442000D03*
X135324000Y-100692000D03*
X161319000Y-140217000D03*
X189769000Y-140217000D03*
X175544000Y-140242000D03*
X146819000Y-140217000D03*
X132544000Y-140142000D03*
X162724000Y-94192000D03*
X135074000Y-136902000D03*
X137104000Y-140142000D03*
X150424000Y-139942000D03*
X165879000Y-140217000D03*
X180104000Y-140242000D03*
X194329000Y-140217000D03*
X159324000Y-98692000D03*
X152324008Y-110192000D03*
X152324000Y-115442000D03*
X159324000Y-105442000D03*
X159324000Y-103192000D03*
X152574000Y-125942000D03*
X153370042Y-110271599D03*
X153324000Y-115692000D03*
X160049000Y-107327000D03*
X160074000Y-102692000D03*
X160074000Y-97192000D03*
X152574000Y-128942000D03*
X166574000Y-125416968D03*
X160824000Y-101942000D03*
X160074000Y-96192000D03*
X167324010Y-128442000D03*
X160824000Y-103942000D03*
X181071771Y-125416968D03*
X181324000Y-127192000D03*
X161523994Y-101445147D03*
X160565042Y-95444986D03*
X161574000Y-103442000D03*
X163074000Y-111192000D03*
X164824000Y-111192000D03*
X162324000Y-108192000D03*
X162324000Y-101442000D03*
X161324000Y-95192000D03*
X133324004Y-103692000D03*
X135274022Y-103692000D03*
X168074000Y-100942000D03*
X167998979Y-99639030D03*
X167548968Y-96944426D03*
X136324000Y-133592000D03*
X149774000Y-133732000D03*
X164774000Y-133732000D03*
X179324000Y-133342000D03*
X193324000Y-133342000D03*
X137324000Y-107192000D03*
X141074000Y-107692000D03*
X138574000Y-107442000D03*
X142324000Y-107692000D03*
X139824000Y-107692000D03*
X143324000Y-107192000D03*
X166274000Y-114947000D03*
X136324000Y-136292000D03*
X150324000Y-136192000D03*
X165824000Y-136192000D03*
X179324000Y-136042000D03*
X193324000Y-136042000D03*
D29*
X151574000Y-82402000D02*
X147574000Y-78402000D01*
X147574000Y-78402000D02*
X147574000Y-78192000D01*
X141824000Y-82402000D02*
X137824000Y-78402000D01*
X137824000Y-78402000D02*
X137824000Y-78192000D01*
D30*
X147474000Y-130892000D02*
X147424000Y-130942000D01*
X133424000Y-130692000D02*
X133424000Y-132782000D01*
X133424000Y-132782000D02*
X134124000Y-133482000D01*
D29*
X156874000Y-108597000D02*
X156874000Y-107327000D01*
X162524001Y-112142001D02*
X159324000Y-108942000D01*
X162824000Y-112442000D02*
X162524001Y-112142001D01*
X166274000Y-112407000D02*
X166274000Y-113677000D01*
X130324000Y-99522000D02*
X130324000Y-100582660D01*
X130324000Y-100582660D02*
X130533340Y-100792000D01*
X130533340Y-100792000D02*
X131803340Y-100792000D01*
X131803340Y-100792000D02*
X132864000Y-100792000D01*
X156874000Y-103517000D02*
X154024000Y-103517000D01*
X154024000Y-103517000D02*
X153074000Y-102567000D01*
X153074000Y-102567000D02*
X153074000Y-102442000D01*
D30*
X162324000Y-141942000D02*
X162324000Y-141222000D01*
X162324000Y-141222000D02*
X161319000Y-140217000D01*
X162224000Y-139942000D02*
X161594000Y-139942000D01*
X161594000Y-139942000D02*
X161319000Y-140217000D01*
X190824000Y-141942000D02*
X190824000Y-141272000D01*
X190824000Y-141272000D02*
X189769000Y-140217000D01*
X190624000Y-139942000D02*
X190044000Y-139942000D01*
X190044000Y-139942000D02*
X189769000Y-140217000D01*
X176574000Y-141942000D02*
X176574000Y-141272000D01*
X176574000Y-141272000D02*
X175544000Y-140242000D01*
X176624000Y-139942000D02*
X175844000Y-139942000D01*
X175844000Y-139942000D02*
X175544000Y-140242000D01*
X147824000Y-141942000D02*
X147824000Y-141222000D01*
X147824000Y-141222000D02*
X146819000Y-140217000D01*
X147724000Y-139942000D02*
X147094000Y-139942000D01*
X147094000Y-139942000D02*
X146819000Y-140217000D01*
X133324000Y-141942000D02*
X133324000Y-140922000D01*
X133324000Y-140922000D02*
X132544000Y-140142000D01*
X133224000Y-139942000D02*
X132744000Y-139942000D01*
X132744000Y-139942000D02*
X132544000Y-140142000D01*
D29*
X160685425Y-94192000D02*
X159383998Y-95493427D01*
X161724000Y-94192000D02*
X160685425Y-94192000D01*
X155487590Y-95242000D02*
X152574000Y-95242000D01*
X158574000Y-98251998D02*
X158497588Y-98251998D01*
X158497588Y-98251998D02*
X155487590Y-95242000D01*
X148674000Y-105042000D02*
X149574000Y-105042000D01*
X145674000Y-105042000D02*
X148674000Y-105042000D01*
X145074000Y-105642000D02*
X145674000Y-105042000D01*
X135574000Y-106305589D02*
X136237589Y-105642000D01*
X132864000Y-115962000D02*
X135574000Y-113252000D01*
X136237589Y-105642000D02*
X145074000Y-105642000D01*
X135574000Y-113252000D02*
X135574000Y-106305589D01*
X159383998Y-97442000D02*
X158574000Y-98251998D01*
X159383998Y-95493427D02*
X159383998Y-97442000D01*
X131788999Y-114886999D02*
X132114001Y-115212001D01*
X131788999Y-110365999D02*
X131788999Y-114886999D01*
X134199001Y-104128416D02*
X133949002Y-104378415D01*
X133949002Y-108205996D02*
X131788999Y-110365999D01*
X132864000Y-98252000D02*
X134199001Y-99587001D01*
X134199001Y-99587001D02*
X134199001Y-104128416D01*
X133949002Y-104378415D02*
X133949002Y-108205996D01*
X132114001Y-115212001D02*
X132864000Y-115962000D01*
X153074000Y-104942000D02*
X149674000Y-104942000D01*
X149674000Y-104942000D02*
X149574000Y-105042000D01*
X156874000Y-104787000D02*
X153229000Y-104787000D01*
X153229000Y-104787000D02*
X153074000Y-104942000D01*
X162724000Y-94192000D02*
X161724000Y-94192000D01*
X156874000Y-104787000D02*
X158124000Y-104787000D01*
X158124000Y-104787000D02*
X158574000Y-104337000D01*
X158574000Y-104337000D02*
X158574000Y-98251998D01*
D30*
X135924000Y-139942000D02*
X135074000Y-139092000D01*
X135074000Y-139092000D02*
X135074000Y-136902000D01*
X135924000Y-139942000D02*
X136904000Y-139942000D01*
X136904000Y-139942000D02*
X137104000Y-140142000D01*
X135924000Y-139942000D02*
X135924000Y-141842000D01*
X135924000Y-141842000D02*
X135824000Y-141942000D01*
X150424000Y-139942000D02*
X150424000Y-141842000D01*
X150424000Y-141842000D02*
X150324000Y-141942000D01*
X164924000Y-139942000D02*
X165604000Y-139942000D01*
X165604000Y-139942000D02*
X165879000Y-140217000D01*
X165074000Y-139792000D02*
X164924000Y-139942000D01*
X164824000Y-141942000D02*
X164824000Y-141272000D01*
X164824000Y-141272000D02*
X165879000Y-140217000D01*
X179324000Y-139942000D02*
X179804000Y-139942000D01*
X179804000Y-139942000D02*
X180104000Y-140242000D01*
X179074000Y-141942000D02*
X179074000Y-141272000D01*
X179074000Y-141272000D02*
X180104000Y-140242000D01*
X179074000Y-139692000D02*
X179324000Y-139942000D01*
X193324000Y-141942000D02*
X193324000Y-141222000D01*
X193324000Y-141222000D02*
X194329000Y-140217000D01*
X193324000Y-139942000D02*
X194054000Y-139942000D01*
X194054000Y-139942000D02*
X194329000Y-140217000D01*
X193074000Y-139692000D02*
X193324000Y-139942000D01*
D29*
X138574000Y-129942000D02*
X138574000Y-133766996D01*
X138448998Y-133891998D02*
X138448998Y-135519079D01*
X139621919Y-136692000D02*
X140824000Y-136692000D01*
X138574000Y-133766996D02*
X138448998Y-133891998D01*
X139324000Y-129192000D02*
X138574000Y-129942000D01*
X143824000Y-125192000D02*
X139824000Y-129192000D01*
X139824000Y-129192000D02*
X139324000Y-129192000D01*
X152324000Y-125192000D02*
X143824000Y-125192000D01*
X138448998Y-135519079D02*
X139621919Y-136692000D01*
X152324000Y-115442000D02*
X152324000Y-125192000D01*
X152324008Y-109767736D02*
X152324008Y-110192000D01*
X159324000Y-106701999D02*
X155389745Y-106701999D01*
X155389745Y-106701999D02*
X152324008Y-109767736D01*
X164929001Y-106701999D02*
X159324000Y-106701999D01*
X159324000Y-105442000D02*
X159324000Y-106701999D01*
X159324000Y-99116264D02*
X159324000Y-103192000D01*
X159324000Y-98692000D02*
X159324000Y-99116264D01*
X166274000Y-106057000D02*
X165574000Y-106057000D01*
X165574000Y-106057000D02*
X164929001Y-106701999D01*
X152574000Y-125942000D02*
X153074000Y-125442000D01*
X153074000Y-125442000D02*
X153074000Y-115942000D01*
X153074000Y-115942000D02*
X153324000Y-115692000D01*
X154399642Y-109241999D02*
X153670041Y-109971600D01*
X160049000Y-107327000D02*
X158134001Y-109241999D01*
X153670041Y-109971600D02*
X153370042Y-110271599D01*
X158134001Y-109241999D02*
X154399642Y-109241999D01*
X160074000Y-102692000D02*
X160074000Y-97192000D01*
X166274000Y-107327000D02*
X160049000Y-107327000D01*
X152574000Y-128942000D02*
X152574000Y-134232000D01*
X152574000Y-134232000D02*
X155074000Y-136732000D01*
X166274000Y-108597000D02*
X165574000Y-108597000D01*
X163699002Y-110471998D02*
X163699002Y-111755615D01*
X163699002Y-111755615D02*
X163623989Y-111830628D01*
X163623989Y-111830628D02*
X163623989Y-122466957D01*
X163623989Y-122466957D02*
X166274001Y-125116969D01*
X165574000Y-108597000D02*
X163699002Y-110471998D01*
X166274001Y-125116969D02*
X166574000Y-125416968D01*
X160824000Y-96942000D02*
X160824000Y-101942000D01*
X160373999Y-96491999D02*
X160824000Y-96942000D01*
X160074000Y-96192000D02*
X160373999Y-96491999D01*
X167324010Y-133982010D02*
X167324010Y-128866264D01*
X167324010Y-128866264D02*
X167324010Y-128442000D01*
X170074000Y-136732000D02*
X167324010Y-133982010D01*
X160824000Y-103942000D02*
X160824000Y-105442000D01*
X160824000Y-105442000D02*
X160834001Y-105431999D01*
X160834001Y-105431999D02*
X167534001Y-105431999D01*
X167534001Y-105431999D02*
X167824000Y-105721998D01*
X167824000Y-107747000D02*
X166974000Y-108597000D01*
X167824000Y-105721998D02*
X167824000Y-107747000D01*
X166974000Y-108597000D02*
X166274000Y-108597000D01*
X164574000Y-115768413D02*
X164574000Y-122516996D01*
X164149013Y-111942015D02*
X164074000Y-112017028D01*
X164074000Y-115268413D02*
X164574000Y-115768413D01*
X164074000Y-112017028D02*
X164074000Y-115268413D01*
X164149013Y-110741987D02*
X164149013Y-111942015D01*
X166274000Y-109867000D02*
X165024000Y-109867000D01*
X167473972Y-125416968D02*
X180647507Y-125416968D01*
X180647507Y-125416968D02*
X181071771Y-125416968D01*
X165024000Y-109867000D02*
X164149013Y-110741987D01*
X164574000Y-122516996D02*
X167473972Y-125416968D01*
X181324000Y-127616264D02*
X181324000Y-127192000D01*
X184324000Y-136732000D02*
X181324000Y-133732000D01*
X181324000Y-133732000D02*
X181324000Y-127616264D01*
X161523994Y-96403938D02*
X161523994Y-101020883D01*
X160565042Y-95444986D02*
X161523994Y-96403938D01*
X161523994Y-101020883D02*
X161523994Y-101445147D01*
X161604001Y-104161999D02*
X161574000Y-104131998D01*
X161574000Y-104131998D02*
X161574000Y-103442000D01*
X168324000Y-104692000D02*
X167793999Y-104161999D01*
X167793999Y-104161999D02*
X161604001Y-104161999D01*
X168324000Y-109067000D02*
X168324000Y-104692000D01*
X166274000Y-109867000D02*
X167524000Y-109867000D01*
X167524000Y-109867000D02*
X168324000Y-109067000D01*
X164824000Y-111616264D02*
X164824000Y-111192000D01*
X165074000Y-115632002D02*
X164824000Y-115382002D01*
X165074000Y-122192000D02*
X165074000Y-115632002D01*
X194038969Y-124791967D02*
X167673967Y-124791967D01*
X199749001Y-130501999D02*
X194038969Y-124791967D01*
X167673967Y-124791967D02*
X165074000Y-122192000D01*
X199749001Y-135516999D02*
X199749001Y-130501999D01*
X164824000Y-115382002D02*
X164824000Y-111616264D01*
X198574000Y-136692000D02*
X199749001Y-135516999D01*
X162324000Y-108192000D02*
X162324000Y-110442000D01*
X162774001Y-110892001D02*
X163074000Y-111192000D01*
X162324000Y-110442000D02*
X162774001Y-110892001D01*
X164879000Y-111137000D02*
X164824000Y-111192000D01*
X166274000Y-111137000D02*
X164879000Y-111137000D01*
X162324000Y-96192000D02*
X162324000Y-101442000D01*
X161324000Y-95192000D02*
X162324000Y-96192000D01*
X166974000Y-111137000D02*
X167074000Y-111237000D01*
X166274000Y-111137000D02*
X166974000Y-111137000D01*
X153074000Y-99707000D02*
X152463999Y-100317001D01*
X152463999Y-100317001D02*
X150559000Y-100317001D01*
X150434001Y-100442000D02*
X144999002Y-100442000D01*
X150559000Y-100317001D02*
X150434001Y-100442000D01*
X144999002Y-100442000D02*
X142449001Y-102992001D01*
X142449001Y-102992001D02*
X142449001Y-104316999D01*
X142449001Y-104316999D02*
X142074000Y-104692000D01*
X142074000Y-104692000D02*
X136274022Y-104692000D01*
X136274022Y-104692000D02*
X135574021Y-103991999D01*
X135574021Y-103991999D02*
X135274022Y-103692000D01*
X130324000Y-106692004D02*
X133024005Y-103991999D01*
X133024005Y-103991999D02*
X133324004Y-103692000D01*
X130324000Y-109612000D02*
X130324000Y-106692004D01*
X153074000Y-97942000D02*
X153074000Y-99707000D01*
X153074000Y-99707000D02*
X156874000Y-99707000D01*
X130324000Y-91902000D02*
X130324000Y-92192000D01*
X130324000Y-92192000D02*
X131574000Y-93442000D01*
X131399001Y-96866999D02*
X131399001Y-97498001D01*
X131574000Y-93442000D02*
X131574000Y-96692000D01*
X131574000Y-96692000D02*
X131399001Y-96866999D01*
X130208999Y-98057001D02*
X129074000Y-99192000D01*
X131399001Y-97498001D02*
X130840001Y-98057001D01*
X130840001Y-98057001D02*
X130208999Y-98057001D01*
X129074000Y-99192000D02*
X129074000Y-108442000D01*
X129074000Y-108442000D02*
X130324000Y-109692000D01*
X142899012Y-104503399D02*
X142899012Y-103753399D01*
X142899012Y-103753399D02*
X145675411Y-100977000D01*
X134873989Y-105142011D02*
X142260400Y-105142011D01*
X145675411Y-100977000D02*
X149574000Y-100977000D01*
X134574000Y-105442000D02*
X134873989Y-105142011D01*
X142260400Y-105142011D02*
X142899012Y-104503399D01*
X132864000Y-93172000D02*
X134649012Y-94957012D01*
X134649012Y-94957012D02*
X134649012Y-105366988D01*
X134649012Y-105366988D02*
X134574000Y-105442000D01*
X149574000Y-100977000D02*
X156874000Y-100977000D01*
X149574000Y-102342000D02*
X149574000Y-100977000D01*
X134574000Y-107942000D02*
X134574000Y-105442000D01*
X134574000Y-109172000D02*
X134574000Y-107942000D01*
X132864000Y-110882000D02*
X134574000Y-109172000D01*
X165574000Y-102247000D02*
X161519000Y-102247000D01*
X158144002Y-105442000D02*
X158134001Y-105431999D01*
X161519000Y-102247000D02*
X158324000Y-105442000D01*
X158324000Y-105442000D02*
X158144002Y-105442000D01*
X153985389Y-106442000D02*
X136324000Y-106442000D01*
X158134001Y-105431999D02*
X154995390Y-105431999D01*
X133824000Y-117192000D02*
X132074000Y-117192000D01*
X154995390Y-105431999D02*
X153985389Y-106442000D01*
X136324000Y-114692000D02*
X133824000Y-117192000D01*
X136324000Y-106442000D02*
X136324000Y-114692000D01*
X131073999Y-115441999D02*
X130324000Y-114692000D01*
X132074000Y-117192000D02*
X131073999Y-116191999D01*
X131073999Y-116191999D02*
X131073999Y-115441999D01*
X169574000Y-102942000D02*
X168574000Y-102942000D01*
X168574000Y-102942000D02*
X167879000Y-102247000D01*
X167879000Y-102247000D02*
X167524000Y-102247000D01*
X167524000Y-102247000D02*
X166274000Y-102247000D01*
X165424000Y-94192000D02*
X165424000Y-95092000D01*
X165424000Y-95092000D02*
X164574000Y-95942000D01*
X164574000Y-95942000D02*
X164574000Y-101247000D01*
X164574000Y-101247000D02*
X165574000Y-102247000D01*
X165574000Y-102247000D02*
X166274000Y-102247000D01*
X166274000Y-100977000D02*
X168039000Y-100977000D01*
X168039000Y-100977000D02*
X168074000Y-100942000D01*
X166274000Y-100977000D02*
X166974000Y-100977000D01*
X166274000Y-99707000D02*
X167931009Y-99707000D01*
X167931009Y-99707000D02*
X167998979Y-99639030D01*
X166974000Y-99707000D02*
X166274000Y-99707000D01*
X166274000Y-97887000D02*
X167216574Y-96944426D01*
X166274000Y-98437000D02*
X166274000Y-97887000D01*
X167216574Y-96944426D02*
X167548968Y-96944426D01*
D30*
X135924000Y-128442000D02*
X135924000Y-130392000D01*
X135924000Y-130392000D02*
X136224000Y-130692000D01*
X136224000Y-130692000D02*
X136224000Y-133492000D01*
X136224000Y-133492000D02*
X136324000Y-133592000D01*
X150224000Y-130942000D02*
X150224000Y-133392000D01*
X150224000Y-133392000D02*
X150324000Y-133492000D01*
X150174000Y-128442000D02*
X150174000Y-130892000D01*
X150174000Y-130892000D02*
X150224000Y-130942000D01*
X150324000Y-133492000D02*
X150014000Y-133492000D01*
X150014000Y-133492000D02*
X149774000Y-133732000D01*
X165224000Y-130942000D02*
X165224000Y-132892000D01*
X165224000Y-132892000D02*
X165824000Y-133492000D01*
X165174000Y-128442000D02*
X165174000Y-130892000D01*
X165174000Y-130892000D02*
X165224000Y-130942000D01*
X165824000Y-133492000D02*
X165014000Y-133492000D01*
X165014000Y-133492000D02*
X164774000Y-133732000D01*
X179174000Y-128442000D02*
X179174000Y-130892000D01*
X179174000Y-130892000D02*
X179224000Y-130942000D01*
X179324000Y-133342000D02*
X179324000Y-131042000D01*
X179324000Y-131042000D02*
X179224000Y-130942000D01*
X193174000Y-128442000D02*
X193174000Y-130892000D01*
X193174000Y-130892000D02*
X193224000Y-130942000D01*
X193224000Y-130942000D02*
X193224000Y-133242000D01*
X193224000Y-133242000D02*
X193324000Y-133342000D01*
D29*
X155324000Y-126692000D02*
X144824000Y-126692000D01*
X141574000Y-130862000D02*
X140824000Y-131612000D01*
X156874000Y-125142000D02*
X155324000Y-126692000D01*
X141574000Y-129942000D02*
X141574000Y-130862000D01*
X144824000Y-126692000D02*
X141574000Y-129942000D01*
X156874000Y-114947000D02*
X156874000Y-125142000D01*
X144104736Y-114397000D02*
X137324000Y-107616264D01*
X156174000Y-114947000D02*
X155624000Y-114397000D01*
X137324000Y-107616264D02*
X137324000Y-107192000D01*
X155624000Y-114397000D02*
X144104736Y-114397000D01*
X156874000Y-114947000D02*
X156174000Y-114947000D01*
X161873989Y-126491989D02*
X180948989Y-126491989D01*
X184324000Y-129266998D02*
X184324000Y-130552000D01*
X159373989Y-123991989D02*
X161873989Y-126491989D01*
X184324000Y-130552000D02*
X184324000Y-131652000D01*
X159373989Y-112936989D02*
X159373989Y-123991989D01*
X181023999Y-126566999D02*
X181624001Y-126566999D01*
X157574000Y-111137000D02*
X159373989Y-112936989D01*
X181624001Y-126566999D02*
X184324000Y-129266998D01*
X180948989Y-126491989D02*
X181023999Y-126566999D01*
X156874000Y-111137000D02*
X157574000Y-111137000D01*
X141074000Y-107692000D02*
X145074000Y-111692000D01*
X145074000Y-111692000D02*
X153824000Y-111692000D01*
X153824000Y-111692000D02*
X154379000Y-111137000D01*
X154379000Y-111137000D02*
X156874000Y-111137000D01*
X144809000Y-113677000D02*
X138873999Y-107741999D01*
X156874000Y-113677000D02*
X144809000Y-113677000D01*
X138873999Y-107741999D02*
X138574000Y-107442000D01*
X158199001Y-125176999D02*
X155074000Y-128302000D01*
X155074000Y-128302000D02*
X155074000Y-131652000D01*
X155074000Y-131652000D02*
X155074000Y-130552000D01*
X158199001Y-125176999D02*
X158199001Y-114302001D01*
X157574000Y-113677000D02*
X156874000Y-113677000D01*
X158199001Y-114302001D02*
X157574000Y-113677000D01*
X198574000Y-130692000D02*
X194074000Y-126192000D01*
X159824000Y-123692000D02*
X159824000Y-112117000D01*
X157574000Y-109867000D02*
X156874000Y-109867000D01*
X181885413Y-126192000D02*
X181735391Y-126041978D01*
X198574000Y-131612000D02*
X198574000Y-130692000D01*
X194074000Y-126192000D02*
X181885413Y-126192000D01*
X181735391Y-126041978D02*
X162173978Y-126041978D01*
X162173978Y-126041978D02*
X159824000Y-123692000D01*
X159824000Y-112117000D02*
X157574000Y-109867000D01*
X142324000Y-107692000D02*
X145528601Y-110896601D01*
X154699645Y-109867000D02*
X155624000Y-109867000D01*
X153670044Y-110896601D02*
X154699645Y-109867000D01*
X155624000Y-109867000D02*
X156874000Y-109867000D01*
X145528601Y-110896601D02*
X153670044Y-110896601D01*
X166999002Y-126942000D02*
X161687589Y-126942000D01*
X170074000Y-130016998D02*
X166999002Y-126942000D01*
X161687589Y-126942000D02*
X158923978Y-124178389D01*
X158923978Y-113756978D02*
X157574000Y-112407000D01*
X170074000Y-131652000D02*
X170074000Y-130016998D01*
X158923978Y-124178389D02*
X158923978Y-113756978D01*
X157574000Y-112407000D02*
X156874000Y-112407000D01*
X156874000Y-112407000D02*
X156589000Y-112692000D01*
X156589000Y-112692000D02*
X144574000Y-112692000D01*
X144574000Y-112692000D02*
X140123999Y-108241999D01*
X140123999Y-108241999D02*
X140123999Y-107991999D01*
X140123999Y-107991999D02*
X139824000Y-107692000D01*
X155209000Y-106057000D02*
X154074000Y-107192000D01*
X154074000Y-107192000D02*
X143324000Y-107192000D01*
X156874000Y-106057000D02*
X155209000Y-106057000D01*
D31*
G36*
X215114000Y-154982000D02*
X116534000Y-154982000D01*
X116534000Y-153881873D01*
X120938812Y-153881873D01*
X121103646Y-154280800D01*
X121408595Y-154586282D01*
X121807233Y-154751811D01*
X122238873Y-154752188D01*
X122637800Y-154587354D01*
X122943282Y-154282405D01*
X123108811Y-153883767D01*
X123108812Y-153881873D01*
X208538812Y-153881873D01*
X208703646Y-154280800D01*
X209008595Y-154586282D01*
X209407233Y-154751811D01*
X209838873Y-154752188D01*
X210237800Y-154587354D01*
X210543282Y-154282405D01*
X210708811Y-153883767D01*
X210709188Y-153452127D01*
X210544354Y-153053200D01*
X210239405Y-152747718D01*
X210166926Y-152717622D01*
X211349561Y-152717622D01*
X211514395Y-153116549D01*
X211819344Y-153422031D01*
X212217982Y-153587560D01*
X212649622Y-153587937D01*
X213048549Y-153423103D01*
X213354031Y-153118154D01*
X213519560Y-152719516D01*
X213519937Y-152287876D01*
X213355103Y-151888949D01*
X213050154Y-151583467D01*
X212651516Y-151417938D01*
X212219876Y-151417561D01*
X211820949Y-151582395D01*
X211515467Y-151887344D01*
X211349938Y-152285982D01*
X211349561Y-152717622D01*
X210166926Y-152717622D01*
X209840767Y-152582189D01*
X209409127Y-152581812D01*
X209010200Y-152746646D01*
X208704718Y-153051595D01*
X208539189Y-153450233D01*
X208538812Y-153881873D01*
X123108812Y-153881873D01*
X123109188Y-153452127D01*
X122944354Y-153053200D01*
X122639405Y-152747718D01*
X122566926Y-152717622D01*
X123749561Y-152717622D01*
X123914395Y-153116549D01*
X124219344Y-153422031D01*
X124617982Y-153587560D01*
X125049622Y-153587937D01*
X125448549Y-153423103D01*
X125754031Y-153118154D01*
X125919560Y-152719516D01*
X125919561Y-152717622D01*
X205728063Y-152717622D01*
X205892897Y-153116549D01*
X206197846Y-153422031D01*
X206596484Y-153587560D01*
X207028124Y-153587937D01*
X207427051Y-153423103D01*
X207732533Y-153118154D01*
X207898062Y-152719516D01*
X207898439Y-152287876D01*
X207733605Y-151888949D01*
X207428656Y-151583467D01*
X207030018Y-151417938D01*
X206598378Y-151417561D01*
X206199451Y-151582395D01*
X205893969Y-151887344D01*
X205728440Y-152285982D01*
X205728063Y-152717622D01*
X125919561Y-152717622D01*
X125919937Y-152287876D01*
X125755103Y-151888949D01*
X125450154Y-151583467D01*
X125051516Y-151417938D01*
X124619876Y-151417561D01*
X124220949Y-151582395D01*
X123915467Y-151887344D01*
X123749938Y-152285982D01*
X123749561Y-152717622D01*
X122566926Y-152717622D01*
X122240767Y-152582189D01*
X121809127Y-152581812D01*
X121410200Y-152746646D01*
X121104718Y-153051595D01*
X120939189Y-153450233D01*
X120938812Y-153881873D01*
X116534000Y-153881873D01*
X116534000Y-152717622D01*
X118128063Y-152717622D01*
X118292897Y-153116549D01*
X118597846Y-153422031D01*
X118996484Y-153587560D01*
X119428124Y-153587937D01*
X119827051Y-153423103D01*
X120132533Y-153118154D01*
X120298062Y-152719516D01*
X120298439Y-152287876D01*
X120133605Y-151888949D01*
X119828656Y-151583467D01*
X119430018Y-151417938D01*
X118998378Y-151417561D01*
X118599451Y-151582395D01*
X118293969Y-151887344D01*
X118128440Y-152285982D01*
X118128063Y-152717622D01*
X116534000Y-152717622D01*
X116534000Y-149906873D01*
X116963812Y-149906873D01*
X117128646Y-150305800D01*
X117433595Y-150611282D01*
X117832233Y-150776811D01*
X118263873Y-150777188D01*
X118662800Y-150612354D01*
X118968282Y-150307405D01*
X119133811Y-149908767D01*
X119133812Y-149906873D01*
X124913812Y-149906873D01*
X125078646Y-150305800D01*
X125383595Y-150611282D01*
X125782233Y-150776811D01*
X126213873Y-150777188D01*
X126612800Y-150612354D01*
X126918282Y-150307405D01*
X127083811Y-149908767D01*
X127084188Y-149477127D01*
X126919354Y-149078200D01*
X126687355Y-148845795D01*
X140438716Y-148845795D01*
X140687106Y-149446943D01*
X141146637Y-149907278D01*
X141747352Y-150156716D01*
X142397795Y-150157284D01*
X142998943Y-149908894D01*
X143459278Y-149449363D01*
X143708716Y-148848648D01*
X143708788Y-148765795D01*
X155188716Y-148765795D01*
X155437106Y-149366943D01*
X155896637Y-149827278D01*
X156497352Y-150076716D01*
X157147795Y-150077284D01*
X157748943Y-149828894D01*
X158209278Y-149369363D01*
X158458716Y-148768648D01*
X158458718Y-148765795D01*
X169688716Y-148765795D01*
X169937106Y-149366943D01*
X170396637Y-149827278D01*
X170997352Y-150076716D01*
X171647795Y-150077284D01*
X172248943Y-149828894D01*
X172709278Y-149369363D01*
X172958716Y-148768648D01*
X172958718Y-148765795D01*
X183938716Y-148765795D01*
X184187106Y-149366943D01*
X184646637Y-149827278D01*
X185247352Y-150076716D01*
X185897795Y-150077284D01*
X186498943Y-149828894D01*
X186959278Y-149369363D01*
X187208716Y-148768648D01*
X187208718Y-148765795D01*
X198188716Y-148765795D01*
X198437106Y-149366943D01*
X198896637Y-149827278D01*
X199497352Y-150076716D01*
X200147795Y-150077284D01*
X200560219Y-149906873D01*
X204563812Y-149906873D01*
X204728646Y-150305800D01*
X205033595Y-150611282D01*
X205432233Y-150776811D01*
X205863873Y-150777188D01*
X206262800Y-150612354D01*
X206568282Y-150307405D01*
X206733811Y-149908767D01*
X206733812Y-149906873D01*
X212513812Y-149906873D01*
X212678646Y-150305800D01*
X212983595Y-150611282D01*
X213382233Y-150776811D01*
X213813873Y-150777188D01*
X214212800Y-150612354D01*
X214518282Y-150307405D01*
X214683811Y-149908767D01*
X214684188Y-149477127D01*
X214519354Y-149078200D01*
X214214405Y-148772718D01*
X213815767Y-148607189D01*
X213384127Y-148606812D01*
X212985200Y-148771646D01*
X212679718Y-149076595D01*
X212514189Y-149475233D01*
X212513812Y-149906873D01*
X206733812Y-149906873D01*
X206734188Y-149477127D01*
X206569354Y-149078200D01*
X206264405Y-148772718D01*
X205865767Y-148607189D01*
X205434127Y-148606812D01*
X205035200Y-148771646D01*
X204729718Y-149076595D01*
X204564189Y-149475233D01*
X204563812Y-149906873D01*
X200560219Y-149906873D01*
X200748943Y-149828894D01*
X201209278Y-149369363D01*
X201458716Y-148768648D01*
X201459284Y-148118205D01*
X201210894Y-147517057D01*
X200790697Y-147096124D01*
X205728063Y-147096124D01*
X205892897Y-147495051D01*
X206197846Y-147800533D01*
X206596484Y-147966062D01*
X207028124Y-147966439D01*
X207427051Y-147801605D01*
X207732533Y-147496656D01*
X207898062Y-147098018D01*
X207898063Y-147096124D01*
X211349561Y-147096124D01*
X211514395Y-147495051D01*
X211819344Y-147800533D01*
X212217982Y-147966062D01*
X212649622Y-147966439D01*
X213048549Y-147801605D01*
X213354031Y-147496656D01*
X213519560Y-147098018D01*
X213519937Y-146666378D01*
X213355103Y-146267451D01*
X213050154Y-145961969D01*
X212651516Y-145796440D01*
X212219876Y-145796063D01*
X211820949Y-145960897D01*
X211515467Y-146265846D01*
X211349938Y-146664484D01*
X211349561Y-147096124D01*
X207898063Y-147096124D01*
X207898439Y-146666378D01*
X207733605Y-146267451D01*
X207428656Y-145961969D01*
X207356177Y-145931873D01*
X208538812Y-145931873D01*
X208703646Y-146330800D01*
X209008595Y-146636282D01*
X209407233Y-146801811D01*
X209838873Y-146802188D01*
X210237800Y-146637354D01*
X210543282Y-146332405D01*
X210708811Y-145933767D01*
X210709188Y-145502127D01*
X210544354Y-145103200D01*
X210239405Y-144797718D01*
X209840767Y-144632189D01*
X209409127Y-144631812D01*
X209010200Y-144796646D01*
X208704718Y-145101595D01*
X208539189Y-145500233D01*
X208538812Y-145931873D01*
X207356177Y-145931873D01*
X207030018Y-145796440D01*
X206598378Y-145796063D01*
X206199451Y-145960897D01*
X205893969Y-146265846D01*
X205728440Y-146664484D01*
X205728063Y-147096124D01*
X200790697Y-147096124D01*
X200751363Y-147056722D01*
X200150648Y-146807284D01*
X199500205Y-146806716D01*
X198899057Y-147055106D01*
X198438722Y-147514637D01*
X198189284Y-148115352D01*
X198188716Y-148765795D01*
X187208718Y-148765795D01*
X187209284Y-148118205D01*
X186960894Y-147517057D01*
X186501363Y-147056722D01*
X185900648Y-146807284D01*
X185250205Y-146806716D01*
X184649057Y-147055106D01*
X184188722Y-147514637D01*
X183939284Y-148115352D01*
X183938716Y-148765795D01*
X172958718Y-148765795D01*
X172959284Y-148118205D01*
X172710894Y-147517057D01*
X172251363Y-147056722D01*
X171650648Y-146807284D01*
X171000205Y-146806716D01*
X170399057Y-147055106D01*
X169938722Y-147514637D01*
X169689284Y-148115352D01*
X169688716Y-148765795D01*
X158458718Y-148765795D01*
X158459284Y-148118205D01*
X158210894Y-147517057D01*
X157751363Y-147056722D01*
X157150648Y-146807284D01*
X156500205Y-146806716D01*
X155899057Y-147055106D01*
X155438722Y-147514637D01*
X155189284Y-148115352D01*
X155188716Y-148765795D01*
X143708788Y-148765795D01*
X143709284Y-148198205D01*
X143460894Y-147597057D01*
X143001363Y-147136722D01*
X142400648Y-146887284D01*
X141750205Y-146886716D01*
X141149057Y-147135106D01*
X140688722Y-147594637D01*
X140439284Y-148195352D01*
X140438716Y-148845795D01*
X126687355Y-148845795D01*
X126614405Y-148772718D01*
X126215767Y-148607189D01*
X125784127Y-148606812D01*
X125385200Y-148771646D01*
X125079718Y-149076595D01*
X124914189Y-149475233D01*
X124913812Y-149906873D01*
X119133812Y-149906873D01*
X119134188Y-149477127D01*
X118969354Y-149078200D01*
X118664405Y-148772718D01*
X118265767Y-148607189D01*
X117834127Y-148606812D01*
X117435200Y-148771646D01*
X117129718Y-149076595D01*
X116964189Y-149475233D01*
X116963812Y-149906873D01*
X116534000Y-149906873D01*
X116534000Y-147096124D01*
X118128063Y-147096124D01*
X118292897Y-147495051D01*
X118597846Y-147800533D01*
X118996484Y-147966062D01*
X119428124Y-147966439D01*
X119827051Y-147801605D01*
X120132533Y-147496656D01*
X120298062Y-147098018D01*
X120298063Y-147096124D01*
X123749561Y-147096124D01*
X123914395Y-147495051D01*
X124219344Y-147800533D01*
X124617982Y-147966062D01*
X125049622Y-147966439D01*
X125448549Y-147801605D01*
X125754031Y-147496656D01*
X125919560Y-147098018D01*
X125919937Y-146666378D01*
X125755103Y-146267451D01*
X125450154Y-145961969D01*
X125051516Y-145796440D01*
X124619876Y-145796063D01*
X124220949Y-145960897D01*
X123915467Y-146265846D01*
X123749938Y-146664484D01*
X123749561Y-147096124D01*
X120298063Y-147096124D01*
X120298439Y-146666378D01*
X120133605Y-146267451D01*
X119828656Y-145961969D01*
X119756177Y-145931873D01*
X120938812Y-145931873D01*
X121103646Y-146330800D01*
X121408595Y-146636282D01*
X121807233Y-146801811D01*
X122238873Y-146802188D01*
X122637800Y-146637354D01*
X122943282Y-146332405D01*
X123108811Y-145933767D01*
X123109188Y-145502127D01*
X122944354Y-145103200D01*
X122639405Y-144797718D01*
X122240767Y-144632189D01*
X121809127Y-144631812D01*
X121410200Y-144796646D01*
X121104718Y-145101595D01*
X120939189Y-145500233D01*
X120938812Y-145931873D01*
X119756177Y-145931873D01*
X119430018Y-145796440D01*
X118998378Y-145796063D01*
X118599451Y-145960897D01*
X118293969Y-146265846D01*
X118128440Y-146664484D01*
X118128063Y-147096124D01*
X116534000Y-147096124D01*
X116534000Y-143765795D01*
X140438716Y-143765795D01*
X140687106Y-144366943D01*
X141146637Y-144827278D01*
X141747352Y-145076716D01*
X142397795Y-145077284D01*
X142998943Y-144828894D01*
X143459278Y-144369363D01*
X143708716Y-143768648D01*
X143708788Y-143685795D01*
X155188716Y-143685795D01*
X155437106Y-144286943D01*
X155896637Y-144747278D01*
X156497352Y-144996716D01*
X157147795Y-144997284D01*
X157748943Y-144748894D01*
X158209278Y-144289363D01*
X158458716Y-143688648D01*
X158458718Y-143685795D01*
X169688716Y-143685795D01*
X169937106Y-144286943D01*
X170396637Y-144747278D01*
X170997352Y-144996716D01*
X171647795Y-144997284D01*
X172248943Y-144748894D01*
X172709278Y-144289363D01*
X172958716Y-143688648D01*
X172958718Y-143685795D01*
X183938716Y-143685795D01*
X184187106Y-144286943D01*
X184646637Y-144747278D01*
X185247352Y-144996716D01*
X185897795Y-144997284D01*
X186498943Y-144748894D01*
X186959278Y-144289363D01*
X187208716Y-143688648D01*
X187208718Y-143685795D01*
X198188716Y-143685795D01*
X198437106Y-144286943D01*
X198896637Y-144747278D01*
X199497352Y-144996716D01*
X200147795Y-144997284D01*
X200748943Y-144748894D01*
X201209278Y-144289363D01*
X201458716Y-143688648D01*
X201459284Y-143038205D01*
X201210894Y-142437057D01*
X200751363Y-141976722D01*
X200150648Y-141727284D01*
X199500205Y-141726716D01*
X198899057Y-141975106D01*
X198438722Y-142434637D01*
X198189284Y-143035352D01*
X198188716Y-143685795D01*
X187208718Y-143685795D01*
X187209284Y-143038205D01*
X186960894Y-142437057D01*
X186501363Y-141976722D01*
X185900648Y-141727284D01*
X185250205Y-141726716D01*
X184649057Y-141975106D01*
X184188722Y-142434637D01*
X183939284Y-143035352D01*
X183938716Y-143685795D01*
X172958718Y-143685795D01*
X172959284Y-143038205D01*
X172710894Y-142437057D01*
X172251363Y-141976722D01*
X171650648Y-141727284D01*
X171000205Y-141726716D01*
X170399057Y-141975106D01*
X169938722Y-142434637D01*
X169689284Y-143035352D01*
X169688716Y-143685795D01*
X158458718Y-143685795D01*
X158459284Y-143038205D01*
X158210894Y-142437057D01*
X157751363Y-141976722D01*
X157150648Y-141727284D01*
X156500205Y-141726716D01*
X155899057Y-141975106D01*
X155438722Y-142434637D01*
X155189284Y-143035352D01*
X155188716Y-143685795D01*
X143708788Y-143685795D01*
X143709284Y-143118205D01*
X143460894Y-142517057D01*
X143001363Y-142056722D01*
X142400648Y-141807284D01*
X141750205Y-141806716D01*
X141149057Y-142055106D01*
X140688722Y-142514637D01*
X140439284Y-143115352D01*
X140438716Y-143765795D01*
X116534000Y-143765795D01*
X116534000Y-140327167D01*
X131608838Y-140327167D01*
X131750883Y-140670943D01*
X131865002Y-140785261D01*
X131875843Y-140839765D01*
X132002507Y-141029330D01*
X131975843Y-141069235D01*
X131926560Y-141317000D01*
X131926560Y-142567000D01*
X131975843Y-142814765D01*
X132116191Y-143024809D01*
X132326235Y-143165157D01*
X132574000Y-143214440D01*
X134074000Y-143214440D01*
X134321765Y-143165157D01*
X134531809Y-143024809D01*
X134574000Y-142961666D01*
X134616191Y-143024809D01*
X134826235Y-143165157D01*
X135074000Y-143214440D01*
X136574000Y-143214440D01*
X136821765Y-143165157D01*
X137031809Y-143024809D01*
X137172157Y-142814765D01*
X137221440Y-142567000D01*
X137221440Y-141317000D01*
X137173714Y-141077061D01*
X137289167Y-141077162D01*
X137632943Y-140935117D01*
X137896192Y-140672327D01*
X138008372Y-140402167D01*
X145883838Y-140402167D01*
X146025883Y-140745943D01*
X146288673Y-141009192D01*
X146409986Y-141059566D01*
X146466521Y-141116101D01*
X146426560Y-141317000D01*
X146426560Y-142567000D01*
X146475843Y-142814765D01*
X146616191Y-143024809D01*
X146826235Y-143165157D01*
X147074000Y-143214440D01*
X148574000Y-143214440D01*
X148821765Y-143165157D01*
X149031809Y-143024809D01*
X149074000Y-142961666D01*
X149116191Y-143024809D01*
X149326235Y-143165157D01*
X149574000Y-143214440D01*
X151074000Y-143214440D01*
X151321765Y-143165157D01*
X151531809Y-143024809D01*
X151672157Y-142814765D01*
X151721440Y-142567000D01*
X151721440Y-141317000D01*
X151672157Y-141069235D01*
X151645493Y-141029330D01*
X151772157Y-140839765D01*
X151821440Y-140592000D01*
X151821440Y-140402167D01*
X160383838Y-140402167D01*
X160525883Y-140745943D01*
X160788673Y-141009192D01*
X160909986Y-141059566D01*
X160966521Y-141116101D01*
X160926560Y-141317000D01*
X160926560Y-142567000D01*
X160975843Y-142814765D01*
X161116191Y-143024809D01*
X161326235Y-143165157D01*
X161574000Y-143214440D01*
X163074000Y-143214440D01*
X163321765Y-143165157D01*
X163531809Y-143024809D01*
X163574000Y-142961666D01*
X163616191Y-143024809D01*
X163826235Y-143165157D01*
X164074000Y-143214440D01*
X165574000Y-143214440D01*
X165821765Y-143165157D01*
X166031809Y-143024809D01*
X166172157Y-142814765D01*
X166221440Y-142567000D01*
X166221440Y-141317000D01*
X166189774Y-141157805D01*
X166287835Y-141059745D01*
X166407943Y-141010117D01*
X166671192Y-140747327D01*
X166804134Y-140427167D01*
X174608838Y-140427167D01*
X174750883Y-140770943D01*
X175013673Y-141034192D01*
X175134986Y-141084566D01*
X175208225Y-141157805D01*
X175176560Y-141317000D01*
X175176560Y-142567000D01*
X175225843Y-142814765D01*
X175366191Y-143024809D01*
X175576235Y-143165157D01*
X175824000Y-143214440D01*
X177324000Y-143214440D01*
X177571765Y-143165157D01*
X177781809Y-143024809D01*
X177824000Y-142961666D01*
X177866191Y-143024809D01*
X178076235Y-143165157D01*
X178324000Y-143214440D01*
X179824000Y-143214440D01*
X180071765Y-143165157D01*
X180281809Y-143024809D01*
X180422157Y-142814765D01*
X180471440Y-142567000D01*
X180471440Y-141317000D01*
X180439774Y-141157805D01*
X180512835Y-141084745D01*
X180632943Y-141035117D01*
X180896192Y-140772327D01*
X181038838Y-140428799D01*
X181038861Y-140402167D01*
X188833838Y-140402167D01*
X188975883Y-140745943D01*
X189238673Y-141009192D01*
X189359986Y-141059566D01*
X189458225Y-141157805D01*
X189426560Y-141317000D01*
X189426560Y-142567000D01*
X189475843Y-142814765D01*
X189616191Y-143024809D01*
X189826235Y-143165157D01*
X190074000Y-143214440D01*
X191574000Y-143214440D01*
X191821765Y-143165157D01*
X192031809Y-143024809D01*
X192074000Y-142961666D01*
X192116191Y-143024809D01*
X192326235Y-143165157D01*
X192574000Y-143214440D01*
X194074000Y-143214440D01*
X194321765Y-143165157D01*
X194531809Y-143024809D01*
X194672157Y-142814765D01*
X194721440Y-142567000D01*
X194721440Y-141317000D01*
X194681479Y-141116100D01*
X194737835Y-141059745D01*
X194857943Y-141010117D01*
X195121192Y-140747327D01*
X195263838Y-140403799D01*
X195264162Y-140031833D01*
X195122117Y-139688057D01*
X194859327Y-139424808D01*
X194738014Y-139374434D01*
X194721440Y-139357860D01*
X194721440Y-139292000D01*
X194672157Y-139044235D01*
X194531809Y-138834191D01*
X194321765Y-138693843D01*
X194074000Y-138644560D01*
X192574000Y-138644560D01*
X192326235Y-138693843D01*
X192116191Y-138834191D01*
X191975843Y-139044235D01*
X191974000Y-139053500D01*
X191972157Y-139044235D01*
X191831809Y-138834191D01*
X191621765Y-138693843D01*
X191374000Y-138644560D01*
X189874000Y-138644560D01*
X189626235Y-138693843D01*
X189416191Y-138834191D01*
X189275843Y-139044235D01*
X189226560Y-139292000D01*
X189226560Y-139437356D01*
X188976808Y-139686673D01*
X188834162Y-140030201D01*
X188833838Y-140402167D01*
X181038861Y-140402167D01*
X181039162Y-140056833D01*
X180897117Y-139713057D01*
X180721440Y-139537073D01*
X180721440Y-139292000D01*
X180672157Y-139044235D01*
X180531809Y-138834191D01*
X180321765Y-138693843D01*
X180074000Y-138644560D01*
X178574000Y-138644560D01*
X178326235Y-138693843D01*
X178116191Y-138834191D01*
X177975843Y-139044235D01*
X177974000Y-139053500D01*
X177972157Y-139044235D01*
X177831809Y-138834191D01*
X177621765Y-138693843D01*
X177374000Y-138644560D01*
X175874000Y-138644560D01*
X175626235Y-138693843D01*
X175416191Y-138834191D01*
X175275843Y-139044235D01*
X175226560Y-139292000D01*
X175226560Y-139310631D01*
X175218210Y-139316210D01*
X175218208Y-139316213D01*
X175135165Y-139399255D01*
X175015057Y-139448883D01*
X174751808Y-139711673D01*
X174609162Y-140055201D01*
X174608838Y-140427167D01*
X166804134Y-140427167D01*
X166813838Y-140403799D01*
X166814162Y-140031833D01*
X166672117Y-139688057D01*
X166409327Y-139424808D01*
X166321440Y-139388314D01*
X166321440Y-139292000D01*
X166272157Y-139044235D01*
X166131809Y-138834191D01*
X165921765Y-138693843D01*
X165674000Y-138644560D01*
X164174000Y-138644560D01*
X163926235Y-138693843D01*
X163716191Y-138834191D01*
X163575843Y-139044235D01*
X163574000Y-139053500D01*
X163572157Y-139044235D01*
X163431809Y-138834191D01*
X163221765Y-138693843D01*
X162974000Y-138644560D01*
X161474000Y-138644560D01*
X161226235Y-138693843D01*
X161016191Y-138834191D01*
X160875843Y-139044235D01*
X160826560Y-139292000D01*
X160826560Y-139408800D01*
X160790057Y-139423883D01*
X160526808Y-139686673D01*
X160384162Y-140030201D01*
X160383838Y-140402167D01*
X151821440Y-140402167D01*
X151821440Y-139292000D01*
X151772157Y-139044235D01*
X151631809Y-138834191D01*
X151421765Y-138693843D01*
X151174000Y-138644560D01*
X149674000Y-138644560D01*
X149426235Y-138693843D01*
X149216191Y-138834191D01*
X149075843Y-139044235D01*
X149074000Y-139053500D01*
X149072157Y-139044235D01*
X148931809Y-138834191D01*
X148721765Y-138693843D01*
X148474000Y-138644560D01*
X146974000Y-138644560D01*
X146726235Y-138693843D01*
X146516191Y-138834191D01*
X146375843Y-139044235D01*
X146326560Y-139292000D01*
X146326560Y-139408800D01*
X146290057Y-139423883D01*
X146026808Y-139686673D01*
X145884162Y-140030201D01*
X145883838Y-140402167D01*
X138008372Y-140402167D01*
X138038838Y-140328799D01*
X138039162Y-139956833D01*
X137897117Y-139613057D01*
X137634327Y-139349808D01*
X137491006Y-139290296D01*
X137295058Y-139159369D01*
X137272157Y-139044235D01*
X137131809Y-138834191D01*
X136921765Y-138693843D01*
X136674000Y-138644560D01*
X135959000Y-138644560D01*
X135959000Y-137689440D01*
X136974000Y-137689440D01*
X137221765Y-137640157D01*
X137431809Y-137499809D01*
X137572157Y-137289765D01*
X137621440Y-137042000D01*
X137621440Y-135542000D01*
X137572157Y-135294235D01*
X137431809Y-135084191D01*
X137221765Y-134943843D01*
X137212500Y-134942000D01*
X137221765Y-134940157D01*
X137431809Y-134799809D01*
X137572157Y-134589765D01*
X137621440Y-134342000D01*
X137621440Y-132842000D01*
X137572157Y-132594235D01*
X137431809Y-132384191D01*
X137221765Y-132243843D01*
X137109000Y-132221413D01*
X137109000Y-131872533D01*
X137271765Y-131840157D01*
X137481809Y-131699809D01*
X137622157Y-131489765D01*
X137671440Y-131242000D01*
X137671440Y-130142000D01*
X137622157Y-129894235D01*
X137481809Y-129684191D01*
X137406251Y-129633705D01*
X137531809Y-129549809D01*
X137672157Y-129339765D01*
X137721440Y-129092000D01*
X137721440Y-127792000D01*
X137672157Y-127544235D01*
X137531809Y-127334191D01*
X137321765Y-127193843D01*
X137074000Y-127144560D01*
X135574000Y-127144560D01*
X135326235Y-127193843D01*
X135116191Y-127334191D01*
X134975843Y-127544235D01*
X134926560Y-127792000D01*
X134926560Y-129092000D01*
X134975843Y-129339765D01*
X135039000Y-129434285D01*
X135039000Y-130391995D01*
X135038999Y-130392000D01*
X135089156Y-130644148D01*
X135106367Y-130730675D01*
X135247569Y-130942000D01*
X135276560Y-130985388D01*
X135276560Y-131242000D01*
X135325843Y-131489765D01*
X135339000Y-131509456D01*
X135339000Y-132302132D01*
X135216191Y-132384191D01*
X135075843Y-132594235D01*
X135026560Y-132842000D01*
X135026560Y-134342000D01*
X135075843Y-134589765D01*
X135216191Y-134799809D01*
X135426235Y-134940157D01*
X135435500Y-134942000D01*
X135426235Y-134943843D01*
X135216191Y-135084191D01*
X135075843Y-135294235D01*
X135026560Y-135542000D01*
X135026560Y-135966958D01*
X134888833Y-135966838D01*
X134545057Y-136108883D01*
X134281808Y-136371673D01*
X134139162Y-136715201D01*
X134138838Y-137087167D01*
X134189000Y-137208569D01*
X134189000Y-138687326D01*
X133974000Y-138644560D01*
X132474000Y-138644560D01*
X132226235Y-138693843D01*
X132016191Y-138834191D01*
X131875843Y-139044235D01*
X131826560Y-139292000D01*
X131826560Y-139537051D01*
X131751808Y-139611673D01*
X131609162Y-139955201D01*
X131608838Y-140327167D01*
X116534000Y-140327167D01*
X116534000Y-131995991D01*
X120038735Y-131995991D01*
X120271932Y-132560371D01*
X120703357Y-132992551D01*
X121267330Y-133226733D01*
X121877991Y-133227265D01*
X122442371Y-132994068D01*
X122874551Y-132562643D01*
X123108733Y-131998670D01*
X123109265Y-131388009D01*
X122876068Y-130823629D01*
X122444643Y-130391449D01*
X121880670Y-130157267D01*
X121270009Y-130156735D01*
X120705629Y-130389932D01*
X120273449Y-130821357D01*
X120039267Y-131385330D01*
X120038735Y-131995991D01*
X116534000Y-131995991D01*
X116534000Y-120479177D01*
X121513574Y-120479177D01*
X121887298Y-121383657D01*
X122578703Y-122076270D01*
X123482529Y-122451572D01*
X124461177Y-122452426D01*
X125365657Y-122078702D01*
X126058270Y-121387297D01*
X126433572Y-120483471D01*
X126434426Y-119504823D01*
X126060702Y-118600343D01*
X125369297Y-117907730D01*
X124465471Y-117532428D01*
X123486823Y-117531574D01*
X122582343Y-117905298D01*
X121889730Y-118596703D01*
X121514428Y-119500529D01*
X121513574Y-120479177D01*
X116534000Y-120479177D01*
X116534000Y-108609177D01*
X121513574Y-108609177D01*
X121887298Y-109513657D01*
X122578703Y-110206270D01*
X123482529Y-110581572D01*
X124461177Y-110582426D01*
X125365657Y-110208702D01*
X126058270Y-109517297D01*
X126433572Y-108613471D01*
X126434426Y-107634823D01*
X126060702Y-106730343D01*
X125369297Y-106037730D01*
X124465471Y-105662428D01*
X123486823Y-105661574D01*
X122582343Y-106035298D01*
X121889730Y-106726703D01*
X121514428Y-107630529D01*
X121513574Y-108609177D01*
X116534000Y-108609177D01*
X116534000Y-102769177D01*
X121513574Y-102769177D01*
X121887298Y-103673657D01*
X122578703Y-104366270D01*
X123482529Y-104741572D01*
X124461177Y-104742426D01*
X125365657Y-104368702D01*
X126058270Y-103677297D01*
X126433572Y-102773471D01*
X126434426Y-101794823D01*
X126060702Y-100890343D01*
X125369297Y-100197730D01*
X124465471Y-99822428D01*
X123486823Y-99821574D01*
X122582343Y-100195298D01*
X121889730Y-100886703D01*
X121514428Y-101790529D01*
X121513574Y-102769177D01*
X116534000Y-102769177D01*
X116534000Y-99192000D01*
X128314000Y-99192000D01*
X128314000Y-108442000D01*
X128371852Y-108732839D01*
X128536599Y-108979401D01*
X128926560Y-109369362D01*
X128926560Y-110362000D01*
X128975843Y-110609765D01*
X129116191Y-110819809D01*
X129326235Y-110960157D01*
X129519097Y-110998519D01*
X129150539Y-111366436D01*
X128939241Y-111875298D01*
X128938760Y-112426285D01*
X129149169Y-112935515D01*
X129538436Y-113325461D01*
X129770870Y-113421976D01*
X129540485Y-113517169D01*
X129150539Y-113906436D01*
X128939241Y-114415298D01*
X128938760Y-114966285D01*
X129149169Y-115475515D01*
X129538436Y-115865461D01*
X130047298Y-116076759D01*
X130313999Y-116076992D01*
X130313999Y-116191999D01*
X130371851Y-116482838D01*
X130536598Y-116729400D01*
X131536599Y-117729401D01*
X131783161Y-117894148D01*
X132074000Y-117952000D01*
X133824000Y-117952000D01*
X134114839Y-117894148D01*
X134361401Y-117729401D01*
X136861401Y-115229401D01*
X137026148Y-114982839D01*
X137084000Y-114692000D01*
X137084000Y-108451066D01*
X143567335Y-114934401D01*
X143813897Y-115099148D01*
X144104736Y-115157000D01*
X151429939Y-115157000D01*
X151389162Y-115255201D01*
X151388838Y-115627167D01*
X151530883Y-115970943D01*
X151564000Y-116004118D01*
X151564000Y-124432000D01*
X143824000Y-124432000D01*
X143533160Y-124489852D01*
X143286599Y-124654599D01*
X139509198Y-128432000D01*
X139324000Y-128432000D01*
X139033160Y-128489852D01*
X138786599Y-128654599D01*
X138036599Y-129404599D01*
X137871852Y-129651161D01*
X137814000Y-129942000D01*
X137814000Y-133500662D01*
X137746850Y-133601159D01*
X137688998Y-133891998D01*
X137688998Y-135519079D01*
X137746850Y-135809918D01*
X137911597Y-136056480D01*
X139084518Y-137229401D01*
X139331080Y-137394148D01*
X139540182Y-137435741D01*
X139744853Y-137742054D01*
X140226622Y-138063961D01*
X140794907Y-138177000D01*
X140853093Y-138177000D01*
X141421378Y-138063961D01*
X141903147Y-137742054D01*
X142225054Y-137260285D01*
X142338093Y-136692000D01*
X142225054Y-136123715D01*
X141903147Y-135641946D01*
X141573974Y-135422000D01*
X141903147Y-135202054D01*
X142225054Y-134720285D01*
X142338093Y-134152000D01*
X142225054Y-133583715D01*
X141903147Y-133101946D01*
X141859223Y-133072597D01*
X141921765Y-133060157D01*
X142131809Y-132919809D01*
X142272157Y-132709765D01*
X142321440Y-132462000D01*
X142321440Y-130925143D01*
X142334000Y-130862000D01*
X142334000Y-130256802D01*
X145138802Y-127452000D01*
X148887473Y-127452000D01*
X148825843Y-127544235D01*
X148776560Y-127792000D01*
X148776560Y-129092000D01*
X148825843Y-129339765D01*
X148966191Y-129549809D01*
X149176235Y-129690157D01*
X149289000Y-129712587D01*
X149289000Y-129885541D01*
X149216191Y-129934191D01*
X149075843Y-130144235D01*
X149026560Y-130392000D01*
X149026560Y-131492000D01*
X149075843Y-131739765D01*
X149216191Y-131949809D01*
X149339000Y-132031868D01*
X149339000Y-132202132D01*
X149216191Y-132284191D01*
X149075843Y-132494235D01*
X149026560Y-132742000D01*
X149026560Y-133156999D01*
X148981808Y-133201673D01*
X148839162Y-133545201D01*
X148838838Y-133917167D01*
X148980883Y-134260943D01*
X149042632Y-134322800D01*
X149075843Y-134489765D01*
X149216191Y-134699809D01*
X149426235Y-134840157D01*
X149435500Y-134842000D01*
X149426235Y-134843843D01*
X149216191Y-134984191D01*
X149075843Y-135194235D01*
X149026560Y-135442000D01*
X149026560Y-136942000D01*
X149075843Y-137189765D01*
X149216191Y-137399809D01*
X149426235Y-137540157D01*
X149674000Y-137589440D01*
X150974000Y-137589440D01*
X151221765Y-137540157D01*
X151431809Y-137399809D01*
X151572157Y-137189765D01*
X151621440Y-136942000D01*
X151621440Y-135442000D01*
X151572157Y-135194235D01*
X151431809Y-134984191D01*
X151221765Y-134843843D01*
X151212500Y-134842000D01*
X151221765Y-134840157D01*
X151431809Y-134699809D01*
X151572157Y-134489765D01*
X151621440Y-134242000D01*
X151621440Y-132742000D01*
X151572157Y-132494235D01*
X151431809Y-132284191D01*
X151221765Y-132143843D01*
X151109000Y-132121413D01*
X151109000Y-132031868D01*
X151231809Y-131949809D01*
X151372157Y-131739765D01*
X151421440Y-131492000D01*
X151421440Y-130392000D01*
X151372157Y-130144235D01*
X151231809Y-129934191D01*
X151059000Y-129818723D01*
X151059000Y-129712587D01*
X151171765Y-129690157D01*
X151381809Y-129549809D01*
X151522157Y-129339765D01*
X151571440Y-129092000D01*
X151571440Y-127792000D01*
X151522157Y-127544235D01*
X151460527Y-127452000D01*
X154849198Y-127452000D01*
X154536599Y-127764599D01*
X154371852Y-128011161D01*
X154314000Y-128302000D01*
X154314000Y-130154560D01*
X154224000Y-130154560D01*
X153976235Y-130203843D01*
X153766191Y-130344191D01*
X153625843Y-130554235D01*
X153576560Y-130802000D01*
X153576560Y-132502000D01*
X153625843Y-132749765D01*
X153766191Y-132959809D01*
X153976235Y-133100157D01*
X154038777Y-133112597D01*
X153994853Y-133141946D01*
X153672946Y-133623715D01*
X153568019Y-134151217D01*
X153334000Y-133917198D01*
X153334000Y-129504463D01*
X153366192Y-129472327D01*
X153508838Y-129128799D01*
X153509162Y-128756833D01*
X153367117Y-128413057D01*
X153104327Y-128149808D01*
X152760799Y-128007162D01*
X152388833Y-128006838D01*
X152045057Y-128148883D01*
X151781808Y-128411673D01*
X151639162Y-128755201D01*
X151638838Y-129127167D01*
X151780883Y-129470943D01*
X151814000Y-129504118D01*
X151814000Y-134232000D01*
X151871852Y-134522839D01*
X152036599Y-134769401D01*
X153632790Y-136365592D01*
X153559907Y-136732000D01*
X153672946Y-137300285D01*
X153994853Y-137782054D01*
X154476622Y-138103961D01*
X155044907Y-138217000D01*
X155103093Y-138217000D01*
X155671378Y-138103961D01*
X156153147Y-137782054D01*
X156475054Y-137300285D01*
X156588093Y-136732000D01*
X156475054Y-136163715D01*
X156153147Y-135681946D01*
X155823974Y-135462000D01*
X156153147Y-135242054D01*
X156475054Y-134760285D01*
X156588093Y-134192000D01*
X156475054Y-133623715D01*
X156153147Y-133141946D01*
X156109223Y-133112597D01*
X156171765Y-133100157D01*
X156381809Y-132959809D01*
X156522157Y-132749765D01*
X156571440Y-132502000D01*
X156571440Y-130802000D01*
X156522157Y-130554235D01*
X156381809Y-130344191D01*
X156171765Y-130203843D01*
X155924000Y-130154560D01*
X155834000Y-130154560D01*
X155834000Y-128616802D01*
X158736402Y-125714400D01*
X158901149Y-125467838D01*
X158940549Y-125269762D01*
X161150188Y-127479401D01*
X161396750Y-127644148D01*
X161687589Y-127702000D01*
X163794462Y-127702000D01*
X163776560Y-127792000D01*
X163776560Y-129092000D01*
X163825843Y-129339765D01*
X163966191Y-129549809D01*
X164176235Y-129690157D01*
X164289000Y-129712587D01*
X164289000Y-129885541D01*
X164216191Y-129934191D01*
X164075843Y-130144235D01*
X164026560Y-130392000D01*
X164026560Y-131492000D01*
X164075843Y-131739765D01*
X164216191Y-131949809D01*
X164339000Y-132031868D01*
X164339000Y-132202132D01*
X164216191Y-132284191D01*
X164075843Y-132494235D01*
X164026560Y-132742000D01*
X164026560Y-133156999D01*
X163981808Y-133201673D01*
X163839162Y-133545201D01*
X163838838Y-133917167D01*
X163980883Y-134260943D01*
X164042632Y-134322800D01*
X164075843Y-134489765D01*
X164216191Y-134699809D01*
X164426235Y-134840157D01*
X164435500Y-134842000D01*
X164426235Y-134843843D01*
X164216191Y-134984191D01*
X164075843Y-135194235D01*
X164026560Y-135442000D01*
X164026560Y-136942000D01*
X164075843Y-137189765D01*
X164216191Y-137399809D01*
X164426235Y-137540157D01*
X164674000Y-137589440D01*
X165974000Y-137589440D01*
X166221765Y-137540157D01*
X166431809Y-137399809D01*
X166572157Y-137189765D01*
X166621440Y-136942000D01*
X166621440Y-136709688D01*
X166758838Y-136378799D01*
X166759162Y-136006833D01*
X166621440Y-135673519D01*
X166621440Y-135442000D01*
X166572157Y-135194235D01*
X166431809Y-134984191D01*
X166221765Y-134843843D01*
X166212500Y-134842000D01*
X166221765Y-134840157D01*
X166431809Y-134699809D01*
X166572157Y-134489765D01*
X166618583Y-134256364D01*
X166621862Y-134272849D01*
X166786609Y-134519411D01*
X168632790Y-136365592D01*
X168559907Y-136732000D01*
X168672946Y-137300285D01*
X168994853Y-137782054D01*
X169476622Y-138103961D01*
X170044907Y-138217000D01*
X170103093Y-138217000D01*
X170671378Y-138103961D01*
X171153147Y-137782054D01*
X171475054Y-137300285D01*
X171588093Y-136732000D01*
X171475054Y-136163715D01*
X171153147Y-135681946D01*
X170823974Y-135462000D01*
X171153147Y-135242054D01*
X171475054Y-134760285D01*
X171588093Y-134192000D01*
X171475054Y-133623715D01*
X171153147Y-133141946D01*
X171109223Y-133112597D01*
X171171765Y-133100157D01*
X171381809Y-132959809D01*
X171522157Y-132749765D01*
X171571440Y-132502000D01*
X171571440Y-130802000D01*
X171522157Y-130554235D01*
X171381809Y-130344191D01*
X171171765Y-130203843D01*
X170924000Y-130154560D01*
X170834000Y-130154560D01*
X170834000Y-130016998D01*
X170776148Y-129726159D01*
X170611401Y-129479597D01*
X168383793Y-127251989D01*
X178089214Y-127251989D01*
X177966191Y-127334191D01*
X177825843Y-127544235D01*
X177776560Y-127792000D01*
X177776560Y-129092000D01*
X177825843Y-129339765D01*
X177966191Y-129549809D01*
X178176235Y-129690157D01*
X178289000Y-129712587D01*
X178289000Y-129885541D01*
X178216191Y-129934191D01*
X178075843Y-130144235D01*
X178026560Y-130392000D01*
X178026560Y-131492000D01*
X178075843Y-131739765D01*
X178216191Y-131949809D01*
X178354164Y-132042000D01*
X178216191Y-132134191D01*
X178075843Y-132344235D01*
X178026560Y-132592000D01*
X178026560Y-134092000D01*
X178075843Y-134339765D01*
X178216191Y-134549809D01*
X178426235Y-134690157D01*
X178435500Y-134692000D01*
X178426235Y-134693843D01*
X178216191Y-134834191D01*
X178075843Y-135044235D01*
X178026560Y-135292000D01*
X178026560Y-136792000D01*
X178075843Y-137039765D01*
X178216191Y-137249809D01*
X178426235Y-137390157D01*
X178674000Y-137439440D01*
X179974000Y-137439440D01*
X180221765Y-137390157D01*
X180431809Y-137249809D01*
X180572157Y-137039765D01*
X180621440Y-136792000D01*
X180621440Y-135292000D01*
X180572157Y-135044235D01*
X180431809Y-134834191D01*
X180221765Y-134693843D01*
X180212500Y-134692000D01*
X180221765Y-134690157D01*
X180431809Y-134549809D01*
X180572157Y-134339765D01*
X180621440Y-134092000D01*
X180621440Y-134020768D01*
X180621852Y-134022839D01*
X180786599Y-134269401D01*
X182882790Y-136365592D01*
X182809907Y-136732000D01*
X182922946Y-137300285D01*
X183244853Y-137782054D01*
X183726622Y-138103961D01*
X184294907Y-138217000D01*
X184353093Y-138217000D01*
X184921378Y-138103961D01*
X185403147Y-137782054D01*
X185725054Y-137300285D01*
X185838093Y-136732000D01*
X185725054Y-136163715D01*
X185403147Y-135681946D01*
X185073974Y-135462000D01*
X185403147Y-135242054D01*
X185725054Y-134760285D01*
X185838093Y-134192000D01*
X185725054Y-133623715D01*
X185403147Y-133141946D01*
X185359223Y-133112597D01*
X185421765Y-133100157D01*
X185631809Y-132959809D01*
X185772157Y-132749765D01*
X185821440Y-132502000D01*
X185821440Y-130802000D01*
X185772157Y-130554235D01*
X185631809Y-130344191D01*
X185421765Y-130203843D01*
X185174000Y-130154560D01*
X185084000Y-130154560D01*
X185084000Y-129266998D01*
X185056186Y-129127167D01*
X185026148Y-128976158D01*
X184861401Y-128729597D01*
X183083804Y-126952000D01*
X193759198Y-126952000D01*
X193958650Y-127151452D01*
X193924000Y-127144560D01*
X192424000Y-127144560D01*
X192176235Y-127193843D01*
X191966191Y-127334191D01*
X191825843Y-127544235D01*
X191776560Y-127792000D01*
X191776560Y-129092000D01*
X191825843Y-129339765D01*
X191966191Y-129549809D01*
X192176235Y-129690157D01*
X192289000Y-129712587D01*
X192289000Y-129885541D01*
X192216191Y-129934191D01*
X192075843Y-130144235D01*
X192026560Y-130392000D01*
X192026560Y-131492000D01*
X192075843Y-131739765D01*
X192216191Y-131949809D01*
X192339000Y-132031868D01*
X192339000Y-132052132D01*
X192216191Y-132134191D01*
X192075843Y-132344235D01*
X192026560Y-132592000D01*
X192026560Y-134092000D01*
X192075843Y-134339765D01*
X192216191Y-134549809D01*
X192426235Y-134690157D01*
X192435500Y-134692000D01*
X192426235Y-134693843D01*
X192216191Y-134834191D01*
X192075843Y-135044235D01*
X192026560Y-135292000D01*
X192026560Y-136792000D01*
X192075843Y-137039765D01*
X192216191Y-137249809D01*
X192426235Y-137390157D01*
X192674000Y-137439440D01*
X193974000Y-137439440D01*
X194221765Y-137390157D01*
X194431809Y-137249809D01*
X194572157Y-137039765D01*
X194621440Y-136792000D01*
X194621440Y-135292000D01*
X194572157Y-135044235D01*
X194431809Y-134834191D01*
X194221765Y-134693843D01*
X194212500Y-134692000D01*
X194221765Y-134690157D01*
X194431809Y-134549809D01*
X194572157Y-134339765D01*
X194621440Y-134092000D01*
X194621440Y-132592000D01*
X194572157Y-132344235D01*
X194431809Y-132134191D01*
X194221765Y-131993843D01*
X194178722Y-131985281D01*
X194231809Y-131949809D01*
X194372157Y-131739765D01*
X194421440Y-131492000D01*
X194421440Y-130392000D01*
X194372157Y-130144235D01*
X194231809Y-129934191D01*
X194059000Y-129818723D01*
X194059000Y-129712587D01*
X194171765Y-129690157D01*
X194381809Y-129549809D01*
X194522157Y-129339765D01*
X194571440Y-129092000D01*
X194571440Y-127792000D01*
X194564548Y-127757350D01*
X197204186Y-130396988D01*
X197125843Y-130514235D01*
X197076560Y-130762000D01*
X197076560Y-132462000D01*
X197125843Y-132709765D01*
X197266191Y-132919809D01*
X197476235Y-133060157D01*
X197538777Y-133072597D01*
X197494853Y-133101946D01*
X197172946Y-133583715D01*
X197059907Y-134152000D01*
X197172946Y-134720285D01*
X197494853Y-135202054D01*
X197824026Y-135422000D01*
X197494853Y-135641946D01*
X197172946Y-136123715D01*
X197059907Y-136692000D01*
X197172946Y-137260285D01*
X197494853Y-137742054D01*
X197976622Y-138063961D01*
X198544907Y-138177000D01*
X198603093Y-138177000D01*
X199171378Y-138063961D01*
X199653147Y-137742054D01*
X199975054Y-137260285D01*
X200088093Y-136692000D01*
X200015210Y-136325592D01*
X200286402Y-136054400D01*
X200451149Y-135807839D01*
X200509001Y-135516999D01*
X200509001Y-130501999D01*
X200451149Y-130211160D01*
X200286402Y-129964598D01*
X194576370Y-124254566D01*
X194329808Y-124089819D01*
X194038969Y-124031967D01*
X167988769Y-124031967D01*
X165834000Y-121877198D01*
X165834000Y-115894440D01*
X167274000Y-115894440D01*
X167521765Y-115845157D01*
X167731809Y-115704809D01*
X167872157Y-115494765D01*
X167921440Y-115247000D01*
X167921440Y-114647000D01*
X167872157Y-114399235D01*
X167731809Y-114189191D01*
X167521765Y-114048843D01*
X167274000Y-113999560D01*
X165584000Y-113999560D01*
X165584000Y-112084440D01*
X167274000Y-112084440D01*
X167521765Y-112035157D01*
X167731809Y-111894809D01*
X167872157Y-111684765D01*
X167921440Y-111437000D01*
X167921440Y-110837000D01*
X167872157Y-110589235D01*
X167845186Y-110548871D01*
X168061401Y-110404401D01*
X168861401Y-109604401D01*
X169026148Y-109357839D01*
X169084000Y-109067000D01*
X169084000Y-104692000D01*
X169026148Y-104401161D01*
X168901385Y-104214440D01*
X170324000Y-104214440D01*
X170571765Y-104165157D01*
X170781809Y-104024809D01*
X170922157Y-103814765D01*
X170971440Y-103567000D01*
X170971440Y-102317000D01*
X170922157Y-102069235D01*
X170781809Y-101859191D01*
X170571765Y-101718843D01*
X170324000Y-101669560D01*
X168824000Y-101669560D01*
X168629948Y-101708159D01*
X168866192Y-101472327D01*
X169008838Y-101128799D01*
X169009162Y-100756833D01*
X168867117Y-100413057D01*
X168707360Y-100253021D01*
X168791171Y-100169357D01*
X168933817Y-99825829D01*
X168934141Y-99453863D01*
X168792096Y-99110087D01*
X168529306Y-98846838D01*
X168185778Y-98704192D01*
X167921440Y-98703962D01*
X167921440Y-98137000D01*
X167872157Y-97889235D01*
X167837244Y-97836984D01*
X168077911Y-97737543D01*
X168341160Y-97474753D01*
X168483806Y-97131225D01*
X168484130Y-96759259D01*
X168342085Y-96415483D01*
X168079295Y-96152234D01*
X167735767Y-96009588D01*
X167363801Y-96009264D01*
X167020025Y-96151309D01*
X166929684Y-96241492D01*
X166925735Y-96242278D01*
X166679173Y-96407025D01*
X165736599Y-97349599D01*
X165643080Y-97489560D01*
X165334000Y-97489560D01*
X165334000Y-96256802D01*
X165961401Y-95629401D01*
X166054920Y-95489440D01*
X166174000Y-95489440D01*
X166421765Y-95440157D01*
X166631809Y-95299809D01*
X166772157Y-95089765D01*
X166821440Y-94842000D01*
X166821440Y-93542000D01*
X166772157Y-93294235D01*
X166631809Y-93084191D01*
X166421765Y-92943843D01*
X166174000Y-92894560D01*
X164674000Y-92894560D01*
X164426235Y-92943843D01*
X164216191Y-93084191D01*
X164075843Y-93294235D01*
X164074000Y-93303500D01*
X164072157Y-93294235D01*
X163931809Y-93084191D01*
X163721765Y-92943843D01*
X163474000Y-92894560D01*
X161974000Y-92894560D01*
X161726235Y-92943843D01*
X161516191Y-93084191D01*
X161375843Y-93294235D01*
X161348440Y-93432000D01*
X160685425Y-93432000D01*
X160394586Y-93489852D01*
X160148024Y-93654599D01*
X158846597Y-94956026D01*
X158681850Y-95202588D01*
X158623998Y-95493427D01*
X158623998Y-97127198D01*
X158535794Y-97215402D01*
X156024991Y-94704599D01*
X155778429Y-94539852D01*
X155487590Y-94482000D01*
X154369451Y-94482000D01*
X154322157Y-94244235D01*
X154181809Y-94034191D01*
X153971765Y-93893843D01*
X153724000Y-93844560D01*
X152424000Y-93844560D01*
X152176235Y-93893843D01*
X151966191Y-94034191D01*
X151825843Y-94244235D01*
X151776560Y-94492000D01*
X151776560Y-95992000D01*
X151825843Y-96239765D01*
X151966191Y-96449809D01*
X152176235Y-96590157D01*
X152185500Y-96592000D01*
X152176235Y-96593843D01*
X151966191Y-96734191D01*
X151825843Y-96944235D01*
X151776560Y-97192000D01*
X151776560Y-98692000D01*
X151825843Y-98939765D01*
X151966191Y-99149809D01*
X152176235Y-99290157D01*
X152314000Y-99317560D01*
X152314000Y-99392198D01*
X152149197Y-99557001D01*
X150559000Y-99557001D01*
X150268160Y-99614853D01*
X150167668Y-99682000D01*
X144999002Y-99682000D01*
X144708163Y-99739852D01*
X144461601Y-99904599D01*
X141911600Y-102454600D01*
X141746853Y-102701162D01*
X141689001Y-102992001D01*
X141689001Y-103932000D01*
X136588824Y-103932000D01*
X136209144Y-103552320D01*
X136209184Y-103506833D01*
X136067139Y-103163057D01*
X135804349Y-102899808D01*
X135460821Y-102757162D01*
X135409012Y-102757117D01*
X135409012Y-94957012D01*
X135397902Y-94901161D01*
X135351160Y-94666172D01*
X135186413Y-94419611D01*
X134239002Y-93472200D01*
X134248759Y-93448702D01*
X134249240Y-92897715D01*
X134038831Y-92388485D01*
X133649564Y-91998539D01*
X133140702Y-91787241D01*
X132589715Y-91786760D01*
X132080485Y-91997169D01*
X131721440Y-92355589D01*
X131721440Y-91152000D01*
X131672157Y-90904235D01*
X131531809Y-90694191D01*
X131321765Y-90553843D01*
X131074000Y-90504560D01*
X129574000Y-90504560D01*
X129326235Y-90553843D01*
X129116191Y-90694191D01*
X128975843Y-90904235D01*
X128926560Y-91152000D01*
X128926560Y-92652000D01*
X128975843Y-92899765D01*
X129116191Y-93109809D01*
X129326235Y-93250157D01*
X129519097Y-93288519D01*
X129150539Y-93656436D01*
X128939241Y-94165298D01*
X128938760Y-94716285D01*
X129149169Y-95225515D01*
X129538436Y-95615461D01*
X129770870Y-95711976D01*
X129540485Y-95807169D01*
X129150539Y-96196436D01*
X128939241Y-96705298D01*
X128938760Y-97256285D01*
X129149169Y-97765515D01*
X129287306Y-97903892D01*
X128536599Y-98654599D01*
X128371852Y-98901161D01*
X128314000Y-99192000D01*
X116534000Y-99192000D01*
X116534000Y-90899177D01*
X121513574Y-90899177D01*
X121887298Y-91803657D01*
X122578703Y-92496270D01*
X123482529Y-92871572D01*
X124461177Y-92872426D01*
X125365657Y-92498702D01*
X126058270Y-91807297D01*
X126433572Y-90903471D01*
X126434426Y-89924823D01*
X126060702Y-89020343D01*
X125636895Y-88595795D01*
X175188716Y-88595795D01*
X175437106Y-89196943D01*
X175896637Y-89657278D01*
X176497352Y-89906716D01*
X177147795Y-89907284D01*
X177748943Y-89658894D01*
X178209278Y-89199363D01*
X178458716Y-88598648D01*
X178458718Y-88595795D01*
X182688716Y-88595795D01*
X182937106Y-89196943D01*
X183396637Y-89657278D01*
X183997352Y-89906716D01*
X184647795Y-89907284D01*
X185248943Y-89658894D01*
X185709278Y-89199363D01*
X185958716Y-88598648D01*
X185958718Y-88595795D01*
X190188716Y-88595795D01*
X190437106Y-89196943D01*
X190896637Y-89657278D01*
X191497352Y-89906716D01*
X192147795Y-89907284D01*
X192748943Y-89658894D01*
X193209278Y-89199363D01*
X193458716Y-88598648D01*
X193458718Y-88595795D01*
X197688716Y-88595795D01*
X197937106Y-89196943D01*
X198396637Y-89657278D01*
X198997352Y-89906716D01*
X199647795Y-89907284D01*
X200248943Y-89658894D01*
X200709278Y-89199363D01*
X200958716Y-88598648D01*
X200959284Y-87948205D01*
X200710894Y-87347057D01*
X200251363Y-86886722D01*
X199650648Y-86637284D01*
X199000205Y-86636716D01*
X198399057Y-86885106D01*
X197938722Y-87344637D01*
X197689284Y-87945352D01*
X197688716Y-88595795D01*
X193458718Y-88595795D01*
X193459284Y-87948205D01*
X193210894Y-87347057D01*
X192751363Y-86886722D01*
X192150648Y-86637284D01*
X191500205Y-86636716D01*
X190899057Y-86885106D01*
X190438722Y-87344637D01*
X190189284Y-87945352D01*
X190188716Y-88595795D01*
X185958718Y-88595795D01*
X185959284Y-87948205D01*
X185710894Y-87347057D01*
X185251363Y-86886722D01*
X184650648Y-86637284D01*
X184000205Y-86636716D01*
X183399057Y-86885106D01*
X182938722Y-87344637D01*
X182689284Y-87945352D01*
X182688716Y-88595795D01*
X178458718Y-88595795D01*
X178459284Y-87948205D01*
X178210894Y-87347057D01*
X177751363Y-86886722D01*
X177150648Y-86637284D01*
X176500205Y-86636716D01*
X175899057Y-86885106D01*
X175438722Y-87344637D01*
X175189284Y-87945352D01*
X175188716Y-88595795D01*
X125636895Y-88595795D01*
X125369297Y-88327730D01*
X124465471Y-87952428D01*
X123486823Y-87951574D01*
X122582343Y-88325298D01*
X121889730Y-89016703D01*
X121514428Y-89920529D01*
X121513574Y-90899177D01*
X116534000Y-90899177D01*
X116534000Y-85881873D01*
X120938812Y-85881873D01*
X121103646Y-86280800D01*
X121408595Y-86586282D01*
X121807233Y-86751811D01*
X122238873Y-86752188D01*
X122637800Y-86587354D01*
X122943282Y-86282405D01*
X123108811Y-85883767D01*
X123109188Y-85452127D01*
X122944354Y-85053200D01*
X122639405Y-84747718D01*
X122566926Y-84717622D01*
X123749561Y-84717622D01*
X123914395Y-85116549D01*
X124219344Y-85422031D01*
X124617982Y-85587560D01*
X125049622Y-85587937D01*
X125448549Y-85423103D01*
X125754031Y-85118154D01*
X125919560Y-84719516D01*
X125919937Y-84287876D01*
X125839003Y-84092000D01*
X135246560Y-84092000D01*
X135246560Y-85792000D01*
X135295843Y-86039765D01*
X135436191Y-86249809D01*
X135646235Y-86390157D01*
X135894000Y-86439440D01*
X137594000Y-86439440D01*
X137841765Y-86390157D01*
X138051809Y-86249809D01*
X138192157Y-86039765D01*
X138204597Y-85977223D01*
X138233946Y-86021147D01*
X138715715Y-86343054D01*
X139284000Y-86456093D01*
X139852285Y-86343054D01*
X140334054Y-86021147D01*
X140554000Y-85691974D01*
X140773946Y-86021147D01*
X141255715Y-86343054D01*
X141824000Y-86456093D01*
X142392285Y-86343054D01*
X142874054Y-86021147D01*
X143195961Y-85539378D01*
X143309000Y-84971093D01*
X143309000Y-84912907D01*
X143195961Y-84344622D01*
X143027165Y-84092000D01*
X144996560Y-84092000D01*
X144996560Y-85792000D01*
X145045843Y-86039765D01*
X145186191Y-86249809D01*
X145396235Y-86390157D01*
X145644000Y-86439440D01*
X147344000Y-86439440D01*
X147591765Y-86390157D01*
X147801809Y-86249809D01*
X147942157Y-86039765D01*
X147954597Y-85977223D01*
X147983946Y-86021147D01*
X148465715Y-86343054D01*
X149034000Y-86456093D01*
X149602285Y-86343054D01*
X150084054Y-86021147D01*
X150304000Y-85691974D01*
X150523946Y-86021147D01*
X151005715Y-86343054D01*
X151574000Y-86456093D01*
X151786183Y-86413887D01*
X161099000Y-86413887D01*
X161099000Y-86470113D01*
X161208233Y-87019264D01*
X161519302Y-87484811D01*
X161984849Y-87795880D01*
X162534000Y-87905113D01*
X163083151Y-87795880D01*
X163548698Y-87484811D01*
X163804000Y-87102725D01*
X164059302Y-87484811D01*
X164524849Y-87795880D01*
X165074000Y-87905113D01*
X165623151Y-87795880D01*
X166088698Y-87484811D01*
X166344000Y-87102725D01*
X166599302Y-87484811D01*
X167064849Y-87795880D01*
X167614000Y-87905113D01*
X168163151Y-87795880D01*
X168628698Y-87484811D01*
X168939767Y-87019264D01*
X169049000Y-86470113D01*
X169049000Y-86413887D01*
X168943176Y-85881873D01*
X208538812Y-85881873D01*
X208703646Y-86280800D01*
X209008595Y-86586282D01*
X209407233Y-86751811D01*
X209838873Y-86752188D01*
X210237800Y-86587354D01*
X210543282Y-86282405D01*
X210708811Y-85883767D01*
X210709188Y-85452127D01*
X210544354Y-85053200D01*
X210239405Y-84747718D01*
X210166926Y-84717622D01*
X211349561Y-84717622D01*
X211514395Y-85116549D01*
X211819344Y-85422031D01*
X212217982Y-85587560D01*
X212649622Y-85587937D01*
X213048549Y-85423103D01*
X213354031Y-85118154D01*
X213519560Y-84719516D01*
X213519937Y-84287876D01*
X213355103Y-83888949D01*
X213050154Y-83583467D01*
X212651516Y-83417938D01*
X212219876Y-83417561D01*
X211820949Y-83582395D01*
X211515467Y-83887344D01*
X211349938Y-84285982D01*
X211349561Y-84717622D01*
X210166926Y-84717622D01*
X209840767Y-84582189D01*
X209409127Y-84581812D01*
X209010200Y-84746646D01*
X208704718Y-85051595D01*
X208539189Y-85450233D01*
X208538812Y-85881873D01*
X168943176Y-85881873D01*
X168939767Y-85864736D01*
X168628698Y-85399189D01*
X168163151Y-85088120D01*
X167614000Y-84978887D01*
X167064849Y-85088120D01*
X166599302Y-85399189D01*
X166344000Y-85781275D01*
X166088698Y-85399189D01*
X165623151Y-85088120D01*
X165074000Y-84978887D01*
X164524849Y-85088120D01*
X164059302Y-85399189D01*
X163804000Y-85781275D01*
X163548698Y-85399189D01*
X163083151Y-85088120D01*
X162534000Y-84978887D01*
X161984849Y-85088120D01*
X161519302Y-85399189D01*
X161208233Y-85864736D01*
X161099000Y-86413887D01*
X151786183Y-86413887D01*
X152142285Y-86343054D01*
X152624054Y-86021147D01*
X152945961Y-85539378D01*
X153059000Y-84971093D01*
X153059000Y-84912907D01*
X152945961Y-84344622D01*
X152624054Y-83862853D01*
X152142285Y-83540946D01*
X152015843Y-83515795D01*
X175188716Y-83515795D01*
X175437106Y-84116943D01*
X175896637Y-84577278D01*
X176497352Y-84826716D01*
X177147795Y-84827284D01*
X177748943Y-84578894D01*
X178209278Y-84119363D01*
X178458716Y-83518648D01*
X178458718Y-83515795D01*
X182688716Y-83515795D01*
X182937106Y-84116943D01*
X183396637Y-84577278D01*
X183997352Y-84826716D01*
X184647795Y-84827284D01*
X185248943Y-84578894D01*
X185709278Y-84119363D01*
X185958716Y-83518648D01*
X185958718Y-83515795D01*
X190188716Y-83515795D01*
X190437106Y-84116943D01*
X190896637Y-84577278D01*
X191497352Y-84826716D01*
X192147795Y-84827284D01*
X192748943Y-84578894D01*
X193209278Y-84119363D01*
X193458716Y-83518648D01*
X193458718Y-83515795D01*
X197688716Y-83515795D01*
X197937106Y-84116943D01*
X198396637Y-84577278D01*
X198997352Y-84826716D01*
X199647795Y-84827284D01*
X199913196Y-84717622D01*
X205728063Y-84717622D01*
X205892897Y-85116549D01*
X206197846Y-85422031D01*
X206596484Y-85587560D01*
X207028124Y-85587937D01*
X207427051Y-85423103D01*
X207732533Y-85118154D01*
X207898062Y-84719516D01*
X207898439Y-84287876D01*
X207733605Y-83888949D01*
X207428656Y-83583467D01*
X207030018Y-83417938D01*
X206598378Y-83417561D01*
X206199451Y-83582395D01*
X205893969Y-83887344D01*
X205728440Y-84285982D01*
X205728063Y-84717622D01*
X199913196Y-84717622D01*
X200248943Y-84578894D01*
X200709278Y-84119363D01*
X200958716Y-83518648D01*
X200959284Y-82868205D01*
X200710894Y-82267057D01*
X200351340Y-81906873D01*
X204563812Y-81906873D01*
X204728646Y-82305800D01*
X205033595Y-82611282D01*
X205432233Y-82776811D01*
X205863873Y-82777188D01*
X206262800Y-82612354D01*
X206568282Y-82307405D01*
X206733811Y-81908767D01*
X206733812Y-81906873D01*
X212513812Y-81906873D01*
X212678646Y-82305800D01*
X212983595Y-82611282D01*
X213382233Y-82776811D01*
X213813873Y-82777188D01*
X214212800Y-82612354D01*
X214518282Y-82307405D01*
X214683811Y-81908767D01*
X214684188Y-81477127D01*
X214519354Y-81078200D01*
X214214405Y-80772718D01*
X213815767Y-80607189D01*
X213384127Y-80606812D01*
X212985200Y-80771646D01*
X212679718Y-81076595D01*
X212514189Y-81475233D01*
X212513812Y-81906873D01*
X206733812Y-81906873D01*
X206734188Y-81477127D01*
X206569354Y-81078200D01*
X206264405Y-80772718D01*
X205865767Y-80607189D01*
X205434127Y-80606812D01*
X205035200Y-80771646D01*
X204729718Y-81076595D01*
X204564189Y-81475233D01*
X204563812Y-81906873D01*
X200351340Y-81906873D01*
X200251363Y-81806722D01*
X199650648Y-81557284D01*
X199000205Y-81556716D01*
X198399057Y-81805106D01*
X197938722Y-82264637D01*
X197689284Y-82865352D01*
X197688716Y-83515795D01*
X193458718Y-83515795D01*
X193459284Y-82868205D01*
X193210894Y-82267057D01*
X192751363Y-81806722D01*
X192150648Y-81557284D01*
X191500205Y-81556716D01*
X190899057Y-81805106D01*
X190438722Y-82264637D01*
X190189284Y-82865352D01*
X190188716Y-83515795D01*
X185958718Y-83515795D01*
X185959284Y-82868205D01*
X185710894Y-82267057D01*
X185251363Y-81806722D01*
X184650648Y-81557284D01*
X184000205Y-81556716D01*
X183399057Y-81805106D01*
X182938722Y-82264637D01*
X182689284Y-82865352D01*
X182688716Y-83515795D01*
X178458718Y-83515795D01*
X178459284Y-82868205D01*
X178210894Y-82267057D01*
X177751363Y-81806722D01*
X177150648Y-81557284D01*
X176500205Y-81556716D01*
X175899057Y-81805106D01*
X175438722Y-82264637D01*
X175189284Y-82865352D01*
X175188716Y-83515795D01*
X152015843Y-83515795D01*
X151574000Y-83427907D01*
X151005715Y-83540946D01*
X150523946Y-83862853D01*
X150304000Y-84192026D01*
X150084054Y-83862853D01*
X149798422Y-83672000D01*
X150084054Y-83481147D01*
X150405961Y-82999378D01*
X150519000Y-82431093D01*
X150519000Y-82372907D01*
X150405961Y-81804622D01*
X150084054Y-81322853D01*
X149602285Y-81000946D01*
X149034000Y-80887907D01*
X148465715Y-81000946D01*
X147983946Y-81322853D01*
X147764000Y-81652026D01*
X147544054Y-81322853D01*
X147062285Y-81000946D01*
X146494000Y-80887907D01*
X145925715Y-81000946D01*
X145443946Y-81322853D01*
X145122039Y-81804622D01*
X145009000Y-82372907D01*
X145009000Y-82431093D01*
X145122039Y-82999378D01*
X145443946Y-83481147D01*
X145447643Y-83483617D01*
X145396235Y-83493843D01*
X145186191Y-83634191D01*
X145045843Y-83844235D01*
X144996560Y-84092000D01*
X143027165Y-84092000D01*
X142874054Y-83862853D01*
X142392285Y-83540946D01*
X141824000Y-83427907D01*
X141255715Y-83540946D01*
X140773946Y-83862853D01*
X140554000Y-84192026D01*
X140334054Y-83862853D01*
X140048422Y-83672000D01*
X140334054Y-83481147D01*
X140655961Y-82999378D01*
X140769000Y-82431093D01*
X140769000Y-82372907D01*
X140655961Y-81804622D01*
X140334054Y-81322853D01*
X139852285Y-81000946D01*
X139284000Y-80887907D01*
X138715715Y-81000946D01*
X138233946Y-81322853D01*
X138014000Y-81652026D01*
X137794054Y-81322853D01*
X137312285Y-81000946D01*
X136744000Y-80887907D01*
X136175715Y-81000946D01*
X135693946Y-81322853D01*
X135372039Y-81804622D01*
X135259000Y-82372907D01*
X135259000Y-82431093D01*
X135372039Y-82999378D01*
X135693946Y-83481147D01*
X135697643Y-83483617D01*
X135646235Y-83493843D01*
X135436191Y-83634191D01*
X135295843Y-83844235D01*
X135246560Y-84092000D01*
X125839003Y-84092000D01*
X125755103Y-83888949D01*
X125450154Y-83583467D01*
X125051516Y-83417938D01*
X124619876Y-83417561D01*
X124220949Y-83582395D01*
X123915467Y-83887344D01*
X123749938Y-84285982D01*
X123749561Y-84717622D01*
X122566926Y-84717622D01*
X122240767Y-84582189D01*
X121809127Y-84581812D01*
X121410200Y-84746646D01*
X121104718Y-85051595D01*
X120939189Y-85450233D01*
X120938812Y-85881873D01*
X116534000Y-85881873D01*
X116534000Y-84717622D01*
X118128063Y-84717622D01*
X118292897Y-85116549D01*
X118597846Y-85422031D01*
X118996484Y-85587560D01*
X119428124Y-85587937D01*
X119827051Y-85423103D01*
X120132533Y-85118154D01*
X120298062Y-84719516D01*
X120298439Y-84287876D01*
X120133605Y-83888949D01*
X119828656Y-83583467D01*
X119430018Y-83417938D01*
X118998378Y-83417561D01*
X118599451Y-83582395D01*
X118293969Y-83887344D01*
X118128440Y-84285982D01*
X118128063Y-84717622D01*
X116534000Y-84717622D01*
X116534000Y-81906873D01*
X116963812Y-81906873D01*
X117128646Y-82305800D01*
X117433595Y-82611282D01*
X117832233Y-82776811D01*
X118263873Y-82777188D01*
X118662800Y-82612354D01*
X118968282Y-82307405D01*
X119133811Y-81908767D01*
X119133812Y-81906873D01*
X124913812Y-81906873D01*
X125078646Y-82305800D01*
X125383595Y-82611282D01*
X125782233Y-82776811D01*
X126213873Y-82777188D01*
X126612800Y-82612354D01*
X126918282Y-82307405D01*
X127083811Y-81908767D01*
X127084188Y-81477127D01*
X126919354Y-81078200D01*
X126614405Y-80772718D01*
X126215767Y-80607189D01*
X125784127Y-80606812D01*
X125385200Y-80771646D01*
X125079718Y-81076595D01*
X124914189Y-81475233D01*
X124913812Y-81906873D01*
X119133812Y-81906873D01*
X119134188Y-81477127D01*
X118969354Y-81078200D01*
X118664405Y-80772718D01*
X118265767Y-80607189D01*
X117834127Y-80606812D01*
X117435200Y-80771646D01*
X117129718Y-81076595D01*
X116964189Y-81475233D01*
X116963812Y-81906873D01*
X116534000Y-81906873D01*
X116534000Y-79096124D01*
X118128063Y-79096124D01*
X118292897Y-79495051D01*
X118597846Y-79800533D01*
X118996484Y-79966062D01*
X119428124Y-79966439D01*
X119827051Y-79801605D01*
X120132533Y-79496656D01*
X120298062Y-79098018D01*
X120298063Y-79096124D01*
X123749561Y-79096124D01*
X123914395Y-79495051D01*
X124219344Y-79800533D01*
X124617982Y-79966062D01*
X125049622Y-79966439D01*
X125448549Y-79801605D01*
X125754031Y-79496656D01*
X125919560Y-79098018D01*
X125919561Y-79096124D01*
X205728063Y-79096124D01*
X205892897Y-79495051D01*
X206197846Y-79800533D01*
X206596484Y-79966062D01*
X207028124Y-79966439D01*
X207427051Y-79801605D01*
X207732533Y-79496656D01*
X207898062Y-79098018D01*
X207898063Y-79096124D01*
X211349561Y-79096124D01*
X211514395Y-79495051D01*
X211819344Y-79800533D01*
X212217982Y-79966062D01*
X212649622Y-79966439D01*
X213048549Y-79801605D01*
X213354031Y-79496656D01*
X213519560Y-79098018D01*
X213519937Y-78666378D01*
X213355103Y-78267451D01*
X213050154Y-77961969D01*
X212651516Y-77796440D01*
X212219876Y-77796063D01*
X211820949Y-77960897D01*
X211515467Y-78265846D01*
X211349938Y-78664484D01*
X211349561Y-79096124D01*
X207898063Y-79096124D01*
X207898439Y-78666378D01*
X207733605Y-78267451D01*
X207428656Y-77961969D01*
X207356177Y-77931873D01*
X208538812Y-77931873D01*
X208703646Y-78330800D01*
X209008595Y-78636282D01*
X209407233Y-78801811D01*
X209838873Y-78802188D01*
X210237800Y-78637354D01*
X210543282Y-78332405D01*
X210708811Y-77933767D01*
X210709188Y-77502127D01*
X210544354Y-77103200D01*
X210239405Y-76797718D01*
X209840767Y-76632189D01*
X209409127Y-76631812D01*
X209010200Y-76796646D01*
X208704718Y-77101595D01*
X208539189Y-77500233D01*
X208538812Y-77931873D01*
X207356177Y-77931873D01*
X207030018Y-77796440D01*
X206598378Y-77796063D01*
X206199451Y-77960897D01*
X205893969Y-78265846D01*
X205728440Y-78664484D01*
X205728063Y-79096124D01*
X125919561Y-79096124D01*
X125919937Y-78666378D01*
X125755103Y-78267451D01*
X125450154Y-77961969D01*
X125051516Y-77796440D01*
X124619876Y-77796063D01*
X124220949Y-77960897D01*
X123915467Y-78265846D01*
X123749938Y-78664484D01*
X123749561Y-79096124D01*
X120298063Y-79096124D01*
X120298439Y-78666378D01*
X120133605Y-78267451D01*
X119828656Y-77961969D01*
X119756177Y-77931873D01*
X120938812Y-77931873D01*
X121103646Y-78330800D01*
X121408595Y-78636282D01*
X121807233Y-78801811D01*
X122238873Y-78802188D01*
X122637800Y-78637354D01*
X122943282Y-78332405D01*
X123108811Y-77933767D01*
X123109188Y-77502127D01*
X122944354Y-77103200D01*
X122639405Y-76797718D01*
X122240767Y-76632189D01*
X121809127Y-76631812D01*
X121410200Y-76796646D01*
X121104718Y-77101595D01*
X120939189Y-77500233D01*
X120938812Y-77931873D01*
X119756177Y-77931873D01*
X119430018Y-77796440D01*
X118998378Y-77796063D01*
X118599451Y-77960897D01*
X118293969Y-78265846D01*
X118128440Y-78664484D01*
X118128063Y-79096124D01*
X116534000Y-79096124D01*
X116534000Y-76402000D01*
X215114000Y-76402000D01*
X215114000Y-154982000D01*
X215114000Y-154982000D01*
G37*
X215114000Y-154982000D02*
X116534000Y-154982000D01*
X116534000Y-153881873D01*
X120938812Y-153881873D01*
X121103646Y-154280800D01*
X121408595Y-154586282D01*
X121807233Y-154751811D01*
X122238873Y-154752188D01*
X122637800Y-154587354D01*
X122943282Y-154282405D01*
X123108811Y-153883767D01*
X123108812Y-153881873D01*
X208538812Y-153881873D01*
X208703646Y-154280800D01*
X209008595Y-154586282D01*
X209407233Y-154751811D01*
X209838873Y-154752188D01*
X210237800Y-154587354D01*
X210543282Y-154282405D01*
X210708811Y-153883767D01*
X210709188Y-153452127D01*
X210544354Y-153053200D01*
X210239405Y-152747718D01*
X210166926Y-152717622D01*
X211349561Y-152717622D01*
X211514395Y-153116549D01*
X211819344Y-153422031D01*
X212217982Y-153587560D01*
X212649622Y-153587937D01*
X213048549Y-153423103D01*
X213354031Y-153118154D01*
X213519560Y-152719516D01*
X213519937Y-152287876D01*
X213355103Y-151888949D01*
X213050154Y-151583467D01*
X212651516Y-151417938D01*
X212219876Y-151417561D01*
X211820949Y-151582395D01*
X211515467Y-151887344D01*
X211349938Y-152285982D01*
X211349561Y-152717622D01*
X210166926Y-152717622D01*
X209840767Y-152582189D01*
X209409127Y-152581812D01*
X209010200Y-152746646D01*
X208704718Y-153051595D01*
X208539189Y-153450233D01*
X208538812Y-153881873D01*
X123108812Y-153881873D01*
X123109188Y-153452127D01*
X122944354Y-153053200D01*
X122639405Y-152747718D01*
X122566926Y-152717622D01*
X123749561Y-152717622D01*
X123914395Y-153116549D01*
X124219344Y-153422031D01*
X124617982Y-153587560D01*
X125049622Y-153587937D01*
X125448549Y-153423103D01*
X125754031Y-153118154D01*
X125919560Y-152719516D01*
X125919561Y-152717622D01*
X205728063Y-152717622D01*
X205892897Y-153116549D01*
X206197846Y-153422031D01*
X206596484Y-153587560D01*
X207028124Y-153587937D01*
X207427051Y-153423103D01*
X207732533Y-153118154D01*
X207898062Y-152719516D01*
X207898439Y-152287876D01*
X207733605Y-151888949D01*
X207428656Y-151583467D01*
X207030018Y-151417938D01*
X206598378Y-151417561D01*
X206199451Y-151582395D01*
X205893969Y-151887344D01*
X205728440Y-152285982D01*
X205728063Y-152717622D01*
X125919561Y-152717622D01*
X125919937Y-152287876D01*
X125755103Y-151888949D01*
X125450154Y-151583467D01*
X125051516Y-151417938D01*
X124619876Y-151417561D01*
X124220949Y-151582395D01*
X123915467Y-151887344D01*
X123749938Y-152285982D01*
X123749561Y-152717622D01*
X122566926Y-152717622D01*
X122240767Y-152582189D01*
X121809127Y-152581812D01*
X121410200Y-152746646D01*
X121104718Y-153051595D01*
X120939189Y-153450233D01*
X120938812Y-153881873D01*
X116534000Y-153881873D01*
X116534000Y-152717622D01*
X118128063Y-152717622D01*
X118292897Y-153116549D01*
X118597846Y-153422031D01*
X118996484Y-153587560D01*
X119428124Y-153587937D01*
X119827051Y-153423103D01*
X120132533Y-153118154D01*
X120298062Y-152719516D01*
X120298439Y-152287876D01*
X120133605Y-151888949D01*
X119828656Y-151583467D01*
X119430018Y-151417938D01*
X118998378Y-151417561D01*
X118599451Y-151582395D01*
X118293969Y-151887344D01*
X118128440Y-152285982D01*
X118128063Y-152717622D01*
X116534000Y-152717622D01*
X116534000Y-149906873D01*
X116963812Y-149906873D01*
X117128646Y-150305800D01*
X117433595Y-150611282D01*
X117832233Y-150776811D01*
X118263873Y-150777188D01*
X118662800Y-150612354D01*
X118968282Y-150307405D01*
X119133811Y-149908767D01*
X119133812Y-149906873D01*
X124913812Y-149906873D01*
X125078646Y-150305800D01*
X125383595Y-150611282D01*
X125782233Y-150776811D01*
X126213873Y-150777188D01*
X126612800Y-150612354D01*
X126918282Y-150307405D01*
X127083811Y-149908767D01*
X127084188Y-149477127D01*
X126919354Y-149078200D01*
X126687355Y-148845795D01*
X140438716Y-148845795D01*
X140687106Y-149446943D01*
X141146637Y-149907278D01*
X141747352Y-150156716D01*
X142397795Y-150157284D01*
X142998943Y-149908894D01*
X143459278Y-149449363D01*
X143708716Y-148848648D01*
X143708788Y-148765795D01*
X155188716Y-148765795D01*
X155437106Y-149366943D01*
X155896637Y-149827278D01*
X156497352Y-150076716D01*
X157147795Y-150077284D01*
X157748943Y-149828894D01*
X158209278Y-149369363D01*
X158458716Y-148768648D01*
X158458718Y-148765795D01*
X169688716Y-148765795D01*
X169937106Y-149366943D01*
X170396637Y-149827278D01*
X170997352Y-150076716D01*
X171647795Y-150077284D01*
X172248943Y-149828894D01*
X172709278Y-149369363D01*
X172958716Y-148768648D01*
X172958718Y-148765795D01*
X183938716Y-148765795D01*
X184187106Y-149366943D01*
X184646637Y-149827278D01*
X185247352Y-150076716D01*
X185897795Y-150077284D01*
X186498943Y-149828894D01*
X186959278Y-149369363D01*
X187208716Y-148768648D01*
X187208718Y-148765795D01*
X198188716Y-148765795D01*
X198437106Y-149366943D01*
X198896637Y-149827278D01*
X199497352Y-150076716D01*
X200147795Y-150077284D01*
X200560219Y-149906873D01*
X204563812Y-149906873D01*
X204728646Y-150305800D01*
X205033595Y-150611282D01*
X205432233Y-150776811D01*
X205863873Y-150777188D01*
X206262800Y-150612354D01*
X206568282Y-150307405D01*
X206733811Y-149908767D01*
X206733812Y-149906873D01*
X212513812Y-149906873D01*
X212678646Y-150305800D01*
X212983595Y-150611282D01*
X213382233Y-150776811D01*
X213813873Y-150777188D01*
X214212800Y-150612354D01*
X214518282Y-150307405D01*
X214683811Y-149908767D01*
X214684188Y-149477127D01*
X214519354Y-149078200D01*
X214214405Y-148772718D01*
X213815767Y-148607189D01*
X213384127Y-148606812D01*
X212985200Y-148771646D01*
X212679718Y-149076595D01*
X212514189Y-149475233D01*
X212513812Y-149906873D01*
X206733812Y-149906873D01*
X206734188Y-149477127D01*
X206569354Y-149078200D01*
X206264405Y-148772718D01*
X205865767Y-148607189D01*
X205434127Y-148606812D01*
X205035200Y-148771646D01*
X204729718Y-149076595D01*
X204564189Y-149475233D01*
X204563812Y-149906873D01*
X200560219Y-149906873D01*
X200748943Y-149828894D01*
X201209278Y-149369363D01*
X201458716Y-148768648D01*
X201459284Y-148118205D01*
X201210894Y-147517057D01*
X200790697Y-147096124D01*
X205728063Y-147096124D01*
X205892897Y-147495051D01*
X206197846Y-147800533D01*
X206596484Y-147966062D01*
X207028124Y-147966439D01*
X207427051Y-147801605D01*
X207732533Y-147496656D01*
X207898062Y-147098018D01*
X207898063Y-147096124D01*
X211349561Y-147096124D01*
X211514395Y-147495051D01*
X211819344Y-147800533D01*
X212217982Y-147966062D01*
X212649622Y-147966439D01*
X213048549Y-147801605D01*
X213354031Y-147496656D01*
X213519560Y-147098018D01*
X213519937Y-146666378D01*
X213355103Y-146267451D01*
X213050154Y-145961969D01*
X212651516Y-145796440D01*
X212219876Y-145796063D01*
X211820949Y-145960897D01*
X211515467Y-146265846D01*
X211349938Y-146664484D01*
X211349561Y-147096124D01*
X207898063Y-147096124D01*
X207898439Y-146666378D01*
X207733605Y-146267451D01*
X207428656Y-145961969D01*
X207356177Y-145931873D01*
X208538812Y-145931873D01*
X208703646Y-146330800D01*
X209008595Y-146636282D01*
X209407233Y-146801811D01*
X209838873Y-146802188D01*
X210237800Y-146637354D01*
X210543282Y-146332405D01*
X210708811Y-145933767D01*
X210709188Y-145502127D01*
X210544354Y-145103200D01*
X210239405Y-144797718D01*
X209840767Y-144632189D01*
X209409127Y-144631812D01*
X209010200Y-144796646D01*
X208704718Y-145101595D01*
X208539189Y-145500233D01*
X208538812Y-145931873D01*
X207356177Y-145931873D01*
X207030018Y-145796440D01*
X206598378Y-145796063D01*
X206199451Y-145960897D01*
X205893969Y-146265846D01*
X205728440Y-146664484D01*
X205728063Y-147096124D01*
X200790697Y-147096124D01*
X200751363Y-147056722D01*
X200150648Y-146807284D01*
X199500205Y-146806716D01*
X198899057Y-147055106D01*
X198438722Y-147514637D01*
X198189284Y-148115352D01*
X198188716Y-148765795D01*
X187208718Y-148765795D01*
X187209284Y-148118205D01*
X186960894Y-147517057D01*
X186501363Y-147056722D01*
X185900648Y-146807284D01*
X185250205Y-146806716D01*
X184649057Y-147055106D01*
X184188722Y-147514637D01*
X183939284Y-148115352D01*
X183938716Y-148765795D01*
X172958718Y-148765795D01*
X172959284Y-148118205D01*
X172710894Y-147517057D01*
X172251363Y-147056722D01*
X171650648Y-146807284D01*
X171000205Y-146806716D01*
X170399057Y-147055106D01*
X169938722Y-147514637D01*
X169689284Y-148115352D01*
X169688716Y-148765795D01*
X158458718Y-148765795D01*
X158459284Y-148118205D01*
X158210894Y-147517057D01*
X157751363Y-147056722D01*
X157150648Y-146807284D01*
X156500205Y-146806716D01*
X155899057Y-147055106D01*
X155438722Y-147514637D01*
X155189284Y-148115352D01*
X155188716Y-148765795D01*
X143708788Y-148765795D01*
X143709284Y-148198205D01*
X143460894Y-147597057D01*
X143001363Y-147136722D01*
X142400648Y-146887284D01*
X141750205Y-146886716D01*
X141149057Y-147135106D01*
X140688722Y-147594637D01*
X140439284Y-148195352D01*
X140438716Y-148845795D01*
X126687355Y-148845795D01*
X126614405Y-148772718D01*
X126215767Y-148607189D01*
X125784127Y-148606812D01*
X125385200Y-148771646D01*
X125079718Y-149076595D01*
X124914189Y-149475233D01*
X124913812Y-149906873D01*
X119133812Y-149906873D01*
X119134188Y-149477127D01*
X118969354Y-149078200D01*
X118664405Y-148772718D01*
X118265767Y-148607189D01*
X117834127Y-148606812D01*
X117435200Y-148771646D01*
X117129718Y-149076595D01*
X116964189Y-149475233D01*
X116963812Y-149906873D01*
X116534000Y-149906873D01*
X116534000Y-147096124D01*
X118128063Y-147096124D01*
X118292897Y-147495051D01*
X118597846Y-147800533D01*
X118996484Y-147966062D01*
X119428124Y-147966439D01*
X119827051Y-147801605D01*
X120132533Y-147496656D01*
X120298062Y-147098018D01*
X120298063Y-147096124D01*
X123749561Y-147096124D01*
X123914395Y-147495051D01*
X124219344Y-147800533D01*
X124617982Y-147966062D01*
X125049622Y-147966439D01*
X125448549Y-147801605D01*
X125754031Y-147496656D01*
X125919560Y-147098018D01*
X125919937Y-146666378D01*
X125755103Y-146267451D01*
X125450154Y-145961969D01*
X125051516Y-145796440D01*
X124619876Y-145796063D01*
X124220949Y-145960897D01*
X123915467Y-146265846D01*
X123749938Y-146664484D01*
X123749561Y-147096124D01*
X120298063Y-147096124D01*
X120298439Y-146666378D01*
X120133605Y-146267451D01*
X119828656Y-145961969D01*
X119756177Y-145931873D01*
X120938812Y-145931873D01*
X121103646Y-146330800D01*
X121408595Y-146636282D01*
X121807233Y-146801811D01*
X122238873Y-146802188D01*
X122637800Y-146637354D01*
X122943282Y-146332405D01*
X123108811Y-145933767D01*
X123109188Y-145502127D01*
X122944354Y-145103200D01*
X122639405Y-144797718D01*
X122240767Y-144632189D01*
X121809127Y-144631812D01*
X121410200Y-144796646D01*
X121104718Y-145101595D01*
X120939189Y-145500233D01*
X120938812Y-145931873D01*
X119756177Y-145931873D01*
X119430018Y-145796440D01*
X118998378Y-145796063D01*
X118599451Y-145960897D01*
X118293969Y-146265846D01*
X118128440Y-146664484D01*
X118128063Y-147096124D01*
X116534000Y-147096124D01*
X116534000Y-143765795D01*
X140438716Y-143765795D01*
X140687106Y-144366943D01*
X141146637Y-144827278D01*
X141747352Y-145076716D01*
X142397795Y-145077284D01*
X142998943Y-144828894D01*
X143459278Y-144369363D01*
X143708716Y-143768648D01*
X143708788Y-143685795D01*
X155188716Y-143685795D01*
X155437106Y-144286943D01*
X155896637Y-144747278D01*
X156497352Y-144996716D01*
X157147795Y-144997284D01*
X157748943Y-144748894D01*
X158209278Y-144289363D01*
X158458716Y-143688648D01*
X158458718Y-143685795D01*
X169688716Y-143685795D01*
X169937106Y-144286943D01*
X170396637Y-144747278D01*
X170997352Y-144996716D01*
X171647795Y-144997284D01*
X172248943Y-144748894D01*
X172709278Y-144289363D01*
X172958716Y-143688648D01*
X172958718Y-143685795D01*
X183938716Y-143685795D01*
X184187106Y-144286943D01*
X184646637Y-144747278D01*
X185247352Y-144996716D01*
X185897795Y-144997284D01*
X186498943Y-144748894D01*
X186959278Y-144289363D01*
X187208716Y-143688648D01*
X187208718Y-143685795D01*
X198188716Y-143685795D01*
X198437106Y-144286943D01*
X198896637Y-144747278D01*
X199497352Y-144996716D01*
X200147795Y-144997284D01*
X200748943Y-144748894D01*
X201209278Y-144289363D01*
X201458716Y-143688648D01*
X201459284Y-143038205D01*
X201210894Y-142437057D01*
X200751363Y-141976722D01*
X200150648Y-141727284D01*
X199500205Y-141726716D01*
X198899057Y-141975106D01*
X198438722Y-142434637D01*
X198189284Y-143035352D01*
X198188716Y-143685795D01*
X187208718Y-143685795D01*
X187209284Y-143038205D01*
X186960894Y-142437057D01*
X186501363Y-141976722D01*
X185900648Y-141727284D01*
X185250205Y-141726716D01*
X184649057Y-141975106D01*
X184188722Y-142434637D01*
X183939284Y-143035352D01*
X183938716Y-143685795D01*
X172958718Y-143685795D01*
X172959284Y-143038205D01*
X172710894Y-142437057D01*
X172251363Y-141976722D01*
X171650648Y-141727284D01*
X171000205Y-141726716D01*
X170399057Y-141975106D01*
X169938722Y-142434637D01*
X169689284Y-143035352D01*
X169688716Y-143685795D01*
X158458718Y-143685795D01*
X158459284Y-143038205D01*
X158210894Y-142437057D01*
X157751363Y-141976722D01*
X157150648Y-141727284D01*
X156500205Y-141726716D01*
X155899057Y-141975106D01*
X155438722Y-142434637D01*
X155189284Y-143035352D01*
X155188716Y-143685795D01*
X143708788Y-143685795D01*
X143709284Y-143118205D01*
X143460894Y-142517057D01*
X143001363Y-142056722D01*
X142400648Y-141807284D01*
X141750205Y-141806716D01*
X141149057Y-142055106D01*
X140688722Y-142514637D01*
X140439284Y-143115352D01*
X140438716Y-143765795D01*
X116534000Y-143765795D01*
X116534000Y-140327167D01*
X131608838Y-140327167D01*
X131750883Y-140670943D01*
X131865002Y-140785261D01*
X131875843Y-140839765D01*
X132002507Y-141029330D01*
X131975843Y-141069235D01*
X131926560Y-141317000D01*
X131926560Y-142567000D01*
X131975843Y-142814765D01*
X132116191Y-143024809D01*
X132326235Y-143165157D01*
X132574000Y-143214440D01*
X134074000Y-143214440D01*
X134321765Y-143165157D01*
X134531809Y-143024809D01*
X134574000Y-142961666D01*
X134616191Y-143024809D01*
X134826235Y-143165157D01*
X135074000Y-143214440D01*
X136574000Y-143214440D01*
X136821765Y-143165157D01*
X137031809Y-143024809D01*
X137172157Y-142814765D01*
X137221440Y-142567000D01*
X137221440Y-141317000D01*
X137173714Y-141077061D01*
X137289167Y-141077162D01*
X137632943Y-140935117D01*
X137896192Y-140672327D01*
X138008372Y-140402167D01*
X145883838Y-140402167D01*
X146025883Y-140745943D01*
X146288673Y-141009192D01*
X146409986Y-141059566D01*
X146466521Y-141116101D01*
X146426560Y-141317000D01*
X146426560Y-142567000D01*
X146475843Y-142814765D01*
X146616191Y-143024809D01*
X146826235Y-143165157D01*
X147074000Y-143214440D01*
X148574000Y-143214440D01*
X148821765Y-143165157D01*
X149031809Y-143024809D01*
X149074000Y-142961666D01*
X149116191Y-143024809D01*
X149326235Y-143165157D01*
X149574000Y-143214440D01*
X151074000Y-143214440D01*
X151321765Y-143165157D01*
X151531809Y-143024809D01*
X151672157Y-142814765D01*
X151721440Y-142567000D01*
X151721440Y-141317000D01*
X151672157Y-141069235D01*
X151645493Y-141029330D01*
X151772157Y-140839765D01*
X151821440Y-140592000D01*
X151821440Y-140402167D01*
X160383838Y-140402167D01*
X160525883Y-140745943D01*
X160788673Y-141009192D01*
X160909986Y-141059566D01*
X160966521Y-141116101D01*
X160926560Y-141317000D01*
X160926560Y-142567000D01*
X160975843Y-142814765D01*
X161116191Y-143024809D01*
X161326235Y-143165157D01*
X161574000Y-143214440D01*
X163074000Y-143214440D01*
X163321765Y-143165157D01*
X163531809Y-143024809D01*
X163574000Y-142961666D01*
X163616191Y-143024809D01*
X163826235Y-143165157D01*
X164074000Y-143214440D01*
X165574000Y-143214440D01*
X165821765Y-143165157D01*
X166031809Y-143024809D01*
X166172157Y-142814765D01*
X166221440Y-142567000D01*
X166221440Y-141317000D01*
X166189774Y-141157805D01*
X166287835Y-141059745D01*
X166407943Y-141010117D01*
X166671192Y-140747327D01*
X166804134Y-140427167D01*
X174608838Y-140427167D01*
X174750883Y-140770943D01*
X175013673Y-141034192D01*
X175134986Y-141084566D01*
X175208225Y-141157805D01*
X175176560Y-141317000D01*
X175176560Y-142567000D01*
X175225843Y-142814765D01*
X175366191Y-143024809D01*
X175576235Y-143165157D01*
X175824000Y-143214440D01*
X177324000Y-143214440D01*
X177571765Y-143165157D01*
X177781809Y-143024809D01*
X177824000Y-142961666D01*
X177866191Y-143024809D01*
X178076235Y-143165157D01*
X178324000Y-143214440D01*
X179824000Y-143214440D01*
X180071765Y-143165157D01*
X180281809Y-143024809D01*
X180422157Y-142814765D01*
X180471440Y-142567000D01*
X180471440Y-141317000D01*
X180439774Y-141157805D01*
X180512835Y-141084745D01*
X180632943Y-141035117D01*
X180896192Y-140772327D01*
X181038838Y-140428799D01*
X181038861Y-140402167D01*
X188833838Y-140402167D01*
X188975883Y-140745943D01*
X189238673Y-141009192D01*
X189359986Y-141059566D01*
X189458225Y-141157805D01*
X189426560Y-141317000D01*
X189426560Y-142567000D01*
X189475843Y-142814765D01*
X189616191Y-143024809D01*
X189826235Y-143165157D01*
X190074000Y-143214440D01*
X191574000Y-143214440D01*
X191821765Y-143165157D01*
X192031809Y-143024809D01*
X192074000Y-142961666D01*
X192116191Y-143024809D01*
X192326235Y-143165157D01*
X192574000Y-143214440D01*
X194074000Y-143214440D01*
X194321765Y-143165157D01*
X194531809Y-143024809D01*
X194672157Y-142814765D01*
X194721440Y-142567000D01*
X194721440Y-141317000D01*
X194681479Y-141116100D01*
X194737835Y-141059745D01*
X194857943Y-141010117D01*
X195121192Y-140747327D01*
X195263838Y-140403799D01*
X195264162Y-140031833D01*
X195122117Y-139688057D01*
X194859327Y-139424808D01*
X194738014Y-139374434D01*
X194721440Y-139357860D01*
X194721440Y-139292000D01*
X194672157Y-139044235D01*
X194531809Y-138834191D01*
X194321765Y-138693843D01*
X194074000Y-138644560D01*
X192574000Y-138644560D01*
X192326235Y-138693843D01*
X192116191Y-138834191D01*
X191975843Y-139044235D01*
X191974000Y-139053500D01*
X191972157Y-139044235D01*
X191831809Y-138834191D01*
X191621765Y-138693843D01*
X191374000Y-138644560D01*
X189874000Y-138644560D01*
X189626235Y-138693843D01*
X189416191Y-138834191D01*
X189275843Y-139044235D01*
X189226560Y-139292000D01*
X189226560Y-139437356D01*
X188976808Y-139686673D01*
X188834162Y-140030201D01*
X188833838Y-140402167D01*
X181038861Y-140402167D01*
X181039162Y-140056833D01*
X180897117Y-139713057D01*
X180721440Y-139537073D01*
X180721440Y-139292000D01*
X180672157Y-139044235D01*
X180531809Y-138834191D01*
X180321765Y-138693843D01*
X180074000Y-138644560D01*
X178574000Y-138644560D01*
X178326235Y-138693843D01*
X178116191Y-138834191D01*
X177975843Y-139044235D01*
X177974000Y-139053500D01*
X177972157Y-139044235D01*
X177831809Y-138834191D01*
X177621765Y-138693843D01*
X177374000Y-138644560D01*
X175874000Y-138644560D01*
X175626235Y-138693843D01*
X175416191Y-138834191D01*
X175275843Y-139044235D01*
X175226560Y-139292000D01*
X175226560Y-139310631D01*
X175218210Y-139316210D01*
X175218208Y-139316213D01*
X175135165Y-139399255D01*
X175015057Y-139448883D01*
X174751808Y-139711673D01*
X174609162Y-140055201D01*
X174608838Y-140427167D01*
X166804134Y-140427167D01*
X166813838Y-140403799D01*
X166814162Y-140031833D01*
X166672117Y-139688057D01*
X166409327Y-139424808D01*
X166321440Y-139388314D01*
X166321440Y-139292000D01*
X166272157Y-139044235D01*
X166131809Y-138834191D01*
X165921765Y-138693843D01*
X165674000Y-138644560D01*
X164174000Y-138644560D01*
X163926235Y-138693843D01*
X163716191Y-138834191D01*
X163575843Y-139044235D01*
X163574000Y-139053500D01*
X163572157Y-139044235D01*
X163431809Y-138834191D01*
X163221765Y-138693843D01*
X162974000Y-138644560D01*
X161474000Y-138644560D01*
X161226235Y-138693843D01*
X161016191Y-138834191D01*
X160875843Y-139044235D01*
X160826560Y-139292000D01*
X160826560Y-139408800D01*
X160790057Y-139423883D01*
X160526808Y-139686673D01*
X160384162Y-140030201D01*
X160383838Y-140402167D01*
X151821440Y-140402167D01*
X151821440Y-139292000D01*
X151772157Y-139044235D01*
X151631809Y-138834191D01*
X151421765Y-138693843D01*
X151174000Y-138644560D01*
X149674000Y-138644560D01*
X149426235Y-138693843D01*
X149216191Y-138834191D01*
X149075843Y-139044235D01*
X149074000Y-139053500D01*
X149072157Y-139044235D01*
X148931809Y-138834191D01*
X148721765Y-138693843D01*
X148474000Y-138644560D01*
X146974000Y-138644560D01*
X146726235Y-138693843D01*
X146516191Y-138834191D01*
X146375843Y-139044235D01*
X146326560Y-139292000D01*
X146326560Y-139408800D01*
X146290057Y-139423883D01*
X146026808Y-139686673D01*
X145884162Y-140030201D01*
X145883838Y-140402167D01*
X138008372Y-140402167D01*
X138038838Y-140328799D01*
X138039162Y-139956833D01*
X137897117Y-139613057D01*
X137634327Y-139349808D01*
X137491006Y-139290296D01*
X137295058Y-139159369D01*
X137272157Y-139044235D01*
X137131809Y-138834191D01*
X136921765Y-138693843D01*
X136674000Y-138644560D01*
X135959000Y-138644560D01*
X135959000Y-137689440D01*
X136974000Y-137689440D01*
X137221765Y-137640157D01*
X137431809Y-137499809D01*
X137572157Y-137289765D01*
X137621440Y-137042000D01*
X137621440Y-135542000D01*
X137572157Y-135294235D01*
X137431809Y-135084191D01*
X137221765Y-134943843D01*
X137212500Y-134942000D01*
X137221765Y-134940157D01*
X137431809Y-134799809D01*
X137572157Y-134589765D01*
X137621440Y-134342000D01*
X137621440Y-132842000D01*
X137572157Y-132594235D01*
X137431809Y-132384191D01*
X137221765Y-132243843D01*
X137109000Y-132221413D01*
X137109000Y-131872533D01*
X137271765Y-131840157D01*
X137481809Y-131699809D01*
X137622157Y-131489765D01*
X137671440Y-131242000D01*
X137671440Y-130142000D01*
X137622157Y-129894235D01*
X137481809Y-129684191D01*
X137406251Y-129633705D01*
X137531809Y-129549809D01*
X137672157Y-129339765D01*
X137721440Y-129092000D01*
X137721440Y-127792000D01*
X137672157Y-127544235D01*
X137531809Y-127334191D01*
X137321765Y-127193843D01*
X137074000Y-127144560D01*
X135574000Y-127144560D01*
X135326235Y-127193843D01*
X135116191Y-127334191D01*
X134975843Y-127544235D01*
X134926560Y-127792000D01*
X134926560Y-129092000D01*
X134975843Y-129339765D01*
X135039000Y-129434285D01*
X135039000Y-130391995D01*
X135038999Y-130392000D01*
X135089156Y-130644148D01*
X135106367Y-130730675D01*
X135247569Y-130942000D01*
X135276560Y-130985388D01*
X135276560Y-131242000D01*
X135325843Y-131489765D01*
X135339000Y-131509456D01*
X135339000Y-132302132D01*
X135216191Y-132384191D01*
X135075843Y-132594235D01*
X135026560Y-132842000D01*
X135026560Y-134342000D01*
X135075843Y-134589765D01*
X135216191Y-134799809D01*
X135426235Y-134940157D01*
X135435500Y-134942000D01*
X135426235Y-134943843D01*
X135216191Y-135084191D01*
X135075843Y-135294235D01*
X135026560Y-135542000D01*
X135026560Y-135966958D01*
X134888833Y-135966838D01*
X134545057Y-136108883D01*
X134281808Y-136371673D01*
X134139162Y-136715201D01*
X134138838Y-137087167D01*
X134189000Y-137208569D01*
X134189000Y-138687326D01*
X133974000Y-138644560D01*
X132474000Y-138644560D01*
X132226235Y-138693843D01*
X132016191Y-138834191D01*
X131875843Y-139044235D01*
X131826560Y-139292000D01*
X131826560Y-139537051D01*
X131751808Y-139611673D01*
X131609162Y-139955201D01*
X131608838Y-140327167D01*
X116534000Y-140327167D01*
X116534000Y-131995991D01*
X120038735Y-131995991D01*
X120271932Y-132560371D01*
X120703357Y-132992551D01*
X121267330Y-133226733D01*
X121877991Y-133227265D01*
X122442371Y-132994068D01*
X122874551Y-132562643D01*
X123108733Y-131998670D01*
X123109265Y-131388009D01*
X122876068Y-130823629D01*
X122444643Y-130391449D01*
X121880670Y-130157267D01*
X121270009Y-130156735D01*
X120705629Y-130389932D01*
X120273449Y-130821357D01*
X120039267Y-131385330D01*
X120038735Y-131995991D01*
X116534000Y-131995991D01*
X116534000Y-120479177D01*
X121513574Y-120479177D01*
X121887298Y-121383657D01*
X122578703Y-122076270D01*
X123482529Y-122451572D01*
X124461177Y-122452426D01*
X125365657Y-122078702D01*
X126058270Y-121387297D01*
X126433572Y-120483471D01*
X126434426Y-119504823D01*
X126060702Y-118600343D01*
X125369297Y-117907730D01*
X124465471Y-117532428D01*
X123486823Y-117531574D01*
X122582343Y-117905298D01*
X121889730Y-118596703D01*
X121514428Y-119500529D01*
X121513574Y-120479177D01*
X116534000Y-120479177D01*
X116534000Y-108609177D01*
X121513574Y-108609177D01*
X121887298Y-109513657D01*
X122578703Y-110206270D01*
X123482529Y-110581572D01*
X124461177Y-110582426D01*
X125365657Y-110208702D01*
X126058270Y-109517297D01*
X126433572Y-108613471D01*
X126434426Y-107634823D01*
X126060702Y-106730343D01*
X125369297Y-106037730D01*
X124465471Y-105662428D01*
X123486823Y-105661574D01*
X122582343Y-106035298D01*
X121889730Y-106726703D01*
X121514428Y-107630529D01*
X121513574Y-108609177D01*
X116534000Y-108609177D01*
X116534000Y-102769177D01*
X121513574Y-102769177D01*
X121887298Y-103673657D01*
X122578703Y-104366270D01*
X123482529Y-104741572D01*
X124461177Y-104742426D01*
X125365657Y-104368702D01*
X126058270Y-103677297D01*
X126433572Y-102773471D01*
X126434426Y-101794823D01*
X126060702Y-100890343D01*
X125369297Y-100197730D01*
X124465471Y-99822428D01*
X123486823Y-99821574D01*
X122582343Y-100195298D01*
X121889730Y-100886703D01*
X121514428Y-101790529D01*
X121513574Y-102769177D01*
X116534000Y-102769177D01*
X116534000Y-99192000D01*
X128314000Y-99192000D01*
X128314000Y-108442000D01*
X128371852Y-108732839D01*
X128536599Y-108979401D01*
X128926560Y-109369362D01*
X128926560Y-110362000D01*
X128975843Y-110609765D01*
X129116191Y-110819809D01*
X129326235Y-110960157D01*
X129519097Y-110998519D01*
X129150539Y-111366436D01*
X128939241Y-111875298D01*
X128938760Y-112426285D01*
X129149169Y-112935515D01*
X129538436Y-113325461D01*
X129770870Y-113421976D01*
X129540485Y-113517169D01*
X129150539Y-113906436D01*
X128939241Y-114415298D01*
X128938760Y-114966285D01*
X129149169Y-115475515D01*
X129538436Y-115865461D01*
X130047298Y-116076759D01*
X130313999Y-116076992D01*
X130313999Y-116191999D01*
X130371851Y-116482838D01*
X130536598Y-116729400D01*
X131536599Y-117729401D01*
X131783161Y-117894148D01*
X132074000Y-117952000D01*
X133824000Y-117952000D01*
X134114839Y-117894148D01*
X134361401Y-117729401D01*
X136861401Y-115229401D01*
X137026148Y-114982839D01*
X137084000Y-114692000D01*
X137084000Y-108451066D01*
X143567335Y-114934401D01*
X143813897Y-115099148D01*
X144104736Y-115157000D01*
X151429939Y-115157000D01*
X151389162Y-115255201D01*
X151388838Y-115627167D01*
X151530883Y-115970943D01*
X151564000Y-116004118D01*
X151564000Y-124432000D01*
X143824000Y-124432000D01*
X143533160Y-124489852D01*
X143286599Y-124654599D01*
X139509198Y-128432000D01*
X139324000Y-128432000D01*
X139033160Y-128489852D01*
X138786599Y-128654599D01*
X138036599Y-129404599D01*
X137871852Y-129651161D01*
X137814000Y-129942000D01*
X137814000Y-133500662D01*
X137746850Y-133601159D01*
X137688998Y-133891998D01*
X137688998Y-135519079D01*
X137746850Y-135809918D01*
X137911597Y-136056480D01*
X139084518Y-137229401D01*
X139331080Y-137394148D01*
X139540182Y-137435741D01*
X139744853Y-137742054D01*
X140226622Y-138063961D01*
X140794907Y-138177000D01*
X140853093Y-138177000D01*
X141421378Y-138063961D01*
X141903147Y-137742054D01*
X142225054Y-137260285D01*
X142338093Y-136692000D01*
X142225054Y-136123715D01*
X141903147Y-135641946D01*
X141573974Y-135422000D01*
X141903147Y-135202054D01*
X142225054Y-134720285D01*
X142338093Y-134152000D01*
X142225054Y-133583715D01*
X141903147Y-133101946D01*
X141859223Y-133072597D01*
X141921765Y-133060157D01*
X142131809Y-132919809D01*
X142272157Y-132709765D01*
X142321440Y-132462000D01*
X142321440Y-130925143D01*
X142334000Y-130862000D01*
X142334000Y-130256802D01*
X145138802Y-127452000D01*
X148887473Y-127452000D01*
X148825843Y-127544235D01*
X148776560Y-127792000D01*
X148776560Y-129092000D01*
X148825843Y-129339765D01*
X148966191Y-129549809D01*
X149176235Y-129690157D01*
X149289000Y-129712587D01*
X149289000Y-129885541D01*
X149216191Y-129934191D01*
X149075843Y-130144235D01*
X149026560Y-130392000D01*
X149026560Y-131492000D01*
X149075843Y-131739765D01*
X149216191Y-131949809D01*
X149339000Y-132031868D01*
X149339000Y-132202132D01*
X149216191Y-132284191D01*
X149075843Y-132494235D01*
X149026560Y-132742000D01*
X149026560Y-133156999D01*
X148981808Y-133201673D01*
X148839162Y-133545201D01*
X148838838Y-133917167D01*
X148980883Y-134260943D01*
X149042632Y-134322800D01*
X149075843Y-134489765D01*
X149216191Y-134699809D01*
X149426235Y-134840157D01*
X149435500Y-134842000D01*
X149426235Y-134843843D01*
X149216191Y-134984191D01*
X149075843Y-135194235D01*
X149026560Y-135442000D01*
X149026560Y-136942000D01*
X149075843Y-137189765D01*
X149216191Y-137399809D01*
X149426235Y-137540157D01*
X149674000Y-137589440D01*
X150974000Y-137589440D01*
X151221765Y-137540157D01*
X151431809Y-137399809D01*
X151572157Y-137189765D01*
X151621440Y-136942000D01*
X151621440Y-135442000D01*
X151572157Y-135194235D01*
X151431809Y-134984191D01*
X151221765Y-134843843D01*
X151212500Y-134842000D01*
X151221765Y-134840157D01*
X151431809Y-134699809D01*
X151572157Y-134489765D01*
X151621440Y-134242000D01*
X151621440Y-132742000D01*
X151572157Y-132494235D01*
X151431809Y-132284191D01*
X151221765Y-132143843D01*
X151109000Y-132121413D01*
X151109000Y-132031868D01*
X151231809Y-131949809D01*
X151372157Y-131739765D01*
X151421440Y-131492000D01*
X151421440Y-130392000D01*
X151372157Y-130144235D01*
X151231809Y-129934191D01*
X151059000Y-129818723D01*
X151059000Y-129712587D01*
X151171765Y-129690157D01*
X151381809Y-129549809D01*
X151522157Y-129339765D01*
X151571440Y-129092000D01*
X151571440Y-127792000D01*
X151522157Y-127544235D01*
X151460527Y-127452000D01*
X154849198Y-127452000D01*
X154536599Y-127764599D01*
X154371852Y-128011161D01*
X154314000Y-128302000D01*
X154314000Y-130154560D01*
X154224000Y-130154560D01*
X153976235Y-130203843D01*
X153766191Y-130344191D01*
X153625843Y-130554235D01*
X153576560Y-130802000D01*
X153576560Y-132502000D01*
X153625843Y-132749765D01*
X153766191Y-132959809D01*
X153976235Y-133100157D01*
X154038777Y-133112597D01*
X153994853Y-133141946D01*
X153672946Y-133623715D01*
X153568019Y-134151217D01*
X153334000Y-133917198D01*
X153334000Y-129504463D01*
X153366192Y-129472327D01*
X153508838Y-129128799D01*
X153509162Y-128756833D01*
X153367117Y-128413057D01*
X153104327Y-128149808D01*
X152760799Y-128007162D01*
X152388833Y-128006838D01*
X152045057Y-128148883D01*
X151781808Y-128411673D01*
X151639162Y-128755201D01*
X151638838Y-129127167D01*
X151780883Y-129470943D01*
X151814000Y-129504118D01*
X151814000Y-134232000D01*
X151871852Y-134522839D01*
X152036599Y-134769401D01*
X153632790Y-136365592D01*
X153559907Y-136732000D01*
X153672946Y-137300285D01*
X153994853Y-137782054D01*
X154476622Y-138103961D01*
X155044907Y-138217000D01*
X155103093Y-138217000D01*
X155671378Y-138103961D01*
X156153147Y-137782054D01*
X156475054Y-137300285D01*
X156588093Y-136732000D01*
X156475054Y-136163715D01*
X156153147Y-135681946D01*
X155823974Y-135462000D01*
X156153147Y-135242054D01*
X156475054Y-134760285D01*
X156588093Y-134192000D01*
X156475054Y-133623715D01*
X156153147Y-133141946D01*
X156109223Y-133112597D01*
X156171765Y-133100157D01*
X156381809Y-132959809D01*
X156522157Y-132749765D01*
X156571440Y-132502000D01*
X156571440Y-130802000D01*
X156522157Y-130554235D01*
X156381809Y-130344191D01*
X156171765Y-130203843D01*
X155924000Y-130154560D01*
X155834000Y-130154560D01*
X155834000Y-128616802D01*
X158736402Y-125714400D01*
X158901149Y-125467838D01*
X158940549Y-125269762D01*
X161150188Y-127479401D01*
X161396750Y-127644148D01*
X161687589Y-127702000D01*
X163794462Y-127702000D01*
X163776560Y-127792000D01*
X163776560Y-129092000D01*
X163825843Y-129339765D01*
X163966191Y-129549809D01*
X164176235Y-129690157D01*
X164289000Y-129712587D01*
X164289000Y-129885541D01*
X164216191Y-129934191D01*
X164075843Y-130144235D01*
X164026560Y-130392000D01*
X164026560Y-131492000D01*
X164075843Y-131739765D01*
X164216191Y-131949809D01*
X164339000Y-132031868D01*
X164339000Y-132202132D01*
X164216191Y-132284191D01*
X164075843Y-132494235D01*
X164026560Y-132742000D01*
X164026560Y-133156999D01*
X163981808Y-133201673D01*
X163839162Y-133545201D01*
X163838838Y-133917167D01*
X163980883Y-134260943D01*
X164042632Y-134322800D01*
X164075843Y-134489765D01*
X164216191Y-134699809D01*
X164426235Y-134840157D01*
X164435500Y-134842000D01*
X164426235Y-134843843D01*
X164216191Y-134984191D01*
X164075843Y-135194235D01*
X164026560Y-135442000D01*
X164026560Y-136942000D01*
X164075843Y-137189765D01*
X164216191Y-137399809D01*
X164426235Y-137540157D01*
X164674000Y-137589440D01*
X165974000Y-137589440D01*
X166221765Y-137540157D01*
X166431809Y-137399809D01*
X166572157Y-137189765D01*
X166621440Y-136942000D01*
X166621440Y-136709688D01*
X166758838Y-136378799D01*
X166759162Y-136006833D01*
X166621440Y-135673519D01*
X166621440Y-135442000D01*
X166572157Y-135194235D01*
X166431809Y-134984191D01*
X166221765Y-134843843D01*
X166212500Y-134842000D01*
X166221765Y-134840157D01*
X166431809Y-134699809D01*
X166572157Y-134489765D01*
X166618583Y-134256364D01*
X166621862Y-134272849D01*
X166786609Y-134519411D01*
X168632790Y-136365592D01*
X168559907Y-136732000D01*
X168672946Y-137300285D01*
X168994853Y-137782054D01*
X169476622Y-138103961D01*
X170044907Y-138217000D01*
X170103093Y-138217000D01*
X170671378Y-138103961D01*
X171153147Y-137782054D01*
X171475054Y-137300285D01*
X171588093Y-136732000D01*
X171475054Y-136163715D01*
X171153147Y-135681946D01*
X170823974Y-135462000D01*
X171153147Y-135242054D01*
X171475054Y-134760285D01*
X171588093Y-134192000D01*
X171475054Y-133623715D01*
X171153147Y-133141946D01*
X171109223Y-133112597D01*
X171171765Y-133100157D01*
X171381809Y-132959809D01*
X171522157Y-132749765D01*
X171571440Y-132502000D01*
X171571440Y-130802000D01*
X171522157Y-130554235D01*
X171381809Y-130344191D01*
X171171765Y-130203843D01*
X170924000Y-130154560D01*
X170834000Y-130154560D01*
X170834000Y-130016998D01*
X170776148Y-129726159D01*
X170611401Y-129479597D01*
X168383793Y-127251989D01*
X178089214Y-127251989D01*
X177966191Y-127334191D01*
X177825843Y-127544235D01*
X177776560Y-127792000D01*
X177776560Y-129092000D01*
X177825843Y-129339765D01*
X177966191Y-129549809D01*
X178176235Y-129690157D01*
X178289000Y-129712587D01*
X178289000Y-129885541D01*
X178216191Y-129934191D01*
X178075843Y-130144235D01*
X178026560Y-130392000D01*
X178026560Y-131492000D01*
X178075843Y-131739765D01*
X178216191Y-131949809D01*
X178354164Y-132042000D01*
X178216191Y-132134191D01*
X178075843Y-132344235D01*
X178026560Y-132592000D01*
X178026560Y-134092000D01*
X178075843Y-134339765D01*
X178216191Y-134549809D01*
X178426235Y-134690157D01*
X178435500Y-134692000D01*
X178426235Y-134693843D01*
X178216191Y-134834191D01*
X178075843Y-135044235D01*
X178026560Y-135292000D01*
X178026560Y-136792000D01*
X178075843Y-137039765D01*
X178216191Y-137249809D01*
X178426235Y-137390157D01*
X178674000Y-137439440D01*
X179974000Y-137439440D01*
X180221765Y-137390157D01*
X180431809Y-137249809D01*
X180572157Y-137039765D01*
X180621440Y-136792000D01*
X180621440Y-135292000D01*
X180572157Y-135044235D01*
X180431809Y-134834191D01*
X180221765Y-134693843D01*
X180212500Y-134692000D01*
X180221765Y-134690157D01*
X180431809Y-134549809D01*
X180572157Y-134339765D01*
X180621440Y-134092000D01*
X180621440Y-134020768D01*
X180621852Y-134022839D01*
X180786599Y-134269401D01*
X182882790Y-136365592D01*
X182809907Y-136732000D01*
X182922946Y-137300285D01*
X183244853Y-137782054D01*
X183726622Y-138103961D01*
X184294907Y-138217000D01*
X184353093Y-138217000D01*
X184921378Y-138103961D01*
X185403147Y-137782054D01*
X185725054Y-137300285D01*
X185838093Y-136732000D01*
X185725054Y-136163715D01*
X185403147Y-135681946D01*
X185073974Y-135462000D01*
X185403147Y-135242054D01*
X185725054Y-134760285D01*
X185838093Y-134192000D01*
X185725054Y-133623715D01*
X185403147Y-133141946D01*
X185359223Y-133112597D01*
X185421765Y-133100157D01*
X185631809Y-132959809D01*
X185772157Y-132749765D01*
X185821440Y-132502000D01*
X185821440Y-130802000D01*
X185772157Y-130554235D01*
X185631809Y-130344191D01*
X185421765Y-130203843D01*
X185174000Y-130154560D01*
X185084000Y-130154560D01*
X185084000Y-129266998D01*
X185056186Y-129127167D01*
X185026148Y-128976158D01*
X184861401Y-128729597D01*
X183083804Y-126952000D01*
X193759198Y-126952000D01*
X193958650Y-127151452D01*
X193924000Y-127144560D01*
X192424000Y-127144560D01*
X192176235Y-127193843D01*
X191966191Y-127334191D01*
X191825843Y-127544235D01*
X191776560Y-127792000D01*
X191776560Y-129092000D01*
X191825843Y-129339765D01*
X191966191Y-129549809D01*
X192176235Y-129690157D01*
X192289000Y-129712587D01*
X192289000Y-129885541D01*
X192216191Y-129934191D01*
X192075843Y-130144235D01*
X192026560Y-130392000D01*
X192026560Y-131492000D01*
X192075843Y-131739765D01*
X192216191Y-131949809D01*
X192339000Y-132031868D01*
X192339000Y-132052132D01*
X192216191Y-132134191D01*
X192075843Y-132344235D01*
X192026560Y-132592000D01*
X192026560Y-134092000D01*
X192075843Y-134339765D01*
X192216191Y-134549809D01*
X192426235Y-134690157D01*
X192435500Y-134692000D01*
X192426235Y-134693843D01*
X192216191Y-134834191D01*
X192075843Y-135044235D01*
X192026560Y-135292000D01*
X192026560Y-136792000D01*
X192075843Y-137039765D01*
X192216191Y-137249809D01*
X192426235Y-137390157D01*
X192674000Y-137439440D01*
X193974000Y-137439440D01*
X194221765Y-137390157D01*
X194431809Y-137249809D01*
X194572157Y-137039765D01*
X194621440Y-136792000D01*
X194621440Y-135292000D01*
X194572157Y-135044235D01*
X194431809Y-134834191D01*
X194221765Y-134693843D01*
X194212500Y-134692000D01*
X194221765Y-134690157D01*
X194431809Y-134549809D01*
X194572157Y-134339765D01*
X194621440Y-134092000D01*
X194621440Y-132592000D01*
X194572157Y-132344235D01*
X194431809Y-132134191D01*
X194221765Y-131993843D01*
X194178722Y-131985281D01*
X194231809Y-131949809D01*
X194372157Y-131739765D01*
X194421440Y-131492000D01*
X194421440Y-130392000D01*
X194372157Y-130144235D01*
X194231809Y-129934191D01*
X194059000Y-129818723D01*
X194059000Y-129712587D01*
X194171765Y-129690157D01*
X194381809Y-129549809D01*
X194522157Y-129339765D01*
X194571440Y-129092000D01*
X194571440Y-127792000D01*
X194564548Y-127757350D01*
X197204186Y-130396988D01*
X197125843Y-130514235D01*
X197076560Y-130762000D01*
X197076560Y-132462000D01*
X197125843Y-132709765D01*
X197266191Y-132919809D01*
X197476235Y-133060157D01*
X197538777Y-133072597D01*
X197494853Y-133101946D01*
X197172946Y-133583715D01*
X197059907Y-134152000D01*
X197172946Y-134720285D01*
X197494853Y-135202054D01*
X197824026Y-135422000D01*
X197494853Y-135641946D01*
X197172946Y-136123715D01*
X197059907Y-136692000D01*
X197172946Y-137260285D01*
X197494853Y-137742054D01*
X197976622Y-138063961D01*
X198544907Y-138177000D01*
X198603093Y-138177000D01*
X199171378Y-138063961D01*
X199653147Y-137742054D01*
X199975054Y-137260285D01*
X200088093Y-136692000D01*
X200015210Y-136325592D01*
X200286402Y-136054400D01*
X200451149Y-135807839D01*
X200509001Y-135516999D01*
X200509001Y-130501999D01*
X200451149Y-130211160D01*
X200286402Y-129964598D01*
X194576370Y-124254566D01*
X194329808Y-124089819D01*
X194038969Y-124031967D01*
X167988769Y-124031967D01*
X165834000Y-121877198D01*
X165834000Y-115894440D01*
X167274000Y-115894440D01*
X167521765Y-115845157D01*
X167731809Y-115704809D01*
X167872157Y-115494765D01*
X167921440Y-115247000D01*
X167921440Y-114647000D01*
X167872157Y-114399235D01*
X167731809Y-114189191D01*
X167521765Y-114048843D01*
X167274000Y-113999560D01*
X165584000Y-113999560D01*
X165584000Y-112084440D01*
X167274000Y-112084440D01*
X167521765Y-112035157D01*
X167731809Y-111894809D01*
X167872157Y-111684765D01*
X167921440Y-111437000D01*
X167921440Y-110837000D01*
X167872157Y-110589235D01*
X167845186Y-110548871D01*
X168061401Y-110404401D01*
X168861401Y-109604401D01*
X169026148Y-109357839D01*
X169084000Y-109067000D01*
X169084000Y-104692000D01*
X169026148Y-104401161D01*
X168901385Y-104214440D01*
X170324000Y-104214440D01*
X170571765Y-104165157D01*
X170781809Y-104024809D01*
X170922157Y-103814765D01*
X170971440Y-103567000D01*
X170971440Y-102317000D01*
X170922157Y-102069235D01*
X170781809Y-101859191D01*
X170571765Y-101718843D01*
X170324000Y-101669560D01*
X168824000Y-101669560D01*
X168629948Y-101708159D01*
X168866192Y-101472327D01*
X169008838Y-101128799D01*
X169009162Y-100756833D01*
X168867117Y-100413057D01*
X168707360Y-100253021D01*
X168791171Y-100169357D01*
X168933817Y-99825829D01*
X168934141Y-99453863D01*
X168792096Y-99110087D01*
X168529306Y-98846838D01*
X168185778Y-98704192D01*
X167921440Y-98703962D01*
X167921440Y-98137000D01*
X167872157Y-97889235D01*
X167837244Y-97836984D01*
X168077911Y-97737543D01*
X168341160Y-97474753D01*
X168483806Y-97131225D01*
X168484130Y-96759259D01*
X168342085Y-96415483D01*
X168079295Y-96152234D01*
X167735767Y-96009588D01*
X167363801Y-96009264D01*
X167020025Y-96151309D01*
X166929684Y-96241492D01*
X166925735Y-96242278D01*
X166679173Y-96407025D01*
X165736599Y-97349599D01*
X165643080Y-97489560D01*
X165334000Y-97489560D01*
X165334000Y-96256802D01*
X165961401Y-95629401D01*
X166054920Y-95489440D01*
X166174000Y-95489440D01*
X166421765Y-95440157D01*
X166631809Y-95299809D01*
X166772157Y-95089765D01*
X166821440Y-94842000D01*
X166821440Y-93542000D01*
X166772157Y-93294235D01*
X166631809Y-93084191D01*
X166421765Y-92943843D01*
X166174000Y-92894560D01*
X164674000Y-92894560D01*
X164426235Y-92943843D01*
X164216191Y-93084191D01*
X164075843Y-93294235D01*
X164074000Y-93303500D01*
X164072157Y-93294235D01*
X163931809Y-93084191D01*
X163721765Y-92943843D01*
X163474000Y-92894560D01*
X161974000Y-92894560D01*
X161726235Y-92943843D01*
X161516191Y-93084191D01*
X161375843Y-93294235D01*
X161348440Y-93432000D01*
X160685425Y-93432000D01*
X160394586Y-93489852D01*
X160148024Y-93654599D01*
X158846597Y-94956026D01*
X158681850Y-95202588D01*
X158623998Y-95493427D01*
X158623998Y-97127198D01*
X158535794Y-97215402D01*
X156024991Y-94704599D01*
X155778429Y-94539852D01*
X155487590Y-94482000D01*
X154369451Y-94482000D01*
X154322157Y-94244235D01*
X154181809Y-94034191D01*
X153971765Y-93893843D01*
X153724000Y-93844560D01*
X152424000Y-93844560D01*
X152176235Y-93893843D01*
X151966191Y-94034191D01*
X151825843Y-94244235D01*
X151776560Y-94492000D01*
X151776560Y-95992000D01*
X151825843Y-96239765D01*
X151966191Y-96449809D01*
X152176235Y-96590157D01*
X152185500Y-96592000D01*
X152176235Y-96593843D01*
X151966191Y-96734191D01*
X151825843Y-96944235D01*
X151776560Y-97192000D01*
X151776560Y-98692000D01*
X151825843Y-98939765D01*
X151966191Y-99149809D01*
X152176235Y-99290157D01*
X152314000Y-99317560D01*
X152314000Y-99392198D01*
X152149197Y-99557001D01*
X150559000Y-99557001D01*
X150268160Y-99614853D01*
X150167668Y-99682000D01*
X144999002Y-99682000D01*
X144708163Y-99739852D01*
X144461601Y-99904599D01*
X141911600Y-102454600D01*
X141746853Y-102701162D01*
X141689001Y-102992001D01*
X141689001Y-103932000D01*
X136588824Y-103932000D01*
X136209144Y-103552320D01*
X136209184Y-103506833D01*
X136067139Y-103163057D01*
X135804349Y-102899808D01*
X135460821Y-102757162D01*
X135409012Y-102757117D01*
X135409012Y-94957012D01*
X135397902Y-94901161D01*
X135351160Y-94666172D01*
X135186413Y-94419611D01*
X134239002Y-93472200D01*
X134248759Y-93448702D01*
X134249240Y-92897715D01*
X134038831Y-92388485D01*
X133649564Y-91998539D01*
X133140702Y-91787241D01*
X132589715Y-91786760D01*
X132080485Y-91997169D01*
X131721440Y-92355589D01*
X131721440Y-91152000D01*
X131672157Y-90904235D01*
X131531809Y-90694191D01*
X131321765Y-90553843D01*
X131074000Y-90504560D01*
X129574000Y-90504560D01*
X129326235Y-90553843D01*
X129116191Y-90694191D01*
X128975843Y-90904235D01*
X128926560Y-91152000D01*
X128926560Y-92652000D01*
X128975843Y-92899765D01*
X129116191Y-93109809D01*
X129326235Y-93250157D01*
X129519097Y-93288519D01*
X129150539Y-93656436D01*
X128939241Y-94165298D01*
X128938760Y-94716285D01*
X129149169Y-95225515D01*
X129538436Y-95615461D01*
X129770870Y-95711976D01*
X129540485Y-95807169D01*
X129150539Y-96196436D01*
X128939241Y-96705298D01*
X128938760Y-97256285D01*
X129149169Y-97765515D01*
X129287306Y-97903892D01*
X128536599Y-98654599D01*
X128371852Y-98901161D01*
X128314000Y-99192000D01*
X116534000Y-99192000D01*
X116534000Y-90899177D01*
X121513574Y-90899177D01*
X121887298Y-91803657D01*
X122578703Y-92496270D01*
X123482529Y-92871572D01*
X124461177Y-92872426D01*
X125365657Y-92498702D01*
X126058270Y-91807297D01*
X126433572Y-90903471D01*
X126434426Y-89924823D01*
X126060702Y-89020343D01*
X125636895Y-88595795D01*
X175188716Y-88595795D01*
X175437106Y-89196943D01*
X175896637Y-89657278D01*
X176497352Y-89906716D01*
X177147795Y-89907284D01*
X177748943Y-89658894D01*
X178209278Y-89199363D01*
X178458716Y-88598648D01*
X178458718Y-88595795D01*
X182688716Y-88595795D01*
X182937106Y-89196943D01*
X183396637Y-89657278D01*
X183997352Y-89906716D01*
X184647795Y-89907284D01*
X185248943Y-89658894D01*
X185709278Y-89199363D01*
X185958716Y-88598648D01*
X185958718Y-88595795D01*
X190188716Y-88595795D01*
X190437106Y-89196943D01*
X190896637Y-89657278D01*
X191497352Y-89906716D01*
X192147795Y-89907284D01*
X192748943Y-89658894D01*
X193209278Y-89199363D01*
X193458716Y-88598648D01*
X193458718Y-88595795D01*
X197688716Y-88595795D01*
X197937106Y-89196943D01*
X198396637Y-89657278D01*
X198997352Y-89906716D01*
X199647795Y-89907284D01*
X200248943Y-89658894D01*
X200709278Y-89199363D01*
X200958716Y-88598648D01*
X200959284Y-87948205D01*
X200710894Y-87347057D01*
X200251363Y-86886722D01*
X199650648Y-86637284D01*
X199000205Y-86636716D01*
X198399057Y-86885106D01*
X197938722Y-87344637D01*
X197689284Y-87945352D01*
X197688716Y-88595795D01*
X193458718Y-88595795D01*
X193459284Y-87948205D01*
X193210894Y-87347057D01*
X192751363Y-86886722D01*
X192150648Y-86637284D01*
X191500205Y-86636716D01*
X190899057Y-86885106D01*
X190438722Y-87344637D01*
X190189284Y-87945352D01*
X190188716Y-88595795D01*
X185958718Y-88595795D01*
X185959284Y-87948205D01*
X185710894Y-87347057D01*
X185251363Y-86886722D01*
X184650648Y-86637284D01*
X184000205Y-86636716D01*
X183399057Y-86885106D01*
X182938722Y-87344637D01*
X182689284Y-87945352D01*
X182688716Y-88595795D01*
X178458718Y-88595795D01*
X178459284Y-87948205D01*
X178210894Y-87347057D01*
X177751363Y-86886722D01*
X177150648Y-86637284D01*
X176500205Y-86636716D01*
X175899057Y-86885106D01*
X175438722Y-87344637D01*
X175189284Y-87945352D01*
X175188716Y-88595795D01*
X125636895Y-88595795D01*
X125369297Y-88327730D01*
X124465471Y-87952428D01*
X123486823Y-87951574D01*
X122582343Y-88325298D01*
X121889730Y-89016703D01*
X121514428Y-89920529D01*
X121513574Y-90899177D01*
X116534000Y-90899177D01*
X116534000Y-85881873D01*
X120938812Y-85881873D01*
X121103646Y-86280800D01*
X121408595Y-86586282D01*
X121807233Y-86751811D01*
X122238873Y-86752188D01*
X122637800Y-86587354D01*
X122943282Y-86282405D01*
X123108811Y-85883767D01*
X123109188Y-85452127D01*
X122944354Y-85053200D01*
X122639405Y-84747718D01*
X122566926Y-84717622D01*
X123749561Y-84717622D01*
X123914395Y-85116549D01*
X124219344Y-85422031D01*
X124617982Y-85587560D01*
X125049622Y-85587937D01*
X125448549Y-85423103D01*
X125754031Y-85118154D01*
X125919560Y-84719516D01*
X125919937Y-84287876D01*
X125839003Y-84092000D01*
X135246560Y-84092000D01*
X135246560Y-85792000D01*
X135295843Y-86039765D01*
X135436191Y-86249809D01*
X135646235Y-86390157D01*
X135894000Y-86439440D01*
X137594000Y-86439440D01*
X137841765Y-86390157D01*
X138051809Y-86249809D01*
X138192157Y-86039765D01*
X138204597Y-85977223D01*
X138233946Y-86021147D01*
X138715715Y-86343054D01*
X139284000Y-86456093D01*
X139852285Y-86343054D01*
X140334054Y-86021147D01*
X140554000Y-85691974D01*
X140773946Y-86021147D01*
X141255715Y-86343054D01*
X141824000Y-86456093D01*
X142392285Y-86343054D01*
X142874054Y-86021147D01*
X143195961Y-85539378D01*
X143309000Y-84971093D01*
X143309000Y-84912907D01*
X143195961Y-84344622D01*
X143027165Y-84092000D01*
X144996560Y-84092000D01*
X144996560Y-85792000D01*
X145045843Y-86039765D01*
X145186191Y-86249809D01*
X145396235Y-86390157D01*
X145644000Y-86439440D01*
X147344000Y-86439440D01*
X147591765Y-86390157D01*
X147801809Y-86249809D01*
X147942157Y-86039765D01*
X147954597Y-85977223D01*
X147983946Y-86021147D01*
X148465715Y-86343054D01*
X149034000Y-86456093D01*
X149602285Y-86343054D01*
X150084054Y-86021147D01*
X150304000Y-85691974D01*
X150523946Y-86021147D01*
X151005715Y-86343054D01*
X151574000Y-86456093D01*
X151786183Y-86413887D01*
X161099000Y-86413887D01*
X161099000Y-86470113D01*
X161208233Y-87019264D01*
X161519302Y-87484811D01*
X161984849Y-87795880D01*
X162534000Y-87905113D01*
X163083151Y-87795880D01*
X163548698Y-87484811D01*
X163804000Y-87102725D01*
X164059302Y-87484811D01*
X164524849Y-87795880D01*
X165074000Y-87905113D01*
X165623151Y-87795880D01*
X166088698Y-87484811D01*
X166344000Y-87102725D01*
X166599302Y-87484811D01*
X167064849Y-87795880D01*
X167614000Y-87905113D01*
X168163151Y-87795880D01*
X168628698Y-87484811D01*
X168939767Y-87019264D01*
X169049000Y-86470113D01*
X169049000Y-86413887D01*
X168943176Y-85881873D01*
X208538812Y-85881873D01*
X208703646Y-86280800D01*
X209008595Y-86586282D01*
X209407233Y-86751811D01*
X209838873Y-86752188D01*
X210237800Y-86587354D01*
X210543282Y-86282405D01*
X210708811Y-85883767D01*
X210709188Y-85452127D01*
X210544354Y-85053200D01*
X210239405Y-84747718D01*
X210166926Y-84717622D01*
X211349561Y-84717622D01*
X211514395Y-85116549D01*
X211819344Y-85422031D01*
X212217982Y-85587560D01*
X212649622Y-85587937D01*
X213048549Y-85423103D01*
X213354031Y-85118154D01*
X213519560Y-84719516D01*
X213519937Y-84287876D01*
X213355103Y-83888949D01*
X213050154Y-83583467D01*
X212651516Y-83417938D01*
X212219876Y-83417561D01*
X211820949Y-83582395D01*
X211515467Y-83887344D01*
X211349938Y-84285982D01*
X211349561Y-84717622D01*
X210166926Y-84717622D01*
X209840767Y-84582189D01*
X209409127Y-84581812D01*
X209010200Y-84746646D01*
X208704718Y-85051595D01*
X208539189Y-85450233D01*
X208538812Y-85881873D01*
X168943176Y-85881873D01*
X168939767Y-85864736D01*
X168628698Y-85399189D01*
X168163151Y-85088120D01*
X167614000Y-84978887D01*
X167064849Y-85088120D01*
X166599302Y-85399189D01*
X166344000Y-85781275D01*
X166088698Y-85399189D01*
X165623151Y-85088120D01*
X165074000Y-84978887D01*
X164524849Y-85088120D01*
X164059302Y-85399189D01*
X163804000Y-85781275D01*
X163548698Y-85399189D01*
X163083151Y-85088120D01*
X162534000Y-84978887D01*
X161984849Y-85088120D01*
X161519302Y-85399189D01*
X161208233Y-85864736D01*
X161099000Y-86413887D01*
X151786183Y-86413887D01*
X152142285Y-86343054D01*
X152624054Y-86021147D01*
X152945961Y-85539378D01*
X153059000Y-84971093D01*
X153059000Y-84912907D01*
X152945961Y-84344622D01*
X152624054Y-83862853D01*
X152142285Y-83540946D01*
X152015843Y-83515795D01*
X175188716Y-83515795D01*
X175437106Y-84116943D01*
X175896637Y-84577278D01*
X176497352Y-84826716D01*
X177147795Y-84827284D01*
X177748943Y-84578894D01*
X178209278Y-84119363D01*
X178458716Y-83518648D01*
X178458718Y-83515795D01*
X182688716Y-83515795D01*
X182937106Y-84116943D01*
X183396637Y-84577278D01*
X183997352Y-84826716D01*
X184647795Y-84827284D01*
X185248943Y-84578894D01*
X185709278Y-84119363D01*
X185958716Y-83518648D01*
X185958718Y-83515795D01*
X190188716Y-83515795D01*
X190437106Y-84116943D01*
X190896637Y-84577278D01*
X191497352Y-84826716D01*
X192147795Y-84827284D01*
X192748943Y-84578894D01*
X193209278Y-84119363D01*
X193458716Y-83518648D01*
X193458718Y-83515795D01*
X197688716Y-83515795D01*
X197937106Y-84116943D01*
X198396637Y-84577278D01*
X198997352Y-84826716D01*
X199647795Y-84827284D01*
X199913196Y-84717622D01*
X205728063Y-84717622D01*
X205892897Y-85116549D01*
X206197846Y-85422031D01*
X206596484Y-85587560D01*
X207028124Y-85587937D01*
X207427051Y-85423103D01*
X207732533Y-85118154D01*
X207898062Y-84719516D01*
X207898439Y-84287876D01*
X207733605Y-83888949D01*
X207428656Y-83583467D01*
X207030018Y-83417938D01*
X206598378Y-83417561D01*
X206199451Y-83582395D01*
X205893969Y-83887344D01*
X205728440Y-84285982D01*
X205728063Y-84717622D01*
X199913196Y-84717622D01*
X200248943Y-84578894D01*
X200709278Y-84119363D01*
X200958716Y-83518648D01*
X200959284Y-82868205D01*
X200710894Y-82267057D01*
X200351340Y-81906873D01*
X204563812Y-81906873D01*
X204728646Y-82305800D01*
X205033595Y-82611282D01*
X205432233Y-82776811D01*
X205863873Y-82777188D01*
X206262800Y-82612354D01*
X206568282Y-82307405D01*
X206733811Y-81908767D01*
X206733812Y-81906873D01*
X212513812Y-81906873D01*
X212678646Y-82305800D01*
X212983595Y-82611282D01*
X213382233Y-82776811D01*
X213813873Y-82777188D01*
X214212800Y-82612354D01*
X214518282Y-82307405D01*
X214683811Y-81908767D01*
X214684188Y-81477127D01*
X214519354Y-81078200D01*
X214214405Y-80772718D01*
X213815767Y-80607189D01*
X213384127Y-80606812D01*
X212985200Y-80771646D01*
X212679718Y-81076595D01*
X212514189Y-81475233D01*
X212513812Y-81906873D01*
X206733812Y-81906873D01*
X206734188Y-81477127D01*
X206569354Y-81078200D01*
X206264405Y-80772718D01*
X205865767Y-80607189D01*
X205434127Y-80606812D01*
X205035200Y-80771646D01*
X204729718Y-81076595D01*
X204564189Y-81475233D01*
X204563812Y-81906873D01*
X200351340Y-81906873D01*
X200251363Y-81806722D01*
X199650648Y-81557284D01*
X199000205Y-81556716D01*
X198399057Y-81805106D01*
X197938722Y-82264637D01*
X197689284Y-82865352D01*
X197688716Y-83515795D01*
X193458718Y-83515795D01*
X193459284Y-82868205D01*
X193210894Y-82267057D01*
X192751363Y-81806722D01*
X192150648Y-81557284D01*
X191500205Y-81556716D01*
X190899057Y-81805106D01*
X190438722Y-82264637D01*
X190189284Y-82865352D01*
X190188716Y-83515795D01*
X185958718Y-83515795D01*
X185959284Y-82868205D01*
X185710894Y-82267057D01*
X185251363Y-81806722D01*
X184650648Y-81557284D01*
X184000205Y-81556716D01*
X183399057Y-81805106D01*
X182938722Y-82264637D01*
X182689284Y-82865352D01*
X182688716Y-83515795D01*
X178458718Y-83515795D01*
X178459284Y-82868205D01*
X178210894Y-82267057D01*
X177751363Y-81806722D01*
X177150648Y-81557284D01*
X176500205Y-81556716D01*
X175899057Y-81805106D01*
X175438722Y-82264637D01*
X175189284Y-82865352D01*
X175188716Y-83515795D01*
X152015843Y-83515795D01*
X151574000Y-83427907D01*
X151005715Y-83540946D01*
X150523946Y-83862853D01*
X150304000Y-84192026D01*
X150084054Y-83862853D01*
X149798422Y-83672000D01*
X150084054Y-83481147D01*
X150405961Y-82999378D01*
X150519000Y-82431093D01*
X150519000Y-82372907D01*
X150405961Y-81804622D01*
X150084054Y-81322853D01*
X149602285Y-81000946D01*
X149034000Y-80887907D01*
X148465715Y-81000946D01*
X147983946Y-81322853D01*
X147764000Y-81652026D01*
X147544054Y-81322853D01*
X147062285Y-81000946D01*
X146494000Y-80887907D01*
X145925715Y-81000946D01*
X145443946Y-81322853D01*
X145122039Y-81804622D01*
X145009000Y-82372907D01*
X145009000Y-82431093D01*
X145122039Y-82999378D01*
X145443946Y-83481147D01*
X145447643Y-83483617D01*
X145396235Y-83493843D01*
X145186191Y-83634191D01*
X145045843Y-83844235D01*
X144996560Y-84092000D01*
X143027165Y-84092000D01*
X142874054Y-83862853D01*
X142392285Y-83540946D01*
X141824000Y-83427907D01*
X141255715Y-83540946D01*
X140773946Y-83862853D01*
X140554000Y-84192026D01*
X140334054Y-83862853D01*
X140048422Y-83672000D01*
X140334054Y-83481147D01*
X140655961Y-82999378D01*
X140769000Y-82431093D01*
X140769000Y-82372907D01*
X140655961Y-81804622D01*
X140334054Y-81322853D01*
X139852285Y-81000946D01*
X139284000Y-80887907D01*
X138715715Y-81000946D01*
X138233946Y-81322853D01*
X138014000Y-81652026D01*
X137794054Y-81322853D01*
X137312285Y-81000946D01*
X136744000Y-80887907D01*
X136175715Y-81000946D01*
X135693946Y-81322853D01*
X135372039Y-81804622D01*
X135259000Y-82372907D01*
X135259000Y-82431093D01*
X135372039Y-82999378D01*
X135693946Y-83481147D01*
X135697643Y-83483617D01*
X135646235Y-83493843D01*
X135436191Y-83634191D01*
X135295843Y-83844235D01*
X135246560Y-84092000D01*
X125839003Y-84092000D01*
X125755103Y-83888949D01*
X125450154Y-83583467D01*
X125051516Y-83417938D01*
X124619876Y-83417561D01*
X124220949Y-83582395D01*
X123915467Y-83887344D01*
X123749938Y-84285982D01*
X123749561Y-84717622D01*
X122566926Y-84717622D01*
X122240767Y-84582189D01*
X121809127Y-84581812D01*
X121410200Y-84746646D01*
X121104718Y-85051595D01*
X120939189Y-85450233D01*
X120938812Y-85881873D01*
X116534000Y-85881873D01*
X116534000Y-84717622D01*
X118128063Y-84717622D01*
X118292897Y-85116549D01*
X118597846Y-85422031D01*
X118996484Y-85587560D01*
X119428124Y-85587937D01*
X119827051Y-85423103D01*
X120132533Y-85118154D01*
X120298062Y-84719516D01*
X120298439Y-84287876D01*
X120133605Y-83888949D01*
X119828656Y-83583467D01*
X119430018Y-83417938D01*
X118998378Y-83417561D01*
X118599451Y-83582395D01*
X118293969Y-83887344D01*
X118128440Y-84285982D01*
X118128063Y-84717622D01*
X116534000Y-84717622D01*
X116534000Y-81906873D01*
X116963812Y-81906873D01*
X117128646Y-82305800D01*
X117433595Y-82611282D01*
X117832233Y-82776811D01*
X118263873Y-82777188D01*
X118662800Y-82612354D01*
X118968282Y-82307405D01*
X119133811Y-81908767D01*
X119133812Y-81906873D01*
X124913812Y-81906873D01*
X125078646Y-82305800D01*
X125383595Y-82611282D01*
X125782233Y-82776811D01*
X126213873Y-82777188D01*
X126612800Y-82612354D01*
X126918282Y-82307405D01*
X127083811Y-81908767D01*
X127084188Y-81477127D01*
X126919354Y-81078200D01*
X126614405Y-80772718D01*
X126215767Y-80607189D01*
X125784127Y-80606812D01*
X125385200Y-80771646D01*
X125079718Y-81076595D01*
X124914189Y-81475233D01*
X124913812Y-81906873D01*
X119133812Y-81906873D01*
X119134188Y-81477127D01*
X118969354Y-81078200D01*
X118664405Y-80772718D01*
X118265767Y-80607189D01*
X117834127Y-80606812D01*
X117435200Y-80771646D01*
X117129718Y-81076595D01*
X116964189Y-81475233D01*
X116963812Y-81906873D01*
X116534000Y-81906873D01*
X116534000Y-79096124D01*
X118128063Y-79096124D01*
X118292897Y-79495051D01*
X118597846Y-79800533D01*
X118996484Y-79966062D01*
X119428124Y-79966439D01*
X119827051Y-79801605D01*
X120132533Y-79496656D01*
X120298062Y-79098018D01*
X120298063Y-79096124D01*
X123749561Y-79096124D01*
X123914395Y-79495051D01*
X124219344Y-79800533D01*
X124617982Y-79966062D01*
X125049622Y-79966439D01*
X125448549Y-79801605D01*
X125754031Y-79496656D01*
X125919560Y-79098018D01*
X125919561Y-79096124D01*
X205728063Y-79096124D01*
X205892897Y-79495051D01*
X206197846Y-79800533D01*
X206596484Y-79966062D01*
X207028124Y-79966439D01*
X207427051Y-79801605D01*
X207732533Y-79496656D01*
X207898062Y-79098018D01*
X207898063Y-79096124D01*
X211349561Y-79096124D01*
X211514395Y-79495051D01*
X211819344Y-79800533D01*
X212217982Y-79966062D01*
X212649622Y-79966439D01*
X213048549Y-79801605D01*
X213354031Y-79496656D01*
X213519560Y-79098018D01*
X213519937Y-78666378D01*
X213355103Y-78267451D01*
X213050154Y-77961969D01*
X212651516Y-77796440D01*
X212219876Y-77796063D01*
X211820949Y-77960897D01*
X211515467Y-78265846D01*
X211349938Y-78664484D01*
X211349561Y-79096124D01*
X207898063Y-79096124D01*
X207898439Y-78666378D01*
X207733605Y-78267451D01*
X207428656Y-77961969D01*
X207356177Y-77931873D01*
X208538812Y-77931873D01*
X208703646Y-78330800D01*
X209008595Y-78636282D01*
X209407233Y-78801811D01*
X209838873Y-78802188D01*
X210237800Y-78637354D01*
X210543282Y-78332405D01*
X210708811Y-77933767D01*
X210709188Y-77502127D01*
X210544354Y-77103200D01*
X210239405Y-76797718D01*
X209840767Y-76632189D01*
X209409127Y-76631812D01*
X209010200Y-76796646D01*
X208704718Y-77101595D01*
X208539189Y-77500233D01*
X208538812Y-77931873D01*
X207356177Y-77931873D01*
X207030018Y-77796440D01*
X206598378Y-77796063D01*
X206199451Y-77960897D01*
X205893969Y-78265846D01*
X205728440Y-78664484D01*
X205728063Y-79096124D01*
X125919561Y-79096124D01*
X125919937Y-78666378D01*
X125755103Y-78267451D01*
X125450154Y-77961969D01*
X125051516Y-77796440D01*
X124619876Y-77796063D01*
X124220949Y-77960897D01*
X123915467Y-78265846D01*
X123749938Y-78664484D01*
X123749561Y-79096124D01*
X120298063Y-79096124D01*
X120298439Y-78666378D01*
X120133605Y-78267451D01*
X119828656Y-77961969D01*
X119756177Y-77931873D01*
X120938812Y-77931873D01*
X121103646Y-78330800D01*
X121408595Y-78636282D01*
X121807233Y-78801811D01*
X122238873Y-78802188D01*
X122637800Y-78637354D01*
X122943282Y-78332405D01*
X123108811Y-77933767D01*
X123109188Y-77502127D01*
X122944354Y-77103200D01*
X122639405Y-76797718D01*
X122240767Y-76632189D01*
X121809127Y-76631812D01*
X121410200Y-76796646D01*
X121104718Y-77101595D01*
X120939189Y-77500233D01*
X120938812Y-77931873D01*
X119756177Y-77931873D01*
X119430018Y-77796440D01*
X118998378Y-77796063D01*
X118599451Y-77960897D01*
X118293969Y-78265846D01*
X118128440Y-78664484D01*
X118128063Y-79096124D01*
X116534000Y-79096124D01*
X116534000Y-76402000D01*
X215114000Y-76402000D01*
X215114000Y-154982000D01*
G36*
X161388838Y-108377167D02*
X161530883Y-108720943D01*
X161564000Y-108754118D01*
X161564000Y-110442000D01*
X161621852Y-110732839D01*
X161786599Y-110979401D01*
X162138878Y-111331680D01*
X162138838Y-111377167D01*
X162280883Y-111720943D01*
X162543673Y-111984192D01*
X162863989Y-112117199D01*
X162863989Y-122466957D01*
X162921841Y-122757796D01*
X163086588Y-123004358D01*
X165364208Y-125281978D01*
X162488780Y-125281978D01*
X160584000Y-123377198D01*
X160584000Y-112117000D01*
X160526148Y-111826161D01*
X160361401Y-111579599D01*
X158605342Y-109823540D01*
X158671402Y-109779400D01*
X160188680Y-108262122D01*
X160234167Y-108262162D01*
X160577943Y-108120117D01*
X160611118Y-108087000D01*
X161389091Y-108087000D01*
X161388838Y-108377167D01*
X161388838Y-108377167D01*
G37*
X161388838Y-108377167D02*
X161530883Y-108720943D01*
X161564000Y-108754118D01*
X161564000Y-110442000D01*
X161621852Y-110732839D01*
X161786599Y-110979401D01*
X162138878Y-111331680D01*
X162138838Y-111377167D01*
X162280883Y-111720943D01*
X162543673Y-111984192D01*
X162863989Y-112117199D01*
X162863989Y-122466957D01*
X162921841Y-122757796D01*
X163086588Y-123004358D01*
X165364208Y-125281978D01*
X162488780Y-125281978D01*
X160584000Y-123377198D01*
X160584000Y-112117000D01*
X160526148Y-111826161D01*
X160361401Y-111579599D01*
X158605342Y-109823540D01*
X158671402Y-109779400D01*
X160188680Y-108262122D01*
X160234167Y-108262162D01*
X160577943Y-108120117D01*
X160611118Y-108087000D01*
X161389091Y-108087000D01*
X161388838Y-108377167D01*
G36*
X131478760Y-98526285D02*
X131689169Y-99035515D01*
X132078436Y-99425461D01*
X132587298Y-99636759D01*
X133138285Y-99637240D01*
X133163868Y-99626670D01*
X133439001Y-99901803D01*
X133439001Y-102757099D01*
X133138837Y-102756838D01*
X132795061Y-102898883D01*
X132531812Y-103161673D01*
X132389166Y-103505201D01*
X132389125Y-103552077D01*
X129834000Y-106107202D01*
X129834000Y-99506802D01*
X130523801Y-98817001D01*
X130840001Y-98817001D01*
X131130840Y-98759149D01*
X131377402Y-98594402D01*
X131478789Y-98493015D01*
X131478760Y-98526285D01*
X131478760Y-98526285D01*
G37*
X131478760Y-98526285D02*
X131689169Y-99035515D01*
X132078436Y-99425461D01*
X132587298Y-99636759D01*
X133138285Y-99637240D01*
X133163868Y-99626670D01*
X133439001Y-99901803D01*
X133439001Y-102757099D01*
X133138837Y-102756838D01*
X132795061Y-102898883D01*
X132531812Y-103161673D01*
X132389166Y-103505201D01*
X132389125Y-103552077D01*
X129834000Y-106107202D01*
X129834000Y-99506802D01*
X130523801Y-98817001D01*
X130840001Y-98817001D01*
X131130840Y-98759149D01*
X131377402Y-98594402D01*
X131478789Y-98493015D01*
X131478760Y-98526285D01*
G36*
X155226560Y-101947000D02*
X155226560Y-102547000D01*
X155275843Y-102794765D01*
X155416191Y-103004809D01*
X155626235Y-103145157D01*
X155874000Y-103194440D01*
X157814000Y-103194440D01*
X157814000Y-103839560D01*
X155874000Y-103839560D01*
X155626235Y-103888843D01*
X155419470Y-104027000D01*
X154313620Y-104027000D01*
X154297157Y-103944235D01*
X154156809Y-103734191D01*
X153946765Y-103593843D01*
X153699000Y-103544560D01*
X152449000Y-103544560D01*
X152201235Y-103593843D01*
X151991191Y-103734191D01*
X151850843Y-103944235D01*
X151803549Y-104182000D01*
X150849560Y-104182000D01*
X150822157Y-104044235D01*
X150681809Y-103834191D01*
X150471765Y-103693843D01*
X150462500Y-103692000D01*
X150471765Y-103690157D01*
X150681809Y-103549809D01*
X150822157Y-103339765D01*
X150871440Y-103092000D01*
X150871440Y-101737000D01*
X155268331Y-101737000D01*
X155226560Y-101947000D01*
X155226560Y-101947000D01*
G37*
X155226560Y-101947000D02*
X155226560Y-102547000D01*
X155275843Y-102794765D01*
X155416191Y-103004809D01*
X155626235Y-103145157D01*
X155874000Y-103194440D01*
X157814000Y-103194440D01*
X157814000Y-103839560D01*
X155874000Y-103839560D01*
X155626235Y-103888843D01*
X155419470Y-104027000D01*
X154313620Y-104027000D01*
X154297157Y-103944235D01*
X154156809Y-103734191D01*
X153946765Y-103593843D01*
X153699000Y-103544560D01*
X152449000Y-103544560D01*
X152201235Y-103593843D01*
X151991191Y-103734191D01*
X151850843Y-103944235D01*
X151803549Y-104182000D01*
X150849560Y-104182000D01*
X150822157Y-104044235D01*
X150681809Y-103834191D01*
X150471765Y-103693843D01*
X150462500Y-103692000D01*
X150471765Y-103690157D01*
X150681809Y-103549809D01*
X150822157Y-103339765D01*
X150871440Y-103092000D01*
X150871440Y-101737000D01*
X155268331Y-101737000D01*
X155226560Y-101947000D01*
M02*
