G04 #@! TF.GenerationSoftware,KiCad,Pcbnew,(2017-11-24 revision a01d81e)-master*
G04 #@! TF.CreationDate,2018-01-08T17:27:27+01:00*
G04 #@! TF.ProjectId,PWRCTRLBRD,5057524354524C4252442E6B69636164,rev?*
G04 #@! TF.SameCoordinates,Original*
G04 #@! TF.FileFunction,Legend,Bot*
G04 #@! TF.FilePolarity,Positive*
%FSLAX46Y46*%
G04 Gerber Fmt 4.6, Leading zero omitted, Abs format (unit mm)*
G04 Created by KiCad (PCBNEW (2017-11-24 revision a01d81e)-master) date Monday '08en' 08. January 2018 'kl'. 17.27.27*
%MOMM*%
%LPD*%
G01*
G04 APERTURE LIST*
%ADD10C,0.300000*%
%ADD11C,0.120000*%
%ADD12C,0.150000*%
G04 APERTURE END LIST*
D10*
X212252571Y-95584857D02*
X213252571Y-95870571D01*
X212538285Y-96156285D01*
X213252571Y-96442000D01*
X212252571Y-96727714D01*
X212252571Y-97156285D02*
X213252571Y-97442000D01*
X212538285Y-97727714D01*
X213252571Y-98013428D01*
X212252571Y-98299142D01*
X212252571Y-98727714D02*
X213252571Y-99013428D01*
X212538285Y-99299142D01*
X213252571Y-99584857D01*
X212252571Y-99870571D01*
X213109714Y-100442000D02*
X213181142Y-100513428D01*
X213252571Y-100442000D01*
X213181142Y-100370571D01*
X213109714Y-100442000D01*
X213252571Y-100442000D01*
X212252571Y-100942000D02*
X212252571Y-101513428D01*
X211752571Y-101156285D02*
X213038285Y-101156285D01*
X213181142Y-101227714D01*
X213252571Y-101370571D01*
X213252571Y-101513428D01*
X213252571Y-102013428D02*
X211752571Y-102013428D01*
X213252571Y-102656285D02*
X212466857Y-102656285D01*
X212324000Y-102584857D01*
X212252571Y-102442000D01*
X212252571Y-102227714D01*
X212324000Y-102084857D01*
X212395428Y-102013428D01*
X213181142Y-103942000D02*
X213252571Y-103799142D01*
X213252571Y-103513428D01*
X213181142Y-103370571D01*
X213038285Y-103299142D01*
X212466857Y-103299142D01*
X212324000Y-103370571D01*
X212252571Y-103513428D01*
X212252571Y-103799142D01*
X212324000Y-103942000D01*
X212466857Y-104013428D01*
X212609714Y-104013428D01*
X212752571Y-103299142D01*
X213252571Y-104656285D02*
X212252571Y-104656285D01*
X212395428Y-104656285D02*
X212324000Y-104727714D01*
X212252571Y-104870571D01*
X212252571Y-105084857D01*
X212324000Y-105227714D01*
X212466857Y-105299142D01*
X213252571Y-105299142D01*
X212466857Y-105299142D02*
X212324000Y-105370571D01*
X212252571Y-105513428D01*
X212252571Y-105727714D01*
X212324000Y-105870571D01*
X212466857Y-105942000D01*
X213252571Y-105942000D01*
X213252571Y-106656285D02*
X212252571Y-106656285D01*
X211752571Y-106656285D02*
X211824000Y-106584857D01*
X211895428Y-106656285D01*
X211824000Y-106727714D01*
X211752571Y-106656285D01*
X211895428Y-106656285D01*
X213181142Y-107299142D02*
X213252571Y-107442000D01*
X213252571Y-107727714D01*
X213181142Y-107870571D01*
X213038285Y-107942000D01*
X212966857Y-107942000D01*
X212824000Y-107870571D01*
X212752571Y-107727714D01*
X212752571Y-107513428D01*
X212681142Y-107370571D01*
X212538285Y-107299142D01*
X212466857Y-107299142D01*
X212324000Y-107370571D01*
X212252571Y-107513428D01*
X212252571Y-107727714D01*
X212324000Y-107870571D01*
X213181142Y-108513428D02*
X213252571Y-108656285D01*
X213252571Y-108942000D01*
X213181142Y-109084857D01*
X213038285Y-109156285D01*
X212966857Y-109156285D01*
X212824000Y-109084857D01*
X212752571Y-108942000D01*
X212752571Y-108727714D01*
X212681142Y-108584857D01*
X212538285Y-108513428D01*
X212466857Y-108513428D01*
X212324000Y-108584857D01*
X212252571Y-108727714D01*
X212252571Y-108942000D01*
X212324000Y-109084857D01*
X213252571Y-109799142D02*
X212252571Y-109799142D01*
X211752571Y-109799142D02*
X211824000Y-109727714D01*
X211895428Y-109799142D01*
X211824000Y-109870571D01*
X211752571Y-109799142D01*
X211895428Y-109799142D01*
X212252571Y-110513428D02*
X213252571Y-110513428D01*
X212395428Y-110513428D02*
X212324000Y-110584857D01*
X212252571Y-110727714D01*
X212252571Y-110942000D01*
X212324000Y-111084857D01*
X212466857Y-111156285D01*
X213252571Y-111156285D01*
X212252571Y-112513428D02*
X213466857Y-112513428D01*
X213609714Y-112442000D01*
X213681142Y-112370571D01*
X213752571Y-112227714D01*
X213752571Y-112013428D01*
X213681142Y-111870571D01*
X213181142Y-112513428D02*
X213252571Y-112370571D01*
X213252571Y-112084857D01*
X213181142Y-111942000D01*
X213109714Y-111870571D01*
X212966857Y-111799142D01*
X212538285Y-111799142D01*
X212395428Y-111870571D01*
X212324000Y-111942000D01*
X212252571Y-112084857D01*
X212252571Y-112370571D01*
X212324000Y-112513428D01*
X213181142Y-113156285D02*
X213252571Y-113299142D01*
X213252571Y-113584857D01*
X213181142Y-113727714D01*
X213038285Y-113799142D01*
X212966857Y-113799142D01*
X212824000Y-113727714D01*
X212752571Y-113584857D01*
X212752571Y-113370571D01*
X212681142Y-113227714D01*
X212538285Y-113156285D01*
X212466857Y-113156285D01*
X212324000Y-113227714D01*
X212252571Y-113370571D01*
X212252571Y-113584857D01*
X212324000Y-113727714D01*
X213181142Y-115013428D02*
X213252571Y-114870571D01*
X213252571Y-114584857D01*
X213181142Y-114442000D01*
X213038285Y-114370571D01*
X212466857Y-114370571D01*
X212324000Y-114442000D01*
X212252571Y-114584857D01*
X212252571Y-114870571D01*
X212324000Y-115013428D01*
X212466857Y-115084857D01*
X212609714Y-115084857D01*
X212752571Y-114370571D01*
X213252571Y-115727714D02*
X212252571Y-115727714D01*
X212395428Y-115727714D02*
X212324000Y-115799142D01*
X212252571Y-115942000D01*
X212252571Y-116156285D01*
X212324000Y-116299142D01*
X212466857Y-116370571D01*
X213252571Y-116370571D01*
X212466857Y-116370571D02*
X212324000Y-116442000D01*
X212252571Y-116584857D01*
X212252571Y-116799142D01*
X212324000Y-116942000D01*
X212466857Y-117013428D01*
X213252571Y-117013428D01*
X213252571Y-117727714D02*
X212252571Y-117727714D01*
X211752571Y-117727714D02*
X211824000Y-117656285D01*
X211895428Y-117727714D01*
X211824000Y-117799142D01*
X211752571Y-117727714D01*
X211895428Y-117727714D01*
X213181142Y-119084857D02*
X213252571Y-118942000D01*
X213252571Y-118656285D01*
X213181142Y-118513428D01*
X213109714Y-118442000D01*
X212966857Y-118370571D01*
X212538285Y-118370571D01*
X212395428Y-118442000D01*
X212324000Y-118513428D01*
X212252571Y-118656285D01*
X212252571Y-118942000D01*
X212324000Y-119084857D01*
X213252571Y-119942000D02*
X213181142Y-119799142D01*
X213109714Y-119727714D01*
X212966857Y-119656285D01*
X212538285Y-119656285D01*
X212395428Y-119727714D01*
X212324000Y-119799142D01*
X212252571Y-119942000D01*
X212252571Y-120156285D01*
X212324000Y-120299142D01*
X212395428Y-120370571D01*
X212538285Y-120442000D01*
X212966857Y-120442000D01*
X213109714Y-120370571D01*
X213181142Y-120299142D01*
X213252571Y-120156285D01*
X213252571Y-119942000D01*
X213252571Y-121299142D02*
X213181142Y-121156285D01*
X213038285Y-121084857D01*
X211752571Y-121084857D01*
X213252571Y-122084857D02*
X213181142Y-121942000D01*
X213109714Y-121870571D01*
X212966857Y-121799142D01*
X212538285Y-121799142D01*
X212395428Y-121870571D01*
X212324000Y-121942000D01*
X212252571Y-122084857D01*
X212252571Y-122299142D01*
X212324000Y-122442000D01*
X212395428Y-122513428D01*
X212538285Y-122584857D01*
X212966857Y-122584857D01*
X213109714Y-122513428D01*
X213181142Y-122442000D01*
X213252571Y-122299142D01*
X213252571Y-122084857D01*
X212252571Y-123227714D02*
X213252571Y-123227714D01*
X212395428Y-123227714D02*
X212324000Y-123299142D01*
X212252571Y-123442000D01*
X212252571Y-123656285D01*
X212324000Y-123799142D01*
X212466857Y-123870571D01*
X213252571Y-123870571D01*
X213109714Y-124584857D02*
X213181142Y-124656285D01*
X213252571Y-124584857D01*
X213181142Y-124513428D01*
X213109714Y-124584857D01*
X213252571Y-124584857D01*
X213252571Y-125942000D02*
X211752571Y-125942000D01*
X213181142Y-125942000D02*
X213252571Y-125799142D01*
X213252571Y-125513428D01*
X213181142Y-125370571D01*
X213109714Y-125299142D01*
X212966857Y-125227714D01*
X212538285Y-125227714D01*
X212395428Y-125299142D01*
X212324000Y-125370571D01*
X212252571Y-125513428D01*
X212252571Y-125799142D01*
X212324000Y-125942000D01*
X213252571Y-126656285D02*
X211752571Y-126656285D01*
X212681142Y-126799142D02*
X213252571Y-127227714D01*
X212252571Y-127227714D02*
X212824000Y-126656285D01*
X171588285Y-122467000D02*
X171659714Y-122395571D01*
X171802571Y-122181285D01*
X171874000Y-122038428D01*
X171945428Y-121824142D01*
X172016857Y-121467000D01*
X172016857Y-121181285D01*
X171945428Y-120824142D01*
X171874000Y-120609857D01*
X171802571Y-120467000D01*
X171659714Y-120252714D01*
X171588285Y-120181285D01*
X170231142Y-121895571D02*
X171088285Y-121895571D01*
X170659714Y-121895571D02*
X170659714Y-120395571D01*
X170802571Y-120609857D01*
X170945428Y-120752714D01*
X171088285Y-120824142D01*
X169374000Y-121038428D02*
X169516857Y-120967000D01*
X169588285Y-120895571D01*
X169659714Y-120752714D01*
X169659714Y-120681285D01*
X169588285Y-120538428D01*
X169516857Y-120467000D01*
X169374000Y-120395571D01*
X169088285Y-120395571D01*
X168945428Y-120467000D01*
X168874000Y-120538428D01*
X168802571Y-120681285D01*
X168802571Y-120752714D01*
X168874000Y-120895571D01*
X168945428Y-120967000D01*
X169088285Y-121038428D01*
X169374000Y-121038428D01*
X169516857Y-121109857D01*
X169588285Y-121181285D01*
X169659714Y-121324142D01*
X169659714Y-121609857D01*
X169588285Y-121752714D01*
X169516857Y-121824142D01*
X169374000Y-121895571D01*
X169088285Y-121895571D01*
X168945428Y-121824142D01*
X168874000Y-121752714D01*
X168802571Y-121609857D01*
X168802571Y-121324142D01*
X168874000Y-121181285D01*
X168945428Y-121109857D01*
X169088285Y-121038428D01*
X167874000Y-120395571D02*
X167731142Y-120395571D01*
X167588285Y-120467000D01*
X167516857Y-120538428D01*
X167445428Y-120681285D01*
X167374000Y-120967000D01*
X167374000Y-121324142D01*
X167445428Y-121609857D01*
X167516857Y-121752714D01*
X167588285Y-121824142D01*
X167731142Y-121895571D01*
X167874000Y-121895571D01*
X168016857Y-121824142D01*
X168088285Y-121752714D01*
X168159714Y-121609857D01*
X168231142Y-121324142D01*
X168231142Y-120967000D01*
X168159714Y-120681285D01*
X168088285Y-120538428D01*
X168016857Y-120467000D01*
X167874000Y-120395571D01*
X165945428Y-121895571D02*
X166802571Y-121895571D01*
X166374000Y-121895571D02*
X166374000Y-120395571D01*
X166516857Y-120609857D01*
X166659714Y-120752714D01*
X166802571Y-120824142D01*
X165302571Y-121324142D02*
X164159714Y-121324142D01*
X163516857Y-121467000D02*
X162802571Y-121467000D01*
X163659714Y-121895571D02*
X163159714Y-120395571D01*
X162659714Y-121895571D01*
X162374000Y-120395571D02*
X161516857Y-120395571D01*
X161945428Y-121895571D02*
X161945428Y-120395571D01*
X161159714Y-122467000D02*
X161088285Y-122395571D01*
X160945428Y-122181285D01*
X160874000Y-122038428D01*
X160802571Y-121824142D01*
X160731142Y-121467000D01*
X160731142Y-121181285D01*
X160802571Y-120824142D01*
X160874000Y-120609857D01*
X160945428Y-120467000D01*
X161088285Y-120252714D01*
X161159714Y-120181285D01*
X169409714Y-124445571D02*
X169909714Y-123731285D01*
X170266857Y-124445571D02*
X170266857Y-122945571D01*
X169695428Y-122945571D01*
X169552571Y-123017000D01*
X169481142Y-123088428D01*
X169409714Y-123231285D01*
X169409714Y-123445571D01*
X169481142Y-123588428D01*
X169552571Y-123659857D01*
X169695428Y-123731285D01*
X170266857Y-123731285D01*
X168195428Y-124374142D02*
X168338285Y-124445571D01*
X168624000Y-124445571D01*
X168766857Y-124374142D01*
X168838285Y-124231285D01*
X168838285Y-123659857D01*
X168766857Y-123517000D01*
X168624000Y-123445571D01*
X168338285Y-123445571D01*
X168195428Y-123517000D01*
X168124000Y-123659857D01*
X168124000Y-123802714D01*
X168838285Y-123945571D01*
X167624000Y-123445571D02*
X167266857Y-124445571D01*
X166909714Y-123445571D01*
X166338285Y-124302714D02*
X166266857Y-124374142D01*
X166338285Y-124445571D01*
X166409714Y-124374142D01*
X166338285Y-124302714D01*
X166338285Y-124445571D01*
X164552571Y-123088428D02*
X164481142Y-123017000D01*
X164338285Y-122945571D01*
X163981142Y-122945571D01*
X163838285Y-123017000D01*
X163766857Y-123088428D01*
X163695428Y-123231285D01*
X163695428Y-123374142D01*
X163766857Y-123588428D01*
X164624000Y-124445571D01*
X163695428Y-124445571D01*
X163124000Y-124017000D02*
X162409714Y-124017000D01*
X163266857Y-124445571D02*
X162766857Y-122945571D01*
X162266857Y-124445571D01*
X182302571Y-119420571D02*
X182302571Y-117920571D01*
X181731142Y-117920571D01*
X181588285Y-117992000D01*
X181516857Y-118063428D01*
X181445428Y-118206285D01*
X181445428Y-118420571D01*
X181516857Y-118563428D01*
X181588285Y-118634857D01*
X181731142Y-118706285D01*
X182302571Y-118706285D01*
X180516857Y-117920571D02*
X180231142Y-117920571D01*
X180088285Y-117992000D01*
X179945428Y-118134857D01*
X179874000Y-118420571D01*
X179874000Y-118920571D01*
X179945428Y-119206285D01*
X180088285Y-119349142D01*
X180231142Y-119420571D01*
X180516857Y-119420571D01*
X180659714Y-119349142D01*
X180802571Y-119206285D01*
X180874000Y-118920571D01*
X180874000Y-118420571D01*
X180802571Y-118134857D01*
X180659714Y-117992000D01*
X180516857Y-117920571D01*
X179374000Y-117920571D02*
X179016857Y-119420571D01*
X178731142Y-118349142D01*
X178445428Y-119420571D01*
X178088285Y-117920571D01*
X177516857Y-118634857D02*
X177016857Y-118634857D01*
X176802571Y-119420571D02*
X177516857Y-119420571D01*
X177516857Y-117920571D01*
X176802571Y-117920571D01*
X175302571Y-119420571D02*
X175802571Y-118706285D01*
X176159714Y-119420571D02*
X176159714Y-117920571D01*
X175588285Y-117920571D01*
X175445428Y-117992000D01*
X175374000Y-118063428D01*
X175302571Y-118206285D01*
X175302571Y-118420571D01*
X175374000Y-118563428D01*
X175445428Y-118634857D01*
X175588285Y-118706285D01*
X176159714Y-118706285D01*
X173588285Y-119349142D02*
X173374000Y-119420571D01*
X173016857Y-119420571D01*
X172874000Y-119349142D01*
X172802571Y-119277714D01*
X172731142Y-119134857D01*
X172731142Y-118992000D01*
X172802571Y-118849142D01*
X172874000Y-118777714D01*
X173016857Y-118706285D01*
X173302571Y-118634857D01*
X173445428Y-118563428D01*
X173516857Y-118492000D01*
X173588285Y-118349142D01*
X173588285Y-118206285D01*
X173516857Y-118063428D01*
X173445428Y-117992000D01*
X173302571Y-117920571D01*
X172945428Y-117920571D01*
X172731142Y-117992000D01*
X172231142Y-117920571D02*
X171874000Y-119420571D01*
X171588285Y-118349142D01*
X171302571Y-119420571D01*
X170945428Y-117920571D01*
X170374000Y-119420571D02*
X170374000Y-117920571D01*
X169874000Y-117920571D02*
X169016857Y-117920571D01*
X169445428Y-119420571D02*
X169445428Y-117920571D01*
X167659714Y-119277714D02*
X167731142Y-119349142D01*
X167945428Y-119420571D01*
X168088285Y-119420571D01*
X168302571Y-119349142D01*
X168445428Y-119206285D01*
X168516857Y-119063428D01*
X168588285Y-118777714D01*
X168588285Y-118563428D01*
X168516857Y-118277714D01*
X168445428Y-118134857D01*
X168302571Y-117992000D01*
X168088285Y-117920571D01*
X167945428Y-117920571D01*
X167731142Y-117992000D01*
X167659714Y-118063428D01*
X167016857Y-119420571D02*
X167016857Y-117920571D01*
X167016857Y-118634857D02*
X166159714Y-118634857D01*
X166159714Y-119420571D02*
X166159714Y-117920571D01*
X163802571Y-118634857D02*
X163588285Y-118706285D01*
X163516857Y-118777714D01*
X163445428Y-118920571D01*
X163445428Y-119134857D01*
X163516857Y-119277714D01*
X163588285Y-119349142D01*
X163731142Y-119420571D01*
X164302571Y-119420571D01*
X164302571Y-117920571D01*
X163802571Y-117920571D01*
X163659714Y-117992000D01*
X163588285Y-118063428D01*
X163516857Y-118206285D01*
X163516857Y-118349142D01*
X163588285Y-118492000D01*
X163659714Y-118563428D01*
X163802571Y-118634857D01*
X164302571Y-118634857D01*
X162516857Y-117920571D02*
X162231142Y-117920571D01*
X162088285Y-117992000D01*
X161945428Y-118134857D01*
X161874000Y-118420571D01*
X161874000Y-118920571D01*
X161945428Y-119206285D01*
X162088285Y-119349142D01*
X162231142Y-119420571D01*
X162516857Y-119420571D01*
X162659714Y-119349142D01*
X162802571Y-119206285D01*
X162874000Y-118920571D01*
X162874000Y-118420571D01*
X162802571Y-118134857D01*
X162659714Y-117992000D01*
X162516857Y-117920571D01*
X161302571Y-118992000D02*
X160588285Y-118992000D01*
X161445428Y-119420571D02*
X160945428Y-117920571D01*
X160445428Y-119420571D01*
X159088285Y-119420571D02*
X159588285Y-118706285D01*
X159945428Y-119420571D02*
X159945428Y-117920571D01*
X159374000Y-117920571D01*
X159231142Y-117992000D01*
X159159714Y-118063428D01*
X159088285Y-118206285D01*
X159088285Y-118420571D01*
X159159714Y-118563428D01*
X159231142Y-118634857D01*
X159374000Y-118706285D01*
X159945428Y-118706285D01*
X158445428Y-119420571D02*
X158445428Y-117920571D01*
X158088285Y-117920571D01*
X157874000Y-117992000D01*
X157731142Y-118134857D01*
X157659714Y-118277714D01*
X157588285Y-118563428D01*
X157588285Y-118777714D01*
X157659714Y-119063428D01*
X157731142Y-119206285D01*
X157874000Y-119349142D01*
X158088285Y-119420571D01*
X158445428Y-119420571D01*
X155945428Y-118420571D02*
X155659714Y-119420571D01*
X155374000Y-118706285D01*
X155088285Y-119420571D01*
X154802571Y-118420571D01*
X154231142Y-119277714D02*
X154159714Y-119349142D01*
X154231142Y-119420571D01*
X154302571Y-119349142D01*
X154231142Y-119277714D01*
X154231142Y-119420571D01*
X152374000Y-119420571D02*
X152374000Y-117920571D01*
X151731142Y-118063428D02*
X151659714Y-117992000D01*
X151516857Y-117920571D01*
X151159714Y-117920571D01*
X151016857Y-117992000D01*
X150945428Y-118063428D01*
X150874000Y-118206285D01*
X150874000Y-118349142D01*
X150945428Y-118563428D01*
X151802571Y-119420571D01*
X150874000Y-119420571D01*
X149374000Y-119277714D02*
X149445428Y-119349142D01*
X149659714Y-119420571D01*
X149802571Y-119420571D01*
X150016857Y-119349142D01*
X150159714Y-119206285D01*
X150231142Y-119063428D01*
X150302571Y-118777714D01*
X150302571Y-118563428D01*
X150231142Y-118277714D01*
X150159714Y-118134857D01*
X150016857Y-117992000D01*
X149802571Y-117920571D01*
X149659714Y-117920571D01*
X149445428Y-117992000D01*
X149374000Y-118063428D01*
D11*
X152224000Y-104192000D02*
X152224000Y-103192000D01*
X153924000Y-103192000D02*
X153924000Y-104192000D01*
X135074000Y-142792000D02*
X134074000Y-142792000D01*
X134074000Y-141092000D02*
X135074000Y-141092000D01*
X149574000Y-142792000D02*
X148574000Y-142792000D01*
X148574000Y-141092000D02*
X149574000Y-141092000D01*
X164074000Y-142792000D02*
X163074000Y-142792000D01*
X163074000Y-141092000D02*
X164074000Y-141092000D01*
X178324000Y-142792000D02*
X177324000Y-142792000D01*
X177324000Y-141092000D02*
X178324000Y-141092000D01*
X192574000Y-142792000D02*
X191574000Y-142792000D01*
X191574000Y-141092000D02*
X192574000Y-141092000D01*
X148694000Y-103092000D02*
X148694000Y-104292000D01*
X150454000Y-104292000D02*
X150454000Y-103092000D01*
X164674000Y-93312000D02*
X163474000Y-93312000D01*
X163474000Y-95072000D02*
X164674000Y-95072000D01*
X153954000Y-97192000D02*
X153954000Y-95992000D01*
X152194000Y-95992000D02*
X152194000Y-97192000D01*
X134374000Y-129322000D02*
X135574000Y-129322000D01*
X135574000Y-127562000D02*
X134374000Y-127562000D01*
X135174000Y-139062000D02*
X133974000Y-139062000D01*
X133974000Y-140822000D02*
X135174000Y-140822000D01*
X148224000Y-129322000D02*
X149424000Y-129322000D01*
X149424000Y-127562000D02*
X148224000Y-127562000D01*
X149674000Y-139062000D02*
X148474000Y-139062000D01*
X148474000Y-140822000D02*
X149674000Y-140822000D01*
X163224000Y-129322000D02*
X164424000Y-129322000D01*
X164424000Y-127562000D02*
X163224000Y-127562000D01*
X164174000Y-139062000D02*
X162974000Y-139062000D01*
X162974000Y-140822000D02*
X164174000Y-140822000D01*
X177224000Y-129322000D02*
X178424000Y-129322000D01*
X178424000Y-127562000D02*
X177224000Y-127562000D01*
X178574000Y-139062000D02*
X177374000Y-139062000D01*
X177374000Y-140822000D02*
X178574000Y-140822000D01*
X191224000Y-129322000D02*
X192424000Y-129322000D01*
X192424000Y-127562000D02*
X191224000Y-127562000D01*
X192574000Y-139062000D02*
X191374000Y-139062000D01*
X191374000Y-140822000D02*
X192574000Y-140822000D01*
D12*
X157699000Y-115817000D02*
X157699000Y-115567000D01*
X165449000Y-115817000D02*
X165449000Y-115472000D01*
X165449000Y-97567000D02*
X165449000Y-97912000D01*
X157699000Y-97567000D02*
X157699000Y-97912000D01*
X157699000Y-115817000D02*
X165449000Y-115817000D01*
X157699000Y-97567000D02*
X165449000Y-97567000D01*
X157699000Y-115567000D02*
X155874000Y-115567000D01*
D11*
X137204000Y-135542000D02*
X137204000Y-134342000D01*
X135444000Y-134342000D02*
X135444000Y-135542000D01*
X151204000Y-135442000D02*
X151204000Y-134242000D01*
X149444000Y-134242000D02*
X149444000Y-135442000D01*
X166204000Y-135442000D02*
X166204000Y-134242000D01*
X164444000Y-134242000D02*
X164444000Y-135442000D01*
X180204000Y-135292000D02*
X180204000Y-134092000D01*
X178444000Y-134092000D02*
X178444000Y-135292000D01*
X194204000Y-135292000D02*
X194204000Y-134092000D01*
X192444000Y-134092000D02*
X192444000Y-135292000D01*
X170324000Y-102092000D02*
X171324000Y-102092000D01*
X171324000Y-103792000D02*
X170324000Y-103792000D01*
X137274000Y-129692000D02*
X133424000Y-129692000D01*
X137274000Y-131692000D02*
X133424000Y-131692000D01*
X137274000Y-129692000D02*
X137274000Y-131692000D01*
X151024000Y-129942000D02*
X151024000Y-131942000D01*
X151024000Y-131942000D02*
X147174000Y-131942000D01*
X151024000Y-129942000D02*
X147174000Y-129942000D01*
X166024000Y-129942000D02*
X166024000Y-131942000D01*
X166024000Y-131942000D02*
X162174000Y-131942000D01*
X166024000Y-129942000D02*
X162174000Y-129942000D01*
X180024000Y-129942000D02*
X180024000Y-131942000D01*
X180024000Y-131942000D02*
X176174000Y-131942000D01*
X180024000Y-129942000D02*
X176174000Y-129942000D01*
X194024000Y-129942000D02*
X194024000Y-131942000D01*
X194024000Y-131942000D02*
X190174000Y-131942000D01*
X194024000Y-129942000D02*
X190174000Y-129942000D01*
D12*
X150966857Y-103858666D02*
X150919238Y-103906285D01*
X150871619Y-104049142D01*
X150871619Y-104144380D01*
X150919238Y-104287238D01*
X151014476Y-104382476D01*
X151109714Y-104430095D01*
X151300190Y-104477714D01*
X151443047Y-104477714D01*
X151633523Y-104430095D01*
X151728761Y-104382476D01*
X151824000Y-104287238D01*
X151871619Y-104144380D01*
X151871619Y-104049142D01*
X151824000Y-103906285D01*
X151776380Y-103858666D01*
X150871619Y-102906285D02*
X150871619Y-103477714D01*
X150871619Y-103192000D02*
X151871619Y-103192000D01*
X151728761Y-103287238D01*
X151633523Y-103382476D01*
X151585904Y-103477714D01*
X134740666Y-144049142D02*
X134788285Y-144096761D01*
X134931142Y-144144380D01*
X135026380Y-144144380D01*
X135169238Y-144096761D01*
X135264476Y-144001523D01*
X135312095Y-143906285D01*
X135359714Y-143715809D01*
X135359714Y-143572952D01*
X135312095Y-143382476D01*
X135264476Y-143287238D01*
X135169238Y-143192000D01*
X135026380Y-143144380D01*
X134931142Y-143144380D01*
X134788285Y-143192000D01*
X134740666Y-143239619D01*
X134359714Y-143239619D02*
X134312095Y-143192000D01*
X134216857Y-143144380D01*
X133978761Y-143144380D01*
X133883523Y-143192000D01*
X133835904Y-143239619D01*
X133788285Y-143334857D01*
X133788285Y-143430095D01*
X133835904Y-143572952D01*
X134407333Y-144144380D01*
X133788285Y-144144380D01*
X149240666Y-144049142D02*
X149288285Y-144096761D01*
X149431142Y-144144380D01*
X149526380Y-144144380D01*
X149669238Y-144096761D01*
X149764476Y-144001523D01*
X149812095Y-143906285D01*
X149859714Y-143715809D01*
X149859714Y-143572952D01*
X149812095Y-143382476D01*
X149764476Y-143287238D01*
X149669238Y-143192000D01*
X149526380Y-143144380D01*
X149431142Y-143144380D01*
X149288285Y-143192000D01*
X149240666Y-143239619D01*
X148907333Y-143144380D02*
X148288285Y-143144380D01*
X148621619Y-143525333D01*
X148478761Y-143525333D01*
X148383523Y-143572952D01*
X148335904Y-143620571D01*
X148288285Y-143715809D01*
X148288285Y-143953904D01*
X148335904Y-144049142D01*
X148383523Y-144096761D01*
X148478761Y-144144380D01*
X148764476Y-144144380D01*
X148859714Y-144096761D01*
X148907333Y-144049142D01*
X163740666Y-144049142D02*
X163788285Y-144096761D01*
X163931142Y-144144380D01*
X164026380Y-144144380D01*
X164169238Y-144096761D01*
X164264476Y-144001523D01*
X164312095Y-143906285D01*
X164359714Y-143715809D01*
X164359714Y-143572952D01*
X164312095Y-143382476D01*
X164264476Y-143287238D01*
X164169238Y-143192000D01*
X164026380Y-143144380D01*
X163931142Y-143144380D01*
X163788285Y-143192000D01*
X163740666Y-143239619D01*
X162883523Y-143477714D02*
X162883523Y-144144380D01*
X163121619Y-143096761D02*
X163359714Y-143811047D01*
X162740666Y-143811047D01*
X177990666Y-144049142D02*
X178038285Y-144096761D01*
X178181142Y-144144380D01*
X178276380Y-144144380D01*
X178419238Y-144096761D01*
X178514476Y-144001523D01*
X178562095Y-143906285D01*
X178609714Y-143715809D01*
X178609714Y-143572952D01*
X178562095Y-143382476D01*
X178514476Y-143287238D01*
X178419238Y-143192000D01*
X178276380Y-143144380D01*
X178181142Y-143144380D01*
X178038285Y-143192000D01*
X177990666Y-143239619D01*
X177085904Y-143144380D02*
X177562095Y-143144380D01*
X177609714Y-143620571D01*
X177562095Y-143572952D01*
X177466857Y-143525333D01*
X177228761Y-143525333D01*
X177133523Y-143572952D01*
X177085904Y-143620571D01*
X177038285Y-143715809D01*
X177038285Y-143953904D01*
X177085904Y-144049142D01*
X177133523Y-144096761D01*
X177228761Y-144144380D01*
X177466857Y-144144380D01*
X177562095Y-144096761D01*
X177609714Y-144049142D01*
X192240666Y-144049142D02*
X192288285Y-144096761D01*
X192431142Y-144144380D01*
X192526380Y-144144380D01*
X192669238Y-144096761D01*
X192764476Y-144001523D01*
X192812095Y-143906285D01*
X192859714Y-143715809D01*
X192859714Y-143572952D01*
X192812095Y-143382476D01*
X192764476Y-143287238D01*
X192669238Y-143192000D01*
X192526380Y-143144380D01*
X192431142Y-143144380D01*
X192288285Y-143192000D01*
X192240666Y-143239619D01*
X191383523Y-143144380D02*
X191574000Y-143144380D01*
X191669238Y-143192000D01*
X191716857Y-143239619D01*
X191812095Y-143382476D01*
X191859714Y-143572952D01*
X191859714Y-143953904D01*
X191812095Y-144049142D01*
X191764476Y-144096761D01*
X191669238Y-144144380D01*
X191478761Y-144144380D01*
X191383523Y-144096761D01*
X191335904Y-144049142D01*
X191288285Y-143953904D01*
X191288285Y-143715809D01*
X191335904Y-143620571D01*
X191383523Y-143572952D01*
X191478761Y-143525333D01*
X191669238Y-143525333D01*
X191764476Y-143572952D01*
X191812095Y-143620571D01*
X191859714Y-143715809D01*
X148276380Y-103525333D02*
X147800190Y-103192000D01*
X148276380Y-102953904D02*
X147276380Y-102953904D01*
X147276380Y-103334857D01*
X147324000Y-103430095D01*
X147371619Y-103477714D01*
X147466857Y-103525333D01*
X147609714Y-103525333D01*
X147704952Y-103477714D01*
X147752571Y-103430095D01*
X147800190Y-103334857D01*
X147800190Y-102953904D01*
X147371619Y-103906285D02*
X147324000Y-103953904D01*
X147276380Y-104049142D01*
X147276380Y-104287238D01*
X147324000Y-104382476D01*
X147371619Y-104430095D01*
X147466857Y-104477714D01*
X147562095Y-104477714D01*
X147704952Y-104430095D01*
X148276380Y-103858666D01*
X148276380Y-104477714D01*
X164240666Y-96344380D02*
X164574000Y-95868190D01*
X164812095Y-96344380D02*
X164812095Y-95344380D01*
X164431142Y-95344380D01*
X164335904Y-95392000D01*
X164288285Y-95439619D01*
X164240666Y-95534857D01*
X164240666Y-95677714D01*
X164288285Y-95772952D01*
X164335904Y-95820571D01*
X164431142Y-95868190D01*
X164812095Y-95868190D01*
X163907333Y-95344380D02*
X163288285Y-95344380D01*
X163621619Y-95725333D01*
X163478761Y-95725333D01*
X163383523Y-95772952D01*
X163335904Y-95820571D01*
X163288285Y-95915809D01*
X163288285Y-96153904D01*
X163335904Y-96249142D01*
X163383523Y-96296761D01*
X163478761Y-96344380D01*
X163764476Y-96344380D01*
X163859714Y-96296761D01*
X163907333Y-96249142D01*
X150921619Y-96758666D02*
X151397809Y-97092000D01*
X150921619Y-97330095D02*
X151921619Y-97330095D01*
X151921619Y-96949142D01*
X151874000Y-96853904D01*
X151826380Y-96806285D01*
X151731142Y-96758666D01*
X151588285Y-96758666D01*
X151493047Y-96806285D01*
X151445428Y-96853904D01*
X151397809Y-96949142D01*
X151397809Y-97330095D01*
X151588285Y-95901523D02*
X150921619Y-95901523D01*
X151969238Y-96139619D02*
X151254952Y-96377714D01*
X151254952Y-95758666D01*
X134807333Y-126289619D02*
X134474000Y-126765809D01*
X134235904Y-126289619D02*
X134235904Y-127289619D01*
X134616857Y-127289619D01*
X134712095Y-127242000D01*
X134759714Y-127194380D01*
X134807333Y-127099142D01*
X134807333Y-126956285D01*
X134759714Y-126861047D01*
X134712095Y-126813428D01*
X134616857Y-126765809D01*
X134235904Y-126765809D01*
X135712095Y-127289619D02*
X135235904Y-127289619D01*
X135188285Y-126813428D01*
X135235904Y-126861047D01*
X135331142Y-126908666D01*
X135569238Y-126908666D01*
X135664476Y-126861047D01*
X135712095Y-126813428D01*
X135759714Y-126718190D01*
X135759714Y-126480095D01*
X135712095Y-126384857D01*
X135664476Y-126337238D01*
X135569238Y-126289619D01*
X135331142Y-126289619D01*
X135235904Y-126337238D01*
X135188285Y-126384857D01*
X131240666Y-140394380D02*
X131574000Y-139918190D01*
X131812095Y-140394380D02*
X131812095Y-139394380D01*
X131431142Y-139394380D01*
X131335904Y-139442000D01*
X131288285Y-139489619D01*
X131240666Y-139584857D01*
X131240666Y-139727714D01*
X131288285Y-139822952D01*
X131335904Y-139870571D01*
X131431142Y-139918190D01*
X131812095Y-139918190D01*
X130764476Y-140394380D02*
X130574000Y-140394380D01*
X130478761Y-140346761D01*
X130431142Y-140299142D01*
X130335904Y-140156285D01*
X130288285Y-139965809D01*
X130288285Y-139584857D01*
X130335904Y-139489619D01*
X130383523Y-139442000D01*
X130478761Y-139394380D01*
X130669238Y-139394380D01*
X130764476Y-139442000D01*
X130812095Y-139489619D01*
X130859714Y-139584857D01*
X130859714Y-139822952D01*
X130812095Y-139918190D01*
X130764476Y-139965809D01*
X130669238Y-140013428D01*
X130478761Y-140013428D01*
X130383523Y-139965809D01*
X130335904Y-139918190D01*
X130288285Y-139822952D01*
X148181142Y-126289619D02*
X147847809Y-126765809D01*
X147609714Y-126289619D02*
X147609714Y-127289619D01*
X147990666Y-127289619D01*
X148085904Y-127242000D01*
X148133523Y-127194380D01*
X148181142Y-127099142D01*
X148181142Y-126956285D01*
X148133523Y-126861047D01*
X148085904Y-126813428D01*
X147990666Y-126765809D01*
X147609714Y-126765809D01*
X149133523Y-126289619D02*
X148562095Y-126289619D01*
X148847809Y-126289619D02*
X148847809Y-127289619D01*
X148752571Y-127146761D01*
X148657333Y-127051523D01*
X148562095Y-127003904D01*
X149752571Y-127289619D02*
X149847809Y-127289619D01*
X149943047Y-127242000D01*
X149990666Y-127194380D01*
X150038285Y-127099142D01*
X150085904Y-126908666D01*
X150085904Y-126670571D01*
X150038285Y-126480095D01*
X149990666Y-126384857D01*
X149943047Y-126337238D01*
X149847809Y-126289619D01*
X149752571Y-126289619D01*
X149657333Y-126337238D01*
X149609714Y-126384857D01*
X149562095Y-126480095D01*
X149514476Y-126670571D01*
X149514476Y-126908666D01*
X149562095Y-127099142D01*
X149609714Y-127194380D01*
X149657333Y-127242000D01*
X149752571Y-127289619D01*
X145966857Y-140394380D02*
X146300190Y-139918190D01*
X146538285Y-140394380D02*
X146538285Y-139394380D01*
X146157333Y-139394380D01*
X146062095Y-139442000D01*
X146014476Y-139489619D01*
X145966857Y-139584857D01*
X145966857Y-139727714D01*
X146014476Y-139822952D01*
X146062095Y-139870571D01*
X146157333Y-139918190D01*
X146538285Y-139918190D01*
X145014476Y-140394380D02*
X145585904Y-140394380D01*
X145300190Y-140394380D02*
X145300190Y-139394380D01*
X145395428Y-139537238D01*
X145490666Y-139632476D01*
X145585904Y-139680095D01*
X144062095Y-140394380D02*
X144633523Y-140394380D01*
X144347809Y-140394380D02*
X144347809Y-139394380D01*
X144443047Y-139537238D01*
X144538285Y-139632476D01*
X144633523Y-139680095D01*
X163181142Y-126289619D02*
X162847809Y-126765809D01*
X162609714Y-126289619D02*
X162609714Y-127289619D01*
X162990666Y-127289619D01*
X163085904Y-127242000D01*
X163133523Y-127194380D01*
X163181142Y-127099142D01*
X163181142Y-126956285D01*
X163133523Y-126861047D01*
X163085904Y-126813428D01*
X162990666Y-126765809D01*
X162609714Y-126765809D01*
X164133523Y-126289619D02*
X163562095Y-126289619D01*
X163847809Y-126289619D02*
X163847809Y-127289619D01*
X163752571Y-127146761D01*
X163657333Y-127051523D01*
X163562095Y-127003904D01*
X164514476Y-127194380D02*
X164562095Y-127242000D01*
X164657333Y-127289619D01*
X164895428Y-127289619D01*
X164990666Y-127242000D01*
X165038285Y-127194380D01*
X165085904Y-127099142D01*
X165085904Y-127003904D01*
X165038285Y-126861047D01*
X164466857Y-126289619D01*
X165085904Y-126289619D01*
X160466857Y-140394380D02*
X160800190Y-139918190D01*
X161038285Y-140394380D02*
X161038285Y-139394380D01*
X160657333Y-139394380D01*
X160562095Y-139442000D01*
X160514476Y-139489619D01*
X160466857Y-139584857D01*
X160466857Y-139727714D01*
X160514476Y-139822952D01*
X160562095Y-139870571D01*
X160657333Y-139918190D01*
X161038285Y-139918190D01*
X159514476Y-140394380D02*
X160085904Y-140394380D01*
X159800190Y-140394380D02*
X159800190Y-139394380D01*
X159895428Y-139537238D01*
X159990666Y-139632476D01*
X160085904Y-139680095D01*
X159181142Y-139394380D02*
X158562095Y-139394380D01*
X158895428Y-139775333D01*
X158752571Y-139775333D01*
X158657333Y-139822952D01*
X158609714Y-139870571D01*
X158562095Y-139965809D01*
X158562095Y-140203904D01*
X158609714Y-140299142D01*
X158657333Y-140346761D01*
X158752571Y-140394380D01*
X159038285Y-140394380D01*
X159133523Y-140346761D01*
X159181142Y-140299142D01*
X177181142Y-126289619D02*
X176847809Y-126765809D01*
X176609714Y-126289619D02*
X176609714Y-127289619D01*
X176990666Y-127289619D01*
X177085904Y-127242000D01*
X177133523Y-127194380D01*
X177181142Y-127099142D01*
X177181142Y-126956285D01*
X177133523Y-126861047D01*
X177085904Y-126813428D01*
X176990666Y-126765809D01*
X176609714Y-126765809D01*
X178133523Y-126289619D02*
X177562095Y-126289619D01*
X177847809Y-126289619D02*
X177847809Y-127289619D01*
X177752571Y-127146761D01*
X177657333Y-127051523D01*
X177562095Y-127003904D01*
X178990666Y-126956285D02*
X178990666Y-126289619D01*
X178752571Y-127337238D02*
X178514476Y-126622952D01*
X179133523Y-126622952D01*
X174716857Y-140394380D02*
X175050190Y-139918190D01*
X175288285Y-140394380D02*
X175288285Y-139394380D01*
X174907333Y-139394380D01*
X174812095Y-139442000D01*
X174764476Y-139489619D01*
X174716857Y-139584857D01*
X174716857Y-139727714D01*
X174764476Y-139822952D01*
X174812095Y-139870571D01*
X174907333Y-139918190D01*
X175288285Y-139918190D01*
X173764476Y-140394380D02*
X174335904Y-140394380D01*
X174050190Y-140394380D02*
X174050190Y-139394380D01*
X174145428Y-139537238D01*
X174240666Y-139632476D01*
X174335904Y-139680095D01*
X172859714Y-139394380D02*
X173335904Y-139394380D01*
X173383523Y-139870571D01*
X173335904Y-139822952D01*
X173240666Y-139775333D01*
X173002571Y-139775333D01*
X172907333Y-139822952D01*
X172859714Y-139870571D01*
X172812095Y-139965809D01*
X172812095Y-140203904D01*
X172859714Y-140299142D01*
X172907333Y-140346761D01*
X173002571Y-140394380D01*
X173240666Y-140394380D01*
X173335904Y-140346761D01*
X173383523Y-140299142D01*
X191181142Y-126289619D02*
X190847809Y-126765809D01*
X190609714Y-126289619D02*
X190609714Y-127289619D01*
X190990666Y-127289619D01*
X191085904Y-127242000D01*
X191133523Y-127194380D01*
X191181142Y-127099142D01*
X191181142Y-126956285D01*
X191133523Y-126861047D01*
X191085904Y-126813428D01*
X190990666Y-126765809D01*
X190609714Y-126765809D01*
X192133523Y-126289619D02*
X191562095Y-126289619D01*
X191847809Y-126289619D02*
X191847809Y-127289619D01*
X191752571Y-127146761D01*
X191657333Y-127051523D01*
X191562095Y-127003904D01*
X192990666Y-127289619D02*
X192800190Y-127289619D01*
X192704952Y-127242000D01*
X192657333Y-127194380D01*
X192562095Y-127051523D01*
X192514476Y-126861047D01*
X192514476Y-126480095D01*
X192562095Y-126384857D01*
X192609714Y-126337238D01*
X192704952Y-126289619D01*
X192895428Y-126289619D01*
X192990666Y-126337238D01*
X193038285Y-126384857D01*
X193085904Y-126480095D01*
X193085904Y-126718190D01*
X193038285Y-126813428D01*
X192990666Y-126861047D01*
X192895428Y-126908666D01*
X192704952Y-126908666D01*
X192609714Y-126861047D01*
X192562095Y-126813428D01*
X192514476Y-126718190D01*
X188716857Y-140394380D02*
X189050190Y-139918190D01*
X189288285Y-140394380D02*
X189288285Y-139394380D01*
X188907333Y-139394380D01*
X188812095Y-139442000D01*
X188764476Y-139489619D01*
X188716857Y-139584857D01*
X188716857Y-139727714D01*
X188764476Y-139822952D01*
X188812095Y-139870571D01*
X188907333Y-139918190D01*
X189288285Y-139918190D01*
X187764476Y-140394380D02*
X188335904Y-140394380D01*
X188050190Y-140394380D02*
X188050190Y-139394380D01*
X188145428Y-139537238D01*
X188240666Y-139632476D01*
X188335904Y-139680095D01*
X187431142Y-139394380D02*
X186764476Y-139394380D01*
X187193047Y-140394380D01*
X162335904Y-116194380D02*
X162335904Y-117003904D01*
X162288285Y-117099142D01*
X162240666Y-117146761D01*
X162145428Y-117194380D01*
X161954952Y-117194380D01*
X161859714Y-117146761D01*
X161812095Y-117099142D01*
X161764476Y-117003904D01*
X161764476Y-116194380D01*
X160764476Y-117194380D02*
X161335904Y-117194380D01*
X161050190Y-117194380D02*
X161050190Y-116194380D01*
X161145428Y-116337238D01*
X161240666Y-116432476D01*
X161335904Y-116480095D01*
X133181142Y-134489619D02*
X132847809Y-134965809D01*
X132609714Y-134489619D02*
X132609714Y-135489619D01*
X132990666Y-135489619D01*
X133085904Y-135442000D01*
X133133523Y-135394380D01*
X133181142Y-135299142D01*
X133181142Y-135156285D01*
X133133523Y-135061047D01*
X133085904Y-135013428D01*
X132990666Y-134965809D01*
X132609714Y-134965809D01*
X134133523Y-134489619D02*
X133562095Y-134489619D01*
X133847809Y-134489619D02*
X133847809Y-135489619D01*
X133752571Y-135346761D01*
X133657333Y-135251523D01*
X133562095Y-135203904D01*
X134704952Y-135061047D02*
X134609714Y-135108666D01*
X134562095Y-135156285D01*
X134514476Y-135251523D01*
X134514476Y-135299142D01*
X134562095Y-135394380D01*
X134609714Y-135442000D01*
X134704952Y-135489619D01*
X134895428Y-135489619D01*
X134990666Y-135442000D01*
X135038285Y-135394380D01*
X135085904Y-135299142D01*
X135085904Y-135251523D01*
X135038285Y-135156285D01*
X134990666Y-135108666D01*
X134895428Y-135061047D01*
X134704952Y-135061047D01*
X134609714Y-135013428D01*
X134562095Y-134965809D01*
X134514476Y-134870571D01*
X134514476Y-134680095D01*
X134562095Y-134584857D01*
X134609714Y-134537238D01*
X134704952Y-134489619D01*
X134895428Y-134489619D01*
X134990666Y-134537238D01*
X135038285Y-134584857D01*
X135085904Y-134680095D01*
X135085904Y-134870571D01*
X135038285Y-134965809D01*
X134990666Y-135013428D01*
X134895428Y-135061047D01*
X147181142Y-134389619D02*
X146847809Y-134865809D01*
X146609714Y-134389619D02*
X146609714Y-135389619D01*
X146990666Y-135389619D01*
X147085904Y-135342000D01*
X147133523Y-135294380D01*
X147181142Y-135199142D01*
X147181142Y-135056285D01*
X147133523Y-134961047D01*
X147085904Y-134913428D01*
X146990666Y-134865809D01*
X146609714Y-134865809D01*
X148133523Y-134389619D02*
X147562095Y-134389619D01*
X147847809Y-134389619D02*
X147847809Y-135389619D01*
X147752571Y-135246761D01*
X147657333Y-135151523D01*
X147562095Y-135103904D01*
X148609714Y-134389619D02*
X148800190Y-134389619D01*
X148895428Y-134437238D01*
X148943047Y-134484857D01*
X149038285Y-134627714D01*
X149085904Y-134818190D01*
X149085904Y-135199142D01*
X149038285Y-135294380D01*
X148990666Y-135342000D01*
X148895428Y-135389619D01*
X148704952Y-135389619D01*
X148609714Y-135342000D01*
X148562095Y-135294380D01*
X148514476Y-135199142D01*
X148514476Y-134961047D01*
X148562095Y-134865809D01*
X148609714Y-134818190D01*
X148704952Y-134770571D01*
X148895428Y-134770571D01*
X148990666Y-134818190D01*
X149038285Y-134865809D01*
X149085904Y-134961047D01*
X162181142Y-134389619D02*
X161847809Y-134865809D01*
X161609714Y-134389619D02*
X161609714Y-135389619D01*
X161990666Y-135389619D01*
X162085904Y-135342000D01*
X162133523Y-135294380D01*
X162181142Y-135199142D01*
X162181142Y-135056285D01*
X162133523Y-134961047D01*
X162085904Y-134913428D01*
X161990666Y-134865809D01*
X161609714Y-134865809D01*
X162562095Y-135294380D02*
X162609714Y-135342000D01*
X162704952Y-135389619D01*
X162943047Y-135389619D01*
X163038285Y-135342000D01*
X163085904Y-135294380D01*
X163133523Y-135199142D01*
X163133523Y-135103904D01*
X163085904Y-134961047D01*
X162514476Y-134389619D01*
X163133523Y-134389619D01*
X163752571Y-135389619D02*
X163847809Y-135389619D01*
X163943047Y-135342000D01*
X163990666Y-135294380D01*
X164038285Y-135199142D01*
X164085904Y-135008666D01*
X164085904Y-134770571D01*
X164038285Y-134580095D01*
X163990666Y-134484857D01*
X163943047Y-134437238D01*
X163847809Y-134389619D01*
X163752571Y-134389619D01*
X163657333Y-134437238D01*
X163609714Y-134484857D01*
X163562095Y-134580095D01*
X163514476Y-134770571D01*
X163514476Y-135008666D01*
X163562095Y-135199142D01*
X163609714Y-135294380D01*
X163657333Y-135342000D01*
X163752571Y-135389619D01*
X176181142Y-134239619D02*
X175847809Y-134715809D01*
X175609714Y-134239619D02*
X175609714Y-135239619D01*
X175990666Y-135239619D01*
X176085904Y-135192000D01*
X176133523Y-135144380D01*
X176181142Y-135049142D01*
X176181142Y-134906285D01*
X176133523Y-134811047D01*
X176085904Y-134763428D01*
X175990666Y-134715809D01*
X175609714Y-134715809D01*
X176562095Y-135144380D02*
X176609714Y-135192000D01*
X176704952Y-135239619D01*
X176943047Y-135239619D01*
X177038285Y-135192000D01*
X177085904Y-135144380D01*
X177133523Y-135049142D01*
X177133523Y-134953904D01*
X177085904Y-134811047D01*
X176514476Y-134239619D01*
X177133523Y-134239619D01*
X178085904Y-134239619D02*
X177514476Y-134239619D01*
X177800190Y-134239619D02*
X177800190Y-135239619D01*
X177704952Y-135096761D01*
X177609714Y-135001523D01*
X177514476Y-134953904D01*
X190181142Y-134239619D02*
X189847809Y-134715809D01*
X189609714Y-134239619D02*
X189609714Y-135239619D01*
X189990666Y-135239619D01*
X190085904Y-135192000D01*
X190133523Y-135144380D01*
X190181142Y-135049142D01*
X190181142Y-134906285D01*
X190133523Y-134811047D01*
X190085904Y-134763428D01*
X189990666Y-134715809D01*
X189609714Y-134715809D01*
X190562095Y-135144380D02*
X190609714Y-135192000D01*
X190704952Y-135239619D01*
X190943047Y-135239619D01*
X191038285Y-135192000D01*
X191085904Y-135144380D01*
X191133523Y-135049142D01*
X191133523Y-134953904D01*
X191085904Y-134811047D01*
X190514476Y-134239619D01*
X191133523Y-134239619D01*
X191514476Y-135144380D02*
X191562095Y-135192000D01*
X191657333Y-135239619D01*
X191895428Y-135239619D01*
X191990666Y-135192000D01*
X192038285Y-135144380D01*
X192085904Y-135049142D01*
X192085904Y-134953904D01*
X192038285Y-134811047D01*
X191466857Y-134239619D01*
X192085904Y-134239619D01*
X170657333Y-100834857D02*
X170609714Y-100787238D01*
X170466857Y-100739619D01*
X170371619Y-100739619D01*
X170228761Y-100787238D01*
X170133523Y-100882476D01*
X170085904Y-100977714D01*
X170038285Y-101168190D01*
X170038285Y-101311047D01*
X170085904Y-101501523D01*
X170133523Y-101596761D01*
X170228761Y-101692000D01*
X170371619Y-101739619D01*
X170466857Y-101739619D01*
X170609714Y-101692000D01*
X170657333Y-101644380D01*
X170990666Y-101739619D02*
X171657333Y-101739619D01*
X171228761Y-100739619D01*
X134462904Y-128334619D02*
X134462904Y-129334619D01*
X134701000Y-129334619D01*
X134843857Y-129287000D01*
X134939095Y-129191761D01*
X134986714Y-129096523D01*
X135034333Y-128906047D01*
X135034333Y-128763190D01*
X134986714Y-128572714D01*
X134939095Y-128477476D01*
X134843857Y-128382238D01*
X134701000Y-128334619D01*
X134462904Y-128334619D01*
X135415285Y-129239380D02*
X135462904Y-129287000D01*
X135558142Y-129334619D01*
X135796238Y-129334619D01*
X135891476Y-129287000D01*
X135939095Y-129239380D01*
X135986714Y-129144142D01*
X135986714Y-129048904D01*
X135939095Y-128906047D01*
X135367666Y-128334619D01*
X135986714Y-128334619D01*
X148212904Y-128584619D02*
X148212904Y-129584619D01*
X148451000Y-129584619D01*
X148593857Y-129537000D01*
X148689095Y-129441761D01*
X148736714Y-129346523D01*
X148784333Y-129156047D01*
X148784333Y-129013190D01*
X148736714Y-128822714D01*
X148689095Y-128727476D01*
X148593857Y-128632238D01*
X148451000Y-128584619D01*
X148212904Y-128584619D01*
X149641476Y-129251285D02*
X149641476Y-128584619D01*
X149403380Y-129632238D02*
X149165285Y-128917952D01*
X149784333Y-128917952D01*
X163212904Y-128584619D02*
X163212904Y-129584619D01*
X163451000Y-129584619D01*
X163593857Y-129537000D01*
X163689095Y-129441761D01*
X163736714Y-129346523D01*
X163784333Y-129156047D01*
X163784333Y-129013190D01*
X163736714Y-128822714D01*
X163689095Y-128727476D01*
X163593857Y-128632238D01*
X163451000Y-128584619D01*
X163212904Y-128584619D01*
X164641476Y-129584619D02*
X164451000Y-129584619D01*
X164355761Y-129537000D01*
X164308142Y-129489380D01*
X164212904Y-129346523D01*
X164165285Y-129156047D01*
X164165285Y-128775095D01*
X164212904Y-128679857D01*
X164260523Y-128632238D01*
X164355761Y-128584619D01*
X164546238Y-128584619D01*
X164641476Y-128632238D01*
X164689095Y-128679857D01*
X164736714Y-128775095D01*
X164736714Y-129013190D01*
X164689095Y-129108428D01*
X164641476Y-129156047D01*
X164546238Y-129203666D01*
X164355761Y-129203666D01*
X164260523Y-129156047D01*
X164212904Y-129108428D01*
X164165285Y-129013190D01*
X177212904Y-128584619D02*
X177212904Y-129584619D01*
X177451000Y-129584619D01*
X177593857Y-129537000D01*
X177689095Y-129441761D01*
X177736714Y-129346523D01*
X177784333Y-129156047D01*
X177784333Y-129013190D01*
X177736714Y-128822714D01*
X177689095Y-128727476D01*
X177593857Y-128632238D01*
X177451000Y-128584619D01*
X177212904Y-128584619D01*
X178355761Y-129156047D02*
X178260523Y-129203666D01*
X178212904Y-129251285D01*
X178165285Y-129346523D01*
X178165285Y-129394142D01*
X178212904Y-129489380D01*
X178260523Y-129537000D01*
X178355761Y-129584619D01*
X178546238Y-129584619D01*
X178641476Y-129537000D01*
X178689095Y-129489380D01*
X178736714Y-129394142D01*
X178736714Y-129346523D01*
X178689095Y-129251285D01*
X178641476Y-129203666D01*
X178546238Y-129156047D01*
X178355761Y-129156047D01*
X178260523Y-129108428D01*
X178212904Y-129060809D01*
X178165285Y-128965571D01*
X178165285Y-128775095D01*
X178212904Y-128679857D01*
X178260523Y-128632238D01*
X178355761Y-128584619D01*
X178546238Y-128584619D01*
X178641476Y-128632238D01*
X178689095Y-128679857D01*
X178736714Y-128775095D01*
X178736714Y-128965571D01*
X178689095Y-129060809D01*
X178641476Y-129108428D01*
X178546238Y-129156047D01*
X190736714Y-128584619D02*
X190736714Y-129584619D01*
X190974809Y-129584619D01*
X191117666Y-129537000D01*
X191212904Y-129441761D01*
X191260523Y-129346523D01*
X191308142Y-129156047D01*
X191308142Y-129013190D01*
X191260523Y-128822714D01*
X191212904Y-128727476D01*
X191117666Y-128632238D01*
X190974809Y-128584619D01*
X190736714Y-128584619D01*
X192260523Y-128584619D02*
X191689095Y-128584619D01*
X191974809Y-128584619D02*
X191974809Y-129584619D01*
X191879571Y-129441761D01*
X191784333Y-129346523D01*
X191689095Y-129298904D01*
X192879571Y-129584619D02*
X192974809Y-129584619D01*
X193070047Y-129537000D01*
X193117666Y-129489380D01*
X193165285Y-129394142D01*
X193212904Y-129203666D01*
X193212904Y-128965571D01*
X193165285Y-128775095D01*
X193117666Y-128679857D01*
X193070047Y-128632238D01*
X192974809Y-128584619D01*
X192879571Y-128584619D01*
X192784333Y-128632238D01*
X192736714Y-128679857D01*
X192689095Y-128775095D01*
X192641476Y-128965571D01*
X192641476Y-129203666D01*
X192689095Y-129394142D01*
X192736714Y-129489380D01*
X192784333Y-129537000D01*
X192879571Y-129584619D01*
M02*
