M48
;DRILL file {KiCad (2017-11-24 revision a01d81e)-master} date Friday '05en' 05. January 2018 'kl'. 16.27.41
;FORMAT={-:-/ absolute / metric / decimal}
FMAT,2
METRIC,TZ
T1C0.400
T2C0.600
T3C0.800
T4C0.900
T5C1.000
T6C1.400
T7C5.300
T8C3.250
%
G90
G05
M71
T1
X132.544Y-140.142
X133.324Y-103.692
X133.424Y-130.692
X134.124Y-133.482
X135.074Y-136.902
X135.274Y-103.692
X135.324Y-100.692
X136.324Y-133.592
X136.324Y-136.292
X137.104Y-140.142
X137.324Y-107.192
X137.824Y-78.192
X138.574Y-107.442
X139.824Y-107.692
X141.074Y-107.692
X142.324Y-107.692
X143.324Y-107.192
X146.819Y-140.217
X147.424Y-130.942
X147.574Y-78.192
X149.774Y-133.732
X150.324Y-136.192
X150.424Y-139.942
X150.824Y-99.692
X151.574Y-99.692
X152.324Y-115.442
X152.324Y-110.192
X152.574Y-125.942
X152.574Y-128.942
X153.074Y-102.442
X153.324Y-115.692
X153.37Y-110.272
X156.874Y-103.517
X156.874Y-107.327
X156.874Y-108.597
X159.324Y-98.692
X159.324Y-103.192
X159.324Y-105.442
X159.324Y-108.942
X160.049Y-107.327
X160.074Y-96.192
X160.074Y-97.192
X160.074Y-102.692
X160.565Y-95.445
X160.824Y-101.942
X160.824Y-103.942
X161.319Y-140.217
X161.324Y-95.192
X161.524Y-101.445
X161.574Y-103.442
X162.324Y-101.442
X162.324Y-108.192
X162.424Y-130.942
X162.724Y-94.192
X162.824Y-112.442
X163.074Y-111.192
X164.774Y-133.732
X164.824Y-111.192
X165.824Y-136.192
X165.879Y-140.217
X166.274Y-112.407
X166.274Y-114.947
X166.574Y-125.417
X167.324Y-128.442
X167.549Y-96.944
X167.999Y-99.639
X168.074Y-100.942
X175.544Y-140.242
X176.424Y-130.942
X179.324Y-133.342
X179.324Y-136.042
X180.104Y-140.242
X181.072Y-125.417
X181.324Y-127.192
X189.769Y-140.217
X190.424Y-130.942
X193.324Y-133.342
X193.324Y-136.042
X194.329Y-140.217
T2
X205.649Y-81.692
X206.813Y-78.881
X206.813Y-84.503
X209.624Y-77.717
X209.624Y-85.667
X212.435Y-78.881
X212.435Y-84.503
X213.599Y-81.692
X118.049Y-81.692
X119.213Y-78.881
X119.213Y-84.503
X122.024Y-77.717
X122.024Y-85.667
X124.835Y-78.881
X124.835Y-84.503
X125.999Y-81.692
X205.649Y-149.692
X206.813Y-146.881
X206.813Y-152.503
X209.624Y-145.717
X209.624Y-153.667
X119.213Y-152.503
X118.049Y-149.692
X119.213Y-146.881
X122.024Y-145.717
X122.024Y-153.667
X124.835Y-146.881
X124.835Y-152.503
X125.999Y-149.692
X212.435Y-146.881
X212.435Y-152.503
X213.599Y-149.692
T3
X162.534Y-78.822
X162.534Y-86.442
X165.074Y-78.822
X165.074Y-86.442
X167.614Y-78.822
X167.614Y-86.442
T4
X130.324Y-91.902
X130.324Y-94.442
X130.324Y-96.982
X130.324Y-99.522
X132.864Y-93.172
X132.864Y-95.712
X132.864Y-98.252
X132.864Y-100.792
X121.574Y-131.692
X124.114Y-131.692
X130.324Y-109.612
X130.324Y-112.152
X130.324Y-114.692
X130.324Y-117.232
X132.864Y-110.882
X132.864Y-113.422
X132.864Y-115.962
X132.864Y-118.502
T5
X146.494Y-82.402
X146.494Y-84.942
X149.034Y-82.402
X149.034Y-84.942
X151.574Y-82.402
X151.574Y-84.942
X184.324Y-131.652
X184.324Y-134.192
X184.324Y-136.732
X198.574Y-131.612
X198.574Y-134.152
X198.574Y-136.692
X140.824Y-131.612
X140.824Y-134.152
X140.824Y-136.692
X136.744Y-82.402
X136.744Y-84.942
X139.284Y-82.402
X139.284Y-84.942
X141.824Y-82.402
X141.824Y-84.942
X155.074Y-131.652
X155.074Y-134.192
X155.074Y-136.732
X170.074Y-131.652
X170.074Y-134.192
X170.074Y-136.732
T6
X156.824Y-143.362
X156.824Y-148.442
X176.824Y-83.192
X176.824Y-88.272
X171.324Y-143.362
X185.574Y-143.362
X185.574Y-148.442
X171.324Y-148.442
X142.074Y-143.442
X142.074Y-148.522
X123.244Y-126.442
X128.324Y-126.442
X191.824Y-83.192
X191.824Y-88.272
X199.324Y-83.192
X199.324Y-88.272
X199.824Y-143.362
X184.324Y-83.192
X184.324Y-88.272
X199.824Y-148.442
T7
X209.624Y-81.692
X122.024Y-81.692
X209.624Y-149.692
X122.024Y-149.692
T8
X123.974Y-90.412
X123.974Y-102.282
X123.974Y-108.122
X123.974Y-119.992
T0
M30
