G04 #@! TF.GenerationSoftware,KiCad,Pcbnew,(2017-11-24 revision a01d81e)-master*
G04 #@! TF.CreationDate,2017-12-03T16:31:32+01:00*
G04 #@! TF.ProjectId,PWRCTRLBRD,5057524354524C4252442E6B69636164,rev?*
G04 #@! TF.SameCoordinates,Original*
G04 #@! TF.FileFunction,Legend,Top*
G04 #@! TF.FilePolarity,Positive*
%FSLAX46Y46*%
G04 Gerber Fmt 4.6, Leading zero omitted, Abs format (unit mm)*
G04 Created by KiCad (PCBNEW (2017-11-24 revision a01d81e)-master) date Sunday '03en' 03. December 2017 'kl'. 16.31.32*
%MOMM*%
%LPD*%
G01*
G04 APERTURE LIST*
%ADD10C,0.300000*%
%ADD11C,0.200000*%
%ADD12C,0.010000*%
%ADD13C,0.120000*%
%ADD14C,0.150000*%
G04 APERTURE END LIST*
D10*
X147716857Y-79084857D02*
X148216857Y-79084857D01*
X148431142Y-79870571D02*
X147716857Y-79870571D01*
X147716857Y-78370571D01*
X148431142Y-78370571D01*
X148931142Y-78370571D02*
X149931142Y-79870571D01*
X149931142Y-78370571D02*
X148931142Y-79870571D01*
X150288285Y-78370571D02*
X151145428Y-78370571D01*
X150716857Y-79870571D02*
X150716857Y-78370571D01*
X138288285Y-79799142D02*
X138502571Y-79870571D01*
X138859714Y-79870571D01*
X139002571Y-79799142D01*
X139074000Y-79727714D01*
X139145428Y-79584857D01*
X139145428Y-79442000D01*
X139074000Y-79299142D01*
X139002571Y-79227714D01*
X138859714Y-79156285D01*
X138574000Y-79084857D01*
X138431142Y-79013428D01*
X138359714Y-78942000D01*
X138288285Y-78799142D01*
X138288285Y-78656285D01*
X138359714Y-78513428D01*
X138431142Y-78442000D01*
X138574000Y-78370571D01*
X138931142Y-78370571D01*
X139145428Y-78442000D01*
X139645428Y-78370571D02*
X140002571Y-79870571D01*
X140288285Y-78799142D01*
X140574000Y-79870571D01*
X140931142Y-78370571D01*
X143716857Y-137906285D02*
X143716857Y-137406285D01*
X144502571Y-137192000D02*
X144502571Y-137906285D01*
X143002571Y-137906285D01*
X143002571Y-137192000D01*
X143002571Y-136692000D02*
X144502571Y-135692000D01*
X143002571Y-135692000D02*
X144502571Y-136692000D01*
X143002571Y-135334857D02*
X143002571Y-134477714D01*
X144502571Y-134906285D02*
X143002571Y-134906285D01*
X142931142Y-132906285D02*
X144859714Y-134192000D01*
X144431142Y-132477714D02*
X144502571Y-132263428D01*
X144502571Y-131906285D01*
X144431142Y-131763428D01*
X144359714Y-131692000D01*
X144216857Y-131620571D01*
X144074000Y-131620571D01*
X143931142Y-131692000D01*
X143859714Y-131763428D01*
X143788285Y-131906285D01*
X143716857Y-132192000D01*
X143645428Y-132334857D01*
X143574000Y-132406285D01*
X143431142Y-132477714D01*
X143288285Y-132477714D01*
X143145428Y-132406285D01*
X143074000Y-132334857D01*
X143002571Y-132192000D01*
X143002571Y-131834857D01*
X143074000Y-131620571D01*
X143002571Y-131120571D02*
X144502571Y-130763428D01*
X143431142Y-130477714D01*
X144502571Y-130192000D01*
X143002571Y-129834857D01*
X201716857Y-137906285D02*
X201716857Y-137406285D01*
X202502571Y-137192000D02*
X202502571Y-137906285D01*
X201002571Y-137906285D01*
X201002571Y-137192000D01*
X201002571Y-136692000D02*
X202502571Y-135692000D01*
X201002571Y-135692000D02*
X202502571Y-136692000D01*
X201002571Y-135334857D02*
X201002571Y-134477714D01*
X202502571Y-134906285D02*
X201002571Y-134906285D01*
X200931142Y-132906285D02*
X202859714Y-134192000D01*
X202431142Y-132477714D02*
X202502571Y-132263428D01*
X202502571Y-131906285D01*
X202431142Y-131763428D01*
X202359714Y-131692000D01*
X202216857Y-131620571D01*
X202074000Y-131620571D01*
X201931142Y-131692000D01*
X201859714Y-131763428D01*
X201788285Y-131906285D01*
X201716857Y-132192000D01*
X201645428Y-132334857D01*
X201574000Y-132406285D01*
X201431142Y-132477714D01*
X201288285Y-132477714D01*
X201145428Y-132406285D01*
X201074000Y-132334857D01*
X201002571Y-132192000D01*
X201002571Y-131834857D01*
X201074000Y-131620571D01*
X201002571Y-131120571D02*
X202502571Y-130763428D01*
X201431142Y-130477714D01*
X202502571Y-130192000D01*
X201002571Y-129834857D01*
X187216857Y-137906285D02*
X187216857Y-137406285D01*
X188002571Y-137192000D02*
X188002571Y-137906285D01*
X186502571Y-137906285D01*
X186502571Y-137192000D01*
X186502571Y-136692000D02*
X188002571Y-135692000D01*
X186502571Y-135692000D02*
X188002571Y-136692000D01*
X186502571Y-135334857D02*
X186502571Y-134477714D01*
X188002571Y-134906285D02*
X186502571Y-134906285D01*
X186431142Y-132906285D02*
X188359714Y-134192000D01*
X187931142Y-132477714D02*
X188002571Y-132263428D01*
X188002571Y-131906285D01*
X187931142Y-131763428D01*
X187859714Y-131692000D01*
X187716857Y-131620571D01*
X187574000Y-131620571D01*
X187431142Y-131692000D01*
X187359714Y-131763428D01*
X187288285Y-131906285D01*
X187216857Y-132192000D01*
X187145428Y-132334857D01*
X187074000Y-132406285D01*
X186931142Y-132477714D01*
X186788285Y-132477714D01*
X186645428Y-132406285D01*
X186574000Y-132334857D01*
X186502571Y-132192000D01*
X186502571Y-131834857D01*
X186574000Y-131620571D01*
X186502571Y-131120571D02*
X188002571Y-130763428D01*
X186931142Y-130477714D01*
X188002571Y-130192000D01*
X186502571Y-129834857D01*
X172966857Y-137906285D02*
X172966857Y-137406285D01*
X173752571Y-137192000D02*
X173752571Y-137906285D01*
X172252571Y-137906285D01*
X172252571Y-137192000D01*
X172252571Y-136692000D02*
X173752571Y-135692000D01*
X172252571Y-135692000D02*
X173752571Y-136692000D01*
X172252571Y-135334857D02*
X172252571Y-134477714D01*
X173752571Y-134906285D02*
X172252571Y-134906285D01*
X172181142Y-132906285D02*
X174109714Y-134192000D01*
X173681142Y-132477714D02*
X173752571Y-132263428D01*
X173752571Y-131906285D01*
X173681142Y-131763428D01*
X173609714Y-131692000D01*
X173466857Y-131620571D01*
X173324000Y-131620571D01*
X173181142Y-131692000D01*
X173109714Y-131763428D01*
X173038285Y-131906285D01*
X172966857Y-132192000D01*
X172895428Y-132334857D01*
X172824000Y-132406285D01*
X172681142Y-132477714D01*
X172538285Y-132477714D01*
X172395428Y-132406285D01*
X172324000Y-132334857D01*
X172252571Y-132192000D01*
X172252571Y-131834857D01*
X172324000Y-131620571D01*
X172252571Y-131120571D02*
X173752571Y-130763428D01*
X172681142Y-130477714D01*
X173752571Y-130192000D01*
X172252571Y-129834857D01*
X157966857Y-137906285D02*
X157966857Y-137406285D01*
X158752571Y-137192000D02*
X158752571Y-137906285D01*
X157252571Y-137906285D01*
X157252571Y-137192000D01*
X157252571Y-136692000D02*
X158752571Y-135692000D01*
X157252571Y-135692000D02*
X158752571Y-136692000D01*
X157252571Y-135334857D02*
X157252571Y-134477714D01*
X158752571Y-134906285D02*
X157252571Y-134906285D01*
X157181142Y-132906285D02*
X159109714Y-134192000D01*
X158681142Y-132477714D02*
X158752571Y-132263428D01*
X158752571Y-131906285D01*
X158681142Y-131763428D01*
X158609714Y-131692000D01*
X158466857Y-131620571D01*
X158324000Y-131620571D01*
X158181142Y-131692000D01*
X158109714Y-131763428D01*
X158038285Y-131906285D01*
X157966857Y-132192000D01*
X157895428Y-132334857D01*
X157824000Y-132406285D01*
X157681142Y-132477714D01*
X157538285Y-132477714D01*
X157395428Y-132406285D01*
X157324000Y-132334857D01*
X157252571Y-132192000D01*
X157252571Y-131834857D01*
X157324000Y-131620571D01*
X157252571Y-131120571D02*
X158752571Y-130763428D01*
X157681142Y-130477714D01*
X158752571Y-130192000D01*
X157252571Y-129834857D01*
X197895428Y-153870571D02*
X197181142Y-153870571D01*
X197181142Y-152370571D01*
X198681142Y-152370571D02*
X198966857Y-152370571D01*
X199109714Y-152442000D01*
X199252571Y-152584857D01*
X199324000Y-152870571D01*
X199324000Y-153370571D01*
X199252571Y-153656285D01*
X199109714Y-153799142D01*
X198966857Y-153870571D01*
X198681142Y-153870571D01*
X198538285Y-153799142D01*
X198395428Y-153656285D01*
X198324000Y-153370571D01*
X198324000Y-152870571D01*
X198395428Y-152584857D01*
X198538285Y-152442000D01*
X198681142Y-152370571D01*
X199895428Y-153442000D02*
X200609714Y-153442000D01*
X199752571Y-153870571D02*
X200252571Y-152370571D01*
X200752571Y-153870571D01*
X201252571Y-153870571D02*
X201252571Y-152370571D01*
X201609714Y-152370571D01*
X201824000Y-152442000D01*
X201966857Y-152584857D01*
X202038285Y-152727714D01*
X202109714Y-153013428D01*
X202109714Y-153227714D01*
X202038285Y-153513428D01*
X201966857Y-153656285D01*
X201824000Y-153799142D01*
X201609714Y-153870571D01*
X201252571Y-153870571D01*
X203395428Y-152870571D02*
X203395428Y-153870571D01*
X203038285Y-152299142D02*
X202681142Y-153370571D01*
X203609714Y-153370571D01*
X183145428Y-153870571D02*
X182431142Y-153870571D01*
X182431142Y-152370571D01*
X183931142Y-152370571D02*
X184216857Y-152370571D01*
X184359714Y-152442000D01*
X184502571Y-152584857D01*
X184574000Y-152870571D01*
X184574000Y-153370571D01*
X184502571Y-153656285D01*
X184359714Y-153799142D01*
X184216857Y-153870571D01*
X183931142Y-153870571D01*
X183788285Y-153799142D01*
X183645428Y-153656285D01*
X183574000Y-153370571D01*
X183574000Y-152870571D01*
X183645428Y-152584857D01*
X183788285Y-152442000D01*
X183931142Y-152370571D01*
X185145428Y-153442000D02*
X185859714Y-153442000D01*
X185002571Y-153870571D02*
X185502571Y-152370571D01*
X186002571Y-153870571D01*
X186502571Y-153870571D02*
X186502571Y-152370571D01*
X186859714Y-152370571D01*
X187074000Y-152442000D01*
X187216857Y-152584857D01*
X187288285Y-152727714D01*
X187359714Y-153013428D01*
X187359714Y-153227714D01*
X187288285Y-153513428D01*
X187216857Y-153656285D01*
X187074000Y-153799142D01*
X186859714Y-153870571D01*
X186502571Y-153870571D01*
X187859714Y-152370571D02*
X188788285Y-152370571D01*
X188288285Y-152942000D01*
X188502571Y-152942000D01*
X188645428Y-153013428D01*
X188716857Y-153084857D01*
X188788285Y-153227714D01*
X188788285Y-153584857D01*
X188716857Y-153727714D01*
X188645428Y-153799142D01*
X188502571Y-153870571D01*
X188074000Y-153870571D01*
X187931142Y-153799142D01*
X187859714Y-153727714D01*
X168645428Y-153870571D02*
X167931142Y-153870571D01*
X167931142Y-152370571D01*
X169431142Y-152370571D02*
X169716857Y-152370571D01*
X169859714Y-152442000D01*
X170002571Y-152584857D01*
X170074000Y-152870571D01*
X170074000Y-153370571D01*
X170002571Y-153656285D01*
X169859714Y-153799142D01*
X169716857Y-153870571D01*
X169431142Y-153870571D01*
X169288285Y-153799142D01*
X169145428Y-153656285D01*
X169074000Y-153370571D01*
X169074000Y-152870571D01*
X169145428Y-152584857D01*
X169288285Y-152442000D01*
X169431142Y-152370571D01*
X170645428Y-153442000D02*
X171359714Y-153442000D01*
X170502571Y-153870571D02*
X171002571Y-152370571D01*
X171502571Y-153870571D01*
X172002571Y-153870571D02*
X172002571Y-152370571D01*
X172359714Y-152370571D01*
X172574000Y-152442000D01*
X172716857Y-152584857D01*
X172788285Y-152727714D01*
X172859714Y-153013428D01*
X172859714Y-153227714D01*
X172788285Y-153513428D01*
X172716857Y-153656285D01*
X172574000Y-153799142D01*
X172359714Y-153870571D01*
X172002571Y-153870571D01*
X173431142Y-152513428D02*
X173502571Y-152442000D01*
X173645428Y-152370571D01*
X174002571Y-152370571D01*
X174145428Y-152442000D01*
X174216857Y-152513428D01*
X174288285Y-152656285D01*
X174288285Y-152799142D01*
X174216857Y-153013428D01*
X173359714Y-153870571D01*
X174288285Y-153870571D01*
X154145428Y-153870571D02*
X153431142Y-153870571D01*
X153431142Y-152370571D01*
X154931142Y-152370571D02*
X155216857Y-152370571D01*
X155359714Y-152442000D01*
X155502571Y-152584857D01*
X155574000Y-152870571D01*
X155574000Y-153370571D01*
X155502571Y-153656285D01*
X155359714Y-153799142D01*
X155216857Y-153870571D01*
X154931142Y-153870571D01*
X154788285Y-153799142D01*
X154645428Y-153656285D01*
X154574000Y-153370571D01*
X154574000Y-152870571D01*
X154645428Y-152584857D01*
X154788285Y-152442000D01*
X154931142Y-152370571D01*
X156145428Y-153442000D02*
X156859714Y-153442000D01*
X156002571Y-153870571D02*
X156502571Y-152370571D01*
X157002571Y-153870571D01*
X157502571Y-153870571D02*
X157502571Y-152370571D01*
X157859714Y-152370571D01*
X158074000Y-152442000D01*
X158216857Y-152584857D01*
X158288285Y-152727714D01*
X158359714Y-153013428D01*
X158359714Y-153227714D01*
X158288285Y-153513428D01*
X158216857Y-153656285D01*
X158074000Y-153799142D01*
X157859714Y-153870571D01*
X157502571Y-153870571D01*
X159788285Y-153870571D02*
X158931142Y-153870571D01*
X159359714Y-153870571D02*
X159359714Y-152370571D01*
X159216857Y-152584857D01*
X159074000Y-152727714D01*
X158931142Y-152799142D01*
X139645428Y-153870571D02*
X138931142Y-153870571D01*
X138931142Y-152370571D01*
X140431142Y-152370571D02*
X140716857Y-152370571D01*
X140859714Y-152442000D01*
X141002571Y-152584857D01*
X141074000Y-152870571D01*
X141074000Y-153370571D01*
X141002571Y-153656285D01*
X140859714Y-153799142D01*
X140716857Y-153870571D01*
X140431142Y-153870571D01*
X140288285Y-153799142D01*
X140145428Y-153656285D01*
X140074000Y-153370571D01*
X140074000Y-152870571D01*
X140145428Y-152584857D01*
X140288285Y-152442000D01*
X140431142Y-152370571D01*
X141645428Y-153442000D02*
X142359714Y-153442000D01*
X141502571Y-153870571D02*
X142002571Y-152370571D01*
X142502571Y-153870571D01*
X143002571Y-153870571D02*
X143002571Y-152370571D01*
X143359714Y-152370571D01*
X143574000Y-152442000D01*
X143716857Y-152584857D01*
X143788285Y-152727714D01*
X143859714Y-153013428D01*
X143859714Y-153227714D01*
X143788285Y-153513428D01*
X143716857Y-153656285D01*
X143574000Y-153799142D01*
X143359714Y-153870571D01*
X143002571Y-153870571D01*
X144788285Y-152370571D02*
X144931142Y-152370571D01*
X145074000Y-152442000D01*
X145145428Y-152513428D01*
X145216857Y-152656285D01*
X145288285Y-152942000D01*
X145288285Y-153299142D01*
X145216857Y-153584857D01*
X145145428Y-153727714D01*
X145074000Y-153799142D01*
X144931142Y-153870571D01*
X144788285Y-153870571D01*
X144645428Y-153799142D01*
X144574000Y-153727714D01*
X144502571Y-153584857D01*
X144431142Y-153299142D01*
X144431142Y-152942000D01*
X144502571Y-152656285D01*
X144574000Y-152513428D01*
X144645428Y-152442000D01*
X144788285Y-152370571D01*
D11*
X174574000Y-90692000D02*
X174574000Y-75692000D01*
X202074000Y-90692000D02*
X174574000Y-90692000D01*
X202074000Y-75692000D02*
X202074000Y-90692000D01*
D10*
X167824000Y-90763428D02*
X167824000Y-90049142D01*
X168252571Y-90906285D02*
X166752571Y-90406285D01*
X168252571Y-89906285D01*
X166895428Y-89477714D02*
X166824000Y-89406285D01*
X166752571Y-89263428D01*
X166752571Y-88906285D01*
X166824000Y-88763428D01*
X166895428Y-88692000D01*
X167038285Y-88620571D01*
X167181142Y-88620571D01*
X167395428Y-88692000D01*
X168252571Y-89549142D01*
X168252571Y-88620571D01*
X165324000Y-90763428D02*
X165324000Y-90049142D01*
X165752571Y-90906285D02*
X164252571Y-90406285D01*
X165752571Y-89906285D01*
X165752571Y-88620571D02*
X165752571Y-89477714D01*
X165752571Y-89049142D02*
X164252571Y-89049142D01*
X164466857Y-89192000D01*
X164609714Y-89334857D01*
X164681142Y-89477714D01*
X162824000Y-90763428D02*
X162824000Y-90049142D01*
X163252571Y-90906285D02*
X161752571Y-90406285D01*
X163252571Y-89906285D01*
X161752571Y-89120571D02*
X161752571Y-88977714D01*
X161824000Y-88834857D01*
X161895428Y-88763428D01*
X162038285Y-88692000D01*
X162324000Y-88620571D01*
X162681142Y-88620571D01*
X162966857Y-88692000D01*
X163109714Y-88763428D01*
X163181142Y-88834857D01*
X163252571Y-88977714D01*
X163252571Y-89120571D01*
X163181142Y-89263428D01*
X163109714Y-89334857D01*
X162966857Y-89406285D01*
X162681142Y-89477714D01*
X162324000Y-89477714D01*
X162038285Y-89406285D01*
X161895428Y-89334857D01*
X161824000Y-89263428D01*
X161752571Y-89120571D01*
X182919238Y-92870571D02*
X184824000Y-92870571D01*
X183871619Y-93822952D02*
X183871619Y-91918190D01*
X187324000Y-93822952D02*
X185895428Y-93822952D01*
X186609714Y-93822952D02*
X186609714Y-91322952D01*
X186371619Y-91680095D01*
X186133523Y-91918190D01*
X185895428Y-92037238D01*
X188276380Y-91561047D02*
X188395428Y-91442000D01*
X188633523Y-91322952D01*
X189228761Y-91322952D01*
X189466857Y-91442000D01*
X189585904Y-91561047D01*
X189704952Y-91799142D01*
X189704952Y-92037238D01*
X189585904Y-92394380D01*
X188157333Y-93822952D01*
X189704952Y-93822952D01*
X190419238Y-91322952D02*
X191252571Y-93822952D01*
X192085904Y-91322952D01*
X117681142Y-125692000D02*
X117538285Y-125620571D01*
X117324000Y-125620571D01*
X117109714Y-125692000D01*
X116966857Y-125834857D01*
X116895428Y-125977714D01*
X116824000Y-126263428D01*
X116824000Y-126477714D01*
X116895428Y-126763428D01*
X116966857Y-126906285D01*
X117109714Y-127049142D01*
X117324000Y-127120571D01*
X117466857Y-127120571D01*
X117681142Y-127049142D01*
X117752571Y-126977714D01*
X117752571Y-126477714D01*
X117466857Y-126477714D01*
X118395428Y-127120571D02*
X118395428Y-125620571D01*
X119252571Y-127120571D01*
X119252571Y-125620571D01*
X119966857Y-127120571D02*
X119966857Y-125620571D01*
X120324000Y-125620571D01*
X120538285Y-125692000D01*
X120681142Y-125834857D01*
X120752571Y-125977714D01*
X120824000Y-126263428D01*
X120824000Y-126477714D01*
X120752571Y-126763428D01*
X120681142Y-126906285D01*
X120538285Y-127049142D01*
X120324000Y-127120571D01*
X119966857Y-127120571D01*
D12*
G36*
X181417164Y-117873446D02*
X181057496Y-117888021D01*
X180697828Y-117902597D01*
X180697828Y-119271046D01*
X181003856Y-119356129D01*
X181252255Y-119448583D01*
X181446309Y-119580763D01*
X181499950Y-119631278D01*
X181690015Y-119821343D01*
X181690015Y-120535477D01*
X181684546Y-120889975D01*
X181660196Y-121157621D01*
X181605047Y-121350538D01*
X181507185Y-121480849D01*
X181354694Y-121560676D01*
X181135658Y-121602141D01*
X180838160Y-121617368D01*
X180625007Y-121618954D01*
X180052906Y-121618954D01*
X180052906Y-121420516D01*
X180697828Y-121420516D01*
X180984446Y-121420516D01*
X181202666Y-121403916D01*
X181357493Y-121357601D01*
X181381321Y-121343289D01*
X181426654Y-121305796D01*
X181457511Y-121256262D01*
X181476662Y-121176697D01*
X181486876Y-121049110D01*
X181490921Y-120855512D01*
X181491578Y-120626993D01*
X181491578Y-119987924D01*
X181255933Y-119954383D01*
X181023920Y-119885877D01*
X180859058Y-119767979D01*
X180697828Y-119615115D01*
X180697828Y-121420516D01*
X180052906Y-121420516D01*
X180052906Y-117302938D01*
X181446920Y-117302938D01*
X181417164Y-117873446D01*
X181417164Y-117873446D01*
G37*
X181417164Y-117873446D02*
X181057496Y-117888021D01*
X180697828Y-117902597D01*
X180697828Y-119271046D01*
X181003856Y-119356129D01*
X181252255Y-119448583D01*
X181446309Y-119580763D01*
X181499950Y-119631278D01*
X181690015Y-119821343D01*
X181690015Y-120535477D01*
X181684546Y-120889975D01*
X181660196Y-121157621D01*
X181605047Y-121350538D01*
X181507185Y-121480849D01*
X181354694Y-121560676D01*
X181135658Y-121602141D01*
X180838160Y-121617368D01*
X180625007Y-121618954D01*
X180052906Y-121618954D01*
X180052906Y-121420516D01*
X180697828Y-121420516D01*
X180984446Y-121420516D01*
X181202666Y-121403916D01*
X181357493Y-121357601D01*
X181381321Y-121343289D01*
X181426654Y-121305796D01*
X181457511Y-121256262D01*
X181476662Y-121176697D01*
X181486876Y-121049110D01*
X181490921Y-120855512D01*
X181491578Y-120626993D01*
X181491578Y-119987924D01*
X181255933Y-119954383D01*
X181023920Y-119885877D01*
X180859058Y-119767979D01*
X180697828Y-119615115D01*
X180697828Y-121420516D01*
X180052906Y-121420516D01*
X180052906Y-117302938D01*
X181446920Y-117302938D01*
X181417164Y-117873446D01*
G36*
X196523219Y-119340184D02*
X196521989Y-119828405D01*
X196518429Y-120264005D01*
X196512728Y-120638934D01*
X196505078Y-120945146D01*
X196495670Y-121174592D01*
X196484696Y-121319225D01*
X196475056Y-121368202D01*
X196369927Y-121471426D01*
X196195075Y-121549512D01*
X195977844Y-121597893D01*
X195745574Y-121612000D01*
X195525608Y-121587265D01*
X195400970Y-121547669D01*
X195323749Y-121513506D01*
X195260234Y-121478323D01*
X195209089Y-121432720D01*
X195168972Y-121367296D01*
X195138547Y-121272652D01*
X195116474Y-121139387D01*
X195101415Y-120958103D01*
X195092031Y-120719398D01*
X195086982Y-120413873D01*
X195084931Y-120032128D01*
X195084539Y-119564763D01*
X195084547Y-119325884D01*
X195084547Y-118047079D01*
X195729469Y-118047079D01*
X195729469Y-121420516D01*
X195899872Y-121420516D01*
X196060110Y-121405893D01*
X196197528Y-121372134D01*
X196324781Y-121323753D01*
X196324781Y-118047079D01*
X195729469Y-118047079D01*
X195084547Y-118047079D01*
X195084547Y-117402157D01*
X196523219Y-117402157D01*
X196523219Y-119340184D01*
X196523219Y-119340184D01*
G37*
X196523219Y-119340184D02*
X196521989Y-119828405D01*
X196518429Y-120264005D01*
X196512728Y-120638934D01*
X196505078Y-120945146D01*
X196495670Y-121174592D01*
X196484696Y-121319225D01*
X196475056Y-121368202D01*
X196369927Y-121471426D01*
X196195075Y-121549512D01*
X195977844Y-121597893D01*
X195745574Y-121612000D01*
X195525608Y-121587265D01*
X195400970Y-121547669D01*
X195323749Y-121513506D01*
X195260234Y-121478323D01*
X195209089Y-121432720D01*
X195168972Y-121367296D01*
X195138547Y-121272652D01*
X195116474Y-121139387D01*
X195101415Y-120958103D01*
X195092031Y-120719398D01*
X195086982Y-120413873D01*
X195084931Y-120032128D01*
X195084539Y-119564763D01*
X195084547Y-119325884D01*
X195084547Y-118047079D01*
X195729469Y-118047079D01*
X195729469Y-121420516D01*
X195899872Y-121420516D01*
X196060110Y-121405893D01*
X196197528Y-121372134D01*
X196324781Y-121323753D01*
X196324781Y-118047079D01*
X195729469Y-118047079D01*
X195084547Y-118047079D01*
X195084547Y-117402157D01*
X196523219Y-117402157D01*
X196523219Y-119340184D01*
G36*
X187729957Y-115567287D02*
X188252237Y-115567916D01*
X188746869Y-115569481D01*
X189204577Y-115571890D01*
X189616085Y-115575046D01*
X189972114Y-115578855D01*
X190263390Y-115583223D01*
X190480635Y-115588054D01*
X190614573Y-115593255D01*
X190654118Y-115597148D01*
X190728906Y-115644483D01*
X190850693Y-115751303D01*
X191002252Y-115901465D01*
X191156897Y-116068195D01*
X191333072Y-116270331D01*
X191457030Y-116428702D01*
X191545598Y-116570793D01*
X191615608Y-116724091D01*
X191683889Y-116916080D01*
X191692990Y-116943706D01*
X191787299Y-117281227D01*
X191830154Y-117583101D01*
X191820931Y-117880009D01*
X191759007Y-118202631D01*
X191660737Y-118531233D01*
X191584753Y-118767753D01*
X191540383Y-118932510D01*
X191523922Y-119046460D01*
X191531665Y-119130561D01*
X191546688Y-119176155D01*
X191590303Y-119280932D01*
X191661086Y-119448626D01*
X191747085Y-119650974D01*
X191793034Y-119758602D01*
X191983961Y-120205086D01*
X191998089Y-122053036D01*
X192012217Y-123900985D01*
X189404273Y-123897367D01*
X189119019Y-123628477D01*
X188833765Y-123359588D01*
X188833765Y-119987924D01*
X188615060Y-119955127D01*
X188386915Y-119879457D01*
X188258513Y-119778454D01*
X188161995Y-119687299D01*
X188091543Y-119637639D01*
X188080343Y-119634579D01*
X188071850Y-119682499D01*
X188063965Y-119819510D01*
X188056880Y-120035481D01*
X188050786Y-120320285D01*
X188045875Y-120663793D01*
X188042338Y-121055877D01*
X188040367Y-121486407D01*
X188040015Y-121767782D01*
X188040015Y-123900985D01*
X186737769Y-123899915D01*
X185435523Y-123898844D01*
X184914625Y-123397854D01*
X184914625Y-115765047D01*
X185113062Y-115765047D01*
X185113062Y-123256063D01*
X187395094Y-123256063D01*
X187395094Y-117302938D01*
X188784156Y-117302938D01*
X188784156Y-117898250D01*
X188040015Y-117898250D01*
X188040015Y-119282817D01*
X188226051Y-119316634D01*
X188436650Y-119376465D01*
X188648854Y-119471983D01*
X188829980Y-119585694D01*
X188947342Y-119700103D01*
X188950067Y-119704170D01*
X188972305Y-119747466D01*
X188990193Y-119809228D01*
X189004188Y-119899747D01*
X189014753Y-120029318D01*
X189022345Y-120208232D01*
X189027426Y-120446782D01*
X189030455Y-120755260D01*
X189031891Y-121143960D01*
X189032203Y-121542794D01*
X189032203Y-123256063D01*
X191363844Y-123256063D01*
X191363844Y-121552306D01*
X191363719Y-121076492D01*
X191362153Y-120686882D01*
X191357361Y-120370461D01*
X191347557Y-120114214D01*
X191330955Y-119905127D01*
X191305768Y-119730186D01*
X191270211Y-119576375D01*
X191222497Y-119430680D01*
X191160841Y-119280086D01*
X191083457Y-119111580D01*
X191006795Y-118950451D01*
X190834451Y-118588785D01*
X190999919Y-118082287D01*
X191073669Y-117840994D01*
X191137412Y-117604061D01*
X191182311Y-117405779D01*
X191196550Y-117319440D01*
X191199146Y-117062320D01*
X191157001Y-116768806D01*
X191078777Y-116468248D01*
X190973136Y-116189997D01*
X190848741Y-115963404D01*
X190766473Y-115862208D01*
X190742742Y-115841387D01*
X190711294Y-115823773D01*
X190664204Y-115809098D01*
X190593548Y-115797093D01*
X190491404Y-115787491D01*
X190349847Y-115780025D01*
X190160953Y-115774426D01*
X189916799Y-115770427D01*
X189609462Y-115767759D01*
X189231017Y-115766156D01*
X188773541Y-115765350D01*
X188229110Y-115765072D01*
X187891187Y-115765047D01*
X185113062Y-115765047D01*
X184914625Y-115765047D01*
X184914625Y-115566610D01*
X187729957Y-115567287D01*
X187729957Y-115567287D01*
G37*
X187729957Y-115567287D02*
X188252237Y-115567916D01*
X188746869Y-115569481D01*
X189204577Y-115571890D01*
X189616085Y-115575046D01*
X189972114Y-115578855D01*
X190263390Y-115583223D01*
X190480635Y-115588054D01*
X190614573Y-115593255D01*
X190654118Y-115597148D01*
X190728906Y-115644483D01*
X190850693Y-115751303D01*
X191002252Y-115901465D01*
X191156897Y-116068195D01*
X191333072Y-116270331D01*
X191457030Y-116428702D01*
X191545598Y-116570793D01*
X191615608Y-116724091D01*
X191683889Y-116916080D01*
X191692990Y-116943706D01*
X191787299Y-117281227D01*
X191830154Y-117583101D01*
X191820931Y-117880009D01*
X191759007Y-118202631D01*
X191660737Y-118531233D01*
X191584753Y-118767753D01*
X191540383Y-118932510D01*
X191523922Y-119046460D01*
X191531665Y-119130561D01*
X191546688Y-119176155D01*
X191590303Y-119280932D01*
X191661086Y-119448626D01*
X191747085Y-119650974D01*
X191793034Y-119758602D01*
X191983961Y-120205086D01*
X191998089Y-122053036D01*
X192012217Y-123900985D01*
X189404273Y-123897367D01*
X189119019Y-123628477D01*
X188833765Y-123359588D01*
X188833765Y-119987924D01*
X188615060Y-119955127D01*
X188386915Y-119879457D01*
X188258513Y-119778454D01*
X188161995Y-119687299D01*
X188091543Y-119637639D01*
X188080343Y-119634579D01*
X188071850Y-119682499D01*
X188063965Y-119819510D01*
X188056880Y-120035481D01*
X188050786Y-120320285D01*
X188045875Y-120663793D01*
X188042338Y-121055877D01*
X188040367Y-121486407D01*
X188040015Y-121767782D01*
X188040015Y-123900985D01*
X186737769Y-123899915D01*
X185435523Y-123898844D01*
X184914625Y-123397854D01*
X184914625Y-115765047D01*
X185113062Y-115765047D01*
X185113062Y-123256063D01*
X187395094Y-123256063D01*
X187395094Y-117302938D01*
X188784156Y-117302938D01*
X188784156Y-117898250D01*
X188040015Y-117898250D01*
X188040015Y-119282817D01*
X188226051Y-119316634D01*
X188436650Y-119376465D01*
X188648854Y-119471983D01*
X188829980Y-119585694D01*
X188947342Y-119700103D01*
X188950067Y-119704170D01*
X188972305Y-119747466D01*
X188990193Y-119809228D01*
X189004188Y-119899747D01*
X189014753Y-120029318D01*
X189022345Y-120208232D01*
X189027426Y-120446782D01*
X189030455Y-120755260D01*
X189031891Y-121143960D01*
X189032203Y-121542794D01*
X189032203Y-123256063D01*
X191363844Y-123256063D01*
X191363844Y-121552306D01*
X191363719Y-121076492D01*
X191362153Y-120686882D01*
X191357361Y-120370461D01*
X191347557Y-120114214D01*
X191330955Y-119905127D01*
X191305768Y-119730186D01*
X191270211Y-119576375D01*
X191222497Y-119430680D01*
X191160841Y-119280086D01*
X191083457Y-119111580D01*
X191006795Y-118950451D01*
X190834451Y-118588785D01*
X190999919Y-118082287D01*
X191073669Y-117840994D01*
X191137412Y-117604061D01*
X191182311Y-117405779D01*
X191196550Y-117319440D01*
X191199146Y-117062320D01*
X191157001Y-116768806D01*
X191078777Y-116468248D01*
X190973136Y-116189997D01*
X190848741Y-115963404D01*
X190766473Y-115862208D01*
X190742742Y-115841387D01*
X190711294Y-115823773D01*
X190664204Y-115809098D01*
X190593548Y-115797093D01*
X190491404Y-115787491D01*
X190349847Y-115780025D01*
X190160953Y-115774426D01*
X189916799Y-115770427D01*
X189609462Y-115767759D01*
X189231017Y-115766156D01*
X188773541Y-115765350D01*
X188229110Y-115765072D01*
X187891187Y-115765047D01*
X185113062Y-115765047D01*
X184914625Y-115765047D01*
X184914625Y-115566610D01*
X187729957Y-115567287D01*
G36*
X182093774Y-115575994D02*
X182515720Y-115580230D01*
X182849022Y-115586659D01*
X183090710Y-115595247D01*
X183237814Y-115605955D01*
X183277515Y-115612790D01*
X183407089Y-115678276D01*
X183568145Y-115811893D01*
X183770133Y-116021607D01*
X183793850Y-116048083D01*
X183998473Y-116290576D01*
X184148034Y-116505902D01*
X184260119Y-116727421D01*
X184352314Y-116988494D01*
X184420768Y-117237272D01*
X184466479Y-117445765D01*
X184486507Y-117634839D01*
X184478359Y-117826948D01*
X184439545Y-118044542D01*
X184367570Y-118310077D01*
X184266620Y-118625959D01*
X184115378Y-119080816D01*
X184266583Y-119380352D01*
X184486852Y-119891201D01*
X184625419Y-120400175D01*
X184691051Y-120924422D01*
X184701780Y-121486874D01*
X184656592Y-121973158D01*
X184554541Y-122389704D01*
X184433683Y-122672573D01*
X184240617Y-122977767D01*
X183993809Y-123275856D01*
X183720606Y-123537376D01*
X183451148Y-123731234D01*
X183203101Y-123876180D01*
X180648219Y-123887864D01*
X178093336Y-123899547D01*
X177807779Y-123629286D01*
X177522222Y-123359024D01*
X177534927Y-119475219D01*
X177547064Y-115765047D01*
X177721265Y-115765047D01*
X177721265Y-123256063D01*
X180109162Y-123256063D01*
X180754579Y-123254991D01*
X181303246Y-123251739D01*
X181757608Y-123246254D01*
X182120112Y-123238482D01*
X182393202Y-123228370D01*
X182579324Y-123215865D01*
X182680925Y-123200913D01*
X182684804Y-123199813D01*
X182905488Y-123097200D01*
X183145357Y-122924401D01*
X183381542Y-122701096D01*
X183591174Y-122446965D01*
X183637210Y-122380232D01*
X183775446Y-122161702D01*
X183877634Y-121969057D01*
X183949107Y-121780426D01*
X183995201Y-121573937D01*
X184021250Y-121327720D01*
X184032588Y-121019903D01*
X184034634Y-120750789D01*
X184033698Y-120443126D01*
X184028481Y-120212073D01*
X184016487Y-120035038D01*
X183995218Y-119889429D01*
X183962177Y-119752654D01*
X183914867Y-119602119D01*
X183904168Y-119570417D01*
X183817882Y-119336088D01*
X183717003Y-119090855D01*
X183623120Y-118887154D01*
X183621655Y-118884246D01*
X183470444Y-118584697D01*
X183643464Y-118055439D01*
X183741999Y-117743598D01*
X183807748Y-117501322D01*
X183843419Y-117305520D01*
X183851719Y-117133103D01*
X183835355Y-116960982D01*
X183797035Y-116766068D01*
X183795466Y-116759148D01*
X183721425Y-116465542D01*
X183646395Y-116245286D01*
X183559872Y-116072968D01*
X183451354Y-115923176D01*
X183448575Y-115919864D01*
X183318305Y-115765047D01*
X177721265Y-115765047D01*
X177547064Y-115765047D01*
X177547633Y-115591414D01*
X180325758Y-115576812D01*
X180995824Y-115574249D01*
X181586152Y-115573989D01*
X182093774Y-115575994D01*
X182093774Y-115575994D01*
G37*
X182093774Y-115575994D02*
X182515720Y-115580230D01*
X182849022Y-115586659D01*
X183090710Y-115595247D01*
X183237814Y-115605955D01*
X183277515Y-115612790D01*
X183407089Y-115678276D01*
X183568145Y-115811893D01*
X183770133Y-116021607D01*
X183793850Y-116048083D01*
X183998473Y-116290576D01*
X184148034Y-116505902D01*
X184260119Y-116727421D01*
X184352314Y-116988494D01*
X184420768Y-117237272D01*
X184466479Y-117445765D01*
X184486507Y-117634839D01*
X184478359Y-117826948D01*
X184439545Y-118044542D01*
X184367570Y-118310077D01*
X184266620Y-118625959D01*
X184115378Y-119080816D01*
X184266583Y-119380352D01*
X184486852Y-119891201D01*
X184625419Y-120400175D01*
X184691051Y-120924422D01*
X184701780Y-121486874D01*
X184656592Y-121973158D01*
X184554541Y-122389704D01*
X184433683Y-122672573D01*
X184240617Y-122977767D01*
X183993809Y-123275856D01*
X183720606Y-123537376D01*
X183451148Y-123731234D01*
X183203101Y-123876180D01*
X180648219Y-123887864D01*
X178093336Y-123899547D01*
X177807779Y-123629286D01*
X177522222Y-123359024D01*
X177534927Y-119475219D01*
X177547064Y-115765047D01*
X177721265Y-115765047D01*
X177721265Y-123256063D01*
X180109162Y-123256063D01*
X180754579Y-123254991D01*
X181303246Y-123251739D01*
X181757608Y-123246254D01*
X182120112Y-123238482D01*
X182393202Y-123228370D01*
X182579324Y-123215865D01*
X182680925Y-123200913D01*
X182684804Y-123199813D01*
X182905488Y-123097200D01*
X183145357Y-122924401D01*
X183381542Y-122701096D01*
X183591174Y-122446965D01*
X183637210Y-122380232D01*
X183775446Y-122161702D01*
X183877634Y-121969057D01*
X183949107Y-121780426D01*
X183995201Y-121573937D01*
X184021250Y-121327720D01*
X184032588Y-121019903D01*
X184034634Y-120750789D01*
X184033698Y-120443126D01*
X184028481Y-120212073D01*
X184016487Y-120035038D01*
X183995218Y-119889429D01*
X183962177Y-119752654D01*
X183914867Y-119602119D01*
X183904168Y-119570417D01*
X183817882Y-119336088D01*
X183717003Y-119090855D01*
X183623120Y-118887154D01*
X183621655Y-118884246D01*
X183470444Y-118584697D01*
X183643464Y-118055439D01*
X183741999Y-117743598D01*
X183807748Y-117501322D01*
X183843419Y-117305520D01*
X183851719Y-117133103D01*
X183835355Y-116960982D01*
X183797035Y-116766068D01*
X183795466Y-116759148D01*
X183721425Y-116465542D01*
X183646395Y-116245286D01*
X183559872Y-116072968D01*
X183451354Y-115923176D01*
X183448575Y-115919864D01*
X183318305Y-115765047D01*
X177721265Y-115765047D01*
X177547064Y-115765047D01*
X177547633Y-115591414D01*
X180325758Y-115576812D01*
X180995824Y-115574249D01*
X181586152Y-115573989D01*
X182093774Y-115575994D01*
G36*
X177028918Y-116163359D02*
X177015424Y-117092817D01*
X177001929Y-118022274D01*
X176440628Y-118047079D01*
X175879327Y-118071883D01*
X176199032Y-118426586D01*
X176358199Y-118617184D01*
X176505626Y-118818088D01*
X176616777Y-118995060D01*
X176643367Y-119046703D01*
X176786808Y-119433684D01*
X176891091Y-119886161D01*
X176956319Y-120383154D01*
X176982593Y-120903683D01*
X176970015Y-121426768D01*
X176918685Y-121931428D01*
X176828705Y-122396683D01*
X176700177Y-122801553D01*
X176624412Y-122969085D01*
X176491400Y-123176827D01*
X176307696Y-123395777D01*
X176102642Y-123595136D01*
X175905580Y-123744102D01*
X175862135Y-123769255D01*
X175815159Y-123793183D01*
X175765394Y-123813308D01*
X175704171Y-123830016D01*
X175622819Y-123843693D01*
X175512669Y-123854723D01*
X175365052Y-123863493D01*
X175171299Y-123870388D01*
X174922740Y-123875794D01*
X174610705Y-123880096D01*
X174226526Y-123883679D01*
X173761533Y-123886930D01*
X173207057Y-123890235D01*
X173132367Y-123890663D01*
X170602257Y-123905146D01*
X170381120Y-123679823D01*
X170256206Y-123562343D01*
X170151158Y-123480827D01*
X170094870Y-123454500D01*
X170072329Y-123436052D01*
X170056096Y-123373421D01*
X170045611Y-123255684D01*
X170040312Y-123071914D01*
X170039635Y-122811185D01*
X170043019Y-122462573D01*
X170043187Y-122449911D01*
X170056617Y-121445321D01*
X171847402Y-121420516D01*
X172338926Y-121412980D01*
X172739820Y-121405039D01*
X173058675Y-121396268D01*
X173304081Y-121386239D01*
X173484626Y-121374527D01*
X173608902Y-121360706D01*
X173685497Y-121344350D01*
X173720156Y-121327625D01*
X173756291Y-121281365D01*
X173780320Y-121202093D01*
X173794467Y-121072096D01*
X173800952Y-120873667D01*
X173802125Y-120674166D01*
X173802125Y-120088793D01*
X172871949Y-120072526D01*
X172505279Y-120064472D01*
X172218347Y-120050372D01*
X171991677Y-120023648D01*
X171805788Y-119977720D01*
X171641202Y-119906009D01*
X171478442Y-119801938D01*
X171298029Y-119658926D01*
X171080484Y-119470396D01*
X171075087Y-119465647D01*
X170801222Y-119206060D01*
X170579245Y-118948613D01*
X170404225Y-118679303D01*
X170271234Y-118384127D01*
X170175341Y-118049083D01*
X170111617Y-117660167D01*
X170075132Y-117203376D01*
X170060956Y-116664708D01*
X170060478Y-116583602D01*
X170057293Y-115765047D01*
X170219727Y-115765047D01*
X170243268Y-116720028D01*
X170266084Y-117246817D01*
X170308626Y-117688727D01*
X170374448Y-118058769D01*
X170467106Y-118369956D01*
X170590154Y-118635299D01*
X170747148Y-118867811D01*
X170867902Y-119006263D01*
X170983685Y-119124024D01*
X171090142Y-119216465D01*
X171201262Y-119287016D01*
X171331030Y-119339108D01*
X171493434Y-119376172D01*
X171702461Y-119401637D01*
X171972098Y-119418934D01*
X172316332Y-119431495D01*
X172636304Y-119439979D01*
X172968725Y-119448528D01*
X173266119Y-119456780D01*
X173514800Y-119464306D01*
X173701082Y-119470676D01*
X173811276Y-119475461D01*
X173835788Y-119477609D01*
X173896273Y-119536681D01*
X173939791Y-119596517D01*
X173969133Y-119673758D01*
X173987090Y-119785041D01*
X173996453Y-119947006D01*
X174000013Y-120176293D01*
X174000562Y-120459938D01*
X173997736Y-120740760D01*
X173989923Y-120991331D01*
X173978122Y-121192815D01*
X173963331Y-121326377D01*
X173952400Y-121368202D01*
X173877903Y-121442223D01*
X173750172Y-121517992D01*
X173703349Y-121538574D01*
X173634629Y-121561100D01*
X173545868Y-121579101D01*
X173426112Y-121593056D01*
X173264404Y-121603445D01*
X173049789Y-121610747D01*
X172771312Y-121615442D01*
X172418016Y-121618008D01*
X171978946Y-121618925D01*
X171866355Y-121618954D01*
X170230250Y-121618954D01*
X170230250Y-123259613D01*
X172673511Y-123245436D01*
X173228926Y-123242114D01*
X173693974Y-123238882D01*
X174077510Y-123235331D01*
X174388384Y-123231050D01*
X174635450Y-123225632D01*
X174827558Y-123218667D01*
X174973561Y-123209747D01*
X175082312Y-123198462D01*
X175162662Y-123184403D01*
X175223464Y-123167162D01*
X175273569Y-123146330D01*
X175318595Y-123123230D01*
X175597529Y-122919836D01*
X175840997Y-122631796D01*
X176042723Y-122269290D01*
X176196430Y-121842501D01*
X176253689Y-121606372D01*
X176292016Y-121344546D01*
X176317076Y-121013453D01*
X176328770Y-120642164D01*
X176326995Y-120259753D01*
X176311651Y-119895294D01*
X176282637Y-119577858D01*
X176261234Y-119436141D01*
X176164929Y-119032540D01*
X176033608Y-118672712D01*
X175874443Y-118369795D01*
X175694607Y-118136931D01*
X175501276Y-117987258D01*
X175459457Y-117967553D01*
X175381068Y-117944883D01*
X175260360Y-117927352D01*
X175086588Y-117914446D01*
X174849004Y-117905652D01*
X174536862Y-117900460D01*
X174139416Y-117898356D01*
X174005699Y-117898250D01*
X173586668Y-117897619D01*
X173256549Y-117894210D01*
X173005041Y-117885751D01*
X172821837Y-117869969D01*
X172696635Y-117844592D01*
X172619130Y-117807347D01*
X172579017Y-117755962D01*
X172565994Y-117688164D01*
X172569756Y-117601681D01*
X172571614Y-117581969D01*
X172586695Y-117426961D01*
X174459449Y-117413962D01*
X176332203Y-117400964D01*
X176332203Y-115765047D01*
X170219727Y-115765047D01*
X170057293Y-115765047D01*
X170056617Y-115591414D01*
X173281226Y-115583167D01*
X176505836Y-115574919D01*
X177028918Y-116163359D01*
X177028918Y-116163359D01*
G37*
X177028918Y-116163359D02*
X177015424Y-117092817D01*
X177001929Y-118022274D01*
X176440628Y-118047079D01*
X175879327Y-118071883D01*
X176199032Y-118426586D01*
X176358199Y-118617184D01*
X176505626Y-118818088D01*
X176616777Y-118995060D01*
X176643367Y-119046703D01*
X176786808Y-119433684D01*
X176891091Y-119886161D01*
X176956319Y-120383154D01*
X176982593Y-120903683D01*
X176970015Y-121426768D01*
X176918685Y-121931428D01*
X176828705Y-122396683D01*
X176700177Y-122801553D01*
X176624412Y-122969085D01*
X176491400Y-123176827D01*
X176307696Y-123395777D01*
X176102642Y-123595136D01*
X175905580Y-123744102D01*
X175862135Y-123769255D01*
X175815159Y-123793183D01*
X175765394Y-123813308D01*
X175704171Y-123830016D01*
X175622819Y-123843693D01*
X175512669Y-123854723D01*
X175365052Y-123863493D01*
X175171299Y-123870388D01*
X174922740Y-123875794D01*
X174610705Y-123880096D01*
X174226526Y-123883679D01*
X173761533Y-123886930D01*
X173207057Y-123890235D01*
X173132367Y-123890663D01*
X170602257Y-123905146D01*
X170381120Y-123679823D01*
X170256206Y-123562343D01*
X170151158Y-123480827D01*
X170094870Y-123454500D01*
X170072329Y-123436052D01*
X170056096Y-123373421D01*
X170045611Y-123255684D01*
X170040312Y-123071914D01*
X170039635Y-122811185D01*
X170043019Y-122462573D01*
X170043187Y-122449911D01*
X170056617Y-121445321D01*
X171847402Y-121420516D01*
X172338926Y-121412980D01*
X172739820Y-121405039D01*
X173058675Y-121396268D01*
X173304081Y-121386239D01*
X173484626Y-121374527D01*
X173608902Y-121360706D01*
X173685497Y-121344350D01*
X173720156Y-121327625D01*
X173756291Y-121281365D01*
X173780320Y-121202093D01*
X173794467Y-121072096D01*
X173800952Y-120873667D01*
X173802125Y-120674166D01*
X173802125Y-120088793D01*
X172871949Y-120072526D01*
X172505279Y-120064472D01*
X172218347Y-120050372D01*
X171991677Y-120023648D01*
X171805788Y-119977720D01*
X171641202Y-119906009D01*
X171478442Y-119801938D01*
X171298029Y-119658926D01*
X171080484Y-119470396D01*
X171075087Y-119465647D01*
X170801222Y-119206060D01*
X170579245Y-118948613D01*
X170404225Y-118679303D01*
X170271234Y-118384127D01*
X170175341Y-118049083D01*
X170111617Y-117660167D01*
X170075132Y-117203376D01*
X170060956Y-116664708D01*
X170060478Y-116583602D01*
X170057293Y-115765047D01*
X170219727Y-115765047D01*
X170243268Y-116720028D01*
X170266084Y-117246817D01*
X170308626Y-117688727D01*
X170374448Y-118058769D01*
X170467106Y-118369956D01*
X170590154Y-118635299D01*
X170747148Y-118867811D01*
X170867902Y-119006263D01*
X170983685Y-119124024D01*
X171090142Y-119216465D01*
X171201262Y-119287016D01*
X171331030Y-119339108D01*
X171493434Y-119376172D01*
X171702461Y-119401637D01*
X171972098Y-119418934D01*
X172316332Y-119431495D01*
X172636304Y-119439979D01*
X172968725Y-119448528D01*
X173266119Y-119456780D01*
X173514800Y-119464306D01*
X173701082Y-119470676D01*
X173811276Y-119475461D01*
X173835788Y-119477609D01*
X173896273Y-119536681D01*
X173939791Y-119596517D01*
X173969133Y-119673758D01*
X173987090Y-119785041D01*
X173996453Y-119947006D01*
X174000013Y-120176293D01*
X174000562Y-120459938D01*
X173997736Y-120740760D01*
X173989923Y-120991331D01*
X173978122Y-121192815D01*
X173963331Y-121326377D01*
X173952400Y-121368202D01*
X173877903Y-121442223D01*
X173750172Y-121517992D01*
X173703349Y-121538574D01*
X173634629Y-121561100D01*
X173545868Y-121579101D01*
X173426112Y-121593056D01*
X173264404Y-121603445D01*
X173049789Y-121610747D01*
X172771312Y-121615442D01*
X172418016Y-121618008D01*
X171978946Y-121618925D01*
X171866355Y-121618954D01*
X170230250Y-121618954D01*
X170230250Y-123259613D01*
X172673511Y-123245436D01*
X173228926Y-123242114D01*
X173693974Y-123238882D01*
X174077510Y-123235331D01*
X174388384Y-123231050D01*
X174635450Y-123225632D01*
X174827558Y-123218667D01*
X174973561Y-123209747D01*
X175082312Y-123198462D01*
X175162662Y-123184403D01*
X175223464Y-123167162D01*
X175273569Y-123146330D01*
X175318595Y-123123230D01*
X175597529Y-122919836D01*
X175840997Y-122631796D01*
X176042723Y-122269290D01*
X176196430Y-121842501D01*
X176253689Y-121606372D01*
X176292016Y-121344546D01*
X176317076Y-121013453D01*
X176328770Y-120642164D01*
X176326995Y-120259753D01*
X176311651Y-119895294D01*
X176282637Y-119577858D01*
X176261234Y-119436141D01*
X176164929Y-119032540D01*
X176033608Y-118672712D01*
X175874443Y-118369795D01*
X175694607Y-118136931D01*
X175501276Y-117987258D01*
X175459457Y-117967553D01*
X175381068Y-117944883D01*
X175260360Y-117927352D01*
X175086588Y-117914446D01*
X174849004Y-117905652D01*
X174536862Y-117900460D01*
X174139416Y-117898356D01*
X174005699Y-117898250D01*
X173586668Y-117897619D01*
X173256549Y-117894210D01*
X173005041Y-117885751D01*
X172821837Y-117869969D01*
X172696635Y-117844592D01*
X172619130Y-117807347D01*
X172579017Y-117755962D01*
X172565994Y-117688164D01*
X172569756Y-117601681D01*
X172571614Y-117581969D01*
X172586695Y-117426961D01*
X174459449Y-117413962D01*
X176332203Y-117400964D01*
X176332203Y-115765047D01*
X170219727Y-115765047D01*
X170057293Y-115765047D01*
X170056617Y-115591414D01*
X173281226Y-115583167D01*
X176505836Y-115574919D01*
X177028918Y-116163359D01*
G36*
X165296063Y-115577851D02*
X168200158Y-115591414D01*
X168572691Y-115988289D01*
X168832604Y-116290260D01*
X169023368Y-116577063D01*
X169163174Y-116880600D01*
X169260472Y-117194477D01*
X169309179Y-117411659D01*
X169330378Y-117603917D01*
X169321916Y-117797143D01*
X169281637Y-118017231D01*
X169207389Y-118290071D01*
X169155248Y-118459467D01*
X169076898Y-118715428D01*
X169028360Y-118896776D01*
X169006250Y-119022402D01*
X169007184Y-119111194D01*
X169026406Y-119178803D01*
X169070047Y-119282426D01*
X169140588Y-119449227D01*
X169226122Y-119651068D01*
X169271753Y-119758602D01*
X169461304Y-120205086D01*
X169475432Y-122053036D01*
X169489560Y-123900985D01*
X168185589Y-123899915D01*
X166881617Y-123898844D01*
X166621816Y-123648967D01*
X166362014Y-123399090D01*
X166348964Y-121703206D01*
X166335914Y-120007323D01*
X166103270Y-119957376D01*
X165885041Y-119877292D01*
X165718798Y-119761723D01*
X165566969Y-119616016D01*
X165566969Y-123900985D01*
X164239918Y-123899915D01*
X162912867Y-123898844D01*
X162391969Y-123397854D01*
X162391969Y-115765047D01*
X162590406Y-115765047D01*
X162590406Y-123256063D01*
X164872437Y-123256063D01*
X164872437Y-117302938D01*
X166261500Y-117302938D01*
X166261500Y-117898250D01*
X165517359Y-117898250D01*
X165517359Y-119276271D01*
X165700654Y-119310657D01*
X165895054Y-119366827D01*
X166100526Y-119457024D01*
X166283930Y-119563857D01*
X166412129Y-119669934D01*
X166431679Y-119694312D01*
X166452795Y-119735595D01*
X166469802Y-119799559D01*
X166483125Y-119896223D01*
X166493189Y-120035607D01*
X166500419Y-120227731D01*
X166505240Y-120482613D01*
X166508076Y-120810273D01*
X166509352Y-121220730D01*
X166509547Y-121530773D01*
X166509547Y-123256063D01*
X168844762Y-123256063D01*
X168830573Y-121482528D01*
X168816383Y-119708993D01*
X168626831Y-119262508D01*
X168538191Y-119053521D01*
X168458425Y-118865100D01*
X168399458Y-118725429D01*
X168381231Y-118682037D01*
X168359856Y-118605704D01*
X168361162Y-118512713D01*
X168388921Y-118381487D01*
X168446908Y-118190452D01*
X168489717Y-118061920D01*
X168564109Y-117821891D01*
X168626758Y-117582535D01*
X168668524Y-117380524D01*
X168678906Y-117302938D01*
X168677588Y-117071065D01*
X168640771Y-116807725D01*
X168575717Y-116535434D01*
X168489685Y-116276711D01*
X168389936Y-116054070D01*
X168283731Y-115890029D01*
X168199594Y-115816438D01*
X168124919Y-115803759D01*
X167952438Y-115792827D01*
X167683551Y-115783667D01*
X167319655Y-115776304D01*
X166862150Y-115770763D01*
X166312433Y-115767070D01*
X165671903Y-115765249D01*
X165346988Y-115765047D01*
X162590406Y-115765047D01*
X162391969Y-115765047D01*
X162391969Y-115564287D01*
X165296063Y-115577851D01*
X165296063Y-115577851D01*
G37*
X165296063Y-115577851D02*
X168200158Y-115591414D01*
X168572691Y-115988289D01*
X168832604Y-116290260D01*
X169023368Y-116577063D01*
X169163174Y-116880600D01*
X169260472Y-117194477D01*
X169309179Y-117411659D01*
X169330378Y-117603917D01*
X169321916Y-117797143D01*
X169281637Y-118017231D01*
X169207389Y-118290071D01*
X169155248Y-118459467D01*
X169076898Y-118715428D01*
X169028360Y-118896776D01*
X169006250Y-119022402D01*
X169007184Y-119111194D01*
X169026406Y-119178803D01*
X169070047Y-119282426D01*
X169140588Y-119449227D01*
X169226122Y-119651068D01*
X169271753Y-119758602D01*
X169461304Y-120205086D01*
X169475432Y-122053036D01*
X169489560Y-123900985D01*
X168185589Y-123899915D01*
X166881617Y-123898844D01*
X166621816Y-123648967D01*
X166362014Y-123399090D01*
X166348964Y-121703206D01*
X166335914Y-120007323D01*
X166103270Y-119957376D01*
X165885041Y-119877292D01*
X165718798Y-119761723D01*
X165566969Y-119616016D01*
X165566969Y-123900985D01*
X164239918Y-123899915D01*
X162912867Y-123898844D01*
X162391969Y-123397854D01*
X162391969Y-115765047D01*
X162590406Y-115765047D01*
X162590406Y-123256063D01*
X164872437Y-123256063D01*
X164872437Y-117302938D01*
X166261500Y-117302938D01*
X166261500Y-117898250D01*
X165517359Y-117898250D01*
X165517359Y-119276271D01*
X165700654Y-119310657D01*
X165895054Y-119366827D01*
X166100526Y-119457024D01*
X166283930Y-119563857D01*
X166412129Y-119669934D01*
X166431679Y-119694312D01*
X166452795Y-119735595D01*
X166469802Y-119799559D01*
X166483125Y-119896223D01*
X166493189Y-120035607D01*
X166500419Y-120227731D01*
X166505240Y-120482613D01*
X166508076Y-120810273D01*
X166509352Y-121220730D01*
X166509547Y-121530773D01*
X166509547Y-123256063D01*
X168844762Y-123256063D01*
X168830573Y-121482528D01*
X168816383Y-119708993D01*
X168626831Y-119262508D01*
X168538191Y-119053521D01*
X168458425Y-118865100D01*
X168399458Y-118725429D01*
X168381231Y-118682037D01*
X168359856Y-118605704D01*
X168361162Y-118512713D01*
X168388921Y-118381487D01*
X168446908Y-118190452D01*
X168489717Y-118061920D01*
X168564109Y-117821891D01*
X168626758Y-117582535D01*
X168668524Y-117380524D01*
X168678906Y-117302938D01*
X168677588Y-117071065D01*
X168640771Y-116807725D01*
X168575717Y-116535434D01*
X168489685Y-116276711D01*
X168389936Y-116054070D01*
X168283731Y-115890029D01*
X168199594Y-115816438D01*
X168124919Y-115803759D01*
X167952438Y-115792827D01*
X167683551Y-115783667D01*
X167319655Y-115776304D01*
X166862150Y-115770763D01*
X166312433Y-115767070D01*
X165671903Y-115765249D01*
X165346988Y-115765047D01*
X162590406Y-115765047D01*
X162391969Y-115765047D01*
X162391969Y-115564287D01*
X165296063Y-115577851D01*
G36*
X161572989Y-115851037D02*
X161842648Y-116137118D01*
X161844456Y-120019051D01*
X161846265Y-123900985D01*
X159237627Y-123900985D01*
X159018531Y-123677743D01*
X158894245Y-123560877D01*
X158789969Y-123480066D01*
X158735052Y-123454500D01*
X158723027Y-123438718D01*
X158712649Y-123387569D01*
X158703841Y-123295353D01*
X158696529Y-123156366D01*
X158690637Y-122964908D01*
X158686091Y-122715275D01*
X158682817Y-122401767D01*
X158680738Y-122018681D01*
X158679780Y-121560316D01*
X158679868Y-121020968D01*
X158680927Y-120394937D01*
X158682883Y-119676521D01*
X158683369Y-119522957D01*
X158695509Y-115765047D01*
X158869703Y-115765047D01*
X158869703Y-123256063D01*
X161201344Y-123256063D01*
X161201344Y-115765047D01*
X158869703Y-115765047D01*
X158695509Y-115765047D01*
X158696070Y-115591414D01*
X159999700Y-115578186D01*
X161303330Y-115564957D01*
X161572989Y-115851037D01*
X161572989Y-115851037D01*
G37*
X161572989Y-115851037D02*
X161842648Y-116137118D01*
X161844456Y-120019051D01*
X161846265Y-123900985D01*
X159237627Y-123900985D01*
X159018531Y-123677743D01*
X158894245Y-123560877D01*
X158789969Y-123480066D01*
X158735052Y-123454500D01*
X158723027Y-123438718D01*
X158712649Y-123387569D01*
X158703841Y-123295353D01*
X158696529Y-123156366D01*
X158690637Y-122964908D01*
X158686091Y-122715275D01*
X158682817Y-122401767D01*
X158680738Y-122018681D01*
X158679780Y-121560316D01*
X158679868Y-121020968D01*
X158680927Y-120394937D01*
X158682883Y-119676521D01*
X158683369Y-119522957D01*
X158695509Y-115765047D01*
X158869703Y-115765047D01*
X158869703Y-123256063D01*
X161201344Y-123256063D01*
X161201344Y-115765047D01*
X158869703Y-115765047D01*
X158695509Y-115765047D01*
X158696070Y-115591414D01*
X159999700Y-115578186D01*
X161303330Y-115564957D01*
X161572989Y-115851037D01*
G36*
X153083056Y-115567525D02*
X153407677Y-115570568D01*
X153651695Y-115576184D01*
X153824411Y-115584818D01*
X153935126Y-115596914D01*
X153993140Y-115612917D01*
X154007984Y-115630695D01*
X154041236Y-115696875D01*
X154127791Y-115805020D01*
X154231226Y-115913875D01*
X154454469Y-116132971D01*
X154454469Y-117699813D01*
X155000172Y-117699813D01*
X155000172Y-115566610D01*
X156339625Y-115566610D01*
X156754150Y-115567525D01*
X157078771Y-115570568D01*
X157322789Y-115576184D01*
X157495505Y-115584818D01*
X157606220Y-115596914D01*
X157664234Y-115612917D01*
X157679078Y-115630695D01*
X157712330Y-115696875D01*
X157798884Y-115805020D01*
X157902320Y-115913875D01*
X158125562Y-116132971D01*
X158125562Y-123900985D01*
X156823316Y-123899915D01*
X155521070Y-123898844D01*
X155000172Y-123397854D01*
X155000172Y-119932235D01*
X154890912Y-119932235D01*
X154789883Y-119898998D01*
X154664992Y-119815415D01*
X154618061Y-119773675D01*
X154454469Y-119615115D01*
X154454469Y-123900985D01*
X153152222Y-123899915D01*
X151849976Y-123898844D01*
X151329078Y-123397854D01*
X151329078Y-115765047D01*
X151477906Y-115765047D01*
X151477906Y-123256063D01*
X153809547Y-123256063D01*
X153809547Y-117902597D01*
X154454469Y-117902597D01*
X154454469Y-119275534D01*
X154667263Y-119329116D01*
X154903508Y-119433627D01*
X155071179Y-119608612D01*
X155150184Y-119787538D01*
X155162187Y-119878542D01*
X155173033Y-120056263D01*
X155182390Y-120308201D01*
X155189925Y-120621858D01*
X155195306Y-120984734D01*
X155198198Y-121384332D01*
X155198609Y-121606224D01*
X155198609Y-123256063D01*
X157480640Y-123256063D01*
X157480640Y-115765047D01*
X155200582Y-115765047D01*
X155187193Y-116819246D01*
X155173804Y-117873446D01*
X154814136Y-117888021D01*
X154454469Y-117902597D01*
X153809547Y-117902597D01*
X153809547Y-115765047D01*
X151477906Y-115765047D01*
X151329078Y-115765047D01*
X151329078Y-115566610D01*
X152668531Y-115566610D01*
X153083056Y-115567525D01*
X153083056Y-115567525D01*
G37*
X153083056Y-115567525D02*
X153407677Y-115570568D01*
X153651695Y-115576184D01*
X153824411Y-115584818D01*
X153935126Y-115596914D01*
X153993140Y-115612917D01*
X154007984Y-115630695D01*
X154041236Y-115696875D01*
X154127791Y-115805020D01*
X154231226Y-115913875D01*
X154454469Y-116132971D01*
X154454469Y-117699813D01*
X155000172Y-117699813D01*
X155000172Y-115566610D01*
X156339625Y-115566610D01*
X156754150Y-115567525D01*
X157078771Y-115570568D01*
X157322789Y-115576184D01*
X157495505Y-115584818D01*
X157606220Y-115596914D01*
X157664234Y-115612917D01*
X157679078Y-115630695D01*
X157712330Y-115696875D01*
X157798884Y-115805020D01*
X157902320Y-115913875D01*
X158125562Y-116132971D01*
X158125562Y-123900985D01*
X156823316Y-123899915D01*
X155521070Y-123898844D01*
X155000172Y-123397854D01*
X155000172Y-119932235D01*
X154890912Y-119932235D01*
X154789883Y-119898998D01*
X154664992Y-119815415D01*
X154618061Y-119773675D01*
X154454469Y-119615115D01*
X154454469Y-123900985D01*
X153152222Y-123899915D01*
X151849976Y-123898844D01*
X151329078Y-123397854D01*
X151329078Y-115765047D01*
X151477906Y-115765047D01*
X151477906Y-123256063D01*
X153809547Y-123256063D01*
X153809547Y-117902597D01*
X154454469Y-117902597D01*
X154454469Y-119275534D01*
X154667263Y-119329116D01*
X154903508Y-119433627D01*
X155071179Y-119608612D01*
X155150184Y-119787538D01*
X155162187Y-119878542D01*
X155173033Y-120056263D01*
X155182390Y-120308201D01*
X155189925Y-120621858D01*
X155195306Y-120984734D01*
X155198198Y-121384332D01*
X155198609Y-121606224D01*
X155198609Y-123256063D01*
X157480640Y-123256063D01*
X157480640Y-115765047D01*
X155200582Y-115765047D01*
X155187193Y-116819246D01*
X155173804Y-117873446D01*
X154814136Y-117888021D01*
X154454469Y-117902597D01*
X153809547Y-117902597D01*
X153809547Y-115765047D01*
X151477906Y-115765047D01*
X151329078Y-115765047D01*
X151329078Y-115566610D01*
X152668531Y-115566610D01*
X153083056Y-115567525D01*
G36*
X147191562Y-111598080D02*
X147920835Y-111598784D01*
X148561026Y-111600039D01*
X149117205Y-111601913D01*
X149594440Y-111604471D01*
X149997798Y-111607781D01*
X150332349Y-111611910D01*
X150603161Y-111616924D01*
X150815302Y-111622890D01*
X150973840Y-111629875D01*
X151083845Y-111637946D01*
X151150384Y-111647169D01*
X151178525Y-111657612D01*
X151180250Y-111661305D01*
X151213578Y-111722343D01*
X151302820Y-111832480D01*
X151431864Y-111972574D01*
X151502711Y-112044344D01*
X151825172Y-112363939D01*
X151825172Y-115219344D01*
X149047047Y-115219344D01*
X149047047Y-123900985D01*
X145149605Y-123900985D01*
X144853501Y-123598967D01*
X144703477Y-123453949D01*
X144566004Y-123335008D01*
X144465039Y-123262472D01*
X144445777Y-123252929D01*
X144334156Y-123208909D01*
X144334156Y-115219344D01*
X142322110Y-115219344D01*
X142002515Y-114896883D01*
X141854877Y-114754537D01*
X141728072Y-114644311D01*
X141641239Y-114582316D01*
X141619476Y-114574422D01*
X141600716Y-114554977D01*
X141585812Y-114490807D01*
X141574391Y-114373156D01*
X141569938Y-114276766D01*
X141802314Y-114276766D01*
X144631812Y-114276766D01*
X144631812Y-122958407D01*
X148104469Y-122958407D01*
X148104469Y-114276766D01*
X150882594Y-114276766D01*
X150882594Y-111845385D01*
X146355738Y-111858048D01*
X141828883Y-111870711D01*
X141815598Y-113073739D01*
X141802314Y-114276766D01*
X141569938Y-114276766D01*
X141566079Y-114193270D01*
X141560504Y-113942395D01*
X141557292Y-113611776D01*
X141556070Y-113192659D01*
X141556031Y-113086141D01*
X141556031Y-111597860D01*
X146368140Y-111597860D01*
X147191562Y-111598080D01*
X147191562Y-111598080D01*
G37*
X147191562Y-111598080D02*
X147920835Y-111598784D01*
X148561026Y-111600039D01*
X149117205Y-111601913D01*
X149594440Y-111604471D01*
X149997798Y-111607781D01*
X150332349Y-111611910D01*
X150603161Y-111616924D01*
X150815302Y-111622890D01*
X150973840Y-111629875D01*
X151083845Y-111637946D01*
X151150384Y-111647169D01*
X151178525Y-111657612D01*
X151180250Y-111661305D01*
X151213578Y-111722343D01*
X151302820Y-111832480D01*
X151431864Y-111972574D01*
X151502711Y-112044344D01*
X151825172Y-112363939D01*
X151825172Y-115219344D01*
X149047047Y-115219344D01*
X149047047Y-123900985D01*
X145149605Y-123900985D01*
X144853501Y-123598967D01*
X144703477Y-123453949D01*
X144566004Y-123335008D01*
X144465039Y-123262472D01*
X144445777Y-123252929D01*
X144334156Y-123208909D01*
X144334156Y-115219344D01*
X142322110Y-115219344D01*
X142002515Y-114896883D01*
X141854877Y-114754537D01*
X141728072Y-114644311D01*
X141641239Y-114582316D01*
X141619476Y-114574422D01*
X141600716Y-114554977D01*
X141585812Y-114490807D01*
X141574391Y-114373156D01*
X141569938Y-114276766D01*
X141802314Y-114276766D01*
X144631812Y-114276766D01*
X144631812Y-122958407D01*
X148104469Y-122958407D01*
X148104469Y-114276766D01*
X150882594Y-114276766D01*
X150882594Y-111845385D01*
X146355738Y-111858048D01*
X141828883Y-111870711D01*
X141815598Y-113073739D01*
X141802314Y-114276766D01*
X141569938Y-114276766D01*
X141566079Y-114193270D01*
X141560504Y-113942395D01*
X141557292Y-113611776D01*
X141556070Y-113192659D01*
X141556031Y-113086141D01*
X141556031Y-111597860D01*
X146368140Y-111597860D01*
X147191562Y-111598080D01*
G36*
X195021122Y-115576841D02*
X195580399Y-115580265D01*
X196049337Y-115583632D01*
X196436813Y-115587334D01*
X196751706Y-115591767D01*
X197002895Y-115597324D01*
X197199256Y-115604400D01*
X197349669Y-115613389D01*
X197463011Y-115624685D01*
X197548161Y-115638682D01*
X197613997Y-115655774D01*
X197669397Y-115676355D01*
X197713844Y-115696384D01*
X197896361Y-115796589D01*
X198083174Y-115920416D01*
X198135523Y-115960317D01*
X198317637Y-116121964D01*
X198526970Y-116332726D01*
X198746050Y-116572291D01*
X198957408Y-116820350D01*
X199143574Y-117056593D01*
X199287076Y-117260710D01*
X199354954Y-117377960D01*
X199502624Y-117677921D01*
X199474976Y-122387899D01*
X199326148Y-122685555D01*
X199183579Y-122915470D01*
X198986053Y-123160890D01*
X198758315Y-123396384D01*
X198525113Y-123596523D01*
X198311189Y-123735878D01*
X198297357Y-123742806D01*
X198040972Y-123838911D01*
X197704878Y-123919766D01*
X197307790Y-123982641D01*
X196868426Y-124024807D01*
X196405500Y-124043535D01*
X196231965Y-124043978D01*
X195951116Y-124039113D01*
X195685120Y-124029825D01*
X195459690Y-124017330D01*
X195300537Y-124002842D01*
X195271246Y-123998576D01*
X194953117Y-123931237D01*
X194667662Y-123836807D01*
X194392823Y-123704000D01*
X194106539Y-123521526D01*
X193786753Y-123278097D01*
X193660068Y-123174107D01*
X193324621Y-122881069D01*
X193063328Y-122620275D01*
X192862897Y-122377086D01*
X192710036Y-122136865D01*
X192697970Y-122114539D01*
X192579273Y-121891805D01*
X192565458Y-118727036D01*
X192552512Y-115761426D01*
X192749998Y-115761426D01*
X192763854Y-118826616D01*
X192766513Y-119463966D01*
X192768829Y-120010061D01*
X192771607Y-120472856D01*
X192775657Y-120860308D01*
X192781784Y-121180371D01*
X192790796Y-121441004D01*
X192803500Y-121650161D01*
X192820702Y-121815798D01*
X192843210Y-121945873D01*
X192871830Y-122048341D01*
X192907370Y-122131158D01*
X192950636Y-122202280D01*
X193002437Y-122269663D01*
X193063577Y-122341265D01*
X193128010Y-122416790D01*
X193484243Y-122767570D01*
X193904705Y-123045914D01*
X194380799Y-123246765D01*
X194671556Y-123324165D01*
X194966514Y-123368541D01*
X195331826Y-123394227D01*
X195740451Y-123401453D01*
X196165343Y-123390448D01*
X196579461Y-123361443D01*
X196955761Y-123314668D01*
X197018509Y-123304184D01*
X197312793Y-123246969D01*
X197535169Y-123188438D01*
X197712693Y-123120187D01*
X197855236Y-123044248D01*
X198162322Y-122812047D01*
X198443300Y-122508186D01*
X198673435Y-122160215D01*
X198707702Y-122094721D01*
X198854859Y-121801544D01*
X198854781Y-117228524D01*
X198713300Y-116930868D01*
X198489280Y-116564089D01*
X198191963Y-116235120D01*
X197846778Y-115971901D01*
X197832916Y-115963485D01*
X197544220Y-115789852D01*
X192749998Y-115761426D01*
X192552512Y-115761426D01*
X192551642Y-115562268D01*
X195021122Y-115576841D01*
X195021122Y-115576841D01*
G37*
X195021122Y-115576841D02*
X195580399Y-115580265D01*
X196049337Y-115583632D01*
X196436813Y-115587334D01*
X196751706Y-115591767D01*
X197002895Y-115597324D01*
X197199256Y-115604400D01*
X197349669Y-115613389D01*
X197463011Y-115624685D01*
X197548161Y-115638682D01*
X197613997Y-115655774D01*
X197669397Y-115676355D01*
X197713844Y-115696384D01*
X197896361Y-115796589D01*
X198083174Y-115920416D01*
X198135523Y-115960317D01*
X198317637Y-116121964D01*
X198526970Y-116332726D01*
X198746050Y-116572291D01*
X198957408Y-116820350D01*
X199143574Y-117056593D01*
X199287076Y-117260710D01*
X199354954Y-117377960D01*
X199502624Y-117677921D01*
X199474976Y-122387899D01*
X199326148Y-122685555D01*
X199183579Y-122915470D01*
X198986053Y-123160890D01*
X198758315Y-123396384D01*
X198525113Y-123596523D01*
X198311189Y-123735878D01*
X198297357Y-123742806D01*
X198040972Y-123838911D01*
X197704878Y-123919766D01*
X197307790Y-123982641D01*
X196868426Y-124024807D01*
X196405500Y-124043535D01*
X196231965Y-124043978D01*
X195951116Y-124039113D01*
X195685120Y-124029825D01*
X195459690Y-124017330D01*
X195300537Y-124002842D01*
X195271246Y-123998576D01*
X194953117Y-123931237D01*
X194667662Y-123836807D01*
X194392823Y-123704000D01*
X194106539Y-123521526D01*
X193786753Y-123278097D01*
X193660068Y-123174107D01*
X193324621Y-122881069D01*
X193063328Y-122620275D01*
X192862897Y-122377086D01*
X192710036Y-122136865D01*
X192697970Y-122114539D01*
X192579273Y-121891805D01*
X192565458Y-118727036D01*
X192552512Y-115761426D01*
X192749998Y-115761426D01*
X192763854Y-118826616D01*
X192766513Y-119463966D01*
X192768829Y-120010061D01*
X192771607Y-120472856D01*
X192775657Y-120860308D01*
X192781784Y-121180371D01*
X192790796Y-121441004D01*
X192803500Y-121650161D01*
X192820702Y-121815798D01*
X192843210Y-121945873D01*
X192871830Y-122048341D01*
X192907370Y-122131158D01*
X192950636Y-122202280D01*
X193002437Y-122269663D01*
X193063577Y-122341265D01*
X193128010Y-122416790D01*
X193484243Y-122767570D01*
X193904705Y-123045914D01*
X194380799Y-123246765D01*
X194671556Y-123324165D01*
X194966514Y-123368541D01*
X195331826Y-123394227D01*
X195740451Y-123401453D01*
X196165343Y-123390448D01*
X196579461Y-123361443D01*
X196955761Y-123314668D01*
X197018509Y-123304184D01*
X197312793Y-123246969D01*
X197535169Y-123188438D01*
X197712693Y-123120187D01*
X197855236Y-123044248D01*
X198162322Y-122812047D01*
X198443300Y-122508186D01*
X198673435Y-122160215D01*
X198707702Y-122094721D01*
X198854859Y-121801544D01*
X198854781Y-117228524D01*
X198713300Y-116930868D01*
X198489280Y-116564089D01*
X198191963Y-116235120D01*
X197846778Y-115971901D01*
X197832916Y-115963485D01*
X197544220Y-115789852D01*
X192749998Y-115761426D01*
X192552512Y-115761426D01*
X192551642Y-115562268D01*
X195021122Y-115576841D01*
D13*
X116104000Y-106442000D02*
X116104000Y-121682000D01*
X134134000Y-121682000D02*
X125144000Y-121672000D01*
X134134000Y-121682000D02*
X134134000Y-106442000D01*
X134134000Y-106442000D02*
X125134000Y-106442000D01*
X122804000Y-121672000D02*
X116104000Y-121682000D01*
X122814000Y-106442000D02*
X116104000Y-106442000D01*
X116104000Y-88732000D02*
X116104000Y-103972000D01*
X134134000Y-103972000D02*
X125144000Y-103962000D01*
X134134000Y-103972000D02*
X134134000Y-88732000D01*
X134134000Y-88732000D02*
X125134000Y-88732000D01*
X122804000Y-103962000D02*
X116104000Y-103972000D01*
X122814000Y-88732000D02*
X116104000Y-88732000D01*
X138274000Y-143372000D02*
X138274000Y-141872000D01*
X138274000Y-141872000D02*
X138004000Y-141872000D01*
X138004000Y-141872000D02*
X138004000Y-139042000D01*
X131374000Y-143372000D02*
X131374000Y-141872000D01*
X131374000Y-141872000D02*
X131644000Y-141872000D01*
X131644000Y-141872000D02*
X131644000Y-140772000D01*
X152549000Y-143447000D02*
X152549000Y-141947000D01*
X152549000Y-141947000D02*
X152279000Y-141947000D01*
X152279000Y-141947000D02*
X152279000Y-139117000D01*
X145649000Y-143447000D02*
X145649000Y-141947000D01*
X145649000Y-141947000D02*
X145919000Y-141947000D01*
X145919000Y-141947000D02*
X145919000Y-140847000D01*
X167049000Y-143447000D02*
X167049000Y-141947000D01*
X167049000Y-141947000D02*
X166779000Y-141947000D01*
X166779000Y-141947000D02*
X166779000Y-139117000D01*
X160149000Y-143447000D02*
X160149000Y-141947000D01*
X160149000Y-141947000D02*
X160419000Y-141947000D01*
X160419000Y-141947000D02*
X160419000Y-140847000D01*
X181274000Y-143472000D02*
X181274000Y-141972000D01*
X181274000Y-141972000D02*
X181004000Y-141972000D01*
X181004000Y-141972000D02*
X181004000Y-139142000D01*
X174374000Y-143472000D02*
X174374000Y-141972000D01*
X174374000Y-141972000D02*
X174644000Y-141972000D01*
X174644000Y-141972000D02*
X174644000Y-140872000D01*
X195499000Y-143447000D02*
X195499000Y-141947000D01*
X195499000Y-141947000D02*
X195229000Y-141947000D01*
X195229000Y-141947000D02*
X195229000Y-139117000D01*
X188599000Y-143447000D02*
X188599000Y-141947000D01*
X188599000Y-141947000D02*
X188869000Y-141947000D01*
X188869000Y-141947000D02*
X188869000Y-140847000D01*
X119704000Y-130842000D02*
X119704000Y-132042000D01*
X117944000Y-132042000D02*
X117944000Y-130842000D01*
X157174000Y-80572000D02*
X155974000Y-80572000D01*
X155974000Y-78812000D02*
X157174000Y-78812000D01*
X157174000Y-83572000D02*
X155974000Y-83572000D01*
X155974000Y-81812000D02*
X157174000Y-81812000D01*
X157174000Y-86322000D02*
X155974000Y-86322000D01*
X155974000Y-84562000D02*
X157174000Y-84562000D01*
X170294000Y-77422000D02*
X169024000Y-77422000D01*
X170294000Y-77422000D02*
X170294000Y-79962000D01*
X170094000Y-77622000D02*
X170094000Y-87642000D01*
X170094000Y-87642000D02*
X160054000Y-87642000D01*
X160054000Y-87642000D02*
X160054000Y-77622000D01*
X160054000Y-77622000D02*
X170094000Y-77622000D01*
X168249000Y-80602000D02*
X166979000Y-80602000D01*
X166979000Y-80602000D02*
X166979000Y-84662000D01*
X166979000Y-84662000D02*
X168249000Y-84662000D01*
X168249000Y-84662000D02*
X168249000Y-80602000D01*
X168249000Y-82632000D02*
X166979000Y-82632000D01*
X165709000Y-80602000D02*
X164439000Y-80602000D01*
X164439000Y-80602000D02*
X164439000Y-84662000D01*
X164439000Y-84662000D02*
X165709000Y-84662000D01*
X165709000Y-84662000D02*
X165709000Y-80602000D01*
X165709000Y-82632000D02*
X164439000Y-82632000D01*
X163169000Y-80602000D02*
X161899000Y-80602000D01*
X161899000Y-80602000D02*
X161899000Y-84662000D01*
X161899000Y-84662000D02*
X163169000Y-84662000D01*
X163169000Y-84662000D02*
X163169000Y-80602000D01*
X163169000Y-82632000D02*
X161899000Y-82632000D01*
X143154000Y-86272000D02*
X143154000Y-81072000D01*
X138014000Y-86272000D02*
X143154000Y-86272000D01*
X135414000Y-81072000D02*
X143154000Y-81072000D01*
X138014000Y-86272000D02*
X138014000Y-83672000D01*
X138014000Y-83672000D02*
X135414000Y-83672000D01*
X135414000Y-83672000D02*
X135414000Y-81072000D01*
X136744000Y-86272000D02*
X135414000Y-86272000D01*
X135414000Y-86272000D02*
X135414000Y-84942000D01*
X152904000Y-86272000D02*
X152904000Y-81072000D01*
X147764000Y-86272000D02*
X152904000Y-86272000D01*
X145164000Y-81072000D02*
X152904000Y-81072000D01*
X147764000Y-86272000D02*
X147764000Y-83672000D01*
X147764000Y-83672000D02*
X145164000Y-83672000D01*
X145164000Y-83672000D02*
X145164000Y-81072000D01*
X146494000Y-86272000D02*
X145164000Y-86272000D01*
X145164000Y-86272000D02*
X145164000Y-84942000D01*
X139494000Y-138022000D02*
X142154000Y-138022000D01*
X139494000Y-132882000D02*
X139494000Y-138022000D01*
X142154000Y-132882000D02*
X142154000Y-138022000D01*
X139494000Y-132882000D02*
X142154000Y-132882000D01*
X139494000Y-131612000D02*
X139494000Y-130282000D01*
X139494000Y-130282000D02*
X140824000Y-130282000D01*
X153744000Y-138062000D02*
X156404000Y-138062000D01*
X153744000Y-132922000D02*
X153744000Y-138062000D01*
X156404000Y-132922000D02*
X156404000Y-138062000D01*
X153744000Y-132922000D02*
X156404000Y-132922000D01*
X153744000Y-131652000D02*
X153744000Y-130322000D01*
X153744000Y-130322000D02*
X155074000Y-130322000D01*
X168744000Y-138062000D02*
X171404000Y-138062000D01*
X168744000Y-132922000D02*
X168744000Y-138062000D01*
X171404000Y-132922000D02*
X171404000Y-138062000D01*
X168744000Y-132922000D02*
X171404000Y-132922000D01*
X168744000Y-131652000D02*
X168744000Y-130322000D01*
X168744000Y-130322000D02*
X170074000Y-130322000D01*
X182994000Y-138062000D02*
X185654000Y-138062000D01*
X182994000Y-132922000D02*
X182994000Y-138062000D01*
X185654000Y-132922000D02*
X185654000Y-138062000D01*
X182994000Y-132922000D02*
X185654000Y-132922000D01*
X182994000Y-131652000D02*
X182994000Y-130322000D01*
X182994000Y-130322000D02*
X184324000Y-130322000D01*
X197244000Y-138022000D02*
X199904000Y-138022000D01*
X197244000Y-132882000D02*
X197244000Y-138022000D01*
X199904000Y-132882000D02*
X199904000Y-138022000D01*
X197244000Y-132882000D02*
X199904000Y-132882000D01*
X197244000Y-131612000D02*
X197244000Y-130282000D01*
X197244000Y-130282000D02*
X198574000Y-130282000D01*
X137204000Y-133342000D02*
X137204000Y-134542000D01*
X135444000Y-134542000D02*
X135444000Y-133342000D01*
X151954000Y-133342000D02*
X151954000Y-134542000D01*
X150194000Y-134542000D02*
X150194000Y-133342000D01*
X166704000Y-133342000D02*
X166704000Y-134542000D01*
X164944000Y-134542000D02*
X164944000Y-133342000D01*
X180704000Y-133342000D02*
X180704000Y-134542000D01*
X178944000Y-134542000D02*
X178944000Y-133342000D01*
X194704000Y-133442000D02*
X194704000Y-134642000D01*
X192944000Y-134642000D02*
X192944000Y-133442000D01*
X121171665Y-132770608D02*
G75*
G03X124404000Y-132927516I1672335J1078608D01*
G01*
X121171665Y-130613392D02*
G75*
G02X124404000Y-130456484I1672335J-1078608D01*
G01*
X121802870Y-132771837D02*
G75*
G03X123884961Y-132772000I1041130J1079837D01*
G01*
X121802870Y-130612163D02*
G75*
G02X123884961Y-130612000I1041130J-1079837D01*
G01*
X124404000Y-132928000D02*
X124404000Y-132772000D01*
X124404000Y-130612000D02*
X124404000Y-130456000D01*
X132724000Y-150342000D02*
X132724000Y-152042000D01*
X132724000Y-152042000D02*
X135874000Y-152042000D01*
X132724000Y-150342000D02*
X135874000Y-150342000D01*
X147224000Y-150342000D02*
X147224000Y-152042000D01*
X147224000Y-152042000D02*
X150374000Y-152042000D01*
X147224000Y-150342000D02*
X150374000Y-150342000D01*
X161674000Y-150342000D02*
X161674000Y-152042000D01*
X161674000Y-152042000D02*
X164824000Y-152042000D01*
X161674000Y-150342000D02*
X164824000Y-150342000D01*
X175724000Y-150342000D02*
X175724000Y-152042000D01*
X175724000Y-152042000D02*
X178874000Y-152042000D01*
X175724000Y-150342000D02*
X178874000Y-150342000D01*
X190174000Y-150342000D02*
X190174000Y-152042000D01*
X190174000Y-152042000D02*
X193324000Y-152042000D01*
X190174000Y-150342000D02*
X193324000Y-150342000D01*
D14*
X138978761Y-149739619D02*
X138883523Y-149692000D01*
X138788285Y-149596761D01*
X138645428Y-149453904D01*
X138550190Y-149406285D01*
X138454952Y-149406285D01*
X138502571Y-149644380D02*
X138407333Y-149596761D01*
X138312095Y-149501523D01*
X138264476Y-149311047D01*
X138264476Y-148977714D01*
X138312095Y-148787238D01*
X138407333Y-148692000D01*
X138502571Y-148644380D01*
X138693047Y-148644380D01*
X138788285Y-148692000D01*
X138883523Y-148787238D01*
X138931142Y-148977714D01*
X138931142Y-149311047D01*
X138883523Y-149501523D01*
X138788285Y-149596761D01*
X138693047Y-149644380D01*
X138502571Y-149644380D01*
X139312095Y-148739619D02*
X139359714Y-148692000D01*
X139454952Y-148644380D01*
X139693047Y-148644380D01*
X139788285Y-148692000D01*
X139835904Y-148739619D01*
X139883523Y-148834857D01*
X139883523Y-148930095D01*
X139835904Y-149072952D01*
X139264476Y-149644380D01*
X139883523Y-149644380D01*
X153228761Y-149739619D02*
X153133523Y-149692000D01*
X153038285Y-149596761D01*
X152895428Y-149453904D01*
X152800190Y-149406285D01*
X152704952Y-149406285D01*
X152752571Y-149644380D02*
X152657333Y-149596761D01*
X152562095Y-149501523D01*
X152514476Y-149311047D01*
X152514476Y-148977714D01*
X152562095Y-148787238D01*
X152657333Y-148692000D01*
X152752571Y-148644380D01*
X152943047Y-148644380D01*
X153038285Y-148692000D01*
X153133523Y-148787238D01*
X153181142Y-148977714D01*
X153181142Y-149311047D01*
X153133523Y-149501523D01*
X153038285Y-149596761D01*
X152943047Y-149644380D01*
X152752571Y-149644380D01*
X154038285Y-148977714D02*
X154038285Y-149644380D01*
X153800190Y-148596761D02*
X153562095Y-149311047D01*
X154181142Y-149311047D01*
X167728761Y-149739619D02*
X167633523Y-149692000D01*
X167538285Y-149596761D01*
X167395428Y-149453904D01*
X167300190Y-149406285D01*
X167204952Y-149406285D01*
X167252571Y-149644380D02*
X167157333Y-149596761D01*
X167062095Y-149501523D01*
X167014476Y-149311047D01*
X167014476Y-148977714D01*
X167062095Y-148787238D01*
X167157333Y-148692000D01*
X167252571Y-148644380D01*
X167443047Y-148644380D01*
X167538285Y-148692000D01*
X167633523Y-148787238D01*
X167681142Y-148977714D01*
X167681142Y-149311047D01*
X167633523Y-149501523D01*
X167538285Y-149596761D01*
X167443047Y-149644380D01*
X167252571Y-149644380D01*
X168538285Y-148644380D02*
X168347809Y-148644380D01*
X168252571Y-148692000D01*
X168204952Y-148739619D01*
X168109714Y-148882476D01*
X168062095Y-149072952D01*
X168062095Y-149453904D01*
X168109714Y-149549142D01*
X168157333Y-149596761D01*
X168252571Y-149644380D01*
X168443047Y-149644380D01*
X168538285Y-149596761D01*
X168585904Y-149549142D01*
X168633523Y-149453904D01*
X168633523Y-149215809D01*
X168585904Y-149120571D01*
X168538285Y-149072952D01*
X168443047Y-149025333D01*
X168252571Y-149025333D01*
X168157333Y-149072952D01*
X168109714Y-149120571D01*
X168062095Y-149215809D01*
X181978761Y-149739619D02*
X181883523Y-149692000D01*
X181788285Y-149596761D01*
X181645428Y-149453904D01*
X181550190Y-149406285D01*
X181454952Y-149406285D01*
X181502571Y-149644380D02*
X181407333Y-149596761D01*
X181312095Y-149501523D01*
X181264476Y-149311047D01*
X181264476Y-148977714D01*
X181312095Y-148787238D01*
X181407333Y-148692000D01*
X181502571Y-148644380D01*
X181693047Y-148644380D01*
X181788285Y-148692000D01*
X181883523Y-148787238D01*
X181931142Y-148977714D01*
X181931142Y-149311047D01*
X181883523Y-149501523D01*
X181788285Y-149596761D01*
X181693047Y-149644380D01*
X181502571Y-149644380D01*
X182502571Y-149072952D02*
X182407333Y-149025333D01*
X182359714Y-148977714D01*
X182312095Y-148882476D01*
X182312095Y-148834857D01*
X182359714Y-148739619D01*
X182407333Y-148692000D01*
X182502571Y-148644380D01*
X182693047Y-148644380D01*
X182788285Y-148692000D01*
X182835904Y-148739619D01*
X182883523Y-148834857D01*
X182883523Y-148882476D01*
X182835904Y-148977714D01*
X182788285Y-149025333D01*
X182693047Y-149072952D01*
X182502571Y-149072952D01*
X182407333Y-149120571D01*
X182359714Y-149168190D01*
X182312095Y-149263428D01*
X182312095Y-149453904D01*
X182359714Y-149549142D01*
X182407333Y-149596761D01*
X182502571Y-149644380D01*
X182693047Y-149644380D01*
X182788285Y-149596761D01*
X182835904Y-149549142D01*
X182883523Y-149453904D01*
X182883523Y-149263428D01*
X182835904Y-149168190D01*
X182788285Y-149120571D01*
X182693047Y-149072952D01*
X196252571Y-149739619D02*
X196157333Y-149692000D01*
X196062095Y-149596761D01*
X195919238Y-149453904D01*
X195824000Y-149406285D01*
X195728761Y-149406285D01*
X195776380Y-149644380D02*
X195681142Y-149596761D01*
X195585904Y-149501523D01*
X195538285Y-149311047D01*
X195538285Y-148977714D01*
X195585904Y-148787238D01*
X195681142Y-148692000D01*
X195776380Y-148644380D01*
X195966857Y-148644380D01*
X196062095Y-148692000D01*
X196157333Y-148787238D01*
X196204952Y-148977714D01*
X196204952Y-149311047D01*
X196157333Y-149501523D01*
X196062095Y-149596761D01*
X195966857Y-149644380D01*
X195776380Y-149644380D01*
X197157333Y-149644380D02*
X196585904Y-149644380D01*
X196871619Y-149644380D02*
X196871619Y-148644380D01*
X196776380Y-148787238D01*
X196681142Y-148882476D01*
X196585904Y-148930095D01*
X197776380Y-148644380D02*
X197871619Y-148644380D01*
X197966857Y-148692000D01*
X198014476Y-148739619D01*
X198062095Y-148834857D01*
X198109714Y-149025333D01*
X198109714Y-149263428D01*
X198062095Y-149453904D01*
X198014476Y-149549142D01*
X197966857Y-149596761D01*
X197871619Y-149644380D01*
X197776380Y-149644380D01*
X197681142Y-149596761D01*
X197633523Y-149549142D01*
X197585904Y-149453904D01*
X197538285Y-149263428D01*
X197538285Y-149025333D01*
X197585904Y-148834857D01*
X197633523Y-148739619D01*
X197681142Y-148692000D01*
X197776380Y-148644380D01*
X117576380Y-131608666D02*
X117100190Y-131942000D01*
X117576380Y-132180095D02*
X116576380Y-132180095D01*
X116576380Y-131799142D01*
X116624000Y-131703904D01*
X116671619Y-131656285D01*
X116766857Y-131608666D01*
X116909714Y-131608666D01*
X117004952Y-131656285D01*
X117052571Y-131703904D01*
X117100190Y-131799142D01*
X117100190Y-132180095D01*
X117576380Y-130656285D02*
X117576380Y-131227714D01*
X117576380Y-130942000D02*
X116576380Y-130942000D01*
X116719238Y-131037238D01*
X116814476Y-131132476D01*
X116862095Y-131227714D01*
X156407333Y-78144380D02*
X156074000Y-77668190D01*
X155835904Y-78144380D02*
X155835904Y-77144380D01*
X156216857Y-77144380D01*
X156312095Y-77192000D01*
X156359714Y-77239619D01*
X156407333Y-77334857D01*
X156407333Y-77477714D01*
X156359714Y-77572952D01*
X156312095Y-77620571D01*
X156216857Y-77668190D01*
X155835904Y-77668190D01*
X157264476Y-77144380D02*
X157074000Y-77144380D01*
X156978761Y-77192000D01*
X156931142Y-77239619D01*
X156835904Y-77382476D01*
X156788285Y-77572952D01*
X156788285Y-77953904D01*
X156835904Y-78049142D01*
X156883523Y-78096761D01*
X156978761Y-78144380D01*
X157169238Y-78144380D01*
X157264476Y-78096761D01*
X157312095Y-78049142D01*
X157359714Y-77953904D01*
X157359714Y-77715809D01*
X157312095Y-77620571D01*
X157264476Y-77572952D01*
X157169238Y-77525333D01*
X156978761Y-77525333D01*
X156883523Y-77572952D01*
X156835904Y-77620571D01*
X156788285Y-77715809D01*
X152657333Y-80644380D02*
X152324000Y-80168190D01*
X152085904Y-80644380D02*
X152085904Y-79644380D01*
X152466857Y-79644380D01*
X152562095Y-79692000D01*
X152609714Y-79739619D01*
X152657333Y-79834857D01*
X152657333Y-79977714D01*
X152609714Y-80072952D01*
X152562095Y-80120571D01*
X152466857Y-80168190D01*
X152085904Y-80168190D01*
X152990666Y-79644380D02*
X153657333Y-79644380D01*
X153228761Y-80644380D01*
X156407333Y-87894380D02*
X156074000Y-87418190D01*
X155835904Y-87894380D02*
X155835904Y-86894380D01*
X156216857Y-86894380D01*
X156312095Y-86942000D01*
X156359714Y-86989619D01*
X156407333Y-87084857D01*
X156407333Y-87227714D01*
X156359714Y-87322952D01*
X156312095Y-87370571D01*
X156216857Y-87418190D01*
X155835904Y-87418190D01*
X156978761Y-87322952D02*
X156883523Y-87275333D01*
X156835904Y-87227714D01*
X156788285Y-87132476D01*
X156788285Y-87084857D01*
X156835904Y-86989619D01*
X156883523Y-86942000D01*
X156978761Y-86894380D01*
X157169238Y-86894380D01*
X157264476Y-86942000D01*
X157312095Y-86989619D01*
X157359714Y-87084857D01*
X157359714Y-87132476D01*
X157312095Y-87227714D01*
X157264476Y-87275333D01*
X157169238Y-87322952D01*
X156978761Y-87322952D01*
X156883523Y-87370571D01*
X156835904Y-87418190D01*
X156788285Y-87513428D01*
X156788285Y-87703904D01*
X156835904Y-87799142D01*
X156883523Y-87846761D01*
X156978761Y-87894380D01*
X157169238Y-87894380D01*
X157264476Y-87846761D01*
X157312095Y-87799142D01*
X157359714Y-87703904D01*
X157359714Y-87513428D01*
X157312095Y-87418190D01*
X157264476Y-87370571D01*
X157169238Y-87322952D01*
X170689238Y-81298666D02*
X170641619Y-81441523D01*
X170641619Y-81679619D01*
X170689238Y-81774857D01*
X170736857Y-81822476D01*
X170832095Y-81870095D01*
X170927333Y-81870095D01*
X171022571Y-81822476D01*
X171070190Y-81774857D01*
X171117809Y-81679619D01*
X171165428Y-81489142D01*
X171213047Y-81393904D01*
X171260666Y-81346285D01*
X171355904Y-81298666D01*
X171451142Y-81298666D01*
X171546380Y-81346285D01*
X171594000Y-81393904D01*
X171641619Y-81489142D01*
X171641619Y-81727238D01*
X171594000Y-81870095D01*
X171641619Y-82203428D02*
X170641619Y-82441523D01*
X171355904Y-82632000D01*
X170641619Y-82822476D01*
X171641619Y-83060571D01*
X170641619Y-83965333D02*
X170641619Y-83393904D01*
X170641619Y-83679619D02*
X171641619Y-83679619D01*
X171498761Y-83584380D01*
X171403523Y-83489142D01*
X171355904Y-83393904D01*
X134466857Y-133489619D02*
X134800190Y-133965809D01*
X135038285Y-133489619D02*
X135038285Y-134489619D01*
X134657333Y-134489619D01*
X134562095Y-134442000D01*
X134514476Y-134394380D01*
X134466857Y-134299142D01*
X134466857Y-134156285D01*
X134514476Y-134061047D01*
X134562095Y-134013428D01*
X134657333Y-133965809D01*
X135038285Y-133965809D01*
X133514476Y-133489619D02*
X134085904Y-133489619D01*
X133800190Y-133489619D02*
X133800190Y-134489619D01*
X133895428Y-134346761D01*
X133990666Y-134251523D01*
X134085904Y-134203904D01*
X132943047Y-134061047D02*
X133038285Y-134108666D01*
X133085904Y-134156285D01*
X133133523Y-134251523D01*
X133133523Y-134299142D01*
X133085904Y-134394380D01*
X133038285Y-134442000D01*
X132943047Y-134489619D01*
X132752571Y-134489619D01*
X132657333Y-134442000D01*
X132609714Y-134394380D01*
X132562095Y-134299142D01*
X132562095Y-134251523D01*
X132609714Y-134156285D01*
X132657333Y-134108666D01*
X132752571Y-134061047D01*
X132943047Y-134061047D01*
X133038285Y-134013428D01*
X133085904Y-133965809D01*
X133133523Y-133870571D01*
X133133523Y-133680095D01*
X133085904Y-133584857D01*
X133038285Y-133537238D01*
X132943047Y-133489619D01*
X132752571Y-133489619D01*
X132657333Y-133537238D01*
X132609714Y-133584857D01*
X132562095Y-133680095D01*
X132562095Y-133870571D01*
X132609714Y-133965809D01*
X132657333Y-134013428D01*
X132752571Y-134061047D01*
X149216857Y-133489619D02*
X149550190Y-133965809D01*
X149788285Y-133489619D02*
X149788285Y-134489619D01*
X149407333Y-134489619D01*
X149312095Y-134442000D01*
X149264476Y-134394380D01*
X149216857Y-134299142D01*
X149216857Y-134156285D01*
X149264476Y-134061047D01*
X149312095Y-134013428D01*
X149407333Y-133965809D01*
X149788285Y-133965809D01*
X148264476Y-133489619D02*
X148835904Y-133489619D01*
X148550190Y-133489619D02*
X148550190Y-134489619D01*
X148645428Y-134346761D01*
X148740666Y-134251523D01*
X148835904Y-134203904D01*
X147788285Y-133489619D02*
X147597809Y-133489619D01*
X147502571Y-133537238D01*
X147454952Y-133584857D01*
X147359714Y-133727714D01*
X147312095Y-133918190D01*
X147312095Y-134299142D01*
X147359714Y-134394380D01*
X147407333Y-134442000D01*
X147502571Y-134489619D01*
X147693047Y-134489619D01*
X147788285Y-134442000D01*
X147835904Y-134394380D01*
X147883523Y-134299142D01*
X147883523Y-134061047D01*
X147835904Y-133965809D01*
X147788285Y-133918190D01*
X147693047Y-133870571D01*
X147502571Y-133870571D01*
X147407333Y-133918190D01*
X147359714Y-133965809D01*
X147312095Y-134061047D01*
X163966857Y-133489619D02*
X164300190Y-133965809D01*
X164538285Y-133489619D02*
X164538285Y-134489619D01*
X164157333Y-134489619D01*
X164062095Y-134442000D01*
X164014476Y-134394380D01*
X163966857Y-134299142D01*
X163966857Y-134156285D01*
X164014476Y-134061047D01*
X164062095Y-134013428D01*
X164157333Y-133965809D01*
X164538285Y-133965809D01*
X163585904Y-134394380D02*
X163538285Y-134442000D01*
X163443047Y-134489619D01*
X163204952Y-134489619D01*
X163109714Y-134442000D01*
X163062095Y-134394380D01*
X163014476Y-134299142D01*
X163014476Y-134203904D01*
X163062095Y-134061047D01*
X163633523Y-133489619D01*
X163014476Y-133489619D01*
X162395428Y-134489619D02*
X162300190Y-134489619D01*
X162204952Y-134442000D01*
X162157333Y-134394380D01*
X162109714Y-134299142D01*
X162062095Y-134108666D01*
X162062095Y-133870571D01*
X162109714Y-133680095D01*
X162157333Y-133584857D01*
X162204952Y-133537238D01*
X162300190Y-133489619D01*
X162395428Y-133489619D01*
X162490666Y-133537238D01*
X162538285Y-133584857D01*
X162585904Y-133680095D01*
X162633523Y-133870571D01*
X162633523Y-134108666D01*
X162585904Y-134299142D01*
X162538285Y-134394380D01*
X162490666Y-134442000D01*
X162395428Y-134489619D01*
X177966857Y-133489619D02*
X178300190Y-133965809D01*
X178538285Y-133489619D02*
X178538285Y-134489619D01*
X178157333Y-134489619D01*
X178062095Y-134442000D01*
X178014476Y-134394380D01*
X177966857Y-134299142D01*
X177966857Y-134156285D01*
X178014476Y-134061047D01*
X178062095Y-134013428D01*
X178157333Y-133965809D01*
X178538285Y-133965809D01*
X177585904Y-134394380D02*
X177538285Y-134442000D01*
X177443047Y-134489619D01*
X177204952Y-134489619D01*
X177109714Y-134442000D01*
X177062095Y-134394380D01*
X177014476Y-134299142D01*
X177014476Y-134203904D01*
X177062095Y-134061047D01*
X177633523Y-133489619D01*
X177014476Y-133489619D01*
X176062095Y-133489619D02*
X176633523Y-133489619D01*
X176347809Y-133489619D02*
X176347809Y-134489619D01*
X176443047Y-134346761D01*
X176538285Y-134251523D01*
X176633523Y-134203904D01*
X191966857Y-133589619D02*
X192300190Y-134065809D01*
X192538285Y-133589619D02*
X192538285Y-134589619D01*
X192157333Y-134589619D01*
X192062095Y-134542000D01*
X192014476Y-134494380D01*
X191966857Y-134399142D01*
X191966857Y-134256285D01*
X192014476Y-134161047D01*
X192062095Y-134113428D01*
X192157333Y-134065809D01*
X192538285Y-134065809D01*
X191585904Y-134494380D02*
X191538285Y-134542000D01*
X191443047Y-134589619D01*
X191204952Y-134589619D01*
X191109714Y-134542000D01*
X191062095Y-134494380D01*
X191014476Y-134399142D01*
X191014476Y-134303904D01*
X191062095Y-134161047D01*
X191633523Y-133589619D01*
X191014476Y-133589619D01*
X190633523Y-134494380D02*
X190585904Y-134542000D01*
X190490666Y-134589619D01*
X190252571Y-134589619D01*
X190157333Y-134542000D01*
X190109714Y-134494380D01*
X190062095Y-134399142D01*
X190062095Y-134303904D01*
X190109714Y-134161047D01*
X190681142Y-133589619D01*
X190062095Y-133589619D01*
X123562095Y-134489619D02*
X123562095Y-135489619D01*
X123324000Y-135489619D01*
X123181142Y-135442000D01*
X123085904Y-135346761D01*
X123038285Y-135251523D01*
X122990666Y-135061047D01*
X122990666Y-134918190D01*
X123038285Y-134727714D01*
X123085904Y-134632476D01*
X123181142Y-134537238D01*
X123324000Y-134489619D01*
X123562095Y-134489619D01*
X122038285Y-134489619D02*
X122609714Y-134489619D01*
X122324000Y-134489619D02*
X122324000Y-135489619D01*
X122419238Y-135346761D01*
X122514476Y-135251523D01*
X122609714Y-135203904D01*
X133885904Y-153394380D02*
X133885904Y-152394380D01*
X134124000Y-152394380D01*
X134266857Y-152442000D01*
X134362095Y-152537238D01*
X134409714Y-152632476D01*
X134457333Y-152822952D01*
X134457333Y-152965809D01*
X134409714Y-153156285D01*
X134362095Y-153251523D01*
X134266857Y-153346761D01*
X134124000Y-153394380D01*
X133885904Y-153394380D01*
X134790666Y-152394380D02*
X135409714Y-152394380D01*
X135076380Y-152775333D01*
X135219238Y-152775333D01*
X135314476Y-152822952D01*
X135362095Y-152870571D01*
X135409714Y-152965809D01*
X135409714Y-153203904D01*
X135362095Y-153299142D01*
X135314476Y-153346761D01*
X135219238Y-153394380D01*
X134933523Y-153394380D01*
X134838285Y-153346761D01*
X134790666Y-153299142D01*
X148385904Y-153394380D02*
X148385904Y-152394380D01*
X148624000Y-152394380D01*
X148766857Y-152442000D01*
X148862095Y-152537238D01*
X148909714Y-152632476D01*
X148957333Y-152822952D01*
X148957333Y-152965809D01*
X148909714Y-153156285D01*
X148862095Y-153251523D01*
X148766857Y-153346761D01*
X148624000Y-153394380D01*
X148385904Y-153394380D01*
X149862095Y-152394380D02*
X149385904Y-152394380D01*
X149338285Y-152870571D01*
X149385904Y-152822952D01*
X149481142Y-152775333D01*
X149719238Y-152775333D01*
X149814476Y-152822952D01*
X149862095Y-152870571D01*
X149909714Y-152965809D01*
X149909714Y-153203904D01*
X149862095Y-153299142D01*
X149814476Y-153346761D01*
X149719238Y-153394380D01*
X149481142Y-153394380D01*
X149385904Y-153346761D01*
X149338285Y-153299142D01*
X162835904Y-153394380D02*
X162835904Y-152394380D01*
X163074000Y-152394380D01*
X163216857Y-152442000D01*
X163312095Y-152537238D01*
X163359714Y-152632476D01*
X163407333Y-152822952D01*
X163407333Y-152965809D01*
X163359714Y-153156285D01*
X163312095Y-153251523D01*
X163216857Y-153346761D01*
X163074000Y-153394380D01*
X162835904Y-153394380D01*
X163740666Y-152394380D02*
X164407333Y-152394380D01*
X163978761Y-153394380D01*
X176885904Y-153394380D02*
X176885904Y-152394380D01*
X177124000Y-152394380D01*
X177266857Y-152442000D01*
X177362095Y-152537238D01*
X177409714Y-152632476D01*
X177457333Y-152822952D01*
X177457333Y-152965809D01*
X177409714Y-153156285D01*
X177362095Y-153251523D01*
X177266857Y-153346761D01*
X177124000Y-153394380D01*
X176885904Y-153394380D01*
X177933523Y-153394380D02*
X178124000Y-153394380D01*
X178219238Y-153346761D01*
X178266857Y-153299142D01*
X178362095Y-153156285D01*
X178409714Y-152965809D01*
X178409714Y-152584857D01*
X178362095Y-152489619D01*
X178314476Y-152442000D01*
X178219238Y-152394380D01*
X178028761Y-152394380D01*
X177933523Y-152442000D01*
X177885904Y-152489619D01*
X177838285Y-152584857D01*
X177838285Y-152822952D01*
X177885904Y-152918190D01*
X177933523Y-152965809D01*
X178028761Y-153013428D01*
X178219238Y-153013428D01*
X178314476Y-152965809D01*
X178362095Y-152918190D01*
X178409714Y-152822952D01*
X190859714Y-153394380D02*
X190859714Y-152394380D01*
X191097809Y-152394380D01*
X191240666Y-152442000D01*
X191335904Y-152537238D01*
X191383523Y-152632476D01*
X191431142Y-152822952D01*
X191431142Y-152965809D01*
X191383523Y-153156285D01*
X191335904Y-153251523D01*
X191240666Y-153346761D01*
X191097809Y-153394380D01*
X190859714Y-153394380D01*
X192383523Y-153394380D02*
X191812095Y-153394380D01*
X192097809Y-153394380D02*
X192097809Y-152394380D01*
X192002571Y-152537238D01*
X191907333Y-152632476D01*
X191812095Y-152680095D01*
X193335904Y-153394380D02*
X192764476Y-153394380D01*
X193050190Y-153394380D02*
X193050190Y-152394380D01*
X192954952Y-152537238D01*
X192859714Y-152632476D01*
X192764476Y-152680095D01*
M02*
