G04 #@! TF.GenerationSoftware,KiCad,Pcbnew,(2017-11-24 revision a01d81e)-master*
G04 #@! TF.CreationDate,2017-12-03T16:31:32+01:00*
G04 #@! TF.ProjectId,PWRCTRLBRD,5057524354524C4252442E6B69636164,rev?*
G04 #@! TF.SameCoordinates,Original*
G04 #@! TF.FileFunction,Soldermask,Bot*
G04 #@! TF.FilePolarity,Negative*
%FSLAX46Y46*%
G04 Gerber Fmt 4.6, Leading zero omitted, Abs format (unit mm)*
G04 Created by KiCad (PCBNEW (2017-11-24 revision a01d81e)-master) date Sunday '03en' 03. December 2017 'kl'. 16.31.32*
%MOMM*%
%LPD*%
G01*
G04 APERTURE LIST*
%ADD10C,1.300000*%
%ADD11C,11.000000*%
%ADD12C,4.050000*%
%ADD13R,1.900000X1.900000*%
%ADD14C,1.900000*%
%ADD15R,1.650000X1.900000*%
%ADD16R,1.900000X1.650000*%
%ADD17C,3.000000*%
%ADD18R,2.300000X1.200000*%
%ADD19R,1.700000X1.900000*%
%ADD20R,1.900000X1.700000*%
%ADD21R,2.000000X2.000000*%
%ADD22O,2.000000X2.000000*%
%ADD23R,2.400000X1.000000*%
%ADD24R,2.100000X2.100000*%
%ADD25O,2.100000X2.100000*%
%ADD26R,2.200000X2.200000*%
%ADD27C,2.200000*%
%ADD28R,1.400000X1.400000*%
G04 APERTURE END LIST*
D10*
X124834749Y-146881251D03*
X122024000Y-145717000D03*
X119213251Y-146881251D03*
X118049000Y-149692000D03*
X119213251Y-152502749D03*
X122024000Y-153667000D03*
X124834749Y-152502749D03*
X125999000Y-149692000D03*
D11*
X122024000Y-149692000D03*
X122024000Y-81692000D03*
D10*
X125999000Y-81692000D03*
X124834749Y-84502749D03*
X122024000Y-85667000D03*
X119213251Y-84502749D03*
X118049000Y-81692000D03*
X119213251Y-78881251D03*
X122024000Y-77717000D03*
X124834749Y-78881251D03*
X212434749Y-78881251D03*
X209624000Y-77717000D03*
X206813251Y-78881251D03*
X205649000Y-81692000D03*
X206813251Y-84502749D03*
X209624000Y-85667000D03*
X212434749Y-84502749D03*
X213599000Y-81692000D03*
D11*
X209624000Y-81692000D03*
D12*
X123974000Y-119992000D03*
X123974000Y-108122000D03*
D13*
X130324000Y-109612000D03*
D14*
X132864000Y-110882000D03*
X130324000Y-112152000D03*
X132864000Y-113422000D03*
X130324000Y-114692000D03*
X132864000Y-115962000D03*
X130324000Y-117232000D03*
X132864000Y-118502000D03*
D15*
X153074000Y-102442000D03*
X153074000Y-104942000D03*
D16*
X133324000Y-141942000D03*
X135824000Y-141942000D03*
X147824000Y-141942000D03*
X150324000Y-141942000D03*
X162324000Y-141942000D03*
X164824000Y-141942000D03*
X176574000Y-141942000D03*
X179074000Y-141942000D03*
X190824000Y-141942000D03*
X193324000Y-141942000D03*
D17*
X128324000Y-126442000D03*
X123244000Y-126442000D03*
X176824000Y-88272000D03*
X176824000Y-83192000D03*
X184324000Y-88272000D03*
X184324000Y-83192000D03*
X191824000Y-88272000D03*
X191824000Y-83192000D03*
X199324000Y-88272000D03*
X199324000Y-83192000D03*
X142074000Y-143442000D03*
X142074000Y-148522000D03*
D12*
X123974000Y-102282000D03*
X123974000Y-90412000D03*
D13*
X130324000Y-91902000D03*
D14*
X132864000Y-93172000D03*
X130324000Y-94442000D03*
X132864000Y-95712000D03*
X130324000Y-96982000D03*
X132864000Y-98252000D03*
X130324000Y-99522000D03*
X132864000Y-100792000D03*
D17*
X156824000Y-143362000D03*
X156824000Y-148442000D03*
X171324000Y-143362000D03*
X171324000Y-148442000D03*
X185574000Y-143362000D03*
X185574000Y-148442000D03*
X199824000Y-143362000D03*
X199824000Y-148442000D03*
D18*
X135824000Y-135492000D03*
X135824000Y-137392000D03*
X132824000Y-136442000D03*
X150324000Y-135492000D03*
X150324000Y-137392000D03*
X147324000Y-136442000D03*
X165074000Y-135492000D03*
X165074000Y-137392000D03*
X162074000Y-136442000D03*
X179074000Y-135492000D03*
X179074000Y-137392000D03*
X176074000Y-136442000D03*
X193074000Y-135492000D03*
X193074000Y-137392000D03*
X190074000Y-136442000D03*
D19*
X149574000Y-105042000D03*
X149574000Y-102342000D03*
D20*
X162724000Y-94192000D03*
X165424000Y-94192000D03*
D19*
X153074000Y-95242000D03*
X153074000Y-97942000D03*
D20*
X135924000Y-131192000D03*
X133224000Y-131192000D03*
X133224000Y-139942000D03*
X135924000Y-139942000D03*
X150174000Y-131442000D03*
X147474000Y-131442000D03*
X147724000Y-139942000D03*
X150424000Y-139942000D03*
X165074000Y-131442000D03*
X162374000Y-131442000D03*
X162224000Y-139942000D03*
X164924000Y-139942000D03*
X179074000Y-131442000D03*
X176374000Y-131442000D03*
X176624000Y-139942000D03*
X179324000Y-139942000D03*
X193024000Y-131442000D03*
X190324000Y-131442000D03*
X190624000Y-139942000D03*
X193324000Y-139942000D03*
D21*
X167614000Y-78822000D03*
D22*
X162534000Y-86442000D03*
X165074000Y-78822000D03*
X165074000Y-86442000D03*
X162534000Y-78822000D03*
X167614000Y-86442000D03*
D23*
X156874000Y-114947000D03*
X156874000Y-113677000D03*
X156874000Y-112407000D03*
X156874000Y-111137000D03*
X156874000Y-109867000D03*
X156874000Y-108597000D03*
X156874000Y-107327000D03*
X156874000Y-106057000D03*
X156874000Y-104787000D03*
X156874000Y-103517000D03*
X156874000Y-102247000D03*
X156874000Y-100977000D03*
X156874000Y-99707000D03*
X156874000Y-98437000D03*
X166274000Y-98437000D03*
X166274000Y-99707000D03*
X166274000Y-100977000D03*
X166274000Y-102247000D03*
X166274000Y-103517000D03*
X166274000Y-104787000D03*
X166274000Y-106057000D03*
X166274000Y-107327000D03*
X166274000Y-108597000D03*
X166274000Y-109867000D03*
X166274000Y-111137000D03*
X166274000Y-112407000D03*
X166274000Y-113677000D03*
X166274000Y-114947000D03*
D24*
X136744000Y-84942000D03*
D25*
X136744000Y-82402000D03*
X139284000Y-84942000D03*
X139284000Y-82402000D03*
X141824000Y-84942000D03*
X141824000Y-82402000D03*
D24*
X146494000Y-84942000D03*
D25*
X146494000Y-82402000D03*
X149034000Y-84942000D03*
X149034000Y-82402000D03*
X151574000Y-84942000D03*
X151574000Y-82402000D03*
D24*
X140824000Y-131612000D03*
D25*
X140824000Y-134152000D03*
X140824000Y-136692000D03*
D24*
X155074000Y-131652000D03*
D25*
X155074000Y-134192000D03*
X155074000Y-136732000D03*
D24*
X170074000Y-131652000D03*
D25*
X170074000Y-134192000D03*
X170074000Y-136732000D03*
D24*
X184324000Y-131652000D03*
D25*
X184324000Y-134192000D03*
X184324000Y-136732000D03*
D24*
X198574000Y-131612000D03*
D25*
X198574000Y-134152000D03*
X198574000Y-136692000D03*
D16*
X172074000Y-102942000D03*
X169574000Y-102942000D03*
D26*
X124114000Y-131692000D03*
D27*
X121574000Y-131692000D03*
D28*
X136074000Y-133442000D03*
X133574000Y-133442000D03*
X150374000Y-133442000D03*
X147874000Y-133442000D03*
X165324000Y-133442000D03*
X162824000Y-133442000D03*
X179324000Y-133442000D03*
X176824000Y-133442000D03*
X193324000Y-133442000D03*
X190824000Y-133442000D03*
D11*
X209624000Y-149692000D03*
D10*
X213599000Y-149692000D03*
X212434749Y-152502749D03*
X209624000Y-153667000D03*
X206813251Y-152502749D03*
X205649000Y-149692000D03*
X206813251Y-146881251D03*
X209624000Y-145717000D03*
X212434749Y-146881251D03*
M02*
