G04 #@! TF.GenerationSoftware,KiCad,Pcbnew,(2017-11-24 revision a01d81e)-master*
G04 #@! TF.CreationDate,2017-12-03T16:31:32+01:00*
G04 #@! TF.ProjectId,PWRCTRLBRD,5057524354524C4252442E6B69636164,rev?*
G04 #@! TF.SameCoordinates,Original*
G04 #@! TF.FileFunction,Legend,Bot*
G04 #@! TF.FilePolarity,Positive*
%FSLAX46Y46*%
G04 Gerber Fmt 4.6, Leading zero omitted, Abs format (unit mm)*
G04 Created by KiCad (PCBNEW (2017-11-24 revision a01d81e)-master) date Sunday '03en' 03. December 2017 'kl'. 16.31.32*
%MOMM*%
%LPD*%
G01*
G04 APERTURE LIST*
%ADD10C,0.300000*%
%ADD11C,0.120000*%
%ADD12C,0.150000*%
%ADD13C,0.010000*%
G04 APERTURE END LIST*
D10*
X212252571Y-95584857D02*
X213252571Y-95870571D01*
X212538285Y-96156285D01*
X213252571Y-96442000D01*
X212252571Y-96727714D01*
X212252571Y-97156285D02*
X213252571Y-97442000D01*
X212538285Y-97727714D01*
X213252571Y-98013428D01*
X212252571Y-98299142D01*
X212252571Y-98727714D02*
X213252571Y-99013428D01*
X212538285Y-99299142D01*
X213252571Y-99584857D01*
X212252571Y-99870571D01*
X213109714Y-100442000D02*
X213181142Y-100513428D01*
X213252571Y-100442000D01*
X213181142Y-100370571D01*
X213109714Y-100442000D01*
X213252571Y-100442000D01*
X212252571Y-100942000D02*
X212252571Y-101513428D01*
X211752571Y-101156285D02*
X213038285Y-101156285D01*
X213181142Y-101227714D01*
X213252571Y-101370571D01*
X213252571Y-101513428D01*
X213252571Y-102013428D02*
X211752571Y-102013428D01*
X213252571Y-102656285D02*
X212466857Y-102656285D01*
X212324000Y-102584857D01*
X212252571Y-102442000D01*
X212252571Y-102227714D01*
X212324000Y-102084857D01*
X212395428Y-102013428D01*
X213181142Y-103942000D02*
X213252571Y-103799142D01*
X213252571Y-103513428D01*
X213181142Y-103370571D01*
X213038285Y-103299142D01*
X212466857Y-103299142D01*
X212324000Y-103370571D01*
X212252571Y-103513428D01*
X212252571Y-103799142D01*
X212324000Y-103942000D01*
X212466857Y-104013428D01*
X212609714Y-104013428D01*
X212752571Y-103299142D01*
X213252571Y-104656285D02*
X212252571Y-104656285D01*
X212395428Y-104656285D02*
X212324000Y-104727714D01*
X212252571Y-104870571D01*
X212252571Y-105084857D01*
X212324000Y-105227714D01*
X212466857Y-105299142D01*
X213252571Y-105299142D01*
X212466857Y-105299142D02*
X212324000Y-105370571D01*
X212252571Y-105513428D01*
X212252571Y-105727714D01*
X212324000Y-105870571D01*
X212466857Y-105942000D01*
X213252571Y-105942000D01*
X213252571Y-106656285D02*
X212252571Y-106656285D01*
X211752571Y-106656285D02*
X211824000Y-106584857D01*
X211895428Y-106656285D01*
X211824000Y-106727714D01*
X211752571Y-106656285D01*
X211895428Y-106656285D01*
X213181142Y-107299142D02*
X213252571Y-107442000D01*
X213252571Y-107727714D01*
X213181142Y-107870571D01*
X213038285Y-107942000D01*
X212966857Y-107942000D01*
X212824000Y-107870571D01*
X212752571Y-107727714D01*
X212752571Y-107513428D01*
X212681142Y-107370571D01*
X212538285Y-107299142D01*
X212466857Y-107299142D01*
X212324000Y-107370571D01*
X212252571Y-107513428D01*
X212252571Y-107727714D01*
X212324000Y-107870571D01*
X213181142Y-108513428D02*
X213252571Y-108656285D01*
X213252571Y-108942000D01*
X213181142Y-109084857D01*
X213038285Y-109156285D01*
X212966857Y-109156285D01*
X212824000Y-109084857D01*
X212752571Y-108942000D01*
X212752571Y-108727714D01*
X212681142Y-108584857D01*
X212538285Y-108513428D01*
X212466857Y-108513428D01*
X212324000Y-108584857D01*
X212252571Y-108727714D01*
X212252571Y-108942000D01*
X212324000Y-109084857D01*
X213252571Y-109799142D02*
X212252571Y-109799142D01*
X211752571Y-109799142D02*
X211824000Y-109727714D01*
X211895428Y-109799142D01*
X211824000Y-109870571D01*
X211752571Y-109799142D01*
X211895428Y-109799142D01*
X212252571Y-110513428D02*
X213252571Y-110513428D01*
X212395428Y-110513428D02*
X212324000Y-110584857D01*
X212252571Y-110727714D01*
X212252571Y-110942000D01*
X212324000Y-111084857D01*
X212466857Y-111156285D01*
X213252571Y-111156285D01*
X212252571Y-112513428D02*
X213466857Y-112513428D01*
X213609714Y-112442000D01*
X213681142Y-112370571D01*
X213752571Y-112227714D01*
X213752571Y-112013428D01*
X213681142Y-111870571D01*
X213181142Y-112513428D02*
X213252571Y-112370571D01*
X213252571Y-112084857D01*
X213181142Y-111942000D01*
X213109714Y-111870571D01*
X212966857Y-111799142D01*
X212538285Y-111799142D01*
X212395428Y-111870571D01*
X212324000Y-111942000D01*
X212252571Y-112084857D01*
X212252571Y-112370571D01*
X212324000Y-112513428D01*
X213181142Y-113156285D02*
X213252571Y-113299142D01*
X213252571Y-113584857D01*
X213181142Y-113727714D01*
X213038285Y-113799142D01*
X212966857Y-113799142D01*
X212824000Y-113727714D01*
X212752571Y-113584857D01*
X212752571Y-113370571D01*
X212681142Y-113227714D01*
X212538285Y-113156285D01*
X212466857Y-113156285D01*
X212324000Y-113227714D01*
X212252571Y-113370571D01*
X212252571Y-113584857D01*
X212324000Y-113727714D01*
X213181142Y-115013428D02*
X213252571Y-114870571D01*
X213252571Y-114584857D01*
X213181142Y-114442000D01*
X213038285Y-114370571D01*
X212466857Y-114370571D01*
X212324000Y-114442000D01*
X212252571Y-114584857D01*
X212252571Y-114870571D01*
X212324000Y-115013428D01*
X212466857Y-115084857D01*
X212609714Y-115084857D01*
X212752571Y-114370571D01*
X213252571Y-115727714D02*
X212252571Y-115727714D01*
X212395428Y-115727714D02*
X212324000Y-115799142D01*
X212252571Y-115942000D01*
X212252571Y-116156285D01*
X212324000Y-116299142D01*
X212466857Y-116370571D01*
X213252571Y-116370571D01*
X212466857Y-116370571D02*
X212324000Y-116442000D01*
X212252571Y-116584857D01*
X212252571Y-116799142D01*
X212324000Y-116942000D01*
X212466857Y-117013428D01*
X213252571Y-117013428D01*
X213252571Y-117727714D02*
X212252571Y-117727714D01*
X211752571Y-117727714D02*
X211824000Y-117656285D01*
X211895428Y-117727714D01*
X211824000Y-117799142D01*
X211752571Y-117727714D01*
X211895428Y-117727714D01*
X213181142Y-119084857D02*
X213252571Y-118942000D01*
X213252571Y-118656285D01*
X213181142Y-118513428D01*
X213109714Y-118442000D01*
X212966857Y-118370571D01*
X212538285Y-118370571D01*
X212395428Y-118442000D01*
X212324000Y-118513428D01*
X212252571Y-118656285D01*
X212252571Y-118942000D01*
X212324000Y-119084857D01*
X213252571Y-119942000D02*
X213181142Y-119799142D01*
X213109714Y-119727714D01*
X212966857Y-119656285D01*
X212538285Y-119656285D01*
X212395428Y-119727714D01*
X212324000Y-119799142D01*
X212252571Y-119942000D01*
X212252571Y-120156285D01*
X212324000Y-120299142D01*
X212395428Y-120370571D01*
X212538285Y-120442000D01*
X212966857Y-120442000D01*
X213109714Y-120370571D01*
X213181142Y-120299142D01*
X213252571Y-120156285D01*
X213252571Y-119942000D01*
X213252571Y-121299142D02*
X213181142Y-121156285D01*
X213038285Y-121084857D01*
X211752571Y-121084857D01*
X213252571Y-122084857D02*
X213181142Y-121942000D01*
X213109714Y-121870571D01*
X212966857Y-121799142D01*
X212538285Y-121799142D01*
X212395428Y-121870571D01*
X212324000Y-121942000D01*
X212252571Y-122084857D01*
X212252571Y-122299142D01*
X212324000Y-122442000D01*
X212395428Y-122513428D01*
X212538285Y-122584857D01*
X212966857Y-122584857D01*
X213109714Y-122513428D01*
X213181142Y-122442000D01*
X213252571Y-122299142D01*
X213252571Y-122084857D01*
X212252571Y-123227714D02*
X213252571Y-123227714D01*
X212395428Y-123227714D02*
X212324000Y-123299142D01*
X212252571Y-123442000D01*
X212252571Y-123656285D01*
X212324000Y-123799142D01*
X212466857Y-123870571D01*
X213252571Y-123870571D01*
X213109714Y-124584857D02*
X213181142Y-124656285D01*
X213252571Y-124584857D01*
X213181142Y-124513428D01*
X213109714Y-124584857D01*
X213252571Y-124584857D01*
X213252571Y-125942000D02*
X211752571Y-125942000D01*
X213181142Y-125942000D02*
X213252571Y-125799142D01*
X213252571Y-125513428D01*
X213181142Y-125370571D01*
X213109714Y-125299142D01*
X212966857Y-125227714D01*
X212538285Y-125227714D01*
X212395428Y-125299142D01*
X212324000Y-125370571D01*
X212252571Y-125513428D01*
X212252571Y-125799142D01*
X212324000Y-125942000D01*
X213252571Y-126656285D02*
X211752571Y-126656285D01*
X212681142Y-126799142D02*
X213252571Y-127227714D01*
X212252571Y-127227714D02*
X212824000Y-126656285D01*
X171588285Y-122467000D02*
X171659714Y-122395571D01*
X171802571Y-122181285D01*
X171874000Y-122038428D01*
X171945428Y-121824142D01*
X172016857Y-121467000D01*
X172016857Y-121181285D01*
X171945428Y-120824142D01*
X171874000Y-120609857D01*
X171802571Y-120467000D01*
X171659714Y-120252714D01*
X171588285Y-120181285D01*
X170231142Y-121895571D02*
X171088285Y-121895571D01*
X170659714Y-121895571D02*
X170659714Y-120395571D01*
X170802571Y-120609857D01*
X170945428Y-120752714D01*
X171088285Y-120824142D01*
X169731142Y-120395571D02*
X168731142Y-120395571D01*
X169374000Y-121895571D01*
X167516857Y-120895571D02*
X167516857Y-121895571D01*
X167874000Y-120324142D02*
X168231142Y-121395571D01*
X167302571Y-121395571D01*
X166874000Y-120395571D02*
X165874000Y-120395571D01*
X166516857Y-121895571D01*
X165302571Y-121324142D02*
X164159714Y-121324142D01*
X163516857Y-121467000D02*
X162802571Y-121467000D01*
X163659714Y-121895571D02*
X163159714Y-120395571D01*
X162659714Y-121895571D01*
X162374000Y-120395571D02*
X161516857Y-120395571D01*
X161945428Y-121895571D02*
X161945428Y-120395571D01*
X161159714Y-122467000D02*
X161088285Y-122395571D01*
X160945428Y-122181285D01*
X160874000Y-122038428D01*
X160802571Y-121824142D01*
X160731142Y-121467000D01*
X160731142Y-121181285D01*
X160802571Y-120824142D01*
X160874000Y-120609857D01*
X160945428Y-120467000D01*
X161088285Y-120252714D01*
X161159714Y-120181285D01*
X169409714Y-124445571D02*
X169909714Y-123731285D01*
X170266857Y-124445571D02*
X170266857Y-122945571D01*
X169695428Y-122945571D01*
X169552571Y-123017000D01*
X169481142Y-123088428D01*
X169409714Y-123231285D01*
X169409714Y-123445571D01*
X169481142Y-123588428D01*
X169552571Y-123659857D01*
X169695428Y-123731285D01*
X170266857Y-123731285D01*
X168195428Y-124374142D02*
X168338285Y-124445571D01*
X168624000Y-124445571D01*
X168766857Y-124374142D01*
X168838285Y-124231285D01*
X168838285Y-123659857D01*
X168766857Y-123517000D01*
X168624000Y-123445571D01*
X168338285Y-123445571D01*
X168195428Y-123517000D01*
X168124000Y-123659857D01*
X168124000Y-123802714D01*
X168838285Y-123945571D01*
X167624000Y-123445571D02*
X167266857Y-124445571D01*
X166909714Y-123445571D01*
X166338285Y-124302714D02*
X166266857Y-124374142D01*
X166338285Y-124445571D01*
X166409714Y-124374142D01*
X166338285Y-124302714D01*
X166338285Y-124445571D01*
X163695428Y-124445571D02*
X164552571Y-124445571D01*
X164124000Y-124445571D02*
X164124000Y-122945571D01*
X164266857Y-123159857D01*
X164409714Y-123302714D01*
X164552571Y-123374142D01*
X163124000Y-124017000D02*
X162409714Y-124017000D01*
X163266857Y-124445571D02*
X162766857Y-122945571D01*
X162266857Y-124445571D01*
X182302571Y-119420571D02*
X182302571Y-117920571D01*
X181731142Y-117920571D01*
X181588285Y-117992000D01*
X181516857Y-118063428D01*
X181445428Y-118206285D01*
X181445428Y-118420571D01*
X181516857Y-118563428D01*
X181588285Y-118634857D01*
X181731142Y-118706285D01*
X182302571Y-118706285D01*
X180516857Y-117920571D02*
X180231142Y-117920571D01*
X180088285Y-117992000D01*
X179945428Y-118134857D01*
X179874000Y-118420571D01*
X179874000Y-118920571D01*
X179945428Y-119206285D01*
X180088285Y-119349142D01*
X180231142Y-119420571D01*
X180516857Y-119420571D01*
X180659714Y-119349142D01*
X180802571Y-119206285D01*
X180874000Y-118920571D01*
X180874000Y-118420571D01*
X180802571Y-118134857D01*
X180659714Y-117992000D01*
X180516857Y-117920571D01*
X179374000Y-117920571D02*
X179016857Y-119420571D01*
X178731142Y-118349142D01*
X178445428Y-119420571D01*
X178088285Y-117920571D01*
X177516857Y-118634857D02*
X177016857Y-118634857D01*
X176802571Y-119420571D02*
X177516857Y-119420571D01*
X177516857Y-117920571D01*
X176802571Y-117920571D01*
X175302571Y-119420571D02*
X175802571Y-118706285D01*
X176159714Y-119420571D02*
X176159714Y-117920571D01*
X175588285Y-117920571D01*
X175445428Y-117992000D01*
X175374000Y-118063428D01*
X175302571Y-118206285D01*
X175302571Y-118420571D01*
X175374000Y-118563428D01*
X175445428Y-118634857D01*
X175588285Y-118706285D01*
X176159714Y-118706285D01*
X173588285Y-119349142D02*
X173374000Y-119420571D01*
X173016857Y-119420571D01*
X172874000Y-119349142D01*
X172802571Y-119277714D01*
X172731142Y-119134857D01*
X172731142Y-118992000D01*
X172802571Y-118849142D01*
X172874000Y-118777714D01*
X173016857Y-118706285D01*
X173302571Y-118634857D01*
X173445428Y-118563428D01*
X173516857Y-118492000D01*
X173588285Y-118349142D01*
X173588285Y-118206285D01*
X173516857Y-118063428D01*
X173445428Y-117992000D01*
X173302571Y-117920571D01*
X172945428Y-117920571D01*
X172731142Y-117992000D01*
X172231142Y-117920571D02*
X171874000Y-119420571D01*
X171588285Y-118349142D01*
X171302571Y-119420571D01*
X170945428Y-117920571D01*
X170374000Y-119420571D02*
X170374000Y-117920571D01*
X169874000Y-117920571D02*
X169016857Y-117920571D01*
X169445428Y-119420571D02*
X169445428Y-117920571D01*
X167659714Y-119277714D02*
X167731142Y-119349142D01*
X167945428Y-119420571D01*
X168088285Y-119420571D01*
X168302571Y-119349142D01*
X168445428Y-119206285D01*
X168516857Y-119063428D01*
X168588285Y-118777714D01*
X168588285Y-118563428D01*
X168516857Y-118277714D01*
X168445428Y-118134857D01*
X168302571Y-117992000D01*
X168088285Y-117920571D01*
X167945428Y-117920571D01*
X167731142Y-117992000D01*
X167659714Y-118063428D01*
X167016857Y-119420571D02*
X167016857Y-117920571D01*
X167016857Y-118634857D02*
X166159714Y-118634857D01*
X166159714Y-119420571D02*
X166159714Y-117920571D01*
X163802571Y-118634857D02*
X163588285Y-118706285D01*
X163516857Y-118777714D01*
X163445428Y-118920571D01*
X163445428Y-119134857D01*
X163516857Y-119277714D01*
X163588285Y-119349142D01*
X163731142Y-119420571D01*
X164302571Y-119420571D01*
X164302571Y-117920571D01*
X163802571Y-117920571D01*
X163659714Y-117992000D01*
X163588285Y-118063428D01*
X163516857Y-118206285D01*
X163516857Y-118349142D01*
X163588285Y-118492000D01*
X163659714Y-118563428D01*
X163802571Y-118634857D01*
X164302571Y-118634857D01*
X162516857Y-117920571D02*
X162231142Y-117920571D01*
X162088285Y-117992000D01*
X161945428Y-118134857D01*
X161874000Y-118420571D01*
X161874000Y-118920571D01*
X161945428Y-119206285D01*
X162088285Y-119349142D01*
X162231142Y-119420571D01*
X162516857Y-119420571D01*
X162659714Y-119349142D01*
X162802571Y-119206285D01*
X162874000Y-118920571D01*
X162874000Y-118420571D01*
X162802571Y-118134857D01*
X162659714Y-117992000D01*
X162516857Y-117920571D01*
X161302571Y-118992000D02*
X160588285Y-118992000D01*
X161445428Y-119420571D02*
X160945428Y-117920571D01*
X160445428Y-119420571D01*
X159088285Y-119420571D02*
X159588285Y-118706285D01*
X159945428Y-119420571D02*
X159945428Y-117920571D01*
X159374000Y-117920571D01*
X159231142Y-117992000D01*
X159159714Y-118063428D01*
X159088285Y-118206285D01*
X159088285Y-118420571D01*
X159159714Y-118563428D01*
X159231142Y-118634857D01*
X159374000Y-118706285D01*
X159945428Y-118706285D01*
X158445428Y-119420571D02*
X158445428Y-117920571D01*
X158088285Y-117920571D01*
X157874000Y-117992000D01*
X157731142Y-118134857D01*
X157659714Y-118277714D01*
X157588285Y-118563428D01*
X157588285Y-118777714D01*
X157659714Y-119063428D01*
X157731142Y-119206285D01*
X157874000Y-119349142D01*
X158088285Y-119420571D01*
X158445428Y-119420571D01*
X155945428Y-118420571D02*
X155659714Y-119420571D01*
X155374000Y-118706285D01*
X155088285Y-119420571D01*
X154802571Y-118420571D01*
X154231142Y-119277714D02*
X154159714Y-119349142D01*
X154231142Y-119420571D01*
X154302571Y-119349142D01*
X154231142Y-119277714D01*
X154231142Y-119420571D01*
X152374000Y-119420571D02*
X152374000Y-117920571D01*
X151731142Y-118063428D02*
X151659714Y-117992000D01*
X151516857Y-117920571D01*
X151159714Y-117920571D01*
X151016857Y-117992000D01*
X150945428Y-118063428D01*
X150874000Y-118206285D01*
X150874000Y-118349142D01*
X150945428Y-118563428D01*
X151802571Y-119420571D01*
X150874000Y-119420571D01*
X149374000Y-119277714D02*
X149445428Y-119349142D01*
X149659714Y-119420571D01*
X149802571Y-119420571D01*
X150016857Y-119349142D01*
X150159714Y-119206285D01*
X150231142Y-119063428D01*
X150302571Y-118777714D01*
X150302571Y-118563428D01*
X150231142Y-118277714D01*
X150159714Y-118134857D01*
X150016857Y-117992000D01*
X149802571Y-117920571D01*
X149659714Y-117920571D01*
X149445428Y-117992000D01*
X149374000Y-118063428D01*
D11*
X152224000Y-104192000D02*
X152224000Y-103192000D01*
X153924000Y-103192000D02*
X153924000Y-104192000D01*
X135074000Y-142792000D02*
X134074000Y-142792000D01*
X134074000Y-141092000D02*
X135074000Y-141092000D01*
X149574000Y-142792000D02*
X148574000Y-142792000D01*
X148574000Y-141092000D02*
X149574000Y-141092000D01*
X164074000Y-142792000D02*
X163074000Y-142792000D01*
X163074000Y-141092000D02*
X164074000Y-141092000D01*
X178324000Y-142792000D02*
X177324000Y-142792000D01*
X177324000Y-141092000D02*
X178324000Y-141092000D01*
X192574000Y-142792000D02*
X191574000Y-142792000D01*
X191574000Y-141092000D02*
X192574000Y-141092000D01*
X133564000Y-138022000D02*
X133564000Y-137092000D01*
X133564000Y-134862000D02*
X133564000Y-135792000D01*
X133564000Y-134862000D02*
X136724000Y-134862000D01*
X133564000Y-138022000D02*
X135024000Y-138022000D01*
X148064000Y-138022000D02*
X148064000Y-137092000D01*
X148064000Y-134862000D02*
X148064000Y-135792000D01*
X148064000Y-134862000D02*
X151224000Y-134862000D01*
X148064000Y-138022000D02*
X149524000Y-138022000D01*
X162814000Y-138022000D02*
X162814000Y-137092000D01*
X162814000Y-134862000D02*
X162814000Y-135792000D01*
X162814000Y-134862000D02*
X165974000Y-134862000D01*
X162814000Y-138022000D02*
X164274000Y-138022000D01*
X176814000Y-138022000D02*
X176814000Y-137092000D01*
X176814000Y-134862000D02*
X176814000Y-135792000D01*
X176814000Y-134862000D02*
X179974000Y-134862000D01*
X176814000Y-138022000D02*
X178274000Y-138022000D01*
X190814000Y-138022000D02*
X190814000Y-137092000D01*
X190814000Y-134862000D02*
X190814000Y-135792000D01*
X190814000Y-134862000D02*
X193974000Y-134862000D01*
X190814000Y-138022000D02*
X192274000Y-138022000D01*
X148694000Y-103092000D02*
X148694000Y-104292000D01*
X150454000Y-104292000D02*
X150454000Y-103092000D01*
X164674000Y-93312000D02*
X163474000Y-93312000D01*
X163474000Y-95072000D02*
X164674000Y-95072000D01*
X153954000Y-97192000D02*
X153954000Y-95992000D01*
X152194000Y-95992000D02*
X152194000Y-97192000D01*
X133974000Y-132072000D02*
X135174000Y-132072000D01*
X135174000Y-130312000D02*
X133974000Y-130312000D01*
X135174000Y-139062000D02*
X133974000Y-139062000D01*
X133974000Y-140822000D02*
X135174000Y-140822000D01*
X148224000Y-132322000D02*
X149424000Y-132322000D01*
X149424000Y-130562000D02*
X148224000Y-130562000D01*
X149674000Y-139062000D02*
X148474000Y-139062000D01*
X148474000Y-140822000D02*
X149674000Y-140822000D01*
X163124000Y-132322000D02*
X164324000Y-132322000D01*
X164324000Y-130562000D02*
X163124000Y-130562000D01*
X164174000Y-139062000D02*
X162974000Y-139062000D01*
X162974000Y-140822000D02*
X164174000Y-140822000D01*
X177124000Y-132322000D02*
X178324000Y-132322000D01*
X178324000Y-130562000D02*
X177124000Y-130562000D01*
X178574000Y-139062000D02*
X177374000Y-139062000D01*
X177374000Y-140822000D02*
X178574000Y-140822000D01*
X191074000Y-132322000D02*
X192274000Y-132322000D01*
X192274000Y-130562000D02*
X191074000Y-130562000D01*
X192574000Y-139062000D02*
X191374000Y-139062000D01*
X191374000Y-140822000D02*
X192574000Y-140822000D01*
D12*
X157699000Y-115817000D02*
X157699000Y-115567000D01*
X165449000Y-115817000D02*
X165449000Y-115472000D01*
X165449000Y-97567000D02*
X165449000Y-97912000D01*
X157699000Y-97567000D02*
X157699000Y-97912000D01*
X157699000Y-115817000D02*
X165449000Y-115817000D01*
X157699000Y-97567000D02*
X165449000Y-97567000D01*
X157699000Y-115567000D02*
X155874000Y-115567000D01*
D11*
X170324000Y-102092000D02*
X171324000Y-102092000D01*
X171324000Y-103792000D02*
X170324000Y-103792000D01*
D13*
G36*
X208632391Y-99644603D02*
X208633197Y-99723920D01*
X208638805Y-99956331D01*
X208655462Y-100150974D01*
X208684957Y-100314484D01*
X208729074Y-100453494D01*
X208789602Y-100574639D01*
X208868327Y-100684551D01*
X208902525Y-100723809D01*
X208982542Y-100788931D01*
X209091123Y-100847652D01*
X209211480Y-100892911D01*
X209326824Y-100917645D01*
X209369446Y-100920215D01*
X209487599Y-100904110D01*
X209616659Y-100860953D01*
X209738819Y-100798476D01*
X209836269Y-100724413D01*
X209848027Y-100712383D01*
X209930671Y-100610481D01*
X209995186Y-100498892D01*
X210043260Y-100371182D01*
X210076584Y-100220918D01*
X210096849Y-100041666D01*
X210105746Y-99826993D01*
X210106500Y-99728663D01*
X210105898Y-99603640D01*
X210103381Y-99515718D01*
X210097881Y-99456647D01*
X210088332Y-99418180D01*
X210073666Y-99392068D01*
X210061143Y-99378072D01*
X210045929Y-99364851D01*
X210026302Y-99354480D01*
X209997005Y-99346615D01*
X209952780Y-99340909D01*
X209888369Y-99337019D01*
X209798514Y-99334600D01*
X209677959Y-99333306D01*
X209521444Y-99332794D01*
X209369446Y-99332715D01*
X209166717Y-99332215D01*
X209004768Y-99332323D01*
X208927214Y-99334252D01*
X208927214Y-99627536D01*
X209811679Y-99627536D01*
X209811507Y-99814634D01*
X209808278Y-99927216D01*
X209799960Y-100045128D01*
X209788325Y-100143507D01*
X209787846Y-100146500D01*
X209749404Y-100305500D01*
X209689533Y-100428826D01*
X209604335Y-100522637D01*
X209512091Y-100582243D01*
X209409766Y-100618970D01*
X209313686Y-100616122D01*
X209210696Y-100573498D01*
X209104153Y-100490126D01*
X209025204Y-100374594D01*
X208972433Y-100224423D01*
X208953758Y-100124061D01*
X208940643Y-100010137D01*
X208931150Y-99889395D01*
X208927204Y-99786699D01*
X208927185Y-99780616D01*
X208927214Y-99627536D01*
X208927214Y-99334252D01*
X208879059Y-99335451D01*
X208785048Y-99344014D01*
X208718197Y-99360422D01*
X208673963Y-99387090D01*
X208647806Y-99426429D01*
X208635186Y-99480852D01*
X208631561Y-99552773D01*
X208632391Y-99644603D01*
X208632391Y-99644603D01*
G37*
X208632391Y-99644603D02*
X208633197Y-99723920D01*
X208638805Y-99956331D01*
X208655462Y-100150974D01*
X208684957Y-100314484D01*
X208729074Y-100453494D01*
X208789602Y-100574639D01*
X208868327Y-100684551D01*
X208902525Y-100723809D01*
X208982542Y-100788931D01*
X209091123Y-100847652D01*
X209211480Y-100892911D01*
X209326824Y-100917645D01*
X209369446Y-100920215D01*
X209487599Y-100904110D01*
X209616659Y-100860953D01*
X209738819Y-100798476D01*
X209836269Y-100724413D01*
X209848027Y-100712383D01*
X209930671Y-100610481D01*
X209995186Y-100498892D01*
X210043260Y-100371182D01*
X210076584Y-100220918D01*
X210096849Y-100041666D01*
X210105746Y-99826993D01*
X210106500Y-99728663D01*
X210105898Y-99603640D01*
X210103381Y-99515718D01*
X210097881Y-99456647D01*
X210088332Y-99418180D01*
X210073666Y-99392068D01*
X210061143Y-99378072D01*
X210045929Y-99364851D01*
X210026302Y-99354480D01*
X209997005Y-99346615D01*
X209952780Y-99340909D01*
X209888369Y-99337019D01*
X209798514Y-99334600D01*
X209677959Y-99333306D01*
X209521444Y-99332794D01*
X209369446Y-99332715D01*
X209166717Y-99332215D01*
X209004768Y-99332323D01*
X208927214Y-99334252D01*
X208927214Y-99627536D01*
X209811679Y-99627536D01*
X209811507Y-99814634D01*
X209808278Y-99927216D01*
X209799960Y-100045128D01*
X209788325Y-100143507D01*
X209787846Y-100146500D01*
X209749404Y-100305500D01*
X209689533Y-100428826D01*
X209604335Y-100522637D01*
X209512091Y-100582243D01*
X209409766Y-100618970D01*
X209313686Y-100616122D01*
X209210696Y-100573498D01*
X209104153Y-100490126D01*
X209025204Y-100374594D01*
X208972433Y-100224423D01*
X208953758Y-100124061D01*
X208940643Y-100010137D01*
X208931150Y-99889395D01*
X208927204Y-99786699D01*
X208927185Y-99780616D01*
X208927214Y-99627536D01*
X208927214Y-99334252D01*
X208879059Y-99335451D01*
X208785048Y-99344014D01*
X208718197Y-99360422D01*
X208673963Y-99387090D01*
X208647806Y-99426429D01*
X208635186Y-99480852D01*
X208631561Y-99552773D01*
X208632391Y-99644603D01*
G36*
X208632552Y-102474334D02*
X208633300Y-102613770D01*
X208635040Y-102719017D01*
X208638177Y-102795656D01*
X208643113Y-102849270D01*
X208650253Y-102885443D01*
X208660001Y-102909759D01*
X208672761Y-102927799D01*
X208678633Y-102934331D01*
X208741027Y-102974058D01*
X208812718Y-102981211D01*
X208876364Y-102955077D01*
X208889227Y-102942993D01*
X208901698Y-102923448D01*
X208911320Y-102891977D01*
X208918559Y-102842744D01*
X208923883Y-102769914D01*
X208927762Y-102667651D01*
X208930664Y-102530118D01*
X208932429Y-102404377D01*
X208938554Y-101906732D01*
X209068955Y-101899931D01*
X209199357Y-101893130D01*
X209199357Y-102230925D01*
X209200622Y-102377574D01*
X209205914Y-102484936D01*
X209217478Y-102559043D01*
X209237558Y-102605931D01*
X209268398Y-102631633D01*
X209312244Y-102642184D01*
X209352937Y-102643786D01*
X209402868Y-102638807D01*
X209439660Y-102620016D01*
X209465235Y-102581633D01*
X209481516Y-102517880D01*
X209490426Y-102422976D01*
X209493887Y-102291142D01*
X209494179Y-102219186D01*
X209494179Y-101895393D01*
X209811679Y-101895393D01*
X209811679Y-102394322D01*
X209811906Y-102557867D01*
X209812929Y-102682163D01*
X209815256Y-102773314D01*
X209819395Y-102837428D01*
X209825857Y-102880610D01*
X209835148Y-102908967D01*
X209847779Y-102928605D01*
X209857036Y-102938607D01*
X209911063Y-102972918D01*
X209959089Y-102983965D01*
X210017751Y-102968191D01*
X210061143Y-102938607D01*
X210074803Y-102922824D01*
X210085410Y-102902449D01*
X210093348Y-102872002D01*
X210099003Y-102826003D01*
X210102759Y-102758970D01*
X210105000Y-102665422D01*
X210106111Y-102539880D01*
X210106476Y-102376862D01*
X210106500Y-102292268D01*
X210106340Y-102111112D01*
X210105602Y-101969832D01*
X210103904Y-101862948D01*
X210100859Y-101784978D01*
X210096083Y-101730441D01*
X210089192Y-101693858D01*
X210079801Y-101669747D01*
X210067525Y-101652627D01*
X210061143Y-101645929D01*
X210045882Y-101632672D01*
X210026193Y-101622281D01*
X209996801Y-101614409D01*
X209952430Y-101608707D01*
X209887803Y-101604828D01*
X209797644Y-101602423D01*
X209676678Y-101601144D01*
X209519628Y-101600645D01*
X209373400Y-101600572D01*
X209186134Y-101600639D01*
X209038928Y-101601110D01*
X208926482Y-101602387D01*
X208843499Y-101604871D01*
X208784680Y-101608964D01*
X208744727Y-101615069D01*
X208718341Y-101623588D01*
X208700225Y-101634922D01*
X208685080Y-101649475D01*
X208681703Y-101653060D01*
X208666755Y-101670459D01*
X208655180Y-101690675D01*
X208646545Y-101719316D01*
X208640422Y-101761991D01*
X208636379Y-101824305D01*
X208633986Y-101911868D01*
X208632811Y-102030287D01*
X208632425Y-102185169D01*
X208632393Y-102295123D01*
X208632552Y-102474334D01*
X208632552Y-102474334D01*
G37*
X208632552Y-102474334D02*
X208633300Y-102613770D01*
X208635040Y-102719017D01*
X208638177Y-102795656D01*
X208643113Y-102849270D01*
X208650253Y-102885443D01*
X208660001Y-102909759D01*
X208672761Y-102927799D01*
X208678633Y-102934331D01*
X208741027Y-102974058D01*
X208812718Y-102981211D01*
X208876364Y-102955077D01*
X208889227Y-102942993D01*
X208901698Y-102923448D01*
X208911320Y-102891977D01*
X208918559Y-102842744D01*
X208923883Y-102769914D01*
X208927762Y-102667651D01*
X208930664Y-102530118D01*
X208932429Y-102404377D01*
X208938554Y-101906732D01*
X209068955Y-101899931D01*
X209199357Y-101893130D01*
X209199357Y-102230925D01*
X209200622Y-102377574D01*
X209205914Y-102484936D01*
X209217478Y-102559043D01*
X209237558Y-102605931D01*
X209268398Y-102631633D01*
X209312244Y-102642184D01*
X209352937Y-102643786D01*
X209402868Y-102638807D01*
X209439660Y-102620016D01*
X209465235Y-102581633D01*
X209481516Y-102517880D01*
X209490426Y-102422976D01*
X209493887Y-102291142D01*
X209494179Y-102219186D01*
X209494179Y-101895393D01*
X209811679Y-101895393D01*
X209811679Y-102394322D01*
X209811906Y-102557867D01*
X209812929Y-102682163D01*
X209815256Y-102773314D01*
X209819395Y-102837428D01*
X209825857Y-102880610D01*
X209835148Y-102908967D01*
X209847779Y-102928605D01*
X209857036Y-102938607D01*
X209911063Y-102972918D01*
X209959089Y-102983965D01*
X210017751Y-102968191D01*
X210061143Y-102938607D01*
X210074803Y-102922824D01*
X210085410Y-102902449D01*
X210093348Y-102872002D01*
X210099003Y-102826003D01*
X210102759Y-102758970D01*
X210105000Y-102665422D01*
X210106111Y-102539880D01*
X210106476Y-102376862D01*
X210106500Y-102292268D01*
X210106340Y-102111112D01*
X210105602Y-101969832D01*
X210103904Y-101862948D01*
X210100859Y-101784978D01*
X210096083Y-101730441D01*
X210089192Y-101693858D01*
X210079801Y-101669747D01*
X210067525Y-101652627D01*
X210061143Y-101645929D01*
X210045882Y-101632672D01*
X210026193Y-101622281D01*
X209996801Y-101614409D01*
X209952430Y-101608707D01*
X209887803Y-101604828D01*
X209797644Y-101602423D01*
X209676678Y-101601144D01*
X209519628Y-101600645D01*
X209373400Y-101600572D01*
X209186134Y-101600639D01*
X209038928Y-101601110D01*
X208926482Y-101602387D01*
X208843499Y-101604871D01*
X208784680Y-101608964D01*
X208744727Y-101615069D01*
X208718341Y-101623588D01*
X208700225Y-101634922D01*
X208685080Y-101649475D01*
X208681703Y-101653060D01*
X208666755Y-101670459D01*
X208655180Y-101690675D01*
X208646545Y-101719316D01*
X208640422Y-101761991D01*
X208636379Y-101824305D01*
X208633986Y-101911868D01*
X208632811Y-102030287D01*
X208632425Y-102185169D01*
X208632393Y-102295123D01*
X208632552Y-102474334D01*
G36*
X208634973Y-104525634D02*
X208645480Y-104675932D01*
X208661891Y-104815717D01*
X208683587Y-104936863D01*
X208709950Y-105031246D01*
X208740364Y-105090739D01*
X208749317Y-105099871D01*
X208818788Y-105131625D01*
X208890108Y-105121996D01*
X208951127Y-105072743D01*
X208952875Y-105070393D01*
X208971676Y-105041423D01*
X208981562Y-105011181D01*
X208982763Y-104968999D01*
X208975507Y-104904208D01*
X208960024Y-104806139D01*
X208958721Y-104798250D01*
X208940769Y-104652123D01*
X208931913Y-104494466D01*
X208931827Y-104336344D01*
X208940185Y-104188820D01*
X208956659Y-104062960D01*
X208980923Y-103969828D01*
X208983362Y-103963709D01*
X209021217Y-103896145D01*
X209059527Y-103872407D01*
X209097204Y-103890990D01*
X209133160Y-103950389D01*
X209166306Y-104049099D01*
X209195554Y-104185615D01*
X209209636Y-104276643D01*
X209236723Y-104465862D01*
X209261484Y-104616355D01*
X209286063Y-104734534D01*
X209312605Y-104826809D01*
X209343253Y-104899590D01*
X209380152Y-104959290D01*
X209425445Y-105012318D01*
X209469923Y-105054931D01*
X209531895Y-105105486D01*
X209585184Y-105130365D01*
X209650839Y-105138146D01*
X209674883Y-105138429D01*
X209754671Y-105132585D01*
X209814030Y-105109229D01*
X209866716Y-105068807D01*
X209947254Y-104986656D01*
X210008674Y-104895048D01*
X210052979Y-104787176D01*
X210082172Y-104656235D01*
X210098256Y-104495416D01*
X210103233Y-104297914D01*
X210103149Y-104265304D01*
X210100419Y-104133599D01*
X210094216Y-104002985D01*
X210085430Y-103887699D01*
X210074950Y-103801980D01*
X210073747Y-103795047D01*
X210053558Y-103709821D01*
X210028055Y-103637533D01*
X210004739Y-103596610D01*
X209943229Y-103558526D01*
X209871602Y-103555875D01*
X209807771Y-103588705D01*
X209800553Y-103596050D01*
X209779107Y-103626412D01*
X209769867Y-103664382D01*
X209771440Y-103723148D01*
X209779613Y-103794488D01*
X209786914Y-103874203D01*
X209793074Y-103985951D01*
X209797544Y-104116408D01*
X209799776Y-104252254D01*
X209799923Y-104287982D01*
X209799373Y-104424334D01*
X209796726Y-104524124D01*
X209791063Y-104596132D01*
X209781466Y-104649140D01*
X209767017Y-104691927D01*
X209754982Y-104717640D01*
X209721565Y-104774143D01*
X209691301Y-104810167D01*
X209682722Y-104815432D01*
X209647296Y-104804325D01*
X209613001Y-104751523D01*
X209581394Y-104660684D01*
X209554031Y-104535468D01*
X209547936Y-104498576D01*
X209517670Y-104305882D01*
X209492373Y-104152096D01*
X209470206Y-104031283D01*
X209449330Y-103937505D01*
X209427907Y-103864829D01*
X209404099Y-103807317D01*
X209376068Y-103759035D01*
X209341975Y-103714047D01*
X209299982Y-103666417D01*
X209285259Y-103650389D01*
X209230314Y-103594194D01*
X209186781Y-103564448D01*
X209136965Y-103552811D01*
X209074189Y-103550929D01*
X208951085Y-103571649D01*
X208846491Y-103633571D01*
X208760745Y-103736341D01*
X208694184Y-103879602D01*
X208664329Y-103981822D01*
X208645047Y-104092917D01*
X208634139Y-104226001D01*
X208630987Y-104372948D01*
X208634973Y-104525634D01*
X208634973Y-104525634D01*
G37*
X208634973Y-104525634D02*
X208645480Y-104675932D01*
X208661891Y-104815717D01*
X208683587Y-104936863D01*
X208709950Y-105031246D01*
X208740364Y-105090739D01*
X208749317Y-105099871D01*
X208818788Y-105131625D01*
X208890108Y-105121996D01*
X208951127Y-105072743D01*
X208952875Y-105070393D01*
X208971676Y-105041423D01*
X208981562Y-105011181D01*
X208982763Y-104968999D01*
X208975507Y-104904208D01*
X208960024Y-104806139D01*
X208958721Y-104798250D01*
X208940769Y-104652123D01*
X208931913Y-104494466D01*
X208931827Y-104336344D01*
X208940185Y-104188820D01*
X208956659Y-104062960D01*
X208980923Y-103969828D01*
X208983362Y-103963709D01*
X209021217Y-103896145D01*
X209059527Y-103872407D01*
X209097204Y-103890990D01*
X209133160Y-103950389D01*
X209166306Y-104049099D01*
X209195554Y-104185615D01*
X209209636Y-104276643D01*
X209236723Y-104465862D01*
X209261484Y-104616355D01*
X209286063Y-104734534D01*
X209312605Y-104826809D01*
X209343253Y-104899590D01*
X209380152Y-104959290D01*
X209425445Y-105012318D01*
X209469923Y-105054931D01*
X209531895Y-105105486D01*
X209585184Y-105130365D01*
X209650839Y-105138146D01*
X209674883Y-105138429D01*
X209754671Y-105132585D01*
X209814030Y-105109229D01*
X209866716Y-105068807D01*
X209947254Y-104986656D01*
X210008674Y-104895048D01*
X210052979Y-104787176D01*
X210082172Y-104656235D01*
X210098256Y-104495416D01*
X210103233Y-104297914D01*
X210103149Y-104265304D01*
X210100419Y-104133599D01*
X210094216Y-104002985D01*
X210085430Y-103887699D01*
X210074950Y-103801980D01*
X210073747Y-103795047D01*
X210053558Y-103709821D01*
X210028055Y-103637533D01*
X210004739Y-103596610D01*
X209943229Y-103558526D01*
X209871602Y-103555875D01*
X209807771Y-103588705D01*
X209800553Y-103596050D01*
X209779107Y-103626412D01*
X209769867Y-103664382D01*
X209771440Y-103723148D01*
X209779613Y-103794488D01*
X209786914Y-103874203D01*
X209793074Y-103985951D01*
X209797544Y-104116408D01*
X209799776Y-104252254D01*
X209799923Y-104287982D01*
X209799373Y-104424334D01*
X209796726Y-104524124D01*
X209791063Y-104596132D01*
X209781466Y-104649140D01*
X209767017Y-104691927D01*
X209754982Y-104717640D01*
X209721565Y-104774143D01*
X209691301Y-104810167D01*
X209682722Y-104815432D01*
X209647296Y-104804325D01*
X209613001Y-104751523D01*
X209581394Y-104660684D01*
X209554031Y-104535468D01*
X209547936Y-104498576D01*
X209517670Y-104305882D01*
X209492373Y-104152096D01*
X209470206Y-104031283D01*
X209449330Y-103937505D01*
X209427907Y-103864829D01*
X209404099Y-103807317D01*
X209376068Y-103759035D01*
X209341975Y-103714047D01*
X209299982Y-103666417D01*
X209285259Y-103650389D01*
X209230314Y-103594194D01*
X209186781Y-103564448D01*
X209136965Y-103552811D01*
X209074189Y-103550929D01*
X208951085Y-103571649D01*
X208846491Y-103633571D01*
X208760745Y-103736341D01*
X208694184Y-103879602D01*
X208664329Y-103981822D01*
X208645047Y-104092917D01*
X208634139Y-104226001D01*
X208630987Y-104372948D01*
X208634973Y-104525634D01*
G36*
X208677750Y-106068250D02*
X208692964Y-106081471D01*
X208712591Y-106091841D01*
X208741888Y-106099707D01*
X208786113Y-106105413D01*
X208850524Y-106109303D01*
X208940378Y-106111722D01*
X209060934Y-106113016D01*
X209217448Y-106113528D01*
X209369446Y-106113607D01*
X209557978Y-106113467D01*
X209706410Y-106112818D01*
X209820001Y-106111314D01*
X209904009Y-106108611D01*
X209963690Y-106104364D01*
X210004302Y-106098228D01*
X210031104Y-106089859D01*
X210049353Y-106078911D01*
X210061143Y-106068250D01*
X210100680Y-106001949D01*
X210097131Y-105931304D01*
X210054011Y-105868096D01*
X210037177Y-105853573D01*
X210017644Y-105842223D01*
X209990015Y-105833655D01*
X209948889Y-105827478D01*
X209888868Y-105823302D01*
X209804551Y-105820735D01*
X209690540Y-105819388D01*
X209541434Y-105818868D01*
X209372623Y-105818786D01*
X208743724Y-105818786D01*
X208688058Y-105874452D01*
X208641225Y-105943066D01*
X208639538Y-106009623D01*
X208677750Y-106068250D01*
X208677750Y-106068250D01*
G37*
X208677750Y-106068250D02*
X208692964Y-106081471D01*
X208712591Y-106091841D01*
X208741888Y-106099707D01*
X208786113Y-106105413D01*
X208850524Y-106109303D01*
X208940378Y-106111722D01*
X209060934Y-106113016D01*
X209217448Y-106113528D01*
X209369446Y-106113607D01*
X209557978Y-106113467D01*
X209706410Y-106112818D01*
X209820001Y-106111314D01*
X209904009Y-106108611D01*
X209963690Y-106104364D01*
X210004302Y-106098228D01*
X210031104Y-106089859D01*
X210049353Y-106078911D01*
X210061143Y-106068250D01*
X210100680Y-106001949D01*
X210097131Y-105931304D01*
X210054011Y-105868096D01*
X210037177Y-105853573D01*
X210017644Y-105842223D01*
X209990015Y-105833655D01*
X209948889Y-105827478D01*
X209888868Y-105823302D01*
X209804551Y-105820735D01*
X209690540Y-105819388D01*
X209541434Y-105818868D01*
X209372623Y-105818786D01*
X208743724Y-105818786D01*
X208688058Y-105874452D01*
X208641225Y-105943066D01*
X208639538Y-106009623D01*
X208677750Y-106068250D01*
G36*
X208643506Y-108024427D02*
X208666602Y-108162072D01*
X208702505Y-108267786D01*
X208749778Y-108336560D01*
X208776748Y-108355301D01*
X208839475Y-108374359D01*
X208896222Y-108361534D01*
X208950035Y-108321047D01*
X208975210Y-108258138D01*
X208973165Y-108166857D01*
X208959526Y-108096256D01*
X208933540Y-107939374D01*
X208931070Y-107779046D01*
X208952163Y-107599591D01*
X208961100Y-107550022D01*
X209008146Y-107383157D01*
X209078129Y-107252614D01*
X209169856Y-107159824D01*
X209282134Y-107106219D01*
X209340182Y-107095132D01*
X209457953Y-107102389D01*
X209562150Y-107149241D01*
X209650742Y-107231418D01*
X209721698Y-107344651D01*
X209772987Y-107484671D01*
X209802579Y-107647209D01*
X209808443Y-107827995D01*
X209788548Y-108022762D01*
X209786672Y-108033759D01*
X209772243Y-108111226D01*
X209758306Y-108154178D01*
X209737626Y-108172795D01*
X209702970Y-108177256D01*
X209684618Y-108177357D01*
X209607571Y-108177357D01*
X209607571Y-108039795D01*
X209599250Y-107918318D01*
X209572732Y-107835419D01*
X209525689Y-107787186D01*
X209455790Y-107769704D01*
X209446667Y-107769490D01*
X209386922Y-107779719D01*
X209344261Y-107814792D01*
X209316029Y-107880070D01*
X209299571Y-107980910D01*
X209293520Y-108078585D01*
X209290048Y-108220549D01*
X209295346Y-108323523D01*
X209314893Y-108393753D01*
X209354173Y-108437486D01*
X209418666Y-108460970D01*
X209513854Y-108470451D01*
X209638875Y-108472179D01*
X209778423Y-108469348D01*
X209873347Y-108460833D01*
X209924024Y-108446594D01*
X209927993Y-108443831D01*
X209991316Y-108365650D01*
X210041462Y-108251025D01*
X210077362Y-108107220D01*
X210097944Y-107941504D01*
X210102137Y-107761142D01*
X210088869Y-107573402D01*
X210072572Y-107462982D01*
X210023551Y-107289792D01*
X209943410Y-107128826D01*
X209839398Y-106994056D01*
X209818609Y-106973572D01*
X209731213Y-106907019D01*
X209622898Y-106846969D01*
X209509340Y-106800436D01*
X209406217Y-106774437D01*
X209366611Y-106771304D01*
X209283994Y-106784644D01*
X209181203Y-106820100D01*
X209073006Y-106870869D01*
X208974169Y-106930148D01*
X208908152Y-106982521D01*
X208809952Y-107104974D01*
X208731792Y-107263268D01*
X208675439Y-107451731D01*
X208642663Y-107664690D01*
X208634654Y-107859857D01*
X208643506Y-108024427D01*
X208643506Y-108024427D01*
G37*
X208643506Y-108024427D02*
X208666602Y-108162072D01*
X208702505Y-108267786D01*
X208749778Y-108336560D01*
X208776748Y-108355301D01*
X208839475Y-108374359D01*
X208896222Y-108361534D01*
X208950035Y-108321047D01*
X208975210Y-108258138D01*
X208973165Y-108166857D01*
X208959526Y-108096256D01*
X208933540Y-107939374D01*
X208931070Y-107779046D01*
X208952163Y-107599591D01*
X208961100Y-107550022D01*
X209008146Y-107383157D01*
X209078129Y-107252614D01*
X209169856Y-107159824D01*
X209282134Y-107106219D01*
X209340182Y-107095132D01*
X209457953Y-107102389D01*
X209562150Y-107149241D01*
X209650742Y-107231418D01*
X209721698Y-107344651D01*
X209772987Y-107484671D01*
X209802579Y-107647209D01*
X209808443Y-107827995D01*
X209788548Y-108022762D01*
X209786672Y-108033759D01*
X209772243Y-108111226D01*
X209758306Y-108154178D01*
X209737626Y-108172795D01*
X209702970Y-108177256D01*
X209684618Y-108177357D01*
X209607571Y-108177357D01*
X209607571Y-108039795D01*
X209599250Y-107918318D01*
X209572732Y-107835419D01*
X209525689Y-107787186D01*
X209455790Y-107769704D01*
X209446667Y-107769490D01*
X209386922Y-107779719D01*
X209344261Y-107814792D01*
X209316029Y-107880070D01*
X209299571Y-107980910D01*
X209293520Y-108078585D01*
X209290048Y-108220549D01*
X209295346Y-108323523D01*
X209314893Y-108393753D01*
X209354173Y-108437486D01*
X209418666Y-108460970D01*
X209513854Y-108470451D01*
X209638875Y-108472179D01*
X209778423Y-108469348D01*
X209873347Y-108460833D01*
X209924024Y-108446594D01*
X209927993Y-108443831D01*
X209991316Y-108365650D01*
X210041462Y-108251025D01*
X210077362Y-108107220D01*
X210097944Y-107941504D01*
X210102137Y-107761142D01*
X210088869Y-107573402D01*
X210072572Y-107462982D01*
X210023551Y-107289792D01*
X209943410Y-107128826D01*
X209839398Y-106994056D01*
X209818609Y-106973572D01*
X209731213Y-106907019D01*
X209622898Y-106846969D01*
X209509340Y-106800436D01*
X209406217Y-106774437D01*
X209366611Y-106771304D01*
X209283994Y-106784644D01*
X209181203Y-106820100D01*
X209073006Y-106870869D01*
X208974169Y-106930148D01*
X208908152Y-106982521D01*
X208809952Y-107104974D01*
X208731792Y-107263268D01*
X208675439Y-107451731D01*
X208642663Y-107664690D01*
X208634654Y-107859857D01*
X208643506Y-108024427D01*
G36*
X208641195Y-109330165D02*
X208668967Y-109377507D01*
X208714385Y-109439408D01*
X208779589Y-109519077D01*
X208866717Y-109619720D01*
X208977910Y-109744548D01*
X209115307Y-109896768D01*
X209273276Y-110071018D01*
X209602327Y-110433875D01*
X209160665Y-110445215D01*
X209008634Y-110449309D01*
X208895417Y-110453258D01*
X208814480Y-110457938D01*
X208759293Y-110464221D01*
X208723322Y-110472982D01*
X208700035Y-110485094D01*
X208682899Y-110501431D01*
X208675698Y-110510093D01*
X208637623Y-110579463D01*
X208643190Y-110645473D01*
X208675717Y-110697836D01*
X208719042Y-110751375D01*
X209351759Y-110758034D01*
X209537841Y-110759877D01*
X209684021Y-110760815D01*
X209795751Y-110760523D01*
X209878482Y-110758677D01*
X209937666Y-110754950D01*
X209978753Y-110749020D01*
X210007196Y-110740560D01*
X210028445Y-110729247D01*
X210045488Y-110716700D01*
X210077095Y-110689556D01*
X210098046Y-110662547D01*
X210106088Y-110631930D01*
X210098965Y-110593957D01*
X210074426Y-110544882D01*
X210030214Y-110480960D01*
X209964076Y-110398445D01*
X209873759Y-110293590D01*
X209757008Y-110162649D01*
X209622859Y-110014322D01*
X209139429Y-109481375D01*
X209579647Y-109470036D01*
X209731401Y-109465935D01*
X209844354Y-109461975D01*
X209925052Y-109457279D01*
X209980041Y-109450967D01*
X210015865Y-109442163D01*
X210039070Y-109429988D01*
X210056201Y-109413563D01*
X210063183Y-109405157D01*
X210101534Y-109330866D01*
X210095749Y-109260668D01*
X210046745Y-109199539D01*
X210027030Y-109185555D01*
X210004006Y-109174656D01*
X209972149Y-109166459D01*
X209925935Y-109160580D01*
X209859840Y-109156636D01*
X209768339Y-109154244D01*
X209645911Y-109153021D01*
X209487029Y-109152582D01*
X209369446Y-109152536D01*
X209185533Y-109152683D01*
X209041452Y-109153381D01*
X208931680Y-109155013D01*
X208850693Y-109157961D01*
X208792968Y-109162611D01*
X208752981Y-109169343D01*
X208725207Y-109178543D01*
X208704123Y-109190594D01*
X208692148Y-109199539D01*
X208663780Y-109222214D01*
X208642362Y-109243405D01*
X208630032Y-109266322D01*
X208628930Y-109294172D01*
X208641195Y-109330165D01*
X208641195Y-109330165D01*
G37*
X208641195Y-109330165D02*
X208668967Y-109377507D01*
X208714385Y-109439408D01*
X208779589Y-109519077D01*
X208866717Y-109619720D01*
X208977910Y-109744548D01*
X209115307Y-109896768D01*
X209273276Y-110071018D01*
X209602327Y-110433875D01*
X209160665Y-110445215D01*
X209008634Y-110449309D01*
X208895417Y-110453258D01*
X208814480Y-110457938D01*
X208759293Y-110464221D01*
X208723322Y-110472982D01*
X208700035Y-110485094D01*
X208682899Y-110501431D01*
X208675698Y-110510093D01*
X208637623Y-110579463D01*
X208643190Y-110645473D01*
X208675717Y-110697836D01*
X208719042Y-110751375D01*
X209351759Y-110758034D01*
X209537841Y-110759877D01*
X209684021Y-110760815D01*
X209795751Y-110760523D01*
X209878482Y-110758677D01*
X209937666Y-110754950D01*
X209978753Y-110749020D01*
X210007196Y-110740560D01*
X210028445Y-110729247D01*
X210045488Y-110716700D01*
X210077095Y-110689556D01*
X210098046Y-110662547D01*
X210106088Y-110631930D01*
X210098965Y-110593957D01*
X210074426Y-110544882D01*
X210030214Y-110480960D01*
X209964076Y-110398445D01*
X209873759Y-110293590D01*
X209757008Y-110162649D01*
X209622859Y-110014322D01*
X209139429Y-109481375D01*
X209579647Y-109470036D01*
X209731401Y-109465935D01*
X209844354Y-109461975D01*
X209925052Y-109457279D01*
X209980041Y-109450967D01*
X210015865Y-109442163D01*
X210039070Y-109429988D01*
X210056201Y-109413563D01*
X210063183Y-109405157D01*
X210101534Y-109330866D01*
X210095749Y-109260668D01*
X210046745Y-109199539D01*
X210027030Y-109185555D01*
X210004006Y-109174656D01*
X209972149Y-109166459D01*
X209925935Y-109160580D01*
X209859840Y-109156636D01*
X209768339Y-109154244D01*
X209645911Y-109153021D01*
X209487029Y-109152582D01*
X209369446Y-109152536D01*
X209185533Y-109152683D01*
X209041452Y-109153381D01*
X208931680Y-109155013D01*
X208850693Y-109157961D01*
X208792968Y-109162611D01*
X208752981Y-109169343D01*
X208725207Y-109178543D01*
X208704123Y-109190594D01*
X208692148Y-109199539D01*
X208663780Y-109222214D01*
X208642362Y-109243405D01*
X208630032Y-109266322D01*
X208628930Y-109294172D01*
X208641195Y-109330165D01*
G36*
X208632780Y-112404743D02*
X208634617Y-112558142D01*
X208638911Y-112675695D01*
X208646672Y-112762156D01*
X208658910Y-112822280D01*
X208676635Y-112860820D01*
X208700856Y-112882532D01*
X208732582Y-112892170D01*
X208772823Y-112894488D01*
X208777575Y-112894500D01*
X208823091Y-112892488D01*
X208858269Y-112882975D01*
X208884528Y-112860751D01*
X208903289Y-112820602D01*
X208915973Y-112757316D01*
X208923999Y-112665682D01*
X208928789Y-112540487D01*
X208931761Y-112376519D01*
X208932420Y-112326263D01*
X208938554Y-111839947D01*
X209068955Y-111833145D01*
X209199357Y-111826344D01*
X209199357Y-112164139D01*
X209199844Y-112296107D01*
X209201903Y-112390337D01*
X209206432Y-112454445D01*
X209214330Y-112496044D01*
X209226495Y-112522750D01*
X209243825Y-112542178D01*
X209243963Y-112542302D01*
X209311501Y-112577537D01*
X209384498Y-112576263D01*
X209446725Y-112539284D01*
X209453121Y-112531965D01*
X209469605Y-112505990D01*
X209481073Y-112470397D01*
X209488388Y-112417253D01*
X209492415Y-112338628D01*
X209494017Y-112226590D01*
X209494179Y-112154934D01*
X209494179Y-111828607D01*
X209811679Y-111828607D01*
X209811679Y-112324021D01*
X209811965Y-112487586D01*
X209813134Y-112611797D01*
X209815654Y-112702655D01*
X209819992Y-112766160D01*
X209826614Y-112808313D01*
X209835987Y-112835116D01*
X209848579Y-112852569D01*
X209853152Y-112856967D01*
X209916526Y-112889440D01*
X209988624Y-112891816D01*
X210051135Y-112865175D01*
X210071196Y-112844097D01*
X210082240Y-112822170D01*
X210090785Y-112788195D01*
X210097129Y-112736798D01*
X210101572Y-112662605D01*
X210104413Y-112560241D01*
X210105952Y-112424333D01*
X210106487Y-112249505D01*
X210106500Y-112209980D01*
X210106384Y-112032224D01*
X210105742Y-111894242D01*
X210104134Y-111790456D01*
X210101121Y-111715283D01*
X210096263Y-111663141D01*
X210089121Y-111628451D01*
X210079254Y-111605630D01*
X210066223Y-111589097D01*
X210056866Y-111580027D01*
X210040294Y-111566374D01*
X210019764Y-111555708D01*
X209989893Y-111547660D01*
X209945298Y-111541864D01*
X209880594Y-111537953D01*
X209790397Y-111535557D01*
X209669324Y-111534310D01*
X209511990Y-111533844D01*
X209379568Y-111533786D01*
X209194012Y-111533929D01*
X209048342Y-111534606D01*
X208937088Y-111536192D01*
X208854778Y-111539061D01*
X208795943Y-111543587D01*
X208755111Y-111550144D01*
X208726812Y-111559106D01*
X208705575Y-111570847D01*
X208692148Y-111580789D01*
X208632393Y-111627792D01*
X208632393Y-112210743D01*
X208632780Y-112404743D01*
X208632780Y-112404743D01*
G37*
X208632780Y-112404743D02*
X208634617Y-112558142D01*
X208638911Y-112675695D01*
X208646672Y-112762156D01*
X208658910Y-112822280D01*
X208676635Y-112860820D01*
X208700856Y-112882532D01*
X208732582Y-112892170D01*
X208772823Y-112894488D01*
X208777575Y-112894500D01*
X208823091Y-112892488D01*
X208858269Y-112882975D01*
X208884528Y-112860751D01*
X208903289Y-112820602D01*
X208915973Y-112757316D01*
X208923999Y-112665682D01*
X208928789Y-112540487D01*
X208931761Y-112376519D01*
X208932420Y-112326263D01*
X208938554Y-111839947D01*
X209068955Y-111833145D01*
X209199357Y-111826344D01*
X209199357Y-112164139D01*
X209199844Y-112296107D01*
X209201903Y-112390337D01*
X209206432Y-112454445D01*
X209214330Y-112496044D01*
X209226495Y-112522750D01*
X209243825Y-112542178D01*
X209243963Y-112542302D01*
X209311501Y-112577537D01*
X209384498Y-112576263D01*
X209446725Y-112539284D01*
X209453121Y-112531965D01*
X209469605Y-112505990D01*
X209481073Y-112470397D01*
X209488388Y-112417253D01*
X209492415Y-112338628D01*
X209494017Y-112226590D01*
X209494179Y-112154934D01*
X209494179Y-111828607D01*
X209811679Y-111828607D01*
X209811679Y-112324021D01*
X209811965Y-112487586D01*
X209813134Y-112611797D01*
X209815654Y-112702655D01*
X209819992Y-112766160D01*
X209826614Y-112808313D01*
X209835987Y-112835116D01*
X209848579Y-112852569D01*
X209853152Y-112856967D01*
X209916526Y-112889440D01*
X209988624Y-112891816D01*
X210051135Y-112865175D01*
X210071196Y-112844097D01*
X210082240Y-112822170D01*
X210090785Y-112788195D01*
X210097129Y-112736798D01*
X210101572Y-112662605D01*
X210104413Y-112560241D01*
X210105952Y-112424333D01*
X210106487Y-112249505D01*
X210106500Y-112209980D01*
X210106384Y-112032224D01*
X210105742Y-111894242D01*
X210104134Y-111790456D01*
X210101121Y-111715283D01*
X210096263Y-111663141D01*
X210089121Y-111628451D01*
X210079254Y-111605630D01*
X210066223Y-111589097D01*
X210056866Y-111580027D01*
X210040294Y-111566374D01*
X210019764Y-111555708D01*
X209989893Y-111547660D01*
X209945298Y-111541864D01*
X209880594Y-111537953D01*
X209790397Y-111535557D01*
X209669324Y-111534310D01*
X209511990Y-111533844D01*
X209379568Y-111533786D01*
X209194012Y-111533929D01*
X209048342Y-111534606D01*
X208937088Y-111536192D01*
X208854778Y-111539061D01*
X208795943Y-111543587D01*
X208755111Y-111550144D01*
X208726812Y-111559106D01*
X208705575Y-111570847D01*
X208692148Y-111580789D01*
X208632393Y-111627792D01*
X208632393Y-112210743D01*
X208632780Y-112404743D01*
G36*
X208632811Y-113987710D02*
X208641572Y-114246821D01*
X208668140Y-114467206D01*
X208714105Y-114652499D01*
X208781060Y-114806335D01*
X208870593Y-114932346D01*
X208984296Y-115034167D01*
X209123759Y-115115431D01*
X209127160Y-115117030D01*
X209251979Y-115165529D01*
X209362523Y-115182809D01*
X209473774Y-115168805D01*
X209600710Y-115123448D01*
X209620026Y-115114846D01*
X209733083Y-115056186D01*
X209820442Y-114990260D01*
X209894704Y-114905174D01*
X209968468Y-114789034D01*
X209972319Y-114782287D01*
X210020885Y-114681184D01*
X210057156Y-114566909D01*
X210082383Y-114432121D01*
X210097816Y-114269475D01*
X210104708Y-114071629D01*
X210105307Y-114001727D01*
X210106500Y-113668864D01*
X210046745Y-113621861D01*
X210027096Y-113607918D01*
X210004150Y-113597041D01*
X209972406Y-113588851D01*
X209926359Y-113582967D01*
X209860510Y-113579011D01*
X209811679Y-113577721D01*
X209811679Y-113892357D01*
X209811679Y-114080960D01*
X209808451Y-114191325D01*
X209799958Y-114304621D01*
X209787980Y-114397605D01*
X209786971Y-114403218D01*
X209742665Y-114568370D01*
X209676099Y-114696470D01*
X209584184Y-114791570D01*
X209463832Y-114857723D01*
X209431935Y-114869227D01*
X209382257Y-114880502D01*
X209333177Y-114875620D01*
X209267884Y-114851867D01*
X209235809Y-114837549D01*
X209150574Y-114790662D01*
X209090776Y-114734171D01*
X209049134Y-114672015D01*
X208994945Y-114547512D01*
X208955692Y-114388174D01*
X208933089Y-114202553D01*
X208928114Y-114068116D01*
X208927214Y-113892357D01*
X209811679Y-113892357D01*
X209811679Y-113577721D01*
X209769355Y-113576602D01*
X209647392Y-113575361D01*
X209489118Y-113574908D01*
X209365357Y-113574857D01*
X208743724Y-113574857D01*
X208688058Y-113630523D01*
X208665495Y-113655228D01*
X208650043Y-113681941D01*
X208640375Y-113719244D01*
X208635164Y-113775723D01*
X208633082Y-113859958D01*
X208632801Y-113980535D01*
X208632811Y-113987710D01*
X208632811Y-113987710D01*
G37*
X208632811Y-113987710D02*
X208641572Y-114246821D01*
X208668140Y-114467206D01*
X208714105Y-114652499D01*
X208781060Y-114806335D01*
X208870593Y-114932346D01*
X208984296Y-115034167D01*
X209123759Y-115115431D01*
X209127160Y-115117030D01*
X209251979Y-115165529D01*
X209362523Y-115182809D01*
X209473774Y-115168805D01*
X209600710Y-115123448D01*
X209620026Y-115114846D01*
X209733083Y-115056186D01*
X209820442Y-114990260D01*
X209894704Y-114905174D01*
X209968468Y-114789034D01*
X209972319Y-114782287D01*
X210020885Y-114681184D01*
X210057156Y-114566909D01*
X210082383Y-114432121D01*
X210097816Y-114269475D01*
X210104708Y-114071629D01*
X210105307Y-114001727D01*
X210106500Y-113668864D01*
X210046745Y-113621861D01*
X210027096Y-113607918D01*
X210004150Y-113597041D01*
X209972406Y-113588851D01*
X209926359Y-113582967D01*
X209860510Y-113579011D01*
X209811679Y-113577721D01*
X209811679Y-113892357D01*
X209811679Y-114080960D01*
X209808451Y-114191325D01*
X209799958Y-114304621D01*
X209787980Y-114397605D01*
X209786971Y-114403218D01*
X209742665Y-114568370D01*
X209676099Y-114696470D01*
X209584184Y-114791570D01*
X209463832Y-114857723D01*
X209431935Y-114869227D01*
X209382257Y-114880502D01*
X209333177Y-114875620D01*
X209267884Y-114851867D01*
X209235809Y-114837549D01*
X209150574Y-114790662D01*
X209090776Y-114734171D01*
X209049134Y-114672015D01*
X208994945Y-114547512D01*
X208955692Y-114388174D01*
X208933089Y-114202553D01*
X208928114Y-114068116D01*
X208927214Y-113892357D01*
X209811679Y-113892357D01*
X209811679Y-113577721D01*
X209769355Y-113576602D01*
X209647392Y-113575361D01*
X209489118Y-113574908D01*
X209365357Y-113574857D01*
X208743724Y-113574857D01*
X208688058Y-113630523D01*
X208665495Y-113655228D01*
X208650043Y-113681941D01*
X208640375Y-113719244D01*
X208635164Y-113775723D01*
X208633082Y-113859958D01*
X208632801Y-113980535D01*
X208632811Y-113987710D01*
G36*
X208636345Y-119464765D02*
X208650409Y-119504119D01*
X208651097Y-119505638D01*
X208691881Y-119559080D01*
X208733832Y-119588525D01*
X208753501Y-119594287D01*
X208779637Y-119594002D01*
X208816868Y-119585895D01*
X208869828Y-119568188D01*
X208943145Y-119539104D01*
X209041451Y-119496867D01*
X209169376Y-119439700D01*
X209331552Y-119365826D01*
X209420193Y-119325164D01*
X209578435Y-119251739D01*
X209723957Y-119182811D01*
X209851437Y-119121012D01*
X209955556Y-119068971D01*
X210030993Y-119029321D01*
X210072428Y-119004691D01*
X210078152Y-118999817D01*
X210103402Y-118937458D01*
X210100020Y-118867020D01*
X210069310Y-118810528D01*
X210066812Y-118808226D01*
X210032792Y-118785754D01*
X209966528Y-118748058D01*
X209876549Y-118699786D01*
X209771386Y-118645588D01*
X209732633Y-118626110D01*
X209438140Y-118479082D01*
X209758049Y-118318823D01*
X209868583Y-118261621D01*
X209964444Y-118208551D01*
X210038293Y-118163949D01*
X210082793Y-118132150D01*
X210092229Y-118121373D01*
X210105009Y-118037606D01*
X210078152Y-117968484D01*
X210049449Y-117948151D01*
X209985658Y-117912966D01*
X209893056Y-117865799D01*
X209777920Y-117809520D01*
X209646526Y-117746999D01*
X209505152Y-117681107D01*
X209360074Y-117614714D01*
X209217570Y-117550690D01*
X209083917Y-117491906D01*
X208965391Y-117441232D01*
X208868269Y-117401538D01*
X208798829Y-117375695D01*
X208763347Y-117366572D01*
X208762062Y-117366665D01*
X208717414Y-117388861D01*
X208671940Y-117433226D01*
X208669962Y-117435839D01*
X208639140Y-117490366D01*
X208639438Y-117540801D01*
X208645249Y-117559704D01*
X208657807Y-117582739D01*
X208682511Y-117607200D01*
X208724484Y-117636022D01*
X208788852Y-117672140D01*
X208880740Y-117718488D01*
X209005271Y-117777999D01*
X209120223Y-117831667D01*
X209253472Y-117893412D01*
X209373300Y-117948740D01*
X209473448Y-117994777D01*
X209547655Y-118028650D01*
X209589661Y-118047482D01*
X209596232Y-118050229D01*
X209585490Y-118062582D01*
X209540513Y-118090973D01*
X209467865Y-118131625D01*
X209374111Y-118180759D01*
X209335429Y-118200311D01*
X209204812Y-118266545D01*
X209109688Y-118317624D01*
X209044529Y-118357740D01*
X209003802Y-118391084D01*
X208981978Y-118421849D01*
X208973526Y-118454225D01*
X208972571Y-118475324D01*
X208975869Y-118512542D01*
X208989509Y-118545156D01*
X209019111Y-118577562D01*
X209070293Y-118614156D01*
X209148675Y-118659334D01*
X209259877Y-118717492D01*
X209323135Y-118749580D01*
X209423952Y-118801628D01*
X209507557Y-118847024D01*
X209566897Y-118881760D01*
X209594916Y-118901833D01*
X209596083Y-118904563D01*
X209574031Y-118917526D01*
X209516770Y-118946549D01*
X209430293Y-118988725D01*
X209320593Y-119041148D01*
X209193663Y-119100911D01*
X209130616Y-119130309D01*
X208967907Y-119206788D01*
X208842706Y-119268372D01*
X208750928Y-119318258D01*
X208688487Y-119359643D01*
X208651300Y-119395724D01*
X208635281Y-119429699D01*
X208636345Y-119464765D01*
X208636345Y-119464765D01*
G37*
X208636345Y-119464765D02*
X208650409Y-119504119D01*
X208651097Y-119505638D01*
X208691881Y-119559080D01*
X208733832Y-119588525D01*
X208753501Y-119594287D01*
X208779637Y-119594002D01*
X208816868Y-119585895D01*
X208869828Y-119568188D01*
X208943145Y-119539104D01*
X209041451Y-119496867D01*
X209169376Y-119439700D01*
X209331552Y-119365826D01*
X209420193Y-119325164D01*
X209578435Y-119251739D01*
X209723957Y-119182811D01*
X209851437Y-119121012D01*
X209955556Y-119068971D01*
X210030993Y-119029321D01*
X210072428Y-119004691D01*
X210078152Y-118999817D01*
X210103402Y-118937458D01*
X210100020Y-118867020D01*
X210069310Y-118810528D01*
X210066812Y-118808226D01*
X210032792Y-118785754D01*
X209966528Y-118748058D01*
X209876549Y-118699786D01*
X209771386Y-118645588D01*
X209732633Y-118626110D01*
X209438140Y-118479082D01*
X209758049Y-118318823D01*
X209868583Y-118261621D01*
X209964444Y-118208551D01*
X210038293Y-118163949D01*
X210082793Y-118132150D01*
X210092229Y-118121373D01*
X210105009Y-118037606D01*
X210078152Y-117968484D01*
X210049449Y-117948151D01*
X209985658Y-117912966D01*
X209893056Y-117865799D01*
X209777920Y-117809520D01*
X209646526Y-117746999D01*
X209505152Y-117681107D01*
X209360074Y-117614714D01*
X209217570Y-117550690D01*
X209083917Y-117491906D01*
X208965391Y-117441232D01*
X208868269Y-117401538D01*
X208798829Y-117375695D01*
X208763347Y-117366572D01*
X208762062Y-117366665D01*
X208717414Y-117388861D01*
X208671940Y-117433226D01*
X208669962Y-117435839D01*
X208639140Y-117490366D01*
X208639438Y-117540801D01*
X208645249Y-117559704D01*
X208657807Y-117582739D01*
X208682511Y-117607200D01*
X208724484Y-117636022D01*
X208788852Y-117672140D01*
X208880740Y-117718488D01*
X209005271Y-117777999D01*
X209120223Y-117831667D01*
X209253472Y-117893412D01*
X209373300Y-117948740D01*
X209473448Y-117994777D01*
X209547655Y-118028650D01*
X209589661Y-118047482D01*
X209596232Y-118050229D01*
X209585490Y-118062582D01*
X209540513Y-118090973D01*
X209467865Y-118131625D01*
X209374111Y-118180759D01*
X209335429Y-118200311D01*
X209204812Y-118266545D01*
X209109688Y-118317624D01*
X209044529Y-118357740D01*
X209003802Y-118391084D01*
X208981978Y-118421849D01*
X208973526Y-118454225D01*
X208972571Y-118475324D01*
X208975869Y-118512542D01*
X208989509Y-118545156D01*
X209019111Y-118577562D01*
X209070293Y-118614156D01*
X209148675Y-118659334D01*
X209259877Y-118717492D01*
X209323135Y-118749580D01*
X209423952Y-118801628D01*
X209507557Y-118847024D01*
X209566897Y-118881760D01*
X209594916Y-118901833D01*
X209596083Y-118904563D01*
X209574031Y-118917526D01*
X209516770Y-118946549D01*
X209430293Y-118988725D01*
X209320593Y-119041148D01*
X209193663Y-119100911D01*
X209130616Y-119130309D01*
X208967907Y-119206788D01*
X208842706Y-119268372D01*
X208750928Y-119318258D01*
X208688487Y-119359643D01*
X208651300Y-119395724D01*
X208635281Y-119429699D01*
X208636345Y-119464765D01*
G36*
X208646074Y-120356627D02*
X208675746Y-120404265D01*
X208719100Y-120457804D01*
X209365062Y-120457804D01*
X209554015Y-120457633D01*
X209702881Y-120456903D01*
X209816932Y-120455285D01*
X209901436Y-120452451D01*
X209961663Y-120448072D01*
X210002885Y-120441821D01*
X210030370Y-120433369D01*
X210049390Y-120422388D01*
X210058762Y-120414601D01*
X210099931Y-120351443D01*
X210098252Y-120279523D01*
X210063147Y-120216522D01*
X210019793Y-120162982D01*
X208719100Y-120162982D01*
X208675746Y-120216522D01*
X208644210Y-120268195D01*
X208632393Y-120310393D01*
X208646074Y-120356627D01*
X208646074Y-120356627D01*
G37*
X208646074Y-120356627D02*
X208675746Y-120404265D01*
X208719100Y-120457804D01*
X209365062Y-120457804D01*
X209554015Y-120457633D01*
X209702881Y-120456903D01*
X209816932Y-120455285D01*
X209901436Y-120452451D01*
X209961663Y-120448072D01*
X210002885Y-120441821D01*
X210030370Y-120433369D01*
X210049390Y-120422388D01*
X210058762Y-120414601D01*
X210099931Y-120351443D01*
X210098252Y-120279523D01*
X210063147Y-120216522D01*
X210019793Y-120162982D01*
X208719100Y-120162982D01*
X208675746Y-120216522D01*
X208644210Y-120268195D01*
X208632393Y-120310393D01*
X208646074Y-120356627D01*
G36*
X208632587Y-121912443D02*
X208633347Y-122070561D01*
X208634937Y-122193288D01*
X208637622Y-122285606D01*
X208641667Y-122352499D01*
X208647337Y-122398948D01*
X208654897Y-122429937D01*
X208664612Y-122450448D01*
X208672080Y-122460374D01*
X208737442Y-122511891D01*
X208805305Y-122518123D01*
X208866954Y-122486287D01*
X208891589Y-122465468D01*
X208908387Y-122443065D01*
X208918847Y-122410597D01*
X208924472Y-122359586D01*
X208926760Y-122281550D01*
X208927212Y-122168010D01*
X208927214Y-122145711D01*
X208927214Y-121852536D01*
X209471500Y-121852536D01*
X209643059Y-121852343D01*
X209775066Y-121851466D01*
X209873322Y-121849458D01*
X209943633Y-121845874D01*
X209991800Y-121840267D01*
X210023628Y-121832191D01*
X210044919Y-121821198D01*
X210061143Y-121807179D01*
X210101011Y-121741019D01*
X210097869Y-121671954D01*
X210052382Y-121609320D01*
X210046745Y-121604718D01*
X210025435Y-121589737D01*
X210000502Y-121578323D01*
X209965886Y-121569994D01*
X209915530Y-121564267D01*
X209843375Y-121560659D01*
X209743363Y-121558686D01*
X209609435Y-121557866D01*
X209457102Y-121557715D01*
X208927214Y-121557715D01*
X208927214Y-121277747D01*
X208926401Y-121157602D01*
X208923233Y-121074425D01*
X208916616Y-121019843D01*
X208905456Y-120985486D01*
X208888661Y-120962980D01*
X208885741Y-120960247D01*
X208818967Y-120927386D01*
X208743477Y-120930292D01*
X208677750Y-120968072D01*
X208665001Y-120982682D01*
X208654892Y-121001520D01*
X208647117Y-121029608D01*
X208641372Y-121071970D01*
X208637351Y-121133630D01*
X208634749Y-121219612D01*
X208633259Y-121334938D01*
X208632576Y-121484632D01*
X208632396Y-121673718D01*
X208632393Y-121713952D01*
X208632587Y-121912443D01*
X208632587Y-121912443D01*
G37*
X208632587Y-121912443D02*
X208633347Y-122070561D01*
X208634937Y-122193288D01*
X208637622Y-122285606D01*
X208641667Y-122352499D01*
X208647337Y-122398948D01*
X208654897Y-122429937D01*
X208664612Y-122450448D01*
X208672080Y-122460374D01*
X208737442Y-122511891D01*
X208805305Y-122518123D01*
X208866954Y-122486287D01*
X208891589Y-122465468D01*
X208908387Y-122443065D01*
X208918847Y-122410597D01*
X208924472Y-122359586D01*
X208926760Y-122281550D01*
X208927212Y-122168010D01*
X208927214Y-122145711D01*
X208927214Y-121852536D01*
X209471500Y-121852536D01*
X209643059Y-121852343D01*
X209775066Y-121851466D01*
X209873322Y-121849458D01*
X209943633Y-121845874D01*
X209991800Y-121840267D01*
X210023628Y-121832191D01*
X210044919Y-121821198D01*
X210061143Y-121807179D01*
X210101011Y-121741019D01*
X210097869Y-121671954D01*
X210052382Y-121609320D01*
X210046745Y-121604718D01*
X210025435Y-121589737D01*
X210000502Y-121578323D01*
X209965886Y-121569994D01*
X209915530Y-121564267D01*
X209843375Y-121560659D01*
X209743363Y-121558686D01*
X209609435Y-121557866D01*
X209457102Y-121557715D01*
X208927214Y-121557715D01*
X208927214Y-121277747D01*
X208926401Y-121157602D01*
X208923233Y-121074425D01*
X208916616Y-121019843D01*
X208905456Y-120985486D01*
X208888661Y-120962980D01*
X208885741Y-120960247D01*
X208818967Y-120927386D01*
X208743477Y-120930292D01*
X208677750Y-120968072D01*
X208665001Y-120982682D01*
X208654892Y-121001520D01*
X208647117Y-121029608D01*
X208641372Y-121071970D01*
X208637351Y-121133630D01*
X208634749Y-121219612D01*
X208633259Y-121334938D01*
X208632576Y-121484632D01*
X208632396Y-121673718D01*
X208632393Y-121713952D01*
X208632587Y-121912443D01*
G36*
X208643374Y-124455262D02*
X208688058Y-124518299D01*
X208743724Y-124573965D01*
X209365357Y-124573965D01*
X209549936Y-124573819D01*
X209694660Y-124573130D01*
X209805032Y-124571517D01*
X209886553Y-124568600D01*
X209944726Y-124564002D01*
X209985054Y-124557341D01*
X210013037Y-124548238D01*
X210034180Y-124536314D01*
X210046745Y-124526961D01*
X210096112Y-124465225D01*
X210101470Y-124394337D01*
X210071196Y-124329546D01*
X210053323Y-124308137D01*
X210029582Y-124293826D01*
X209991352Y-124285194D01*
X209930010Y-124280822D01*
X209836937Y-124279290D01*
X209765035Y-124279143D01*
X209494179Y-124279143D01*
X209494179Y-123281286D01*
X209740584Y-123281286D01*
X209853259Y-123280254D01*
X209930695Y-123276126D01*
X209982985Y-123267351D01*
X210020221Y-123252382D01*
X210046745Y-123234283D01*
X210095973Y-123172201D01*
X210101802Y-123101992D01*
X210066812Y-123034779D01*
X210048470Y-123016428D01*
X210024154Y-123003468D01*
X209986278Y-122994919D01*
X209927255Y-122989805D01*
X209839499Y-122987149D01*
X209715423Y-122985971D01*
X209686946Y-122985834D01*
X209453169Y-122984862D01*
X209260505Y-122984361D01*
X209104712Y-122984524D01*
X208981548Y-122985545D01*
X208886770Y-122987617D01*
X208816136Y-122990933D01*
X208765403Y-122995687D01*
X208730329Y-123002071D01*
X208706670Y-123010280D01*
X208690186Y-123020507D01*
X208677750Y-123031822D01*
X208637971Y-123095829D01*
X208643374Y-123162583D01*
X208688058Y-123225620D01*
X208716887Y-123251129D01*
X208748732Y-123267389D01*
X208794085Y-123276461D01*
X208863443Y-123280406D01*
X208967299Y-123281285D01*
X208971541Y-123281286D01*
X209199357Y-123281286D01*
X209199357Y-124279143D01*
X208961232Y-124279143D01*
X208851528Y-124280161D01*
X208777453Y-124284251D01*
X208729304Y-124292965D01*
X208697378Y-124307855D01*
X208677750Y-124324500D01*
X208637971Y-124388507D01*
X208643374Y-124455262D01*
X208643374Y-124455262D01*
G37*
X208643374Y-124455262D02*
X208688058Y-124518299D01*
X208743724Y-124573965D01*
X209365357Y-124573965D01*
X209549936Y-124573819D01*
X209694660Y-124573130D01*
X209805032Y-124571517D01*
X209886553Y-124568600D01*
X209944726Y-124564002D01*
X209985054Y-124557341D01*
X210013037Y-124548238D01*
X210034180Y-124536314D01*
X210046745Y-124526961D01*
X210096112Y-124465225D01*
X210101470Y-124394337D01*
X210071196Y-124329546D01*
X210053323Y-124308137D01*
X210029582Y-124293826D01*
X209991352Y-124285194D01*
X209930010Y-124280822D01*
X209836937Y-124279290D01*
X209765035Y-124279143D01*
X209494179Y-124279143D01*
X209494179Y-123281286D01*
X209740584Y-123281286D01*
X209853259Y-123280254D01*
X209930695Y-123276126D01*
X209982985Y-123267351D01*
X210020221Y-123252382D01*
X210046745Y-123234283D01*
X210095973Y-123172201D01*
X210101802Y-123101992D01*
X210066812Y-123034779D01*
X210048470Y-123016428D01*
X210024154Y-123003468D01*
X209986278Y-122994919D01*
X209927255Y-122989805D01*
X209839499Y-122987149D01*
X209715423Y-122985971D01*
X209686946Y-122985834D01*
X209453169Y-122984862D01*
X209260505Y-122984361D01*
X209104712Y-122984524D01*
X208981548Y-122985545D01*
X208886770Y-122987617D01*
X208816136Y-122990933D01*
X208765403Y-122995687D01*
X208730329Y-123002071D01*
X208706670Y-123010280D01*
X208690186Y-123020507D01*
X208677750Y-123031822D01*
X208637971Y-123095829D01*
X208643374Y-123162583D01*
X208688058Y-123225620D01*
X208716887Y-123251129D01*
X208748732Y-123267389D01*
X208794085Y-123276461D01*
X208863443Y-123280406D01*
X208967299Y-123281285D01*
X208971541Y-123281286D01*
X209199357Y-123281286D01*
X209199357Y-124279143D01*
X208961232Y-124279143D01*
X208851528Y-124280161D01*
X208777453Y-124284251D01*
X208729304Y-124292965D01*
X208697378Y-124307855D01*
X208677750Y-124324500D01*
X208637971Y-124388507D01*
X208643374Y-124455262D01*
G36*
X199029689Y-106022893D02*
X199258585Y-106044720D01*
X199474791Y-106108237D01*
X199673673Y-106210497D01*
X199850597Y-106348554D01*
X200000929Y-106519462D01*
X200117181Y-106714302D01*
X200196777Y-106927788D01*
X200234080Y-107142771D01*
X200231791Y-107355014D01*
X200192609Y-107560276D01*
X200119234Y-107754320D01*
X200014368Y-107932907D01*
X199880708Y-108091796D01*
X199720957Y-108226750D01*
X199537814Y-108333529D01*
X199333978Y-108407895D01*
X199112151Y-108445608D01*
X199011914Y-108449500D01*
X198835250Y-108449500D01*
X198835250Y-108553822D01*
X198840965Y-108626761D01*
X198864669Y-108680796D01*
X198912357Y-108735250D01*
X198989464Y-108812357D01*
X203392173Y-108812357D01*
X203918789Y-108812339D01*
X204401939Y-108812274D01*
X204843515Y-108812146D01*
X205245409Y-108811938D01*
X205609512Y-108811634D01*
X205937715Y-108811217D01*
X206231911Y-108810672D01*
X206493990Y-108809981D01*
X206725845Y-108809128D01*
X206929366Y-108808098D01*
X207106446Y-108806873D01*
X207258976Y-108805437D01*
X207388847Y-108803774D01*
X207497951Y-108801867D01*
X207588179Y-108799701D01*
X207661424Y-108797258D01*
X207719576Y-108794522D01*
X207764528Y-108791477D01*
X207798170Y-108788107D01*
X207822395Y-108784394D01*
X207839093Y-108780324D01*
X207850157Y-108775878D01*
X207853874Y-108773704D01*
X207867960Y-108765341D01*
X207880911Y-108758240D01*
X207892772Y-108750547D01*
X207903593Y-108740407D01*
X207913420Y-108725966D01*
X207922300Y-108705369D01*
X207930282Y-108676761D01*
X207937412Y-108638289D01*
X207943738Y-108588097D01*
X207949308Y-108524331D01*
X207954168Y-108445136D01*
X207958366Y-108348658D01*
X207961950Y-108233042D01*
X207964968Y-108096435D01*
X207967465Y-107936980D01*
X207969490Y-107752825D01*
X207971091Y-107542114D01*
X207972314Y-107302992D01*
X207973208Y-107033605D01*
X207973819Y-106732100D01*
X207974194Y-106396620D01*
X207974383Y-106025312D01*
X207974431Y-105616321D01*
X207974386Y-105167792D01*
X207974295Y-104677872D01*
X207974207Y-104144705D01*
X207974198Y-104067595D01*
X207974111Y-103531255D01*
X207973969Y-103038425D01*
X207973758Y-102587258D01*
X207973462Y-102175907D01*
X207973067Y-101802524D01*
X207972559Y-101465262D01*
X207971924Y-101162275D01*
X207971146Y-100891714D01*
X207970211Y-100651733D01*
X207969105Y-100440485D01*
X207967813Y-100256122D01*
X207966320Y-100096798D01*
X207964613Y-99960665D01*
X207962676Y-99845875D01*
X207960496Y-99750583D01*
X207958057Y-99672940D01*
X207955345Y-99611100D01*
X207952346Y-99563215D01*
X207949045Y-99527438D01*
X207945427Y-99501922D01*
X207941479Y-99484819D01*
X207938127Y-99476065D01*
X207930954Y-99459065D01*
X207925659Y-99443458D01*
X207920362Y-99429184D01*
X207913188Y-99416184D01*
X207902256Y-99404400D01*
X207885691Y-99393772D01*
X207861614Y-99384241D01*
X207828147Y-99375747D01*
X207783413Y-99368231D01*
X207725533Y-99361634D01*
X207652631Y-99355896D01*
X207562828Y-99350960D01*
X207454246Y-99346764D01*
X207325007Y-99343250D01*
X207173235Y-99340359D01*
X206997050Y-99338032D01*
X206794576Y-99336209D01*
X206563935Y-99334830D01*
X206303248Y-99333838D01*
X206010638Y-99333172D01*
X205684227Y-99332773D01*
X205322138Y-99332583D01*
X204922492Y-99332541D01*
X204483412Y-99332588D01*
X204003020Y-99332666D01*
X203479438Y-99332714D01*
X203394759Y-99332715D01*
X202866618Y-99332687D01*
X202381943Y-99332637D01*
X201938841Y-99332615D01*
X201535421Y-99332674D01*
X201169791Y-99332864D01*
X200840060Y-99333237D01*
X200544334Y-99333846D01*
X200280724Y-99334740D01*
X200059893Y-99335904D01*
X200059893Y-99944284D01*
X200176098Y-100024219D01*
X200207775Y-100046660D01*
X200235823Y-100066891D01*
X200262628Y-100085027D01*
X200290571Y-100101180D01*
X200322036Y-100115466D01*
X200359406Y-100127999D01*
X200405066Y-100138893D01*
X200461399Y-100148261D01*
X200530787Y-100156218D01*
X200615614Y-100162878D01*
X200718264Y-100168356D01*
X200841120Y-100172764D01*
X200986566Y-100176218D01*
X201156984Y-100178832D01*
X201354759Y-100180719D01*
X201582274Y-100181994D01*
X201841911Y-100182770D01*
X202136055Y-100183163D01*
X202467090Y-100183286D01*
X202837397Y-100183253D01*
X203249361Y-100183178D01*
X203495696Y-100183161D01*
X203931532Y-100183209D01*
X204324396Y-100183277D01*
X204676675Y-100183253D01*
X204990756Y-100183023D01*
X205269025Y-100182475D01*
X205513867Y-100181496D01*
X205727669Y-100179972D01*
X205912817Y-100177791D01*
X206071696Y-100174840D01*
X206206694Y-100171006D01*
X206320196Y-100166175D01*
X206414588Y-100160235D01*
X206492257Y-100153074D01*
X206555588Y-100144577D01*
X206606968Y-100134632D01*
X206648783Y-100123127D01*
X206683418Y-100109947D01*
X206713261Y-100094981D01*
X206740696Y-100078115D01*
X206768111Y-100059236D01*
X206797891Y-100038232D01*
X206815752Y-100025996D01*
X206931500Y-99948103D01*
X206931500Y-101015977D01*
X206931430Y-101263575D01*
X206931128Y-101469482D01*
X206930452Y-101637363D01*
X206929261Y-101770884D01*
X206927415Y-101873710D01*
X206924772Y-101949508D01*
X206921193Y-102001943D01*
X206916535Y-102034680D01*
X206910659Y-102051386D01*
X206903423Y-102055725D01*
X206894686Y-102051364D01*
X206891812Y-102048961D01*
X206817339Y-101998437D01*
X206711265Y-101946410D01*
X206586708Y-101898981D01*
X206533646Y-101882369D01*
X206497603Y-101873094D01*
X206455293Y-101865256D01*
X206402526Y-101858690D01*
X206335113Y-101853231D01*
X206248863Y-101848712D01*
X206139588Y-101844970D01*
X206003098Y-101841839D01*
X205835203Y-101839155D01*
X205631714Y-101836751D01*
X205388441Y-101834463D01*
X205298643Y-101833705D01*
X205047223Y-101831663D01*
X204837557Y-101830139D01*
X204666046Y-101829250D01*
X204529088Y-101829114D01*
X204423082Y-101829848D01*
X204344429Y-101831570D01*
X204289527Y-101834396D01*
X204254776Y-101838445D01*
X204236575Y-101843834D01*
X204231323Y-101850679D01*
X204235420Y-101859099D01*
X204244089Y-101868087D01*
X204270075Y-101888889D01*
X204328483Y-101933202D01*
X204415033Y-101997891D01*
X204525443Y-102079821D01*
X204655430Y-102175856D01*
X204800714Y-102282861D01*
X204957013Y-102397701D01*
X205120045Y-102517240D01*
X205285529Y-102638342D01*
X205449183Y-102757873D01*
X205606725Y-102872696D01*
X205753874Y-102979678D01*
X205886349Y-103075682D01*
X205999866Y-103157572D01*
X206090146Y-103222214D01*
X206152907Y-103266472D01*
X206166231Y-103275649D01*
X206240366Y-103321697D01*
X206336774Y-103375553D01*
X206436292Y-103426577D01*
X206449713Y-103433047D01*
X206546534Y-103476596D01*
X206621992Y-103501881D01*
X206693963Y-103513392D01*
X206778420Y-103515638D01*
X206931500Y-103514365D01*
X206931500Y-105833550D01*
X206743201Y-105650409D01*
X206642967Y-105556397D01*
X206529504Y-105455373D01*
X206420480Y-105362873D01*
X206369549Y-105321840D01*
X206290105Y-105260691D01*
X206183207Y-105180225D01*
X206052126Y-105082793D01*
X205900138Y-104970748D01*
X205730516Y-104846443D01*
X205546532Y-104712231D01*
X205351462Y-104570464D01*
X205148577Y-104423495D01*
X204941153Y-104273678D01*
X204732462Y-104123364D01*
X204525779Y-103974906D01*
X204324376Y-103830658D01*
X204131527Y-103692971D01*
X203950506Y-103564199D01*
X203784586Y-103446694D01*
X203637041Y-103342810D01*
X203511145Y-103254898D01*
X203410171Y-103185312D01*
X203337393Y-103136405D01*
X203296084Y-103110528D01*
X203287843Y-103106996D01*
X203265089Y-103122986D01*
X203210486Y-103164761D01*
X203127451Y-103229584D01*
X203019400Y-103314716D01*
X202889749Y-103417419D01*
X202741914Y-103534955D01*
X202579312Y-103664584D01*
X202405360Y-103803568D01*
X202223472Y-103949170D01*
X202037066Y-104098650D01*
X201887687Y-104218642D01*
X201887687Y-106249679D01*
X201913717Y-106261551D01*
X201958414Y-106290338D01*
X201961392Y-106292442D01*
X202021967Y-106330184D01*
X202095959Y-106369653D01*
X202112304Y-106377486D01*
X202129237Y-106384590D01*
X202149565Y-106390868D01*
X202176086Y-106396382D01*
X202211598Y-106401191D01*
X202258901Y-106405356D01*
X202320794Y-106408939D01*
X202400074Y-106411999D01*
X202499541Y-106414596D01*
X202621993Y-106416792D01*
X202770228Y-106418647D01*
X202947046Y-106420221D01*
X203155246Y-106421576D01*
X203397625Y-106422770D01*
X203676983Y-106423866D01*
X203996118Y-106424923D01*
X204355428Y-106425996D01*
X204727317Y-106427077D01*
X205056658Y-106427950D01*
X205346261Y-106428479D01*
X205598935Y-106428529D01*
X205817490Y-106427964D01*
X206004735Y-106426650D01*
X206163480Y-106424450D01*
X206296535Y-106421229D01*
X206406708Y-106416851D01*
X206496809Y-106411182D01*
X206569648Y-106404086D01*
X206628034Y-106395427D01*
X206674777Y-106385070D01*
X206712686Y-106372879D01*
X206744570Y-106358720D01*
X206773240Y-106342456D01*
X206801504Y-106323953D01*
X206826550Y-106306876D01*
X206879373Y-106272451D01*
X206914698Y-106252068D01*
X206921168Y-106249679D01*
X206923332Y-106271590D01*
X206925342Y-106334255D01*
X206927150Y-106433070D01*
X206928708Y-106563431D01*
X206929967Y-106720735D01*
X206930880Y-106900379D01*
X206931398Y-107097759D01*
X206931500Y-107236197D01*
X206931057Y-107447120D01*
X206929788Y-107641669D01*
X206927782Y-107815446D01*
X206925126Y-107964056D01*
X206921910Y-108083102D01*
X206918223Y-108168188D01*
X206914153Y-108214916D01*
X206911598Y-108222715D01*
X206881659Y-108207251D01*
X206865527Y-108191182D01*
X206831121Y-108164721D01*
X206770349Y-108130088D01*
X206721009Y-108106138D01*
X206602661Y-108052625D01*
X204238420Y-108046448D01*
X201874178Y-108040270D01*
X201874179Y-107144974D01*
X201874509Y-106948468D01*
X201875450Y-106766873D01*
X201876930Y-106605021D01*
X201878875Y-106467747D01*
X201881214Y-106359880D01*
X201883872Y-106286255D01*
X201886777Y-106251703D01*
X201887687Y-106249679D01*
X201887687Y-104218642D01*
X201849558Y-104249271D01*
X201664364Y-104398293D01*
X201484901Y-104542979D01*
X201314584Y-104680589D01*
X201156831Y-104808386D01*
X201015057Y-104923631D01*
X200892679Y-105023586D01*
X200793112Y-105105512D01*
X200751589Y-105139994D01*
X200549368Y-105313349D01*
X200382109Y-105467231D01*
X200245863Y-105605472D01*
X200136679Y-105731905D01*
X200121878Y-105750750D01*
X200060396Y-105830125D01*
X200060144Y-104693313D01*
X200059893Y-103556500D01*
X200156277Y-103567126D01*
X200271476Y-103560490D01*
X200408635Y-103517236D01*
X200568846Y-103436929D01*
X200714057Y-103345911D01*
X200759550Y-103313329D01*
X200834997Y-103256972D01*
X200936095Y-103180199D01*
X201058544Y-103086369D01*
X201198040Y-102978842D01*
X201350283Y-102860978D01*
X201510969Y-102736135D01*
X201675797Y-102607673D01*
X201840465Y-102478952D01*
X202000671Y-102353331D01*
X202152112Y-102234170D01*
X202290487Y-102124828D01*
X202411494Y-102028664D01*
X202510831Y-101949038D01*
X202584195Y-101889309D01*
X202627285Y-101852838D01*
X202633911Y-101846694D01*
X202617826Y-101840949D01*
X202556968Y-101836502D01*
X202451902Y-101833360D01*
X202303192Y-101831532D01*
X202111404Y-101831023D01*
X201877103Y-101831841D01*
X201636054Y-101833667D01*
X201370651Y-101836324D01*
X201146176Y-101839387D01*
X200958201Y-101843356D01*
X200802298Y-101848731D01*
X200674036Y-101856011D01*
X200568989Y-101865696D01*
X200482727Y-101878286D01*
X200410821Y-101894280D01*
X200348843Y-101914178D01*
X200292364Y-101938480D01*
X200236956Y-101967684D01*
X200186655Y-101997180D01*
X200059893Y-102073513D01*
X200059893Y-99944284D01*
X200059893Y-99335904D01*
X200047337Y-99335971D01*
X199842281Y-99337591D01*
X199663665Y-99339651D01*
X199509596Y-99342202D01*
X199378184Y-99345296D01*
X199267535Y-99348984D01*
X199175760Y-99353317D01*
X199100965Y-99358347D01*
X199041259Y-99364125D01*
X198994750Y-99370702D01*
X198959547Y-99378131D01*
X198933757Y-99386461D01*
X198915490Y-99395745D01*
X198902852Y-99406034D01*
X198893954Y-99417379D01*
X198886902Y-99429832D01*
X198879804Y-99443444D01*
X198872636Y-99455490D01*
X198867461Y-99466002D01*
X198862783Y-99482427D01*
X198858577Y-99506962D01*
X198854818Y-99541807D01*
X198851483Y-99589161D01*
X198848544Y-99651222D01*
X198845979Y-99730189D01*
X198843762Y-99828262D01*
X198841868Y-99947639D01*
X198840273Y-100090519D01*
X198838951Y-100259102D01*
X198837878Y-100455585D01*
X198837029Y-100682168D01*
X198836380Y-100941050D01*
X198835904Y-101234430D01*
X198835578Y-101564507D01*
X198835377Y-101933479D01*
X198835276Y-102343546D01*
X198835250Y-102767720D01*
X198835250Y-106022893D01*
X199029689Y-106022893D01*
X199029689Y-106022893D01*
G37*
X199029689Y-106022893D02*
X199258585Y-106044720D01*
X199474791Y-106108237D01*
X199673673Y-106210497D01*
X199850597Y-106348554D01*
X200000929Y-106519462D01*
X200117181Y-106714302D01*
X200196777Y-106927788D01*
X200234080Y-107142771D01*
X200231791Y-107355014D01*
X200192609Y-107560276D01*
X200119234Y-107754320D01*
X200014368Y-107932907D01*
X199880708Y-108091796D01*
X199720957Y-108226750D01*
X199537814Y-108333529D01*
X199333978Y-108407895D01*
X199112151Y-108445608D01*
X199011914Y-108449500D01*
X198835250Y-108449500D01*
X198835250Y-108553822D01*
X198840965Y-108626761D01*
X198864669Y-108680796D01*
X198912357Y-108735250D01*
X198989464Y-108812357D01*
X203392173Y-108812357D01*
X203918789Y-108812339D01*
X204401939Y-108812274D01*
X204843515Y-108812146D01*
X205245409Y-108811938D01*
X205609512Y-108811634D01*
X205937715Y-108811217D01*
X206231911Y-108810672D01*
X206493990Y-108809981D01*
X206725845Y-108809128D01*
X206929366Y-108808098D01*
X207106446Y-108806873D01*
X207258976Y-108805437D01*
X207388847Y-108803774D01*
X207497951Y-108801867D01*
X207588179Y-108799701D01*
X207661424Y-108797258D01*
X207719576Y-108794522D01*
X207764528Y-108791477D01*
X207798170Y-108788107D01*
X207822395Y-108784394D01*
X207839093Y-108780324D01*
X207850157Y-108775878D01*
X207853874Y-108773704D01*
X207867960Y-108765341D01*
X207880911Y-108758240D01*
X207892772Y-108750547D01*
X207903593Y-108740407D01*
X207913420Y-108725966D01*
X207922300Y-108705369D01*
X207930282Y-108676761D01*
X207937412Y-108638289D01*
X207943738Y-108588097D01*
X207949308Y-108524331D01*
X207954168Y-108445136D01*
X207958366Y-108348658D01*
X207961950Y-108233042D01*
X207964968Y-108096435D01*
X207967465Y-107936980D01*
X207969490Y-107752825D01*
X207971091Y-107542114D01*
X207972314Y-107302992D01*
X207973208Y-107033605D01*
X207973819Y-106732100D01*
X207974194Y-106396620D01*
X207974383Y-106025312D01*
X207974431Y-105616321D01*
X207974386Y-105167792D01*
X207974295Y-104677872D01*
X207974207Y-104144705D01*
X207974198Y-104067595D01*
X207974111Y-103531255D01*
X207973969Y-103038425D01*
X207973758Y-102587258D01*
X207973462Y-102175907D01*
X207973067Y-101802524D01*
X207972559Y-101465262D01*
X207971924Y-101162275D01*
X207971146Y-100891714D01*
X207970211Y-100651733D01*
X207969105Y-100440485D01*
X207967813Y-100256122D01*
X207966320Y-100096798D01*
X207964613Y-99960665D01*
X207962676Y-99845875D01*
X207960496Y-99750583D01*
X207958057Y-99672940D01*
X207955345Y-99611100D01*
X207952346Y-99563215D01*
X207949045Y-99527438D01*
X207945427Y-99501922D01*
X207941479Y-99484819D01*
X207938127Y-99476065D01*
X207930954Y-99459065D01*
X207925659Y-99443458D01*
X207920362Y-99429184D01*
X207913188Y-99416184D01*
X207902256Y-99404400D01*
X207885691Y-99393772D01*
X207861614Y-99384241D01*
X207828147Y-99375747D01*
X207783413Y-99368231D01*
X207725533Y-99361634D01*
X207652631Y-99355896D01*
X207562828Y-99350960D01*
X207454246Y-99346764D01*
X207325007Y-99343250D01*
X207173235Y-99340359D01*
X206997050Y-99338032D01*
X206794576Y-99336209D01*
X206563935Y-99334830D01*
X206303248Y-99333838D01*
X206010638Y-99333172D01*
X205684227Y-99332773D01*
X205322138Y-99332583D01*
X204922492Y-99332541D01*
X204483412Y-99332588D01*
X204003020Y-99332666D01*
X203479438Y-99332714D01*
X203394759Y-99332715D01*
X202866618Y-99332687D01*
X202381943Y-99332637D01*
X201938841Y-99332615D01*
X201535421Y-99332674D01*
X201169791Y-99332864D01*
X200840060Y-99333237D01*
X200544334Y-99333846D01*
X200280724Y-99334740D01*
X200059893Y-99335904D01*
X200059893Y-99944284D01*
X200176098Y-100024219D01*
X200207775Y-100046660D01*
X200235823Y-100066891D01*
X200262628Y-100085027D01*
X200290571Y-100101180D01*
X200322036Y-100115466D01*
X200359406Y-100127999D01*
X200405066Y-100138893D01*
X200461399Y-100148261D01*
X200530787Y-100156218D01*
X200615614Y-100162878D01*
X200718264Y-100168356D01*
X200841120Y-100172764D01*
X200986566Y-100176218D01*
X201156984Y-100178832D01*
X201354759Y-100180719D01*
X201582274Y-100181994D01*
X201841911Y-100182770D01*
X202136055Y-100183163D01*
X202467090Y-100183286D01*
X202837397Y-100183253D01*
X203249361Y-100183178D01*
X203495696Y-100183161D01*
X203931532Y-100183209D01*
X204324396Y-100183277D01*
X204676675Y-100183253D01*
X204990756Y-100183023D01*
X205269025Y-100182475D01*
X205513867Y-100181496D01*
X205727669Y-100179972D01*
X205912817Y-100177791D01*
X206071696Y-100174840D01*
X206206694Y-100171006D01*
X206320196Y-100166175D01*
X206414588Y-100160235D01*
X206492257Y-100153074D01*
X206555588Y-100144577D01*
X206606968Y-100134632D01*
X206648783Y-100123127D01*
X206683418Y-100109947D01*
X206713261Y-100094981D01*
X206740696Y-100078115D01*
X206768111Y-100059236D01*
X206797891Y-100038232D01*
X206815752Y-100025996D01*
X206931500Y-99948103D01*
X206931500Y-101015977D01*
X206931430Y-101263575D01*
X206931128Y-101469482D01*
X206930452Y-101637363D01*
X206929261Y-101770884D01*
X206927415Y-101873710D01*
X206924772Y-101949508D01*
X206921193Y-102001943D01*
X206916535Y-102034680D01*
X206910659Y-102051386D01*
X206903423Y-102055725D01*
X206894686Y-102051364D01*
X206891812Y-102048961D01*
X206817339Y-101998437D01*
X206711265Y-101946410D01*
X206586708Y-101898981D01*
X206533646Y-101882369D01*
X206497603Y-101873094D01*
X206455293Y-101865256D01*
X206402526Y-101858690D01*
X206335113Y-101853231D01*
X206248863Y-101848712D01*
X206139588Y-101844970D01*
X206003098Y-101841839D01*
X205835203Y-101839155D01*
X205631714Y-101836751D01*
X205388441Y-101834463D01*
X205298643Y-101833705D01*
X205047223Y-101831663D01*
X204837557Y-101830139D01*
X204666046Y-101829250D01*
X204529088Y-101829114D01*
X204423082Y-101829848D01*
X204344429Y-101831570D01*
X204289527Y-101834396D01*
X204254776Y-101838445D01*
X204236575Y-101843834D01*
X204231323Y-101850679D01*
X204235420Y-101859099D01*
X204244089Y-101868087D01*
X204270075Y-101888889D01*
X204328483Y-101933202D01*
X204415033Y-101997891D01*
X204525443Y-102079821D01*
X204655430Y-102175856D01*
X204800714Y-102282861D01*
X204957013Y-102397701D01*
X205120045Y-102517240D01*
X205285529Y-102638342D01*
X205449183Y-102757873D01*
X205606725Y-102872696D01*
X205753874Y-102979678D01*
X205886349Y-103075682D01*
X205999866Y-103157572D01*
X206090146Y-103222214D01*
X206152907Y-103266472D01*
X206166231Y-103275649D01*
X206240366Y-103321697D01*
X206336774Y-103375553D01*
X206436292Y-103426577D01*
X206449713Y-103433047D01*
X206546534Y-103476596D01*
X206621992Y-103501881D01*
X206693963Y-103513392D01*
X206778420Y-103515638D01*
X206931500Y-103514365D01*
X206931500Y-105833550D01*
X206743201Y-105650409D01*
X206642967Y-105556397D01*
X206529504Y-105455373D01*
X206420480Y-105362873D01*
X206369549Y-105321840D01*
X206290105Y-105260691D01*
X206183207Y-105180225D01*
X206052126Y-105082793D01*
X205900138Y-104970748D01*
X205730516Y-104846443D01*
X205546532Y-104712231D01*
X205351462Y-104570464D01*
X205148577Y-104423495D01*
X204941153Y-104273678D01*
X204732462Y-104123364D01*
X204525779Y-103974906D01*
X204324376Y-103830658D01*
X204131527Y-103692971D01*
X203950506Y-103564199D01*
X203784586Y-103446694D01*
X203637041Y-103342810D01*
X203511145Y-103254898D01*
X203410171Y-103185312D01*
X203337393Y-103136405D01*
X203296084Y-103110528D01*
X203287843Y-103106996D01*
X203265089Y-103122986D01*
X203210486Y-103164761D01*
X203127451Y-103229584D01*
X203019400Y-103314716D01*
X202889749Y-103417419D01*
X202741914Y-103534955D01*
X202579312Y-103664584D01*
X202405360Y-103803568D01*
X202223472Y-103949170D01*
X202037066Y-104098650D01*
X201887687Y-104218642D01*
X201887687Y-106249679D01*
X201913717Y-106261551D01*
X201958414Y-106290338D01*
X201961392Y-106292442D01*
X202021967Y-106330184D01*
X202095959Y-106369653D01*
X202112304Y-106377486D01*
X202129237Y-106384590D01*
X202149565Y-106390868D01*
X202176086Y-106396382D01*
X202211598Y-106401191D01*
X202258901Y-106405356D01*
X202320794Y-106408939D01*
X202400074Y-106411999D01*
X202499541Y-106414596D01*
X202621993Y-106416792D01*
X202770228Y-106418647D01*
X202947046Y-106420221D01*
X203155246Y-106421576D01*
X203397625Y-106422770D01*
X203676983Y-106423866D01*
X203996118Y-106424923D01*
X204355428Y-106425996D01*
X204727317Y-106427077D01*
X205056658Y-106427950D01*
X205346261Y-106428479D01*
X205598935Y-106428529D01*
X205817490Y-106427964D01*
X206004735Y-106426650D01*
X206163480Y-106424450D01*
X206296535Y-106421229D01*
X206406708Y-106416851D01*
X206496809Y-106411182D01*
X206569648Y-106404086D01*
X206628034Y-106395427D01*
X206674777Y-106385070D01*
X206712686Y-106372879D01*
X206744570Y-106358720D01*
X206773240Y-106342456D01*
X206801504Y-106323953D01*
X206826550Y-106306876D01*
X206879373Y-106272451D01*
X206914698Y-106252068D01*
X206921168Y-106249679D01*
X206923332Y-106271590D01*
X206925342Y-106334255D01*
X206927150Y-106433070D01*
X206928708Y-106563431D01*
X206929967Y-106720735D01*
X206930880Y-106900379D01*
X206931398Y-107097759D01*
X206931500Y-107236197D01*
X206931057Y-107447120D01*
X206929788Y-107641669D01*
X206927782Y-107815446D01*
X206925126Y-107964056D01*
X206921910Y-108083102D01*
X206918223Y-108168188D01*
X206914153Y-108214916D01*
X206911598Y-108222715D01*
X206881659Y-108207251D01*
X206865527Y-108191182D01*
X206831121Y-108164721D01*
X206770349Y-108130088D01*
X206721009Y-108106138D01*
X206602661Y-108052625D01*
X204238420Y-108046448D01*
X201874178Y-108040270D01*
X201874179Y-107144974D01*
X201874509Y-106948468D01*
X201875450Y-106766873D01*
X201876930Y-106605021D01*
X201878875Y-106467747D01*
X201881214Y-106359880D01*
X201883872Y-106286255D01*
X201886777Y-106251703D01*
X201887687Y-106249679D01*
X201887687Y-104218642D01*
X201849558Y-104249271D01*
X201664364Y-104398293D01*
X201484901Y-104542979D01*
X201314584Y-104680589D01*
X201156831Y-104808386D01*
X201015057Y-104923631D01*
X200892679Y-105023586D01*
X200793112Y-105105512D01*
X200751589Y-105139994D01*
X200549368Y-105313349D01*
X200382109Y-105467231D01*
X200245863Y-105605472D01*
X200136679Y-105731905D01*
X200121878Y-105750750D01*
X200060396Y-105830125D01*
X200060144Y-104693313D01*
X200059893Y-103556500D01*
X200156277Y-103567126D01*
X200271476Y-103560490D01*
X200408635Y-103517236D01*
X200568846Y-103436929D01*
X200714057Y-103345911D01*
X200759550Y-103313329D01*
X200834997Y-103256972D01*
X200936095Y-103180199D01*
X201058544Y-103086369D01*
X201198040Y-102978842D01*
X201350283Y-102860978D01*
X201510969Y-102736135D01*
X201675797Y-102607673D01*
X201840465Y-102478952D01*
X202000671Y-102353331D01*
X202152112Y-102234170D01*
X202290487Y-102124828D01*
X202411494Y-102028664D01*
X202510831Y-101949038D01*
X202584195Y-101889309D01*
X202627285Y-101852838D01*
X202633911Y-101846694D01*
X202617826Y-101840949D01*
X202556968Y-101836502D01*
X202451902Y-101833360D01*
X202303192Y-101831532D01*
X202111404Y-101831023D01*
X201877103Y-101831841D01*
X201636054Y-101833667D01*
X201370651Y-101836324D01*
X201146176Y-101839387D01*
X200958201Y-101843356D01*
X200802298Y-101848731D01*
X200674036Y-101856011D01*
X200568989Y-101865696D01*
X200482727Y-101878286D01*
X200410821Y-101894280D01*
X200348843Y-101914178D01*
X200292364Y-101938480D01*
X200236956Y-101967684D01*
X200186655Y-101997180D01*
X200059893Y-102073513D01*
X200059893Y-99944284D01*
X200059893Y-99335904D01*
X200047337Y-99335971D01*
X199842281Y-99337591D01*
X199663665Y-99339651D01*
X199509596Y-99342202D01*
X199378184Y-99345296D01*
X199267535Y-99348984D01*
X199175760Y-99353317D01*
X199100965Y-99358347D01*
X199041259Y-99364125D01*
X198994750Y-99370702D01*
X198959547Y-99378131D01*
X198933757Y-99386461D01*
X198915490Y-99395745D01*
X198902852Y-99406034D01*
X198893954Y-99417379D01*
X198886902Y-99429832D01*
X198879804Y-99443444D01*
X198872636Y-99455490D01*
X198867461Y-99466002D01*
X198862783Y-99482427D01*
X198858577Y-99506962D01*
X198854818Y-99541807D01*
X198851483Y-99589161D01*
X198848544Y-99651222D01*
X198845979Y-99730189D01*
X198843762Y-99828262D01*
X198841868Y-99947639D01*
X198840273Y-100090519D01*
X198838951Y-100259102D01*
X198837878Y-100455585D01*
X198837029Y-100682168D01*
X198836380Y-100941050D01*
X198835904Y-101234430D01*
X198835578Y-101564507D01*
X198835377Y-101933479D01*
X198835276Y-102343546D01*
X198835250Y-102767720D01*
X198835250Y-106022893D01*
X199029689Y-106022893D01*
G36*
X199953830Y-112601791D02*
X199996366Y-112923503D01*
X200077005Y-113252847D01*
X200196544Y-113593969D01*
X200355783Y-113951015D01*
X200366922Y-113973651D01*
X200423223Y-114089556D01*
X200471593Y-114193111D01*
X200508652Y-114276760D01*
X200531025Y-114332951D01*
X200536143Y-114352179D01*
X200546203Y-114390784D01*
X200554652Y-114400048D01*
X200575611Y-114389796D01*
X200628422Y-114357573D01*
X200707551Y-114307088D01*
X200807463Y-114242051D01*
X200922625Y-114166172D01*
X201047501Y-114083161D01*
X201176558Y-113996729D01*
X201304261Y-113910583D01*
X201425076Y-113828436D01*
X201533469Y-113753996D01*
X201623905Y-113690974D01*
X201690851Y-113643079D01*
X201728771Y-113614021D01*
X201733169Y-113610033D01*
X201723831Y-113589706D01*
X201689324Y-113544825D01*
X201636045Y-113483411D01*
X201606963Y-113451783D01*
X201455728Y-113257943D01*
X201344351Y-113043569D01*
X201273836Y-112811529D01*
X201245188Y-112564692D01*
X201247540Y-112425272D01*
X201282015Y-112181913D01*
X201354100Y-111962502D01*
X201464320Y-111766385D01*
X201613203Y-111592905D01*
X201801275Y-111441407D01*
X202029064Y-111311234D01*
X202203018Y-111236065D01*
X202475629Y-111147968D01*
X202771913Y-111083039D01*
X203084229Y-111041110D01*
X203404938Y-111022013D01*
X203726400Y-111025582D01*
X204040975Y-111051649D01*
X204341022Y-111100047D01*
X204618901Y-111170609D01*
X204866973Y-111263167D01*
X204935786Y-111295876D01*
X205164977Y-111432978D01*
X205358824Y-111594616D01*
X205515748Y-111778415D01*
X205634168Y-111982001D01*
X205712506Y-112203001D01*
X205749181Y-112439040D01*
X205751879Y-112522346D01*
X205729940Y-112766548D01*
X205664014Y-113008498D01*
X205555463Y-113245125D01*
X205405648Y-113473362D01*
X205248296Y-113656993D01*
X205158837Y-113750469D01*
X205756017Y-114114623D01*
X205905004Y-114205221D01*
X206042039Y-114288065D01*
X206162199Y-114360218D01*
X206260558Y-114418741D01*
X206332194Y-114460695D01*
X206372182Y-114483142D01*
X206378399Y-114486059D01*
X206397764Y-114469527D01*
X206432479Y-114418141D01*
X206479256Y-114338398D01*
X206534805Y-114236794D01*
X206595839Y-114119828D01*
X206659070Y-113993996D01*
X206721209Y-113865794D01*
X206778968Y-113741720D01*
X206829060Y-113628271D01*
X206868196Y-113531944D01*
X206885130Y-113484830D01*
X206961097Y-113216105D01*
X207011326Y-112939086D01*
X207037450Y-112642357D01*
X207042127Y-112387648D01*
X207039928Y-112251130D01*
X207035714Y-112119342D01*
X207030005Y-112003969D01*
X207023320Y-111916695D01*
X207019938Y-111888359D01*
X206962010Y-111609088D01*
X206871368Y-111324771D01*
X206753408Y-111048579D01*
X206613527Y-110793686D01*
X206507697Y-110637982D01*
X206290328Y-110382030D01*
X206036063Y-110144368D01*
X205751187Y-109929399D01*
X205441982Y-109741525D01*
X205114731Y-109585147D01*
X204879089Y-109497046D01*
X204510195Y-109396102D01*
X204119364Y-109328806D01*
X203715055Y-109295135D01*
X203305722Y-109295069D01*
X202899823Y-109328588D01*
X202505814Y-109395669D01*
X202132152Y-109496292D01*
X202108872Y-109503959D01*
X201783318Y-109630287D01*
X201486163Y-109784467D01*
X201208996Y-109971728D01*
X200943408Y-110197301D01*
X200852479Y-110285423D01*
X200603489Y-110558923D01*
X200397489Y-110840085D01*
X200232237Y-111133227D01*
X200105490Y-111442665D01*
X200015005Y-111772713D01*
X199979869Y-111964679D01*
X199948597Y-112283565D01*
X199953830Y-112601791D01*
X199953830Y-112601791D01*
G37*
X199953830Y-112601791D02*
X199996366Y-112923503D01*
X200077005Y-113252847D01*
X200196544Y-113593969D01*
X200355783Y-113951015D01*
X200366922Y-113973651D01*
X200423223Y-114089556D01*
X200471593Y-114193111D01*
X200508652Y-114276760D01*
X200531025Y-114332951D01*
X200536143Y-114352179D01*
X200546203Y-114390784D01*
X200554652Y-114400048D01*
X200575611Y-114389796D01*
X200628422Y-114357573D01*
X200707551Y-114307088D01*
X200807463Y-114242051D01*
X200922625Y-114166172D01*
X201047501Y-114083161D01*
X201176558Y-113996729D01*
X201304261Y-113910583D01*
X201425076Y-113828436D01*
X201533469Y-113753996D01*
X201623905Y-113690974D01*
X201690851Y-113643079D01*
X201728771Y-113614021D01*
X201733169Y-113610033D01*
X201723831Y-113589706D01*
X201689324Y-113544825D01*
X201636045Y-113483411D01*
X201606963Y-113451783D01*
X201455728Y-113257943D01*
X201344351Y-113043569D01*
X201273836Y-112811529D01*
X201245188Y-112564692D01*
X201247540Y-112425272D01*
X201282015Y-112181913D01*
X201354100Y-111962502D01*
X201464320Y-111766385D01*
X201613203Y-111592905D01*
X201801275Y-111441407D01*
X202029064Y-111311234D01*
X202203018Y-111236065D01*
X202475629Y-111147968D01*
X202771913Y-111083039D01*
X203084229Y-111041110D01*
X203404938Y-111022013D01*
X203726400Y-111025582D01*
X204040975Y-111051649D01*
X204341022Y-111100047D01*
X204618901Y-111170609D01*
X204866973Y-111263167D01*
X204935786Y-111295876D01*
X205164977Y-111432978D01*
X205358824Y-111594616D01*
X205515748Y-111778415D01*
X205634168Y-111982001D01*
X205712506Y-112203001D01*
X205749181Y-112439040D01*
X205751879Y-112522346D01*
X205729940Y-112766548D01*
X205664014Y-113008498D01*
X205555463Y-113245125D01*
X205405648Y-113473362D01*
X205248296Y-113656993D01*
X205158837Y-113750469D01*
X205756017Y-114114623D01*
X205905004Y-114205221D01*
X206042039Y-114288065D01*
X206162199Y-114360218D01*
X206260558Y-114418741D01*
X206332194Y-114460695D01*
X206372182Y-114483142D01*
X206378399Y-114486059D01*
X206397764Y-114469527D01*
X206432479Y-114418141D01*
X206479256Y-114338398D01*
X206534805Y-114236794D01*
X206595839Y-114119828D01*
X206659070Y-113993996D01*
X206721209Y-113865794D01*
X206778968Y-113741720D01*
X206829060Y-113628271D01*
X206868196Y-113531944D01*
X206885130Y-113484830D01*
X206961097Y-113216105D01*
X207011326Y-112939086D01*
X207037450Y-112642357D01*
X207042127Y-112387648D01*
X207039928Y-112251130D01*
X207035714Y-112119342D01*
X207030005Y-112003969D01*
X207023320Y-111916695D01*
X207019938Y-111888359D01*
X206962010Y-111609088D01*
X206871368Y-111324771D01*
X206753408Y-111048579D01*
X206613527Y-110793686D01*
X206507697Y-110637982D01*
X206290328Y-110382030D01*
X206036063Y-110144368D01*
X205751187Y-109929399D01*
X205441982Y-109741525D01*
X205114731Y-109585147D01*
X204879089Y-109497046D01*
X204510195Y-109396102D01*
X204119364Y-109328806D01*
X203715055Y-109295135D01*
X203305722Y-109295069D01*
X202899823Y-109328588D01*
X202505814Y-109395669D01*
X202132152Y-109496292D01*
X202108872Y-109503959D01*
X201783318Y-109630287D01*
X201486163Y-109784467D01*
X201208996Y-109971728D01*
X200943408Y-110197301D01*
X200852479Y-110285423D01*
X200603489Y-110558923D01*
X200397489Y-110840085D01*
X200232237Y-111133227D01*
X200105490Y-111442665D01*
X200015005Y-111772713D01*
X199979869Y-111964679D01*
X199948597Y-112283565D01*
X199953830Y-112601791D01*
G36*
X201796984Y-117313019D02*
X201837192Y-117618212D01*
X201904762Y-117889948D01*
X202000233Y-118129981D01*
X202124143Y-118340066D01*
X202251831Y-118495978D01*
X202400761Y-118634274D01*
X202561017Y-118742236D01*
X202746281Y-118828427D01*
X202832805Y-118859514D01*
X202911115Y-118885347D01*
X202983732Y-118907851D01*
X203054336Y-118927286D01*
X203126610Y-118943912D01*
X203204234Y-118957989D01*
X203290890Y-118969779D01*
X203390259Y-118979540D01*
X203506022Y-118987535D01*
X203641861Y-118994022D01*
X203801457Y-118999264D01*
X203988491Y-119003519D01*
X204206644Y-119007048D01*
X204459598Y-119010112D01*
X204751033Y-119012972D01*
X205037839Y-119015487D01*
X205351615Y-119018152D01*
X205623364Y-119020574D01*
X205856413Y-119023004D01*
X206054090Y-119025695D01*
X206219722Y-119028899D01*
X206356636Y-119032866D01*
X206468160Y-119037851D01*
X206557622Y-119044103D01*
X206628348Y-119051876D01*
X206683666Y-119061420D01*
X206726903Y-119072989D01*
X206761388Y-119086834D01*
X206790446Y-119103207D01*
X206817406Y-119122359D01*
X206845594Y-119144543D01*
X206856509Y-119153183D01*
X206902390Y-119184963D01*
X206933635Y-119199098D01*
X206934558Y-119199143D01*
X206938975Y-119177292D01*
X206943045Y-119115044D01*
X206946652Y-119017361D01*
X206949683Y-118889204D01*
X206952023Y-118735532D01*
X206953558Y-118561307D01*
X206954172Y-118371490D01*
X206954179Y-118349580D01*
X206954179Y-117500016D01*
X206761188Y-117493464D01*
X206568197Y-117486911D01*
X206670627Y-117362179D01*
X206806257Y-117166650D01*
X206916129Y-116945866D01*
X206976857Y-116772165D01*
X207006365Y-116633407D01*
X207026440Y-116465958D01*
X207036458Y-116285624D01*
X207035790Y-116108207D01*
X207023812Y-115949513D01*
X207012334Y-115876732D01*
X206936272Y-115595445D01*
X206826096Y-115341465D01*
X206683446Y-115116629D01*
X206509962Y-114922774D01*
X206307284Y-114761734D01*
X206077054Y-114635346D01*
X205823745Y-114546199D01*
X205710073Y-114521420D01*
X205585119Y-114506133D01*
X205434774Y-114498843D01*
X205366679Y-114497849D01*
X205360280Y-114497980D01*
X205360280Y-116024641D01*
X205511053Y-116043312D01*
X205639277Y-116099937D01*
X205751050Y-116197307D01*
X205759914Y-116207466D01*
X205829879Y-116304486D01*
X205875244Y-116408365D01*
X205899192Y-116530371D01*
X205904904Y-116681770D01*
X205904090Y-116718147D01*
X205898761Y-116826264D01*
X205887880Y-116906681D01*
X205867462Y-116977027D01*
X205833520Y-117054931D01*
X205823117Y-117076310D01*
X205751141Y-117198154D01*
X205665496Y-117292209D01*
X205634884Y-117317797D01*
X205521356Y-117407536D01*
X205127855Y-117407536D01*
X204969860Y-117406460D01*
X204853441Y-117403065D01*
X204774865Y-117397102D01*
X204730399Y-117388321D01*
X204717408Y-117380115D01*
X204711052Y-117348122D01*
X204705784Y-117280254D01*
X204702101Y-117185987D01*
X204700499Y-117074800D01*
X204700469Y-117056945D01*
X204711023Y-116814316D01*
X204743502Y-116608059D01*
X204799145Y-116434179D01*
X204879195Y-116288681D01*
X204973514Y-116178331D01*
X205089804Y-116088839D01*
X205216463Y-116039170D01*
X205360280Y-116024641D01*
X205360280Y-114497980D01*
X205178331Y-114501733D01*
X205019828Y-114518496D01*
X204876747Y-114551133D01*
X204734665Y-114602635D01*
X204629454Y-114650842D01*
X204438009Y-114768603D01*
X204261171Y-114925494D01*
X204102160Y-115116741D01*
X203964192Y-115337569D01*
X203850488Y-115583205D01*
X203764265Y-115848874D01*
X203734253Y-115978786D01*
X203689846Y-116252365D01*
X203660549Y-116550582D01*
X203647731Y-116854846D01*
X203651010Y-117109093D01*
X203664629Y-117434312D01*
X203546145Y-117419406D01*
X203346953Y-117380648D01*
X203184792Y-117318103D01*
X203058418Y-117230041D01*
X202966590Y-117114732D01*
X202908063Y-116970446D01*
X202881594Y-116795453D01*
X202885941Y-116588022D01*
X202893979Y-116511732D01*
X202944539Y-116228091D01*
X203026974Y-115953243D01*
X203103316Y-115763340D01*
X203142238Y-115672617D01*
X203173518Y-115595409D01*
X203192893Y-115542471D01*
X203197007Y-115527026D01*
X203178769Y-115507450D01*
X203120571Y-115473864D01*
X203021757Y-115425950D01*
X202881669Y-115363393D01*
X202699649Y-115285877D01*
X202667929Y-115272623D01*
X202522649Y-115212242D01*
X202391371Y-115158042D01*
X202279837Y-115112364D01*
X202193787Y-115077548D01*
X202138961Y-115055936D01*
X202121204Y-115049695D01*
X202111652Y-115069782D01*
X202101051Y-115122570D01*
X202093659Y-115179366D01*
X202084103Y-115239950D01*
X202065128Y-115335951D01*
X202038594Y-115458856D01*
X202006361Y-115600150D01*
X201970289Y-115751320D01*
X201956182Y-115808697D01*
X201904777Y-116019757D01*
X201864473Y-116195867D01*
X201833982Y-116345709D01*
X201812016Y-116477967D01*
X201797289Y-116601324D01*
X201788511Y-116724460D01*
X201784397Y-116856061D01*
X201783598Y-116972614D01*
X201796984Y-117313019D01*
X201796984Y-117313019D01*
G37*
X201796984Y-117313019D02*
X201837192Y-117618212D01*
X201904762Y-117889948D01*
X202000233Y-118129981D01*
X202124143Y-118340066D01*
X202251831Y-118495978D01*
X202400761Y-118634274D01*
X202561017Y-118742236D01*
X202746281Y-118828427D01*
X202832805Y-118859514D01*
X202911115Y-118885347D01*
X202983732Y-118907851D01*
X203054336Y-118927286D01*
X203126610Y-118943912D01*
X203204234Y-118957989D01*
X203290890Y-118969779D01*
X203390259Y-118979540D01*
X203506022Y-118987535D01*
X203641861Y-118994022D01*
X203801457Y-118999264D01*
X203988491Y-119003519D01*
X204206644Y-119007048D01*
X204459598Y-119010112D01*
X204751033Y-119012972D01*
X205037839Y-119015487D01*
X205351615Y-119018152D01*
X205623364Y-119020574D01*
X205856413Y-119023004D01*
X206054090Y-119025695D01*
X206219722Y-119028899D01*
X206356636Y-119032866D01*
X206468160Y-119037851D01*
X206557622Y-119044103D01*
X206628348Y-119051876D01*
X206683666Y-119061420D01*
X206726903Y-119072989D01*
X206761388Y-119086834D01*
X206790446Y-119103207D01*
X206817406Y-119122359D01*
X206845594Y-119144543D01*
X206856509Y-119153183D01*
X206902390Y-119184963D01*
X206933635Y-119199098D01*
X206934558Y-119199143D01*
X206938975Y-119177292D01*
X206943045Y-119115044D01*
X206946652Y-119017361D01*
X206949683Y-118889204D01*
X206952023Y-118735532D01*
X206953558Y-118561307D01*
X206954172Y-118371490D01*
X206954179Y-118349580D01*
X206954179Y-117500016D01*
X206761188Y-117493464D01*
X206568197Y-117486911D01*
X206670627Y-117362179D01*
X206806257Y-117166650D01*
X206916129Y-116945866D01*
X206976857Y-116772165D01*
X207006365Y-116633407D01*
X207026440Y-116465958D01*
X207036458Y-116285624D01*
X207035790Y-116108207D01*
X207023812Y-115949513D01*
X207012334Y-115876732D01*
X206936272Y-115595445D01*
X206826096Y-115341465D01*
X206683446Y-115116629D01*
X206509962Y-114922774D01*
X206307284Y-114761734D01*
X206077054Y-114635346D01*
X205823745Y-114546199D01*
X205710073Y-114521420D01*
X205585119Y-114506133D01*
X205434774Y-114498843D01*
X205366679Y-114497849D01*
X205360280Y-114497980D01*
X205360280Y-116024641D01*
X205511053Y-116043312D01*
X205639277Y-116099937D01*
X205751050Y-116197307D01*
X205759914Y-116207466D01*
X205829879Y-116304486D01*
X205875244Y-116408365D01*
X205899192Y-116530371D01*
X205904904Y-116681770D01*
X205904090Y-116718147D01*
X205898761Y-116826264D01*
X205887880Y-116906681D01*
X205867462Y-116977027D01*
X205833520Y-117054931D01*
X205823117Y-117076310D01*
X205751141Y-117198154D01*
X205665496Y-117292209D01*
X205634884Y-117317797D01*
X205521356Y-117407536D01*
X205127855Y-117407536D01*
X204969860Y-117406460D01*
X204853441Y-117403065D01*
X204774865Y-117397102D01*
X204730399Y-117388321D01*
X204717408Y-117380115D01*
X204711052Y-117348122D01*
X204705784Y-117280254D01*
X204702101Y-117185987D01*
X204700499Y-117074800D01*
X204700469Y-117056945D01*
X204711023Y-116814316D01*
X204743502Y-116608059D01*
X204799145Y-116434179D01*
X204879195Y-116288681D01*
X204973514Y-116178331D01*
X205089804Y-116088839D01*
X205216463Y-116039170D01*
X205360280Y-116024641D01*
X205360280Y-114497980D01*
X205178331Y-114501733D01*
X205019828Y-114518496D01*
X204876747Y-114551133D01*
X204734665Y-114602635D01*
X204629454Y-114650842D01*
X204438009Y-114768603D01*
X204261171Y-114925494D01*
X204102160Y-115116741D01*
X203964192Y-115337569D01*
X203850488Y-115583205D01*
X203764265Y-115848874D01*
X203734253Y-115978786D01*
X203689846Y-116252365D01*
X203660549Y-116550582D01*
X203647731Y-116854846D01*
X203651010Y-117109093D01*
X203664629Y-117434312D01*
X203546145Y-117419406D01*
X203346953Y-117380648D01*
X203184792Y-117318103D01*
X203058418Y-117230041D01*
X202966590Y-117114732D01*
X202908063Y-116970446D01*
X202881594Y-116795453D01*
X202885941Y-116588022D01*
X202893979Y-116511732D01*
X202944539Y-116228091D01*
X203026974Y-115953243D01*
X203103316Y-115763340D01*
X203142238Y-115672617D01*
X203173518Y-115595409D01*
X203192893Y-115542471D01*
X203197007Y-115527026D01*
X203178769Y-115507450D01*
X203120571Y-115473864D01*
X203021757Y-115425950D01*
X202881669Y-115363393D01*
X202699649Y-115285877D01*
X202667929Y-115272623D01*
X202522649Y-115212242D01*
X202391371Y-115158042D01*
X202279837Y-115112364D01*
X202193787Y-115077548D01*
X202138961Y-115055936D01*
X202121204Y-115049695D01*
X202111652Y-115069782D01*
X202101051Y-115122570D01*
X202093659Y-115179366D01*
X202084103Y-115239950D01*
X202065128Y-115335951D01*
X202038594Y-115458856D01*
X202006361Y-115600150D01*
X201970289Y-115751320D01*
X201956182Y-115808697D01*
X201904777Y-116019757D01*
X201864473Y-116195867D01*
X201833982Y-116345709D01*
X201812016Y-116477967D01*
X201797289Y-116601324D01*
X201788511Y-116724460D01*
X201784397Y-116856061D01*
X201783598Y-116972614D01*
X201796984Y-117313019D01*
G36*
X203013777Y-124370251D02*
X203484705Y-124370290D01*
X203912488Y-124370342D01*
X204299338Y-124370488D01*
X204647466Y-124370805D01*
X204959085Y-124371371D01*
X205236406Y-124372265D01*
X205481640Y-124373565D01*
X205697001Y-124375349D01*
X205884700Y-124377697D01*
X206046948Y-124380685D01*
X206185957Y-124384393D01*
X206303940Y-124388899D01*
X206403109Y-124394282D01*
X206485674Y-124400619D01*
X206553848Y-124407988D01*
X206609843Y-124416470D01*
X206655870Y-124426141D01*
X206694143Y-124437079D01*
X206726871Y-124449365D01*
X206756268Y-124463075D01*
X206784544Y-124478288D01*
X206813913Y-124495083D01*
X206832207Y-124505516D01*
X206954179Y-124574352D01*
X206954179Y-122850393D01*
X206761411Y-122850393D01*
X206674296Y-122848923D01*
X206607671Y-122845002D01*
X206571950Y-122839359D01*
X206568643Y-122836864D01*
X206582472Y-122813918D01*
X206618317Y-122768286D01*
X206657239Y-122722684D01*
X206739072Y-122613027D01*
X206821445Y-122473450D01*
X206896791Y-122318659D01*
X206957543Y-122163360D01*
X206976926Y-122101380D01*
X207006188Y-121963773D01*
X207026199Y-121797331D01*
X207036331Y-121617746D01*
X207035956Y-121440713D01*
X207024445Y-121281925D01*
X207012777Y-121206197D01*
X206936314Y-120928770D01*
X206820351Y-120673031D01*
X206665942Y-120440355D01*
X206474144Y-120232119D01*
X206246012Y-120049701D01*
X206023426Y-119915501D01*
X205788872Y-119805276D01*
X205549108Y-119720900D01*
X205295996Y-119660639D01*
X205021398Y-119622759D01*
X204717174Y-119605526D01*
X204561589Y-119604066D01*
X204447527Y-119608274D01*
X204447527Y-121273909D01*
X204634495Y-121274327D01*
X204810658Y-121280179D01*
X204965506Y-121291554D01*
X205088527Y-121308540D01*
X205113319Y-121313730D01*
X205328843Y-121377616D01*
X205503670Y-121461306D01*
X205638237Y-121565498D01*
X205732983Y-121690891D01*
X205788350Y-121838185D01*
X205804774Y-122008077D01*
X205782695Y-122201267D01*
X205751111Y-122328786D01*
X205714569Y-122427511D01*
X205662642Y-122536252D01*
X205615026Y-122617938D01*
X205521877Y-122759679D01*
X203211225Y-122759679D01*
X203123701Y-122624262D01*
X203041490Y-122466510D01*
X202987951Y-122297387D01*
X202963996Y-122126379D01*
X202970539Y-121962971D01*
X203008493Y-121816647D01*
X203039770Y-121752454D01*
X203126148Y-121636088D01*
X203240199Y-121537736D01*
X203386092Y-121455060D01*
X203567992Y-121385721D01*
X203790069Y-121327380D01*
X203801857Y-121324806D01*
X203926921Y-121304374D01*
X204083229Y-121289021D01*
X204260268Y-121278837D01*
X204447527Y-121273909D01*
X204447527Y-119608274D01*
X204134058Y-119619839D01*
X203740637Y-119663924D01*
X203381587Y-119736214D01*
X203057170Y-119836606D01*
X202767646Y-119964995D01*
X202513276Y-120121278D01*
X202294321Y-120305350D01*
X202111042Y-120517107D01*
X202048864Y-120607839D01*
X201936068Y-120810638D01*
X201856492Y-121018141D01*
X201807957Y-121239300D01*
X201788280Y-121483066D01*
X201790380Y-121668903D01*
X201812410Y-121929369D01*
X201856236Y-122155562D01*
X201923872Y-122354027D01*
X202017331Y-122531306D01*
X202086060Y-122629473D01*
X202130085Y-122688468D01*
X202160160Y-122732043D01*
X202169000Y-122748536D01*
X202147245Y-122751780D01*
X202085665Y-122754373D01*
X201989788Y-122756340D01*
X201865141Y-122757705D01*
X201717250Y-122758495D01*
X201551644Y-122758735D01*
X201373849Y-122758450D01*
X201189393Y-122757665D01*
X201003803Y-122756406D01*
X200822606Y-122754698D01*
X200651330Y-122752567D01*
X200495501Y-122750037D01*
X200360648Y-122747135D01*
X200252297Y-122743886D01*
X200175975Y-122740315D01*
X200161946Y-122739327D01*
X200020486Y-122724105D01*
X199909696Y-122700879D01*
X199815032Y-122665243D01*
X199721952Y-122612791D01*
X199702705Y-122600201D01*
X199629000Y-122551118D01*
X199629000Y-124369857D01*
X203013777Y-124370251D01*
X203013777Y-124370251D01*
G37*
X203013777Y-124370251D02*
X203484705Y-124370290D01*
X203912488Y-124370342D01*
X204299338Y-124370488D01*
X204647466Y-124370805D01*
X204959085Y-124371371D01*
X205236406Y-124372265D01*
X205481640Y-124373565D01*
X205697001Y-124375349D01*
X205884700Y-124377697D01*
X206046948Y-124380685D01*
X206185957Y-124384393D01*
X206303940Y-124388899D01*
X206403109Y-124394282D01*
X206485674Y-124400619D01*
X206553848Y-124407988D01*
X206609843Y-124416470D01*
X206655870Y-124426141D01*
X206694143Y-124437079D01*
X206726871Y-124449365D01*
X206756268Y-124463075D01*
X206784544Y-124478288D01*
X206813913Y-124495083D01*
X206832207Y-124505516D01*
X206954179Y-124574352D01*
X206954179Y-122850393D01*
X206761411Y-122850393D01*
X206674296Y-122848923D01*
X206607671Y-122845002D01*
X206571950Y-122839359D01*
X206568643Y-122836864D01*
X206582472Y-122813918D01*
X206618317Y-122768286D01*
X206657239Y-122722684D01*
X206739072Y-122613027D01*
X206821445Y-122473450D01*
X206896791Y-122318659D01*
X206957543Y-122163360D01*
X206976926Y-122101380D01*
X207006188Y-121963773D01*
X207026199Y-121797331D01*
X207036331Y-121617746D01*
X207035956Y-121440713D01*
X207024445Y-121281925D01*
X207012777Y-121206197D01*
X206936314Y-120928770D01*
X206820351Y-120673031D01*
X206665942Y-120440355D01*
X206474144Y-120232119D01*
X206246012Y-120049701D01*
X206023426Y-119915501D01*
X205788872Y-119805276D01*
X205549108Y-119720900D01*
X205295996Y-119660639D01*
X205021398Y-119622759D01*
X204717174Y-119605526D01*
X204561589Y-119604066D01*
X204447527Y-119608274D01*
X204447527Y-121273909D01*
X204634495Y-121274327D01*
X204810658Y-121280179D01*
X204965506Y-121291554D01*
X205088527Y-121308540D01*
X205113319Y-121313730D01*
X205328843Y-121377616D01*
X205503670Y-121461306D01*
X205638237Y-121565498D01*
X205732983Y-121690891D01*
X205788350Y-121838185D01*
X205804774Y-122008077D01*
X205782695Y-122201267D01*
X205751111Y-122328786D01*
X205714569Y-122427511D01*
X205662642Y-122536252D01*
X205615026Y-122617938D01*
X205521877Y-122759679D01*
X203211225Y-122759679D01*
X203123701Y-122624262D01*
X203041490Y-122466510D01*
X202987951Y-122297387D01*
X202963996Y-122126379D01*
X202970539Y-121962971D01*
X203008493Y-121816647D01*
X203039770Y-121752454D01*
X203126148Y-121636088D01*
X203240199Y-121537736D01*
X203386092Y-121455060D01*
X203567992Y-121385721D01*
X203790069Y-121327380D01*
X203801857Y-121324806D01*
X203926921Y-121304374D01*
X204083229Y-121289021D01*
X204260268Y-121278837D01*
X204447527Y-121273909D01*
X204447527Y-119608274D01*
X204134058Y-119619839D01*
X203740637Y-119663924D01*
X203381587Y-119736214D01*
X203057170Y-119836606D01*
X202767646Y-119964995D01*
X202513276Y-120121278D01*
X202294321Y-120305350D01*
X202111042Y-120517107D01*
X202048864Y-120607839D01*
X201936068Y-120810638D01*
X201856492Y-121018141D01*
X201807957Y-121239300D01*
X201788280Y-121483066D01*
X201790380Y-121668903D01*
X201812410Y-121929369D01*
X201856236Y-122155562D01*
X201923872Y-122354027D01*
X202017331Y-122531306D01*
X202086060Y-122629473D01*
X202130085Y-122688468D01*
X202160160Y-122732043D01*
X202169000Y-122748536D01*
X202147245Y-122751780D01*
X202085665Y-122754373D01*
X201989788Y-122756340D01*
X201865141Y-122757705D01*
X201717250Y-122758495D01*
X201551644Y-122758735D01*
X201373849Y-122758450D01*
X201189393Y-122757665D01*
X201003803Y-122756406D01*
X200822606Y-122754698D01*
X200651330Y-122752567D01*
X200495501Y-122750037D01*
X200360648Y-122747135D01*
X200252297Y-122743886D01*
X200175975Y-122740315D01*
X200161946Y-122739327D01*
X200020486Y-122724105D01*
X199909696Y-122700879D01*
X199815032Y-122665243D01*
X199721952Y-122612791D01*
X199702705Y-122600201D01*
X199629000Y-122551118D01*
X199629000Y-124369857D01*
X203013777Y-124370251D01*
G36*
X198100594Y-107375620D02*
X198149286Y-107569030D01*
X198235332Y-107742971D01*
X198355421Y-107893260D01*
X198506243Y-108015716D01*
X198684486Y-108106155D01*
X198877967Y-108158914D01*
X199073364Y-108170668D01*
X199261920Y-108140827D01*
X199438419Y-108073126D01*
X199597645Y-107971297D01*
X199734385Y-107839075D01*
X199843422Y-107680192D01*
X199919540Y-107498383D01*
X199944498Y-107395394D01*
X199959608Y-107306001D01*
X199965579Y-107237091D01*
X199961913Y-107170876D01*
X199948113Y-107089566D01*
X199934100Y-107023078D01*
X199870800Y-106835412D01*
X199768096Y-106667319D01*
X199629102Y-106522584D01*
X199456935Y-106404993D01*
X199402214Y-106376971D01*
X199329155Y-106343949D01*
X199267803Y-106323240D01*
X199203252Y-106312059D01*
X199120599Y-106307620D01*
X199028018Y-106307061D01*
X198858549Y-106315271D01*
X198719373Y-106342221D01*
X198597582Y-106392826D01*
X198480272Y-106471998D01*
X198391349Y-106549438D01*
X198259125Y-106693864D01*
X198167855Y-106844721D01*
X198113208Y-107010962D01*
X198092567Y-107166922D01*
X198100594Y-107375620D01*
X198100594Y-107375620D01*
G37*
X198100594Y-107375620D02*
X198149286Y-107569030D01*
X198235332Y-107742971D01*
X198355421Y-107893260D01*
X198506243Y-108015716D01*
X198684486Y-108106155D01*
X198877967Y-108158914D01*
X199073364Y-108170668D01*
X199261920Y-108140827D01*
X199438419Y-108073126D01*
X199597645Y-107971297D01*
X199734385Y-107839075D01*
X199843422Y-107680192D01*
X199919540Y-107498383D01*
X199944498Y-107395394D01*
X199959608Y-107306001D01*
X199965579Y-107237091D01*
X199961913Y-107170876D01*
X199948113Y-107089566D01*
X199934100Y-107023078D01*
X199870800Y-106835412D01*
X199768096Y-106667319D01*
X199629102Y-106522584D01*
X199456935Y-106404993D01*
X199402214Y-106376971D01*
X199329155Y-106343949D01*
X199267803Y-106323240D01*
X199203252Y-106312059D01*
X199120599Y-106307620D01*
X199028018Y-106307061D01*
X198858549Y-106315271D01*
X198719373Y-106342221D01*
X198597582Y-106392826D01*
X198480272Y-106471998D01*
X198391349Y-106549438D01*
X198259125Y-106693864D01*
X198167855Y-106844721D01*
X198113208Y-107010962D01*
X198092567Y-107166922D01*
X198100594Y-107375620D01*
D11*
X136724000Y-132592000D02*
X136724000Y-134292000D01*
X136724000Y-134292000D02*
X133574000Y-134292000D01*
X136724000Y-132592000D02*
X133574000Y-132592000D01*
X151024000Y-132592000D02*
X151024000Y-134292000D01*
X151024000Y-134292000D02*
X147874000Y-134292000D01*
X151024000Y-132592000D02*
X147874000Y-132592000D01*
X165974000Y-132592000D02*
X165974000Y-134292000D01*
X165974000Y-134292000D02*
X162824000Y-134292000D01*
X165974000Y-132592000D02*
X162824000Y-132592000D01*
X179974000Y-132592000D02*
X179974000Y-134292000D01*
X179974000Y-134292000D02*
X176824000Y-134292000D01*
X179974000Y-132592000D02*
X176824000Y-132592000D01*
X193974000Y-132592000D02*
X193974000Y-134292000D01*
X193974000Y-134292000D02*
X190824000Y-134292000D01*
X193974000Y-132592000D02*
X190824000Y-132592000D01*
D12*
X150966857Y-103858666D02*
X150919238Y-103906285D01*
X150871619Y-104049142D01*
X150871619Y-104144380D01*
X150919238Y-104287238D01*
X151014476Y-104382476D01*
X151109714Y-104430095D01*
X151300190Y-104477714D01*
X151443047Y-104477714D01*
X151633523Y-104430095D01*
X151728761Y-104382476D01*
X151824000Y-104287238D01*
X151871619Y-104144380D01*
X151871619Y-104049142D01*
X151824000Y-103906285D01*
X151776380Y-103858666D01*
X150871619Y-102906285D02*
X150871619Y-103477714D01*
X150871619Y-103192000D02*
X151871619Y-103192000D01*
X151728761Y-103287238D01*
X151633523Y-103382476D01*
X151585904Y-103477714D01*
X134740666Y-144049142D02*
X134788285Y-144096761D01*
X134931142Y-144144380D01*
X135026380Y-144144380D01*
X135169238Y-144096761D01*
X135264476Y-144001523D01*
X135312095Y-143906285D01*
X135359714Y-143715809D01*
X135359714Y-143572952D01*
X135312095Y-143382476D01*
X135264476Y-143287238D01*
X135169238Y-143192000D01*
X135026380Y-143144380D01*
X134931142Y-143144380D01*
X134788285Y-143192000D01*
X134740666Y-143239619D01*
X134359714Y-143239619D02*
X134312095Y-143192000D01*
X134216857Y-143144380D01*
X133978761Y-143144380D01*
X133883523Y-143192000D01*
X133835904Y-143239619D01*
X133788285Y-143334857D01*
X133788285Y-143430095D01*
X133835904Y-143572952D01*
X134407333Y-144144380D01*
X133788285Y-144144380D01*
X149240666Y-144049142D02*
X149288285Y-144096761D01*
X149431142Y-144144380D01*
X149526380Y-144144380D01*
X149669238Y-144096761D01*
X149764476Y-144001523D01*
X149812095Y-143906285D01*
X149859714Y-143715809D01*
X149859714Y-143572952D01*
X149812095Y-143382476D01*
X149764476Y-143287238D01*
X149669238Y-143192000D01*
X149526380Y-143144380D01*
X149431142Y-143144380D01*
X149288285Y-143192000D01*
X149240666Y-143239619D01*
X148907333Y-143144380D02*
X148288285Y-143144380D01*
X148621619Y-143525333D01*
X148478761Y-143525333D01*
X148383523Y-143572952D01*
X148335904Y-143620571D01*
X148288285Y-143715809D01*
X148288285Y-143953904D01*
X148335904Y-144049142D01*
X148383523Y-144096761D01*
X148478761Y-144144380D01*
X148764476Y-144144380D01*
X148859714Y-144096761D01*
X148907333Y-144049142D01*
X163740666Y-144049142D02*
X163788285Y-144096761D01*
X163931142Y-144144380D01*
X164026380Y-144144380D01*
X164169238Y-144096761D01*
X164264476Y-144001523D01*
X164312095Y-143906285D01*
X164359714Y-143715809D01*
X164359714Y-143572952D01*
X164312095Y-143382476D01*
X164264476Y-143287238D01*
X164169238Y-143192000D01*
X164026380Y-143144380D01*
X163931142Y-143144380D01*
X163788285Y-143192000D01*
X163740666Y-143239619D01*
X162883523Y-143477714D02*
X162883523Y-144144380D01*
X163121619Y-143096761D02*
X163359714Y-143811047D01*
X162740666Y-143811047D01*
X177990666Y-144049142D02*
X178038285Y-144096761D01*
X178181142Y-144144380D01*
X178276380Y-144144380D01*
X178419238Y-144096761D01*
X178514476Y-144001523D01*
X178562095Y-143906285D01*
X178609714Y-143715809D01*
X178609714Y-143572952D01*
X178562095Y-143382476D01*
X178514476Y-143287238D01*
X178419238Y-143192000D01*
X178276380Y-143144380D01*
X178181142Y-143144380D01*
X178038285Y-143192000D01*
X177990666Y-143239619D01*
X177085904Y-143144380D02*
X177562095Y-143144380D01*
X177609714Y-143620571D01*
X177562095Y-143572952D01*
X177466857Y-143525333D01*
X177228761Y-143525333D01*
X177133523Y-143572952D01*
X177085904Y-143620571D01*
X177038285Y-143715809D01*
X177038285Y-143953904D01*
X177085904Y-144049142D01*
X177133523Y-144096761D01*
X177228761Y-144144380D01*
X177466857Y-144144380D01*
X177562095Y-144096761D01*
X177609714Y-144049142D01*
X192240666Y-144049142D02*
X192288285Y-144096761D01*
X192431142Y-144144380D01*
X192526380Y-144144380D01*
X192669238Y-144096761D01*
X192764476Y-144001523D01*
X192812095Y-143906285D01*
X192859714Y-143715809D01*
X192859714Y-143572952D01*
X192812095Y-143382476D01*
X192764476Y-143287238D01*
X192669238Y-143192000D01*
X192526380Y-143144380D01*
X192431142Y-143144380D01*
X192288285Y-143192000D01*
X192240666Y-143239619D01*
X191383523Y-143144380D02*
X191574000Y-143144380D01*
X191669238Y-143192000D01*
X191716857Y-143239619D01*
X191812095Y-143382476D01*
X191859714Y-143572952D01*
X191859714Y-143953904D01*
X191812095Y-144049142D01*
X191764476Y-144096761D01*
X191669238Y-144144380D01*
X191478761Y-144144380D01*
X191383523Y-144096761D01*
X191335904Y-144049142D01*
X191288285Y-143953904D01*
X191288285Y-143715809D01*
X191335904Y-143620571D01*
X191383523Y-143572952D01*
X191478761Y-143525333D01*
X191669238Y-143525333D01*
X191764476Y-143572952D01*
X191812095Y-143620571D01*
X191859714Y-143715809D01*
X137978761Y-137144380D02*
X137883523Y-137192000D01*
X137788285Y-137287238D01*
X137645428Y-137430095D01*
X137550190Y-137477714D01*
X137454952Y-137477714D01*
X137502571Y-137239619D02*
X137407333Y-137287238D01*
X137312095Y-137382476D01*
X137264476Y-137572952D01*
X137264476Y-137906285D01*
X137312095Y-138096761D01*
X137407333Y-138192000D01*
X137502571Y-138239619D01*
X137693047Y-138239619D01*
X137788285Y-138192000D01*
X137883523Y-138096761D01*
X137931142Y-137906285D01*
X137931142Y-137572952D01*
X137883523Y-137382476D01*
X137788285Y-137287238D01*
X137693047Y-137239619D01*
X137502571Y-137239619D01*
X138883523Y-137239619D02*
X138312095Y-137239619D01*
X138597809Y-137239619D02*
X138597809Y-138239619D01*
X138502571Y-138096761D01*
X138407333Y-138001523D01*
X138312095Y-137953904D01*
X152669238Y-138239619D02*
X152764476Y-138192000D01*
X152859714Y-138096761D01*
X153002571Y-137953904D01*
X153097809Y-137906285D01*
X153193047Y-137906285D01*
X153145428Y-138144380D02*
X153240666Y-138096761D01*
X153335904Y-138001523D01*
X153383523Y-137811047D01*
X153383523Y-137477714D01*
X153335904Y-137287238D01*
X153240666Y-137192000D01*
X153145428Y-137144380D01*
X152954952Y-137144380D01*
X152859714Y-137192000D01*
X152764476Y-137287238D01*
X152716857Y-137477714D01*
X152716857Y-137811047D01*
X152764476Y-138001523D01*
X152859714Y-138096761D01*
X152954952Y-138144380D01*
X153145428Y-138144380D01*
X152383523Y-137144380D02*
X151764476Y-137144380D01*
X152097809Y-137525333D01*
X151954952Y-137525333D01*
X151859714Y-137572952D01*
X151812095Y-137620571D01*
X151764476Y-137715809D01*
X151764476Y-137953904D01*
X151812095Y-138049142D01*
X151859714Y-138096761D01*
X151954952Y-138144380D01*
X152240666Y-138144380D01*
X152335904Y-138096761D01*
X152383523Y-138049142D01*
X167228761Y-137144380D02*
X167133523Y-137192000D01*
X167038285Y-137287238D01*
X166895428Y-137430095D01*
X166800190Y-137477714D01*
X166704952Y-137477714D01*
X166752571Y-137239619D02*
X166657333Y-137287238D01*
X166562095Y-137382476D01*
X166514476Y-137572952D01*
X166514476Y-137906285D01*
X166562095Y-138096761D01*
X166657333Y-138192000D01*
X166752571Y-138239619D01*
X166943047Y-138239619D01*
X167038285Y-138192000D01*
X167133523Y-138096761D01*
X167181142Y-137906285D01*
X167181142Y-137572952D01*
X167133523Y-137382476D01*
X167038285Y-137287238D01*
X166943047Y-137239619D01*
X166752571Y-137239619D01*
X168085904Y-138239619D02*
X167609714Y-138239619D01*
X167562095Y-137763428D01*
X167609714Y-137811047D01*
X167704952Y-137858666D01*
X167943047Y-137858666D01*
X168038285Y-137811047D01*
X168085904Y-137763428D01*
X168133523Y-137668190D01*
X168133523Y-137430095D01*
X168085904Y-137334857D01*
X168038285Y-137287238D01*
X167943047Y-137239619D01*
X167704952Y-137239619D01*
X167609714Y-137287238D01*
X167562095Y-137334857D01*
X181228761Y-137144380D02*
X181133523Y-137192000D01*
X181038285Y-137287238D01*
X180895428Y-137430095D01*
X180800190Y-137477714D01*
X180704952Y-137477714D01*
X180752571Y-137239619D02*
X180657333Y-137287238D01*
X180562095Y-137382476D01*
X180514476Y-137572952D01*
X180514476Y-137906285D01*
X180562095Y-138096761D01*
X180657333Y-138192000D01*
X180752571Y-138239619D01*
X180943047Y-138239619D01*
X181038285Y-138192000D01*
X181133523Y-138096761D01*
X181181142Y-137906285D01*
X181181142Y-137572952D01*
X181133523Y-137382476D01*
X181038285Y-137287238D01*
X180943047Y-137239619D01*
X180752571Y-137239619D01*
X181514476Y-138239619D02*
X182181142Y-138239619D01*
X181752571Y-137239619D01*
X195228761Y-137144380D02*
X195133523Y-137192000D01*
X195038285Y-137287238D01*
X194895428Y-137430095D01*
X194800190Y-137477714D01*
X194704952Y-137477714D01*
X194752571Y-137239619D02*
X194657333Y-137287238D01*
X194562095Y-137382476D01*
X194514476Y-137572952D01*
X194514476Y-137906285D01*
X194562095Y-138096761D01*
X194657333Y-138192000D01*
X194752571Y-138239619D01*
X194943047Y-138239619D01*
X195038285Y-138192000D01*
X195133523Y-138096761D01*
X195181142Y-137906285D01*
X195181142Y-137572952D01*
X195133523Y-137382476D01*
X195038285Y-137287238D01*
X194943047Y-137239619D01*
X194752571Y-137239619D01*
X195657333Y-137239619D02*
X195847809Y-137239619D01*
X195943047Y-137287238D01*
X195990666Y-137334857D01*
X196085904Y-137477714D01*
X196133523Y-137668190D01*
X196133523Y-138049142D01*
X196085904Y-138144380D01*
X196038285Y-138192000D01*
X195943047Y-138239619D01*
X195752571Y-138239619D01*
X195657333Y-138192000D01*
X195609714Y-138144380D01*
X195562095Y-138049142D01*
X195562095Y-137811047D01*
X195609714Y-137715809D01*
X195657333Y-137668190D01*
X195752571Y-137620571D01*
X195943047Y-137620571D01*
X196038285Y-137668190D01*
X196085904Y-137715809D01*
X196133523Y-137811047D01*
X148276380Y-103525333D02*
X147800190Y-103192000D01*
X148276380Y-102953904D02*
X147276380Y-102953904D01*
X147276380Y-103334857D01*
X147324000Y-103430095D01*
X147371619Y-103477714D01*
X147466857Y-103525333D01*
X147609714Y-103525333D01*
X147704952Y-103477714D01*
X147752571Y-103430095D01*
X147800190Y-103334857D01*
X147800190Y-102953904D01*
X147371619Y-103906285D02*
X147324000Y-103953904D01*
X147276380Y-104049142D01*
X147276380Y-104287238D01*
X147324000Y-104382476D01*
X147371619Y-104430095D01*
X147466857Y-104477714D01*
X147562095Y-104477714D01*
X147704952Y-104430095D01*
X148276380Y-103858666D01*
X148276380Y-104477714D01*
X164240666Y-96344380D02*
X164574000Y-95868190D01*
X164812095Y-96344380D02*
X164812095Y-95344380D01*
X164431142Y-95344380D01*
X164335904Y-95392000D01*
X164288285Y-95439619D01*
X164240666Y-95534857D01*
X164240666Y-95677714D01*
X164288285Y-95772952D01*
X164335904Y-95820571D01*
X164431142Y-95868190D01*
X164812095Y-95868190D01*
X163907333Y-95344380D02*
X163288285Y-95344380D01*
X163621619Y-95725333D01*
X163478761Y-95725333D01*
X163383523Y-95772952D01*
X163335904Y-95820571D01*
X163288285Y-95915809D01*
X163288285Y-96153904D01*
X163335904Y-96249142D01*
X163383523Y-96296761D01*
X163478761Y-96344380D01*
X163764476Y-96344380D01*
X163859714Y-96296761D01*
X163907333Y-96249142D01*
X150921619Y-96758666D02*
X151397809Y-97092000D01*
X150921619Y-97330095D02*
X151921619Y-97330095D01*
X151921619Y-96949142D01*
X151874000Y-96853904D01*
X151826380Y-96806285D01*
X151731142Y-96758666D01*
X151588285Y-96758666D01*
X151493047Y-96806285D01*
X151445428Y-96853904D01*
X151397809Y-96949142D01*
X151397809Y-97330095D01*
X151588285Y-95901523D02*
X150921619Y-95901523D01*
X151969238Y-96139619D02*
X151254952Y-96377714D01*
X151254952Y-95758666D01*
X134407333Y-129039619D02*
X134074000Y-129515809D01*
X133835904Y-129039619D02*
X133835904Y-130039619D01*
X134216857Y-130039619D01*
X134312095Y-129992000D01*
X134359714Y-129944380D01*
X134407333Y-129849142D01*
X134407333Y-129706285D01*
X134359714Y-129611047D01*
X134312095Y-129563428D01*
X134216857Y-129515809D01*
X133835904Y-129515809D01*
X135312095Y-130039619D02*
X134835904Y-130039619D01*
X134788285Y-129563428D01*
X134835904Y-129611047D01*
X134931142Y-129658666D01*
X135169238Y-129658666D01*
X135264476Y-129611047D01*
X135312095Y-129563428D01*
X135359714Y-129468190D01*
X135359714Y-129230095D01*
X135312095Y-129134857D01*
X135264476Y-129087238D01*
X135169238Y-129039619D01*
X134931142Y-129039619D01*
X134835904Y-129087238D01*
X134788285Y-129134857D01*
X131240666Y-140394380D02*
X131574000Y-139918190D01*
X131812095Y-140394380D02*
X131812095Y-139394380D01*
X131431142Y-139394380D01*
X131335904Y-139442000D01*
X131288285Y-139489619D01*
X131240666Y-139584857D01*
X131240666Y-139727714D01*
X131288285Y-139822952D01*
X131335904Y-139870571D01*
X131431142Y-139918190D01*
X131812095Y-139918190D01*
X130764476Y-140394380D02*
X130574000Y-140394380D01*
X130478761Y-140346761D01*
X130431142Y-140299142D01*
X130335904Y-140156285D01*
X130288285Y-139965809D01*
X130288285Y-139584857D01*
X130335904Y-139489619D01*
X130383523Y-139442000D01*
X130478761Y-139394380D01*
X130669238Y-139394380D01*
X130764476Y-139442000D01*
X130812095Y-139489619D01*
X130859714Y-139584857D01*
X130859714Y-139822952D01*
X130812095Y-139918190D01*
X130764476Y-139965809D01*
X130669238Y-140013428D01*
X130478761Y-140013428D01*
X130383523Y-139965809D01*
X130335904Y-139918190D01*
X130288285Y-139822952D01*
X148181142Y-129289619D02*
X147847809Y-129765809D01*
X147609714Y-129289619D02*
X147609714Y-130289619D01*
X147990666Y-130289619D01*
X148085904Y-130242000D01*
X148133523Y-130194380D01*
X148181142Y-130099142D01*
X148181142Y-129956285D01*
X148133523Y-129861047D01*
X148085904Y-129813428D01*
X147990666Y-129765809D01*
X147609714Y-129765809D01*
X149133523Y-129289619D02*
X148562095Y-129289619D01*
X148847809Y-129289619D02*
X148847809Y-130289619D01*
X148752571Y-130146761D01*
X148657333Y-130051523D01*
X148562095Y-130003904D01*
X149752571Y-130289619D02*
X149847809Y-130289619D01*
X149943047Y-130242000D01*
X149990666Y-130194380D01*
X150038285Y-130099142D01*
X150085904Y-129908666D01*
X150085904Y-129670571D01*
X150038285Y-129480095D01*
X149990666Y-129384857D01*
X149943047Y-129337238D01*
X149847809Y-129289619D01*
X149752571Y-129289619D01*
X149657333Y-129337238D01*
X149609714Y-129384857D01*
X149562095Y-129480095D01*
X149514476Y-129670571D01*
X149514476Y-129908666D01*
X149562095Y-130099142D01*
X149609714Y-130194380D01*
X149657333Y-130242000D01*
X149752571Y-130289619D01*
X145966857Y-140394380D02*
X146300190Y-139918190D01*
X146538285Y-140394380D02*
X146538285Y-139394380D01*
X146157333Y-139394380D01*
X146062095Y-139442000D01*
X146014476Y-139489619D01*
X145966857Y-139584857D01*
X145966857Y-139727714D01*
X146014476Y-139822952D01*
X146062095Y-139870571D01*
X146157333Y-139918190D01*
X146538285Y-139918190D01*
X145014476Y-140394380D02*
X145585904Y-140394380D01*
X145300190Y-140394380D02*
X145300190Y-139394380D01*
X145395428Y-139537238D01*
X145490666Y-139632476D01*
X145585904Y-139680095D01*
X144062095Y-140394380D02*
X144633523Y-140394380D01*
X144347809Y-140394380D02*
X144347809Y-139394380D01*
X144443047Y-139537238D01*
X144538285Y-139632476D01*
X144633523Y-139680095D01*
X163081142Y-129289619D02*
X162747809Y-129765809D01*
X162509714Y-129289619D02*
X162509714Y-130289619D01*
X162890666Y-130289619D01*
X162985904Y-130242000D01*
X163033523Y-130194380D01*
X163081142Y-130099142D01*
X163081142Y-129956285D01*
X163033523Y-129861047D01*
X162985904Y-129813428D01*
X162890666Y-129765809D01*
X162509714Y-129765809D01*
X164033523Y-129289619D02*
X163462095Y-129289619D01*
X163747809Y-129289619D02*
X163747809Y-130289619D01*
X163652571Y-130146761D01*
X163557333Y-130051523D01*
X163462095Y-130003904D01*
X164414476Y-130194380D02*
X164462095Y-130242000D01*
X164557333Y-130289619D01*
X164795428Y-130289619D01*
X164890666Y-130242000D01*
X164938285Y-130194380D01*
X164985904Y-130099142D01*
X164985904Y-130003904D01*
X164938285Y-129861047D01*
X164366857Y-129289619D01*
X164985904Y-129289619D01*
X160466857Y-140394380D02*
X160800190Y-139918190D01*
X161038285Y-140394380D02*
X161038285Y-139394380D01*
X160657333Y-139394380D01*
X160562095Y-139442000D01*
X160514476Y-139489619D01*
X160466857Y-139584857D01*
X160466857Y-139727714D01*
X160514476Y-139822952D01*
X160562095Y-139870571D01*
X160657333Y-139918190D01*
X161038285Y-139918190D01*
X159514476Y-140394380D02*
X160085904Y-140394380D01*
X159800190Y-140394380D02*
X159800190Y-139394380D01*
X159895428Y-139537238D01*
X159990666Y-139632476D01*
X160085904Y-139680095D01*
X159181142Y-139394380D02*
X158562095Y-139394380D01*
X158895428Y-139775333D01*
X158752571Y-139775333D01*
X158657333Y-139822952D01*
X158609714Y-139870571D01*
X158562095Y-139965809D01*
X158562095Y-140203904D01*
X158609714Y-140299142D01*
X158657333Y-140346761D01*
X158752571Y-140394380D01*
X159038285Y-140394380D01*
X159133523Y-140346761D01*
X159181142Y-140299142D01*
X177081142Y-129289619D02*
X176747809Y-129765809D01*
X176509714Y-129289619D02*
X176509714Y-130289619D01*
X176890666Y-130289619D01*
X176985904Y-130242000D01*
X177033523Y-130194380D01*
X177081142Y-130099142D01*
X177081142Y-129956285D01*
X177033523Y-129861047D01*
X176985904Y-129813428D01*
X176890666Y-129765809D01*
X176509714Y-129765809D01*
X178033523Y-129289619D02*
X177462095Y-129289619D01*
X177747809Y-129289619D02*
X177747809Y-130289619D01*
X177652571Y-130146761D01*
X177557333Y-130051523D01*
X177462095Y-130003904D01*
X178890666Y-129956285D02*
X178890666Y-129289619D01*
X178652571Y-130337238D02*
X178414476Y-129622952D01*
X179033523Y-129622952D01*
X174716857Y-140394380D02*
X175050190Y-139918190D01*
X175288285Y-140394380D02*
X175288285Y-139394380D01*
X174907333Y-139394380D01*
X174812095Y-139442000D01*
X174764476Y-139489619D01*
X174716857Y-139584857D01*
X174716857Y-139727714D01*
X174764476Y-139822952D01*
X174812095Y-139870571D01*
X174907333Y-139918190D01*
X175288285Y-139918190D01*
X173764476Y-140394380D02*
X174335904Y-140394380D01*
X174050190Y-140394380D02*
X174050190Y-139394380D01*
X174145428Y-139537238D01*
X174240666Y-139632476D01*
X174335904Y-139680095D01*
X172859714Y-139394380D02*
X173335904Y-139394380D01*
X173383523Y-139870571D01*
X173335904Y-139822952D01*
X173240666Y-139775333D01*
X173002571Y-139775333D01*
X172907333Y-139822952D01*
X172859714Y-139870571D01*
X172812095Y-139965809D01*
X172812095Y-140203904D01*
X172859714Y-140299142D01*
X172907333Y-140346761D01*
X173002571Y-140394380D01*
X173240666Y-140394380D01*
X173335904Y-140346761D01*
X173383523Y-140299142D01*
X191031142Y-129289619D02*
X190697809Y-129765809D01*
X190459714Y-129289619D02*
X190459714Y-130289619D01*
X190840666Y-130289619D01*
X190935904Y-130242000D01*
X190983523Y-130194380D01*
X191031142Y-130099142D01*
X191031142Y-129956285D01*
X190983523Y-129861047D01*
X190935904Y-129813428D01*
X190840666Y-129765809D01*
X190459714Y-129765809D01*
X191983523Y-129289619D02*
X191412095Y-129289619D01*
X191697809Y-129289619D02*
X191697809Y-130289619D01*
X191602571Y-130146761D01*
X191507333Y-130051523D01*
X191412095Y-130003904D01*
X192840666Y-130289619D02*
X192650190Y-130289619D01*
X192554952Y-130242000D01*
X192507333Y-130194380D01*
X192412095Y-130051523D01*
X192364476Y-129861047D01*
X192364476Y-129480095D01*
X192412095Y-129384857D01*
X192459714Y-129337238D01*
X192554952Y-129289619D01*
X192745428Y-129289619D01*
X192840666Y-129337238D01*
X192888285Y-129384857D01*
X192935904Y-129480095D01*
X192935904Y-129718190D01*
X192888285Y-129813428D01*
X192840666Y-129861047D01*
X192745428Y-129908666D01*
X192554952Y-129908666D01*
X192459714Y-129861047D01*
X192412095Y-129813428D01*
X192364476Y-129718190D01*
X188716857Y-140394380D02*
X189050190Y-139918190D01*
X189288285Y-140394380D02*
X189288285Y-139394380D01*
X188907333Y-139394380D01*
X188812095Y-139442000D01*
X188764476Y-139489619D01*
X188716857Y-139584857D01*
X188716857Y-139727714D01*
X188764476Y-139822952D01*
X188812095Y-139870571D01*
X188907333Y-139918190D01*
X189288285Y-139918190D01*
X187764476Y-140394380D02*
X188335904Y-140394380D01*
X188050190Y-140394380D02*
X188050190Y-139394380D01*
X188145428Y-139537238D01*
X188240666Y-139632476D01*
X188335904Y-139680095D01*
X187431142Y-139394380D02*
X186764476Y-139394380D01*
X187193047Y-140394380D01*
X162335904Y-116194380D02*
X162335904Y-117003904D01*
X162288285Y-117099142D01*
X162240666Y-117146761D01*
X162145428Y-117194380D01*
X161954952Y-117194380D01*
X161859714Y-117146761D01*
X161812095Y-117099142D01*
X161764476Y-117003904D01*
X161764476Y-116194380D01*
X160764476Y-117194380D02*
X161335904Y-117194380D01*
X161050190Y-117194380D02*
X161050190Y-116194380D01*
X161145428Y-116337238D01*
X161240666Y-116432476D01*
X161335904Y-116480095D01*
X170657333Y-100834857D02*
X170609714Y-100787238D01*
X170466857Y-100739619D01*
X170371619Y-100739619D01*
X170228761Y-100787238D01*
X170133523Y-100882476D01*
X170085904Y-100977714D01*
X170038285Y-101168190D01*
X170038285Y-101311047D01*
X170085904Y-101501523D01*
X170133523Y-101596761D01*
X170228761Y-101692000D01*
X170371619Y-101739619D01*
X170466857Y-101739619D01*
X170609714Y-101692000D01*
X170657333Y-101644380D01*
X170990666Y-101739619D02*
X171657333Y-101739619D01*
X171228761Y-100739619D01*
X137385904Y-132989619D02*
X137385904Y-133989619D01*
X137624000Y-133989619D01*
X137766857Y-133942000D01*
X137862095Y-133846761D01*
X137909714Y-133751523D01*
X137957333Y-133561047D01*
X137957333Y-133418190D01*
X137909714Y-133227714D01*
X137862095Y-133132476D01*
X137766857Y-133037238D01*
X137624000Y-132989619D01*
X137385904Y-132989619D01*
X138338285Y-133894380D02*
X138385904Y-133942000D01*
X138481142Y-133989619D01*
X138719238Y-133989619D01*
X138814476Y-133942000D01*
X138862095Y-133894380D01*
X138909714Y-133799142D01*
X138909714Y-133703904D01*
X138862095Y-133561047D01*
X138290666Y-132989619D01*
X138909714Y-132989619D01*
X152912095Y-133894380D02*
X152912095Y-132894380D01*
X152674000Y-132894380D01*
X152531142Y-132942000D01*
X152435904Y-133037238D01*
X152388285Y-133132476D01*
X152340666Y-133322952D01*
X152340666Y-133465809D01*
X152388285Y-133656285D01*
X152435904Y-133751523D01*
X152531142Y-133846761D01*
X152674000Y-133894380D01*
X152912095Y-133894380D01*
X151483523Y-133227714D02*
X151483523Y-133894380D01*
X151721619Y-132846761D02*
X151959714Y-133561047D01*
X151340666Y-133561047D01*
X167862095Y-133644380D02*
X167862095Y-132644380D01*
X167624000Y-132644380D01*
X167481142Y-132692000D01*
X167385904Y-132787238D01*
X167338285Y-132882476D01*
X167290666Y-133072952D01*
X167290666Y-133215809D01*
X167338285Y-133406285D01*
X167385904Y-133501523D01*
X167481142Y-133596761D01*
X167624000Y-133644380D01*
X167862095Y-133644380D01*
X166433523Y-132644380D02*
X166624000Y-132644380D01*
X166719238Y-132692000D01*
X166766857Y-132739619D01*
X166862095Y-132882476D01*
X166909714Y-133072952D01*
X166909714Y-133453904D01*
X166862095Y-133549142D01*
X166814476Y-133596761D01*
X166719238Y-133644380D01*
X166528761Y-133644380D01*
X166433523Y-133596761D01*
X166385904Y-133549142D01*
X166338285Y-133453904D01*
X166338285Y-133215809D01*
X166385904Y-133120571D01*
X166433523Y-133072952D01*
X166528761Y-133025333D01*
X166719238Y-133025333D01*
X166814476Y-133072952D01*
X166862095Y-133120571D01*
X166909714Y-133215809D01*
X180385904Y-132989619D02*
X180385904Y-133989619D01*
X180624000Y-133989619D01*
X180766857Y-133942000D01*
X180862095Y-133846761D01*
X180909714Y-133751523D01*
X180957333Y-133561047D01*
X180957333Y-133418190D01*
X180909714Y-133227714D01*
X180862095Y-133132476D01*
X180766857Y-133037238D01*
X180624000Y-132989619D01*
X180385904Y-132989619D01*
X181528761Y-133561047D02*
X181433523Y-133608666D01*
X181385904Y-133656285D01*
X181338285Y-133751523D01*
X181338285Y-133799142D01*
X181385904Y-133894380D01*
X181433523Y-133942000D01*
X181528761Y-133989619D01*
X181719238Y-133989619D01*
X181814476Y-133942000D01*
X181862095Y-133894380D01*
X181909714Y-133799142D01*
X181909714Y-133751523D01*
X181862095Y-133656285D01*
X181814476Y-133608666D01*
X181719238Y-133561047D01*
X181528761Y-133561047D01*
X181433523Y-133513428D01*
X181385904Y-133465809D01*
X181338285Y-133370571D01*
X181338285Y-133180095D01*
X181385904Y-133084857D01*
X181433523Y-133037238D01*
X181528761Y-132989619D01*
X181719238Y-132989619D01*
X181814476Y-133037238D01*
X181862095Y-133084857D01*
X181909714Y-133180095D01*
X181909714Y-133370571D01*
X181862095Y-133465809D01*
X181814476Y-133513428D01*
X181719238Y-133561047D01*
X194359714Y-132989619D02*
X194359714Y-133989619D01*
X194597809Y-133989619D01*
X194740666Y-133942000D01*
X194835904Y-133846761D01*
X194883523Y-133751523D01*
X194931142Y-133561047D01*
X194931142Y-133418190D01*
X194883523Y-133227714D01*
X194835904Y-133132476D01*
X194740666Y-133037238D01*
X194597809Y-132989619D01*
X194359714Y-132989619D01*
X195883523Y-132989619D02*
X195312095Y-132989619D01*
X195597809Y-132989619D02*
X195597809Y-133989619D01*
X195502571Y-133846761D01*
X195407333Y-133751523D01*
X195312095Y-133703904D01*
X196502571Y-133989619D02*
X196597809Y-133989619D01*
X196693047Y-133942000D01*
X196740666Y-133894380D01*
X196788285Y-133799142D01*
X196835904Y-133608666D01*
X196835904Y-133370571D01*
X196788285Y-133180095D01*
X196740666Y-133084857D01*
X196693047Y-133037238D01*
X196597809Y-132989619D01*
X196502571Y-132989619D01*
X196407333Y-133037238D01*
X196359714Y-133084857D01*
X196312095Y-133180095D01*
X196264476Y-133370571D01*
X196264476Y-133608666D01*
X196312095Y-133799142D01*
X196359714Y-133894380D01*
X196407333Y-133942000D01*
X196502571Y-133989619D01*
M02*
