G04 #@! TF.GenerationSoftware,KiCad,Pcbnew,(5.0.0-rc2-dev-340-g7483a73a5)*
G04 #@! TF.CreationDate,2018-04-20T18:58:31+02:00*
G04 #@! TF.ProjectId,PWRCTRLBRD,5057524354524C4252442E6B69636164,rev?*
G04 #@! TF.SameCoordinates,Original*
G04 #@! TF.FileFunction,Soldermask,Bot*
G04 #@! TF.FilePolarity,Negative*
%FSLAX46Y46*%
G04 Gerber Fmt 4.6, Leading zero omitted, Abs format (unit mm)*
G04 Created by KiCad (PCBNEW (5.0.0-rc2-dev-340-g7483a73a5)) date 04/20/18 18:58:31*
%MOMM*%
%LPD*%
G01*
G04 APERTURE LIST*
%ADD10C,7.400000*%
%ADD11C,4.050000*%
%ADD12R,1.900000X1.900000*%
%ADD13C,1.900000*%
%ADD14R,1.650000X1.900000*%
%ADD15R,1.900000X1.650000*%
%ADD16C,3.000000*%
%ADD17R,1.700000X1.900000*%
%ADD18R,1.900000X1.700000*%
%ADD19R,2.000000X2.000000*%
%ADD20O,2.000000X2.000000*%
%ADD21R,2.400000X1.000000*%
%ADD22R,2.100000X2.100000*%
%ADD23O,2.100000X2.100000*%
%ADD24R,2.200000X2.200000*%
%ADD25C,2.200000*%
%ADD26R,1.500000X1.500000*%
G04 APERTURE END LIST*
D10*
X177824000Y-102692000D03*
X212824000Y-137692000D03*
X122824000Y-137692000D03*
X119824000Y-79692000D03*
D11*
X123974000Y-119992000D03*
X123974000Y-108122000D03*
D12*
X130324000Y-109612000D03*
D13*
X132864000Y-110882000D03*
X130324000Y-112152000D03*
X132864000Y-113422000D03*
X130324000Y-114692000D03*
X132864000Y-115962000D03*
X130324000Y-117232000D03*
X132864000Y-118502000D03*
D14*
X153074000Y-102442000D03*
X153074000Y-104942000D03*
D15*
X137074000Y-141942000D03*
X139574000Y-141942000D03*
X151574000Y-141942000D03*
X154074000Y-141942000D03*
X166074000Y-141942000D03*
X168574000Y-141942000D03*
X180324000Y-141942000D03*
X182824000Y-141942000D03*
X194574000Y-141942000D03*
X197074000Y-141942000D03*
D16*
X123574000Y-129692000D03*
X118494000Y-129692000D03*
X176824000Y-88272000D03*
X176824000Y-83192000D03*
X184324000Y-88272000D03*
X184324000Y-83192000D03*
X191824000Y-88272000D03*
X191824000Y-83192000D03*
X199324000Y-88272000D03*
X199324000Y-83192000D03*
X145824000Y-143442000D03*
X145824000Y-148522000D03*
D11*
X123974000Y-102282000D03*
X123974000Y-90412000D03*
D12*
X130324000Y-91902000D03*
D13*
X132864000Y-93172000D03*
X130324000Y-94442000D03*
X132864000Y-95712000D03*
X130324000Y-96982000D03*
X132864000Y-98252000D03*
X130324000Y-99522000D03*
X132864000Y-100792000D03*
D16*
X160574000Y-143362000D03*
X160574000Y-148442000D03*
X175074000Y-143362000D03*
X175074000Y-148442000D03*
X189324000Y-143362000D03*
X189324000Y-148442000D03*
X203574000Y-143362000D03*
X203574000Y-148442000D03*
D17*
X149574000Y-105042000D03*
X149574000Y-102342000D03*
D18*
X162724000Y-94192000D03*
X165424000Y-94192000D03*
D17*
X153074000Y-95242000D03*
X153074000Y-97942000D03*
D18*
X140074000Y-128442000D03*
X137374000Y-128442000D03*
X136974000Y-139942000D03*
X139674000Y-139942000D03*
X153924000Y-128442000D03*
X151224000Y-128442000D03*
X151474000Y-139942000D03*
X154174000Y-139942000D03*
X168924000Y-128442000D03*
X166224000Y-128442000D03*
X165974000Y-139942000D03*
X168674000Y-139942000D03*
X182924000Y-128442000D03*
X180224000Y-128442000D03*
X180374000Y-139942000D03*
X183074000Y-139942000D03*
X196924000Y-128442000D03*
X194224000Y-128442000D03*
X194374000Y-139942000D03*
X197074000Y-139942000D03*
D19*
X167614000Y-78822000D03*
D20*
X162534000Y-86442000D03*
X165074000Y-78822000D03*
X165074000Y-86442000D03*
X162534000Y-78822000D03*
X167614000Y-86442000D03*
D21*
X156874000Y-114947000D03*
X156874000Y-113677000D03*
X156874000Y-112407000D03*
X156874000Y-111137000D03*
X156874000Y-109867000D03*
X156874000Y-108597000D03*
X156874000Y-107327000D03*
X156874000Y-106057000D03*
X156874000Y-104787000D03*
X156874000Y-103517000D03*
X156874000Y-102247000D03*
X156874000Y-100977000D03*
X156874000Y-99707000D03*
X156874000Y-98437000D03*
X166274000Y-98437000D03*
X166274000Y-99707000D03*
X166274000Y-100977000D03*
X166274000Y-102247000D03*
X166274000Y-103517000D03*
X166274000Y-104787000D03*
X166274000Y-106057000D03*
X166274000Y-107327000D03*
X166274000Y-108597000D03*
X166274000Y-109867000D03*
X166274000Y-111137000D03*
X166274000Y-112407000D03*
X166274000Y-113677000D03*
X166274000Y-114947000D03*
D22*
X136744000Y-84942000D03*
D23*
X136744000Y-82402000D03*
X139284000Y-84942000D03*
X139284000Y-82402000D03*
X141824000Y-84942000D03*
X141824000Y-82402000D03*
D22*
X146494000Y-84942000D03*
D23*
X146494000Y-82402000D03*
X149034000Y-84942000D03*
X149034000Y-82402000D03*
X151574000Y-84942000D03*
X151574000Y-82402000D03*
D22*
X144574000Y-131612000D03*
D23*
X144574000Y-134152000D03*
X144574000Y-136692000D03*
D22*
X158824000Y-131652000D03*
D23*
X158824000Y-134192000D03*
X158824000Y-136732000D03*
D22*
X173824000Y-131652000D03*
D23*
X173824000Y-134192000D03*
X173824000Y-136732000D03*
D22*
X188074000Y-131652000D03*
D23*
X188074000Y-134192000D03*
X188074000Y-136732000D03*
D22*
X202324000Y-131612000D03*
D23*
X202324000Y-134152000D03*
X202324000Y-136692000D03*
D17*
X140074000Y-133592000D03*
X140074000Y-136292000D03*
X154074000Y-133492000D03*
X154074000Y-136192000D03*
X169074000Y-133492000D03*
X169074000Y-136192000D03*
X183074000Y-133342000D03*
X183074000Y-136042000D03*
X197074000Y-133342000D03*
X197074000Y-136042000D03*
D15*
X172074000Y-102942000D03*
X169574000Y-102942000D03*
D24*
X124074000Y-125692000D03*
D25*
X121534000Y-125692000D03*
D26*
X137424000Y-130692000D03*
X140224000Y-130692000D03*
X153974000Y-130942000D03*
X151174000Y-130942000D03*
X168974000Y-130942000D03*
X166174000Y-130942000D03*
X182974000Y-130942000D03*
X180174000Y-130942000D03*
X196974000Y-130942000D03*
X194174000Y-130942000D03*
D10*
X215824000Y-79692000D03*
M02*
