M48
;DRILL file {KiCad (5.0.0-rc2-dev-340-g7483a73a5)} date 04/20/18 18:58:05
;FORMAT={-:-/ absolute / metric / decimal}
FMAT,2
METRIC,TZ
T1C0.400
T2C0.800
T3C0.900
T4C1.000
T5C1.400
T6C4.300
T7C3.250
%
G90
G05
M71
T1
X133.324Y-103.692
X135.274Y-103.692
X135.324Y-100.692
X136.294Y-140.142
X137.174Y-130.692
X137.324Y-107.192
X137.824Y-78.192
X137.874Y-133.482
X138.574Y-107.442
X138.824Y-136.902
X139.824Y-107.692
X140.074Y-133.592
X140.074Y-136.292
X140.854Y-140.142
X141.074Y-107.692
X142.324Y-107.692
X143.324Y-107.192
X147.574Y-78.192
X150.569Y-140.217
X150.824Y-99.692
X151.174Y-130.942
X151.574Y-99.692
X152.324Y-115.442
X152.324Y-110.192
X153.074Y-102.442
X153.324Y-115.692
X153.37Y-110.272
X153.524Y-133.732
X154.074Y-136.192
X154.174Y-139.942
X156.324Y-125.942
X156.324Y-128.942
X156.874Y-103.517
X156.874Y-107.327
X156.874Y-108.597
X159.324Y-98.692
X159.324Y-103.192
X159.324Y-105.442
X159.324Y-108.942
X160.049Y-107.327
X160.074Y-96.192
X160.074Y-97.192
X160.074Y-102.692
X160.565Y-95.445
X160.824Y-101.942
X160.824Y-103.942
X161.324Y-95.192
X161.524Y-101.445
X161.574Y-103.442
X162.324Y-101.442
X162.324Y-108.192
X162.724Y-94.192
X162.824Y-112.442
X163.074Y-111.192
X164.824Y-111.192
X165.069Y-140.217
X166.174Y-130.942
X166.274Y-112.407
X166.274Y-114.947
X167.549Y-96.944
X167.999Y-99.639
X168.074Y-100.942
X168.524Y-133.732
X169.574Y-136.192
X169.629Y-140.217
X170.324Y-125.417
X171.074Y-128.442
X179.294Y-140.242
X180.174Y-130.942
X183.074Y-133.342
X183.074Y-136.042
X183.854Y-140.242
X184.822Y-125.417
X185.074Y-127.192
X193.519Y-140.217
X194.174Y-130.942
X197.074Y-133.342
X197.074Y-136.042
X198.079Y-140.217
T2
X162.534Y-78.822
X162.534Y-86.442
X165.074Y-78.822
X165.074Y-86.442
X167.614Y-78.822
X167.614Y-86.442
T3
X121.534Y-125.692
X124.074Y-125.692
X130.324Y-109.612
X130.324Y-112.152
X130.324Y-114.692
X130.324Y-117.232
X132.864Y-110.882
X132.864Y-113.422
X132.864Y-115.962
X132.864Y-118.502
X130.324Y-91.902
X130.324Y-94.442
X130.324Y-96.982
X130.324Y-99.522
X132.864Y-93.172
X132.864Y-95.712
X132.864Y-98.252
X132.864Y-100.792
T4
X202.324Y-131.612
X202.324Y-134.152
X202.324Y-136.692
X173.824Y-131.652
X173.824Y-134.192
X173.824Y-136.732
X136.744Y-82.402
X136.744Y-84.942
X139.284Y-82.402
X139.284Y-84.942
X141.824Y-82.402
X141.824Y-84.942
X158.824Y-131.652
X158.824Y-134.192
X158.824Y-136.732
X144.574Y-131.612
X144.574Y-134.152
X144.574Y-136.692
X146.494Y-82.402
X146.494Y-84.942
X149.034Y-82.402
X149.034Y-84.942
X151.574Y-82.402
X151.574Y-84.942
X188.074Y-131.652
X188.074Y-134.192
X188.074Y-136.732
T5
X191.824Y-83.192
X191.824Y-88.272
X160.574Y-143.362
X160.574Y-148.442
X199.324Y-83.192
X199.324Y-88.272
X189.324Y-143.362
X189.324Y-148.442
X145.824Y-143.442
X145.824Y-148.522
X175.074Y-143.362
X175.074Y-148.442
X184.324Y-83.192
X184.324Y-88.272
X203.574Y-143.362
X203.574Y-148.442
X176.824Y-83.192
X176.824Y-88.272
X118.494Y-129.692
X123.574Y-129.692
T6
X119.824Y-79.692
X122.824Y-137.692
X212.824Y-137.692
X215.824Y-79.692
X177.824Y-102.692
T7
X123.974Y-108.122
X123.974Y-119.992
X123.974Y-90.412
X123.974Y-102.282
T0
M30
