G04 #@! TF.GenerationSoftware,KiCad,Pcbnew,(5.0.0-rc2-dev-340-g7483a73a5)*
G04 #@! TF.CreationDate,2018-04-20T18:58:31+02:00*
G04 #@! TF.ProjectId,PWRCTRLBRD,5057524354524C4252442E6B69636164,rev?*
G04 #@! TF.SameCoordinates,Original*
G04 #@! TF.FileFunction,Copper,L2,Bot,Signal*
G04 #@! TF.FilePolarity,Positive*
%FSLAX46Y46*%
G04 Gerber Fmt 4.6, Leading zero omitted, Abs format (unit mm)*
G04 Created by KiCad (PCBNEW (5.0.0-rc2-dev-340-g7483a73a5)) date 04/20/18 18:58:31*
%MOMM*%
%LPD*%
G01*
G04 APERTURE LIST*
%ADD10C,7.000000*%
%ADD11C,3.650000*%
%ADD12R,1.500000X1.500000*%
%ADD13C,1.500000*%
%ADD14R,1.250000X1.500000*%
%ADD15R,1.500000X1.250000*%
%ADD16C,2.000000*%
%ADD17R,1.300000X1.500000*%
%ADD18R,1.500000X1.300000*%
%ADD19R,1.600000X1.600000*%
%ADD20O,1.600000X1.600000*%
%ADD21R,2.000000X0.600000*%
%ADD22R,1.700000X1.700000*%
%ADD23O,1.700000X1.700000*%
%ADD24R,1.800000X1.800000*%
%ADD25C,1.800000*%
%ADD26R,1.100000X1.100000*%
%ADD27C,0.600000*%
%ADD28C,0.250000*%
%ADD29C,0.500000*%
%ADD30C,0.254000*%
G04 APERTURE END LIST*
D10*
X177824000Y-102692000D03*
X212824000Y-137692000D03*
X122824000Y-137692000D03*
X119824000Y-79692000D03*
D11*
X123974000Y-119992000D03*
X123974000Y-108122000D03*
D12*
X130324000Y-109612000D03*
D13*
X132864000Y-110882000D03*
X130324000Y-112152000D03*
X132864000Y-113422000D03*
X130324000Y-114692000D03*
X132864000Y-115962000D03*
X130324000Y-117232000D03*
X132864000Y-118502000D03*
D14*
X153074000Y-102442000D03*
X153074000Y-104942000D03*
D15*
X137074000Y-141942000D03*
X139574000Y-141942000D03*
X151574000Y-141942000D03*
X154074000Y-141942000D03*
X166074000Y-141942000D03*
X168574000Y-141942000D03*
X180324000Y-141942000D03*
X182824000Y-141942000D03*
X194574000Y-141942000D03*
X197074000Y-141942000D03*
D16*
X123574000Y-129692000D03*
X118494000Y-129692000D03*
X176824000Y-88272000D03*
X176824000Y-83192000D03*
X184324000Y-88272000D03*
X184324000Y-83192000D03*
X191824000Y-88272000D03*
X191824000Y-83192000D03*
X199324000Y-88272000D03*
X199324000Y-83192000D03*
X145824000Y-143442000D03*
X145824000Y-148522000D03*
D11*
X123974000Y-102282000D03*
X123974000Y-90412000D03*
D12*
X130324000Y-91902000D03*
D13*
X132864000Y-93172000D03*
X130324000Y-94442000D03*
X132864000Y-95712000D03*
X130324000Y-96982000D03*
X132864000Y-98252000D03*
X130324000Y-99522000D03*
X132864000Y-100792000D03*
D16*
X160574000Y-143362000D03*
X160574000Y-148442000D03*
X175074000Y-143362000D03*
X175074000Y-148442000D03*
X189324000Y-143362000D03*
X189324000Y-148442000D03*
X203574000Y-143362000D03*
X203574000Y-148442000D03*
D17*
X149574000Y-105042000D03*
X149574000Y-102342000D03*
D18*
X162724000Y-94192000D03*
X165424000Y-94192000D03*
D17*
X153074000Y-95242000D03*
X153074000Y-97942000D03*
D18*
X140074000Y-128442000D03*
X137374000Y-128442000D03*
X136974000Y-139942000D03*
X139674000Y-139942000D03*
X153924000Y-128442000D03*
X151224000Y-128442000D03*
X151474000Y-139942000D03*
X154174000Y-139942000D03*
X168924000Y-128442000D03*
X166224000Y-128442000D03*
X165974000Y-139942000D03*
X168674000Y-139942000D03*
X182924000Y-128442000D03*
X180224000Y-128442000D03*
X180374000Y-139942000D03*
X183074000Y-139942000D03*
X196924000Y-128442000D03*
X194224000Y-128442000D03*
X194374000Y-139942000D03*
X197074000Y-139942000D03*
D19*
X167614000Y-78822000D03*
D20*
X162534000Y-86442000D03*
X165074000Y-78822000D03*
X165074000Y-86442000D03*
X162534000Y-78822000D03*
X167614000Y-86442000D03*
D21*
X156874000Y-114947000D03*
X156874000Y-113677000D03*
X156874000Y-112407000D03*
X156874000Y-111137000D03*
X156874000Y-109867000D03*
X156874000Y-108597000D03*
X156874000Y-107327000D03*
X156874000Y-106057000D03*
X156874000Y-104787000D03*
X156874000Y-103517000D03*
X156874000Y-102247000D03*
X156874000Y-100977000D03*
X156874000Y-99707000D03*
X156874000Y-98437000D03*
X166274000Y-98437000D03*
X166274000Y-99707000D03*
X166274000Y-100977000D03*
X166274000Y-102247000D03*
X166274000Y-103517000D03*
X166274000Y-104787000D03*
X166274000Y-106057000D03*
X166274000Y-107327000D03*
X166274000Y-108597000D03*
X166274000Y-109867000D03*
X166274000Y-111137000D03*
X166274000Y-112407000D03*
X166274000Y-113677000D03*
X166274000Y-114947000D03*
D22*
X136744000Y-84942000D03*
D23*
X136744000Y-82402000D03*
X139284000Y-84942000D03*
X139284000Y-82402000D03*
X141824000Y-84942000D03*
X141824000Y-82402000D03*
D22*
X146494000Y-84942000D03*
D23*
X146494000Y-82402000D03*
X149034000Y-84942000D03*
X149034000Y-82402000D03*
X151574000Y-84942000D03*
X151574000Y-82402000D03*
D22*
X144574000Y-131612000D03*
D23*
X144574000Y-134152000D03*
X144574000Y-136692000D03*
D22*
X158824000Y-131652000D03*
D23*
X158824000Y-134192000D03*
X158824000Y-136732000D03*
D22*
X173824000Y-131652000D03*
D23*
X173824000Y-134192000D03*
X173824000Y-136732000D03*
D22*
X188074000Y-131652000D03*
D23*
X188074000Y-134192000D03*
X188074000Y-136732000D03*
D22*
X202324000Y-131612000D03*
D23*
X202324000Y-134152000D03*
X202324000Y-136692000D03*
D17*
X140074000Y-133592000D03*
X140074000Y-136292000D03*
X154074000Y-133492000D03*
X154074000Y-136192000D03*
X169074000Y-133492000D03*
X169074000Y-136192000D03*
X183074000Y-133342000D03*
X183074000Y-136042000D03*
X197074000Y-133342000D03*
X197074000Y-136042000D03*
D15*
X172074000Y-102942000D03*
X169574000Y-102942000D03*
D24*
X124074000Y-125692000D03*
D25*
X121534000Y-125692000D03*
D26*
X137424000Y-130692000D03*
X140224000Y-130692000D03*
X153974000Y-130942000D03*
X151174000Y-130942000D03*
X168974000Y-130942000D03*
X166174000Y-130942000D03*
X182974000Y-130942000D03*
X180174000Y-130942000D03*
X196974000Y-130942000D03*
X194174000Y-130942000D03*
D10*
X215824000Y-79692000D03*
D27*
X147574000Y-78192000D03*
X137824000Y-78192000D03*
X180174000Y-130942000D03*
X194174000Y-130942000D03*
X166174000Y-130942000D03*
X137174000Y-130692000D03*
X151174000Y-130942000D03*
X137874000Y-133482000D03*
X156874000Y-103517000D03*
X156874000Y-107327000D03*
X156874000Y-108597000D03*
X159324000Y-108942000D03*
X162824000Y-112442000D03*
X166274000Y-112407000D03*
X151574000Y-99692000D03*
X150824000Y-99692000D03*
X153074000Y-102442000D03*
X135324000Y-100692000D03*
X165069000Y-140217000D03*
X193519000Y-140217000D03*
X179294000Y-140242000D03*
X150569000Y-140217000D03*
X136294000Y-140142000D03*
X162724000Y-94192000D03*
X138824000Y-136902000D03*
X140854000Y-140142000D03*
X154174000Y-139942000D03*
X169629000Y-140217000D03*
X183854000Y-140242000D03*
X198079000Y-140217000D03*
X159324000Y-98692000D03*
X152324008Y-110192000D03*
X152324000Y-115442000D03*
X159324000Y-105442000D03*
X159324000Y-103192000D03*
X156324000Y-125942000D03*
X153370042Y-110271599D03*
X153324000Y-115692000D03*
X160049000Y-107327000D03*
X160074000Y-102692000D03*
X160074000Y-97192000D03*
X156324000Y-128942000D03*
X170324000Y-125416968D03*
X160824000Y-101942000D03*
X160074000Y-96192000D03*
X171074010Y-128442000D03*
X160824000Y-103942000D03*
X184821771Y-125416968D03*
X185074000Y-127192000D03*
X161523994Y-101445147D03*
X160565042Y-95444986D03*
X161574000Y-103442000D03*
X163074000Y-111192000D03*
X164824000Y-111192000D03*
X162324000Y-108192000D03*
X162324000Y-101442000D03*
X161324000Y-95192000D03*
X133324004Y-103692000D03*
X135274022Y-103692000D03*
X168074000Y-100942000D03*
X167998979Y-99639030D03*
X167548968Y-96944426D03*
X140074000Y-133592000D03*
X153524000Y-133732000D03*
X168524000Y-133732000D03*
X183074000Y-133342000D03*
X197074000Y-133342000D03*
X137324000Y-107192000D03*
X141074000Y-107692000D03*
X138574000Y-107442000D03*
X142324000Y-107692000D03*
X139824000Y-107692000D03*
X143324000Y-107192000D03*
X166274000Y-114947000D03*
X140074000Y-136292000D03*
X154074000Y-136192000D03*
X169574000Y-136192000D03*
X183074000Y-136042000D03*
X197074000Y-136042000D03*
D28*
X151574000Y-82402000D02*
X147574000Y-78402000D01*
X147574000Y-78402000D02*
X147574000Y-78192000D01*
X141824000Y-82402000D02*
X137824000Y-78402000D01*
X137824000Y-78402000D02*
X137824000Y-78192000D01*
D29*
X151224000Y-130892000D02*
X151174000Y-130942000D01*
X137174000Y-130692000D02*
X137174000Y-132782000D01*
X137174000Y-132782000D02*
X137874000Y-133482000D01*
D28*
X156874000Y-108597000D02*
X156874000Y-107327000D01*
X162524001Y-112142001D02*
X159324000Y-108942000D01*
X162824000Y-112442000D02*
X162524001Y-112142001D01*
X166274000Y-112407000D02*
X166274000Y-113677000D01*
X130324000Y-99522000D02*
X130324000Y-100582660D01*
X130324000Y-100582660D02*
X130533340Y-100792000D01*
X130533340Y-100792000D02*
X131803340Y-100792000D01*
X131803340Y-100792000D02*
X132864000Y-100792000D01*
X156874000Y-103517000D02*
X154024000Y-103517000D01*
X154024000Y-103517000D02*
X153074000Y-102567000D01*
X153074000Y-102567000D02*
X153074000Y-102442000D01*
D29*
X166074000Y-141942000D02*
X166074000Y-141222000D01*
X166074000Y-141222000D02*
X165069000Y-140217000D01*
X165974000Y-139942000D02*
X165344000Y-139942000D01*
X165344000Y-139942000D02*
X165069000Y-140217000D01*
X194574000Y-141942000D02*
X194574000Y-141272000D01*
X194574000Y-141272000D02*
X193519000Y-140217000D01*
X194374000Y-139942000D02*
X193794000Y-139942000D01*
X193794000Y-139942000D02*
X193519000Y-140217000D01*
X180324000Y-141942000D02*
X180324000Y-141272000D01*
X180324000Y-141272000D02*
X179294000Y-140242000D01*
X180374000Y-139942000D02*
X179594000Y-139942000D01*
X179594000Y-139942000D02*
X179294000Y-140242000D01*
X151574000Y-141942000D02*
X151574000Y-141222000D01*
X151574000Y-141222000D02*
X150569000Y-140217000D01*
X151474000Y-139942000D02*
X150844000Y-139942000D01*
X150844000Y-139942000D02*
X150569000Y-140217000D01*
X137074000Y-141942000D02*
X137074000Y-140922000D01*
X137074000Y-140922000D02*
X136294000Y-140142000D01*
X136974000Y-139942000D02*
X136494000Y-139942000D01*
X136494000Y-139942000D02*
X136294000Y-140142000D01*
D28*
X160685425Y-94192000D02*
X159383998Y-95493427D01*
X161724000Y-94192000D02*
X160685425Y-94192000D01*
X155487590Y-95242000D02*
X152574000Y-95242000D01*
X158574000Y-98251998D02*
X158497588Y-98251998D01*
X158497588Y-98251998D02*
X155487590Y-95242000D01*
X148674000Y-105042000D02*
X149574000Y-105042000D01*
X145674000Y-105042000D02*
X148674000Y-105042000D01*
X145074000Y-105642000D02*
X145674000Y-105042000D01*
X135574000Y-106305589D02*
X136237589Y-105642000D01*
X132864000Y-115962000D02*
X135574000Y-113252000D01*
X136237589Y-105642000D02*
X145074000Y-105642000D01*
X135574000Y-113252000D02*
X135574000Y-106305589D01*
X159383998Y-97442000D02*
X158574000Y-98251998D01*
X159383998Y-95493427D02*
X159383998Y-97442000D01*
X131788999Y-114886999D02*
X132114001Y-115212001D01*
X131788999Y-110365999D02*
X131788999Y-114886999D01*
X134199001Y-104128416D02*
X133949002Y-104378415D01*
X133949002Y-108205996D02*
X131788999Y-110365999D01*
X132864000Y-98252000D02*
X134199001Y-99587001D01*
X134199001Y-99587001D02*
X134199001Y-104128416D01*
X133949002Y-104378415D02*
X133949002Y-108205996D01*
X132114001Y-115212001D02*
X132864000Y-115962000D01*
X153074000Y-104942000D02*
X149674000Y-104942000D01*
X149674000Y-104942000D02*
X149574000Y-105042000D01*
X156874000Y-104787000D02*
X153229000Y-104787000D01*
X153229000Y-104787000D02*
X153074000Y-104942000D01*
X162724000Y-94192000D02*
X161724000Y-94192000D01*
X156874000Y-104787000D02*
X158124000Y-104787000D01*
X158124000Y-104787000D02*
X158574000Y-104337000D01*
X158574000Y-104337000D02*
X158574000Y-98251998D01*
D29*
X139674000Y-139942000D02*
X138824000Y-139092000D01*
X138824000Y-139092000D02*
X138824000Y-136902000D01*
X139674000Y-139942000D02*
X140654000Y-139942000D01*
X140654000Y-139942000D02*
X140854000Y-140142000D01*
X139674000Y-139942000D02*
X139674000Y-141842000D01*
X139674000Y-141842000D02*
X139574000Y-141942000D01*
X154174000Y-139942000D02*
X154174000Y-141842000D01*
X154174000Y-141842000D02*
X154074000Y-141942000D01*
X168674000Y-139942000D02*
X169354000Y-139942000D01*
X169354000Y-139942000D02*
X169629000Y-140217000D01*
X168824000Y-139792000D02*
X168674000Y-139942000D01*
X168574000Y-141942000D02*
X168574000Y-141272000D01*
X168574000Y-141272000D02*
X169629000Y-140217000D01*
X183074000Y-139942000D02*
X183554000Y-139942000D01*
X183554000Y-139942000D02*
X183854000Y-140242000D01*
X182824000Y-141942000D02*
X182824000Y-141272000D01*
X182824000Y-141272000D02*
X183854000Y-140242000D01*
X182824000Y-139692000D02*
X183074000Y-139942000D01*
X197074000Y-141942000D02*
X197074000Y-141222000D01*
X197074000Y-141222000D02*
X198079000Y-140217000D01*
X197074000Y-139942000D02*
X197804000Y-139942000D01*
X197804000Y-139942000D02*
X198079000Y-140217000D01*
X196824000Y-139692000D02*
X197074000Y-139942000D01*
D28*
X143074000Y-129192000D02*
X142324000Y-129942000D01*
X143574000Y-129192000D02*
X143074000Y-129192000D01*
X146824000Y-125942000D02*
X143574000Y-129192000D01*
X151324000Y-125942000D02*
X146824000Y-125942000D01*
X142198998Y-133891998D02*
X142198998Y-135519079D01*
X152324000Y-115442000D02*
X152324000Y-124942000D01*
X152324000Y-124942000D02*
X151324000Y-125942000D01*
X142324000Y-129942000D02*
X142324000Y-133766996D01*
X142324000Y-133766996D02*
X142198998Y-133891998D01*
X142198998Y-135519079D02*
X143371919Y-136692000D01*
X143371919Y-136692000D02*
X144574000Y-136692000D01*
X152324008Y-109767736D02*
X152324008Y-110192000D01*
X159324000Y-106701999D02*
X155389745Y-106701999D01*
X155389745Y-106701999D02*
X152324008Y-109767736D01*
X164929001Y-106701999D02*
X159324000Y-106701999D01*
X159324000Y-105442000D02*
X159324000Y-106701999D01*
X159324000Y-99116264D02*
X159324000Y-103192000D01*
X159324000Y-98692000D02*
X159324000Y-99116264D01*
X166274000Y-106057000D02*
X165574000Y-106057000D01*
X165574000Y-106057000D02*
X164929001Y-106701999D01*
X153824000Y-125942000D02*
X153324000Y-125442000D01*
X156324000Y-125942000D02*
X153824000Y-125942000D01*
X153324000Y-125442000D02*
X153324000Y-115692000D01*
X154399642Y-109241999D02*
X153670041Y-109971600D01*
X160049000Y-107327000D02*
X158134001Y-109241999D01*
X153670041Y-109971600D02*
X153370042Y-110271599D01*
X158134001Y-109241999D02*
X154399642Y-109241999D01*
X160074000Y-102692000D02*
X160074000Y-97192000D01*
X166274000Y-107327000D02*
X160049000Y-107327000D01*
X156324000Y-128942000D02*
X156324000Y-134232000D01*
X156324000Y-134232000D02*
X158824000Y-136732000D01*
X170024001Y-125116969D02*
X166274001Y-125116969D01*
X166274001Y-125116969D02*
X163623989Y-122466957D01*
X166274000Y-108597000D02*
X165574000Y-108597000D01*
X163699002Y-110471998D02*
X163699002Y-111755615D01*
X163699002Y-111755615D02*
X163623989Y-111830628D01*
X163623989Y-111830628D02*
X163623989Y-122466957D01*
X165574000Y-108597000D02*
X163699002Y-110471998D01*
X170024001Y-125116969D02*
X170324000Y-125416968D01*
X160824000Y-96942000D02*
X160824000Y-101942000D01*
X160373999Y-96491999D02*
X160824000Y-96942000D01*
X160074000Y-96192000D02*
X160373999Y-96491999D01*
X171074010Y-133982010D02*
X171074010Y-128866264D01*
X171074010Y-128866264D02*
X171074010Y-128442000D01*
X173824000Y-136732000D02*
X171074010Y-133982010D01*
X160824000Y-103942000D02*
X160824000Y-105442000D01*
X160824000Y-105442000D02*
X160834001Y-105431999D01*
X160834001Y-105431999D02*
X167534001Y-105431999D01*
X167534001Y-105431999D02*
X167824000Y-105721998D01*
X167824000Y-107747000D02*
X166974000Y-108597000D01*
X167824000Y-105721998D02*
X167824000Y-107747000D01*
X166974000Y-108597000D02*
X166274000Y-108597000D01*
X164149013Y-111942015D02*
X164074000Y-112017028D01*
X164149013Y-110741987D02*
X164149013Y-111942015D01*
X165024000Y-109867000D02*
X164149013Y-110741987D01*
X166324000Y-124442000D02*
X170249004Y-124442000D01*
X166274000Y-109867000D02*
X165024000Y-109867000D01*
X170249004Y-124442000D02*
X171223972Y-125416968D01*
X164074000Y-112017028D02*
X164074000Y-115268413D01*
X164074000Y-115268413D02*
X164574000Y-115768413D01*
X164574000Y-115768413D02*
X164574000Y-122692000D01*
X164574000Y-122692000D02*
X166324000Y-124442000D01*
X171223972Y-125416968D02*
X184397507Y-125416968D01*
X184397507Y-125416968D02*
X184821771Y-125416968D01*
X185074000Y-127616264D02*
X185074000Y-127192000D01*
X188074000Y-136732000D02*
X185074000Y-133732000D01*
X185074000Y-133732000D02*
X185074000Y-127616264D01*
X161523994Y-96403938D02*
X161523994Y-101020883D01*
X160565042Y-95444986D02*
X161523994Y-96403938D01*
X161523994Y-101020883D02*
X161523994Y-101445147D01*
X161604001Y-104161999D02*
X161574000Y-104131998D01*
X161574000Y-104131998D02*
X161574000Y-103442000D01*
X168324000Y-104692000D02*
X167793999Y-104161999D01*
X167793999Y-104161999D02*
X161604001Y-104161999D01*
X168324000Y-109067000D02*
X168324000Y-104692000D01*
X166274000Y-109867000D02*
X167524000Y-109867000D01*
X167524000Y-109867000D02*
X168324000Y-109067000D01*
X166824000Y-123942000D02*
X165074000Y-122192000D01*
X170574000Y-123942000D02*
X166824000Y-123942000D01*
X171423967Y-124791967D02*
X170574000Y-123942000D01*
X164824000Y-111616264D02*
X164824000Y-111192000D01*
X165074000Y-115632002D02*
X164824000Y-115382002D01*
X165074000Y-122192000D02*
X165074000Y-115632002D01*
X197788969Y-124791967D02*
X171423967Y-124791967D01*
X203499001Y-130501999D02*
X197788969Y-124791967D01*
X203499001Y-135516999D02*
X203499001Y-130501999D01*
X164824000Y-115382002D02*
X164824000Y-111616264D01*
X202324000Y-136692000D02*
X203499001Y-135516999D01*
X162324000Y-108192000D02*
X162324000Y-110442000D01*
X162774001Y-110892001D02*
X163074000Y-111192000D01*
X162324000Y-110442000D02*
X162774001Y-110892001D01*
X164879000Y-111137000D02*
X164824000Y-111192000D01*
X166274000Y-111137000D02*
X164879000Y-111137000D01*
X162324000Y-96192000D02*
X162324000Y-101442000D01*
X161324000Y-95192000D02*
X162324000Y-96192000D01*
X166974000Y-111137000D02*
X167074000Y-111237000D01*
X166274000Y-111137000D02*
X166974000Y-111137000D01*
X153074000Y-99707000D02*
X152463999Y-100317001D01*
X152463999Y-100317001D02*
X150559000Y-100317001D01*
X150434001Y-100442000D02*
X144999002Y-100442000D01*
X150559000Y-100317001D02*
X150434001Y-100442000D01*
X144999002Y-100442000D02*
X142449001Y-102992001D01*
X142449001Y-102992001D02*
X142449001Y-104316999D01*
X142449001Y-104316999D02*
X142074000Y-104692000D01*
X142074000Y-104692000D02*
X136274022Y-104692000D01*
X136274022Y-104692000D02*
X135574021Y-103991999D01*
X135574021Y-103991999D02*
X135274022Y-103692000D01*
X130324000Y-106692004D02*
X133024005Y-103991999D01*
X133024005Y-103991999D02*
X133324004Y-103692000D01*
X130324000Y-109612000D02*
X130324000Y-106692004D01*
X153074000Y-97942000D02*
X153074000Y-99707000D01*
X153074000Y-99707000D02*
X156874000Y-99707000D01*
X130324000Y-91902000D02*
X130324000Y-92192000D01*
X130324000Y-92192000D02*
X131574000Y-93442000D01*
X131399001Y-96866999D02*
X131399001Y-97498001D01*
X131574000Y-93442000D02*
X131574000Y-96692000D01*
X131574000Y-96692000D02*
X131399001Y-96866999D01*
X130208999Y-98057001D02*
X129074000Y-99192000D01*
X131399001Y-97498001D02*
X130840001Y-98057001D01*
X130840001Y-98057001D02*
X130208999Y-98057001D01*
X129074000Y-99192000D02*
X129074000Y-108442000D01*
X129074000Y-108442000D02*
X130324000Y-109692000D01*
X142899012Y-104503399D02*
X142899012Y-103753399D01*
X142899012Y-103753399D02*
X145675411Y-100977000D01*
X134873989Y-105142011D02*
X142260400Y-105142011D01*
X145675411Y-100977000D02*
X149574000Y-100977000D01*
X134574000Y-105442000D02*
X134873989Y-105142011D01*
X142260400Y-105142011D02*
X142899012Y-104503399D01*
X132864000Y-93172000D02*
X134649012Y-94957012D01*
X134649012Y-94957012D02*
X134649012Y-105366988D01*
X134649012Y-105366988D02*
X134574000Y-105442000D01*
X149574000Y-100977000D02*
X156874000Y-100977000D01*
X149574000Y-102342000D02*
X149574000Y-100977000D01*
X134574000Y-107942000D02*
X134574000Y-105442000D01*
X134574000Y-109172000D02*
X134574000Y-107942000D01*
X132864000Y-110882000D02*
X134574000Y-109172000D01*
X165574000Y-102247000D02*
X161519000Y-102247000D01*
X158144002Y-105442000D02*
X158134001Y-105431999D01*
X161519000Y-102247000D02*
X158324000Y-105442000D01*
X158324000Y-105442000D02*
X158144002Y-105442000D01*
X153985389Y-106442000D02*
X136324000Y-106442000D01*
X158134001Y-105431999D02*
X154995390Y-105431999D01*
X133824000Y-117192000D02*
X132074000Y-117192000D01*
X154995390Y-105431999D02*
X153985389Y-106442000D01*
X136324000Y-114692000D02*
X133824000Y-117192000D01*
X136324000Y-106442000D02*
X136324000Y-114692000D01*
X131073999Y-115441999D02*
X130324000Y-114692000D01*
X132074000Y-117192000D02*
X131073999Y-116191999D01*
X131073999Y-116191999D02*
X131073999Y-115441999D01*
X169574000Y-102942000D02*
X168574000Y-102942000D01*
X168574000Y-102942000D02*
X167879000Y-102247000D01*
X167879000Y-102247000D02*
X167524000Y-102247000D01*
X167524000Y-102247000D02*
X166274000Y-102247000D01*
X165424000Y-94192000D02*
X165424000Y-95092000D01*
X165424000Y-95092000D02*
X164574000Y-95942000D01*
X164574000Y-95942000D02*
X164574000Y-101247000D01*
X164574000Y-101247000D02*
X165574000Y-102247000D01*
X165574000Y-102247000D02*
X166274000Y-102247000D01*
X166274000Y-100977000D02*
X168039000Y-100977000D01*
X168039000Y-100977000D02*
X168074000Y-100942000D01*
X166274000Y-100977000D02*
X166974000Y-100977000D01*
X166274000Y-99707000D02*
X167931009Y-99707000D01*
X167931009Y-99707000D02*
X167998979Y-99639030D01*
X166974000Y-99707000D02*
X166274000Y-99707000D01*
X166274000Y-97887000D02*
X167216574Y-96944426D01*
X166274000Y-98437000D02*
X166274000Y-97887000D01*
X167216574Y-96944426D02*
X167548968Y-96944426D01*
D29*
X139674000Y-128442000D02*
X139674000Y-130392000D01*
X139674000Y-130392000D02*
X139974000Y-130692000D01*
X139974000Y-130692000D02*
X139974000Y-133492000D01*
X139974000Y-133492000D02*
X140074000Y-133592000D01*
X153974000Y-130942000D02*
X153974000Y-133392000D01*
X153974000Y-133392000D02*
X154074000Y-133492000D01*
X153924000Y-128442000D02*
X153924000Y-130892000D01*
X153924000Y-130892000D02*
X153974000Y-130942000D01*
X154074000Y-133492000D02*
X153764000Y-133492000D01*
X153764000Y-133492000D02*
X153524000Y-133732000D01*
X168974000Y-130942000D02*
X168974000Y-132892000D01*
X168974000Y-132892000D02*
X169574000Y-133492000D01*
X168924000Y-128442000D02*
X168924000Y-130892000D01*
X168924000Y-130892000D02*
X168974000Y-130942000D01*
X169574000Y-133492000D02*
X168764000Y-133492000D01*
X168764000Y-133492000D02*
X168524000Y-133732000D01*
X182924000Y-128442000D02*
X182924000Y-130892000D01*
X182924000Y-130892000D02*
X182974000Y-130942000D01*
X183074000Y-133342000D02*
X183074000Y-131042000D01*
X183074000Y-131042000D02*
X182974000Y-130942000D01*
X196924000Y-128442000D02*
X196924000Y-130892000D01*
X196924000Y-130892000D02*
X196974000Y-130942000D01*
X196974000Y-130942000D02*
X196974000Y-133242000D01*
X196974000Y-133242000D02*
X197074000Y-133342000D01*
D28*
X157574000Y-126192000D02*
X156874000Y-125492000D01*
X156874000Y-125492000D02*
X156874000Y-114947000D01*
X157074000Y-126692000D02*
X148574000Y-126692000D01*
X157574000Y-126192000D02*
X157074000Y-126692000D01*
X148574000Y-126692000D02*
X145324000Y-129942000D01*
X145324000Y-129942000D02*
X145324000Y-130862000D01*
X145324000Y-130862000D02*
X144574000Y-131612000D01*
X144104736Y-114397000D02*
X137324000Y-107616264D01*
X156174000Y-114947000D02*
X155624000Y-114397000D01*
X137324000Y-107616264D02*
X137324000Y-107192000D01*
X155624000Y-114397000D02*
X144104736Y-114397000D01*
X156874000Y-114947000D02*
X156174000Y-114947000D01*
X159373989Y-125741989D02*
X160123989Y-126491989D01*
X160123989Y-126491989D02*
X165623989Y-126491989D01*
X159373989Y-112936989D02*
X159373989Y-125741989D01*
X165623989Y-126491989D02*
X184698989Y-126491989D01*
X188074000Y-129266998D02*
X188074000Y-130552000D01*
X188074000Y-130552000D02*
X188074000Y-131652000D01*
X184773999Y-126566999D02*
X185374001Y-126566999D01*
X157574000Y-111137000D02*
X159373989Y-112936989D01*
X185374001Y-126566999D02*
X188074000Y-129266998D01*
X184698989Y-126491989D02*
X184773999Y-126566999D01*
X156874000Y-111137000D02*
X157574000Y-111137000D01*
X141074000Y-107692000D02*
X145074000Y-111692000D01*
X145074000Y-111692000D02*
X153824000Y-111692000D01*
X153824000Y-111692000D02*
X154379000Y-111137000D01*
X154379000Y-111137000D02*
X156874000Y-111137000D01*
X158199001Y-114302001D02*
X158199001Y-127677001D01*
X158199001Y-127677001D02*
X158824000Y-128302000D01*
X144809000Y-113677000D02*
X138873999Y-107741999D01*
X156874000Y-113677000D02*
X144809000Y-113677000D01*
X138873999Y-107741999D02*
X138574000Y-107442000D01*
X158824000Y-128302000D02*
X158824000Y-131652000D01*
X158824000Y-131652000D02*
X158824000Y-130552000D01*
X157574000Y-113677000D02*
X156874000Y-113677000D01*
X158199001Y-114302001D02*
X157574000Y-113677000D01*
X160673978Y-126041978D02*
X159824000Y-125192000D01*
X185485391Y-126041978D02*
X160673978Y-126041978D01*
X185635413Y-126192000D02*
X185485391Y-126041978D01*
X197824000Y-126192000D02*
X185635413Y-126192000D01*
X202324000Y-131612000D02*
X202324000Y-130692000D01*
X202324000Y-130692000D02*
X197824000Y-126192000D01*
X159824000Y-125192000D02*
X159824000Y-112117000D01*
X159824000Y-112117000D02*
X157574000Y-109867000D01*
X157574000Y-109867000D02*
X156874000Y-109867000D01*
X142324000Y-107692000D02*
X145528601Y-110896601D01*
X154699645Y-109867000D02*
X155624000Y-109867000D01*
X153670044Y-110896601D02*
X154699645Y-109867000D01*
X155624000Y-109867000D02*
X156874000Y-109867000D01*
X145528601Y-110896601D02*
X153670044Y-110896601D01*
X158923978Y-113756978D02*
X157574000Y-112407000D01*
X173824000Y-130016998D02*
X170749002Y-126942000D01*
X158923978Y-126541978D02*
X158923978Y-113756978D01*
X157574000Y-112407000D02*
X156874000Y-112407000D01*
X159324000Y-126942000D02*
X158923978Y-126541978D01*
X170749002Y-126942000D02*
X159324000Y-126942000D01*
X173824000Y-131652000D02*
X173824000Y-130016998D01*
X156874000Y-112407000D02*
X156589000Y-112692000D01*
X156589000Y-112692000D02*
X144574000Y-112692000D01*
X144574000Y-112692000D02*
X140123999Y-108241999D01*
X140123999Y-108241999D02*
X140123999Y-107991999D01*
X140123999Y-107991999D02*
X139824000Y-107692000D01*
X155209000Y-106057000D02*
X154074000Y-107192000D01*
X154074000Y-107192000D02*
X143324000Y-107192000D01*
X156874000Y-106057000D02*
X155209000Y-106057000D01*
D30*
G36*
X219114001Y-155982000D02*
X116534000Y-155982000D01*
X116534000Y-148196778D01*
X144189000Y-148196778D01*
X144189000Y-148847222D01*
X144437914Y-149448153D01*
X144897847Y-149908086D01*
X145498778Y-150157000D01*
X146149222Y-150157000D01*
X146750153Y-149908086D01*
X147210086Y-149448153D01*
X147459000Y-148847222D01*
X147459000Y-148196778D01*
X147425863Y-148116778D01*
X158939000Y-148116778D01*
X158939000Y-148767222D01*
X159187914Y-149368153D01*
X159647847Y-149828086D01*
X160248778Y-150077000D01*
X160899222Y-150077000D01*
X161500153Y-149828086D01*
X161960086Y-149368153D01*
X162209000Y-148767222D01*
X162209000Y-148116778D01*
X173439000Y-148116778D01*
X173439000Y-148767222D01*
X173687914Y-149368153D01*
X174147847Y-149828086D01*
X174748778Y-150077000D01*
X175399222Y-150077000D01*
X176000153Y-149828086D01*
X176460086Y-149368153D01*
X176709000Y-148767222D01*
X176709000Y-148116778D01*
X187689000Y-148116778D01*
X187689000Y-148767222D01*
X187937914Y-149368153D01*
X188397847Y-149828086D01*
X188998778Y-150077000D01*
X189649222Y-150077000D01*
X190250153Y-149828086D01*
X190710086Y-149368153D01*
X190959000Y-148767222D01*
X190959000Y-148116778D01*
X201939000Y-148116778D01*
X201939000Y-148767222D01*
X202187914Y-149368153D01*
X202647847Y-149828086D01*
X203248778Y-150077000D01*
X203899222Y-150077000D01*
X204500153Y-149828086D01*
X204960086Y-149368153D01*
X205209000Y-148767222D01*
X205209000Y-148116778D01*
X204960086Y-147515847D01*
X204500153Y-147055914D01*
X203899222Y-146807000D01*
X203248778Y-146807000D01*
X202647847Y-147055914D01*
X202187914Y-147515847D01*
X201939000Y-148116778D01*
X190959000Y-148116778D01*
X190710086Y-147515847D01*
X190250153Y-147055914D01*
X189649222Y-146807000D01*
X188998778Y-146807000D01*
X188397847Y-147055914D01*
X187937914Y-147515847D01*
X187689000Y-148116778D01*
X176709000Y-148116778D01*
X176460086Y-147515847D01*
X176000153Y-147055914D01*
X175399222Y-146807000D01*
X174748778Y-146807000D01*
X174147847Y-147055914D01*
X173687914Y-147515847D01*
X173439000Y-148116778D01*
X162209000Y-148116778D01*
X161960086Y-147515847D01*
X161500153Y-147055914D01*
X160899222Y-146807000D01*
X160248778Y-146807000D01*
X159647847Y-147055914D01*
X159187914Y-147515847D01*
X158939000Y-148116778D01*
X147425863Y-148116778D01*
X147210086Y-147595847D01*
X146750153Y-147135914D01*
X146149222Y-146887000D01*
X145498778Y-146887000D01*
X144897847Y-147135914D01*
X144437914Y-147595847D01*
X144189000Y-148196778D01*
X116534000Y-148196778D01*
X116534000Y-139956017D01*
X135359000Y-139956017D01*
X135359000Y-140327983D01*
X135501345Y-140671635D01*
X135615009Y-140785299D01*
X135625843Y-140839765D01*
X135752507Y-141029330D01*
X135725843Y-141069235D01*
X135676560Y-141317000D01*
X135676560Y-142567000D01*
X135725843Y-142814765D01*
X135866191Y-143024809D01*
X136076235Y-143165157D01*
X136324000Y-143214440D01*
X137824000Y-143214440D01*
X138071765Y-143165157D01*
X138281809Y-143024809D01*
X138324000Y-142961666D01*
X138366191Y-143024809D01*
X138576235Y-143165157D01*
X138824000Y-143214440D01*
X140324000Y-143214440D01*
X140571765Y-143165157D01*
X140644168Y-143116778D01*
X144189000Y-143116778D01*
X144189000Y-143767222D01*
X144437914Y-144368153D01*
X144897847Y-144828086D01*
X145498778Y-145077000D01*
X146149222Y-145077000D01*
X146750153Y-144828086D01*
X147210086Y-144368153D01*
X147459000Y-143767222D01*
X147459000Y-143116778D01*
X147210086Y-142515847D01*
X146750153Y-142055914D01*
X146149222Y-141807000D01*
X145498778Y-141807000D01*
X144897847Y-142055914D01*
X144437914Y-142515847D01*
X144189000Y-143116778D01*
X140644168Y-143116778D01*
X140781809Y-143024809D01*
X140922157Y-142814765D01*
X140971440Y-142567000D01*
X140971440Y-141317000D01*
X140923702Y-141077000D01*
X141039983Y-141077000D01*
X141383635Y-140934655D01*
X141646655Y-140671635D01*
X141789000Y-140327983D01*
X141789000Y-140031017D01*
X149634000Y-140031017D01*
X149634000Y-140402983D01*
X149776345Y-140746635D01*
X150039365Y-141009655D01*
X150160077Y-141059656D01*
X150216521Y-141116099D01*
X150176560Y-141317000D01*
X150176560Y-142567000D01*
X150225843Y-142814765D01*
X150366191Y-143024809D01*
X150576235Y-143165157D01*
X150824000Y-143214440D01*
X152324000Y-143214440D01*
X152571765Y-143165157D01*
X152781809Y-143024809D01*
X152824000Y-142961666D01*
X152866191Y-143024809D01*
X153076235Y-143165157D01*
X153324000Y-143214440D01*
X154824000Y-143214440D01*
X155071765Y-143165157D01*
X155263896Y-143036778D01*
X158939000Y-143036778D01*
X158939000Y-143687222D01*
X159187914Y-144288153D01*
X159647847Y-144748086D01*
X160248778Y-144997000D01*
X160899222Y-144997000D01*
X161500153Y-144748086D01*
X161960086Y-144288153D01*
X162209000Y-143687222D01*
X162209000Y-143036778D01*
X161960086Y-142435847D01*
X161500153Y-141975914D01*
X160899222Y-141727000D01*
X160248778Y-141727000D01*
X159647847Y-141975914D01*
X159187914Y-142435847D01*
X158939000Y-143036778D01*
X155263896Y-143036778D01*
X155281809Y-143024809D01*
X155422157Y-142814765D01*
X155471440Y-142567000D01*
X155471440Y-141317000D01*
X155422157Y-141069235D01*
X155395493Y-141029330D01*
X155522157Y-140839765D01*
X155571440Y-140592000D01*
X155571440Y-140031017D01*
X164134000Y-140031017D01*
X164134000Y-140402983D01*
X164276345Y-140746635D01*
X164539365Y-141009655D01*
X164660077Y-141059656D01*
X164716521Y-141116099D01*
X164676560Y-141317000D01*
X164676560Y-142567000D01*
X164725843Y-142814765D01*
X164866191Y-143024809D01*
X165076235Y-143165157D01*
X165324000Y-143214440D01*
X166824000Y-143214440D01*
X167071765Y-143165157D01*
X167281809Y-143024809D01*
X167324000Y-142961666D01*
X167366191Y-143024809D01*
X167576235Y-143165157D01*
X167824000Y-143214440D01*
X169324000Y-143214440D01*
X169571765Y-143165157D01*
X169763896Y-143036778D01*
X173439000Y-143036778D01*
X173439000Y-143687222D01*
X173687914Y-144288153D01*
X174147847Y-144748086D01*
X174748778Y-144997000D01*
X175399222Y-144997000D01*
X176000153Y-144748086D01*
X176460086Y-144288153D01*
X176709000Y-143687222D01*
X176709000Y-143036778D01*
X176460086Y-142435847D01*
X176000153Y-141975914D01*
X175399222Y-141727000D01*
X174748778Y-141727000D01*
X174147847Y-141975914D01*
X173687914Y-142435847D01*
X173439000Y-143036778D01*
X169763896Y-143036778D01*
X169781809Y-143024809D01*
X169922157Y-142814765D01*
X169971440Y-142567000D01*
X169971440Y-141317000D01*
X169939774Y-141157804D01*
X170037924Y-141059655D01*
X170158635Y-141009655D01*
X170421655Y-140746635D01*
X170564000Y-140402983D01*
X170564000Y-140056017D01*
X178359000Y-140056017D01*
X178359000Y-140427983D01*
X178501345Y-140771635D01*
X178764365Y-141034655D01*
X178885077Y-141084656D01*
X178958226Y-141157804D01*
X178926560Y-141317000D01*
X178926560Y-142567000D01*
X178975843Y-142814765D01*
X179116191Y-143024809D01*
X179326235Y-143165157D01*
X179574000Y-143214440D01*
X181074000Y-143214440D01*
X181321765Y-143165157D01*
X181531809Y-143024809D01*
X181574000Y-142961666D01*
X181616191Y-143024809D01*
X181826235Y-143165157D01*
X182074000Y-143214440D01*
X183574000Y-143214440D01*
X183821765Y-143165157D01*
X184013896Y-143036778D01*
X187689000Y-143036778D01*
X187689000Y-143687222D01*
X187937914Y-144288153D01*
X188397847Y-144748086D01*
X188998778Y-144997000D01*
X189649222Y-144997000D01*
X190250153Y-144748086D01*
X190710086Y-144288153D01*
X190959000Y-143687222D01*
X190959000Y-143036778D01*
X190710086Y-142435847D01*
X190250153Y-141975914D01*
X189649222Y-141727000D01*
X188998778Y-141727000D01*
X188397847Y-141975914D01*
X187937914Y-142435847D01*
X187689000Y-143036778D01*
X184013896Y-143036778D01*
X184031809Y-143024809D01*
X184172157Y-142814765D01*
X184221440Y-142567000D01*
X184221440Y-141317000D01*
X184189774Y-141157804D01*
X184262924Y-141084655D01*
X184383635Y-141034655D01*
X184646655Y-140771635D01*
X184789000Y-140427983D01*
X184789000Y-140056017D01*
X184778645Y-140031017D01*
X192584000Y-140031017D01*
X192584000Y-140402983D01*
X192726345Y-140746635D01*
X192989365Y-141009655D01*
X193110077Y-141059656D01*
X193208226Y-141157804D01*
X193176560Y-141317000D01*
X193176560Y-142567000D01*
X193225843Y-142814765D01*
X193366191Y-143024809D01*
X193576235Y-143165157D01*
X193824000Y-143214440D01*
X195324000Y-143214440D01*
X195571765Y-143165157D01*
X195781809Y-143024809D01*
X195824000Y-142961666D01*
X195866191Y-143024809D01*
X196076235Y-143165157D01*
X196324000Y-143214440D01*
X197824000Y-143214440D01*
X198071765Y-143165157D01*
X198263896Y-143036778D01*
X201939000Y-143036778D01*
X201939000Y-143687222D01*
X202187914Y-144288153D01*
X202647847Y-144748086D01*
X203248778Y-144997000D01*
X203899222Y-144997000D01*
X204500153Y-144748086D01*
X204960086Y-144288153D01*
X205209000Y-143687222D01*
X205209000Y-143036778D01*
X204960086Y-142435847D01*
X204500153Y-141975914D01*
X203899222Y-141727000D01*
X203248778Y-141727000D01*
X202647847Y-141975914D01*
X202187914Y-142435847D01*
X201939000Y-143036778D01*
X198263896Y-143036778D01*
X198281809Y-143024809D01*
X198422157Y-142814765D01*
X198471440Y-142567000D01*
X198471440Y-141317000D01*
X198431479Y-141116100D01*
X198487924Y-141059655D01*
X198608635Y-141009655D01*
X198871655Y-140746635D01*
X199014000Y-140402983D01*
X199014000Y-140031017D01*
X198871655Y-139687365D01*
X198608635Y-139424345D01*
X198489529Y-139375010D01*
X198471440Y-139347938D01*
X198471440Y-139292000D01*
X198422157Y-139044235D01*
X198281809Y-138834191D01*
X198071765Y-138693843D01*
X197824000Y-138644560D01*
X196324000Y-138644560D01*
X196076235Y-138693843D01*
X195866191Y-138834191D01*
X195725843Y-139044235D01*
X195724000Y-139053500D01*
X195722157Y-139044235D01*
X195581809Y-138834191D01*
X195371765Y-138693843D01*
X195124000Y-138644560D01*
X193624000Y-138644560D01*
X193376235Y-138693843D01*
X193166191Y-138834191D01*
X193025843Y-139044235D01*
X192976560Y-139292000D01*
X192976560Y-139437150D01*
X192726345Y-139687365D01*
X192584000Y-140031017D01*
X184778645Y-140031017D01*
X184646655Y-139712365D01*
X184471440Y-139537150D01*
X184471440Y-139292000D01*
X184422157Y-139044235D01*
X184281809Y-138834191D01*
X184071765Y-138693843D01*
X183824000Y-138644560D01*
X182324000Y-138644560D01*
X182076235Y-138693843D01*
X181866191Y-138834191D01*
X181725843Y-139044235D01*
X181724000Y-139053500D01*
X181722157Y-139044235D01*
X181581809Y-138834191D01*
X181371765Y-138693843D01*
X181124000Y-138644560D01*
X179624000Y-138644560D01*
X179376235Y-138693843D01*
X179166191Y-138834191D01*
X179025843Y-139044235D01*
X178976977Y-139289902D01*
X178955951Y-139303951D01*
X178906576Y-139377846D01*
X178885078Y-139399344D01*
X178764365Y-139449345D01*
X178501345Y-139712365D01*
X178359000Y-140056017D01*
X170564000Y-140056017D01*
X170564000Y-140031017D01*
X170421655Y-139687365D01*
X170158635Y-139424345D01*
X170071440Y-139388228D01*
X170071440Y-139292000D01*
X170022157Y-139044235D01*
X169881809Y-138834191D01*
X169671765Y-138693843D01*
X169424000Y-138644560D01*
X167924000Y-138644560D01*
X167676235Y-138693843D01*
X167466191Y-138834191D01*
X167325843Y-139044235D01*
X167324000Y-139053500D01*
X167322157Y-139044235D01*
X167181809Y-138834191D01*
X166971765Y-138693843D01*
X166724000Y-138644560D01*
X165224000Y-138644560D01*
X164976235Y-138693843D01*
X164766191Y-138834191D01*
X164625843Y-139044235D01*
X164576560Y-139292000D01*
X164576560Y-139408938D01*
X164539365Y-139424345D01*
X164276345Y-139687365D01*
X164134000Y-140031017D01*
X155571440Y-140031017D01*
X155571440Y-139292000D01*
X155522157Y-139044235D01*
X155381809Y-138834191D01*
X155171765Y-138693843D01*
X154924000Y-138644560D01*
X153424000Y-138644560D01*
X153176235Y-138693843D01*
X152966191Y-138834191D01*
X152825843Y-139044235D01*
X152824000Y-139053500D01*
X152822157Y-139044235D01*
X152681809Y-138834191D01*
X152471765Y-138693843D01*
X152224000Y-138644560D01*
X150724000Y-138644560D01*
X150476235Y-138693843D01*
X150266191Y-138834191D01*
X150125843Y-139044235D01*
X150076560Y-139292000D01*
X150076560Y-139408938D01*
X150039365Y-139424345D01*
X149776345Y-139687365D01*
X149634000Y-140031017D01*
X141789000Y-140031017D01*
X141789000Y-139956017D01*
X141646655Y-139612365D01*
X141383635Y-139349345D01*
X141298939Y-139314263D01*
X141292049Y-139303951D01*
X141040366Y-139135781D01*
X141022157Y-139044235D01*
X140881809Y-138834191D01*
X140671765Y-138693843D01*
X140424000Y-138644560D01*
X139709000Y-138644560D01*
X139709000Y-137689440D01*
X140724000Y-137689440D01*
X140971765Y-137640157D01*
X141181809Y-137499809D01*
X141322157Y-137289765D01*
X141371440Y-137042000D01*
X141371440Y-135542000D01*
X141322157Y-135294235D01*
X141181809Y-135084191D01*
X140971765Y-134943843D01*
X140962500Y-134942000D01*
X140971765Y-134940157D01*
X141181809Y-134799809D01*
X141322157Y-134589765D01*
X141371440Y-134342000D01*
X141371440Y-132842000D01*
X141322157Y-132594235D01*
X141181809Y-132384191D01*
X140971765Y-132243843D01*
X140859000Y-132221413D01*
X140859000Y-131872533D01*
X141021765Y-131840157D01*
X141231809Y-131699809D01*
X141372157Y-131489765D01*
X141421440Y-131242000D01*
X141421440Y-130142000D01*
X141372157Y-129894235D01*
X141231809Y-129684191D01*
X141156251Y-129633705D01*
X141281809Y-129549809D01*
X141422157Y-129339765D01*
X141471440Y-129092000D01*
X141471440Y-127792000D01*
X141422157Y-127544235D01*
X141281809Y-127334191D01*
X141071765Y-127193843D01*
X140824000Y-127144560D01*
X139324000Y-127144560D01*
X139076235Y-127193843D01*
X138866191Y-127334191D01*
X138725843Y-127544235D01*
X138676560Y-127792000D01*
X138676560Y-129092000D01*
X138725843Y-129339765D01*
X138789001Y-129434286D01*
X138789001Y-130304835D01*
X138771663Y-130392000D01*
X138840348Y-130737309D01*
X138986576Y-130956154D01*
X138986578Y-130956156D01*
X139026560Y-131015993D01*
X139026560Y-131242000D01*
X139075843Y-131489765D01*
X139089000Y-131509456D01*
X139089001Y-132302132D01*
X138966191Y-132384191D01*
X138825843Y-132594235D01*
X138776560Y-132842000D01*
X138776560Y-134342000D01*
X138825843Y-134589765D01*
X138966191Y-134799809D01*
X139176235Y-134940157D01*
X139185500Y-134942000D01*
X139176235Y-134943843D01*
X138966191Y-135084191D01*
X138825843Y-135294235D01*
X138776560Y-135542000D01*
X138776560Y-135967000D01*
X138638017Y-135967000D01*
X138294365Y-136109345D01*
X138031345Y-136372365D01*
X137889000Y-136716017D01*
X137889000Y-137087983D01*
X137939001Y-137208696D01*
X137939000Y-138687326D01*
X137724000Y-138644560D01*
X136224000Y-138644560D01*
X135976235Y-138693843D01*
X135766191Y-138834191D01*
X135625843Y-139044235D01*
X135576560Y-139292000D01*
X135576560Y-139537150D01*
X135501345Y-139612365D01*
X135359000Y-139956017D01*
X116534000Y-139956017D01*
X116534000Y-125386670D01*
X119999000Y-125386670D01*
X119999000Y-125997330D01*
X120232690Y-126561507D01*
X120664493Y-126993310D01*
X121228670Y-127227000D01*
X121839330Y-127227000D01*
X122403507Y-126993310D01*
X122835310Y-126561507D01*
X123069000Y-125997330D01*
X123069000Y-125386670D01*
X122835310Y-124822493D01*
X122403507Y-124390690D01*
X121839330Y-124157000D01*
X121228670Y-124157000D01*
X120664493Y-124390690D01*
X120232690Y-124822493D01*
X119999000Y-125386670D01*
X116534000Y-125386670D01*
X116534000Y-119502676D01*
X121514000Y-119502676D01*
X121514000Y-120481324D01*
X121888513Y-121385478D01*
X122580522Y-122077487D01*
X123484676Y-122452000D01*
X124463324Y-122452000D01*
X125367478Y-122077487D01*
X126059487Y-121385478D01*
X126434000Y-120481324D01*
X126434000Y-119502676D01*
X126059487Y-118598522D01*
X125367478Y-117906513D01*
X124463324Y-117532000D01*
X123484676Y-117532000D01*
X122580522Y-117906513D01*
X121888513Y-118598522D01*
X121514000Y-119502676D01*
X116534000Y-119502676D01*
X116534000Y-107632676D01*
X121514000Y-107632676D01*
X121514000Y-108611324D01*
X121888513Y-109515478D01*
X122580522Y-110207487D01*
X123484676Y-110582000D01*
X124463324Y-110582000D01*
X125367478Y-110207487D01*
X126059487Y-109515478D01*
X126434000Y-108611324D01*
X126434000Y-107632676D01*
X126059487Y-106728522D01*
X125367478Y-106036513D01*
X124463324Y-105662000D01*
X123484676Y-105662000D01*
X122580522Y-106036513D01*
X121888513Y-106728522D01*
X121514000Y-107632676D01*
X116534000Y-107632676D01*
X116534000Y-101792676D01*
X121514000Y-101792676D01*
X121514000Y-102771324D01*
X121888513Y-103675478D01*
X122580522Y-104367487D01*
X123484676Y-104742000D01*
X124463324Y-104742000D01*
X125367478Y-104367487D01*
X126059487Y-103675478D01*
X126434000Y-102771324D01*
X126434000Y-101792676D01*
X126059487Y-100888522D01*
X125367478Y-100196513D01*
X124463324Y-99822000D01*
X123484676Y-99822000D01*
X122580522Y-100196513D01*
X121888513Y-100888522D01*
X121514000Y-101792676D01*
X116534000Y-101792676D01*
X116534000Y-99192000D01*
X128299112Y-99192000D01*
X128314000Y-99266847D01*
X128314001Y-108367148D01*
X128299112Y-108442000D01*
X128358097Y-108738537D01*
X128463979Y-108897000D01*
X128526072Y-108989929D01*
X128589528Y-109032329D01*
X128926560Y-109369361D01*
X128926560Y-110362000D01*
X128975843Y-110609765D01*
X129116191Y-110819809D01*
X129326235Y-110960157D01*
X129518844Y-110998469D01*
X129149853Y-111367460D01*
X128939000Y-111876506D01*
X128939000Y-112427494D01*
X129149853Y-112936540D01*
X129539460Y-113326147D01*
X129770870Y-113422000D01*
X129539460Y-113517853D01*
X129149853Y-113907460D01*
X128939000Y-114416506D01*
X128939000Y-114967494D01*
X129149853Y-115476540D01*
X129539460Y-115866147D01*
X130048506Y-116077000D01*
X130313999Y-116077000D01*
X130313999Y-116117152D01*
X130299111Y-116191999D01*
X130313999Y-116266846D01*
X130313999Y-116266850D01*
X130358095Y-116488535D01*
X130526070Y-116739928D01*
X130589529Y-116782330D01*
X131483671Y-117676473D01*
X131526071Y-117739929D01*
X131777463Y-117907904D01*
X131999148Y-117952000D01*
X131999153Y-117952000D01*
X132074000Y-117966888D01*
X132148847Y-117952000D01*
X133749153Y-117952000D01*
X133824000Y-117966888D01*
X133898847Y-117952000D01*
X133898852Y-117952000D01*
X134120537Y-117907904D01*
X134371929Y-117739929D01*
X134414331Y-117676470D01*
X136808473Y-115282329D01*
X136871929Y-115239929D01*
X137039904Y-114988537D01*
X137084000Y-114766852D01*
X137084000Y-114766847D01*
X137098888Y-114692000D01*
X137084000Y-114617153D01*
X137084000Y-108451065D01*
X143514406Y-114881472D01*
X143556807Y-114944929D01*
X143620263Y-114987329D01*
X143808198Y-115112904D01*
X143856341Y-115122480D01*
X144029884Y-115157000D01*
X144029888Y-115157000D01*
X144104736Y-115171888D01*
X144179584Y-115157000D01*
X151430014Y-115157000D01*
X151389000Y-115256017D01*
X151389000Y-115627983D01*
X151531345Y-115971635D01*
X151564000Y-116004290D01*
X151564001Y-124627197D01*
X151009199Y-125182000D01*
X146898846Y-125182000D01*
X146823999Y-125167112D01*
X146749152Y-125182000D01*
X146749148Y-125182000D01*
X146527463Y-125226096D01*
X146276071Y-125394071D01*
X146233671Y-125457527D01*
X143259199Y-128432000D01*
X143148846Y-128432000D01*
X143073999Y-128417112D01*
X142999152Y-128432000D01*
X142999148Y-128432000D01*
X142777463Y-128476096D01*
X142526071Y-128644071D01*
X142483671Y-128707527D01*
X141839530Y-129351669D01*
X141776071Y-129394071D01*
X141608096Y-129645464D01*
X141564000Y-129867149D01*
X141564000Y-129867153D01*
X141549112Y-129942000D01*
X141564000Y-130016847D01*
X141564001Y-133474376D01*
X141483094Y-133595462D01*
X141438998Y-133817147D01*
X141438998Y-133817151D01*
X141424110Y-133891998D01*
X141438998Y-133966845D01*
X141438999Y-135444228D01*
X141424110Y-135519079D01*
X141438999Y-135593931D01*
X141472503Y-135762365D01*
X141483095Y-135815616D01*
X141606071Y-135999662D01*
X141651070Y-136067008D01*
X141714526Y-136109408D01*
X142781590Y-137176473D01*
X142823990Y-137239929D01*
X142887446Y-137282329D01*
X143075381Y-137407904D01*
X143123524Y-137417480D01*
X143295631Y-137451714D01*
X143503375Y-137762625D01*
X143994582Y-138090839D01*
X144427744Y-138177000D01*
X144720256Y-138177000D01*
X145153418Y-138090839D01*
X145644625Y-137762625D01*
X145972839Y-137271418D01*
X146088092Y-136692000D01*
X145972839Y-136112582D01*
X145644625Y-135621375D01*
X145346239Y-135422000D01*
X145644625Y-135222625D01*
X145972839Y-134731418D01*
X146088092Y-134152000D01*
X145972839Y-133572582D01*
X145644625Y-133081375D01*
X145626381Y-133069184D01*
X145671765Y-133060157D01*
X145881809Y-132919809D01*
X146022157Y-132709765D01*
X146071440Y-132462000D01*
X146071440Y-130999995D01*
X146084000Y-130936852D01*
X146084000Y-130936848D01*
X146098888Y-130862001D01*
X146084000Y-130787154D01*
X146084000Y-130256801D01*
X148888802Y-127452000D01*
X152637473Y-127452000D01*
X152575843Y-127544235D01*
X152526560Y-127792000D01*
X152526560Y-129092000D01*
X152575843Y-129339765D01*
X152716191Y-129549809D01*
X152926235Y-129690157D01*
X153039001Y-129712587D01*
X153039001Y-129885541D01*
X152966191Y-129934191D01*
X152825843Y-130144235D01*
X152776560Y-130392000D01*
X152776560Y-131492000D01*
X152825843Y-131739765D01*
X152966191Y-131949809D01*
X153089000Y-132031868D01*
X153089001Y-132202132D01*
X152966191Y-132284191D01*
X152825843Y-132494235D01*
X152776560Y-132742000D01*
X152776560Y-133157150D01*
X152731345Y-133202365D01*
X152589000Y-133546017D01*
X152589000Y-133917983D01*
X152731345Y-134261635D01*
X152792662Y-134322952D01*
X152825843Y-134489765D01*
X152966191Y-134699809D01*
X153176235Y-134840157D01*
X153185500Y-134842000D01*
X153176235Y-134843843D01*
X152966191Y-134984191D01*
X152825843Y-135194235D01*
X152776560Y-135442000D01*
X152776560Y-136942000D01*
X152825843Y-137189765D01*
X152966191Y-137399809D01*
X153176235Y-137540157D01*
X153424000Y-137589440D01*
X154724000Y-137589440D01*
X154971765Y-137540157D01*
X155181809Y-137399809D01*
X155322157Y-137189765D01*
X155371440Y-136942000D01*
X155371440Y-135442000D01*
X155322157Y-135194235D01*
X155181809Y-134984191D01*
X154971765Y-134843843D01*
X154962500Y-134842000D01*
X154971765Y-134840157D01*
X155181809Y-134699809D01*
X155322157Y-134489765D01*
X155371440Y-134242000D01*
X155371440Y-132742000D01*
X155322157Y-132494235D01*
X155181809Y-132284191D01*
X154971765Y-132143843D01*
X154859000Y-132121413D01*
X154859000Y-132031868D01*
X154981809Y-131949809D01*
X155122157Y-131739765D01*
X155171440Y-131492000D01*
X155171440Y-130392000D01*
X155122157Y-130144235D01*
X154981809Y-129934191D01*
X154809000Y-129818723D01*
X154809000Y-129712587D01*
X154921765Y-129690157D01*
X155131809Y-129549809D01*
X155272157Y-129339765D01*
X155321440Y-129092000D01*
X155321440Y-127792000D01*
X155272157Y-127544235D01*
X155210527Y-127452000D01*
X156999153Y-127452000D01*
X157074000Y-127466888D01*
X157148847Y-127452000D01*
X157148852Y-127452000D01*
X157370537Y-127407904D01*
X157439002Y-127362157D01*
X157439002Y-127602149D01*
X157424113Y-127677001D01*
X157483098Y-127973538D01*
X157600569Y-128149345D01*
X157651073Y-128224930D01*
X157714529Y-128267330D01*
X158064000Y-128616802D01*
X158064001Y-130154560D01*
X157974000Y-130154560D01*
X157726235Y-130203843D01*
X157516191Y-130344191D01*
X157375843Y-130554235D01*
X157326560Y-130802000D01*
X157326560Y-132502000D01*
X157375843Y-132749765D01*
X157516191Y-132959809D01*
X157726235Y-133100157D01*
X157771619Y-133109184D01*
X157753375Y-133121375D01*
X157425161Y-133612582D01*
X157318020Y-134151219D01*
X157084000Y-133917199D01*
X157084000Y-129504290D01*
X157116655Y-129471635D01*
X157259000Y-129127983D01*
X157259000Y-128756017D01*
X157116655Y-128412365D01*
X156853635Y-128149345D01*
X156509983Y-128007000D01*
X156138017Y-128007000D01*
X155794365Y-128149345D01*
X155531345Y-128412365D01*
X155389000Y-128756017D01*
X155389000Y-129127983D01*
X155531345Y-129471635D01*
X155564000Y-129504290D01*
X155564001Y-134157148D01*
X155549112Y-134232000D01*
X155608097Y-134528537D01*
X155622311Y-134549809D01*
X155776072Y-134779929D01*
X155839528Y-134822329D01*
X157382791Y-136365592D01*
X157309908Y-136732000D01*
X157425161Y-137311418D01*
X157753375Y-137802625D01*
X158244582Y-138130839D01*
X158677744Y-138217000D01*
X158970256Y-138217000D01*
X159403418Y-138130839D01*
X159894625Y-137802625D01*
X160222839Y-137311418D01*
X160338092Y-136732000D01*
X160222839Y-136152582D01*
X159894625Y-135661375D01*
X159596239Y-135462000D01*
X159894625Y-135262625D01*
X160222839Y-134771418D01*
X160338092Y-134192000D01*
X160222839Y-133612582D01*
X159894625Y-133121375D01*
X159876381Y-133109184D01*
X159921765Y-133100157D01*
X160131809Y-132959809D01*
X160272157Y-132749765D01*
X160321440Y-132502000D01*
X160321440Y-130802000D01*
X160272157Y-130554235D01*
X160131809Y-130344191D01*
X159921765Y-130203843D01*
X159674000Y-130154560D01*
X159584000Y-130154560D01*
X159584000Y-128376846D01*
X159598888Y-128301999D01*
X159584000Y-128227152D01*
X159584000Y-128227148D01*
X159539904Y-128005463D01*
X159371929Y-127754071D01*
X159313009Y-127714702D01*
X159324000Y-127716888D01*
X159398848Y-127702000D01*
X167544462Y-127702000D01*
X167526560Y-127792000D01*
X167526560Y-129092000D01*
X167575843Y-129339765D01*
X167716191Y-129549809D01*
X167926235Y-129690157D01*
X168039001Y-129712587D01*
X168039001Y-129885541D01*
X167966191Y-129934191D01*
X167825843Y-130144235D01*
X167776560Y-130392000D01*
X167776560Y-131492000D01*
X167825843Y-131739765D01*
X167966191Y-131949809D01*
X168089001Y-132031868D01*
X168089001Y-132202132D01*
X167966191Y-132284191D01*
X167825843Y-132494235D01*
X167776560Y-132742000D01*
X167776560Y-133157150D01*
X167731345Y-133202365D01*
X167589000Y-133546017D01*
X167589000Y-133917983D01*
X167731345Y-134261635D01*
X167792662Y-134322952D01*
X167825843Y-134489765D01*
X167966191Y-134699809D01*
X168176235Y-134840157D01*
X168185500Y-134842000D01*
X168176235Y-134843843D01*
X167966191Y-134984191D01*
X167825843Y-135194235D01*
X167776560Y-135442000D01*
X167776560Y-136942000D01*
X167825843Y-137189765D01*
X167966191Y-137399809D01*
X168176235Y-137540157D01*
X168424000Y-137589440D01*
X169724000Y-137589440D01*
X169971765Y-137540157D01*
X170181809Y-137399809D01*
X170322157Y-137189765D01*
X170371440Y-136942000D01*
X170371440Y-136710083D01*
X170509000Y-136377983D01*
X170509000Y-136006017D01*
X170371440Y-135673917D01*
X170371440Y-135442000D01*
X170322157Y-135194235D01*
X170181809Y-134984191D01*
X169971765Y-134843843D01*
X169962500Y-134842000D01*
X169971765Y-134840157D01*
X170181809Y-134699809D01*
X170322157Y-134489765D01*
X170362779Y-134285540D01*
X170526081Y-134529939D01*
X170589540Y-134572341D01*
X172382791Y-136365592D01*
X172309908Y-136732000D01*
X172425161Y-137311418D01*
X172753375Y-137802625D01*
X173244582Y-138130839D01*
X173677744Y-138217000D01*
X173970256Y-138217000D01*
X174403418Y-138130839D01*
X174894625Y-137802625D01*
X175222839Y-137311418D01*
X175338092Y-136732000D01*
X175222839Y-136152582D01*
X174894625Y-135661375D01*
X174596239Y-135462000D01*
X174894625Y-135262625D01*
X175222839Y-134771418D01*
X175338092Y-134192000D01*
X175222839Y-133612582D01*
X174894625Y-133121375D01*
X174876381Y-133109184D01*
X174921765Y-133100157D01*
X175131809Y-132959809D01*
X175272157Y-132749765D01*
X175321440Y-132502000D01*
X175321440Y-130802000D01*
X175272157Y-130554235D01*
X175131809Y-130344191D01*
X174921765Y-130203843D01*
X174674000Y-130154560D01*
X174584000Y-130154560D01*
X174584000Y-130091845D01*
X174598888Y-130016998D01*
X174584000Y-129942151D01*
X174584000Y-129942146D01*
X174539904Y-129720461D01*
X174371929Y-129469069D01*
X174308473Y-129426669D01*
X172133792Y-127251989D01*
X181839214Y-127251989D01*
X181716191Y-127334191D01*
X181575843Y-127544235D01*
X181526560Y-127792000D01*
X181526560Y-129092000D01*
X181575843Y-129339765D01*
X181716191Y-129549809D01*
X181926235Y-129690157D01*
X182039001Y-129712587D01*
X182039001Y-129885541D01*
X181966191Y-129934191D01*
X181825843Y-130144235D01*
X181776560Y-130392000D01*
X181776560Y-131492000D01*
X181825843Y-131739765D01*
X181966191Y-131949809D01*
X182104164Y-132042000D01*
X181966191Y-132134191D01*
X181825843Y-132344235D01*
X181776560Y-132592000D01*
X181776560Y-134092000D01*
X181825843Y-134339765D01*
X181966191Y-134549809D01*
X182176235Y-134690157D01*
X182185500Y-134692000D01*
X182176235Y-134693843D01*
X181966191Y-134834191D01*
X181825843Y-135044235D01*
X181776560Y-135292000D01*
X181776560Y-136792000D01*
X181825843Y-137039765D01*
X181966191Y-137249809D01*
X182176235Y-137390157D01*
X182424000Y-137439440D01*
X183724000Y-137439440D01*
X183971765Y-137390157D01*
X184181809Y-137249809D01*
X184322157Y-137039765D01*
X184371440Y-136792000D01*
X184371440Y-135292000D01*
X184322157Y-135044235D01*
X184181809Y-134834191D01*
X183971765Y-134693843D01*
X183962500Y-134692000D01*
X183971765Y-134690157D01*
X184181809Y-134549809D01*
X184322157Y-134339765D01*
X184371440Y-134092000D01*
X184371440Y-134048507D01*
X184526071Y-134279929D01*
X184589530Y-134322331D01*
X186632791Y-136365592D01*
X186559908Y-136732000D01*
X186675161Y-137311418D01*
X187003375Y-137802625D01*
X187494582Y-138130839D01*
X187927744Y-138217000D01*
X188220256Y-138217000D01*
X188653418Y-138130839D01*
X189144625Y-137802625D01*
X189472839Y-137311418D01*
X189588092Y-136732000D01*
X189472839Y-136152582D01*
X189144625Y-135661375D01*
X188846239Y-135462000D01*
X189144625Y-135262625D01*
X189472839Y-134771418D01*
X189588092Y-134192000D01*
X189472839Y-133612582D01*
X189144625Y-133121375D01*
X189126381Y-133109184D01*
X189171765Y-133100157D01*
X189381809Y-132959809D01*
X189522157Y-132749765D01*
X189571440Y-132502000D01*
X189571440Y-130802000D01*
X189522157Y-130554235D01*
X189381809Y-130344191D01*
X189171765Y-130203843D01*
X188924000Y-130154560D01*
X188834000Y-130154560D01*
X188834000Y-129341844D01*
X188848888Y-129266997D01*
X188834000Y-129192150D01*
X188834000Y-129192146D01*
X188789904Y-128970461D01*
X188621929Y-128719069D01*
X188558473Y-128676669D01*
X186833803Y-126952000D01*
X197509199Y-126952000D01*
X197708651Y-127151453D01*
X197674000Y-127144560D01*
X196174000Y-127144560D01*
X195926235Y-127193843D01*
X195716191Y-127334191D01*
X195575843Y-127544235D01*
X195526560Y-127792000D01*
X195526560Y-129092000D01*
X195575843Y-129339765D01*
X195716191Y-129549809D01*
X195926235Y-129690157D01*
X196039001Y-129712587D01*
X196039001Y-129885541D01*
X195966191Y-129934191D01*
X195825843Y-130144235D01*
X195776560Y-130392000D01*
X195776560Y-131492000D01*
X195825843Y-131739765D01*
X195966191Y-131949809D01*
X196089000Y-132031868D01*
X196089000Y-132052132D01*
X195966191Y-132134191D01*
X195825843Y-132344235D01*
X195776560Y-132592000D01*
X195776560Y-134092000D01*
X195825843Y-134339765D01*
X195966191Y-134549809D01*
X196176235Y-134690157D01*
X196185500Y-134692000D01*
X196176235Y-134693843D01*
X195966191Y-134834191D01*
X195825843Y-135044235D01*
X195776560Y-135292000D01*
X195776560Y-136792000D01*
X195825843Y-137039765D01*
X195966191Y-137249809D01*
X196176235Y-137390157D01*
X196424000Y-137439440D01*
X197724000Y-137439440D01*
X197971765Y-137390157D01*
X198181809Y-137249809D01*
X198322157Y-137039765D01*
X198371440Y-136792000D01*
X198371440Y-135292000D01*
X198322157Y-135044235D01*
X198181809Y-134834191D01*
X197971765Y-134693843D01*
X197962500Y-134692000D01*
X197971765Y-134690157D01*
X198181809Y-134549809D01*
X198322157Y-134339765D01*
X198371440Y-134092000D01*
X198371440Y-132592000D01*
X198322157Y-132344235D01*
X198181809Y-132134191D01*
X197971765Y-131993843D01*
X197928722Y-131985281D01*
X197981809Y-131949809D01*
X198122157Y-131739765D01*
X198171440Y-131492000D01*
X198171440Y-130392000D01*
X198122157Y-130144235D01*
X197981809Y-129934191D01*
X197809000Y-129818723D01*
X197809000Y-129712587D01*
X197921765Y-129690157D01*
X198131809Y-129549809D01*
X198272157Y-129339765D01*
X198321440Y-129092000D01*
X198321440Y-127792000D01*
X198314548Y-127757349D01*
X200954186Y-130396988D01*
X200875843Y-130514235D01*
X200826560Y-130762000D01*
X200826560Y-132462000D01*
X200875843Y-132709765D01*
X201016191Y-132919809D01*
X201226235Y-133060157D01*
X201271619Y-133069184D01*
X201253375Y-133081375D01*
X200925161Y-133572582D01*
X200809908Y-134152000D01*
X200925161Y-134731418D01*
X201253375Y-135222625D01*
X201551761Y-135422000D01*
X201253375Y-135621375D01*
X200925161Y-136112582D01*
X200809908Y-136692000D01*
X200925161Y-137271418D01*
X201253375Y-137762625D01*
X201744582Y-138090839D01*
X202177744Y-138177000D01*
X202470256Y-138177000D01*
X202903418Y-138090839D01*
X203394625Y-137762625D01*
X203722839Y-137271418D01*
X203838092Y-136692000D01*
X203765209Y-136325593D01*
X203983477Y-136107326D01*
X204046930Y-136064928D01*
X204089328Y-136001475D01*
X204089330Y-136001473D01*
X204214904Y-135813537D01*
X204214905Y-135813536D01*
X204259001Y-135591851D01*
X204259001Y-135591847D01*
X204273889Y-135517000D01*
X204259001Y-135442153D01*
X204259001Y-130576847D01*
X204273889Y-130501999D01*
X204259001Y-130427151D01*
X204259001Y-130427147D01*
X204214905Y-130205462D01*
X204214905Y-130205461D01*
X204089330Y-130017526D01*
X204046930Y-129954070D01*
X203983474Y-129911670D01*
X198379300Y-124307497D01*
X198336898Y-124244038D01*
X198085506Y-124076063D01*
X197863821Y-124031967D01*
X197863816Y-124031967D01*
X197788969Y-124017079D01*
X197714122Y-124031967D01*
X171738769Y-124031967D01*
X171164331Y-123457530D01*
X171121929Y-123394071D01*
X170870537Y-123226096D01*
X170648852Y-123182000D01*
X170648847Y-123182000D01*
X170574000Y-123167112D01*
X170499153Y-123182000D01*
X167138802Y-123182000D01*
X165834000Y-121877199D01*
X165834000Y-115894440D01*
X167274000Y-115894440D01*
X167521765Y-115845157D01*
X167731809Y-115704809D01*
X167872157Y-115494765D01*
X167921440Y-115247000D01*
X167921440Y-114647000D01*
X167872157Y-114399235D01*
X167731809Y-114189191D01*
X167521765Y-114048843D01*
X167274000Y-113999560D01*
X165584000Y-113999560D01*
X165584000Y-112084440D01*
X167274000Y-112084440D01*
X167521765Y-112035157D01*
X167731809Y-111894809D01*
X167872157Y-111684765D01*
X167921440Y-111437000D01*
X167921440Y-110837000D01*
X167872157Y-110589235D01*
X167853299Y-110561013D01*
X168071929Y-110414929D01*
X168114331Y-110351470D01*
X168808473Y-109657329D01*
X168871929Y-109614929D01*
X168957323Y-109487128D01*
X169039904Y-109363538D01*
X169057183Y-109276671D01*
X169084000Y-109141852D01*
X169084000Y-109141848D01*
X169098888Y-109067000D01*
X169084000Y-108992152D01*
X169084000Y-104766848D01*
X169098888Y-104692000D01*
X169084000Y-104617152D01*
X169084000Y-104617148D01*
X169039904Y-104395463D01*
X168918948Y-104214440D01*
X170324000Y-104214440D01*
X170571765Y-104165157D01*
X170781809Y-104024809D01*
X170922157Y-103814765D01*
X170971440Y-103567000D01*
X170971440Y-102317000D01*
X170922157Y-102069235D01*
X170781809Y-101859191D01*
X170571765Y-101718843D01*
X170324000Y-101669560D01*
X168824000Y-101669560D01*
X168630177Y-101708113D01*
X168866655Y-101471635D01*
X169009000Y-101127983D01*
X169009000Y-100756017D01*
X168866655Y-100412365D01*
X168707295Y-100253005D01*
X168791634Y-100168665D01*
X168933979Y-99825013D01*
X168933979Y-99453047D01*
X168791634Y-99109395D01*
X168528614Y-98846375D01*
X168184962Y-98704030D01*
X167921440Y-98704030D01*
X167921440Y-98137000D01*
X167872157Y-97889235D01*
X167837281Y-97837040D01*
X168078603Y-97737081D01*
X168341623Y-97474061D01*
X168483968Y-97130409D01*
X168483968Y-96758443D01*
X168341623Y-96414791D01*
X168078603Y-96151771D01*
X167734951Y-96009426D01*
X167362985Y-96009426D01*
X167019333Y-96151771D01*
X166948180Y-96222924D01*
X166920037Y-96228522D01*
X166668645Y-96396497D01*
X166626245Y-96459953D01*
X165789528Y-97296671D01*
X165726072Y-97339071D01*
X165625518Y-97489560D01*
X165334000Y-97489560D01*
X165334000Y-96256801D01*
X165908473Y-95682329D01*
X165971929Y-95639929D01*
X166072483Y-95489440D01*
X166174000Y-95489440D01*
X166421765Y-95440157D01*
X166631809Y-95299809D01*
X166772157Y-95089765D01*
X166821440Y-94842000D01*
X166821440Y-93542000D01*
X166772157Y-93294235D01*
X166631809Y-93084191D01*
X166421765Y-92943843D01*
X166174000Y-92894560D01*
X164674000Y-92894560D01*
X164426235Y-92943843D01*
X164216191Y-93084191D01*
X164075843Y-93294235D01*
X164074000Y-93303500D01*
X164072157Y-93294235D01*
X163931809Y-93084191D01*
X163721765Y-92943843D01*
X163474000Y-92894560D01*
X161974000Y-92894560D01*
X161726235Y-92943843D01*
X161516191Y-93084191D01*
X161375843Y-93294235D01*
X161348440Y-93432000D01*
X160760273Y-93432000D01*
X160685425Y-93417112D01*
X160610577Y-93432000D01*
X160610573Y-93432000D01*
X160437030Y-93466520D01*
X160388887Y-93476096D01*
X160201843Y-93601076D01*
X160137496Y-93644071D01*
X160095096Y-93707527D01*
X158899528Y-94903096D01*
X158836069Y-94945498D01*
X158668094Y-95196891D01*
X158623998Y-95418576D01*
X158623998Y-95418580D01*
X158609110Y-95493427D01*
X158623998Y-95568274D01*
X158623999Y-97127197D01*
X158535794Y-97215402D01*
X156077921Y-94757530D01*
X156035519Y-94694071D01*
X155784127Y-94526096D01*
X155562442Y-94482000D01*
X155562437Y-94482000D01*
X155487590Y-94467112D01*
X155412743Y-94482000D01*
X154369451Y-94482000D01*
X154322157Y-94244235D01*
X154181809Y-94034191D01*
X153971765Y-93893843D01*
X153724000Y-93844560D01*
X152424000Y-93844560D01*
X152176235Y-93893843D01*
X151966191Y-94034191D01*
X151825843Y-94244235D01*
X151776560Y-94492000D01*
X151776560Y-95992000D01*
X151825843Y-96239765D01*
X151966191Y-96449809D01*
X152176235Y-96590157D01*
X152185500Y-96592000D01*
X152176235Y-96593843D01*
X151966191Y-96734191D01*
X151825843Y-96944235D01*
X151776560Y-97192000D01*
X151776560Y-98692000D01*
X151825843Y-98939765D01*
X151966191Y-99149809D01*
X152176235Y-99290157D01*
X152314001Y-99317560D01*
X152314001Y-99392198D01*
X152149198Y-99557001D01*
X150633846Y-99557001D01*
X150558999Y-99542113D01*
X150484152Y-99557001D01*
X150484148Y-99557001D01*
X150262463Y-99601097D01*
X150141383Y-99682000D01*
X145073849Y-99682000D01*
X144999002Y-99667112D01*
X144924155Y-99682000D01*
X144924150Y-99682000D01*
X144702465Y-99726096D01*
X144451073Y-99894071D01*
X144408673Y-99957527D01*
X141964531Y-102401670D01*
X141901072Y-102444072D01*
X141733097Y-102695465D01*
X141689001Y-102917150D01*
X141689001Y-102917154D01*
X141674113Y-102992001D01*
X141689001Y-103066848D01*
X141689002Y-103932000D01*
X136588824Y-103932000D01*
X136209022Y-103552199D01*
X136209022Y-103506017D01*
X136066677Y-103162365D01*
X135803657Y-102899345D01*
X135460005Y-102757000D01*
X135409012Y-102757000D01*
X135409012Y-95031858D01*
X135423900Y-94957011D01*
X135409012Y-94882164D01*
X135409012Y-94882160D01*
X135364916Y-94660475D01*
X135196941Y-94409083D01*
X135133485Y-94366683D01*
X134238835Y-93472034D01*
X134249000Y-93447494D01*
X134249000Y-92896506D01*
X134038147Y-92387460D01*
X133648540Y-91997853D01*
X133139494Y-91787000D01*
X132588506Y-91787000D01*
X132079460Y-91997853D01*
X131721440Y-92355873D01*
X131721440Y-91152000D01*
X131672157Y-90904235D01*
X131531809Y-90694191D01*
X131321765Y-90553843D01*
X131074000Y-90504560D01*
X129574000Y-90504560D01*
X129326235Y-90553843D01*
X129116191Y-90694191D01*
X128975843Y-90904235D01*
X128926560Y-91152000D01*
X128926560Y-92652000D01*
X128975843Y-92899765D01*
X129116191Y-93109809D01*
X129326235Y-93250157D01*
X129518844Y-93288469D01*
X129149853Y-93657460D01*
X128939000Y-94166506D01*
X128939000Y-94717494D01*
X129149853Y-95226540D01*
X129539460Y-95616147D01*
X129770870Y-95712000D01*
X129539460Y-95807853D01*
X129149853Y-96197460D01*
X128939000Y-96706506D01*
X128939000Y-97257494D01*
X129149853Y-97766540D01*
X129287256Y-97903943D01*
X128589530Y-98601669D01*
X128526071Y-98644071D01*
X128358096Y-98895464D01*
X128314000Y-99117149D01*
X128314000Y-99117153D01*
X128299112Y-99192000D01*
X116534000Y-99192000D01*
X116534000Y-89922676D01*
X121514000Y-89922676D01*
X121514000Y-90901324D01*
X121888513Y-91805478D01*
X122580522Y-92497487D01*
X123484676Y-92872000D01*
X124463324Y-92872000D01*
X125367478Y-92497487D01*
X126059487Y-91805478D01*
X126434000Y-90901324D01*
X126434000Y-89922676D01*
X126059487Y-89018522D01*
X125367478Y-88326513D01*
X124463324Y-87952000D01*
X123484676Y-87952000D01*
X122580522Y-88326513D01*
X121888513Y-89018522D01*
X121514000Y-89922676D01*
X116534000Y-89922676D01*
X116534000Y-87946778D01*
X175189000Y-87946778D01*
X175189000Y-88597222D01*
X175437914Y-89198153D01*
X175897847Y-89658086D01*
X176498778Y-89907000D01*
X177149222Y-89907000D01*
X177750153Y-89658086D01*
X178210086Y-89198153D01*
X178459000Y-88597222D01*
X178459000Y-87946778D01*
X182689000Y-87946778D01*
X182689000Y-88597222D01*
X182937914Y-89198153D01*
X183397847Y-89658086D01*
X183998778Y-89907000D01*
X184649222Y-89907000D01*
X185250153Y-89658086D01*
X185710086Y-89198153D01*
X185959000Y-88597222D01*
X185959000Y-87946778D01*
X190189000Y-87946778D01*
X190189000Y-88597222D01*
X190437914Y-89198153D01*
X190897847Y-89658086D01*
X191498778Y-89907000D01*
X192149222Y-89907000D01*
X192750153Y-89658086D01*
X193210086Y-89198153D01*
X193459000Y-88597222D01*
X193459000Y-87946778D01*
X197689000Y-87946778D01*
X197689000Y-88597222D01*
X197937914Y-89198153D01*
X198397847Y-89658086D01*
X198998778Y-89907000D01*
X199649222Y-89907000D01*
X200250153Y-89658086D01*
X200710086Y-89198153D01*
X200959000Y-88597222D01*
X200959000Y-87946778D01*
X200710086Y-87345847D01*
X200250153Y-86885914D01*
X199649222Y-86637000D01*
X198998778Y-86637000D01*
X198397847Y-86885914D01*
X197937914Y-87345847D01*
X197689000Y-87946778D01*
X193459000Y-87946778D01*
X193210086Y-87345847D01*
X192750153Y-86885914D01*
X192149222Y-86637000D01*
X191498778Y-86637000D01*
X190897847Y-86885914D01*
X190437914Y-87345847D01*
X190189000Y-87946778D01*
X185959000Y-87946778D01*
X185710086Y-87345847D01*
X185250153Y-86885914D01*
X184649222Y-86637000D01*
X183998778Y-86637000D01*
X183397847Y-86885914D01*
X182937914Y-87345847D01*
X182689000Y-87946778D01*
X178459000Y-87946778D01*
X178210086Y-87345847D01*
X177750153Y-86885914D01*
X177149222Y-86637000D01*
X176498778Y-86637000D01*
X175897847Y-86885914D01*
X175437914Y-87345847D01*
X175189000Y-87946778D01*
X116534000Y-87946778D01*
X116534000Y-86442000D01*
X161070887Y-86442000D01*
X161182260Y-87001909D01*
X161499423Y-87476577D01*
X161974091Y-87793740D01*
X162392667Y-87877000D01*
X162675333Y-87877000D01*
X163093909Y-87793740D01*
X163568577Y-87476577D01*
X163804000Y-87124242D01*
X164039423Y-87476577D01*
X164514091Y-87793740D01*
X164932667Y-87877000D01*
X165215333Y-87877000D01*
X165633909Y-87793740D01*
X166108577Y-87476577D01*
X166344000Y-87124242D01*
X166579423Y-87476577D01*
X167054091Y-87793740D01*
X167472667Y-87877000D01*
X167755333Y-87877000D01*
X168173909Y-87793740D01*
X168648577Y-87476577D01*
X168965740Y-87001909D01*
X169077113Y-86442000D01*
X168965740Y-85882091D01*
X168648577Y-85407423D01*
X168173909Y-85090260D01*
X167755333Y-85007000D01*
X167472667Y-85007000D01*
X167054091Y-85090260D01*
X166579423Y-85407423D01*
X166344000Y-85759758D01*
X166108577Y-85407423D01*
X165633909Y-85090260D01*
X165215333Y-85007000D01*
X164932667Y-85007000D01*
X164514091Y-85090260D01*
X164039423Y-85407423D01*
X163804000Y-85759758D01*
X163568577Y-85407423D01*
X163093909Y-85090260D01*
X162675333Y-85007000D01*
X162392667Y-85007000D01*
X161974091Y-85090260D01*
X161499423Y-85407423D01*
X161182260Y-85882091D01*
X161070887Y-86442000D01*
X116534000Y-86442000D01*
X116534000Y-82402000D01*
X135229908Y-82402000D01*
X135345161Y-82981418D01*
X135673375Y-83472625D01*
X135691619Y-83484816D01*
X135646235Y-83493843D01*
X135436191Y-83634191D01*
X135295843Y-83844235D01*
X135246560Y-84092000D01*
X135246560Y-85792000D01*
X135295843Y-86039765D01*
X135436191Y-86249809D01*
X135646235Y-86390157D01*
X135894000Y-86439440D01*
X137594000Y-86439440D01*
X137841765Y-86390157D01*
X138051809Y-86249809D01*
X138192157Y-86039765D01*
X138201184Y-85994381D01*
X138213375Y-86012625D01*
X138704582Y-86340839D01*
X139137744Y-86427000D01*
X139430256Y-86427000D01*
X139863418Y-86340839D01*
X140354625Y-86012625D01*
X140554000Y-85714239D01*
X140753375Y-86012625D01*
X141244582Y-86340839D01*
X141677744Y-86427000D01*
X141970256Y-86427000D01*
X142403418Y-86340839D01*
X142894625Y-86012625D01*
X143222839Y-85521418D01*
X143338092Y-84942000D01*
X143222839Y-84362582D01*
X142894625Y-83871375D01*
X142403418Y-83543161D01*
X141970256Y-83457000D01*
X141677744Y-83457000D01*
X141244582Y-83543161D01*
X140753375Y-83871375D01*
X140554000Y-84169761D01*
X140354625Y-83871375D01*
X140056239Y-83672000D01*
X140354625Y-83472625D01*
X140682839Y-82981418D01*
X140798092Y-82402000D01*
X144979908Y-82402000D01*
X145095161Y-82981418D01*
X145423375Y-83472625D01*
X145441619Y-83484816D01*
X145396235Y-83493843D01*
X145186191Y-83634191D01*
X145045843Y-83844235D01*
X144996560Y-84092000D01*
X144996560Y-85792000D01*
X145045843Y-86039765D01*
X145186191Y-86249809D01*
X145396235Y-86390157D01*
X145644000Y-86439440D01*
X147344000Y-86439440D01*
X147591765Y-86390157D01*
X147801809Y-86249809D01*
X147942157Y-86039765D01*
X147951184Y-85994381D01*
X147963375Y-86012625D01*
X148454582Y-86340839D01*
X148887744Y-86427000D01*
X149180256Y-86427000D01*
X149613418Y-86340839D01*
X150104625Y-86012625D01*
X150304000Y-85714239D01*
X150503375Y-86012625D01*
X150994582Y-86340839D01*
X151427744Y-86427000D01*
X151720256Y-86427000D01*
X152153418Y-86340839D01*
X152644625Y-86012625D01*
X152972839Y-85521418D01*
X153088092Y-84942000D01*
X152972839Y-84362582D01*
X152644625Y-83871375D01*
X152153418Y-83543161D01*
X151720256Y-83457000D01*
X151427744Y-83457000D01*
X150994582Y-83543161D01*
X150503375Y-83871375D01*
X150304000Y-84169761D01*
X150104625Y-83871375D01*
X149806239Y-83672000D01*
X150104625Y-83472625D01*
X150432839Y-82981418D01*
X150455642Y-82866778D01*
X175189000Y-82866778D01*
X175189000Y-83517222D01*
X175437914Y-84118153D01*
X175897847Y-84578086D01*
X176498778Y-84827000D01*
X177149222Y-84827000D01*
X177750153Y-84578086D01*
X178210086Y-84118153D01*
X178459000Y-83517222D01*
X178459000Y-82866778D01*
X182689000Y-82866778D01*
X182689000Y-83517222D01*
X182937914Y-84118153D01*
X183397847Y-84578086D01*
X183998778Y-84827000D01*
X184649222Y-84827000D01*
X185250153Y-84578086D01*
X185710086Y-84118153D01*
X185959000Y-83517222D01*
X185959000Y-82866778D01*
X190189000Y-82866778D01*
X190189000Y-83517222D01*
X190437914Y-84118153D01*
X190897847Y-84578086D01*
X191498778Y-84827000D01*
X192149222Y-84827000D01*
X192750153Y-84578086D01*
X193210086Y-84118153D01*
X193459000Y-83517222D01*
X193459000Y-82866778D01*
X197689000Y-82866778D01*
X197689000Y-83517222D01*
X197937914Y-84118153D01*
X198397847Y-84578086D01*
X198998778Y-84827000D01*
X199649222Y-84827000D01*
X200250153Y-84578086D01*
X200710086Y-84118153D01*
X200959000Y-83517222D01*
X200959000Y-82866778D01*
X200710086Y-82265847D01*
X200250153Y-81805914D01*
X199649222Y-81557000D01*
X198998778Y-81557000D01*
X198397847Y-81805914D01*
X197937914Y-82265847D01*
X197689000Y-82866778D01*
X193459000Y-82866778D01*
X193210086Y-82265847D01*
X192750153Y-81805914D01*
X192149222Y-81557000D01*
X191498778Y-81557000D01*
X190897847Y-81805914D01*
X190437914Y-82265847D01*
X190189000Y-82866778D01*
X185959000Y-82866778D01*
X185710086Y-82265847D01*
X185250153Y-81805914D01*
X184649222Y-81557000D01*
X183998778Y-81557000D01*
X183397847Y-81805914D01*
X182937914Y-82265847D01*
X182689000Y-82866778D01*
X178459000Y-82866778D01*
X178210086Y-82265847D01*
X177750153Y-81805914D01*
X177149222Y-81557000D01*
X176498778Y-81557000D01*
X175897847Y-81805914D01*
X175437914Y-82265847D01*
X175189000Y-82866778D01*
X150455642Y-82866778D01*
X150548092Y-82402000D01*
X150432839Y-81822582D01*
X150104625Y-81331375D01*
X149613418Y-81003161D01*
X149180256Y-80917000D01*
X148887744Y-80917000D01*
X148454582Y-81003161D01*
X147963375Y-81331375D01*
X147764000Y-81629761D01*
X147564625Y-81331375D01*
X147073418Y-81003161D01*
X146640256Y-80917000D01*
X146347744Y-80917000D01*
X145914582Y-81003161D01*
X145423375Y-81331375D01*
X145095161Y-81822582D01*
X144979908Y-82402000D01*
X140798092Y-82402000D01*
X140682839Y-81822582D01*
X140354625Y-81331375D01*
X139863418Y-81003161D01*
X139430256Y-80917000D01*
X139137744Y-80917000D01*
X138704582Y-81003161D01*
X138213375Y-81331375D01*
X138014000Y-81629761D01*
X137814625Y-81331375D01*
X137323418Y-81003161D01*
X136890256Y-80917000D01*
X136597744Y-80917000D01*
X136164582Y-81003161D01*
X135673375Y-81331375D01*
X135345161Y-81822582D01*
X135229908Y-82402000D01*
X116534000Y-82402000D01*
X116534000Y-76402000D01*
X219114000Y-76402000D01*
X219114001Y-155982000D01*
X219114001Y-155982000D01*
G37*
X219114001Y-155982000D02*
X116534000Y-155982000D01*
X116534000Y-148196778D01*
X144189000Y-148196778D01*
X144189000Y-148847222D01*
X144437914Y-149448153D01*
X144897847Y-149908086D01*
X145498778Y-150157000D01*
X146149222Y-150157000D01*
X146750153Y-149908086D01*
X147210086Y-149448153D01*
X147459000Y-148847222D01*
X147459000Y-148196778D01*
X147425863Y-148116778D01*
X158939000Y-148116778D01*
X158939000Y-148767222D01*
X159187914Y-149368153D01*
X159647847Y-149828086D01*
X160248778Y-150077000D01*
X160899222Y-150077000D01*
X161500153Y-149828086D01*
X161960086Y-149368153D01*
X162209000Y-148767222D01*
X162209000Y-148116778D01*
X173439000Y-148116778D01*
X173439000Y-148767222D01*
X173687914Y-149368153D01*
X174147847Y-149828086D01*
X174748778Y-150077000D01*
X175399222Y-150077000D01*
X176000153Y-149828086D01*
X176460086Y-149368153D01*
X176709000Y-148767222D01*
X176709000Y-148116778D01*
X187689000Y-148116778D01*
X187689000Y-148767222D01*
X187937914Y-149368153D01*
X188397847Y-149828086D01*
X188998778Y-150077000D01*
X189649222Y-150077000D01*
X190250153Y-149828086D01*
X190710086Y-149368153D01*
X190959000Y-148767222D01*
X190959000Y-148116778D01*
X201939000Y-148116778D01*
X201939000Y-148767222D01*
X202187914Y-149368153D01*
X202647847Y-149828086D01*
X203248778Y-150077000D01*
X203899222Y-150077000D01*
X204500153Y-149828086D01*
X204960086Y-149368153D01*
X205209000Y-148767222D01*
X205209000Y-148116778D01*
X204960086Y-147515847D01*
X204500153Y-147055914D01*
X203899222Y-146807000D01*
X203248778Y-146807000D01*
X202647847Y-147055914D01*
X202187914Y-147515847D01*
X201939000Y-148116778D01*
X190959000Y-148116778D01*
X190710086Y-147515847D01*
X190250153Y-147055914D01*
X189649222Y-146807000D01*
X188998778Y-146807000D01*
X188397847Y-147055914D01*
X187937914Y-147515847D01*
X187689000Y-148116778D01*
X176709000Y-148116778D01*
X176460086Y-147515847D01*
X176000153Y-147055914D01*
X175399222Y-146807000D01*
X174748778Y-146807000D01*
X174147847Y-147055914D01*
X173687914Y-147515847D01*
X173439000Y-148116778D01*
X162209000Y-148116778D01*
X161960086Y-147515847D01*
X161500153Y-147055914D01*
X160899222Y-146807000D01*
X160248778Y-146807000D01*
X159647847Y-147055914D01*
X159187914Y-147515847D01*
X158939000Y-148116778D01*
X147425863Y-148116778D01*
X147210086Y-147595847D01*
X146750153Y-147135914D01*
X146149222Y-146887000D01*
X145498778Y-146887000D01*
X144897847Y-147135914D01*
X144437914Y-147595847D01*
X144189000Y-148196778D01*
X116534000Y-148196778D01*
X116534000Y-139956017D01*
X135359000Y-139956017D01*
X135359000Y-140327983D01*
X135501345Y-140671635D01*
X135615009Y-140785299D01*
X135625843Y-140839765D01*
X135752507Y-141029330D01*
X135725843Y-141069235D01*
X135676560Y-141317000D01*
X135676560Y-142567000D01*
X135725843Y-142814765D01*
X135866191Y-143024809D01*
X136076235Y-143165157D01*
X136324000Y-143214440D01*
X137824000Y-143214440D01*
X138071765Y-143165157D01*
X138281809Y-143024809D01*
X138324000Y-142961666D01*
X138366191Y-143024809D01*
X138576235Y-143165157D01*
X138824000Y-143214440D01*
X140324000Y-143214440D01*
X140571765Y-143165157D01*
X140644168Y-143116778D01*
X144189000Y-143116778D01*
X144189000Y-143767222D01*
X144437914Y-144368153D01*
X144897847Y-144828086D01*
X145498778Y-145077000D01*
X146149222Y-145077000D01*
X146750153Y-144828086D01*
X147210086Y-144368153D01*
X147459000Y-143767222D01*
X147459000Y-143116778D01*
X147210086Y-142515847D01*
X146750153Y-142055914D01*
X146149222Y-141807000D01*
X145498778Y-141807000D01*
X144897847Y-142055914D01*
X144437914Y-142515847D01*
X144189000Y-143116778D01*
X140644168Y-143116778D01*
X140781809Y-143024809D01*
X140922157Y-142814765D01*
X140971440Y-142567000D01*
X140971440Y-141317000D01*
X140923702Y-141077000D01*
X141039983Y-141077000D01*
X141383635Y-140934655D01*
X141646655Y-140671635D01*
X141789000Y-140327983D01*
X141789000Y-140031017D01*
X149634000Y-140031017D01*
X149634000Y-140402983D01*
X149776345Y-140746635D01*
X150039365Y-141009655D01*
X150160077Y-141059656D01*
X150216521Y-141116099D01*
X150176560Y-141317000D01*
X150176560Y-142567000D01*
X150225843Y-142814765D01*
X150366191Y-143024809D01*
X150576235Y-143165157D01*
X150824000Y-143214440D01*
X152324000Y-143214440D01*
X152571765Y-143165157D01*
X152781809Y-143024809D01*
X152824000Y-142961666D01*
X152866191Y-143024809D01*
X153076235Y-143165157D01*
X153324000Y-143214440D01*
X154824000Y-143214440D01*
X155071765Y-143165157D01*
X155263896Y-143036778D01*
X158939000Y-143036778D01*
X158939000Y-143687222D01*
X159187914Y-144288153D01*
X159647847Y-144748086D01*
X160248778Y-144997000D01*
X160899222Y-144997000D01*
X161500153Y-144748086D01*
X161960086Y-144288153D01*
X162209000Y-143687222D01*
X162209000Y-143036778D01*
X161960086Y-142435847D01*
X161500153Y-141975914D01*
X160899222Y-141727000D01*
X160248778Y-141727000D01*
X159647847Y-141975914D01*
X159187914Y-142435847D01*
X158939000Y-143036778D01*
X155263896Y-143036778D01*
X155281809Y-143024809D01*
X155422157Y-142814765D01*
X155471440Y-142567000D01*
X155471440Y-141317000D01*
X155422157Y-141069235D01*
X155395493Y-141029330D01*
X155522157Y-140839765D01*
X155571440Y-140592000D01*
X155571440Y-140031017D01*
X164134000Y-140031017D01*
X164134000Y-140402983D01*
X164276345Y-140746635D01*
X164539365Y-141009655D01*
X164660077Y-141059656D01*
X164716521Y-141116099D01*
X164676560Y-141317000D01*
X164676560Y-142567000D01*
X164725843Y-142814765D01*
X164866191Y-143024809D01*
X165076235Y-143165157D01*
X165324000Y-143214440D01*
X166824000Y-143214440D01*
X167071765Y-143165157D01*
X167281809Y-143024809D01*
X167324000Y-142961666D01*
X167366191Y-143024809D01*
X167576235Y-143165157D01*
X167824000Y-143214440D01*
X169324000Y-143214440D01*
X169571765Y-143165157D01*
X169763896Y-143036778D01*
X173439000Y-143036778D01*
X173439000Y-143687222D01*
X173687914Y-144288153D01*
X174147847Y-144748086D01*
X174748778Y-144997000D01*
X175399222Y-144997000D01*
X176000153Y-144748086D01*
X176460086Y-144288153D01*
X176709000Y-143687222D01*
X176709000Y-143036778D01*
X176460086Y-142435847D01*
X176000153Y-141975914D01*
X175399222Y-141727000D01*
X174748778Y-141727000D01*
X174147847Y-141975914D01*
X173687914Y-142435847D01*
X173439000Y-143036778D01*
X169763896Y-143036778D01*
X169781809Y-143024809D01*
X169922157Y-142814765D01*
X169971440Y-142567000D01*
X169971440Y-141317000D01*
X169939774Y-141157804D01*
X170037924Y-141059655D01*
X170158635Y-141009655D01*
X170421655Y-140746635D01*
X170564000Y-140402983D01*
X170564000Y-140056017D01*
X178359000Y-140056017D01*
X178359000Y-140427983D01*
X178501345Y-140771635D01*
X178764365Y-141034655D01*
X178885077Y-141084656D01*
X178958226Y-141157804D01*
X178926560Y-141317000D01*
X178926560Y-142567000D01*
X178975843Y-142814765D01*
X179116191Y-143024809D01*
X179326235Y-143165157D01*
X179574000Y-143214440D01*
X181074000Y-143214440D01*
X181321765Y-143165157D01*
X181531809Y-143024809D01*
X181574000Y-142961666D01*
X181616191Y-143024809D01*
X181826235Y-143165157D01*
X182074000Y-143214440D01*
X183574000Y-143214440D01*
X183821765Y-143165157D01*
X184013896Y-143036778D01*
X187689000Y-143036778D01*
X187689000Y-143687222D01*
X187937914Y-144288153D01*
X188397847Y-144748086D01*
X188998778Y-144997000D01*
X189649222Y-144997000D01*
X190250153Y-144748086D01*
X190710086Y-144288153D01*
X190959000Y-143687222D01*
X190959000Y-143036778D01*
X190710086Y-142435847D01*
X190250153Y-141975914D01*
X189649222Y-141727000D01*
X188998778Y-141727000D01*
X188397847Y-141975914D01*
X187937914Y-142435847D01*
X187689000Y-143036778D01*
X184013896Y-143036778D01*
X184031809Y-143024809D01*
X184172157Y-142814765D01*
X184221440Y-142567000D01*
X184221440Y-141317000D01*
X184189774Y-141157804D01*
X184262924Y-141084655D01*
X184383635Y-141034655D01*
X184646655Y-140771635D01*
X184789000Y-140427983D01*
X184789000Y-140056017D01*
X184778645Y-140031017D01*
X192584000Y-140031017D01*
X192584000Y-140402983D01*
X192726345Y-140746635D01*
X192989365Y-141009655D01*
X193110077Y-141059656D01*
X193208226Y-141157804D01*
X193176560Y-141317000D01*
X193176560Y-142567000D01*
X193225843Y-142814765D01*
X193366191Y-143024809D01*
X193576235Y-143165157D01*
X193824000Y-143214440D01*
X195324000Y-143214440D01*
X195571765Y-143165157D01*
X195781809Y-143024809D01*
X195824000Y-142961666D01*
X195866191Y-143024809D01*
X196076235Y-143165157D01*
X196324000Y-143214440D01*
X197824000Y-143214440D01*
X198071765Y-143165157D01*
X198263896Y-143036778D01*
X201939000Y-143036778D01*
X201939000Y-143687222D01*
X202187914Y-144288153D01*
X202647847Y-144748086D01*
X203248778Y-144997000D01*
X203899222Y-144997000D01*
X204500153Y-144748086D01*
X204960086Y-144288153D01*
X205209000Y-143687222D01*
X205209000Y-143036778D01*
X204960086Y-142435847D01*
X204500153Y-141975914D01*
X203899222Y-141727000D01*
X203248778Y-141727000D01*
X202647847Y-141975914D01*
X202187914Y-142435847D01*
X201939000Y-143036778D01*
X198263896Y-143036778D01*
X198281809Y-143024809D01*
X198422157Y-142814765D01*
X198471440Y-142567000D01*
X198471440Y-141317000D01*
X198431479Y-141116100D01*
X198487924Y-141059655D01*
X198608635Y-141009655D01*
X198871655Y-140746635D01*
X199014000Y-140402983D01*
X199014000Y-140031017D01*
X198871655Y-139687365D01*
X198608635Y-139424345D01*
X198489529Y-139375010D01*
X198471440Y-139347938D01*
X198471440Y-139292000D01*
X198422157Y-139044235D01*
X198281809Y-138834191D01*
X198071765Y-138693843D01*
X197824000Y-138644560D01*
X196324000Y-138644560D01*
X196076235Y-138693843D01*
X195866191Y-138834191D01*
X195725843Y-139044235D01*
X195724000Y-139053500D01*
X195722157Y-139044235D01*
X195581809Y-138834191D01*
X195371765Y-138693843D01*
X195124000Y-138644560D01*
X193624000Y-138644560D01*
X193376235Y-138693843D01*
X193166191Y-138834191D01*
X193025843Y-139044235D01*
X192976560Y-139292000D01*
X192976560Y-139437150D01*
X192726345Y-139687365D01*
X192584000Y-140031017D01*
X184778645Y-140031017D01*
X184646655Y-139712365D01*
X184471440Y-139537150D01*
X184471440Y-139292000D01*
X184422157Y-139044235D01*
X184281809Y-138834191D01*
X184071765Y-138693843D01*
X183824000Y-138644560D01*
X182324000Y-138644560D01*
X182076235Y-138693843D01*
X181866191Y-138834191D01*
X181725843Y-139044235D01*
X181724000Y-139053500D01*
X181722157Y-139044235D01*
X181581809Y-138834191D01*
X181371765Y-138693843D01*
X181124000Y-138644560D01*
X179624000Y-138644560D01*
X179376235Y-138693843D01*
X179166191Y-138834191D01*
X179025843Y-139044235D01*
X178976977Y-139289902D01*
X178955951Y-139303951D01*
X178906576Y-139377846D01*
X178885078Y-139399344D01*
X178764365Y-139449345D01*
X178501345Y-139712365D01*
X178359000Y-140056017D01*
X170564000Y-140056017D01*
X170564000Y-140031017D01*
X170421655Y-139687365D01*
X170158635Y-139424345D01*
X170071440Y-139388228D01*
X170071440Y-139292000D01*
X170022157Y-139044235D01*
X169881809Y-138834191D01*
X169671765Y-138693843D01*
X169424000Y-138644560D01*
X167924000Y-138644560D01*
X167676235Y-138693843D01*
X167466191Y-138834191D01*
X167325843Y-139044235D01*
X167324000Y-139053500D01*
X167322157Y-139044235D01*
X167181809Y-138834191D01*
X166971765Y-138693843D01*
X166724000Y-138644560D01*
X165224000Y-138644560D01*
X164976235Y-138693843D01*
X164766191Y-138834191D01*
X164625843Y-139044235D01*
X164576560Y-139292000D01*
X164576560Y-139408938D01*
X164539365Y-139424345D01*
X164276345Y-139687365D01*
X164134000Y-140031017D01*
X155571440Y-140031017D01*
X155571440Y-139292000D01*
X155522157Y-139044235D01*
X155381809Y-138834191D01*
X155171765Y-138693843D01*
X154924000Y-138644560D01*
X153424000Y-138644560D01*
X153176235Y-138693843D01*
X152966191Y-138834191D01*
X152825843Y-139044235D01*
X152824000Y-139053500D01*
X152822157Y-139044235D01*
X152681809Y-138834191D01*
X152471765Y-138693843D01*
X152224000Y-138644560D01*
X150724000Y-138644560D01*
X150476235Y-138693843D01*
X150266191Y-138834191D01*
X150125843Y-139044235D01*
X150076560Y-139292000D01*
X150076560Y-139408938D01*
X150039365Y-139424345D01*
X149776345Y-139687365D01*
X149634000Y-140031017D01*
X141789000Y-140031017D01*
X141789000Y-139956017D01*
X141646655Y-139612365D01*
X141383635Y-139349345D01*
X141298939Y-139314263D01*
X141292049Y-139303951D01*
X141040366Y-139135781D01*
X141022157Y-139044235D01*
X140881809Y-138834191D01*
X140671765Y-138693843D01*
X140424000Y-138644560D01*
X139709000Y-138644560D01*
X139709000Y-137689440D01*
X140724000Y-137689440D01*
X140971765Y-137640157D01*
X141181809Y-137499809D01*
X141322157Y-137289765D01*
X141371440Y-137042000D01*
X141371440Y-135542000D01*
X141322157Y-135294235D01*
X141181809Y-135084191D01*
X140971765Y-134943843D01*
X140962500Y-134942000D01*
X140971765Y-134940157D01*
X141181809Y-134799809D01*
X141322157Y-134589765D01*
X141371440Y-134342000D01*
X141371440Y-132842000D01*
X141322157Y-132594235D01*
X141181809Y-132384191D01*
X140971765Y-132243843D01*
X140859000Y-132221413D01*
X140859000Y-131872533D01*
X141021765Y-131840157D01*
X141231809Y-131699809D01*
X141372157Y-131489765D01*
X141421440Y-131242000D01*
X141421440Y-130142000D01*
X141372157Y-129894235D01*
X141231809Y-129684191D01*
X141156251Y-129633705D01*
X141281809Y-129549809D01*
X141422157Y-129339765D01*
X141471440Y-129092000D01*
X141471440Y-127792000D01*
X141422157Y-127544235D01*
X141281809Y-127334191D01*
X141071765Y-127193843D01*
X140824000Y-127144560D01*
X139324000Y-127144560D01*
X139076235Y-127193843D01*
X138866191Y-127334191D01*
X138725843Y-127544235D01*
X138676560Y-127792000D01*
X138676560Y-129092000D01*
X138725843Y-129339765D01*
X138789001Y-129434286D01*
X138789001Y-130304835D01*
X138771663Y-130392000D01*
X138840348Y-130737309D01*
X138986576Y-130956154D01*
X138986578Y-130956156D01*
X139026560Y-131015993D01*
X139026560Y-131242000D01*
X139075843Y-131489765D01*
X139089000Y-131509456D01*
X139089001Y-132302132D01*
X138966191Y-132384191D01*
X138825843Y-132594235D01*
X138776560Y-132842000D01*
X138776560Y-134342000D01*
X138825843Y-134589765D01*
X138966191Y-134799809D01*
X139176235Y-134940157D01*
X139185500Y-134942000D01*
X139176235Y-134943843D01*
X138966191Y-135084191D01*
X138825843Y-135294235D01*
X138776560Y-135542000D01*
X138776560Y-135967000D01*
X138638017Y-135967000D01*
X138294365Y-136109345D01*
X138031345Y-136372365D01*
X137889000Y-136716017D01*
X137889000Y-137087983D01*
X137939001Y-137208696D01*
X137939000Y-138687326D01*
X137724000Y-138644560D01*
X136224000Y-138644560D01*
X135976235Y-138693843D01*
X135766191Y-138834191D01*
X135625843Y-139044235D01*
X135576560Y-139292000D01*
X135576560Y-139537150D01*
X135501345Y-139612365D01*
X135359000Y-139956017D01*
X116534000Y-139956017D01*
X116534000Y-125386670D01*
X119999000Y-125386670D01*
X119999000Y-125997330D01*
X120232690Y-126561507D01*
X120664493Y-126993310D01*
X121228670Y-127227000D01*
X121839330Y-127227000D01*
X122403507Y-126993310D01*
X122835310Y-126561507D01*
X123069000Y-125997330D01*
X123069000Y-125386670D01*
X122835310Y-124822493D01*
X122403507Y-124390690D01*
X121839330Y-124157000D01*
X121228670Y-124157000D01*
X120664493Y-124390690D01*
X120232690Y-124822493D01*
X119999000Y-125386670D01*
X116534000Y-125386670D01*
X116534000Y-119502676D01*
X121514000Y-119502676D01*
X121514000Y-120481324D01*
X121888513Y-121385478D01*
X122580522Y-122077487D01*
X123484676Y-122452000D01*
X124463324Y-122452000D01*
X125367478Y-122077487D01*
X126059487Y-121385478D01*
X126434000Y-120481324D01*
X126434000Y-119502676D01*
X126059487Y-118598522D01*
X125367478Y-117906513D01*
X124463324Y-117532000D01*
X123484676Y-117532000D01*
X122580522Y-117906513D01*
X121888513Y-118598522D01*
X121514000Y-119502676D01*
X116534000Y-119502676D01*
X116534000Y-107632676D01*
X121514000Y-107632676D01*
X121514000Y-108611324D01*
X121888513Y-109515478D01*
X122580522Y-110207487D01*
X123484676Y-110582000D01*
X124463324Y-110582000D01*
X125367478Y-110207487D01*
X126059487Y-109515478D01*
X126434000Y-108611324D01*
X126434000Y-107632676D01*
X126059487Y-106728522D01*
X125367478Y-106036513D01*
X124463324Y-105662000D01*
X123484676Y-105662000D01*
X122580522Y-106036513D01*
X121888513Y-106728522D01*
X121514000Y-107632676D01*
X116534000Y-107632676D01*
X116534000Y-101792676D01*
X121514000Y-101792676D01*
X121514000Y-102771324D01*
X121888513Y-103675478D01*
X122580522Y-104367487D01*
X123484676Y-104742000D01*
X124463324Y-104742000D01*
X125367478Y-104367487D01*
X126059487Y-103675478D01*
X126434000Y-102771324D01*
X126434000Y-101792676D01*
X126059487Y-100888522D01*
X125367478Y-100196513D01*
X124463324Y-99822000D01*
X123484676Y-99822000D01*
X122580522Y-100196513D01*
X121888513Y-100888522D01*
X121514000Y-101792676D01*
X116534000Y-101792676D01*
X116534000Y-99192000D01*
X128299112Y-99192000D01*
X128314000Y-99266847D01*
X128314001Y-108367148D01*
X128299112Y-108442000D01*
X128358097Y-108738537D01*
X128463979Y-108897000D01*
X128526072Y-108989929D01*
X128589528Y-109032329D01*
X128926560Y-109369361D01*
X128926560Y-110362000D01*
X128975843Y-110609765D01*
X129116191Y-110819809D01*
X129326235Y-110960157D01*
X129518844Y-110998469D01*
X129149853Y-111367460D01*
X128939000Y-111876506D01*
X128939000Y-112427494D01*
X129149853Y-112936540D01*
X129539460Y-113326147D01*
X129770870Y-113422000D01*
X129539460Y-113517853D01*
X129149853Y-113907460D01*
X128939000Y-114416506D01*
X128939000Y-114967494D01*
X129149853Y-115476540D01*
X129539460Y-115866147D01*
X130048506Y-116077000D01*
X130313999Y-116077000D01*
X130313999Y-116117152D01*
X130299111Y-116191999D01*
X130313999Y-116266846D01*
X130313999Y-116266850D01*
X130358095Y-116488535D01*
X130526070Y-116739928D01*
X130589529Y-116782330D01*
X131483671Y-117676473D01*
X131526071Y-117739929D01*
X131777463Y-117907904D01*
X131999148Y-117952000D01*
X131999153Y-117952000D01*
X132074000Y-117966888D01*
X132148847Y-117952000D01*
X133749153Y-117952000D01*
X133824000Y-117966888D01*
X133898847Y-117952000D01*
X133898852Y-117952000D01*
X134120537Y-117907904D01*
X134371929Y-117739929D01*
X134414331Y-117676470D01*
X136808473Y-115282329D01*
X136871929Y-115239929D01*
X137039904Y-114988537D01*
X137084000Y-114766852D01*
X137084000Y-114766847D01*
X137098888Y-114692000D01*
X137084000Y-114617153D01*
X137084000Y-108451065D01*
X143514406Y-114881472D01*
X143556807Y-114944929D01*
X143620263Y-114987329D01*
X143808198Y-115112904D01*
X143856341Y-115122480D01*
X144029884Y-115157000D01*
X144029888Y-115157000D01*
X144104736Y-115171888D01*
X144179584Y-115157000D01*
X151430014Y-115157000D01*
X151389000Y-115256017D01*
X151389000Y-115627983D01*
X151531345Y-115971635D01*
X151564000Y-116004290D01*
X151564001Y-124627197D01*
X151009199Y-125182000D01*
X146898846Y-125182000D01*
X146823999Y-125167112D01*
X146749152Y-125182000D01*
X146749148Y-125182000D01*
X146527463Y-125226096D01*
X146276071Y-125394071D01*
X146233671Y-125457527D01*
X143259199Y-128432000D01*
X143148846Y-128432000D01*
X143073999Y-128417112D01*
X142999152Y-128432000D01*
X142999148Y-128432000D01*
X142777463Y-128476096D01*
X142526071Y-128644071D01*
X142483671Y-128707527D01*
X141839530Y-129351669D01*
X141776071Y-129394071D01*
X141608096Y-129645464D01*
X141564000Y-129867149D01*
X141564000Y-129867153D01*
X141549112Y-129942000D01*
X141564000Y-130016847D01*
X141564001Y-133474376D01*
X141483094Y-133595462D01*
X141438998Y-133817147D01*
X141438998Y-133817151D01*
X141424110Y-133891998D01*
X141438998Y-133966845D01*
X141438999Y-135444228D01*
X141424110Y-135519079D01*
X141438999Y-135593931D01*
X141472503Y-135762365D01*
X141483095Y-135815616D01*
X141606071Y-135999662D01*
X141651070Y-136067008D01*
X141714526Y-136109408D01*
X142781590Y-137176473D01*
X142823990Y-137239929D01*
X142887446Y-137282329D01*
X143075381Y-137407904D01*
X143123524Y-137417480D01*
X143295631Y-137451714D01*
X143503375Y-137762625D01*
X143994582Y-138090839D01*
X144427744Y-138177000D01*
X144720256Y-138177000D01*
X145153418Y-138090839D01*
X145644625Y-137762625D01*
X145972839Y-137271418D01*
X146088092Y-136692000D01*
X145972839Y-136112582D01*
X145644625Y-135621375D01*
X145346239Y-135422000D01*
X145644625Y-135222625D01*
X145972839Y-134731418D01*
X146088092Y-134152000D01*
X145972839Y-133572582D01*
X145644625Y-133081375D01*
X145626381Y-133069184D01*
X145671765Y-133060157D01*
X145881809Y-132919809D01*
X146022157Y-132709765D01*
X146071440Y-132462000D01*
X146071440Y-130999995D01*
X146084000Y-130936852D01*
X146084000Y-130936848D01*
X146098888Y-130862001D01*
X146084000Y-130787154D01*
X146084000Y-130256801D01*
X148888802Y-127452000D01*
X152637473Y-127452000D01*
X152575843Y-127544235D01*
X152526560Y-127792000D01*
X152526560Y-129092000D01*
X152575843Y-129339765D01*
X152716191Y-129549809D01*
X152926235Y-129690157D01*
X153039001Y-129712587D01*
X153039001Y-129885541D01*
X152966191Y-129934191D01*
X152825843Y-130144235D01*
X152776560Y-130392000D01*
X152776560Y-131492000D01*
X152825843Y-131739765D01*
X152966191Y-131949809D01*
X153089000Y-132031868D01*
X153089001Y-132202132D01*
X152966191Y-132284191D01*
X152825843Y-132494235D01*
X152776560Y-132742000D01*
X152776560Y-133157150D01*
X152731345Y-133202365D01*
X152589000Y-133546017D01*
X152589000Y-133917983D01*
X152731345Y-134261635D01*
X152792662Y-134322952D01*
X152825843Y-134489765D01*
X152966191Y-134699809D01*
X153176235Y-134840157D01*
X153185500Y-134842000D01*
X153176235Y-134843843D01*
X152966191Y-134984191D01*
X152825843Y-135194235D01*
X152776560Y-135442000D01*
X152776560Y-136942000D01*
X152825843Y-137189765D01*
X152966191Y-137399809D01*
X153176235Y-137540157D01*
X153424000Y-137589440D01*
X154724000Y-137589440D01*
X154971765Y-137540157D01*
X155181809Y-137399809D01*
X155322157Y-137189765D01*
X155371440Y-136942000D01*
X155371440Y-135442000D01*
X155322157Y-135194235D01*
X155181809Y-134984191D01*
X154971765Y-134843843D01*
X154962500Y-134842000D01*
X154971765Y-134840157D01*
X155181809Y-134699809D01*
X155322157Y-134489765D01*
X155371440Y-134242000D01*
X155371440Y-132742000D01*
X155322157Y-132494235D01*
X155181809Y-132284191D01*
X154971765Y-132143843D01*
X154859000Y-132121413D01*
X154859000Y-132031868D01*
X154981809Y-131949809D01*
X155122157Y-131739765D01*
X155171440Y-131492000D01*
X155171440Y-130392000D01*
X155122157Y-130144235D01*
X154981809Y-129934191D01*
X154809000Y-129818723D01*
X154809000Y-129712587D01*
X154921765Y-129690157D01*
X155131809Y-129549809D01*
X155272157Y-129339765D01*
X155321440Y-129092000D01*
X155321440Y-127792000D01*
X155272157Y-127544235D01*
X155210527Y-127452000D01*
X156999153Y-127452000D01*
X157074000Y-127466888D01*
X157148847Y-127452000D01*
X157148852Y-127452000D01*
X157370537Y-127407904D01*
X157439002Y-127362157D01*
X157439002Y-127602149D01*
X157424113Y-127677001D01*
X157483098Y-127973538D01*
X157600569Y-128149345D01*
X157651073Y-128224930D01*
X157714529Y-128267330D01*
X158064000Y-128616802D01*
X158064001Y-130154560D01*
X157974000Y-130154560D01*
X157726235Y-130203843D01*
X157516191Y-130344191D01*
X157375843Y-130554235D01*
X157326560Y-130802000D01*
X157326560Y-132502000D01*
X157375843Y-132749765D01*
X157516191Y-132959809D01*
X157726235Y-133100157D01*
X157771619Y-133109184D01*
X157753375Y-133121375D01*
X157425161Y-133612582D01*
X157318020Y-134151219D01*
X157084000Y-133917199D01*
X157084000Y-129504290D01*
X157116655Y-129471635D01*
X157259000Y-129127983D01*
X157259000Y-128756017D01*
X157116655Y-128412365D01*
X156853635Y-128149345D01*
X156509983Y-128007000D01*
X156138017Y-128007000D01*
X155794365Y-128149345D01*
X155531345Y-128412365D01*
X155389000Y-128756017D01*
X155389000Y-129127983D01*
X155531345Y-129471635D01*
X155564000Y-129504290D01*
X155564001Y-134157148D01*
X155549112Y-134232000D01*
X155608097Y-134528537D01*
X155622311Y-134549809D01*
X155776072Y-134779929D01*
X155839528Y-134822329D01*
X157382791Y-136365592D01*
X157309908Y-136732000D01*
X157425161Y-137311418D01*
X157753375Y-137802625D01*
X158244582Y-138130839D01*
X158677744Y-138217000D01*
X158970256Y-138217000D01*
X159403418Y-138130839D01*
X159894625Y-137802625D01*
X160222839Y-137311418D01*
X160338092Y-136732000D01*
X160222839Y-136152582D01*
X159894625Y-135661375D01*
X159596239Y-135462000D01*
X159894625Y-135262625D01*
X160222839Y-134771418D01*
X160338092Y-134192000D01*
X160222839Y-133612582D01*
X159894625Y-133121375D01*
X159876381Y-133109184D01*
X159921765Y-133100157D01*
X160131809Y-132959809D01*
X160272157Y-132749765D01*
X160321440Y-132502000D01*
X160321440Y-130802000D01*
X160272157Y-130554235D01*
X160131809Y-130344191D01*
X159921765Y-130203843D01*
X159674000Y-130154560D01*
X159584000Y-130154560D01*
X159584000Y-128376846D01*
X159598888Y-128301999D01*
X159584000Y-128227152D01*
X159584000Y-128227148D01*
X159539904Y-128005463D01*
X159371929Y-127754071D01*
X159313009Y-127714702D01*
X159324000Y-127716888D01*
X159398848Y-127702000D01*
X167544462Y-127702000D01*
X167526560Y-127792000D01*
X167526560Y-129092000D01*
X167575843Y-129339765D01*
X167716191Y-129549809D01*
X167926235Y-129690157D01*
X168039001Y-129712587D01*
X168039001Y-129885541D01*
X167966191Y-129934191D01*
X167825843Y-130144235D01*
X167776560Y-130392000D01*
X167776560Y-131492000D01*
X167825843Y-131739765D01*
X167966191Y-131949809D01*
X168089001Y-132031868D01*
X168089001Y-132202132D01*
X167966191Y-132284191D01*
X167825843Y-132494235D01*
X167776560Y-132742000D01*
X167776560Y-133157150D01*
X167731345Y-133202365D01*
X167589000Y-133546017D01*
X167589000Y-133917983D01*
X167731345Y-134261635D01*
X167792662Y-134322952D01*
X167825843Y-134489765D01*
X167966191Y-134699809D01*
X168176235Y-134840157D01*
X168185500Y-134842000D01*
X168176235Y-134843843D01*
X167966191Y-134984191D01*
X167825843Y-135194235D01*
X167776560Y-135442000D01*
X167776560Y-136942000D01*
X167825843Y-137189765D01*
X167966191Y-137399809D01*
X168176235Y-137540157D01*
X168424000Y-137589440D01*
X169724000Y-137589440D01*
X169971765Y-137540157D01*
X170181809Y-137399809D01*
X170322157Y-137189765D01*
X170371440Y-136942000D01*
X170371440Y-136710083D01*
X170509000Y-136377983D01*
X170509000Y-136006017D01*
X170371440Y-135673917D01*
X170371440Y-135442000D01*
X170322157Y-135194235D01*
X170181809Y-134984191D01*
X169971765Y-134843843D01*
X169962500Y-134842000D01*
X169971765Y-134840157D01*
X170181809Y-134699809D01*
X170322157Y-134489765D01*
X170362779Y-134285540D01*
X170526081Y-134529939D01*
X170589540Y-134572341D01*
X172382791Y-136365592D01*
X172309908Y-136732000D01*
X172425161Y-137311418D01*
X172753375Y-137802625D01*
X173244582Y-138130839D01*
X173677744Y-138217000D01*
X173970256Y-138217000D01*
X174403418Y-138130839D01*
X174894625Y-137802625D01*
X175222839Y-137311418D01*
X175338092Y-136732000D01*
X175222839Y-136152582D01*
X174894625Y-135661375D01*
X174596239Y-135462000D01*
X174894625Y-135262625D01*
X175222839Y-134771418D01*
X175338092Y-134192000D01*
X175222839Y-133612582D01*
X174894625Y-133121375D01*
X174876381Y-133109184D01*
X174921765Y-133100157D01*
X175131809Y-132959809D01*
X175272157Y-132749765D01*
X175321440Y-132502000D01*
X175321440Y-130802000D01*
X175272157Y-130554235D01*
X175131809Y-130344191D01*
X174921765Y-130203843D01*
X174674000Y-130154560D01*
X174584000Y-130154560D01*
X174584000Y-130091845D01*
X174598888Y-130016998D01*
X174584000Y-129942151D01*
X174584000Y-129942146D01*
X174539904Y-129720461D01*
X174371929Y-129469069D01*
X174308473Y-129426669D01*
X172133792Y-127251989D01*
X181839214Y-127251989D01*
X181716191Y-127334191D01*
X181575843Y-127544235D01*
X181526560Y-127792000D01*
X181526560Y-129092000D01*
X181575843Y-129339765D01*
X181716191Y-129549809D01*
X181926235Y-129690157D01*
X182039001Y-129712587D01*
X182039001Y-129885541D01*
X181966191Y-129934191D01*
X181825843Y-130144235D01*
X181776560Y-130392000D01*
X181776560Y-131492000D01*
X181825843Y-131739765D01*
X181966191Y-131949809D01*
X182104164Y-132042000D01*
X181966191Y-132134191D01*
X181825843Y-132344235D01*
X181776560Y-132592000D01*
X181776560Y-134092000D01*
X181825843Y-134339765D01*
X181966191Y-134549809D01*
X182176235Y-134690157D01*
X182185500Y-134692000D01*
X182176235Y-134693843D01*
X181966191Y-134834191D01*
X181825843Y-135044235D01*
X181776560Y-135292000D01*
X181776560Y-136792000D01*
X181825843Y-137039765D01*
X181966191Y-137249809D01*
X182176235Y-137390157D01*
X182424000Y-137439440D01*
X183724000Y-137439440D01*
X183971765Y-137390157D01*
X184181809Y-137249809D01*
X184322157Y-137039765D01*
X184371440Y-136792000D01*
X184371440Y-135292000D01*
X184322157Y-135044235D01*
X184181809Y-134834191D01*
X183971765Y-134693843D01*
X183962500Y-134692000D01*
X183971765Y-134690157D01*
X184181809Y-134549809D01*
X184322157Y-134339765D01*
X184371440Y-134092000D01*
X184371440Y-134048507D01*
X184526071Y-134279929D01*
X184589530Y-134322331D01*
X186632791Y-136365592D01*
X186559908Y-136732000D01*
X186675161Y-137311418D01*
X187003375Y-137802625D01*
X187494582Y-138130839D01*
X187927744Y-138217000D01*
X188220256Y-138217000D01*
X188653418Y-138130839D01*
X189144625Y-137802625D01*
X189472839Y-137311418D01*
X189588092Y-136732000D01*
X189472839Y-136152582D01*
X189144625Y-135661375D01*
X188846239Y-135462000D01*
X189144625Y-135262625D01*
X189472839Y-134771418D01*
X189588092Y-134192000D01*
X189472839Y-133612582D01*
X189144625Y-133121375D01*
X189126381Y-133109184D01*
X189171765Y-133100157D01*
X189381809Y-132959809D01*
X189522157Y-132749765D01*
X189571440Y-132502000D01*
X189571440Y-130802000D01*
X189522157Y-130554235D01*
X189381809Y-130344191D01*
X189171765Y-130203843D01*
X188924000Y-130154560D01*
X188834000Y-130154560D01*
X188834000Y-129341844D01*
X188848888Y-129266997D01*
X188834000Y-129192150D01*
X188834000Y-129192146D01*
X188789904Y-128970461D01*
X188621929Y-128719069D01*
X188558473Y-128676669D01*
X186833803Y-126952000D01*
X197509199Y-126952000D01*
X197708651Y-127151453D01*
X197674000Y-127144560D01*
X196174000Y-127144560D01*
X195926235Y-127193843D01*
X195716191Y-127334191D01*
X195575843Y-127544235D01*
X195526560Y-127792000D01*
X195526560Y-129092000D01*
X195575843Y-129339765D01*
X195716191Y-129549809D01*
X195926235Y-129690157D01*
X196039001Y-129712587D01*
X196039001Y-129885541D01*
X195966191Y-129934191D01*
X195825843Y-130144235D01*
X195776560Y-130392000D01*
X195776560Y-131492000D01*
X195825843Y-131739765D01*
X195966191Y-131949809D01*
X196089000Y-132031868D01*
X196089000Y-132052132D01*
X195966191Y-132134191D01*
X195825843Y-132344235D01*
X195776560Y-132592000D01*
X195776560Y-134092000D01*
X195825843Y-134339765D01*
X195966191Y-134549809D01*
X196176235Y-134690157D01*
X196185500Y-134692000D01*
X196176235Y-134693843D01*
X195966191Y-134834191D01*
X195825843Y-135044235D01*
X195776560Y-135292000D01*
X195776560Y-136792000D01*
X195825843Y-137039765D01*
X195966191Y-137249809D01*
X196176235Y-137390157D01*
X196424000Y-137439440D01*
X197724000Y-137439440D01*
X197971765Y-137390157D01*
X198181809Y-137249809D01*
X198322157Y-137039765D01*
X198371440Y-136792000D01*
X198371440Y-135292000D01*
X198322157Y-135044235D01*
X198181809Y-134834191D01*
X197971765Y-134693843D01*
X197962500Y-134692000D01*
X197971765Y-134690157D01*
X198181809Y-134549809D01*
X198322157Y-134339765D01*
X198371440Y-134092000D01*
X198371440Y-132592000D01*
X198322157Y-132344235D01*
X198181809Y-132134191D01*
X197971765Y-131993843D01*
X197928722Y-131985281D01*
X197981809Y-131949809D01*
X198122157Y-131739765D01*
X198171440Y-131492000D01*
X198171440Y-130392000D01*
X198122157Y-130144235D01*
X197981809Y-129934191D01*
X197809000Y-129818723D01*
X197809000Y-129712587D01*
X197921765Y-129690157D01*
X198131809Y-129549809D01*
X198272157Y-129339765D01*
X198321440Y-129092000D01*
X198321440Y-127792000D01*
X198314548Y-127757349D01*
X200954186Y-130396988D01*
X200875843Y-130514235D01*
X200826560Y-130762000D01*
X200826560Y-132462000D01*
X200875843Y-132709765D01*
X201016191Y-132919809D01*
X201226235Y-133060157D01*
X201271619Y-133069184D01*
X201253375Y-133081375D01*
X200925161Y-133572582D01*
X200809908Y-134152000D01*
X200925161Y-134731418D01*
X201253375Y-135222625D01*
X201551761Y-135422000D01*
X201253375Y-135621375D01*
X200925161Y-136112582D01*
X200809908Y-136692000D01*
X200925161Y-137271418D01*
X201253375Y-137762625D01*
X201744582Y-138090839D01*
X202177744Y-138177000D01*
X202470256Y-138177000D01*
X202903418Y-138090839D01*
X203394625Y-137762625D01*
X203722839Y-137271418D01*
X203838092Y-136692000D01*
X203765209Y-136325593D01*
X203983477Y-136107326D01*
X204046930Y-136064928D01*
X204089328Y-136001475D01*
X204089330Y-136001473D01*
X204214904Y-135813537D01*
X204214905Y-135813536D01*
X204259001Y-135591851D01*
X204259001Y-135591847D01*
X204273889Y-135517000D01*
X204259001Y-135442153D01*
X204259001Y-130576847D01*
X204273889Y-130501999D01*
X204259001Y-130427151D01*
X204259001Y-130427147D01*
X204214905Y-130205462D01*
X204214905Y-130205461D01*
X204089330Y-130017526D01*
X204046930Y-129954070D01*
X203983474Y-129911670D01*
X198379300Y-124307497D01*
X198336898Y-124244038D01*
X198085506Y-124076063D01*
X197863821Y-124031967D01*
X197863816Y-124031967D01*
X197788969Y-124017079D01*
X197714122Y-124031967D01*
X171738769Y-124031967D01*
X171164331Y-123457530D01*
X171121929Y-123394071D01*
X170870537Y-123226096D01*
X170648852Y-123182000D01*
X170648847Y-123182000D01*
X170574000Y-123167112D01*
X170499153Y-123182000D01*
X167138802Y-123182000D01*
X165834000Y-121877199D01*
X165834000Y-115894440D01*
X167274000Y-115894440D01*
X167521765Y-115845157D01*
X167731809Y-115704809D01*
X167872157Y-115494765D01*
X167921440Y-115247000D01*
X167921440Y-114647000D01*
X167872157Y-114399235D01*
X167731809Y-114189191D01*
X167521765Y-114048843D01*
X167274000Y-113999560D01*
X165584000Y-113999560D01*
X165584000Y-112084440D01*
X167274000Y-112084440D01*
X167521765Y-112035157D01*
X167731809Y-111894809D01*
X167872157Y-111684765D01*
X167921440Y-111437000D01*
X167921440Y-110837000D01*
X167872157Y-110589235D01*
X167853299Y-110561013D01*
X168071929Y-110414929D01*
X168114331Y-110351470D01*
X168808473Y-109657329D01*
X168871929Y-109614929D01*
X168957323Y-109487128D01*
X169039904Y-109363538D01*
X169057183Y-109276671D01*
X169084000Y-109141852D01*
X169084000Y-109141848D01*
X169098888Y-109067000D01*
X169084000Y-108992152D01*
X169084000Y-104766848D01*
X169098888Y-104692000D01*
X169084000Y-104617152D01*
X169084000Y-104617148D01*
X169039904Y-104395463D01*
X168918948Y-104214440D01*
X170324000Y-104214440D01*
X170571765Y-104165157D01*
X170781809Y-104024809D01*
X170922157Y-103814765D01*
X170971440Y-103567000D01*
X170971440Y-102317000D01*
X170922157Y-102069235D01*
X170781809Y-101859191D01*
X170571765Y-101718843D01*
X170324000Y-101669560D01*
X168824000Y-101669560D01*
X168630177Y-101708113D01*
X168866655Y-101471635D01*
X169009000Y-101127983D01*
X169009000Y-100756017D01*
X168866655Y-100412365D01*
X168707295Y-100253005D01*
X168791634Y-100168665D01*
X168933979Y-99825013D01*
X168933979Y-99453047D01*
X168791634Y-99109395D01*
X168528614Y-98846375D01*
X168184962Y-98704030D01*
X167921440Y-98704030D01*
X167921440Y-98137000D01*
X167872157Y-97889235D01*
X167837281Y-97837040D01*
X168078603Y-97737081D01*
X168341623Y-97474061D01*
X168483968Y-97130409D01*
X168483968Y-96758443D01*
X168341623Y-96414791D01*
X168078603Y-96151771D01*
X167734951Y-96009426D01*
X167362985Y-96009426D01*
X167019333Y-96151771D01*
X166948180Y-96222924D01*
X166920037Y-96228522D01*
X166668645Y-96396497D01*
X166626245Y-96459953D01*
X165789528Y-97296671D01*
X165726072Y-97339071D01*
X165625518Y-97489560D01*
X165334000Y-97489560D01*
X165334000Y-96256801D01*
X165908473Y-95682329D01*
X165971929Y-95639929D01*
X166072483Y-95489440D01*
X166174000Y-95489440D01*
X166421765Y-95440157D01*
X166631809Y-95299809D01*
X166772157Y-95089765D01*
X166821440Y-94842000D01*
X166821440Y-93542000D01*
X166772157Y-93294235D01*
X166631809Y-93084191D01*
X166421765Y-92943843D01*
X166174000Y-92894560D01*
X164674000Y-92894560D01*
X164426235Y-92943843D01*
X164216191Y-93084191D01*
X164075843Y-93294235D01*
X164074000Y-93303500D01*
X164072157Y-93294235D01*
X163931809Y-93084191D01*
X163721765Y-92943843D01*
X163474000Y-92894560D01*
X161974000Y-92894560D01*
X161726235Y-92943843D01*
X161516191Y-93084191D01*
X161375843Y-93294235D01*
X161348440Y-93432000D01*
X160760273Y-93432000D01*
X160685425Y-93417112D01*
X160610577Y-93432000D01*
X160610573Y-93432000D01*
X160437030Y-93466520D01*
X160388887Y-93476096D01*
X160201843Y-93601076D01*
X160137496Y-93644071D01*
X160095096Y-93707527D01*
X158899528Y-94903096D01*
X158836069Y-94945498D01*
X158668094Y-95196891D01*
X158623998Y-95418576D01*
X158623998Y-95418580D01*
X158609110Y-95493427D01*
X158623998Y-95568274D01*
X158623999Y-97127197D01*
X158535794Y-97215402D01*
X156077921Y-94757530D01*
X156035519Y-94694071D01*
X155784127Y-94526096D01*
X155562442Y-94482000D01*
X155562437Y-94482000D01*
X155487590Y-94467112D01*
X155412743Y-94482000D01*
X154369451Y-94482000D01*
X154322157Y-94244235D01*
X154181809Y-94034191D01*
X153971765Y-93893843D01*
X153724000Y-93844560D01*
X152424000Y-93844560D01*
X152176235Y-93893843D01*
X151966191Y-94034191D01*
X151825843Y-94244235D01*
X151776560Y-94492000D01*
X151776560Y-95992000D01*
X151825843Y-96239765D01*
X151966191Y-96449809D01*
X152176235Y-96590157D01*
X152185500Y-96592000D01*
X152176235Y-96593843D01*
X151966191Y-96734191D01*
X151825843Y-96944235D01*
X151776560Y-97192000D01*
X151776560Y-98692000D01*
X151825843Y-98939765D01*
X151966191Y-99149809D01*
X152176235Y-99290157D01*
X152314001Y-99317560D01*
X152314001Y-99392198D01*
X152149198Y-99557001D01*
X150633846Y-99557001D01*
X150558999Y-99542113D01*
X150484152Y-99557001D01*
X150484148Y-99557001D01*
X150262463Y-99601097D01*
X150141383Y-99682000D01*
X145073849Y-99682000D01*
X144999002Y-99667112D01*
X144924155Y-99682000D01*
X144924150Y-99682000D01*
X144702465Y-99726096D01*
X144451073Y-99894071D01*
X144408673Y-99957527D01*
X141964531Y-102401670D01*
X141901072Y-102444072D01*
X141733097Y-102695465D01*
X141689001Y-102917150D01*
X141689001Y-102917154D01*
X141674113Y-102992001D01*
X141689001Y-103066848D01*
X141689002Y-103932000D01*
X136588824Y-103932000D01*
X136209022Y-103552199D01*
X136209022Y-103506017D01*
X136066677Y-103162365D01*
X135803657Y-102899345D01*
X135460005Y-102757000D01*
X135409012Y-102757000D01*
X135409012Y-95031858D01*
X135423900Y-94957011D01*
X135409012Y-94882164D01*
X135409012Y-94882160D01*
X135364916Y-94660475D01*
X135196941Y-94409083D01*
X135133485Y-94366683D01*
X134238835Y-93472034D01*
X134249000Y-93447494D01*
X134249000Y-92896506D01*
X134038147Y-92387460D01*
X133648540Y-91997853D01*
X133139494Y-91787000D01*
X132588506Y-91787000D01*
X132079460Y-91997853D01*
X131721440Y-92355873D01*
X131721440Y-91152000D01*
X131672157Y-90904235D01*
X131531809Y-90694191D01*
X131321765Y-90553843D01*
X131074000Y-90504560D01*
X129574000Y-90504560D01*
X129326235Y-90553843D01*
X129116191Y-90694191D01*
X128975843Y-90904235D01*
X128926560Y-91152000D01*
X128926560Y-92652000D01*
X128975843Y-92899765D01*
X129116191Y-93109809D01*
X129326235Y-93250157D01*
X129518844Y-93288469D01*
X129149853Y-93657460D01*
X128939000Y-94166506D01*
X128939000Y-94717494D01*
X129149853Y-95226540D01*
X129539460Y-95616147D01*
X129770870Y-95712000D01*
X129539460Y-95807853D01*
X129149853Y-96197460D01*
X128939000Y-96706506D01*
X128939000Y-97257494D01*
X129149853Y-97766540D01*
X129287256Y-97903943D01*
X128589530Y-98601669D01*
X128526071Y-98644071D01*
X128358096Y-98895464D01*
X128314000Y-99117149D01*
X128314000Y-99117153D01*
X128299112Y-99192000D01*
X116534000Y-99192000D01*
X116534000Y-89922676D01*
X121514000Y-89922676D01*
X121514000Y-90901324D01*
X121888513Y-91805478D01*
X122580522Y-92497487D01*
X123484676Y-92872000D01*
X124463324Y-92872000D01*
X125367478Y-92497487D01*
X126059487Y-91805478D01*
X126434000Y-90901324D01*
X126434000Y-89922676D01*
X126059487Y-89018522D01*
X125367478Y-88326513D01*
X124463324Y-87952000D01*
X123484676Y-87952000D01*
X122580522Y-88326513D01*
X121888513Y-89018522D01*
X121514000Y-89922676D01*
X116534000Y-89922676D01*
X116534000Y-87946778D01*
X175189000Y-87946778D01*
X175189000Y-88597222D01*
X175437914Y-89198153D01*
X175897847Y-89658086D01*
X176498778Y-89907000D01*
X177149222Y-89907000D01*
X177750153Y-89658086D01*
X178210086Y-89198153D01*
X178459000Y-88597222D01*
X178459000Y-87946778D01*
X182689000Y-87946778D01*
X182689000Y-88597222D01*
X182937914Y-89198153D01*
X183397847Y-89658086D01*
X183998778Y-89907000D01*
X184649222Y-89907000D01*
X185250153Y-89658086D01*
X185710086Y-89198153D01*
X185959000Y-88597222D01*
X185959000Y-87946778D01*
X190189000Y-87946778D01*
X190189000Y-88597222D01*
X190437914Y-89198153D01*
X190897847Y-89658086D01*
X191498778Y-89907000D01*
X192149222Y-89907000D01*
X192750153Y-89658086D01*
X193210086Y-89198153D01*
X193459000Y-88597222D01*
X193459000Y-87946778D01*
X197689000Y-87946778D01*
X197689000Y-88597222D01*
X197937914Y-89198153D01*
X198397847Y-89658086D01*
X198998778Y-89907000D01*
X199649222Y-89907000D01*
X200250153Y-89658086D01*
X200710086Y-89198153D01*
X200959000Y-88597222D01*
X200959000Y-87946778D01*
X200710086Y-87345847D01*
X200250153Y-86885914D01*
X199649222Y-86637000D01*
X198998778Y-86637000D01*
X198397847Y-86885914D01*
X197937914Y-87345847D01*
X197689000Y-87946778D01*
X193459000Y-87946778D01*
X193210086Y-87345847D01*
X192750153Y-86885914D01*
X192149222Y-86637000D01*
X191498778Y-86637000D01*
X190897847Y-86885914D01*
X190437914Y-87345847D01*
X190189000Y-87946778D01*
X185959000Y-87946778D01*
X185710086Y-87345847D01*
X185250153Y-86885914D01*
X184649222Y-86637000D01*
X183998778Y-86637000D01*
X183397847Y-86885914D01*
X182937914Y-87345847D01*
X182689000Y-87946778D01*
X178459000Y-87946778D01*
X178210086Y-87345847D01*
X177750153Y-86885914D01*
X177149222Y-86637000D01*
X176498778Y-86637000D01*
X175897847Y-86885914D01*
X175437914Y-87345847D01*
X175189000Y-87946778D01*
X116534000Y-87946778D01*
X116534000Y-86442000D01*
X161070887Y-86442000D01*
X161182260Y-87001909D01*
X161499423Y-87476577D01*
X161974091Y-87793740D01*
X162392667Y-87877000D01*
X162675333Y-87877000D01*
X163093909Y-87793740D01*
X163568577Y-87476577D01*
X163804000Y-87124242D01*
X164039423Y-87476577D01*
X164514091Y-87793740D01*
X164932667Y-87877000D01*
X165215333Y-87877000D01*
X165633909Y-87793740D01*
X166108577Y-87476577D01*
X166344000Y-87124242D01*
X166579423Y-87476577D01*
X167054091Y-87793740D01*
X167472667Y-87877000D01*
X167755333Y-87877000D01*
X168173909Y-87793740D01*
X168648577Y-87476577D01*
X168965740Y-87001909D01*
X169077113Y-86442000D01*
X168965740Y-85882091D01*
X168648577Y-85407423D01*
X168173909Y-85090260D01*
X167755333Y-85007000D01*
X167472667Y-85007000D01*
X167054091Y-85090260D01*
X166579423Y-85407423D01*
X166344000Y-85759758D01*
X166108577Y-85407423D01*
X165633909Y-85090260D01*
X165215333Y-85007000D01*
X164932667Y-85007000D01*
X164514091Y-85090260D01*
X164039423Y-85407423D01*
X163804000Y-85759758D01*
X163568577Y-85407423D01*
X163093909Y-85090260D01*
X162675333Y-85007000D01*
X162392667Y-85007000D01*
X161974091Y-85090260D01*
X161499423Y-85407423D01*
X161182260Y-85882091D01*
X161070887Y-86442000D01*
X116534000Y-86442000D01*
X116534000Y-82402000D01*
X135229908Y-82402000D01*
X135345161Y-82981418D01*
X135673375Y-83472625D01*
X135691619Y-83484816D01*
X135646235Y-83493843D01*
X135436191Y-83634191D01*
X135295843Y-83844235D01*
X135246560Y-84092000D01*
X135246560Y-85792000D01*
X135295843Y-86039765D01*
X135436191Y-86249809D01*
X135646235Y-86390157D01*
X135894000Y-86439440D01*
X137594000Y-86439440D01*
X137841765Y-86390157D01*
X138051809Y-86249809D01*
X138192157Y-86039765D01*
X138201184Y-85994381D01*
X138213375Y-86012625D01*
X138704582Y-86340839D01*
X139137744Y-86427000D01*
X139430256Y-86427000D01*
X139863418Y-86340839D01*
X140354625Y-86012625D01*
X140554000Y-85714239D01*
X140753375Y-86012625D01*
X141244582Y-86340839D01*
X141677744Y-86427000D01*
X141970256Y-86427000D01*
X142403418Y-86340839D01*
X142894625Y-86012625D01*
X143222839Y-85521418D01*
X143338092Y-84942000D01*
X143222839Y-84362582D01*
X142894625Y-83871375D01*
X142403418Y-83543161D01*
X141970256Y-83457000D01*
X141677744Y-83457000D01*
X141244582Y-83543161D01*
X140753375Y-83871375D01*
X140554000Y-84169761D01*
X140354625Y-83871375D01*
X140056239Y-83672000D01*
X140354625Y-83472625D01*
X140682839Y-82981418D01*
X140798092Y-82402000D01*
X144979908Y-82402000D01*
X145095161Y-82981418D01*
X145423375Y-83472625D01*
X145441619Y-83484816D01*
X145396235Y-83493843D01*
X145186191Y-83634191D01*
X145045843Y-83844235D01*
X144996560Y-84092000D01*
X144996560Y-85792000D01*
X145045843Y-86039765D01*
X145186191Y-86249809D01*
X145396235Y-86390157D01*
X145644000Y-86439440D01*
X147344000Y-86439440D01*
X147591765Y-86390157D01*
X147801809Y-86249809D01*
X147942157Y-86039765D01*
X147951184Y-85994381D01*
X147963375Y-86012625D01*
X148454582Y-86340839D01*
X148887744Y-86427000D01*
X149180256Y-86427000D01*
X149613418Y-86340839D01*
X150104625Y-86012625D01*
X150304000Y-85714239D01*
X150503375Y-86012625D01*
X150994582Y-86340839D01*
X151427744Y-86427000D01*
X151720256Y-86427000D01*
X152153418Y-86340839D01*
X152644625Y-86012625D01*
X152972839Y-85521418D01*
X153088092Y-84942000D01*
X152972839Y-84362582D01*
X152644625Y-83871375D01*
X152153418Y-83543161D01*
X151720256Y-83457000D01*
X151427744Y-83457000D01*
X150994582Y-83543161D01*
X150503375Y-83871375D01*
X150304000Y-84169761D01*
X150104625Y-83871375D01*
X149806239Y-83672000D01*
X150104625Y-83472625D01*
X150432839Y-82981418D01*
X150455642Y-82866778D01*
X175189000Y-82866778D01*
X175189000Y-83517222D01*
X175437914Y-84118153D01*
X175897847Y-84578086D01*
X176498778Y-84827000D01*
X177149222Y-84827000D01*
X177750153Y-84578086D01*
X178210086Y-84118153D01*
X178459000Y-83517222D01*
X178459000Y-82866778D01*
X182689000Y-82866778D01*
X182689000Y-83517222D01*
X182937914Y-84118153D01*
X183397847Y-84578086D01*
X183998778Y-84827000D01*
X184649222Y-84827000D01*
X185250153Y-84578086D01*
X185710086Y-84118153D01*
X185959000Y-83517222D01*
X185959000Y-82866778D01*
X190189000Y-82866778D01*
X190189000Y-83517222D01*
X190437914Y-84118153D01*
X190897847Y-84578086D01*
X191498778Y-84827000D01*
X192149222Y-84827000D01*
X192750153Y-84578086D01*
X193210086Y-84118153D01*
X193459000Y-83517222D01*
X193459000Y-82866778D01*
X197689000Y-82866778D01*
X197689000Y-83517222D01*
X197937914Y-84118153D01*
X198397847Y-84578086D01*
X198998778Y-84827000D01*
X199649222Y-84827000D01*
X200250153Y-84578086D01*
X200710086Y-84118153D01*
X200959000Y-83517222D01*
X200959000Y-82866778D01*
X200710086Y-82265847D01*
X200250153Y-81805914D01*
X199649222Y-81557000D01*
X198998778Y-81557000D01*
X198397847Y-81805914D01*
X197937914Y-82265847D01*
X197689000Y-82866778D01*
X193459000Y-82866778D01*
X193210086Y-82265847D01*
X192750153Y-81805914D01*
X192149222Y-81557000D01*
X191498778Y-81557000D01*
X190897847Y-81805914D01*
X190437914Y-82265847D01*
X190189000Y-82866778D01*
X185959000Y-82866778D01*
X185710086Y-82265847D01*
X185250153Y-81805914D01*
X184649222Y-81557000D01*
X183998778Y-81557000D01*
X183397847Y-81805914D01*
X182937914Y-82265847D01*
X182689000Y-82866778D01*
X178459000Y-82866778D01*
X178210086Y-82265847D01*
X177750153Y-81805914D01*
X177149222Y-81557000D01*
X176498778Y-81557000D01*
X175897847Y-81805914D01*
X175437914Y-82265847D01*
X175189000Y-82866778D01*
X150455642Y-82866778D01*
X150548092Y-82402000D01*
X150432839Y-81822582D01*
X150104625Y-81331375D01*
X149613418Y-81003161D01*
X149180256Y-80917000D01*
X148887744Y-80917000D01*
X148454582Y-81003161D01*
X147963375Y-81331375D01*
X147764000Y-81629761D01*
X147564625Y-81331375D01*
X147073418Y-81003161D01*
X146640256Y-80917000D01*
X146347744Y-80917000D01*
X145914582Y-81003161D01*
X145423375Y-81331375D01*
X145095161Y-81822582D01*
X144979908Y-82402000D01*
X140798092Y-82402000D01*
X140682839Y-81822582D01*
X140354625Y-81331375D01*
X139863418Y-81003161D01*
X139430256Y-80917000D01*
X139137744Y-80917000D01*
X138704582Y-81003161D01*
X138213375Y-81331375D01*
X138014000Y-81629761D01*
X137814625Y-81331375D01*
X137323418Y-81003161D01*
X136890256Y-80917000D01*
X136597744Y-80917000D01*
X136164582Y-81003161D01*
X135673375Y-81331375D01*
X135345161Y-81822582D01*
X135229908Y-82402000D01*
X116534000Y-82402000D01*
X116534000Y-76402000D01*
X219114000Y-76402000D01*
X219114001Y-155982000D01*
G36*
X161389000Y-108377983D02*
X161531345Y-108721635D01*
X161564000Y-108754290D01*
X161564001Y-110367148D01*
X161549112Y-110442000D01*
X161564001Y-110516852D01*
X161592945Y-110662365D01*
X161608097Y-110738537D01*
X161725290Y-110913928D01*
X161776072Y-110989929D01*
X161839528Y-111032329D01*
X162139000Y-111331801D01*
X162139000Y-111377983D01*
X162281345Y-111721635D01*
X162544365Y-111984655D01*
X162863989Y-112117047D01*
X162863990Y-122392105D01*
X162849101Y-122466957D01*
X162863990Y-122541809D01*
X162908086Y-122763494D01*
X163076061Y-123014886D01*
X163139517Y-123057286D01*
X165364208Y-125281978D01*
X160988780Y-125281978D01*
X160584000Y-124877198D01*
X160584000Y-112191848D01*
X160598888Y-112117000D01*
X160584000Y-112042152D01*
X160584000Y-112042148D01*
X160539904Y-111820463D01*
X160371929Y-111569071D01*
X160308473Y-111526671D01*
X158615870Y-109834068D01*
X158681930Y-109789928D01*
X158724332Y-109726469D01*
X160188802Y-108262000D01*
X160234983Y-108262000D01*
X160578635Y-108119655D01*
X160611290Y-108087000D01*
X161389000Y-108087000D01*
X161389000Y-108377983D01*
X161389000Y-108377983D01*
G37*
X161389000Y-108377983D02*
X161531345Y-108721635D01*
X161564000Y-108754290D01*
X161564001Y-110367148D01*
X161549112Y-110442000D01*
X161564001Y-110516852D01*
X161592945Y-110662365D01*
X161608097Y-110738537D01*
X161725290Y-110913928D01*
X161776072Y-110989929D01*
X161839528Y-111032329D01*
X162139000Y-111331801D01*
X162139000Y-111377983D01*
X162281345Y-111721635D01*
X162544365Y-111984655D01*
X162863989Y-112117047D01*
X162863990Y-122392105D01*
X162849101Y-122466957D01*
X162863990Y-122541809D01*
X162908086Y-122763494D01*
X163076061Y-123014886D01*
X163139517Y-123057286D01*
X165364208Y-125281978D01*
X160988780Y-125281978D01*
X160584000Y-124877198D01*
X160584000Y-112191848D01*
X160598888Y-112117000D01*
X160584000Y-112042152D01*
X160584000Y-112042148D01*
X160539904Y-111820463D01*
X160371929Y-111569071D01*
X160308473Y-111526671D01*
X158615870Y-109834068D01*
X158681930Y-109789928D01*
X158724332Y-109726469D01*
X160188802Y-108262000D01*
X160234983Y-108262000D01*
X160578635Y-108119655D01*
X160611290Y-108087000D01*
X161389000Y-108087000D01*
X161389000Y-108377983D01*
G36*
X131479000Y-98527494D02*
X131689853Y-99036540D01*
X132079460Y-99426147D01*
X132588506Y-99637000D01*
X133139494Y-99637000D01*
X133164034Y-99626835D01*
X133439001Y-99901803D01*
X133439002Y-102757000D01*
X133138021Y-102757000D01*
X132794369Y-102899345D01*
X132531349Y-103162365D01*
X132389004Y-103506017D01*
X132389004Y-103552198D01*
X129839528Y-106101675D01*
X129834000Y-106105369D01*
X129834000Y-99506801D01*
X130523801Y-98817001D01*
X130765154Y-98817001D01*
X130840001Y-98831889D01*
X130914848Y-98817001D01*
X130914853Y-98817001D01*
X131136538Y-98772905D01*
X131387930Y-98604930D01*
X131430331Y-98541472D01*
X131479000Y-98492803D01*
X131479000Y-98527494D01*
X131479000Y-98527494D01*
G37*
X131479000Y-98527494D02*
X131689853Y-99036540D01*
X132079460Y-99426147D01*
X132588506Y-99637000D01*
X133139494Y-99637000D01*
X133164034Y-99626835D01*
X133439001Y-99901803D01*
X133439002Y-102757000D01*
X133138021Y-102757000D01*
X132794369Y-102899345D01*
X132531349Y-103162365D01*
X132389004Y-103506017D01*
X132389004Y-103552198D01*
X129839528Y-106101675D01*
X129834000Y-106105369D01*
X129834000Y-99506801D01*
X130523801Y-98817001D01*
X130765154Y-98817001D01*
X130840001Y-98831889D01*
X130914848Y-98817001D01*
X130914853Y-98817001D01*
X131136538Y-98772905D01*
X131387930Y-98604930D01*
X131430331Y-98541472D01*
X131479000Y-98492803D01*
X131479000Y-98527494D01*
G36*
X155226560Y-101947000D02*
X155226560Y-102547000D01*
X155275843Y-102794765D01*
X155416191Y-103004809D01*
X155626235Y-103145157D01*
X155874000Y-103194440D01*
X157814000Y-103194440D01*
X157814000Y-103839560D01*
X155874000Y-103839560D01*
X155626235Y-103888843D01*
X155419470Y-104027000D01*
X154313620Y-104027000D01*
X154297157Y-103944235D01*
X154156809Y-103734191D01*
X153946765Y-103593843D01*
X153699000Y-103544560D01*
X152449000Y-103544560D01*
X152201235Y-103593843D01*
X151991191Y-103734191D01*
X151850843Y-103944235D01*
X151803549Y-104182000D01*
X150849560Y-104182000D01*
X150822157Y-104044235D01*
X150681809Y-103834191D01*
X150471765Y-103693843D01*
X150462500Y-103692000D01*
X150471765Y-103690157D01*
X150681809Y-103549809D01*
X150822157Y-103339765D01*
X150871440Y-103092000D01*
X150871440Y-101737000D01*
X155268331Y-101737000D01*
X155226560Y-101947000D01*
X155226560Y-101947000D01*
G37*
X155226560Y-101947000D02*
X155226560Y-102547000D01*
X155275843Y-102794765D01*
X155416191Y-103004809D01*
X155626235Y-103145157D01*
X155874000Y-103194440D01*
X157814000Y-103194440D01*
X157814000Y-103839560D01*
X155874000Y-103839560D01*
X155626235Y-103888843D01*
X155419470Y-104027000D01*
X154313620Y-104027000D01*
X154297157Y-103944235D01*
X154156809Y-103734191D01*
X153946765Y-103593843D01*
X153699000Y-103544560D01*
X152449000Y-103544560D01*
X152201235Y-103593843D01*
X151991191Y-103734191D01*
X151850843Y-103944235D01*
X151803549Y-104182000D01*
X150849560Y-104182000D01*
X150822157Y-104044235D01*
X150681809Y-103834191D01*
X150471765Y-103693843D01*
X150462500Y-103692000D01*
X150471765Y-103690157D01*
X150681809Y-103549809D01*
X150822157Y-103339765D01*
X150871440Y-103092000D01*
X150871440Y-101737000D01*
X155268331Y-101737000D01*
X155226560Y-101947000D01*
M02*
