G04 #@! TF.GenerationSoftware,KiCad,Pcbnew,(5.0.0-rc2-dev-340-g7483a73a5)*
G04 #@! TF.CreationDate,2018-04-20T18:58:31+02:00*
G04 #@! TF.ProjectId,PWRCTRLBRD,5057524354524C4252442E6B69636164,rev?*
G04 #@! TF.SameCoordinates,Original*
G04 #@! TF.FileFunction,Legend,Bot*
G04 #@! TF.FilePolarity,Positive*
%FSLAX46Y46*%
G04 Gerber Fmt 4.6, Leading zero omitted, Abs format (unit mm)*
G04 Created by KiCad (PCBNEW (5.0.0-rc2-dev-340-g7483a73a5)) date 04/20/18 18:58:31*
%MOMM*%
%LPD*%
G01*
G04 APERTURE LIST*
%ADD10C,0.300000*%
%ADD11C,0.120000*%
%ADD12C,0.150000*%
G04 APERTURE END LIST*
D10*
X212252571Y-95584857D02*
X213252571Y-95870571D01*
X212538285Y-96156285D01*
X213252571Y-96442000D01*
X212252571Y-96727714D01*
X212252571Y-97156285D02*
X213252571Y-97442000D01*
X212538285Y-97727714D01*
X213252571Y-98013428D01*
X212252571Y-98299142D01*
X212252571Y-98727714D02*
X213252571Y-99013428D01*
X212538285Y-99299142D01*
X213252571Y-99584857D01*
X212252571Y-99870571D01*
X213109714Y-100442000D02*
X213181142Y-100513428D01*
X213252571Y-100442000D01*
X213181142Y-100370571D01*
X213109714Y-100442000D01*
X213252571Y-100442000D01*
X212252571Y-100942000D02*
X212252571Y-101513428D01*
X211752571Y-101156285D02*
X213038285Y-101156285D01*
X213181142Y-101227714D01*
X213252571Y-101370571D01*
X213252571Y-101513428D01*
X213252571Y-102013428D02*
X211752571Y-102013428D01*
X213252571Y-102656285D02*
X212466857Y-102656285D01*
X212324000Y-102584857D01*
X212252571Y-102442000D01*
X212252571Y-102227714D01*
X212324000Y-102084857D01*
X212395428Y-102013428D01*
X213181142Y-103942000D02*
X213252571Y-103799142D01*
X213252571Y-103513428D01*
X213181142Y-103370571D01*
X213038285Y-103299142D01*
X212466857Y-103299142D01*
X212324000Y-103370571D01*
X212252571Y-103513428D01*
X212252571Y-103799142D01*
X212324000Y-103942000D01*
X212466857Y-104013428D01*
X212609714Y-104013428D01*
X212752571Y-103299142D01*
X213252571Y-104656285D02*
X212252571Y-104656285D01*
X212395428Y-104656285D02*
X212324000Y-104727714D01*
X212252571Y-104870571D01*
X212252571Y-105084857D01*
X212324000Y-105227714D01*
X212466857Y-105299142D01*
X213252571Y-105299142D01*
X212466857Y-105299142D02*
X212324000Y-105370571D01*
X212252571Y-105513428D01*
X212252571Y-105727714D01*
X212324000Y-105870571D01*
X212466857Y-105942000D01*
X213252571Y-105942000D01*
X213252571Y-106656285D02*
X212252571Y-106656285D01*
X211752571Y-106656285D02*
X211824000Y-106584857D01*
X211895428Y-106656285D01*
X211824000Y-106727714D01*
X211752571Y-106656285D01*
X211895428Y-106656285D01*
X213181142Y-107299142D02*
X213252571Y-107442000D01*
X213252571Y-107727714D01*
X213181142Y-107870571D01*
X213038285Y-107942000D01*
X212966857Y-107942000D01*
X212824000Y-107870571D01*
X212752571Y-107727714D01*
X212752571Y-107513428D01*
X212681142Y-107370571D01*
X212538285Y-107299142D01*
X212466857Y-107299142D01*
X212324000Y-107370571D01*
X212252571Y-107513428D01*
X212252571Y-107727714D01*
X212324000Y-107870571D01*
X213181142Y-108513428D02*
X213252571Y-108656285D01*
X213252571Y-108942000D01*
X213181142Y-109084857D01*
X213038285Y-109156285D01*
X212966857Y-109156285D01*
X212824000Y-109084857D01*
X212752571Y-108942000D01*
X212752571Y-108727714D01*
X212681142Y-108584857D01*
X212538285Y-108513428D01*
X212466857Y-108513428D01*
X212324000Y-108584857D01*
X212252571Y-108727714D01*
X212252571Y-108942000D01*
X212324000Y-109084857D01*
X213252571Y-109799142D02*
X212252571Y-109799142D01*
X211752571Y-109799142D02*
X211824000Y-109727714D01*
X211895428Y-109799142D01*
X211824000Y-109870571D01*
X211752571Y-109799142D01*
X211895428Y-109799142D01*
X212252571Y-110513428D02*
X213252571Y-110513428D01*
X212395428Y-110513428D02*
X212324000Y-110584857D01*
X212252571Y-110727714D01*
X212252571Y-110942000D01*
X212324000Y-111084857D01*
X212466857Y-111156285D01*
X213252571Y-111156285D01*
X212252571Y-112513428D02*
X213466857Y-112513428D01*
X213609714Y-112442000D01*
X213681142Y-112370571D01*
X213752571Y-112227714D01*
X213752571Y-112013428D01*
X213681142Y-111870571D01*
X213181142Y-112513428D02*
X213252571Y-112370571D01*
X213252571Y-112084857D01*
X213181142Y-111942000D01*
X213109714Y-111870571D01*
X212966857Y-111799142D01*
X212538285Y-111799142D01*
X212395428Y-111870571D01*
X212324000Y-111942000D01*
X212252571Y-112084857D01*
X212252571Y-112370571D01*
X212324000Y-112513428D01*
X213181142Y-113156285D02*
X213252571Y-113299142D01*
X213252571Y-113584857D01*
X213181142Y-113727714D01*
X213038285Y-113799142D01*
X212966857Y-113799142D01*
X212824000Y-113727714D01*
X212752571Y-113584857D01*
X212752571Y-113370571D01*
X212681142Y-113227714D01*
X212538285Y-113156285D01*
X212466857Y-113156285D01*
X212324000Y-113227714D01*
X212252571Y-113370571D01*
X212252571Y-113584857D01*
X212324000Y-113727714D01*
X213181142Y-115013428D02*
X213252571Y-114870571D01*
X213252571Y-114584857D01*
X213181142Y-114442000D01*
X213038285Y-114370571D01*
X212466857Y-114370571D01*
X212324000Y-114442000D01*
X212252571Y-114584857D01*
X212252571Y-114870571D01*
X212324000Y-115013428D01*
X212466857Y-115084857D01*
X212609714Y-115084857D01*
X212752571Y-114370571D01*
X213252571Y-115727714D02*
X212252571Y-115727714D01*
X212395428Y-115727714D02*
X212324000Y-115799142D01*
X212252571Y-115942000D01*
X212252571Y-116156285D01*
X212324000Y-116299142D01*
X212466857Y-116370571D01*
X213252571Y-116370571D01*
X212466857Y-116370571D02*
X212324000Y-116442000D01*
X212252571Y-116584857D01*
X212252571Y-116799142D01*
X212324000Y-116942000D01*
X212466857Y-117013428D01*
X213252571Y-117013428D01*
X213252571Y-117727714D02*
X212252571Y-117727714D01*
X211752571Y-117727714D02*
X211824000Y-117656285D01*
X211895428Y-117727714D01*
X211824000Y-117799142D01*
X211752571Y-117727714D01*
X211895428Y-117727714D01*
X213181142Y-119084857D02*
X213252571Y-118942000D01*
X213252571Y-118656285D01*
X213181142Y-118513428D01*
X213109714Y-118442000D01*
X212966857Y-118370571D01*
X212538285Y-118370571D01*
X212395428Y-118442000D01*
X212324000Y-118513428D01*
X212252571Y-118656285D01*
X212252571Y-118942000D01*
X212324000Y-119084857D01*
X213252571Y-119942000D02*
X213181142Y-119799142D01*
X213109714Y-119727714D01*
X212966857Y-119656285D01*
X212538285Y-119656285D01*
X212395428Y-119727714D01*
X212324000Y-119799142D01*
X212252571Y-119942000D01*
X212252571Y-120156285D01*
X212324000Y-120299142D01*
X212395428Y-120370571D01*
X212538285Y-120442000D01*
X212966857Y-120442000D01*
X213109714Y-120370571D01*
X213181142Y-120299142D01*
X213252571Y-120156285D01*
X213252571Y-119942000D01*
X213252571Y-121299142D02*
X213181142Y-121156285D01*
X213038285Y-121084857D01*
X211752571Y-121084857D01*
X213252571Y-122084857D02*
X213181142Y-121942000D01*
X213109714Y-121870571D01*
X212966857Y-121799142D01*
X212538285Y-121799142D01*
X212395428Y-121870571D01*
X212324000Y-121942000D01*
X212252571Y-122084857D01*
X212252571Y-122299142D01*
X212324000Y-122442000D01*
X212395428Y-122513428D01*
X212538285Y-122584857D01*
X212966857Y-122584857D01*
X213109714Y-122513428D01*
X213181142Y-122442000D01*
X213252571Y-122299142D01*
X213252571Y-122084857D01*
X212252571Y-123227714D02*
X213252571Y-123227714D01*
X212395428Y-123227714D02*
X212324000Y-123299142D01*
X212252571Y-123442000D01*
X212252571Y-123656285D01*
X212324000Y-123799142D01*
X212466857Y-123870571D01*
X213252571Y-123870571D01*
X213109714Y-124584857D02*
X213181142Y-124656285D01*
X213252571Y-124584857D01*
X213181142Y-124513428D01*
X213109714Y-124584857D01*
X213252571Y-124584857D01*
X213252571Y-125942000D02*
X211752571Y-125942000D01*
X213181142Y-125942000D02*
X213252571Y-125799142D01*
X213252571Y-125513428D01*
X213181142Y-125370571D01*
X213109714Y-125299142D01*
X212966857Y-125227714D01*
X212538285Y-125227714D01*
X212395428Y-125299142D01*
X212324000Y-125370571D01*
X212252571Y-125513428D01*
X212252571Y-125799142D01*
X212324000Y-125942000D01*
X213252571Y-126656285D02*
X211752571Y-126656285D01*
X212681142Y-126799142D02*
X213252571Y-127227714D01*
X212252571Y-127227714D02*
X212824000Y-126656285D01*
X175338285Y-122467000D02*
X175409714Y-122395571D01*
X175552571Y-122181285D01*
X175624000Y-122038428D01*
X175695428Y-121824142D01*
X175766857Y-121467000D01*
X175766857Y-121181285D01*
X175695428Y-120824142D01*
X175624000Y-120609857D01*
X175552571Y-120467000D01*
X175409714Y-120252714D01*
X175338285Y-120181285D01*
X173981142Y-121895571D02*
X174838285Y-121895571D01*
X174409714Y-121895571D02*
X174409714Y-120395571D01*
X174552571Y-120609857D01*
X174695428Y-120752714D01*
X174838285Y-120824142D01*
X173124000Y-121038428D02*
X173266857Y-120967000D01*
X173338285Y-120895571D01*
X173409714Y-120752714D01*
X173409714Y-120681285D01*
X173338285Y-120538428D01*
X173266857Y-120467000D01*
X173124000Y-120395571D01*
X172838285Y-120395571D01*
X172695428Y-120467000D01*
X172624000Y-120538428D01*
X172552571Y-120681285D01*
X172552571Y-120752714D01*
X172624000Y-120895571D01*
X172695428Y-120967000D01*
X172838285Y-121038428D01*
X173124000Y-121038428D01*
X173266857Y-121109857D01*
X173338285Y-121181285D01*
X173409714Y-121324142D01*
X173409714Y-121609857D01*
X173338285Y-121752714D01*
X173266857Y-121824142D01*
X173124000Y-121895571D01*
X172838285Y-121895571D01*
X172695428Y-121824142D01*
X172624000Y-121752714D01*
X172552571Y-121609857D01*
X172552571Y-121324142D01*
X172624000Y-121181285D01*
X172695428Y-121109857D01*
X172838285Y-121038428D01*
X171124000Y-121895571D02*
X171981142Y-121895571D01*
X171552571Y-121895571D02*
X171552571Y-120395571D01*
X171695428Y-120609857D01*
X171838285Y-120752714D01*
X171981142Y-120824142D01*
X169838285Y-120395571D02*
X170124000Y-120395571D01*
X170266857Y-120467000D01*
X170338285Y-120538428D01*
X170481142Y-120752714D01*
X170552571Y-121038428D01*
X170552571Y-121609857D01*
X170481142Y-121752714D01*
X170409714Y-121824142D01*
X170266857Y-121895571D01*
X169981142Y-121895571D01*
X169838285Y-121824142D01*
X169766857Y-121752714D01*
X169695428Y-121609857D01*
X169695428Y-121252714D01*
X169766857Y-121109857D01*
X169838285Y-121038428D01*
X169981142Y-120967000D01*
X170266857Y-120967000D01*
X170409714Y-121038428D01*
X170481142Y-121109857D01*
X170552571Y-121252714D01*
X169052571Y-121324142D02*
X167909714Y-121324142D01*
X167266857Y-121467000D02*
X166552571Y-121467000D01*
X167409714Y-121895571D02*
X166909714Y-120395571D01*
X166409714Y-121895571D01*
X166124000Y-120395571D02*
X165266857Y-120395571D01*
X165695428Y-121895571D02*
X165695428Y-120395571D01*
X164909714Y-122467000D02*
X164838285Y-122395571D01*
X164695428Y-122181285D01*
X164624000Y-122038428D01*
X164552571Y-121824142D01*
X164481142Y-121467000D01*
X164481142Y-121181285D01*
X164552571Y-120824142D01*
X164624000Y-120609857D01*
X164695428Y-120467000D01*
X164838285Y-120252714D01*
X164909714Y-120181285D01*
X173159714Y-124445571D02*
X173659714Y-123731285D01*
X174016857Y-124445571D02*
X174016857Y-122945571D01*
X173445428Y-122945571D01*
X173302571Y-123017000D01*
X173231142Y-123088428D01*
X173159714Y-123231285D01*
X173159714Y-123445571D01*
X173231142Y-123588428D01*
X173302571Y-123659857D01*
X173445428Y-123731285D01*
X174016857Y-123731285D01*
X171945428Y-124374142D02*
X172088285Y-124445571D01*
X172374000Y-124445571D01*
X172516857Y-124374142D01*
X172588285Y-124231285D01*
X172588285Y-123659857D01*
X172516857Y-123517000D01*
X172374000Y-123445571D01*
X172088285Y-123445571D01*
X171945428Y-123517000D01*
X171874000Y-123659857D01*
X171874000Y-123802714D01*
X172588285Y-123945571D01*
X171374000Y-123445571D02*
X171016857Y-124445571D01*
X170659714Y-123445571D01*
X170088285Y-124302714D02*
X170016857Y-124374142D01*
X170088285Y-124445571D01*
X170159714Y-124374142D01*
X170088285Y-124302714D01*
X170088285Y-124445571D01*
X168374000Y-122945571D02*
X167445428Y-122945571D01*
X167945428Y-123517000D01*
X167731142Y-123517000D01*
X167588285Y-123588428D01*
X167516857Y-123659857D01*
X167445428Y-123802714D01*
X167445428Y-124159857D01*
X167516857Y-124302714D01*
X167588285Y-124374142D01*
X167731142Y-124445571D01*
X168159714Y-124445571D01*
X168302571Y-124374142D01*
X168374000Y-124302714D01*
X166874000Y-124017000D02*
X166159714Y-124017000D01*
X167016857Y-124445571D02*
X166516857Y-122945571D01*
X166016857Y-124445571D01*
X182302571Y-119420571D02*
X182302571Y-117920571D01*
X181731142Y-117920571D01*
X181588285Y-117992000D01*
X181516857Y-118063428D01*
X181445428Y-118206285D01*
X181445428Y-118420571D01*
X181516857Y-118563428D01*
X181588285Y-118634857D01*
X181731142Y-118706285D01*
X182302571Y-118706285D01*
X180516857Y-117920571D02*
X180231142Y-117920571D01*
X180088285Y-117992000D01*
X179945428Y-118134857D01*
X179874000Y-118420571D01*
X179874000Y-118920571D01*
X179945428Y-119206285D01*
X180088285Y-119349142D01*
X180231142Y-119420571D01*
X180516857Y-119420571D01*
X180659714Y-119349142D01*
X180802571Y-119206285D01*
X180874000Y-118920571D01*
X180874000Y-118420571D01*
X180802571Y-118134857D01*
X180659714Y-117992000D01*
X180516857Y-117920571D01*
X179374000Y-117920571D02*
X179016857Y-119420571D01*
X178731142Y-118349142D01*
X178445428Y-119420571D01*
X178088285Y-117920571D01*
X177516857Y-118634857D02*
X177016857Y-118634857D01*
X176802571Y-119420571D02*
X177516857Y-119420571D01*
X177516857Y-117920571D01*
X176802571Y-117920571D01*
X175302571Y-119420571D02*
X175802571Y-118706285D01*
X176159714Y-119420571D02*
X176159714Y-117920571D01*
X175588285Y-117920571D01*
X175445428Y-117992000D01*
X175374000Y-118063428D01*
X175302571Y-118206285D01*
X175302571Y-118420571D01*
X175374000Y-118563428D01*
X175445428Y-118634857D01*
X175588285Y-118706285D01*
X176159714Y-118706285D01*
X173588285Y-119349142D02*
X173374000Y-119420571D01*
X173016857Y-119420571D01*
X172874000Y-119349142D01*
X172802571Y-119277714D01*
X172731142Y-119134857D01*
X172731142Y-118992000D01*
X172802571Y-118849142D01*
X172874000Y-118777714D01*
X173016857Y-118706285D01*
X173302571Y-118634857D01*
X173445428Y-118563428D01*
X173516857Y-118492000D01*
X173588285Y-118349142D01*
X173588285Y-118206285D01*
X173516857Y-118063428D01*
X173445428Y-117992000D01*
X173302571Y-117920571D01*
X172945428Y-117920571D01*
X172731142Y-117992000D01*
X172231142Y-117920571D02*
X171874000Y-119420571D01*
X171588285Y-118349142D01*
X171302571Y-119420571D01*
X170945428Y-117920571D01*
X170374000Y-119420571D02*
X170374000Y-117920571D01*
X169874000Y-117920571D02*
X169016857Y-117920571D01*
X169445428Y-119420571D02*
X169445428Y-117920571D01*
X167659714Y-119277714D02*
X167731142Y-119349142D01*
X167945428Y-119420571D01*
X168088285Y-119420571D01*
X168302571Y-119349142D01*
X168445428Y-119206285D01*
X168516857Y-119063428D01*
X168588285Y-118777714D01*
X168588285Y-118563428D01*
X168516857Y-118277714D01*
X168445428Y-118134857D01*
X168302571Y-117992000D01*
X168088285Y-117920571D01*
X167945428Y-117920571D01*
X167731142Y-117992000D01*
X167659714Y-118063428D01*
X167016857Y-119420571D02*
X167016857Y-117920571D01*
X167016857Y-118634857D02*
X166159714Y-118634857D01*
X166159714Y-119420571D02*
X166159714Y-117920571D01*
X163802571Y-118634857D02*
X163588285Y-118706285D01*
X163516857Y-118777714D01*
X163445428Y-118920571D01*
X163445428Y-119134857D01*
X163516857Y-119277714D01*
X163588285Y-119349142D01*
X163731142Y-119420571D01*
X164302571Y-119420571D01*
X164302571Y-117920571D01*
X163802571Y-117920571D01*
X163659714Y-117992000D01*
X163588285Y-118063428D01*
X163516857Y-118206285D01*
X163516857Y-118349142D01*
X163588285Y-118492000D01*
X163659714Y-118563428D01*
X163802571Y-118634857D01*
X164302571Y-118634857D01*
X162516857Y-117920571D02*
X162231142Y-117920571D01*
X162088285Y-117992000D01*
X161945428Y-118134857D01*
X161874000Y-118420571D01*
X161874000Y-118920571D01*
X161945428Y-119206285D01*
X162088285Y-119349142D01*
X162231142Y-119420571D01*
X162516857Y-119420571D01*
X162659714Y-119349142D01*
X162802571Y-119206285D01*
X162874000Y-118920571D01*
X162874000Y-118420571D01*
X162802571Y-118134857D01*
X162659714Y-117992000D01*
X162516857Y-117920571D01*
X161302571Y-118992000D02*
X160588285Y-118992000D01*
X161445428Y-119420571D02*
X160945428Y-117920571D01*
X160445428Y-119420571D01*
X159088285Y-119420571D02*
X159588285Y-118706285D01*
X159945428Y-119420571D02*
X159945428Y-117920571D01*
X159374000Y-117920571D01*
X159231142Y-117992000D01*
X159159714Y-118063428D01*
X159088285Y-118206285D01*
X159088285Y-118420571D01*
X159159714Y-118563428D01*
X159231142Y-118634857D01*
X159374000Y-118706285D01*
X159945428Y-118706285D01*
X158445428Y-119420571D02*
X158445428Y-117920571D01*
X158088285Y-117920571D01*
X157874000Y-117992000D01*
X157731142Y-118134857D01*
X157659714Y-118277714D01*
X157588285Y-118563428D01*
X157588285Y-118777714D01*
X157659714Y-119063428D01*
X157731142Y-119206285D01*
X157874000Y-119349142D01*
X158088285Y-119420571D01*
X158445428Y-119420571D01*
X155945428Y-118420571D02*
X155659714Y-119420571D01*
X155374000Y-118706285D01*
X155088285Y-119420571D01*
X154802571Y-118420571D01*
X154231142Y-119277714D02*
X154159714Y-119349142D01*
X154231142Y-119420571D01*
X154302571Y-119349142D01*
X154231142Y-119277714D01*
X154231142Y-119420571D01*
X152374000Y-119420571D02*
X152374000Y-117920571D01*
X151731142Y-118063428D02*
X151659714Y-117992000D01*
X151516857Y-117920571D01*
X151159714Y-117920571D01*
X151016857Y-117992000D01*
X150945428Y-118063428D01*
X150874000Y-118206285D01*
X150874000Y-118349142D01*
X150945428Y-118563428D01*
X151802571Y-119420571D01*
X150874000Y-119420571D01*
X149374000Y-119277714D02*
X149445428Y-119349142D01*
X149659714Y-119420571D01*
X149802571Y-119420571D01*
X150016857Y-119349142D01*
X150159714Y-119206285D01*
X150231142Y-119063428D01*
X150302571Y-118777714D01*
X150302571Y-118563428D01*
X150231142Y-118277714D01*
X150159714Y-118134857D01*
X150016857Y-117992000D01*
X149802571Y-117920571D01*
X149659714Y-117920571D01*
X149445428Y-117992000D01*
X149374000Y-118063428D01*
D11*
X152224000Y-104192000D02*
X152224000Y-103192000D01*
X153924000Y-103192000D02*
X153924000Y-104192000D01*
X138824000Y-142792000D02*
X137824000Y-142792000D01*
X137824000Y-141092000D02*
X138824000Y-141092000D01*
X153324000Y-142792000D02*
X152324000Y-142792000D01*
X152324000Y-141092000D02*
X153324000Y-141092000D01*
X167824000Y-142792000D02*
X166824000Y-142792000D01*
X166824000Y-141092000D02*
X167824000Y-141092000D01*
X182074000Y-142792000D02*
X181074000Y-142792000D01*
X181074000Y-141092000D02*
X182074000Y-141092000D01*
X196324000Y-142792000D02*
X195324000Y-142792000D01*
X195324000Y-141092000D02*
X196324000Y-141092000D01*
X148694000Y-103092000D02*
X148694000Y-104292000D01*
X150454000Y-104292000D02*
X150454000Y-103092000D01*
X164674000Y-93312000D02*
X163474000Y-93312000D01*
X163474000Y-95072000D02*
X164674000Y-95072000D01*
X153954000Y-97192000D02*
X153954000Y-95992000D01*
X152194000Y-95992000D02*
X152194000Y-97192000D01*
X138124000Y-129322000D02*
X139324000Y-129322000D01*
X139324000Y-127562000D02*
X138124000Y-127562000D01*
X138924000Y-139062000D02*
X137724000Y-139062000D01*
X137724000Y-140822000D02*
X138924000Y-140822000D01*
X151974000Y-129322000D02*
X153174000Y-129322000D01*
X153174000Y-127562000D02*
X151974000Y-127562000D01*
X153424000Y-139062000D02*
X152224000Y-139062000D01*
X152224000Y-140822000D02*
X153424000Y-140822000D01*
X166974000Y-129322000D02*
X168174000Y-129322000D01*
X168174000Y-127562000D02*
X166974000Y-127562000D01*
X167924000Y-139062000D02*
X166724000Y-139062000D01*
X166724000Y-140822000D02*
X167924000Y-140822000D01*
X180974000Y-129322000D02*
X182174000Y-129322000D01*
X182174000Y-127562000D02*
X180974000Y-127562000D01*
X182324000Y-139062000D02*
X181124000Y-139062000D01*
X181124000Y-140822000D02*
X182324000Y-140822000D01*
X194974000Y-129322000D02*
X196174000Y-129322000D01*
X196174000Y-127562000D02*
X194974000Y-127562000D01*
X196324000Y-139062000D02*
X195124000Y-139062000D01*
X195124000Y-140822000D02*
X196324000Y-140822000D01*
D12*
X157699000Y-115817000D02*
X157699000Y-115567000D01*
X165449000Y-115817000D02*
X165449000Y-115472000D01*
X165449000Y-97567000D02*
X165449000Y-97912000D01*
X157699000Y-97567000D02*
X157699000Y-97912000D01*
X157699000Y-115817000D02*
X165449000Y-115817000D01*
X157699000Y-97567000D02*
X165449000Y-97567000D01*
X157699000Y-115567000D02*
X155874000Y-115567000D01*
D11*
X140954000Y-135542000D02*
X140954000Y-134342000D01*
X139194000Y-134342000D02*
X139194000Y-135542000D01*
X154954000Y-135442000D02*
X154954000Y-134242000D01*
X153194000Y-134242000D02*
X153194000Y-135442000D01*
X169954000Y-135442000D02*
X169954000Y-134242000D01*
X168194000Y-134242000D02*
X168194000Y-135442000D01*
X183954000Y-135292000D02*
X183954000Y-134092000D01*
X182194000Y-134092000D02*
X182194000Y-135292000D01*
X197954000Y-135292000D02*
X197954000Y-134092000D01*
X196194000Y-134092000D02*
X196194000Y-135292000D01*
X170324000Y-102092000D02*
X171324000Y-102092000D01*
X171324000Y-103792000D02*
X170324000Y-103792000D01*
X141024000Y-129692000D02*
X137174000Y-129692000D01*
X141024000Y-131692000D02*
X137174000Y-131692000D01*
X141024000Y-129692000D02*
X141024000Y-131692000D01*
X154774000Y-129942000D02*
X154774000Y-131942000D01*
X154774000Y-131942000D02*
X150924000Y-131942000D01*
X154774000Y-129942000D02*
X150924000Y-129942000D01*
X169774000Y-129942000D02*
X169774000Y-131942000D01*
X169774000Y-131942000D02*
X165924000Y-131942000D01*
X169774000Y-129942000D02*
X165924000Y-129942000D01*
X183774000Y-129942000D02*
X183774000Y-131942000D01*
X183774000Y-131942000D02*
X179924000Y-131942000D01*
X183774000Y-129942000D02*
X179924000Y-129942000D01*
X197774000Y-129942000D02*
X197774000Y-131942000D01*
X197774000Y-131942000D02*
X193924000Y-131942000D01*
X197774000Y-129942000D02*
X193924000Y-129942000D01*
D12*
X151681142Y-103525333D02*
X151728761Y-103477714D01*
X151776380Y-103334857D01*
X151776380Y-103239619D01*
X151728761Y-103096761D01*
X151633523Y-103001523D01*
X151538285Y-102953904D01*
X151347809Y-102906285D01*
X151204952Y-102906285D01*
X151014476Y-102953904D01*
X150919238Y-103001523D01*
X150824000Y-103096761D01*
X150776380Y-103239619D01*
X150776380Y-103334857D01*
X150824000Y-103477714D01*
X150871619Y-103525333D01*
X151776380Y-104477714D02*
X151776380Y-103906285D01*
X151776380Y-104192000D02*
X150776380Y-104192000D01*
X150919238Y-104096761D01*
X151014476Y-104001523D01*
X151062095Y-103906285D01*
X138490666Y-144049142D02*
X138538285Y-144096761D01*
X138681142Y-144144380D01*
X138776380Y-144144380D01*
X138919238Y-144096761D01*
X139014476Y-144001523D01*
X139062095Y-143906285D01*
X139109714Y-143715809D01*
X139109714Y-143572952D01*
X139062095Y-143382476D01*
X139014476Y-143287238D01*
X138919238Y-143192000D01*
X138776380Y-143144380D01*
X138681142Y-143144380D01*
X138538285Y-143192000D01*
X138490666Y-143239619D01*
X138109714Y-143239619D02*
X138062095Y-143192000D01*
X137966857Y-143144380D01*
X137728761Y-143144380D01*
X137633523Y-143192000D01*
X137585904Y-143239619D01*
X137538285Y-143334857D01*
X137538285Y-143430095D01*
X137585904Y-143572952D01*
X138157333Y-144144380D01*
X137538285Y-144144380D01*
X152990666Y-144049142D02*
X153038285Y-144096761D01*
X153181142Y-144144380D01*
X153276380Y-144144380D01*
X153419238Y-144096761D01*
X153514476Y-144001523D01*
X153562095Y-143906285D01*
X153609714Y-143715809D01*
X153609714Y-143572952D01*
X153562095Y-143382476D01*
X153514476Y-143287238D01*
X153419238Y-143192000D01*
X153276380Y-143144380D01*
X153181142Y-143144380D01*
X153038285Y-143192000D01*
X152990666Y-143239619D01*
X152657333Y-143144380D02*
X152038285Y-143144380D01*
X152371619Y-143525333D01*
X152228761Y-143525333D01*
X152133523Y-143572952D01*
X152085904Y-143620571D01*
X152038285Y-143715809D01*
X152038285Y-143953904D01*
X152085904Y-144049142D01*
X152133523Y-144096761D01*
X152228761Y-144144380D01*
X152514476Y-144144380D01*
X152609714Y-144096761D01*
X152657333Y-144049142D01*
X167490666Y-144049142D02*
X167538285Y-144096761D01*
X167681142Y-144144380D01*
X167776380Y-144144380D01*
X167919238Y-144096761D01*
X168014476Y-144001523D01*
X168062095Y-143906285D01*
X168109714Y-143715809D01*
X168109714Y-143572952D01*
X168062095Y-143382476D01*
X168014476Y-143287238D01*
X167919238Y-143192000D01*
X167776380Y-143144380D01*
X167681142Y-143144380D01*
X167538285Y-143192000D01*
X167490666Y-143239619D01*
X166633523Y-143477714D02*
X166633523Y-144144380D01*
X166871619Y-143096761D02*
X167109714Y-143811047D01*
X166490666Y-143811047D01*
X181740666Y-144049142D02*
X181788285Y-144096761D01*
X181931142Y-144144380D01*
X182026380Y-144144380D01*
X182169238Y-144096761D01*
X182264476Y-144001523D01*
X182312095Y-143906285D01*
X182359714Y-143715809D01*
X182359714Y-143572952D01*
X182312095Y-143382476D01*
X182264476Y-143287238D01*
X182169238Y-143192000D01*
X182026380Y-143144380D01*
X181931142Y-143144380D01*
X181788285Y-143192000D01*
X181740666Y-143239619D01*
X180835904Y-143144380D02*
X181312095Y-143144380D01*
X181359714Y-143620571D01*
X181312095Y-143572952D01*
X181216857Y-143525333D01*
X180978761Y-143525333D01*
X180883523Y-143572952D01*
X180835904Y-143620571D01*
X180788285Y-143715809D01*
X180788285Y-143953904D01*
X180835904Y-144049142D01*
X180883523Y-144096761D01*
X180978761Y-144144380D01*
X181216857Y-144144380D01*
X181312095Y-144096761D01*
X181359714Y-144049142D01*
X195990666Y-144049142D02*
X196038285Y-144096761D01*
X196181142Y-144144380D01*
X196276380Y-144144380D01*
X196419238Y-144096761D01*
X196514476Y-144001523D01*
X196562095Y-143906285D01*
X196609714Y-143715809D01*
X196609714Y-143572952D01*
X196562095Y-143382476D01*
X196514476Y-143287238D01*
X196419238Y-143192000D01*
X196276380Y-143144380D01*
X196181142Y-143144380D01*
X196038285Y-143192000D01*
X195990666Y-143239619D01*
X195133523Y-143144380D02*
X195324000Y-143144380D01*
X195419238Y-143192000D01*
X195466857Y-143239619D01*
X195562095Y-143382476D01*
X195609714Y-143572952D01*
X195609714Y-143953904D01*
X195562095Y-144049142D01*
X195514476Y-144096761D01*
X195419238Y-144144380D01*
X195228761Y-144144380D01*
X195133523Y-144096761D01*
X195085904Y-144049142D01*
X195038285Y-143953904D01*
X195038285Y-143715809D01*
X195085904Y-143620571D01*
X195133523Y-143572952D01*
X195228761Y-143525333D01*
X195419238Y-143525333D01*
X195514476Y-143572952D01*
X195562095Y-143620571D01*
X195609714Y-143715809D01*
X148276380Y-103525333D02*
X147800190Y-103192000D01*
X148276380Y-102953904D02*
X147276380Y-102953904D01*
X147276380Y-103334857D01*
X147324000Y-103430095D01*
X147371619Y-103477714D01*
X147466857Y-103525333D01*
X147609714Y-103525333D01*
X147704952Y-103477714D01*
X147752571Y-103430095D01*
X147800190Y-103334857D01*
X147800190Y-102953904D01*
X147371619Y-103906285D02*
X147324000Y-103953904D01*
X147276380Y-104049142D01*
X147276380Y-104287238D01*
X147324000Y-104382476D01*
X147371619Y-104430095D01*
X147466857Y-104477714D01*
X147562095Y-104477714D01*
X147704952Y-104430095D01*
X148276380Y-103858666D01*
X148276380Y-104477714D01*
X164240666Y-96344380D02*
X164574000Y-95868190D01*
X164812095Y-96344380D02*
X164812095Y-95344380D01*
X164431142Y-95344380D01*
X164335904Y-95392000D01*
X164288285Y-95439619D01*
X164240666Y-95534857D01*
X164240666Y-95677714D01*
X164288285Y-95772952D01*
X164335904Y-95820571D01*
X164431142Y-95868190D01*
X164812095Y-95868190D01*
X163907333Y-95344380D02*
X163288285Y-95344380D01*
X163621619Y-95725333D01*
X163478761Y-95725333D01*
X163383523Y-95772952D01*
X163335904Y-95820571D01*
X163288285Y-95915809D01*
X163288285Y-96153904D01*
X163335904Y-96249142D01*
X163383523Y-96296761D01*
X163478761Y-96344380D01*
X163764476Y-96344380D01*
X163859714Y-96296761D01*
X163907333Y-96249142D01*
X151826380Y-96425333D02*
X151350190Y-96092000D01*
X151826380Y-95853904D02*
X150826380Y-95853904D01*
X150826380Y-96234857D01*
X150874000Y-96330095D01*
X150921619Y-96377714D01*
X151016857Y-96425333D01*
X151159714Y-96425333D01*
X151254952Y-96377714D01*
X151302571Y-96330095D01*
X151350190Y-96234857D01*
X151350190Y-95853904D01*
X151159714Y-97282476D02*
X151826380Y-97282476D01*
X150778761Y-97044380D02*
X151493047Y-96806285D01*
X151493047Y-97425333D01*
X138890666Y-127194380D02*
X139224000Y-126718190D01*
X139462095Y-127194380D02*
X139462095Y-126194380D01*
X139081142Y-126194380D01*
X138985904Y-126242000D01*
X138938285Y-126289619D01*
X138890666Y-126384857D01*
X138890666Y-126527714D01*
X138938285Y-126622952D01*
X138985904Y-126670571D01*
X139081142Y-126718190D01*
X139462095Y-126718190D01*
X137985904Y-126194380D02*
X138462095Y-126194380D01*
X138509714Y-126670571D01*
X138462095Y-126622952D01*
X138366857Y-126575333D01*
X138128761Y-126575333D01*
X138033523Y-126622952D01*
X137985904Y-126670571D01*
X137938285Y-126765809D01*
X137938285Y-127003904D01*
X137985904Y-127099142D01*
X138033523Y-127146761D01*
X138128761Y-127194380D01*
X138366857Y-127194380D01*
X138462095Y-127146761D01*
X138509714Y-127099142D01*
X134990666Y-140394380D02*
X135324000Y-139918190D01*
X135562095Y-140394380D02*
X135562095Y-139394380D01*
X135181142Y-139394380D01*
X135085904Y-139442000D01*
X135038285Y-139489619D01*
X134990666Y-139584857D01*
X134990666Y-139727714D01*
X135038285Y-139822952D01*
X135085904Y-139870571D01*
X135181142Y-139918190D01*
X135562095Y-139918190D01*
X134514476Y-140394380D02*
X134324000Y-140394380D01*
X134228761Y-140346761D01*
X134181142Y-140299142D01*
X134085904Y-140156285D01*
X134038285Y-139965809D01*
X134038285Y-139584857D01*
X134085904Y-139489619D01*
X134133523Y-139442000D01*
X134228761Y-139394380D01*
X134419238Y-139394380D01*
X134514476Y-139442000D01*
X134562095Y-139489619D01*
X134609714Y-139584857D01*
X134609714Y-139822952D01*
X134562095Y-139918190D01*
X134514476Y-139965809D01*
X134419238Y-140013428D01*
X134228761Y-140013428D01*
X134133523Y-139965809D01*
X134085904Y-139918190D01*
X134038285Y-139822952D01*
X153216857Y-127194380D02*
X153550190Y-126718190D01*
X153788285Y-127194380D02*
X153788285Y-126194380D01*
X153407333Y-126194380D01*
X153312095Y-126242000D01*
X153264476Y-126289619D01*
X153216857Y-126384857D01*
X153216857Y-126527714D01*
X153264476Y-126622952D01*
X153312095Y-126670571D01*
X153407333Y-126718190D01*
X153788285Y-126718190D01*
X152264476Y-127194380D02*
X152835904Y-127194380D01*
X152550190Y-127194380D02*
X152550190Y-126194380D01*
X152645428Y-126337238D01*
X152740666Y-126432476D01*
X152835904Y-126480095D01*
X151645428Y-126194380D02*
X151550190Y-126194380D01*
X151454952Y-126242000D01*
X151407333Y-126289619D01*
X151359714Y-126384857D01*
X151312095Y-126575333D01*
X151312095Y-126813428D01*
X151359714Y-127003904D01*
X151407333Y-127099142D01*
X151454952Y-127146761D01*
X151550190Y-127194380D01*
X151645428Y-127194380D01*
X151740666Y-127146761D01*
X151788285Y-127099142D01*
X151835904Y-127003904D01*
X151883523Y-126813428D01*
X151883523Y-126575333D01*
X151835904Y-126384857D01*
X151788285Y-126289619D01*
X151740666Y-126242000D01*
X151645428Y-126194380D01*
X149716857Y-140394380D02*
X150050190Y-139918190D01*
X150288285Y-140394380D02*
X150288285Y-139394380D01*
X149907333Y-139394380D01*
X149812095Y-139442000D01*
X149764476Y-139489619D01*
X149716857Y-139584857D01*
X149716857Y-139727714D01*
X149764476Y-139822952D01*
X149812095Y-139870571D01*
X149907333Y-139918190D01*
X150288285Y-139918190D01*
X148764476Y-140394380D02*
X149335904Y-140394380D01*
X149050190Y-140394380D02*
X149050190Y-139394380D01*
X149145428Y-139537238D01*
X149240666Y-139632476D01*
X149335904Y-139680095D01*
X147812095Y-140394380D02*
X148383523Y-140394380D01*
X148097809Y-140394380D02*
X148097809Y-139394380D01*
X148193047Y-139537238D01*
X148288285Y-139632476D01*
X148383523Y-139680095D01*
X168216857Y-127194380D02*
X168550190Y-126718190D01*
X168788285Y-127194380D02*
X168788285Y-126194380D01*
X168407333Y-126194380D01*
X168312095Y-126242000D01*
X168264476Y-126289619D01*
X168216857Y-126384857D01*
X168216857Y-126527714D01*
X168264476Y-126622952D01*
X168312095Y-126670571D01*
X168407333Y-126718190D01*
X168788285Y-126718190D01*
X167264476Y-127194380D02*
X167835904Y-127194380D01*
X167550190Y-127194380D02*
X167550190Y-126194380D01*
X167645428Y-126337238D01*
X167740666Y-126432476D01*
X167835904Y-126480095D01*
X166883523Y-126289619D02*
X166835904Y-126242000D01*
X166740666Y-126194380D01*
X166502571Y-126194380D01*
X166407333Y-126242000D01*
X166359714Y-126289619D01*
X166312095Y-126384857D01*
X166312095Y-126480095D01*
X166359714Y-126622952D01*
X166931142Y-127194380D01*
X166312095Y-127194380D01*
X164216857Y-140394380D02*
X164550190Y-139918190D01*
X164788285Y-140394380D02*
X164788285Y-139394380D01*
X164407333Y-139394380D01*
X164312095Y-139442000D01*
X164264476Y-139489619D01*
X164216857Y-139584857D01*
X164216857Y-139727714D01*
X164264476Y-139822952D01*
X164312095Y-139870571D01*
X164407333Y-139918190D01*
X164788285Y-139918190D01*
X163264476Y-140394380D02*
X163835904Y-140394380D01*
X163550190Y-140394380D02*
X163550190Y-139394380D01*
X163645428Y-139537238D01*
X163740666Y-139632476D01*
X163835904Y-139680095D01*
X162931142Y-139394380D02*
X162312095Y-139394380D01*
X162645428Y-139775333D01*
X162502571Y-139775333D01*
X162407333Y-139822952D01*
X162359714Y-139870571D01*
X162312095Y-139965809D01*
X162312095Y-140203904D01*
X162359714Y-140299142D01*
X162407333Y-140346761D01*
X162502571Y-140394380D01*
X162788285Y-140394380D01*
X162883523Y-140346761D01*
X162931142Y-140299142D01*
X182216857Y-127194380D02*
X182550190Y-126718190D01*
X182788285Y-127194380D02*
X182788285Y-126194380D01*
X182407333Y-126194380D01*
X182312095Y-126242000D01*
X182264476Y-126289619D01*
X182216857Y-126384857D01*
X182216857Y-126527714D01*
X182264476Y-126622952D01*
X182312095Y-126670571D01*
X182407333Y-126718190D01*
X182788285Y-126718190D01*
X181264476Y-127194380D02*
X181835904Y-127194380D01*
X181550190Y-127194380D02*
X181550190Y-126194380D01*
X181645428Y-126337238D01*
X181740666Y-126432476D01*
X181835904Y-126480095D01*
X180407333Y-126527714D02*
X180407333Y-127194380D01*
X180645428Y-126146761D02*
X180883523Y-126861047D01*
X180264476Y-126861047D01*
X178466857Y-140394380D02*
X178800190Y-139918190D01*
X179038285Y-140394380D02*
X179038285Y-139394380D01*
X178657333Y-139394380D01*
X178562095Y-139442000D01*
X178514476Y-139489619D01*
X178466857Y-139584857D01*
X178466857Y-139727714D01*
X178514476Y-139822952D01*
X178562095Y-139870571D01*
X178657333Y-139918190D01*
X179038285Y-139918190D01*
X177514476Y-140394380D02*
X178085904Y-140394380D01*
X177800190Y-140394380D02*
X177800190Y-139394380D01*
X177895428Y-139537238D01*
X177990666Y-139632476D01*
X178085904Y-139680095D01*
X176609714Y-139394380D02*
X177085904Y-139394380D01*
X177133523Y-139870571D01*
X177085904Y-139822952D01*
X176990666Y-139775333D01*
X176752571Y-139775333D01*
X176657333Y-139822952D01*
X176609714Y-139870571D01*
X176562095Y-139965809D01*
X176562095Y-140203904D01*
X176609714Y-140299142D01*
X176657333Y-140346761D01*
X176752571Y-140394380D01*
X176990666Y-140394380D01*
X177085904Y-140346761D01*
X177133523Y-140299142D01*
X196216857Y-127194380D02*
X196550190Y-126718190D01*
X196788285Y-127194380D02*
X196788285Y-126194380D01*
X196407333Y-126194380D01*
X196312095Y-126242000D01*
X196264476Y-126289619D01*
X196216857Y-126384857D01*
X196216857Y-126527714D01*
X196264476Y-126622952D01*
X196312095Y-126670571D01*
X196407333Y-126718190D01*
X196788285Y-126718190D01*
X195264476Y-127194380D02*
X195835904Y-127194380D01*
X195550190Y-127194380D02*
X195550190Y-126194380D01*
X195645428Y-126337238D01*
X195740666Y-126432476D01*
X195835904Y-126480095D01*
X194407333Y-126194380D02*
X194597809Y-126194380D01*
X194693047Y-126242000D01*
X194740666Y-126289619D01*
X194835904Y-126432476D01*
X194883523Y-126622952D01*
X194883523Y-127003904D01*
X194835904Y-127099142D01*
X194788285Y-127146761D01*
X194693047Y-127194380D01*
X194502571Y-127194380D01*
X194407333Y-127146761D01*
X194359714Y-127099142D01*
X194312095Y-127003904D01*
X194312095Y-126765809D01*
X194359714Y-126670571D01*
X194407333Y-126622952D01*
X194502571Y-126575333D01*
X194693047Y-126575333D01*
X194788285Y-126622952D01*
X194835904Y-126670571D01*
X194883523Y-126765809D01*
X192466857Y-140394380D02*
X192800190Y-139918190D01*
X193038285Y-140394380D02*
X193038285Y-139394380D01*
X192657333Y-139394380D01*
X192562095Y-139442000D01*
X192514476Y-139489619D01*
X192466857Y-139584857D01*
X192466857Y-139727714D01*
X192514476Y-139822952D01*
X192562095Y-139870571D01*
X192657333Y-139918190D01*
X193038285Y-139918190D01*
X191514476Y-140394380D02*
X192085904Y-140394380D01*
X191800190Y-140394380D02*
X191800190Y-139394380D01*
X191895428Y-139537238D01*
X191990666Y-139632476D01*
X192085904Y-139680095D01*
X191181142Y-139394380D02*
X190514476Y-139394380D01*
X190943047Y-140394380D01*
X162335904Y-116194380D02*
X162335904Y-117003904D01*
X162288285Y-117099142D01*
X162240666Y-117146761D01*
X162145428Y-117194380D01*
X161954952Y-117194380D01*
X161859714Y-117146761D01*
X161812095Y-117099142D01*
X161764476Y-117003904D01*
X161764476Y-116194380D01*
X160764476Y-117194380D02*
X161335904Y-117194380D01*
X161050190Y-117194380D02*
X161050190Y-116194380D01*
X161145428Y-116337238D01*
X161240666Y-116432476D01*
X161335904Y-116480095D01*
X138216857Y-135394380D02*
X138550190Y-134918190D01*
X138788285Y-135394380D02*
X138788285Y-134394380D01*
X138407333Y-134394380D01*
X138312095Y-134442000D01*
X138264476Y-134489619D01*
X138216857Y-134584857D01*
X138216857Y-134727714D01*
X138264476Y-134822952D01*
X138312095Y-134870571D01*
X138407333Y-134918190D01*
X138788285Y-134918190D01*
X137264476Y-135394380D02*
X137835904Y-135394380D01*
X137550190Y-135394380D02*
X137550190Y-134394380D01*
X137645428Y-134537238D01*
X137740666Y-134632476D01*
X137835904Y-134680095D01*
X136693047Y-134822952D02*
X136788285Y-134775333D01*
X136835904Y-134727714D01*
X136883523Y-134632476D01*
X136883523Y-134584857D01*
X136835904Y-134489619D01*
X136788285Y-134442000D01*
X136693047Y-134394380D01*
X136502571Y-134394380D01*
X136407333Y-134442000D01*
X136359714Y-134489619D01*
X136312095Y-134584857D01*
X136312095Y-134632476D01*
X136359714Y-134727714D01*
X136407333Y-134775333D01*
X136502571Y-134822952D01*
X136693047Y-134822952D01*
X136788285Y-134870571D01*
X136835904Y-134918190D01*
X136883523Y-135013428D01*
X136883523Y-135203904D01*
X136835904Y-135299142D01*
X136788285Y-135346761D01*
X136693047Y-135394380D01*
X136502571Y-135394380D01*
X136407333Y-135346761D01*
X136359714Y-135299142D01*
X136312095Y-135203904D01*
X136312095Y-135013428D01*
X136359714Y-134918190D01*
X136407333Y-134870571D01*
X136502571Y-134822952D01*
X152216857Y-135294380D02*
X152550190Y-134818190D01*
X152788285Y-135294380D02*
X152788285Y-134294380D01*
X152407333Y-134294380D01*
X152312095Y-134342000D01*
X152264476Y-134389619D01*
X152216857Y-134484857D01*
X152216857Y-134627714D01*
X152264476Y-134722952D01*
X152312095Y-134770571D01*
X152407333Y-134818190D01*
X152788285Y-134818190D01*
X151264476Y-135294380D02*
X151835904Y-135294380D01*
X151550190Y-135294380D02*
X151550190Y-134294380D01*
X151645428Y-134437238D01*
X151740666Y-134532476D01*
X151835904Y-134580095D01*
X150788285Y-135294380D02*
X150597809Y-135294380D01*
X150502571Y-135246761D01*
X150454952Y-135199142D01*
X150359714Y-135056285D01*
X150312095Y-134865809D01*
X150312095Y-134484857D01*
X150359714Y-134389619D01*
X150407333Y-134342000D01*
X150502571Y-134294380D01*
X150693047Y-134294380D01*
X150788285Y-134342000D01*
X150835904Y-134389619D01*
X150883523Y-134484857D01*
X150883523Y-134722952D01*
X150835904Y-134818190D01*
X150788285Y-134865809D01*
X150693047Y-134913428D01*
X150502571Y-134913428D01*
X150407333Y-134865809D01*
X150359714Y-134818190D01*
X150312095Y-134722952D01*
X167216857Y-135294380D02*
X167550190Y-134818190D01*
X167788285Y-135294380D02*
X167788285Y-134294380D01*
X167407333Y-134294380D01*
X167312095Y-134342000D01*
X167264476Y-134389619D01*
X167216857Y-134484857D01*
X167216857Y-134627714D01*
X167264476Y-134722952D01*
X167312095Y-134770571D01*
X167407333Y-134818190D01*
X167788285Y-134818190D01*
X166835904Y-134389619D02*
X166788285Y-134342000D01*
X166693047Y-134294380D01*
X166454952Y-134294380D01*
X166359714Y-134342000D01*
X166312095Y-134389619D01*
X166264476Y-134484857D01*
X166264476Y-134580095D01*
X166312095Y-134722952D01*
X166883523Y-135294380D01*
X166264476Y-135294380D01*
X165645428Y-134294380D02*
X165550190Y-134294380D01*
X165454952Y-134342000D01*
X165407333Y-134389619D01*
X165359714Y-134484857D01*
X165312095Y-134675333D01*
X165312095Y-134913428D01*
X165359714Y-135103904D01*
X165407333Y-135199142D01*
X165454952Y-135246761D01*
X165550190Y-135294380D01*
X165645428Y-135294380D01*
X165740666Y-135246761D01*
X165788285Y-135199142D01*
X165835904Y-135103904D01*
X165883523Y-134913428D01*
X165883523Y-134675333D01*
X165835904Y-134484857D01*
X165788285Y-134389619D01*
X165740666Y-134342000D01*
X165645428Y-134294380D01*
X181216857Y-135144380D02*
X181550190Y-134668190D01*
X181788285Y-135144380D02*
X181788285Y-134144380D01*
X181407333Y-134144380D01*
X181312095Y-134192000D01*
X181264476Y-134239619D01*
X181216857Y-134334857D01*
X181216857Y-134477714D01*
X181264476Y-134572952D01*
X181312095Y-134620571D01*
X181407333Y-134668190D01*
X181788285Y-134668190D01*
X180835904Y-134239619D02*
X180788285Y-134192000D01*
X180693047Y-134144380D01*
X180454952Y-134144380D01*
X180359714Y-134192000D01*
X180312095Y-134239619D01*
X180264476Y-134334857D01*
X180264476Y-134430095D01*
X180312095Y-134572952D01*
X180883523Y-135144380D01*
X180264476Y-135144380D01*
X179312095Y-135144380D02*
X179883523Y-135144380D01*
X179597809Y-135144380D02*
X179597809Y-134144380D01*
X179693047Y-134287238D01*
X179788285Y-134382476D01*
X179883523Y-134430095D01*
X195216857Y-135144380D02*
X195550190Y-134668190D01*
X195788285Y-135144380D02*
X195788285Y-134144380D01*
X195407333Y-134144380D01*
X195312095Y-134192000D01*
X195264476Y-134239619D01*
X195216857Y-134334857D01*
X195216857Y-134477714D01*
X195264476Y-134572952D01*
X195312095Y-134620571D01*
X195407333Y-134668190D01*
X195788285Y-134668190D01*
X194835904Y-134239619D02*
X194788285Y-134192000D01*
X194693047Y-134144380D01*
X194454952Y-134144380D01*
X194359714Y-134192000D01*
X194312095Y-134239619D01*
X194264476Y-134334857D01*
X194264476Y-134430095D01*
X194312095Y-134572952D01*
X194883523Y-135144380D01*
X194264476Y-135144380D01*
X193883523Y-134239619D02*
X193835904Y-134192000D01*
X193740666Y-134144380D01*
X193502571Y-134144380D01*
X193407333Y-134192000D01*
X193359714Y-134239619D01*
X193312095Y-134334857D01*
X193312095Y-134430095D01*
X193359714Y-134572952D01*
X193931142Y-135144380D01*
X193312095Y-135144380D01*
X170990666Y-101549142D02*
X171038285Y-101596761D01*
X171181142Y-101644380D01*
X171276380Y-101644380D01*
X171419238Y-101596761D01*
X171514476Y-101501523D01*
X171562095Y-101406285D01*
X171609714Y-101215809D01*
X171609714Y-101072952D01*
X171562095Y-100882476D01*
X171514476Y-100787238D01*
X171419238Y-100692000D01*
X171276380Y-100644380D01*
X171181142Y-100644380D01*
X171038285Y-100692000D01*
X170990666Y-100739619D01*
X170657333Y-100644380D02*
X169990666Y-100644380D01*
X170419238Y-101644380D01*
X139689095Y-129239380D02*
X139689095Y-128239380D01*
X139451000Y-128239380D01*
X139308142Y-128287000D01*
X139212904Y-128382238D01*
X139165285Y-128477476D01*
X139117666Y-128667952D01*
X139117666Y-128810809D01*
X139165285Y-129001285D01*
X139212904Y-129096523D01*
X139308142Y-129191761D01*
X139451000Y-129239380D01*
X139689095Y-129239380D01*
X138736714Y-128334619D02*
X138689095Y-128287000D01*
X138593857Y-128239380D01*
X138355761Y-128239380D01*
X138260523Y-128287000D01*
X138212904Y-128334619D01*
X138165285Y-128429857D01*
X138165285Y-128525095D01*
X138212904Y-128667952D01*
X138784333Y-129239380D01*
X138165285Y-129239380D01*
X153439095Y-129489380D02*
X153439095Y-128489380D01*
X153201000Y-128489380D01*
X153058142Y-128537000D01*
X152962904Y-128632238D01*
X152915285Y-128727476D01*
X152867666Y-128917952D01*
X152867666Y-129060809D01*
X152915285Y-129251285D01*
X152962904Y-129346523D01*
X153058142Y-129441761D01*
X153201000Y-129489380D01*
X153439095Y-129489380D01*
X152010523Y-128822714D02*
X152010523Y-129489380D01*
X152248619Y-128441761D02*
X152486714Y-129156047D01*
X151867666Y-129156047D01*
X168439095Y-129489380D02*
X168439095Y-128489380D01*
X168201000Y-128489380D01*
X168058142Y-128537000D01*
X167962904Y-128632238D01*
X167915285Y-128727476D01*
X167867666Y-128917952D01*
X167867666Y-129060809D01*
X167915285Y-129251285D01*
X167962904Y-129346523D01*
X168058142Y-129441761D01*
X168201000Y-129489380D01*
X168439095Y-129489380D01*
X167010523Y-128489380D02*
X167201000Y-128489380D01*
X167296238Y-128537000D01*
X167343857Y-128584619D01*
X167439095Y-128727476D01*
X167486714Y-128917952D01*
X167486714Y-129298904D01*
X167439095Y-129394142D01*
X167391476Y-129441761D01*
X167296238Y-129489380D01*
X167105761Y-129489380D01*
X167010523Y-129441761D01*
X166962904Y-129394142D01*
X166915285Y-129298904D01*
X166915285Y-129060809D01*
X166962904Y-128965571D01*
X167010523Y-128917952D01*
X167105761Y-128870333D01*
X167296238Y-128870333D01*
X167391476Y-128917952D01*
X167439095Y-128965571D01*
X167486714Y-129060809D01*
X182439095Y-129489380D02*
X182439095Y-128489380D01*
X182201000Y-128489380D01*
X182058142Y-128537000D01*
X181962904Y-128632238D01*
X181915285Y-128727476D01*
X181867666Y-128917952D01*
X181867666Y-129060809D01*
X181915285Y-129251285D01*
X181962904Y-129346523D01*
X182058142Y-129441761D01*
X182201000Y-129489380D01*
X182439095Y-129489380D01*
X181296238Y-128917952D02*
X181391476Y-128870333D01*
X181439095Y-128822714D01*
X181486714Y-128727476D01*
X181486714Y-128679857D01*
X181439095Y-128584619D01*
X181391476Y-128537000D01*
X181296238Y-128489380D01*
X181105761Y-128489380D01*
X181010523Y-128537000D01*
X180962904Y-128584619D01*
X180915285Y-128679857D01*
X180915285Y-128727476D01*
X180962904Y-128822714D01*
X181010523Y-128870333D01*
X181105761Y-128917952D01*
X181296238Y-128917952D01*
X181391476Y-128965571D01*
X181439095Y-129013190D01*
X181486714Y-129108428D01*
X181486714Y-129298904D01*
X181439095Y-129394142D01*
X181391476Y-129441761D01*
X181296238Y-129489380D01*
X181105761Y-129489380D01*
X181010523Y-129441761D01*
X180962904Y-129394142D01*
X180915285Y-129298904D01*
X180915285Y-129108428D01*
X180962904Y-129013190D01*
X181010523Y-128965571D01*
X181105761Y-128917952D01*
X196915285Y-129489380D02*
X196915285Y-128489380D01*
X196677190Y-128489380D01*
X196534333Y-128537000D01*
X196439095Y-128632238D01*
X196391476Y-128727476D01*
X196343857Y-128917952D01*
X196343857Y-129060809D01*
X196391476Y-129251285D01*
X196439095Y-129346523D01*
X196534333Y-129441761D01*
X196677190Y-129489380D01*
X196915285Y-129489380D01*
X195391476Y-129489380D02*
X195962904Y-129489380D01*
X195677190Y-129489380D02*
X195677190Y-128489380D01*
X195772428Y-128632238D01*
X195867666Y-128727476D01*
X195962904Y-128775095D01*
X194772428Y-128489380D02*
X194677190Y-128489380D01*
X194581952Y-128537000D01*
X194534333Y-128584619D01*
X194486714Y-128679857D01*
X194439095Y-128870333D01*
X194439095Y-129108428D01*
X194486714Y-129298904D01*
X194534333Y-129394142D01*
X194581952Y-129441761D01*
X194677190Y-129489380D01*
X194772428Y-129489380D01*
X194867666Y-129441761D01*
X194915285Y-129394142D01*
X194962904Y-129298904D01*
X195010523Y-129108428D01*
X195010523Y-128870333D01*
X194962904Y-128679857D01*
X194915285Y-128584619D01*
X194867666Y-128537000D01*
X194772428Y-128489380D01*
M02*
