G04 #@! TF.GenerationSoftware,KiCad,Pcbnew,(5.0.0-rc2-dev-340-g7483a73a5)*
G04 #@! TF.CreationDate,2018-04-20T20:04:13+02:00*
G04 #@! TF.ProjectId,PWRCTRLBRD,5057524354524C4252442E6B69636164,rev?*
G04 #@! TF.SameCoordinates,Original*
G04 #@! TF.FileFunction,Legend,Top*
G04 #@! TF.FilePolarity,Positive*
%FSLAX46Y46*%
G04 Gerber Fmt 4.6, Leading zero omitted, Abs format (unit mm)*
G04 Created by KiCad (PCBNEW (5.0.0-rc2-dev-340-g7483a73a5)) date 04/20/18 20:04:13*
%MOMM*%
%LPD*%
G01*
G04 APERTURE LIST*
%ADD10C,0.300000*%
%ADD11C,0.200000*%
%ADD12C,0.010000*%
%ADD13C,0.120000*%
%ADD14C,0.150000*%
G04 APERTURE END LIST*
D10*
X147466857Y-88334857D02*
X147966857Y-88334857D01*
X148181142Y-89120571D02*
X147466857Y-89120571D01*
X147466857Y-87620571D01*
X148181142Y-87620571D01*
X148681142Y-87620571D02*
X149681142Y-89120571D01*
X149681142Y-87620571D02*
X148681142Y-89120571D01*
X150038285Y-87620571D02*
X150895428Y-87620571D01*
X150466857Y-89120571D02*
X150466857Y-87620571D01*
X138038285Y-89049142D02*
X138252571Y-89120571D01*
X138609714Y-89120571D01*
X138752571Y-89049142D01*
X138824000Y-88977714D01*
X138895428Y-88834857D01*
X138895428Y-88692000D01*
X138824000Y-88549142D01*
X138752571Y-88477714D01*
X138609714Y-88406285D01*
X138324000Y-88334857D01*
X138181142Y-88263428D01*
X138109714Y-88192000D01*
X138038285Y-88049142D01*
X138038285Y-87906285D01*
X138109714Y-87763428D01*
X138181142Y-87692000D01*
X138324000Y-87620571D01*
X138681142Y-87620571D01*
X138895428Y-87692000D01*
X139395428Y-87620571D02*
X139752571Y-89120571D01*
X140038285Y-88049142D01*
X140324000Y-89120571D01*
X140681142Y-87620571D01*
X147466857Y-137906285D02*
X147466857Y-137406285D01*
X148252571Y-137192000D02*
X148252571Y-137906285D01*
X146752571Y-137906285D01*
X146752571Y-137192000D01*
X146752571Y-136692000D02*
X148252571Y-135692000D01*
X146752571Y-135692000D02*
X148252571Y-136692000D01*
X146752571Y-135334857D02*
X146752571Y-134477714D01*
X148252571Y-134906285D02*
X146752571Y-134906285D01*
X146681142Y-132906285D02*
X148609714Y-134192000D01*
X148181142Y-132477714D02*
X148252571Y-132263428D01*
X148252571Y-131906285D01*
X148181142Y-131763428D01*
X148109714Y-131692000D01*
X147966857Y-131620571D01*
X147824000Y-131620571D01*
X147681142Y-131692000D01*
X147609714Y-131763428D01*
X147538285Y-131906285D01*
X147466857Y-132192000D01*
X147395428Y-132334857D01*
X147324000Y-132406285D01*
X147181142Y-132477714D01*
X147038285Y-132477714D01*
X146895428Y-132406285D01*
X146824000Y-132334857D01*
X146752571Y-132192000D01*
X146752571Y-131834857D01*
X146824000Y-131620571D01*
X146752571Y-131120571D02*
X148252571Y-130763428D01*
X147181142Y-130477714D01*
X148252571Y-130192000D01*
X146752571Y-129834857D01*
X205466857Y-137906285D02*
X205466857Y-137406285D01*
X206252571Y-137192000D02*
X206252571Y-137906285D01*
X204752571Y-137906285D01*
X204752571Y-137192000D01*
X204752571Y-136692000D02*
X206252571Y-135692000D01*
X204752571Y-135692000D02*
X206252571Y-136692000D01*
X204752571Y-135334857D02*
X204752571Y-134477714D01*
X206252571Y-134906285D02*
X204752571Y-134906285D01*
X204681142Y-132906285D02*
X206609714Y-134192000D01*
X206181142Y-132477714D02*
X206252571Y-132263428D01*
X206252571Y-131906285D01*
X206181142Y-131763428D01*
X206109714Y-131692000D01*
X205966857Y-131620571D01*
X205824000Y-131620571D01*
X205681142Y-131692000D01*
X205609714Y-131763428D01*
X205538285Y-131906285D01*
X205466857Y-132192000D01*
X205395428Y-132334857D01*
X205324000Y-132406285D01*
X205181142Y-132477714D01*
X205038285Y-132477714D01*
X204895428Y-132406285D01*
X204824000Y-132334857D01*
X204752571Y-132192000D01*
X204752571Y-131834857D01*
X204824000Y-131620571D01*
X204752571Y-131120571D02*
X206252571Y-130763428D01*
X205181142Y-130477714D01*
X206252571Y-130192000D01*
X204752571Y-129834857D01*
X190966857Y-137906285D02*
X190966857Y-137406285D01*
X191752571Y-137192000D02*
X191752571Y-137906285D01*
X190252571Y-137906285D01*
X190252571Y-137192000D01*
X190252571Y-136692000D02*
X191752571Y-135692000D01*
X190252571Y-135692000D02*
X191752571Y-136692000D01*
X190252571Y-135334857D02*
X190252571Y-134477714D01*
X191752571Y-134906285D02*
X190252571Y-134906285D01*
X190181142Y-132906285D02*
X192109714Y-134192000D01*
X191681142Y-132477714D02*
X191752571Y-132263428D01*
X191752571Y-131906285D01*
X191681142Y-131763428D01*
X191609714Y-131692000D01*
X191466857Y-131620571D01*
X191324000Y-131620571D01*
X191181142Y-131692000D01*
X191109714Y-131763428D01*
X191038285Y-131906285D01*
X190966857Y-132192000D01*
X190895428Y-132334857D01*
X190824000Y-132406285D01*
X190681142Y-132477714D01*
X190538285Y-132477714D01*
X190395428Y-132406285D01*
X190324000Y-132334857D01*
X190252571Y-132192000D01*
X190252571Y-131834857D01*
X190324000Y-131620571D01*
X190252571Y-131120571D02*
X191752571Y-130763428D01*
X190681142Y-130477714D01*
X191752571Y-130192000D01*
X190252571Y-129834857D01*
X176716857Y-137906285D02*
X176716857Y-137406285D01*
X177502571Y-137192000D02*
X177502571Y-137906285D01*
X176002571Y-137906285D01*
X176002571Y-137192000D01*
X176002571Y-136692000D02*
X177502571Y-135692000D01*
X176002571Y-135692000D02*
X177502571Y-136692000D01*
X176002571Y-135334857D02*
X176002571Y-134477714D01*
X177502571Y-134906285D02*
X176002571Y-134906285D01*
X175931142Y-132906285D02*
X177859714Y-134192000D01*
X177431142Y-132477714D02*
X177502571Y-132263428D01*
X177502571Y-131906285D01*
X177431142Y-131763428D01*
X177359714Y-131692000D01*
X177216857Y-131620571D01*
X177074000Y-131620571D01*
X176931142Y-131692000D01*
X176859714Y-131763428D01*
X176788285Y-131906285D01*
X176716857Y-132192000D01*
X176645428Y-132334857D01*
X176574000Y-132406285D01*
X176431142Y-132477714D01*
X176288285Y-132477714D01*
X176145428Y-132406285D01*
X176074000Y-132334857D01*
X176002571Y-132192000D01*
X176002571Y-131834857D01*
X176074000Y-131620571D01*
X176002571Y-131120571D02*
X177502571Y-130763428D01*
X176431142Y-130477714D01*
X177502571Y-130192000D01*
X176002571Y-129834857D01*
X161716857Y-137906285D02*
X161716857Y-137406285D01*
X162502571Y-137192000D02*
X162502571Y-137906285D01*
X161002571Y-137906285D01*
X161002571Y-137192000D01*
X161002571Y-136692000D02*
X162502571Y-135692000D01*
X161002571Y-135692000D02*
X162502571Y-136692000D01*
X161002571Y-135334857D02*
X161002571Y-134477714D01*
X162502571Y-134906285D02*
X161002571Y-134906285D01*
X160931142Y-132906285D02*
X162859714Y-134192000D01*
X162431142Y-132477714D02*
X162502571Y-132263428D01*
X162502571Y-131906285D01*
X162431142Y-131763428D01*
X162359714Y-131692000D01*
X162216857Y-131620571D01*
X162074000Y-131620571D01*
X161931142Y-131692000D01*
X161859714Y-131763428D01*
X161788285Y-131906285D01*
X161716857Y-132192000D01*
X161645428Y-132334857D01*
X161574000Y-132406285D01*
X161431142Y-132477714D01*
X161288285Y-132477714D01*
X161145428Y-132406285D01*
X161074000Y-132334857D01*
X161002571Y-132192000D01*
X161002571Y-131834857D01*
X161074000Y-131620571D01*
X161002571Y-131120571D02*
X162502571Y-130763428D01*
X161431142Y-130477714D01*
X162502571Y-130192000D01*
X161002571Y-129834857D01*
X201645428Y-153870571D02*
X200931142Y-153870571D01*
X200931142Y-152370571D01*
X202431142Y-152370571D02*
X202716857Y-152370571D01*
X202859714Y-152442000D01*
X203002571Y-152584857D01*
X203074000Y-152870571D01*
X203074000Y-153370571D01*
X203002571Y-153656285D01*
X202859714Y-153799142D01*
X202716857Y-153870571D01*
X202431142Y-153870571D01*
X202288285Y-153799142D01*
X202145428Y-153656285D01*
X202074000Y-153370571D01*
X202074000Y-152870571D01*
X202145428Y-152584857D01*
X202288285Y-152442000D01*
X202431142Y-152370571D01*
X203645428Y-153442000D02*
X204359714Y-153442000D01*
X203502571Y-153870571D02*
X204002571Y-152370571D01*
X204502571Y-153870571D01*
X205002571Y-153870571D02*
X205002571Y-152370571D01*
X205359714Y-152370571D01*
X205574000Y-152442000D01*
X205716857Y-152584857D01*
X205788285Y-152727714D01*
X205859714Y-153013428D01*
X205859714Y-153227714D01*
X205788285Y-153513428D01*
X205716857Y-153656285D01*
X205574000Y-153799142D01*
X205359714Y-153870571D01*
X205002571Y-153870571D01*
X207145428Y-152870571D02*
X207145428Y-153870571D01*
X206788285Y-152299142D02*
X206431142Y-153370571D01*
X207359714Y-153370571D01*
X186895428Y-153870571D02*
X186181142Y-153870571D01*
X186181142Y-152370571D01*
X187681142Y-152370571D02*
X187966857Y-152370571D01*
X188109714Y-152442000D01*
X188252571Y-152584857D01*
X188324000Y-152870571D01*
X188324000Y-153370571D01*
X188252571Y-153656285D01*
X188109714Y-153799142D01*
X187966857Y-153870571D01*
X187681142Y-153870571D01*
X187538285Y-153799142D01*
X187395428Y-153656285D01*
X187324000Y-153370571D01*
X187324000Y-152870571D01*
X187395428Y-152584857D01*
X187538285Y-152442000D01*
X187681142Y-152370571D01*
X188895428Y-153442000D02*
X189609714Y-153442000D01*
X188752571Y-153870571D02*
X189252571Y-152370571D01*
X189752571Y-153870571D01*
X190252571Y-153870571D02*
X190252571Y-152370571D01*
X190609714Y-152370571D01*
X190824000Y-152442000D01*
X190966857Y-152584857D01*
X191038285Y-152727714D01*
X191109714Y-153013428D01*
X191109714Y-153227714D01*
X191038285Y-153513428D01*
X190966857Y-153656285D01*
X190824000Y-153799142D01*
X190609714Y-153870571D01*
X190252571Y-153870571D01*
X191609714Y-152370571D02*
X192538285Y-152370571D01*
X192038285Y-152942000D01*
X192252571Y-152942000D01*
X192395428Y-153013428D01*
X192466857Y-153084857D01*
X192538285Y-153227714D01*
X192538285Y-153584857D01*
X192466857Y-153727714D01*
X192395428Y-153799142D01*
X192252571Y-153870571D01*
X191824000Y-153870571D01*
X191681142Y-153799142D01*
X191609714Y-153727714D01*
X172395428Y-153870571D02*
X171681142Y-153870571D01*
X171681142Y-152370571D01*
X173181142Y-152370571D02*
X173466857Y-152370571D01*
X173609714Y-152442000D01*
X173752571Y-152584857D01*
X173824000Y-152870571D01*
X173824000Y-153370571D01*
X173752571Y-153656285D01*
X173609714Y-153799142D01*
X173466857Y-153870571D01*
X173181142Y-153870571D01*
X173038285Y-153799142D01*
X172895428Y-153656285D01*
X172824000Y-153370571D01*
X172824000Y-152870571D01*
X172895428Y-152584857D01*
X173038285Y-152442000D01*
X173181142Y-152370571D01*
X174395428Y-153442000D02*
X175109714Y-153442000D01*
X174252571Y-153870571D02*
X174752571Y-152370571D01*
X175252571Y-153870571D01*
X175752571Y-153870571D02*
X175752571Y-152370571D01*
X176109714Y-152370571D01*
X176324000Y-152442000D01*
X176466857Y-152584857D01*
X176538285Y-152727714D01*
X176609714Y-153013428D01*
X176609714Y-153227714D01*
X176538285Y-153513428D01*
X176466857Y-153656285D01*
X176324000Y-153799142D01*
X176109714Y-153870571D01*
X175752571Y-153870571D01*
X177181142Y-152513428D02*
X177252571Y-152442000D01*
X177395428Y-152370571D01*
X177752571Y-152370571D01*
X177895428Y-152442000D01*
X177966857Y-152513428D01*
X178038285Y-152656285D01*
X178038285Y-152799142D01*
X177966857Y-153013428D01*
X177109714Y-153870571D01*
X178038285Y-153870571D01*
X157895428Y-153870571D02*
X157181142Y-153870571D01*
X157181142Y-152370571D01*
X158681142Y-152370571D02*
X158966857Y-152370571D01*
X159109714Y-152442000D01*
X159252571Y-152584857D01*
X159324000Y-152870571D01*
X159324000Y-153370571D01*
X159252571Y-153656285D01*
X159109714Y-153799142D01*
X158966857Y-153870571D01*
X158681142Y-153870571D01*
X158538285Y-153799142D01*
X158395428Y-153656285D01*
X158324000Y-153370571D01*
X158324000Y-152870571D01*
X158395428Y-152584857D01*
X158538285Y-152442000D01*
X158681142Y-152370571D01*
X159895428Y-153442000D02*
X160609714Y-153442000D01*
X159752571Y-153870571D02*
X160252571Y-152370571D01*
X160752571Y-153870571D01*
X161252571Y-153870571D02*
X161252571Y-152370571D01*
X161609714Y-152370571D01*
X161824000Y-152442000D01*
X161966857Y-152584857D01*
X162038285Y-152727714D01*
X162109714Y-153013428D01*
X162109714Y-153227714D01*
X162038285Y-153513428D01*
X161966857Y-153656285D01*
X161824000Y-153799142D01*
X161609714Y-153870571D01*
X161252571Y-153870571D01*
X163538285Y-153870571D02*
X162681142Y-153870571D01*
X163109714Y-153870571D02*
X163109714Y-152370571D01*
X162966857Y-152584857D01*
X162824000Y-152727714D01*
X162681142Y-152799142D01*
X143395428Y-153870571D02*
X142681142Y-153870571D01*
X142681142Y-152370571D01*
X144181142Y-152370571D02*
X144466857Y-152370571D01*
X144609714Y-152442000D01*
X144752571Y-152584857D01*
X144824000Y-152870571D01*
X144824000Y-153370571D01*
X144752571Y-153656285D01*
X144609714Y-153799142D01*
X144466857Y-153870571D01*
X144181142Y-153870571D01*
X144038285Y-153799142D01*
X143895428Y-153656285D01*
X143824000Y-153370571D01*
X143824000Y-152870571D01*
X143895428Y-152584857D01*
X144038285Y-152442000D01*
X144181142Y-152370571D01*
X145395428Y-153442000D02*
X146109714Y-153442000D01*
X145252571Y-153870571D02*
X145752571Y-152370571D01*
X146252571Y-153870571D01*
X146752571Y-153870571D02*
X146752571Y-152370571D01*
X147109714Y-152370571D01*
X147324000Y-152442000D01*
X147466857Y-152584857D01*
X147538285Y-152727714D01*
X147609714Y-153013428D01*
X147609714Y-153227714D01*
X147538285Y-153513428D01*
X147466857Y-153656285D01*
X147324000Y-153799142D01*
X147109714Y-153870571D01*
X146752571Y-153870571D01*
X148538285Y-152370571D02*
X148681142Y-152370571D01*
X148824000Y-152442000D01*
X148895428Y-152513428D01*
X148966857Y-152656285D01*
X149038285Y-152942000D01*
X149038285Y-153299142D01*
X148966857Y-153584857D01*
X148895428Y-153727714D01*
X148824000Y-153799142D01*
X148681142Y-153870571D01*
X148538285Y-153870571D01*
X148395428Y-153799142D01*
X148324000Y-153727714D01*
X148252571Y-153584857D01*
X148181142Y-153299142D01*
X148181142Y-152942000D01*
X148252571Y-152656285D01*
X148324000Y-152513428D01*
X148395428Y-152442000D01*
X148538285Y-152370571D01*
D11*
X174574000Y-90692000D02*
X174574000Y-75692000D01*
X202074000Y-90692000D02*
X174574000Y-90692000D01*
X202074000Y-75692000D02*
X202074000Y-90692000D01*
D10*
X167824000Y-90763428D02*
X167824000Y-90049142D01*
X168252571Y-90906285D02*
X166752571Y-90406285D01*
X168252571Y-89906285D01*
X166895428Y-89477714D02*
X166824000Y-89406285D01*
X166752571Y-89263428D01*
X166752571Y-88906285D01*
X166824000Y-88763428D01*
X166895428Y-88692000D01*
X167038285Y-88620571D01*
X167181142Y-88620571D01*
X167395428Y-88692000D01*
X168252571Y-89549142D01*
X168252571Y-88620571D01*
X165324000Y-90763428D02*
X165324000Y-90049142D01*
X165752571Y-90906285D02*
X164252571Y-90406285D01*
X165752571Y-89906285D01*
X165752571Y-88620571D02*
X165752571Y-89477714D01*
X165752571Y-89049142D02*
X164252571Y-89049142D01*
X164466857Y-89192000D01*
X164609714Y-89334857D01*
X164681142Y-89477714D01*
X162824000Y-90763428D02*
X162824000Y-90049142D01*
X163252571Y-90906285D02*
X161752571Y-90406285D01*
X163252571Y-89906285D01*
X161752571Y-89120571D02*
X161752571Y-88977714D01*
X161824000Y-88834857D01*
X161895428Y-88763428D01*
X162038285Y-88692000D01*
X162324000Y-88620571D01*
X162681142Y-88620571D01*
X162966857Y-88692000D01*
X163109714Y-88763428D01*
X163181142Y-88834857D01*
X163252571Y-88977714D01*
X163252571Y-89120571D01*
X163181142Y-89263428D01*
X163109714Y-89334857D01*
X162966857Y-89406285D01*
X162681142Y-89477714D01*
X162324000Y-89477714D01*
X162038285Y-89406285D01*
X161895428Y-89334857D01*
X161824000Y-89263428D01*
X161752571Y-89120571D01*
X182919238Y-92870571D02*
X184824000Y-92870571D01*
X183871619Y-93822952D02*
X183871619Y-91918190D01*
X187324000Y-93822952D02*
X185895428Y-93822952D01*
X186609714Y-93822952D02*
X186609714Y-91322952D01*
X186371619Y-91680095D01*
X186133523Y-91918190D01*
X185895428Y-92037238D01*
X188276380Y-91561047D02*
X188395428Y-91442000D01*
X188633523Y-91322952D01*
X189228761Y-91322952D01*
X189466857Y-91442000D01*
X189585904Y-91561047D01*
X189704952Y-91799142D01*
X189704952Y-92037238D01*
X189585904Y-92394380D01*
X188157333Y-93822952D01*
X189704952Y-93822952D01*
X190419238Y-91322952D02*
X191252571Y-93822952D01*
X192085904Y-91322952D01*
X117681142Y-125692000D02*
X117538285Y-125620571D01*
X117324000Y-125620571D01*
X117109714Y-125692000D01*
X116966857Y-125834857D01*
X116895428Y-125977714D01*
X116824000Y-126263428D01*
X116824000Y-126477714D01*
X116895428Y-126763428D01*
X116966857Y-126906285D01*
X117109714Y-127049142D01*
X117324000Y-127120571D01*
X117466857Y-127120571D01*
X117681142Y-127049142D01*
X117752571Y-126977714D01*
X117752571Y-126477714D01*
X117466857Y-126477714D01*
X118395428Y-127120571D02*
X118395428Y-125620571D01*
X119252571Y-127120571D01*
X119252571Y-125620571D01*
X119966857Y-127120571D02*
X119966857Y-125620571D01*
X120324000Y-125620571D01*
X120538285Y-125692000D01*
X120681142Y-125834857D01*
X120752571Y-125977714D01*
X120824000Y-126263428D01*
X120824000Y-126477714D01*
X120752571Y-126763428D01*
X120681142Y-126906285D01*
X120538285Y-127049142D01*
X120324000Y-127120571D01*
X119966857Y-127120571D01*
D12*
G36*
X181417164Y-117873446D02*
X181057496Y-117888021D01*
X180697828Y-117902597D01*
X180697828Y-119271046D01*
X181003856Y-119356129D01*
X181252255Y-119448583D01*
X181446309Y-119580763D01*
X181499950Y-119631278D01*
X181690015Y-119821343D01*
X181690015Y-120535477D01*
X181684546Y-120889975D01*
X181660196Y-121157621D01*
X181605047Y-121350538D01*
X181507185Y-121480849D01*
X181354694Y-121560676D01*
X181135658Y-121602141D01*
X180838160Y-121617368D01*
X180625007Y-121618954D01*
X180052906Y-121618954D01*
X180052906Y-121420516D01*
X180697828Y-121420516D01*
X180984446Y-121420516D01*
X181202666Y-121403916D01*
X181357493Y-121357601D01*
X181381321Y-121343289D01*
X181426654Y-121305796D01*
X181457511Y-121256262D01*
X181476662Y-121176697D01*
X181486876Y-121049110D01*
X181490921Y-120855512D01*
X181491578Y-120626993D01*
X181491578Y-119987924D01*
X181255933Y-119954383D01*
X181023920Y-119885877D01*
X180859058Y-119767979D01*
X180697828Y-119615115D01*
X180697828Y-121420516D01*
X180052906Y-121420516D01*
X180052906Y-117302938D01*
X181446920Y-117302938D01*
X181417164Y-117873446D01*
X181417164Y-117873446D01*
G37*
X181417164Y-117873446D02*
X181057496Y-117888021D01*
X180697828Y-117902597D01*
X180697828Y-119271046D01*
X181003856Y-119356129D01*
X181252255Y-119448583D01*
X181446309Y-119580763D01*
X181499950Y-119631278D01*
X181690015Y-119821343D01*
X181690015Y-120535477D01*
X181684546Y-120889975D01*
X181660196Y-121157621D01*
X181605047Y-121350538D01*
X181507185Y-121480849D01*
X181354694Y-121560676D01*
X181135658Y-121602141D01*
X180838160Y-121617368D01*
X180625007Y-121618954D01*
X180052906Y-121618954D01*
X180052906Y-121420516D01*
X180697828Y-121420516D01*
X180984446Y-121420516D01*
X181202666Y-121403916D01*
X181357493Y-121357601D01*
X181381321Y-121343289D01*
X181426654Y-121305796D01*
X181457511Y-121256262D01*
X181476662Y-121176697D01*
X181486876Y-121049110D01*
X181490921Y-120855512D01*
X181491578Y-120626993D01*
X181491578Y-119987924D01*
X181255933Y-119954383D01*
X181023920Y-119885877D01*
X180859058Y-119767979D01*
X180697828Y-119615115D01*
X180697828Y-121420516D01*
X180052906Y-121420516D01*
X180052906Y-117302938D01*
X181446920Y-117302938D01*
X181417164Y-117873446D01*
G36*
X196523219Y-119340184D02*
X196521989Y-119828405D01*
X196518429Y-120264005D01*
X196512728Y-120638934D01*
X196505078Y-120945146D01*
X196495670Y-121174592D01*
X196484696Y-121319225D01*
X196475056Y-121368202D01*
X196369927Y-121471426D01*
X196195075Y-121549512D01*
X195977844Y-121597893D01*
X195745574Y-121612000D01*
X195525608Y-121587265D01*
X195400970Y-121547669D01*
X195323749Y-121513506D01*
X195260234Y-121478323D01*
X195209089Y-121432720D01*
X195168972Y-121367296D01*
X195138547Y-121272652D01*
X195116474Y-121139387D01*
X195101415Y-120958103D01*
X195092031Y-120719398D01*
X195086982Y-120413873D01*
X195084931Y-120032128D01*
X195084539Y-119564763D01*
X195084547Y-119325884D01*
X195084547Y-118047079D01*
X195729469Y-118047079D01*
X195729469Y-121420516D01*
X195899872Y-121420516D01*
X196060110Y-121405893D01*
X196197528Y-121372134D01*
X196324781Y-121323753D01*
X196324781Y-118047079D01*
X195729469Y-118047079D01*
X195084547Y-118047079D01*
X195084547Y-117402157D01*
X196523219Y-117402157D01*
X196523219Y-119340184D01*
X196523219Y-119340184D01*
G37*
X196523219Y-119340184D02*
X196521989Y-119828405D01*
X196518429Y-120264005D01*
X196512728Y-120638934D01*
X196505078Y-120945146D01*
X196495670Y-121174592D01*
X196484696Y-121319225D01*
X196475056Y-121368202D01*
X196369927Y-121471426D01*
X196195075Y-121549512D01*
X195977844Y-121597893D01*
X195745574Y-121612000D01*
X195525608Y-121587265D01*
X195400970Y-121547669D01*
X195323749Y-121513506D01*
X195260234Y-121478323D01*
X195209089Y-121432720D01*
X195168972Y-121367296D01*
X195138547Y-121272652D01*
X195116474Y-121139387D01*
X195101415Y-120958103D01*
X195092031Y-120719398D01*
X195086982Y-120413873D01*
X195084931Y-120032128D01*
X195084539Y-119564763D01*
X195084547Y-119325884D01*
X195084547Y-118047079D01*
X195729469Y-118047079D01*
X195729469Y-121420516D01*
X195899872Y-121420516D01*
X196060110Y-121405893D01*
X196197528Y-121372134D01*
X196324781Y-121323753D01*
X196324781Y-118047079D01*
X195729469Y-118047079D01*
X195084547Y-118047079D01*
X195084547Y-117402157D01*
X196523219Y-117402157D01*
X196523219Y-119340184D01*
G36*
X187729957Y-115567287D02*
X188252237Y-115567916D01*
X188746869Y-115569481D01*
X189204577Y-115571890D01*
X189616085Y-115575046D01*
X189972114Y-115578855D01*
X190263390Y-115583223D01*
X190480635Y-115588054D01*
X190614573Y-115593255D01*
X190654118Y-115597148D01*
X190728906Y-115644483D01*
X190850693Y-115751303D01*
X191002252Y-115901465D01*
X191156897Y-116068195D01*
X191333072Y-116270331D01*
X191457030Y-116428702D01*
X191545598Y-116570793D01*
X191615608Y-116724091D01*
X191683889Y-116916080D01*
X191692990Y-116943706D01*
X191787299Y-117281227D01*
X191830154Y-117583101D01*
X191820931Y-117880009D01*
X191759007Y-118202631D01*
X191660737Y-118531233D01*
X191584753Y-118767753D01*
X191540383Y-118932510D01*
X191523922Y-119046460D01*
X191531665Y-119130561D01*
X191546688Y-119176155D01*
X191590303Y-119280932D01*
X191661086Y-119448626D01*
X191747085Y-119650974D01*
X191793034Y-119758602D01*
X191983961Y-120205086D01*
X191998089Y-122053036D01*
X192012217Y-123900985D01*
X189404273Y-123897367D01*
X189119019Y-123628477D01*
X188833765Y-123359588D01*
X188833765Y-119987924D01*
X188615060Y-119955127D01*
X188386915Y-119879457D01*
X188258513Y-119778454D01*
X188161995Y-119687299D01*
X188091543Y-119637639D01*
X188080343Y-119634579D01*
X188071850Y-119682499D01*
X188063965Y-119819510D01*
X188056880Y-120035481D01*
X188050786Y-120320285D01*
X188045875Y-120663793D01*
X188042338Y-121055877D01*
X188040367Y-121486407D01*
X188040015Y-121767782D01*
X188040015Y-123900985D01*
X186737769Y-123899915D01*
X185435523Y-123898844D01*
X184914625Y-123397854D01*
X184914625Y-115765047D01*
X185113062Y-115765047D01*
X185113062Y-123256063D01*
X187395094Y-123256063D01*
X187395094Y-117302938D01*
X188784156Y-117302938D01*
X188784156Y-117898250D01*
X188040015Y-117898250D01*
X188040015Y-119282817D01*
X188226051Y-119316634D01*
X188436650Y-119376465D01*
X188648854Y-119471983D01*
X188829980Y-119585694D01*
X188947342Y-119700103D01*
X188950067Y-119704170D01*
X188972305Y-119747466D01*
X188990193Y-119809228D01*
X189004188Y-119899747D01*
X189014753Y-120029318D01*
X189022345Y-120208232D01*
X189027426Y-120446782D01*
X189030455Y-120755260D01*
X189031891Y-121143960D01*
X189032203Y-121542794D01*
X189032203Y-123256063D01*
X191363844Y-123256063D01*
X191363844Y-121552306D01*
X191363719Y-121076492D01*
X191362153Y-120686882D01*
X191357361Y-120370461D01*
X191347557Y-120114214D01*
X191330955Y-119905127D01*
X191305768Y-119730186D01*
X191270211Y-119576375D01*
X191222497Y-119430680D01*
X191160841Y-119280086D01*
X191083457Y-119111580D01*
X191006795Y-118950451D01*
X190834451Y-118588785D01*
X190999919Y-118082287D01*
X191073669Y-117840994D01*
X191137412Y-117604061D01*
X191182311Y-117405779D01*
X191196550Y-117319440D01*
X191199146Y-117062320D01*
X191157001Y-116768806D01*
X191078777Y-116468248D01*
X190973136Y-116189997D01*
X190848741Y-115963404D01*
X190766473Y-115862208D01*
X190742742Y-115841387D01*
X190711294Y-115823773D01*
X190664204Y-115809098D01*
X190593548Y-115797093D01*
X190491404Y-115787491D01*
X190349847Y-115780025D01*
X190160953Y-115774426D01*
X189916799Y-115770427D01*
X189609462Y-115767759D01*
X189231017Y-115766156D01*
X188773541Y-115765350D01*
X188229110Y-115765072D01*
X187891187Y-115765047D01*
X185113062Y-115765047D01*
X184914625Y-115765047D01*
X184914625Y-115566610D01*
X187729957Y-115567287D01*
X187729957Y-115567287D01*
G37*
X187729957Y-115567287D02*
X188252237Y-115567916D01*
X188746869Y-115569481D01*
X189204577Y-115571890D01*
X189616085Y-115575046D01*
X189972114Y-115578855D01*
X190263390Y-115583223D01*
X190480635Y-115588054D01*
X190614573Y-115593255D01*
X190654118Y-115597148D01*
X190728906Y-115644483D01*
X190850693Y-115751303D01*
X191002252Y-115901465D01*
X191156897Y-116068195D01*
X191333072Y-116270331D01*
X191457030Y-116428702D01*
X191545598Y-116570793D01*
X191615608Y-116724091D01*
X191683889Y-116916080D01*
X191692990Y-116943706D01*
X191787299Y-117281227D01*
X191830154Y-117583101D01*
X191820931Y-117880009D01*
X191759007Y-118202631D01*
X191660737Y-118531233D01*
X191584753Y-118767753D01*
X191540383Y-118932510D01*
X191523922Y-119046460D01*
X191531665Y-119130561D01*
X191546688Y-119176155D01*
X191590303Y-119280932D01*
X191661086Y-119448626D01*
X191747085Y-119650974D01*
X191793034Y-119758602D01*
X191983961Y-120205086D01*
X191998089Y-122053036D01*
X192012217Y-123900985D01*
X189404273Y-123897367D01*
X189119019Y-123628477D01*
X188833765Y-123359588D01*
X188833765Y-119987924D01*
X188615060Y-119955127D01*
X188386915Y-119879457D01*
X188258513Y-119778454D01*
X188161995Y-119687299D01*
X188091543Y-119637639D01*
X188080343Y-119634579D01*
X188071850Y-119682499D01*
X188063965Y-119819510D01*
X188056880Y-120035481D01*
X188050786Y-120320285D01*
X188045875Y-120663793D01*
X188042338Y-121055877D01*
X188040367Y-121486407D01*
X188040015Y-121767782D01*
X188040015Y-123900985D01*
X186737769Y-123899915D01*
X185435523Y-123898844D01*
X184914625Y-123397854D01*
X184914625Y-115765047D01*
X185113062Y-115765047D01*
X185113062Y-123256063D01*
X187395094Y-123256063D01*
X187395094Y-117302938D01*
X188784156Y-117302938D01*
X188784156Y-117898250D01*
X188040015Y-117898250D01*
X188040015Y-119282817D01*
X188226051Y-119316634D01*
X188436650Y-119376465D01*
X188648854Y-119471983D01*
X188829980Y-119585694D01*
X188947342Y-119700103D01*
X188950067Y-119704170D01*
X188972305Y-119747466D01*
X188990193Y-119809228D01*
X189004188Y-119899747D01*
X189014753Y-120029318D01*
X189022345Y-120208232D01*
X189027426Y-120446782D01*
X189030455Y-120755260D01*
X189031891Y-121143960D01*
X189032203Y-121542794D01*
X189032203Y-123256063D01*
X191363844Y-123256063D01*
X191363844Y-121552306D01*
X191363719Y-121076492D01*
X191362153Y-120686882D01*
X191357361Y-120370461D01*
X191347557Y-120114214D01*
X191330955Y-119905127D01*
X191305768Y-119730186D01*
X191270211Y-119576375D01*
X191222497Y-119430680D01*
X191160841Y-119280086D01*
X191083457Y-119111580D01*
X191006795Y-118950451D01*
X190834451Y-118588785D01*
X190999919Y-118082287D01*
X191073669Y-117840994D01*
X191137412Y-117604061D01*
X191182311Y-117405779D01*
X191196550Y-117319440D01*
X191199146Y-117062320D01*
X191157001Y-116768806D01*
X191078777Y-116468248D01*
X190973136Y-116189997D01*
X190848741Y-115963404D01*
X190766473Y-115862208D01*
X190742742Y-115841387D01*
X190711294Y-115823773D01*
X190664204Y-115809098D01*
X190593548Y-115797093D01*
X190491404Y-115787491D01*
X190349847Y-115780025D01*
X190160953Y-115774426D01*
X189916799Y-115770427D01*
X189609462Y-115767759D01*
X189231017Y-115766156D01*
X188773541Y-115765350D01*
X188229110Y-115765072D01*
X187891187Y-115765047D01*
X185113062Y-115765047D01*
X184914625Y-115765047D01*
X184914625Y-115566610D01*
X187729957Y-115567287D01*
G36*
X182093774Y-115575994D02*
X182515720Y-115580230D01*
X182849022Y-115586659D01*
X183090710Y-115595247D01*
X183237814Y-115605955D01*
X183277515Y-115612790D01*
X183407089Y-115678276D01*
X183568145Y-115811893D01*
X183770133Y-116021607D01*
X183793850Y-116048083D01*
X183998473Y-116290576D01*
X184148034Y-116505902D01*
X184260119Y-116727421D01*
X184352314Y-116988494D01*
X184420768Y-117237272D01*
X184466479Y-117445765D01*
X184486507Y-117634839D01*
X184478359Y-117826948D01*
X184439545Y-118044542D01*
X184367570Y-118310077D01*
X184266620Y-118625959D01*
X184115378Y-119080816D01*
X184266583Y-119380352D01*
X184486852Y-119891201D01*
X184625419Y-120400175D01*
X184691051Y-120924422D01*
X184701780Y-121486874D01*
X184656592Y-121973158D01*
X184554541Y-122389704D01*
X184433683Y-122672573D01*
X184240617Y-122977767D01*
X183993809Y-123275856D01*
X183720606Y-123537376D01*
X183451148Y-123731234D01*
X183203101Y-123876180D01*
X180648219Y-123887864D01*
X178093336Y-123899547D01*
X177807779Y-123629286D01*
X177522222Y-123359024D01*
X177534927Y-119475219D01*
X177547064Y-115765047D01*
X177721265Y-115765047D01*
X177721265Y-123256063D01*
X180109162Y-123256063D01*
X180754579Y-123254991D01*
X181303246Y-123251739D01*
X181757608Y-123246254D01*
X182120112Y-123238482D01*
X182393202Y-123228370D01*
X182579324Y-123215865D01*
X182680925Y-123200913D01*
X182684804Y-123199813D01*
X182905488Y-123097200D01*
X183145357Y-122924401D01*
X183381542Y-122701096D01*
X183591174Y-122446965D01*
X183637210Y-122380232D01*
X183775446Y-122161702D01*
X183877634Y-121969057D01*
X183949107Y-121780426D01*
X183995201Y-121573937D01*
X184021250Y-121327720D01*
X184032588Y-121019903D01*
X184034634Y-120750789D01*
X184033698Y-120443126D01*
X184028481Y-120212073D01*
X184016487Y-120035038D01*
X183995218Y-119889429D01*
X183962177Y-119752654D01*
X183914867Y-119602119D01*
X183904168Y-119570417D01*
X183817882Y-119336088D01*
X183717003Y-119090855D01*
X183623120Y-118887154D01*
X183621655Y-118884246D01*
X183470444Y-118584697D01*
X183643464Y-118055439D01*
X183741999Y-117743598D01*
X183807748Y-117501322D01*
X183843419Y-117305520D01*
X183851719Y-117133103D01*
X183835355Y-116960982D01*
X183797035Y-116766068D01*
X183795466Y-116759148D01*
X183721425Y-116465542D01*
X183646395Y-116245286D01*
X183559872Y-116072968D01*
X183451354Y-115923176D01*
X183448575Y-115919864D01*
X183318305Y-115765047D01*
X177721265Y-115765047D01*
X177547064Y-115765047D01*
X177547633Y-115591414D01*
X180325758Y-115576812D01*
X180995824Y-115574249D01*
X181586152Y-115573989D01*
X182093774Y-115575994D01*
X182093774Y-115575994D01*
G37*
X182093774Y-115575994D02*
X182515720Y-115580230D01*
X182849022Y-115586659D01*
X183090710Y-115595247D01*
X183237814Y-115605955D01*
X183277515Y-115612790D01*
X183407089Y-115678276D01*
X183568145Y-115811893D01*
X183770133Y-116021607D01*
X183793850Y-116048083D01*
X183998473Y-116290576D01*
X184148034Y-116505902D01*
X184260119Y-116727421D01*
X184352314Y-116988494D01*
X184420768Y-117237272D01*
X184466479Y-117445765D01*
X184486507Y-117634839D01*
X184478359Y-117826948D01*
X184439545Y-118044542D01*
X184367570Y-118310077D01*
X184266620Y-118625959D01*
X184115378Y-119080816D01*
X184266583Y-119380352D01*
X184486852Y-119891201D01*
X184625419Y-120400175D01*
X184691051Y-120924422D01*
X184701780Y-121486874D01*
X184656592Y-121973158D01*
X184554541Y-122389704D01*
X184433683Y-122672573D01*
X184240617Y-122977767D01*
X183993809Y-123275856D01*
X183720606Y-123537376D01*
X183451148Y-123731234D01*
X183203101Y-123876180D01*
X180648219Y-123887864D01*
X178093336Y-123899547D01*
X177807779Y-123629286D01*
X177522222Y-123359024D01*
X177534927Y-119475219D01*
X177547064Y-115765047D01*
X177721265Y-115765047D01*
X177721265Y-123256063D01*
X180109162Y-123256063D01*
X180754579Y-123254991D01*
X181303246Y-123251739D01*
X181757608Y-123246254D01*
X182120112Y-123238482D01*
X182393202Y-123228370D01*
X182579324Y-123215865D01*
X182680925Y-123200913D01*
X182684804Y-123199813D01*
X182905488Y-123097200D01*
X183145357Y-122924401D01*
X183381542Y-122701096D01*
X183591174Y-122446965D01*
X183637210Y-122380232D01*
X183775446Y-122161702D01*
X183877634Y-121969057D01*
X183949107Y-121780426D01*
X183995201Y-121573937D01*
X184021250Y-121327720D01*
X184032588Y-121019903D01*
X184034634Y-120750789D01*
X184033698Y-120443126D01*
X184028481Y-120212073D01*
X184016487Y-120035038D01*
X183995218Y-119889429D01*
X183962177Y-119752654D01*
X183914867Y-119602119D01*
X183904168Y-119570417D01*
X183817882Y-119336088D01*
X183717003Y-119090855D01*
X183623120Y-118887154D01*
X183621655Y-118884246D01*
X183470444Y-118584697D01*
X183643464Y-118055439D01*
X183741999Y-117743598D01*
X183807748Y-117501322D01*
X183843419Y-117305520D01*
X183851719Y-117133103D01*
X183835355Y-116960982D01*
X183797035Y-116766068D01*
X183795466Y-116759148D01*
X183721425Y-116465542D01*
X183646395Y-116245286D01*
X183559872Y-116072968D01*
X183451354Y-115923176D01*
X183448575Y-115919864D01*
X183318305Y-115765047D01*
X177721265Y-115765047D01*
X177547064Y-115765047D01*
X177547633Y-115591414D01*
X180325758Y-115576812D01*
X180995824Y-115574249D01*
X181586152Y-115573989D01*
X182093774Y-115575994D01*
G36*
X177028918Y-116163359D02*
X177015424Y-117092817D01*
X177001929Y-118022274D01*
X176440628Y-118047079D01*
X175879327Y-118071883D01*
X176199032Y-118426586D01*
X176358199Y-118617184D01*
X176505626Y-118818088D01*
X176616777Y-118995060D01*
X176643367Y-119046703D01*
X176786808Y-119433684D01*
X176891091Y-119886161D01*
X176956319Y-120383154D01*
X176982593Y-120903683D01*
X176970015Y-121426768D01*
X176918685Y-121931428D01*
X176828705Y-122396683D01*
X176700177Y-122801553D01*
X176624412Y-122969085D01*
X176491400Y-123176827D01*
X176307696Y-123395777D01*
X176102642Y-123595136D01*
X175905580Y-123744102D01*
X175862135Y-123769255D01*
X175815159Y-123793183D01*
X175765394Y-123813308D01*
X175704171Y-123830016D01*
X175622819Y-123843693D01*
X175512669Y-123854723D01*
X175365052Y-123863493D01*
X175171299Y-123870388D01*
X174922740Y-123875794D01*
X174610705Y-123880096D01*
X174226526Y-123883679D01*
X173761533Y-123886930D01*
X173207057Y-123890235D01*
X173132367Y-123890663D01*
X170602257Y-123905146D01*
X170381120Y-123679823D01*
X170256206Y-123562343D01*
X170151158Y-123480827D01*
X170094870Y-123454500D01*
X170072329Y-123436052D01*
X170056096Y-123373421D01*
X170045611Y-123255684D01*
X170040312Y-123071914D01*
X170039635Y-122811185D01*
X170043019Y-122462573D01*
X170043187Y-122449911D01*
X170056617Y-121445321D01*
X171847402Y-121420516D01*
X172338926Y-121412980D01*
X172739820Y-121405039D01*
X173058675Y-121396268D01*
X173304081Y-121386239D01*
X173484626Y-121374527D01*
X173608902Y-121360706D01*
X173685497Y-121344350D01*
X173720156Y-121327625D01*
X173756291Y-121281365D01*
X173780320Y-121202093D01*
X173794467Y-121072096D01*
X173800952Y-120873667D01*
X173802125Y-120674166D01*
X173802125Y-120088793D01*
X172871949Y-120072526D01*
X172505279Y-120064472D01*
X172218347Y-120050372D01*
X171991677Y-120023648D01*
X171805788Y-119977720D01*
X171641202Y-119906009D01*
X171478442Y-119801938D01*
X171298029Y-119658926D01*
X171080484Y-119470396D01*
X171075087Y-119465647D01*
X170801222Y-119206060D01*
X170579245Y-118948613D01*
X170404225Y-118679303D01*
X170271234Y-118384127D01*
X170175341Y-118049083D01*
X170111617Y-117660167D01*
X170075132Y-117203376D01*
X170060956Y-116664708D01*
X170060478Y-116583602D01*
X170057293Y-115765047D01*
X170219727Y-115765047D01*
X170243268Y-116720028D01*
X170266084Y-117246817D01*
X170308626Y-117688727D01*
X170374448Y-118058769D01*
X170467106Y-118369956D01*
X170590154Y-118635299D01*
X170747148Y-118867811D01*
X170867902Y-119006263D01*
X170983685Y-119124024D01*
X171090142Y-119216465D01*
X171201262Y-119287016D01*
X171331030Y-119339108D01*
X171493434Y-119376172D01*
X171702461Y-119401637D01*
X171972098Y-119418934D01*
X172316332Y-119431495D01*
X172636304Y-119439979D01*
X172968725Y-119448528D01*
X173266119Y-119456780D01*
X173514800Y-119464306D01*
X173701082Y-119470676D01*
X173811276Y-119475461D01*
X173835788Y-119477609D01*
X173896273Y-119536681D01*
X173939791Y-119596517D01*
X173969133Y-119673758D01*
X173987090Y-119785041D01*
X173996453Y-119947006D01*
X174000013Y-120176293D01*
X174000562Y-120459938D01*
X173997736Y-120740760D01*
X173989923Y-120991331D01*
X173978122Y-121192815D01*
X173963331Y-121326377D01*
X173952400Y-121368202D01*
X173877903Y-121442223D01*
X173750172Y-121517992D01*
X173703349Y-121538574D01*
X173634629Y-121561100D01*
X173545868Y-121579101D01*
X173426112Y-121593056D01*
X173264404Y-121603445D01*
X173049789Y-121610747D01*
X172771312Y-121615442D01*
X172418016Y-121618008D01*
X171978946Y-121618925D01*
X171866355Y-121618954D01*
X170230250Y-121618954D01*
X170230250Y-123259613D01*
X172673511Y-123245436D01*
X173228926Y-123242114D01*
X173693974Y-123238882D01*
X174077510Y-123235331D01*
X174388384Y-123231050D01*
X174635450Y-123225632D01*
X174827558Y-123218667D01*
X174973561Y-123209747D01*
X175082312Y-123198462D01*
X175162662Y-123184403D01*
X175223464Y-123167162D01*
X175273569Y-123146330D01*
X175318595Y-123123230D01*
X175597529Y-122919836D01*
X175840997Y-122631796D01*
X176042723Y-122269290D01*
X176196430Y-121842501D01*
X176253689Y-121606372D01*
X176292016Y-121344546D01*
X176317076Y-121013453D01*
X176328770Y-120642164D01*
X176326995Y-120259753D01*
X176311651Y-119895294D01*
X176282637Y-119577858D01*
X176261234Y-119436141D01*
X176164929Y-119032540D01*
X176033608Y-118672712D01*
X175874443Y-118369795D01*
X175694607Y-118136931D01*
X175501276Y-117987258D01*
X175459457Y-117967553D01*
X175381068Y-117944883D01*
X175260360Y-117927352D01*
X175086588Y-117914446D01*
X174849004Y-117905652D01*
X174536862Y-117900460D01*
X174139416Y-117898356D01*
X174005699Y-117898250D01*
X173586668Y-117897619D01*
X173256549Y-117894210D01*
X173005041Y-117885751D01*
X172821837Y-117869969D01*
X172696635Y-117844592D01*
X172619130Y-117807347D01*
X172579017Y-117755962D01*
X172565994Y-117688164D01*
X172569756Y-117601681D01*
X172571614Y-117581969D01*
X172586695Y-117426961D01*
X174459449Y-117413962D01*
X176332203Y-117400964D01*
X176332203Y-115765047D01*
X170219727Y-115765047D01*
X170057293Y-115765047D01*
X170056617Y-115591414D01*
X173281226Y-115583167D01*
X176505836Y-115574919D01*
X177028918Y-116163359D01*
X177028918Y-116163359D01*
G37*
X177028918Y-116163359D02*
X177015424Y-117092817D01*
X177001929Y-118022274D01*
X176440628Y-118047079D01*
X175879327Y-118071883D01*
X176199032Y-118426586D01*
X176358199Y-118617184D01*
X176505626Y-118818088D01*
X176616777Y-118995060D01*
X176643367Y-119046703D01*
X176786808Y-119433684D01*
X176891091Y-119886161D01*
X176956319Y-120383154D01*
X176982593Y-120903683D01*
X176970015Y-121426768D01*
X176918685Y-121931428D01*
X176828705Y-122396683D01*
X176700177Y-122801553D01*
X176624412Y-122969085D01*
X176491400Y-123176827D01*
X176307696Y-123395777D01*
X176102642Y-123595136D01*
X175905580Y-123744102D01*
X175862135Y-123769255D01*
X175815159Y-123793183D01*
X175765394Y-123813308D01*
X175704171Y-123830016D01*
X175622819Y-123843693D01*
X175512669Y-123854723D01*
X175365052Y-123863493D01*
X175171299Y-123870388D01*
X174922740Y-123875794D01*
X174610705Y-123880096D01*
X174226526Y-123883679D01*
X173761533Y-123886930D01*
X173207057Y-123890235D01*
X173132367Y-123890663D01*
X170602257Y-123905146D01*
X170381120Y-123679823D01*
X170256206Y-123562343D01*
X170151158Y-123480827D01*
X170094870Y-123454500D01*
X170072329Y-123436052D01*
X170056096Y-123373421D01*
X170045611Y-123255684D01*
X170040312Y-123071914D01*
X170039635Y-122811185D01*
X170043019Y-122462573D01*
X170043187Y-122449911D01*
X170056617Y-121445321D01*
X171847402Y-121420516D01*
X172338926Y-121412980D01*
X172739820Y-121405039D01*
X173058675Y-121396268D01*
X173304081Y-121386239D01*
X173484626Y-121374527D01*
X173608902Y-121360706D01*
X173685497Y-121344350D01*
X173720156Y-121327625D01*
X173756291Y-121281365D01*
X173780320Y-121202093D01*
X173794467Y-121072096D01*
X173800952Y-120873667D01*
X173802125Y-120674166D01*
X173802125Y-120088793D01*
X172871949Y-120072526D01*
X172505279Y-120064472D01*
X172218347Y-120050372D01*
X171991677Y-120023648D01*
X171805788Y-119977720D01*
X171641202Y-119906009D01*
X171478442Y-119801938D01*
X171298029Y-119658926D01*
X171080484Y-119470396D01*
X171075087Y-119465647D01*
X170801222Y-119206060D01*
X170579245Y-118948613D01*
X170404225Y-118679303D01*
X170271234Y-118384127D01*
X170175341Y-118049083D01*
X170111617Y-117660167D01*
X170075132Y-117203376D01*
X170060956Y-116664708D01*
X170060478Y-116583602D01*
X170057293Y-115765047D01*
X170219727Y-115765047D01*
X170243268Y-116720028D01*
X170266084Y-117246817D01*
X170308626Y-117688727D01*
X170374448Y-118058769D01*
X170467106Y-118369956D01*
X170590154Y-118635299D01*
X170747148Y-118867811D01*
X170867902Y-119006263D01*
X170983685Y-119124024D01*
X171090142Y-119216465D01*
X171201262Y-119287016D01*
X171331030Y-119339108D01*
X171493434Y-119376172D01*
X171702461Y-119401637D01*
X171972098Y-119418934D01*
X172316332Y-119431495D01*
X172636304Y-119439979D01*
X172968725Y-119448528D01*
X173266119Y-119456780D01*
X173514800Y-119464306D01*
X173701082Y-119470676D01*
X173811276Y-119475461D01*
X173835788Y-119477609D01*
X173896273Y-119536681D01*
X173939791Y-119596517D01*
X173969133Y-119673758D01*
X173987090Y-119785041D01*
X173996453Y-119947006D01*
X174000013Y-120176293D01*
X174000562Y-120459938D01*
X173997736Y-120740760D01*
X173989923Y-120991331D01*
X173978122Y-121192815D01*
X173963331Y-121326377D01*
X173952400Y-121368202D01*
X173877903Y-121442223D01*
X173750172Y-121517992D01*
X173703349Y-121538574D01*
X173634629Y-121561100D01*
X173545868Y-121579101D01*
X173426112Y-121593056D01*
X173264404Y-121603445D01*
X173049789Y-121610747D01*
X172771312Y-121615442D01*
X172418016Y-121618008D01*
X171978946Y-121618925D01*
X171866355Y-121618954D01*
X170230250Y-121618954D01*
X170230250Y-123259613D01*
X172673511Y-123245436D01*
X173228926Y-123242114D01*
X173693974Y-123238882D01*
X174077510Y-123235331D01*
X174388384Y-123231050D01*
X174635450Y-123225632D01*
X174827558Y-123218667D01*
X174973561Y-123209747D01*
X175082312Y-123198462D01*
X175162662Y-123184403D01*
X175223464Y-123167162D01*
X175273569Y-123146330D01*
X175318595Y-123123230D01*
X175597529Y-122919836D01*
X175840997Y-122631796D01*
X176042723Y-122269290D01*
X176196430Y-121842501D01*
X176253689Y-121606372D01*
X176292016Y-121344546D01*
X176317076Y-121013453D01*
X176328770Y-120642164D01*
X176326995Y-120259753D01*
X176311651Y-119895294D01*
X176282637Y-119577858D01*
X176261234Y-119436141D01*
X176164929Y-119032540D01*
X176033608Y-118672712D01*
X175874443Y-118369795D01*
X175694607Y-118136931D01*
X175501276Y-117987258D01*
X175459457Y-117967553D01*
X175381068Y-117944883D01*
X175260360Y-117927352D01*
X175086588Y-117914446D01*
X174849004Y-117905652D01*
X174536862Y-117900460D01*
X174139416Y-117898356D01*
X174005699Y-117898250D01*
X173586668Y-117897619D01*
X173256549Y-117894210D01*
X173005041Y-117885751D01*
X172821837Y-117869969D01*
X172696635Y-117844592D01*
X172619130Y-117807347D01*
X172579017Y-117755962D01*
X172565994Y-117688164D01*
X172569756Y-117601681D01*
X172571614Y-117581969D01*
X172586695Y-117426961D01*
X174459449Y-117413962D01*
X176332203Y-117400964D01*
X176332203Y-115765047D01*
X170219727Y-115765047D01*
X170057293Y-115765047D01*
X170056617Y-115591414D01*
X173281226Y-115583167D01*
X176505836Y-115574919D01*
X177028918Y-116163359D01*
G36*
X165296063Y-115577851D02*
X168200158Y-115591414D01*
X168572691Y-115988289D01*
X168832604Y-116290260D01*
X169023368Y-116577063D01*
X169163174Y-116880600D01*
X169260472Y-117194477D01*
X169309179Y-117411659D01*
X169330378Y-117603917D01*
X169321916Y-117797143D01*
X169281637Y-118017231D01*
X169207389Y-118290071D01*
X169155248Y-118459467D01*
X169076898Y-118715428D01*
X169028360Y-118896776D01*
X169006250Y-119022402D01*
X169007184Y-119111194D01*
X169026406Y-119178803D01*
X169070047Y-119282426D01*
X169140588Y-119449227D01*
X169226122Y-119651068D01*
X169271753Y-119758602D01*
X169461304Y-120205086D01*
X169475432Y-122053036D01*
X169489560Y-123900985D01*
X168185589Y-123899915D01*
X166881617Y-123898844D01*
X166621816Y-123648967D01*
X166362014Y-123399090D01*
X166348964Y-121703206D01*
X166335914Y-120007323D01*
X166103270Y-119957376D01*
X165885041Y-119877292D01*
X165718798Y-119761723D01*
X165566969Y-119616016D01*
X165566969Y-123900985D01*
X164239918Y-123899915D01*
X162912867Y-123898844D01*
X162391969Y-123397854D01*
X162391969Y-115765047D01*
X162590406Y-115765047D01*
X162590406Y-123256063D01*
X164872437Y-123256063D01*
X164872437Y-117302938D01*
X166261500Y-117302938D01*
X166261500Y-117898250D01*
X165517359Y-117898250D01*
X165517359Y-119276271D01*
X165700654Y-119310657D01*
X165895054Y-119366827D01*
X166100526Y-119457024D01*
X166283930Y-119563857D01*
X166412129Y-119669934D01*
X166431679Y-119694312D01*
X166452795Y-119735595D01*
X166469802Y-119799559D01*
X166483125Y-119896223D01*
X166493189Y-120035607D01*
X166500419Y-120227731D01*
X166505240Y-120482613D01*
X166508076Y-120810273D01*
X166509352Y-121220730D01*
X166509547Y-121530773D01*
X166509547Y-123256063D01*
X168844762Y-123256063D01*
X168830573Y-121482528D01*
X168816383Y-119708993D01*
X168626831Y-119262508D01*
X168538191Y-119053521D01*
X168458425Y-118865100D01*
X168399458Y-118725429D01*
X168381231Y-118682037D01*
X168359856Y-118605704D01*
X168361162Y-118512713D01*
X168388921Y-118381487D01*
X168446908Y-118190452D01*
X168489717Y-118061920D01*
X168564109Y-117821891D01*
X168626758Y-117582535D01*
X168668524Y-117380524D01*
X168678906Y-117302938D01*
X168677588Y-117071065D01*
X168640771Y-116807725D01*
X168575717Y-116535434D01*
X168489685Y-116276711D01*
X168389936Y-116054070D01*
X168283731Y-115890029D01*
X168199594Y-115816438D01*
X168124919Y-115803759D01*
X167952438Y-115792827D01*
X167683551Y-115783667D01*
X167319655Y-115776304D01*
X166862150Y-115770763D01*
X166312433Y-115767070D01*
X165671903Y-115765249D01*
X165346988Y-115765047D01*
X162590406Y-115765047D01*
X162391969Y-115765047D01*
X162391969Y-115564287D01*
X165296063Y-115577851D01*
X165296063Y-115577851D01*
G37*
X165296063Y-115577851D02*
X168200158Y-115591414D01*
X168572691Y-115988289D01*
X168832604Y-116290260D01*
X169023368Y-116577063D01*
X169163174Y-116880600D01*
X169260472Y-117194477D01*
X169309179Y-117411659D01*
X169330378Y-117603917D01*
X169321916Y-117797143D01*
X169281637Y-118017231D01*
X169207389Y-118290071D01*
X169155248Y-118459467D01*
X169076898Y-118715428D01*
X169028360Y-118896776D01*
X169006250Y-119022402D01*
X169007184Y-119111194D01*
X169026406Y-119178803D01*
X169070047Y-119282426D01*
X169140588Y-119449227D01*
X169226122Y-119651068D01*
X169271753Y-119758602D01*
X169461304Y-120205086D01*
X169475432Y-122053036D01*
X169489560Y-123900985D01*
X168185589Y-123899915D01*
X166881617Y-123898844D01*
X166621816Y-123648967D01*
X166362014Y-123399090D01*
X166348964Y-121703206D01*
X166335914Y-120007323D01*
X166103270Y-119957376D01*
X165885041Y-119877292D01*
X165718798Y-119761723D01*
X165566969Y-119616016D01*
X165566969Y-123900985D01*
X164239918Y-123899915D01*
X162912867Y-123898844D01*
X162391969Y-123397854D01*
X162391969Y-115765047D01*
X162590406Y-115765047D01*
X162590406Y-123256063D01*
X164872437Y-123256063D01*
X164872437Y-117302938D01*
X166261500Y-117302938D01*
X166261500Y-117898250D01*
X165517359Y-117898250D01*
X165517359Y-119276271D01*
X165700654Y-119310657D01*
X165895054Y-119366827D01*
X166100526Y-119457024D01*
X166283930Y-119563857D01*
X166412129Y-119669934D01*
X166431679Y-119694312D01*
X166452795Y-119735595D01*
X166469802Y-119799559D01*
X166483125Y-119896223D01*
X166493189Y-120035607D01*
X166500419Y-120227731D01*
X166505240Y-120482613D01*
X166508076Y-120810273D01*
X166509352Y-121220730D01*
X166509547Y-121530773D01*
X166509547Y-123256063D01*
X168844762Y-123256063D01*
X168830573Y-121482528D01*
X168816383Y-119708993D01*
X168626831Y-119262508D01*
X168538191Y-119053521D01*
X168458425Y-118865100D01*
X168399458Y-118725429D01*
X168381231Y-118682037D01*
X168359856Y-118605704D01*
X168361162Y-118512713D01*
X168388921Y-118381487D01*
X168446908Y-118190452D01*
X168489717Y-118061920D01*
X168564109Y-117821891D01*
X168626758Y-117582535D01*
X168668524Y-117380524D01*
X168678906Y-117302938D01*
X168677588Y-117071065D01*
X168640771Y-116807725D01*
X168575717Y-116535434D01*
X168489685Y-116276711D01*
X168389936Y-116054070D01*
X168283731Y-115890029D01*
X168199594Y-115816438D01*
X168124919Y-115803759D01*
X167952438Y-115792827D01*
X167683551Y-115783667D01*
X167319655Y-115776304D01*
X166862150Y-115770763D01*
X166312433Y-115767070D01*
X165671903Y-115765249D01*
X165346988Y-115765047D01*
X162590406Y-115765047D01*
X162391969Y-115765047D01*
X162391969Y-115564287D01*
X165296063Y-115577851D01*
G36*
X161572989Y-115851037D02*
X161842648Y-116137118D01*
X161844456Y-120019051D01*
X161846265Y-123900985D01*
X159237627Y-123900985D01*
X159018531Y-123677743D01*
X158894245Y-123560877D01*
X158789969Y-123480066D01*
X158735052Y-123454500D01*
X158723027Y-123438718D01*
X158712649Y-123387569D01*
X158703841Y-123295353D01*
X158696529Y-123156366D01*
X158690637Y-122964908D01*
X158686091Y-122715275D01*
X158682817Y-122401767D01*
X158680738Y-122018681D01*
X158679780Y-121560316D01*
X158679868Y-121020968D01*
X158680927Y-120394937D01*
X158682883Y-119676521D01*
X158683369Y-119522957D01*
X158695509Y-115765047D01*
X158869703Y-115765047D01*
X158869703Y-123256063D01*
X161201344Y-123256063D01*
X161201344Y-115765047D01*
X158869703Y-115765047D01*
X158695509Y-115765047D01*
X158696070Y-115591414D01*
X159999700Y-115578186D01*
X161303330Y-115564957D01*
X161572989Y-115851037D01*
X161572989Y-115851037D01*
G37*
X161572989Y-115851037D02*
X161842648Y-116137118D01*
X161844456Y-120019051D01*
X161846265Y-123900985D01*
X159237627Y-123900985D01*
X159018531Y-123677743D01*
X158894245Y-123560877D01*
X158789969Y-123480066D01*
X158735052Y-123454500D01*
X158723027Y-123438718D01*
X158712649Y-123387569D01*
X158703841Y-123295353D01*
X158696529Y-123156366D01*
X158690637Y-122964908D01*
X158686091Y-122715275D01*
X158682817Y-122401767D01*
X158680738Y-122018681D01*
X158679780Y-121560316D01*
X158679868Y-121020968D01*
X158680927Y-120394937D01*
X158682883Y-119676521D01*
X158683369Y-119522957D01*
X158695509Y-115765047D01*
X158869703Y-115765047D01*
X158869703Y-123256063D01*
X161201344Y-123256063D01*
X161201344Y-115765047D01*
X158869703Y-115765047D01*
X158695509Y-115765047D01*
X158696070Y-115591414D01*
X159999700Y-115578186D01*
X161303330Y-115564957D01*
X161572989Y-115851037D01*
G36*
X153083056Y-115567525D02*
X153407677Y-115570568D01*
X153651695Y-115576184D01*
X153824411Y-115584818D01*
X153935126Y-115596914D01*
X153993140Y-115612917D01*
X154007984Y-115630695D01*
X154041236Y-115696875D01*
X154127791Y-115805020D01*
X154231226Y-115913875D01*
X154454469Y-116132971D01*
X154454469Y-117699813D01*
X155000172Y-117699813D01*
X155000172Y-115566610D01*
X156339625Y-115566610D01*
X156754150Y-115567525D01*
X157078771Y-115570568D01*
X157322789Y-115576184D01*
X157495505Y-115584818D01*
X157606220Y-115596914D01*
X157664234Y-115612917D01*
X157679078Y-115630695D01*
X157712330Y-115696875D01*
X157798884Y-115805020D01*
X157902320Y-115913875D01*
X158125562Y-116132971D01*
X158125562Y-123900985D01*
X156823316Y-123899915D01*
X155521070Y-123898844D01*
X155000172Y-123397854D01*
X155000172Y-119932235D01*
X154890912Y-119932235D01*
X154789883Y-119898998D01*
X154664992Y-119815415D01*
X154618061Y-119773675D01*
X154454469Y-119615115D01*
X154454469Y-123900985D01*
X153152222Y-123899915D01*
X151849976Y-123898844D01*
X151329078Y-123397854D01*
X151329078Y-115765047D01*
X151477906Y-115765047D01*
X151477906Y-123256063D01*
X153809547Y-123256063D01*
X153809547Y-117902597D01*
X154454469Y-117902597D01*
X154454469Y-119275534D01*
X154667263Y-119329116D01*
X154903508Y-119433627D01*
X155071179Y-119608612D01*
X155150184Y-119787538D01*
X155162187Y-119878542D01*
X155173033Y-120056263D01*
X155182390Y-120308201D01*
X155189925Y-120621858D01*
X155195306Y-120984734D01*
X155198198Y-121384332D01*
X155198609Y-121606224D01*
X155198609Y-123256063D01*
X157480640Y-123256063D01*
X157480640Y-115765047D01*
X155200582Y-115765047D01*
X155187193Y-116819246D01*
X155173804Y-117873446D01*
X154814136Y-117888021D01*
X154454469Y-117902597D01*
X153809547Y-117902597D01*
X153809547Y-115765047D01*
X151477906Y-115765047D01*
X151329078Y-115765047D01*
X151329078Y-115566610D01*
X152668531Y-115566610D01*
X153083056Y-115567525D01*
X153083056Y-115567525D01*
G37*
X153083056Y-115567525D02*
X153407677Y-115570568D01*
X153651695Y-115576184D01*
X153824411Y-115584818D01*
X153935126Y-115596914D01*
X153993140Y-115612917D01*
X154007984Y-115630695D01*
X154041236Y-115696875D01*
X154127791Y-115805020D01*
X154231226Y-115913875D01*
X154454469Y-116132971D01*
X154454469Y-117699813D01*
X155000172Y-117699813D01*
X155000172Y-115566610D01*
X156339625Y-115566610D01*
X156754150Y-115567525D01*
X157078771Y-115570568D01*
X157322789Y-115576184D01*
X157495505Y-115584818D01*
X157606220Y-115596914D01*
X157664234Y-115612917D01*
X157679078Y-115630695D01*
X157712330Y-115696875D01*
X157798884Y-115805020D01*
X157902320Y-115913875D01*
X158125562Y-116132971D01*
X158125562Y-123900985D01*
X156823316Y-123899915D01*
X155521070Y-123898844D01*
X155000172Y-123397854D01*
X155000172Y-119932235D01*
X154890912Y-119932235D01*
X154789883Y-119898998D01*
X154664992Y-119815415D01*
X154618061Y-119773675D01*
X154454469Y-119615115D01*
X154454469Y-123900985D01*
X153152222Y-123899915D01*
X151849976Y-123898844D01*
X151329078Y-123397854D01*
X151329078Y-115765047D01*
X151477906Y-115765047D01*
X151477906Y-123256063D01*
X153809547Y-123256063D01*
X153809547Y-117902597D01*
X154454469Y-117902597D01*
X154454469Y-119275534D01*
X154667263Y-119329116D01*
X154903508Y-119433627D01*
X155071179Y-119608612D01*
X155150184Y-119787538D01*
X155162187Y-119878542D01*
X155173033Y-120056263D01*
X155182390Y-120308201D01*
X155189925Y-120621858D01*
X155195306Y-120984734D01*
X155198198Y-121384332D01*
X155198609Y-121606224D01*
X155198609Y-123256063D01*
X157480640Y-123256063D01*
X157480640Y-115765047D01*
X155200582Y-115765047D01*
X155187193Y-116819246D01*
X155173804Y-117873446D01*
X154814136Y-117888021D01*
X154454469Y-117902597D01*
X153809547Y-117902597D01*
X153809547Y-115765047D01*
X151477906Y-115765047D01*
X151329078Y-115765047D01*
X151329078Y-115566610D01*
X152668531Y-115566610D01*
X153083056Y-115567525D01*
G36*
X147191562Y-111598080D02*
X147920835Y-111598784D01*
X148561026Y-111600039D01*
X149117205Y-111601913D01*
X149594440Y-111604471D01*
X149997798Y-111607781D01*
X150332349Y-111611910D01*
X150603161Y-111616924D01*
X150815302Y-111622890D01*
X150973840Y-111629875D01*
X151083845Y-111637946D01*
X151150384Y-111647169D01*
X151178525Y-111657612D01*
X151180250Y-111661305D01*
X151213578Y-111722343D01*
X151302820Y-111832480D01*
X151431864Y-111972574D01*
X151502711Y-112044344D01*
X151825172Y-112363939D01*
X151825172Y-115219344D01*
X149047047Y-115219344D01*
X149047047Y-123900985D01*
X145149605Y-123900985D01*
X144853501Y-123598967D01*
X144703477Y-123453949D01*
X144566004Y-123335008D01*
X144465039Y-123262472D01*
X144445777Y-123252929D01*
X144334156Y-123208909D01*
X144334156Y-115219344D01*
X142322110Y-115219344D01*
X142002515Y-114896883D01*
X141854877Y-114754537D01*
X141728072Y-114644311D01*
X141641239Y-114582316D01*
X141619476Y-114574422D01*
X141600716Y-114554977D01*
X141585812Y-114490807D01*
X141574391Y-114373156D01*
X141569938Y-114276766D01*
X141802314Y-114276766D01*
X144631812Y-114276766D01*
X144631812Y-122958407D01*
X148104469Y-122958407D01*
X148104469Y-114276766D01*
X150882594Y-114276766D01*
X150882594Y-111845385D01*
X146355738Y-111858048D01*
X141828883Y-111870711D01*
X141815598Y-113073739D01*
X141802314Y-114276766D01*
X141569938Y-114276766D01*
X141566079Y-114193270D01*
X141560504Y-113942395D01*
X141557292Y-113611776D01*
X141556070Y-113192659D01*
X141556031Y-113086141D01*
X141556031Y-111597860D01*
X146368140Y-111597860D01*
X147191562Y-111598080D01*
X147191562Y-111598080D01*
G37*
X147191562Y-111598080D02*
X147920835Y-111598784D01*
X148561026Y-111600039D01*
X149117205Y-111601913D01*
X149594440Y-111604471D01*
X149997798Y-111607781D01*
X150332349Y-111611910D01*
X150603161Y-111616924D01*
X150815302Y-111622890D01*
X150973840Y-111629875D01*
X151083845Y-111637946D01*
X151150384Y-111647169D01*
X151178525Y-111657612D01*
X151180250Y-111661305D01*
X151213578Y-111722343D01*
X151302820Y-111832480D01*
X151431864Y-111972574D01*
X151502711Y-112044344D01*
X151825172Y-112363939D01*
X151825172Y-115219344D01*
X149047047Y-115219344D01*
X149047047Y-123900985D01*
X145149605Y-123900985D01*
X144853501Y-123598967D01*
X144703477Y-123453949D01*
X144566004Y-123335008D01*
X144465039Y-123262472D01*
X144445777Y-123252929D01*
X144334156Y-123208909D01*
X144334156Y-115219344D01*
X142322110Y-115219344D01*
X142002515Y-114896883D01*
X141854877Y-114754537D01*
X141728072Y-114644311D01*
X141641239Y-114582316D01*
X141619476Y-114574422D01*
X141600716Y-114554977D01*
X141585812Y-114490807D01*
X141574391Y-114373156D01*
X141569938Y-114276766D01*
X141802314Y-114276766D01*
X144631812Y-114276766D01*
X144631812Y-122958407D01*
X148104469Y-122958407D01*
X148104469Y-114276766D01*
X150882594Y-114276766D01*
X150882594Y-111845385D01*
X146355738Y-111858048D01*
X141828883Y-111870711D01*
X141815598Y-113073739D01*
X141802314Y-114276766D01*
X141569938Y-114276766D01*
X141566079Y-114193270D01*
X141560504Y-113942395D01*
X141557292Y-113611776D01*
X141556070Y-113192659D01*
X141556031Y-113086141D01*
X141556031Y-111597860D01*
X146368140Y-111597860D01*
X147191562Y-111598080D01*
G36*
X195021122Y-115576841D02*
X195580399Y-115580265D01*
X196049337Y-115583632D01*
X196436813Y-115587334D01*
X196751706Y-115591767D01*
X197002895Y-115597324D01*
X197199256Y-115604400D01*
X197349669Y-115613389D01*
X197463011Y-115624685D01*
X197548161Y-115638682D01*
X197613997Y-115655774D01*
X197669397Y-115676355D01*
X197713844Y-115696384D01*
X197896361Y-115796589D01*
X198083174Y-115920416D01*
X198135523Y-115960317D01*
X198317637Y-116121964D01*
X198526970Y-116332726D01*
X198746050Y-116572291D01*
X198957408Y-116820350D01*
X199143574Y-117056593D01*
X199287076Y-117260710D01*
X199354954Y-117377960D01*
X199502624Y-117677921D01*
X199474976Y-122387899D01*
X199326148Y-122685555D01*
X199183579Y-122915470D01*
X198986053Y-123160890D01*
X198758315Y-123396384D01*
X198525113Y-123596523D01*
X198311189Y-123735878D01*
X198297357Y-123742806D01*
X198040972Y-123838911D01*
X197704878Y-123919766D01*
X197307790Y-123982641D01*
X196868426Y-124024807D01*
X196405500Y-124043535D01*
X196231965Y-124043978D01*
X195951116Y-124039113D01*
X195685120Y-124029825D01*
X195459690Y-124017330D01*
X195300537Y-124002842D01*
X195271246Y-123998576D01*
X194953117Y-123931237D01*
X194667662Y-123836807D01*
X194392823Y-123704000D01*
X194106539Y-123521526D01*
X193786753Y-123278097D01*
X193660068Y-123174107D01*
X193324621Y-122881069D01*
X193063328Y-122620275D01*
X192862897Y-122377086D01*
X192710036Y-122136865D01*
X192697970Y-122114539D01*
X192579273Y-121891805D01*
X192565458Y-118727036D01*
X192552512Y-115761426D01*
X192749998Y-115761426D01*
X192763854Y-118826616D01*
X192766513Y-119463966D01*
X192768829Y-120010061D01*
X192771607Y-120472856D01*
X192775657Y-120860308D01*
X192781784Y-121180371D01*
X192790796Y-121441004D01*
X192803500Y-121650161D01*
X192820702Y-121815798D01*
X192843210Y-121945873D01*
X192871830Y-122048341D01*
X192907370Y-122131158D01*
X192950636Y-122202280D01*
X193002437Y-122269663D01*
X193063577Y-122341265D01*
X193128010Y-122416790D01*
X193484243Y-122767570D01*
X193904705Y-123045914D01*
X194380799Y-123246765D01*
X194671556Y-123324165D01*
X194966514Y-123368541D01*
X195331826Y-123394227D01*
X195740451Y-123401453D01*
X196165343Y-123390448D01*
X196579461Y-123361443D01*
X196955761Y-123314668D01*
X197018509Y-123304184D01*
X197312793Y-123246969D01*
X197535169Y-123188438D01*
X197712693Y-123120187D01*
X197855236Y-123044248D01*
X198162322Y-122812047D01*
X198443300Y-122508186D01*
X198673435Y-122160215D01*
X198707702Y-122094721D01*
X198854859Y-121801544D01*
X198854781Y-117228524D01*
X198713300Y-116930868D01*
X198489280Y-116564089D01*
X198191963Y-116235120D01*
X197846778Y-115971901D01*
X197832916Y-115963485D01*
X197544220Y-115789852D01*
X192749998Y-115761426D01*
X192552512Y-115761426D01*
X192551642Y-115562268D01*
X195021122Y-115576841D01*
X195021122Y-115576841D01*
G37*
X195021122Y-115576841D02*
X195580399Y-115580265D01*
X196049337Y-115583632D01*
X196436813Y-115587334D01*
X196751706Y-115591767D01*
X197002895Y-115597324D01*
X197199256Y-115604400D01*
X197349669Y-115613389D01*
X197463011Y-115624685D01*
X197548161Y-115638682D01*
X197613997Y-115655774D01*
X197669397Y-115676355D01*
X197713844Y-115696384D01*
X197896361Y-115796589D01*
X198083174Y-115920416D01*
X198135523Y-115960317D01*
X198317637Y-116121964D01*
X198526970Y-116332726D01*
X198746050Y-116572291D01*
X198957408Y-116820350D01*
X199143574Y-117056593D01*
X199287076Y-117260710D01*
X199354954Y-117377960D01*
X199502624Y-117677921D01*
X199474976Y-122387899D01*
X199326148Y-122685555D01*
X199183579Y-122915470D01*
X198986053Y-123160890D01*
X198758315Y-123396384D01*
X198525113Y-123596523D01*
X198311189Y-123735878D01*
X198297357Y-123742806D01*
X198040972Y-123838911D01*
X197704878Y-123919766D01*
X197307790Y-123982641D01*
X196868426Y-124024807D01*
X196405500Y-124043535D01*
X196231965Y-124043978D01*
X195951116Y-124039113D01*
X195685120Y-124029825D01*
X195459690Y-124017330D01*
X195300537Y-124002842D01*
X195271246Y-123998576D01*
X194953117Y-123931237D01*
X194667662Y-123836807D01*
X194392823Y-123704000D01*
X194106539Y-123521526D01*
X193786753Y-123278097D01*
X193660068Y-123174107D01*
X193324621Y-122881069D01*
X193063328Y-122620275D01*
X192862897Y-122377086D01*
X192710036Y-122136865D01*
X192697970Y-122114539D01*
X192579273Y-121891805D01*
X192565458Y-118727036D01*
X192552512Y-115761426D01*
X192749998Y-115761426D01*
X192763854Y-118826616D01*
X192766513Y-119463966D01*
X192768829Y-120010061D01*
X192771607Y-120472856D01*
X192775657Y-120860308D01*
X192781784Y-121180371D01*
X192790796Y-121441004D01*
X192803500Y-121650161D01*
X192820702Y-121815798D01*
X192843210Y-121945873D01*
X192871830Y-122048341D01*
X192907370Y-122131158D01*
X192950636Y-122202280D01*
X193002437Y-122269663D01*
X193063577Y-122341265D01*
X193128010Y-122416790D01*
X193484243Y-122767570D01*
X193904705Y-123045914D01*
X194380799Y-123246765D01*
X194671556Y-123324165D01*
X194966514Y-123368541D01*
X195331826Y-123394227D01*
X195740451Y-123401453D01*
X196165343Y-123390448D01*
X196579461Y-123361443D01*
X196955761Y-123314668D01*
X197018509Y-123304184D01*
X197312793Y-123246969D01*
X197535169Y-123188438D01*
X197712693Y-123120187D01*
X197855236Y-123044248D01*
X198162322Y-122812047D01*
X198443300Y-122508186D01*
X198673435Y-122160215D01*
X198707702Y-122094721D01*
X198854859Y-121801544D01*
X198854781Y-117228524D01*
X198713300Y-116930868D01*
X198489280Y-116564089D01*
X198191963Y-116235120D01*
X197846778Y-115971901D01*
X197832916Y-115963485D01*
X197544220Y-115789852D01*
X192749998Y-115761426D01*
X192552512Y-115761426D01*
X192551642Y-115562268D01*
X195021122Y-115576841D01*
D13*
X116104000Y-106442000D02*
X116104000Y-121682000D01*
X134134000Y-121682000D02*
X125144000Y-121672000D01*
X134134000Y-121682000D02*
X134134000Y-106442000D01*
X134134000Y-106442000D02*
X125134000Y-106442000D01*
X122804000Y-121672000D02*
X116104000Y-121682000D01*
X122814000Y-106442000D02*
X116104000Y-106442000D01*
X116104000Y-88732000D02*
X116104000Y-103972000D01*
X134134000Y-103972000D02*
X125144000Y-103962000D01*
X134134000Y-103972000D02*
X134134000Y-88732000D01*
X134134000Y-88732000D02*
X125134000Y-88732000D01*
X122804000Y-103962000D02*
X116104000Y-103972000D01*
X122814000Y-88732000D02*
X116104000Y-88732000D01*
X142024000Y-143372000D02*
X142024000Y-141872000D01*
X142024000Y-141872000D02*
X141754000Y-141872000D01*
X141754000Y-141872000D02*
X141754000Y-139042000D01*
X135124000Y-143372000D02*
X135124000Y-141872000D01*
X135124000Y-141872000D02*
X135394000Y-141872000D01*
X135394000Y-141872000D02*
X135394000Y-140772000D01*
X156299000Y-143447000D02*
X156299000Y-141947000D01*
X156299000Y-141947000D02*
X156029000Y-141947000D01*
X156029000Y-141947000D02*
X156029000Y-139117000D01*
X149399000Y-143447000D02*
X149399000Y-141947000D01*
X149399000Y-141947000D02*
X149669000Y-141947000D01*
X149669000Y-141947000D02*
X149669000Y-140847000D01*
X170799000Y-143447000D02*
X170799000Y-141947000D01*
X170799000Y-141947000D02*
X170529000Y-141947000D01*
X170529000Y-141947000D02*
X170529000Y-139117000D01*
X163899000Y-143447000D02*
X163899000Y-141947000D01*
X163899000Y-141947000D02*
X164169000Y-141947000D01*
X164169000Y-141947000D02*
X164169000Y-140847000D01*
X185024000Y-143472000D02*
X185024000Y-141972000D01*
X185024000Y-141972000D02*
X184754000Y-141972000D01*
X184754000Y-141972000D02*
X184754000Y-139142000D01*
X178124000Y-143472000D02*
X178124000Y-141972000D01*
X178124000Y-141972000D02*
X178394000Y-141972000D01*
X178394000Y-141972000D02*
X178394000Y-140872000D01*
X199249000Y-143447000D02*
X199249000Y-141947000D01*
X199249000Y-141947000D02*
X198979000Y-141947000D01*
X198979000Y-141947000D02*
X198979000Y-139117000D01*
X192349000Y-143447000D02*
X192349000Y-141947000D01*
X192349000Y-141947000D02*
X192619000Y-141947000D01*
X192619000Y-141947000D02*
X192619000Y-140847000D01*
X119704000Y-124692000D02*
X119704000Y-125892000D01*
X117944000Y-125892000D02*
X117944000Y-124692000D01*
X157174000Y-80572000D02*
X155974000Y-80572000D01*
X155974000Y-78812000D02*
X157174000Y-78812000D01*
X157174000Y-83572000D02*
X155974000Y-83572000D01*
X155974000Y-81812000D02*
X157174000Y-81812000D01*
X157174000Y-86322000D02*
X155974000Y-86322000D01*
X155974000Y-84562000D02*
X157174000Y-84562000D01*
X170294000Y-77422000D02*
X169024000Y-77422000D01*
X170294000Y-77422000D02*
X170294000Y-79962000D01*
X170094000Y-77622000D02*
X170094000Y-87642000D01*
X170094000Y-87642000D02*
X160054000Y-87642000D01*
X160054000Y-87642000D02*
X160054000Y-77622000D01*
X160054000Y-77622000D02*
X170094000Y-77622000D01*
X168249000Y-80602000D02*
X166979000Y-80602000D01*
X166979000Y-80602000D02*
X166979000Y-84662000D01*
X166979000Y-84662000D02*
X168249000Y-84662000D01*
X168249000Y-84662000D02*
X168249000Y-80602000D01*
X168249000Y-82632000D02*
X166979000Y-82632000D01*
X165709000Y-80602000D02*
X164439000Y-80602000D01*
X164439000Y-80602000D02*
X164439000Y-84662000D01*
X164439000Y-84662000D02*
X165709000Y-84662000D01*
X165709000Y-84662000D02*
X165709000Y-80602000D01*
X165709000Y-82632000D02*
X164439000Y-82632000D01*
X163169000Y-80602000D02*
X161899000Y-80602000D01*
X161899000Y-80602000D02*
X161899000Y-84662000D01*
X161899000Y-84662000D02*
X163169000Y-84662000D01*
X163169000Y-84662000D02*
X163169000Y-80602000D01*
X163169000Y-82632000D02*
X161899000Y-82632000D01*
X143154000Y-86272000D02*
X143154000Y-81072000D01*
X138014000Y-86272000D02*
X143154000Y-86272000D01*
X135414000Y-81072000D02*
X143154000Y-81072000D01*
X138014000Y-86272000D02*
X138014000Y-83672000D01*
X138014000Y-83672000D02*
X135414000Y-83672000D01*
X135414000Y-83672000D02*
X135414000Y-81072000D01*
X136744000Y-86272000D02*
X135414000Y-86272000D01*
X135414000Y-86272000D02*
X135414000Y-84942000D01*
X152904000Y-86272000D02*
X152904000Y-81072000D01*
X147764000Y-86272000D02*
X152904000Y-86272000D01*
X145164000Y-81072000D02*
X152904000Y-81072000D01*
X147764000Y-86272000D02*
X147764000Y-83672000D01*
X147764000Y-83672000D02*
X145164000Y-83672000D01*
X145164000Y-83672000D02*
X145164000Y-81072000D01*
X146494000Y-86272000D02*
X145164000Y-86272000D01*
X145164000Y-86272000D02*
X145164000Y-84942000D01*
X143244000Y-138022000D02*
X145904000Y-138022000D01*
X143244000Y-132882000D02*
X143244000Y-138022000D01*
X145904000Y-132882000D02*
X145904000Y-138022000D01*
X143244000Y-132882000D02*
X145904000Y-132882000D01*
X143244000Y-131612000D02*
X143244000Y-130282000D01*
X143244000Y-130282000D02*
X144574000Y-130282000D01*
X157494000Y-138062000D02*
X160154000Y-138062000D01*
X157494000Y-132922000D02*
X157494000Y-138062000D01*
X160154000Y-132922000D02*
X160154000Y-138062000D01*
X157494000Y-132922000D02*
X160154000Y-132922000D01*
X157494000Y-131652000D02*
X157494000Y-130322000D01*
X157494000Y-130322000D02*
X158824000Y-130322000D01*
X172494000Y-138062000D02*
X175154000Y-138062000D01*
X172494000Y-132922000D02*
X172494000Y-138062000D01*
X175154000Y-132922000D02*
X175154000Y-138062000D01*
X172494000Y-132922000D02*
X175154000Y-132922000D01*
X172494000Y-131652000D02*
X172494000Y-130322000D01*
X172494000Y-130322000D02*
X173824000Y-130322000D01*
X186744000Y-138062000D02*
X189404000Y-138062000D01*
X186744000Y-132922000D02*
X186744000Y-138062000D01*
X189404000Y-132922000D02*
X189404000Y-138062000D01*
X186744000Y-132922000D02*
X189404000Y-132922000D01*
X186744000Y-131652000D02*
X186744000Y-130322000D01*
X186744000Y-130322000D02*
X188074000Y-130322000D01*
X200994000Y-138022000D02*
X203654000Y-138022000D01*
X200994000Y-132882000D02*
X200994000Y-138022000D01*
X203654000Y-132882000D02*
X203654000Y-138022000D01*
X200994000Y-132882000D02*
X203654000Y-132882000D01*
X200994000Y-131612000D02*
X200994000Y-130282000D01*
X200994000Y-130282000D02*
X202324000Y-130282000D01*
D12*
G36*
X182526603Y-109000391D02*
X182605920Y-109001197D01*
X182838331Y-109006805D01*
X183032974Y-109023462D01*
X183196484Y-109052957D01*
X183335494Y-109097074D01*
X183456639Y-109157602D01*
X183566551Y-109236327D01*
X183605809Y-109270525D01*
X183670931Y-109350542D01*
X183729652Y-109459123D01*
X183774911Y-109579480D01*
X183799645Y-109694824D01*
X183802215Y-109737446D01*
X183786110Y-109855599D01*
X183742953Y-109984659D01*
X183680476Y-110106819D01*
X183606413Y-110204269D01*
X183594383Y-110216027D01*
X183492481Y-110298671D01*
X183380892Y-110363186D01*
X183253182Y-110411260D01*
X183102918Y-110444584D01*
X182923666Y-110464849D01*
X182708993Y-110473746D01*
X182610663Y-110474500D01*
X182485640Y-110473898D01*
X182397718Y-110471381D01*
X182338647Y-110465881D01*
X182300180Y-110456332D01*
X182274068Y-110441666D01*
X182260072Y-110429143D01*
X182246851Y-110413929D01*
X182236480Y-110394302D01*
X182228615Y-110365005D01*
X182222909Y-110320780D01*
X182219019Y-110256369D01*
X182216600Y-110166514D01*
X182215306Y-110045959D01*
X182214794Y-109889444D01*
X182214715Y-109737446D01*
X182214215Y-109534717D01*
X182214323Y-109372768D01*
X182216252Y-109295214D01*
X182509536Y-109295214D01*
X182509536Y-110179679D01*
X182696634Y-110179507D01*
X182809216Y-110176278D01*
X182927128Y-110167960D01*
X183025507Y-110156325D01*
X183028500Y-110155846D01*
X183187500Y-110117404D01*
X183310826Y-110057533D01*
X183404637Y-109972335D01*
X183464243Y-109880091D01*
X183500970Y-109777766D01*
X183498122Y-109681686D01*
X183455498Y-109578696D01*
X183372126Y-109472153D01*
X183256594Y-109393204D01*
X183106423Y-109340433D01*
X183006061Y-109321758D01*
X182892137Y-109308643D01*
X182771395Y-109299150D01*
X182668699Y-109295204D01*
X182662616Y-109295185D01*
X182509536Y-109295214D01*
X182216252Y-109295214D01*
X182217451Y-109247059D01*
X182226014Y-109153048D01*
X182242422Y-109086197D01*
X182269090Y-109041963D01*
X182308429Y-109015806D01*
X182362852Y-109003186D01*
X182434773Y-108999561D01*
X182526603Y-109000391D01*
X182526603Y-109000391D01*
G37*
X182526603Y-109000391D02*
X182605920Y-109001197D01*
X182838331Y-109006805D01*
X183032974Y-109023462D01*
X183196484Y-109052957D01*
X183335494Y-109097074D01*
X183456639Y-109157602D01*
X183566551Y-109236327D01*
X183605809Y-109270525D01*
X183670931Y-109350542D01*
X183729652Y-109459123D01*
X183774911Y-109579480D01*
X183799645Y-109694824D01*
X183802215Y-109737446D01*
X183786110Y-109855599D01*
X183742953Y-109984659D01*
X183680476Y-110106819D01*
X183606413Y-110204269D01*
X183594383Y-110216027D01*
X183492481Y-110298671D01*
X183380892Y-110363186D01*
X183253182Y-110411260D01*
X183102918Y-110444584D01*
X182923666Y-110464849D01*
X182708993Y-110473746D01*
X182610663Y-110474500D01*
X182485640Y-110473898D01*
X182397718Y-110471381D01*
X182338647Y-110465881D01*
X182300180Y-110456332D01*
X182274068Y-110441666D01*
X182260072Y-110429143D01*
X182246851Y-110413929D01*
X182236480Y-110394302D01*
X182228615Y-110365005D01*
X182222909Y-110320780D01*
X182219019Y-110256369D01*
X182216600Y-110166514D01*
X182215306Y-110045959D01*
X182214794Y-109889444D01*
X182214715Y-109737446D01*
X182214215Y-109534717D01*
X182214323Y-109372768D01*
X182216252Y-109295214D01*
X182509536Y-109295214D01*
X182509536Y-110179679D01*
X182696634Y-110179507D01*
X182809216Y-110176278D01*
X182927128Y-110167960D01*
X183025507Y-110156325D01*
X183028500Y-110155846D01*
X183187500Y-110117404D01*
X183310826Y-110057533D01*
X183404637Y-109972335D01*
X183464243Y-109880091D01*
X183500970Y-109777766D01*
X183498122Y-109681686D01*
X183455498Y-109578696D01*
X183372126Y-109472153D01*
X183256594Y-109393204D01*
X183106423Y-109340433D01*
X183006061Y-109321758D01*
X182892137Y-109308643D01*
X182771395Y-109299150D01*
X182668699Y-109295204D01*
X182662616Y-109295185D01*
X182509536Y-109295214D01*
X182216252Y-109295214D01*
X182217451Y-109247059D01*
X182226014Y-109153048D01*
X182242422Y-109086197D01*
X182269090Y-109041963D01*
X182308429Y-109015806D01*
X182362852Y-109003186D01*
X182434773Y-108999561D01*
X182526603Y-109000391D01*
G36*
X185356334Y-109000552D02*
X185495770Y-109001300D01*
X185601017Y-109003040D01*
X185677656Y-109006177D01*
X185731270Y-109011113D01*
X185767443Y-109018253D01*
X185791759Y-109028001D01*
X185809799Y-109040761D01*
X185816331Y-109046633D01*
X185856058Y-109109027D01*
X185863211Y-109180718D01*
X185837077Y-109244364D01*
X185824993Y-109257227D01*
X185805448Y-109269698D01*
X185773977Y-109279320D01*
X185724744Y-109286559D01*
X185651914Y-109291883D01*
X185549651Y-109295762D01*
X185412118Y-109298664D01*
X185286377Y-109300429D01*
X184788732Y-109306554D01*
X184781931Y-109436955D01*
X184775130Y-109567357D01*
X185112925Y-109567357D01*
X185259574Y-109568622D01*
X185366936Y-109573914D01*
X185441043Y-109585478D01*
X185487931Y-109605558D01*
X185513633Y-109636398D01*
X185524184Y-109680244D01*
X185525786Y-109720937D01*
X185520807Y-109770868D01*
X185502016Y-109807660D01*
X185463633Y-109833235D01*
X185399880Y-109849516D01*
X185304976Y-109858426D01*
X185173142Y-109861887D01*
X185101186Y-109862179D01*
X184777393Y-109862179D01*
X184777393Y-110179679D01*
X185276322Y-110179679D01*
X185439867Y-110179906D01*
X185564163Y-110180929D01*
X185655314Y-110183256D01*
X185719428Y-110187395D01*
X185762610Y-110193857D01*
X185790967Y-110203148D01*
X185810605Y-110215779D01*
X185820607Y-110225036D01*
X185854918Y-110279063D01*
X185865965Y-110327089D01*
X185850191Y-110385751D01*
X185820607Y-110429143D01*
X185804824Y-110442803D01*
X185784449Y-110453410D01*
X185754002Y-110461348D01*
X185708003Y-110467003D01*
X185640970Y-110470759D01*
X185547422Y-110473000D01*
X185421880Y-110474111D01*
X185258862Y-110474476D01*
X185174268Y-110474500D01*
X184993112Y-110474340D01*
X184851832Y-110473602D01*
X184744948Y-110471904D01*
X184666978Y-110468859D01*
X184612441Y-110464083D01*
X184575858Y-110457192D01*
X184551747Y-110447801D01*
X184534627Y-110435525D01*
X184527929Y-110429143D01*
X184514672Y-110413882D01*
X184504281Y-110394193D01*
X184496409Y-110364801D01*
X184490707Y-110320430D01*
X184486828Y-110255803D01*
X184484423Y-110165644D01*
X184483144Y-110044678D01*
X184482645Y-109887628D01*
X184482572Y-109741400D01*
X184482639Y-109554134D01*
X184483110Y-109406928D01*
X184484387Y-109294482D01*
X184486871Y-109211499D01*
X184490964Y-109152680D01*
X184497069Y-109112727D01*
X184505588Y-109086341D01*
X184516922Y-109068225D01*
X184531475Y-109053080D01*
X184535060Y-109049703D01*
X184552459Y-109034755D01*
X184572675Y-109023180D01*
X184601316Y-109014545D01*
X184643991Y-109008422D01*
X184706305Y-109004379D01*
X184793868Y-109001986D01*
X184912287Y-109000811D01*
X185067169Y-109000425D01*
X185177123Y-109000393D01*
X185356334Y-109000552D01*
X185356334Y-109000552D01*
G37*
X185356334Y-109000552D02*
X185495770Y-109001300D01*
X185601017Y-109003040D01*
X185677656Y-109006177D01*
X185731270Y-109011113D01*
X185767443Y-109018253D01*
X185791759Y-109028001D01*
X185809799Y-109040761D01*
X185816331Y-109046633D01*
X185856058Y-109109027D01*
X185863211Y-109180718D01*
X185837077Y-109244364D01*
X185824993Y-109257227D01*
X185805448Y-109269698D01*
X185773977Y-109279320D01*
X185724744Y-109286559D01*
X185651914Y-109291883D01*
X185549651Y-109295762D01*
X185412118Y-109298664D01*
X185286377Y-109300429D01*
X184788732Y-109306554D01*
X184781931Y-109436955D01*
X184775130Y-109567357D01*
X185112925Y-109567357D01*
X185259574Y-109568622D01*
X185366936Y-109573914D01*
X185441043Y-109585478D01*
X185487931Y-109605558D01*
X185513633Y-109636398D01*
X185524184Y-109680244D01*
X185525786Y-109720937D01*
X185520807Y-109770868D01*
X185502016Y-109807660D01*
X185463633Y-109833235D01*
X185399880Y-109849516D01*
X185304976Y-109858426D01*
X185173142Y-109861887D01*
X185101186Y-109862179D01*
X184777393Y-109862179D01*
X184777393Y-110179679D01*
X185276322Y-110179679D01*
X185439867Y-110179906D01*
X185564163Y-110180929D01*
X185655314Y-110183256D01*
X185719428Y-110187395D01*
X185762610Y-110193857D01*
X185790967Y-110203148D01*
X185810605Y-110215779D01*
X185820607Y-110225036D01*
X185854918Y-110279063D01*
X185865965Y-110327089D01*
X185850191Y-110385751D01*
X185820607Y-110429143D01*
X185804824Y-110442803D01*
X185784449Y-110453410D01*
X185754002Y-110461348D01*
X185708003Y-110467003D01*
X185640970Y-110470759D01*
X185547422Y-110473000D01*
X185421880Y-110474111D01*
X185258862Y-110474476D01*
X185174268Y-110474500D01*
X184993112Y-110474340D01*
X184851832Y-110473602D01*
X184744948Y-110471904D01*
X184666978Y-110468859D01*
X184612441Y-110464083D01*
X184575858Y-110457192D01*
X184551747Y-110447801D01*
X184534627Y-110435525D01*
X184527929Y-110429143D01*
X184514672Y-110413882D01*
X184504281Y-110394193D01*
X184496409Y-110364801D01*
X184490707Y-110320430D01*
X184486828Y-110255803D01*
X184484423Y-110165644D01*
X184483144Y-110044678D01*
X184482645Y-109887628D01*
X184482572Y-109741400D01*
X184482639Y-109554134D01*
X184483110Y-109406928D01*
X184484387Y-109294482D01*
X184486871Y-109211499D01*
X184490964Y-109152680D01*
X184497069Y-109112727D01*
X184505588Y-109086341D01*
X184516922Y-109068225D01*
X184531475Y-109053080D01*
X184535060Y-109049703D01*
X184552459Y-109034755D01*
X184572675Y-109023180D01*
X184601316Y-109014545D01*
X184643991Y-109008422D01*
X184706305Y-109004379D01*
X184793868Y-109001986D01*
X184912287Y-109000811D01*
X185067169Y-109000425D01*
X185177123Y-109000393D01*
X185356334Y-109000552D01*
G36*
X187407634Y-109002973D02*
X187557932Y-109013480D01*
X187697717Y-109029891D01*
X187818863Y-109051587D01*
X187913246Y-109077950D01*
X187972739Y-109108364D01*
X187981871Y-109117317D01*
X188013625Y-109186788D01*
X188003996Y-109258108D01*
X187954743Y-109319127D01*
X187952393Y-109320875D01*
X187923423Y-109339676D01*
X187893181Y-109349562D01*
X187850999Y-109350763D01*
X187786208Y-109343507D01*
X187688139Y-109328024D01*
X187680250Y-109326721D01*
X187534123Y-109308769D01*
X187376466Y-109299913D01*
X187218344Y-109299827D01*
X187070820Y-109308185D01*
X186944960Y-109324659D01*
X186851828Y-109348923D01*
X186845709Y-109351362D01*
X186778145Y-109389217D01*
X186754407Y-109427527D01*
X186772990Y-109465204D01*
X186832389Y-109501160D01*
X186931099Y-109534306D01*
X187067615Y-109563554D01*
X187158643Y-109577636D01*
X187347862Y-109604723D01*
X187498355Y-109629484D01*
X187616534Y-109654063D01*
X187708809Y-109680605D01*
X187781590Y-109711253D01*
X187841290Y-109748152D01*
X187894318Y-109793445D01*
X187936931Y-109837923D01*
X187987486Y-109899895D01*
X188012365Y-109953184D01*
X188020146Y-110018839D01*
X188020429Y-110042883D01*
X188014585Y-110122671D01*
X187991229Y-110182030D01*
X187950807Y-110234716D01*
X187868656Y-110315254D01*
X187777048Y-110376674D01*
X187669176Y-110420979D01*
X187538235Y-110450172D01*
X187377416Y-110466256D01*
X187179914Y-110471233D01*
X187147304Y-110471149D01*
X187015599Y-110468419D01*
X186884985Y-110462216D01*
X186769699Y-110453430D01*
X186683980Y-110442950D01*
X186677047Y-110441747D01*
X186591821Y-110421558D01*
X186519533Y-110396055D01*
X186478610Y-110372739D01*
X186440526Y-110311229D01*
X186437875Y-110239602D01*
X186470705Y-110175771D01*
X186478050Y-110168553D01*
X186508412Y-110147107D01*
X186546382Y-110137867D01*
X186605148Y-110139440D01*
X186676488Y-110147613D01*
X186756203Y-110154914D01*
X186867951Y-110161074D01*
X186998408Y-110165544D01*
X187134254Y-110167776D01*
X187169982Y-110167923D01*
X187306334Y-110167373D01*
X187406124Y-110164726D01*
X187478132Y-110159063D01*
X187531140Y-110149466D01*
X187573927Y-110135017D01*
X187599640Y-110122982D01*
X187656143Y-110089565D01*
X187692167Y-110059301D01*
X187697432Y-110050722D01*
X187686325Y-110015296D01*
X187633523Y-109981001D01*
X187542684Y-109949394D01*
X187417468Y-109922031D01*
X187380576Y-109915936D01*
X187187882Y-109885670D01*
X187034096Y-109860373D01*
X186913283Y-109838206D01*
X186819505Y-109817330D01*
X186746829Y-109795907D01*
X186689317Y-109772099D01*
X186641035Y-109744068D01*
X186596047Y-109709975D01*
X186548417Y-109667982D01*
X186532389Y-109653259D01*
X186476194Y-109598314D01*
X186446448Y-109554781D01*
X186434811Y-109504965D01*
X186432929Y-109442189D01*
X186453649Y-109319085D01*
X186515571Y-109214491D01*
X186618341Y-109128745D01*
X186761602Y-109062184D01*
X186863822Y-109032329D01*
X186974917Y-109013047D01*
X187108001Y-109002139D01*
X187254948Y-108998987D01*
X187407634Y-109002973D01*
X187407634Y-109002973D01*
G37*
X187407634Y-109002973D02*
X187557932Y-109013480D01*
X187697717Y-109029891D01*
X187818863Y-109051587D01*
X187913246Y-109077950D01*
X187972739Y-109108364D01*
X187981871Y-109117317D01*
X188013625Y-109186788D01*
X188003996Y-109258108D01*
X187954743Y-109319127D01*
X187952393Y-109320875D01*
X187923423Y-109339676D01*
X187893181Y-109349562D01*
X187850999Y-109350763D01*
X187786208Y-109343507D01*
X187688139Y-109328024D01*
X187680250Y-109326721D01*
X187534123Y-109308769D01*
X187376466Y-109299913D01*
X187218344Y-109299827D01*
X187070820Y-109308185D01*
X186944960Y-109324659D01*
X186851828Y-109348923D01*
X186845709Y-109351362D01*
X186778145Y-109389217D01*
X186754407Y-109427527D01*
X186772990Y-109465204D01*
X186832389Y-109501160D01*
X186931099Y-109534306D01*
X187067615Y-109563554D01*
X187158643Y-109577636D01*
X187347862Y-109604723D01*
X187498355Y-109629484D01*
X187616534Y-109654063D01*
X187708809Y-109680605D01*
X187781590Y-109711253D01*
X187841290Y-109748152D01*
X187894318Y-109793445D01*
X187936931Y-109837923D01*
X187987486Y-109899895D01*
X188012365Y-109953184D01*
X188020146Y-110018839D01*
X188020429Y-110042883D01*
X188014585Y-110122671D01*
X187991229Y-110182030D01*
X187950807Y-110234716D01*
X187868656Y-110315254D01*
X187777048Y-110376674D01*
X187669176Y-110420979D01*
X187538235Y-110450172D01*
X187377416Y-110466256D01*
X187179914Y-110471233D01*
X187147304Y-110471149D01*
X187015599Y-110468419D01*
X186884985Y-110462216D01*
X186769699Y-110453430D01*
X186683980Y-110442950D01*
X186677047Y-110441747D01*
X186591821Y-110421558D01*
X186519533Y-110396055D01*
X186478610Y-110372739D01*
X186440526Y-110311229D01*
X186437875Y-110239602D01*
X186470705Y-110175771D01*
X186478050Y-110168553D01*
X186508412Y-110147107D01*
X186546382Y-110137867D01*
X186605148Y-110139440D01*
X186676488Y-110147613D01*
X186756203Y-110154914D01*
X186867951Y-110161074D01*
X186998408Y-110165544D01*
X187134254Y-110167776D01*
X187169982Y-110167923D01*
X187306334Y-110167373D01*
X187406124Y-110164726D01*
X187478132Y-110159063D01*
X187531140Y-110149466D01*
X187573927Y-110135017D01*
X187599640Y-110122982D01*
X187656143Y-110089565D01*
X187692167Y-110059301D01*
X187697432Y-110050722D01*
X187686325Y-110015296D01*
X187633523Y-109981001D01*
X187542684Y-109949394D01*
X187417468Y-109922031D01*
X187380576Y-109915936D01*
X187187882Y-109885670D01*
X187034096Y-109860373D01*
X186913283Y-109838206D01*
X186819505Y-109817330D01*
X186746829Y-109795907D01*
X186689317Y-109772099D01*
X186641035Y-109744068D01*
X186596047Y-109709975D01*
X186548417Y-109667982D01*
X186532389Y-109653259D01*
X186476194Y-109598314D01*
X186446448Y-109554781D01*
X186434811Y-109504965D01*
X186432929Y-109442189D01*
X186453649Y-109319085D01*
X186515571Y-109214491D01*
X186618341Y-109128745D01*
X186761602Y-109062184D01*
X186863822Y-109032329D01*
X186974917Y-109013047D01*
X187108001Y-109002139D01*
X187254948Y-108998987D01*
X187407634Y-109002973D01*
G36*
X188950250Y-109045750D02*
X188963471Y-109060964D01*
X188973841Y-109080591D01*
X188981707Y-109109888D01*
X188987413Y-109154113D01*
X188991303Y-109218524D01*
X188993722Y-109308378D01*
X188995016Y-109428934D01*
X188995528Y-109585448D01*
X188995607Y-109737446D01*
X188995467Y-109925978D01*
X188994818Y-110074410D01*
X188993314Y-110188001D01*
X188990611Y-110272009D01*
X188986364Y-110331690D01*
X188980228Y-110372302D01*
X188971859Y-110399104D01*
X188960911Y-110417353D01*
X188950250Y-110429143D01*
X188883949Y-110468680D01*
X188813304Y-110465131D01*
X188750096Y-110422011D01*
X188735573Y-110405177D01*
X188724223Y-110385644D01*
X188715655Y-110358015D01*
X188709478Y-110316889D01*
X188705302Y-110256868D01*
X188702735Y-110172551D01*
X188701388Y-110058540D01*
X188700868Y-109909434D01*
X188700786Y-109740623D01*
X188700786Y-109111724D01*
X188756452Y-109056058D01*
X188825066Y-109009225D01*
X188891623Y-109007538D01*
X188950250Y-109045750D01*
X188950250Y-109045750D01*
G37*
X188950250Y-109045750D02*
X188963471Y-109060964D01*
X188973841Y-109080591D01*
X188981707Y-109109888D01*
X188987413Y-109154113D01*
X188991303Y-109218524D01*
X188993722Y-109308378D01*
X188995016Y-109428934D01*
X188995528Y-109585448D01*
X188995607Y-109737446D01*
X188995467Y-109925978D01*
X188994818Y-110074410D01*
X188993314Y-110188001D01*
X188990611Y-110272009D01*
X188986364Y-110331690D01*
X188980228Y-110372302D01*
X188971859Y-110399104D01*
X188960911Y-110417353D01*
X188950250Y-110429143D01*
X188883949Y-110468680D01*
X188813304Y-110465131D01*
X188750096Y-110422011D01*
X188735573Y-110405177D01*
X188724223Y-110385644D01*
X188715655Y-110358015D01*
X188709478Y-110316889D01*
X188705302Y-110256868D01*
X188702735Y-110172551D01*
X188701388Y-110058540D01*
X188700868Y-109909434D01*
X188700786Y-109740623D01*
X188700786Y-109111724D01*
X188756452Y-109056058D01*
X188825066Y-109009225D01*
X188891623Y-109007538D01*
X188950250Y-109045750D01*
G36*
X190906427Y-109011506D02*
X191044072Y-109034602D01*
X191149786Y-109070505D01*
X191218560Y-109117778D01*
X191237301Y-109144748D01*
X191256359Y-109207475D01*
X191243534Y-109264222D01*
X191203047Y-109318035D01*
X191140138Y-109343210D01*
X191048857Y-109341165D01*
X190978256Y-109327526D01*
X190821374Y-109301540D01*
X190661046Y-109299070D01*
X190481591Y-109320163D01*
X190432022Y-109329100D01*
X190265157Y-109376146D01*
X190134614Y-109446129D01*
X190041824Y-109537856D01*
X189988219Y-109650134D01*
X189977132Y-109708182D01*
X189984389Y-109825953D01*
X190031241Y-109930150D01*
X190113418Y-110018742D01*
X190226651Y-110089698D01*
X190366671Y-110140987D01*
X190529209Y-110170579D01*
X190709995Y-110176443D01*
X190904762Y-110156548D01*
X190915759Y-110154672D01*
X190993226Y-110140243D01*
X191036178Y-110126306D01*
X191054795Y-110105626D01*
X191059256Y-110070970D01*
X191059357Y-110052618D01*
X191059357Y-109975571D01*
X190921795Y-109975571D01*
X190800318Y-109967250D01*
X190717419Y-109940732D01*
X190669186Y-109893689D01*
X190651704Y-109823790D01*
X190651490Y-109814667D01*
X190661719Y-109754922D01*
X190696792Y-109712261D01*
X190762070Y-109684029D01*
X190862910Y-109667571D01*
X190960585Y-109661520D01*
X191102549Y-109658048D01*
X191205523Y-109663346D01*
X191275753Y-109682893D01*
X191319486Y-109722173D01*
X191342970Y-109786666D01*
X191352451Y-109881854D01*
X191354179Y-110006875D01*
X191351348Y-110146423D01*
X191342833Y-110241347D01*
X191328594Y-110292024D01*
X191325831Y-110295993D01*
X191247650Y-110359316D01*
X191133025Y-110409462D01*
X190989220Y-110445362D01*
X190823504Y-110465944D01*
X190643142Y-110470137D01*
X190455402Y-110456869D01*
X190344982Y-110440572D01*
X190171792Y-110391551D01*
X190010826Y-110311410D01*
X189876056Y-110207398D01*
X189855572Y-110186609D01*
X189789019Y-110099213D01*
X189728969Y-109990898D01*
X189682436Y-109877340D01*
X189656437Y-109774217D01*
X189653304Y-109734611D01*
X189666644Y-109651994D01*
X189702100Y-109549203D01*
X189752869Y-109441006D01*
X189812148Y-109342169D01*
X189864521Y-109276152D01*
X189986974Y-109177952D01*
X190145268Y-109099792D01*
X190333731Y-109043439D01*
X190546690Y-109010663D01*
X190741857Y-109002654D01*
X190906427Y-109011506D01*
X190906427Y-109011506D01*
G37*
X190906427Y-109011506D02*
X191044072Y-109034602D01*
X191149786Y-109070505D01*
X191218560Y-109117778D01*
X191237301Y-109144748D01*
X191256359Y-109207475D01*
X191243534Y-109264222D01*
X191203047Y-109318035D01*
X191140138Y-109343210D01*
X191048857Y-109341165D01*
X190978256Y-109327526D01*
X190821374Y-109301540D01*
X190661046Y-109299070D01*
X190481591Y-109320163D01*
X190432022Y-109329100D01*
X190265157Y-109376146D01*
X190134614Y-109446129D01*
X190041824Y-109537856D01*
X189988219Y-109650134D01*
X189977132Y-109708182D01*
X189984389Y-109825953D01*
X190031241Y-109930150D01*
X190113418Y-110018742D01*
X190226651Y-110089698D01*
X190366671Y-110140987D01*
X190529209Y-110170579D01*
X190709995Y-110176443D01*
X190904762Y-110156548D01*
X190915759Y-110154672D01*
X190993226Y-110140243D01*
X191036178Y-110126306D01*
X191054795Y-110105626D01*
X191059256Y-110070970D01*
X191059357Y-110052618D01*
X191059357Y-109975571D01*
X190921795Y-109975571D01*
X190800318Y-109967250D01*
X190717419Y-109940732D01*
X190669186Y-109893689D01*
X190651704Y-109823790D01*
X190651490Y-109814667D01*
X190661719Y-109754922D01*
X190696792Y-109712261D01*
X190762070Y-109684029D01*
X190862910Y-109667571D01*
X190960585Y-109661520D01*
X191102549Y-109658048D01*
X191205523Y-109663346D01*
X191275753Y-109682893D01*
X191319486Y-109722173D01*
X191342970Y-109786666D01*
X191352451Y-109881854D01*
X191354179Y-110006875D01*
X191351348Y-110146423D01*
X191342833Y-110241347D01*
X191328594Y-110292024D01*
X191325831Y-110295993D01*
X191247650Y-110359316D01*
X191133025Y-110409462D01*
X190989220Y-110445362D01*
X190823504Y-110465944D01*
X190643142Y-110470137D01*
X190455402Y-110456869D01*
X190344982Y-110440572D01*
X190171792Y-110391551D01*
X190010826Y-110311410D01*
X189876056Y-110207398D01*
X189855572Y-110186609D01*
X189789019Y-110099213D01*
X189728969Y-109990898D01*
X189682436Y-109877340D01*
X189656437Y-109774217D01*
X189653304Y-109734611D01*
X189666644Y-109651994D01*
X189702100Y-109549203D01*
X189752869Y-109441006D01*
X189812148Y-109342169D01*
X189864521Y-109276152D01*
X189986974Y-109177952D01*
X190145268Y-109099792D01*
X190333731Y-109043439D01*
X190546690Y-109010663D01*
X190741857Y-109002654D01*
X190906427Y-109011506D01*
G36*
X192212165Y-109009195D02*
X192259507Y-109036967D01*
X192321408Y-109082385D01*
X192401077Y-109147589D01*
X192501720Y-109234717D01*
X192626548Y-109345910D01*
X192778768Y-109483307D01*
X192953018Y-109641276D01*
X193315875Y-109970327D01*
X193327215Y-109528665D01*
X193331309Y-109376634D01*
X193335258Y-109263417D01*
X193339938Y-109182480D01*
X193346221Y-109127293D01*
X193354982Y-109091322D01*
X193367094Y-109068035D01*
X193383431Y-109050899D01*
X193392093Y-109043698D01*
X193461463Y-109005623D01*
X193527473Y-109011190D01*
X193579836Y-109043717D01*
X193633375Y-109087042D01*
X193640034Y-109719759D01*
X193641877Y-109905841D01*
X193642815Y-110052021D01*
X193642523Y-110163751D01*
X193640677Y-110246482D01*
X193636950Y-110305666D01*
X193631020Y-110346753D01*
X193622560Y-110375196D01*
X193611247Y-110396445D01*
X193598700Y-110413488D01*
X193571556Y-110445095D01*
X193544547Y-110466046D01*
X193513930Y-110474088D01*
X193475957Y-110466965D01*
X193426882Y-110442426D01*
X193362960Y-110398214D01*
X193280445Y-110332076D01*
X193175590Y-110241759D01*
X193044649Y-110125008D01*
X192896322Y-109990859D01*
X192363375Y-109507429D01*
X192352036Y-109947647D01*
X192347935Y-110099401D01*
X192343975Y-110212354D01*
X192339279Y-110293052D01*
X192332967Y-110348041D01*
X192324163Y-110383865D01*
X192311988Y-110407070D01*
X192295563Y-110424201D01*
X192287157Y-110431183D01*
X192212866Y-110469534D01*
X192142668Y-110463749D01*
X192081539Y-110414745D01*
X192067555Y-110395030D01*
X192056656Y-110372006D01*
X192048459Y-110340149D01*
X192042580Y-110293935D01*
X192038636Y-110227840D01*
X192036244Y-110136339D01*
X192035021Y-110013911D01*
X192034582Y-109855029D01*
X192034536Y-109737446D01*
X192034683Y-109553533D01*
X192035381Y-109409452D01*
X192037013Y-109299680D01*
X192039961Y-109218693D01*
X192044611Y-109160968D01*
X192051343Y-109120981D01*
X192060543Y-109093207D01*
X192072594Y-109072123D01*
X192081539Y-109060148D01*
X192104214Y-109031780D01*
X192125405Y-109010362D01*
X192148322Y-108998032D01*
X192176172Y-108996930D01*
X192212165Y-109009195D01*
X192212165Y-109009195D01*
G37*
X192212165Y-109009195D02*
X192259507Y-109036967D01*
X192321408Y-109082385D01*
X192401077Y-109147589D01*
X192501720Y-109234717D01*
X192626548Y-109345910D01*
X192778768Y-109483307D01*
X192953018Y-109641276D01*
X193315875Y-109970327D01*
X193327215Y-109528665D01*
X193331309Y-109376634D01*
X193335258Y-109263417D01*
X193339938Y-109182480D01*
X193346221Y-109127293D01*
X193354982Y-109091322D01*
X193367094Y-109068035D01*
X193383431Y-109050899D01*
X193392093Y-109043698D01*
X193461463Y-109005623D01*
X193527473Y-109011190D01*
X193579836Y-109043717D01*
X193633375Y-109087042D01*
X193640034Y-109719759D01*
X193641877Y-109905841D01*
X193642815Y-110052021D01*
X193642523Y-110163751D01*
X193640677Y-110246482D01*
X193636950Y-110305666D01*
X193631020Y-110346753D01*
X193622560Y-110375196D01*
X193611247Y-110396445D01*
X193598700Y-110413488D01*
X193571556Y-110445095D01*
X193544547Y-110466046D01*
X193513930Y-110474088D01*
X193475957Y-110466965D01*
X193426882Y-110442426D01*
X193362960Y-110398214D01*
X193280445Y-110332076D01*
X193175590Y-110241759D01*
X193044649Y-110125008D01*
X192896322Y-109990859D01*
X192363375Y-109507429D01*
X192352036Y-109947647D01*
X192347935Y-110099401D01*
X192343975Y-110212354D01*
X192339279Y-110293052D01*
X192332967Y-110348041D01*
X192324163Y-110383865D01*
X192311988Y-110407070D01*
X192295563Y-110424201D01*
X192287157Y-110431183D01*
X192212866Y-110469534D01*
X192142668Y-110463749D01*
X192081539Y-110414745D01*
X192067555Y-110395030D01*
X192056656Y-110372006D01*
X192048459Y-110340149D01*
X192042580Y-110293935D01*
X192038636Y-110227840D01*
X192036244Y-110136339D01*
X192035021Y-110013911D01*
X192034582Y-109855029D01*
X192034536Y-109737446D01*
X192034683Y-109553533D01*
X192035381Y-109409452D01*
X192037013Y-109299680D01*
X192039961Y-109218693D01*
X192044611Y-109160968D01*
X192051343Y-109120981D01*
X192060543Y-109093207D01*
X192072594Y-109072123D01*
X192081539Y-109060148D01*
X192104214Y-109031780D01*
X192125405Y-109010362D01*
X192148322Y-108998032D01*
X192176172Y-108996930D01*
X192212165Y-109009195D01*
G36*
X195286743Y-109000780D02*
X195440142Y-109002617D01*
X195557695Y-109006911D01*
X195644156Y-109014672D01*
X195704280Y-109026910D01*
X195742820Y-109044635D01*
X195764532Y-109068856D01*
X195774170Y-109100582D01*
X195776488Y-109140823D01*
X195776500Y-109145575D01*
X195774488Y-109191091D01*
X195764975Y-109226269D01*
X195742751Y-109252528D01*
X195702602Y-109271289D01*
X195639316Y-109283973D01*
X195547682Y-109291999D01*
X195422487Y-109296789D01*
X195258519Y-109299761D01*
X195208263Y-109300420D01*
X194721947Y-109306554D01*
X194715145Y-109436955D01*
X194708344Y-109567357D01*
X195046139Y-109567357D01*
X195178107Y-109567844D01*
X195272337Y-109569903D01*
X195336445Y-109574432D01*
X195378044Y-109582330D01*
X195404750Y-109594495D01*
X195424178Y-109611825D01*
X195424302Y-109611963D01*
X195459537Y-109679501D01*
X195458263Y-109752498D01*
X195421284Y-109814725D01*
X195413965Y-109821121D01*
X195387990Y-109837605D01*
X195352397Y-109849073D01*
X195299253Y-109856388D01*
X195220628Y-109860415D01*
X195108590Y-109862017D01*
X195036934Y-109862179D01*
X194710607Y-109862179D01*
X194710607Y-110179679D01*
X195206021Y-110179679D01*
X195369586Y-110179965D01*
X195493797Y-110181134D01*
X195584655Y-110183654D01*
X195648160Y-110187992D01*
X195690313Y-110194614D01*
X195717116Y-110203987D01*
X195734569Y-110216579D01*
X195738967Y-110221152D01*
X195771440Y-110284526D01*
X195773816Y-110356624D01*
X195747175Y-110419135D01*
X195726097Y-110439196D01*
X195704170Y-110450240D01*
X195670195Y-110458785D01*
X195618798Y-110465129D01*
X195544605Y-110469572D01*
X195442241Y-110472413D01*
X195306333Y-110473952D01*
X195131505Y-110474487D01*
X195091980Y-110474500D01*
X194914224Y-110474384D01*
X194776242Y-110473742D01*
X194672456Y-110472134D01*
X194597283Y-110469121D01*
X194545141Y-110464263D01*
X194510451Y-110457121D01*
X194487630Y-110447254D01*
X194471097Y-110434223D01*
X194462027Y-110424866D01*
X194448374Y-110408294D01*
X194437708Y-110387764D01*
X194429660Y-110357893D01*
X194423864Y-110313298D01*
X194419953Y-110248594D01*
X194417557Y-110158397D01*
X194416310Y-110037324D01*
X194415844Y-109879990D01*
X194415786Y-109747568D01*
X194415929Y-109562012D01*
X194416606Y-109416342D01*
X194418192Y-109305088D01*
X194421061Y-109222778D01*
X194425587Y-109163943D01*
X194432144Y-109123111D01*
X194441106Y-109094812D01*
X194452847Y-109073575D01*
X194462789Y-109060148D01*
X194509792Y-109000393D01*
X195092743Y-109000393D01*
X195286743Y-109000780D01*
X195286743Y-109000780D01*
G37*
X195286743Y-109000780D02*
X195440142Y-109002617D01*
X195557695Y-109006911D01*
X195644156Y-109014672D01*
X195704280Y-109026910D01*
X195742820Y-109044635D01*
X195764532Y-109068856D01*
X195774170Y-109100582D01*
X195776488Y-109140823D01*
X195776500Y-109145575D01*
X195774488Y-109191091D01*
X195764975Y-109226269D01*
X195742751Y-109252528D01*
X195702602Y-109271289D01*
X195639316Y-109283973D01*
X195547682Y-109291999D01*
X195422487Y-109296789D01*
X195258519Y-109299761D01*
X195208263Y-109300420D01*
X194721947Y-109306554D01*
X194715145Y-109436955D01*
X194708344Y-109567357D01*
X195046139Y-109567357D01*
X195178107Y-109567844D01*
X195272337Y-109569903D01*
X195336445Y-109574432D01*
X195378044Y-109582330D01*
X195404750Y-109594495D01*
X195424178Y-109611825D01*
X195424302Y-109611963D01*
X195459537Y-109679501D01*
X195458263Y-109752498D01*
X195421284Y-109814725D01*
X195413965Y-109821121D01*
X195387990Y-109837605D01*
X195352397Y-109849073D01*
X195299253Y-109856388D01*
X195220628Y-109860415D01*
X195108590Y-109862017D01*
X195036934Y-109862179D01*
X194710607Y-109862179D01*
X194710607Y-110179679D01*
X195206021Y-110179679D01*
X195369586Y-110179965D01*
X195493797Y-110181134D01*
X195584655Y-110183654D01*
X195648160Y-110187992D01*
X195690313Y-110194614D01*
X195717116Y-110203987D01*
X195734569Y-110216579D01*
X195738967Y-110221152D01*
X195771440Y-110284526D01*
X195773816Y-110356624D01*
X195747175Y-110419135D01*
X195726097Y-110439196D01*
X195704170Y-110450240D01*
X195670195Y-110458785D01*
X195618798Y-110465129D01*
X195544605Y-110469572D01*
X195442241Y-110472413D01*
X195306333Y-110473952D01*
X195131505Y-110474487D01*
X195091980Y-110474500D01*
X194914224Y-110474384D01*
X194776242Y-110473742D01*
X194672456Y-110472134D01*
X194597283Y-110469121D01*
X194545141Y-110464263D01*
X194510451Y-110457121D01*
X194487630Y-110447254D01*
X194471097Y-110434223D01*
X194462027Y-110424866D01*
X194448374Y-110408294D01*
X194437708Y-110387764D01*
X194429660Y-110357893D01*
X194423864Y-110313298D01*
X194419953Y-110248594D01*
X194417557Y-110158397D01*
X194416310Y-110037324D01*
X194415844Y-109879990D01*
X194415786Y-109747568D01*
X194415929Y-109562012D01*
X194416606Y-109416342D01*
X194418192Y-109305088D01*
X194421061Y-109222778D01*
X194425587Y-109163943D01*
X194432144Y-109123111D01*
X194441106Y-109094812D01*
X194452847Y-109073575D01*
X194462789Y-109060148D01*
X194509792Y-109000393D01*
X195092743Y-109000393D01*
X195286743Y-109000780D01*
G36*
X196869710Y-109000811D02*
X197128821Y-109009572D01*
X197349206Y-109036140D01*
X197534499Y-109082105D01*
X197688335Y-109149060D01*
X197814346Y-109238593D01*
X197916167Y-109352296D01*
X197997431Y-109491759D01*
X197999030Y-109495160D01*
X198047529Y-109619979D01*
X198064809Y-109730523D01*
X198050805Y-109841774D01*
X198005448Y-109968710D01*
X197996846Y-109988026D01*
X197938186Y-110101083D01*
X197872260Y-110188442D01*
X197787174Y-110262704D01*
X197671034Y-110336468D01*
X197664287Y-110340319D01*
X197563184Y-110388885D01*
X197448909Y-110425156D01*
X197314121Y-110450383D01*
X197151475Y-110465816D01*
X196953629Y-110472708D01*
X196883727Y-110473307D01*
X196550864Y-110474500D01*
X196503861Y-110414745D01*
X196489918Y-110395096D01*
X196479041Y-110372150D01*
X196470851Y-110340406D01*
X196464967Y-110294359D01*
X196461011Y-110228510D01*
X196459721Y-110179679D01*
X196774357Y-110179679D01*
X196962960Y-110179679D01*
X197073325Y-110176451D01*
X197186621Y-110167958D01*
X197279605Y-110155980D01*
X197285218Y-110154971D01*
X197450370Y-110110665D01*
X197578470Y-110044099D01*
X197673570Y-109952184D01*
X197739723Y-109831832D01*
X197751227Y-109799935D01*
X197762502Y-109750257D01*
X197757620Y-109701177D01*
X197733867Y-109635884D01*
X197719549Y-109603809D01*
X197672662Y-109518574D01*
X197616171Y-109458776D01*
X197554015Y-109417134D01*
X197429512Y-109362945D01*
X197270174Y-109323692D01*
X197084553Y-109301089D01*
X196950116Y-109296114D01*
X196774357Y-109295214D01*
X196774357Y-110179679D01*
X196459721Y-110179679D01*
X196458602Y-110137355D01*
X196457361Y-110015392D01*
X196456908Y-109857118D01*
X196456857Y-109733357D01*
X196456857Y-109111724D01*
X196512523Y-109056058D01*
X196537228Y-109033495D01*
X196563941Y-109018043D01*
X196601244Y-109008375D01*
X196657723Y-109003164D01*
X196741958Y-109001082D01*
X196862535Y-109000801D01*
X196869710Y-109000811D01*
X196869710Y-109000811D01*
G37*
X196869710Y-109000811D02*
X197128821Y-109009572D01*
X197349206Y-109036140D01*
X197534499Y-109082105D01*
X197688335Y-109149060D01*
X197814346Y-109238593D01*
X197916167Y-109352296D01*
X197997431Y-109491759D01*
X197999030Y-109495160D01*
X198047529Y-109619979D01*
X198064809Y-109730523D01*
X198050805Y-109841774D01*
X198005448Y-109968710D01*
X197996846Y-109988026D01*
X197938186Y-110101083D01*
X197872260Y-110188442D01*
X197787174Y-110262704D01*
X197671034Y-110336468D01*
X197664287Y-110340319D01*
X197563184Y-110388885D01*
X197448909Y-110425156D01*
X197314121Y-110450383D01*
X197151475Y-110465816D01*
X196953629Y-110472708D01*
X196883727Y-110473307D01*
X196550864Y-110474500D01*
X196503861Y-110414745D01*
X196489918Y-110395096D01*
X196479041Y-110372150D01*
X196470851Y-110340406D01*
X196464967Y-110294359D01*
X196461011Y-110228510D01*
X196459721Y-110179679D01*
X196774357Y-110179679D01*
X196962960Y-110179679D01*
X197073325Y-110176451D01*
X197186621Y-110167958D01*
X197279605Y-110155980D01*
X197285218Y-110154971D01*
X197450370Y-110110665D01*
X197578470Y-110044099D01*
X197673570Y-109952184D01*
X197739723Y-109831832D01*
X197751227Y-109799935D01*
X197762502Y-109750257D01*
X197757620Y-109701177D01*
X197733867Y-109635884D01*
X197719549Y-109603809D01*
X197672662Y-109518574D01*
X197616171Y-109458776D01*
X197554015Y-109417134D01*
X197429512Y-109362945D01*
X197270174Y-109323692D01*
X197084553Y-109301089D01*
X196950116Y-109296114D01*
X196774357Y-109295214D01*
X196774357Y-110179679D01*
X196459721Y-110179679D01*
X196458602Y-110137355D01*
X196457361Y-110015392D01*
X196456908Y-109857118D01*
X196456857Y-109733357D01*
X196456857Y-109111724D01*
X196512523Y-109056058D01*
X196537228Y-109033495D01*
X196563941Y-109018043D01*
X196601244Y-109008375D01*
X196657723Y-109003164D01*
X196741958Y-109001082D01*
X196862535Y-109000801D01*
X196869710Y-109000811D01*
G36*
X202346765Y-109004345D02*
X202386119Y-109018409D01*
X202387638Y-109019097D01*
X202441080Y-109059881D01*
X202470525Y-109101832D01*
X202476287Y-109121501D01*
X202476002Y-109147637D01*
X202467895Y-109184868D01*
X202450188Y-109237828D01*
X202421104Y-109311145D01*
X202378867Y-109409451D01*
X202321700Y-109537376D01*
X202247826Y-109699552D01*
X202207164Y-109788193D01*
X202133739Y-109946435D01*
X202064811Y-110091957D01*
X202003012Y-110219437D01*
X201950971Y-110323556D01*
X201911321Y-110398993D01*
X201886691Y-110440428D01*
X201881817Y-110446152D01*
X201819458Y-110471402D01*
X201749020Y-110468020D01*
X201692528Y-110437310D01*
X201690226Y-110434812D01*
X201667754Y-110400792D01*
X201630058Y-110334528D01*
X201581786Y-110244549D01*
X201527588Y-110139386D01*
X201508110Y-110100633D01*
X201361082Y-109806140D01*
X201200823Y-110126049D01*
X201143621Y-110236583D01*
X201090551Y-110332444D01*
X201045949Y-110406293D01*
X201014150Y-110450793D01*
X201003373Y-110460229D01*
X200919606Y-110473009D01*
X200850484Y-110446152D01*
X200830151Y-110417449D01*
X200794966Y-110353658D01*
X200747799Y-110261056D01*
X200691520Y-110145920D01*
X200628999Y-110014526D01*
X200563107Y-109873152D01*
X200496714Y-109728074D01*
X200432690Y-109585570D01*
X200373906Y-109451917D01*
X200323232Y-109333391D01*
X200283538Y-109236269D01*
X200257695Y-109166829D01*
X200248572Y-109131347D01*
X200248665Y-109130062D01*
X200270861Y-109085414D01*
X200315226Y-109039940D01*
X200317839Y-109037962D01*
X200372366Y-109007140D01*
X200422801Y-109007438D01*
X200441704Y-109013249D01*
X200464739Y-109025807D01*
X200489200Y-109050511D01*
X200518022Y-109092484D01*
X200554140Y-109156852D01*
X200600488Y-109248740D01*
X200659999Y-109373271D01*
X200713667Y-109488223D01*
X200775412Y-109621472D01*
X200830740Y-109741300D01*
X200876777Y-109841448D01*
X200910650Y-109915655D01*
X200929482Y-109957661D01*
X200932229Y-109964232D01*
X200944582Y-109953490D01*
X200972973Y-109908513D01*
X201013625Y-109835865D01*
X201062759Y-109742111D01*
X201082311Y-109703429D01*
X201148545Y-109572812D01*
X201199624Y-109477688D01*
X201239740Y-109412529D01*
X201273084Y-109371802D01*
X201303849Y-109349978D01*
X201336225Y-109341526D01*
X201357324Y-109340571D01*
X201394542Y-109343869D01*
X201427156Y-109357509D01*
X201459562Y-109387111D01*
X201496156Y-109438293D01*
X201541334Y-109516675D01*
X201599492Y-109627877D01*
X201631580Y-109691135D01*
X201683628Y-109791952D01*
X201729024Y-109875557D01*
X201763760Y-109934897D01*
X201783833Y-109962916D01*
X201786563Y-109964083D01*
X201799526Y-109942031D01*
X201828549Y-109884770D01*
X201870725Y-109798293D01*
X201923148Y-109688593D01*
X201982911Y-109561663D01*
X202012309Y-109498616D01*
X202088788Y-109335907D01*
X202150372Y-109210706D01*
X202200258Y-109118928D01*
X202241643Y-109056487D01*
X202277724Y-109019300D01*
X202311699Y-109003281D01*
X202346765Y-109004345D01*
X202346765Y-109004345D01*
G37*
X202346765Y-109004345D02*
X202386119Y-109018409D01*
X202387638Y-109019097D01*
X202441080Y-109059881D01*
X202470525Y-109101832D01*
X202476287Y-109121501D01*
X202476002Y-109147637D01*
X202467895Y-109184868D01*
X202450188Y-109237828D01*
X202421104Y-109311145D01*
X202378867Y-109409451D01*
X202321700Y-109537376D01*
X202247826Y-109699552D01*
X202207164Y-109788193D01*
X202133739Y-109946435D01*
X202064811Y-110091957D01*
X202003012Y-110219437D01*
X201950971Y-110323556D01*
X201911321Y-110398993D01*
X201886691Y-110440428D01*
X201881817Y-110446152D01*
X201819458Y-110471402D01*
X201749020Y-110468020D01*
X201692528Y-110437310D01*
X201690226Y-110434812D01*
X201667754Y-110400792D01*
X201630058Y-110334528D01*
X201581786Y-110244549D01*
X201527588Y-110139386D01*
X201508110Y-110100633D01*
X201361082Y-109806140D01*
X201200823Y-110126049D01*
X201143621Y-110236583D01*
X201090551Y-110332444D01*
X201045949Y-110406293D01*
X201014150Y-110450793D01*
X201003373Y-110460229D01*
X200919606Y-110473009D01*
X200850484Y-110446152D01*
X200830151Y-110417449D01*
X200794966Y-110353658D01*
X200747799Y-110261056D01*
X200691520Y-110145920D01*
X200628999Y-110014526D01*
X200563107Y-109873152D01*
X200496714Y-109728074D01*
X200432690Y-109585570D01*
X200373906Y-109451917D01*
X200323232Y-109333391D01*
X200283538Y-109236269D01*
X200257695Y-109166829D01*
X200248572Y-109131347D01*
X200248665Y-109130062D01*
X200270861Y-109085414D01*
X200315226Y-109039940D01*
X200317839Y-109037962D01*
X200372366Y-109007140D01*
X200422801Y-109007438D01*
X200441704Y-109013249D01*
X200464739Y-109025807D01*
X200489200Y-109050511D01*
X200518022Y-109092484D01*
X200554140Y-109156852D01*
X200600488Y-109248740D01*
X200659999Y-109373271D01*
X200713667Y-109488223D01*
X200775412Y-109621472D01*
X200830740Y-109741300D01*
X200876777Y-109841448D01*
X200910650Y-109915655D01*
X200929482Y-109957661D01*
X200932229Y-109964232D01*
X200944582Y-109953490D01*
X200972973Y-109908513D01*
X201013625Y-109835865D01*
X201062759Y-109742111D01*
X201082311Y-109703429D01*
X201148545Y-109572812D01*
X201199624Y-109477688D01*
X201239740Y-109412529D01*
X201273084Y-109371802D01*
X201303849Y-109349978D01*
X201336225Y-109341526D01*
X201357324Y-109340571D01*
X201394542Y-109343869D01*
X201427156Y-109357509D01*
X201459562Y-109387111D01*
X201496156Y-109438293D01*
X201541334Y-109516675D01*
X201599492Y-109627877D01*
X201631580Y-109691135D01*
X201683628Y-109791952D01*
X201729024Y-109875557D01*
X201763760Y-109934897D01*
X201783833Y-109962916D01*
X201786563Y-109964083D01*
X201799526Y-109942031D01*
X201828549Y-109884770D01*
X201870725Y-109798293D01*
X201923148Y-109688593D01*
X201982911Y-109561663D01*
X202012309Y-109498616D01*
X202088788Y-109335907D01*
X202150372Y-109210706D01*
X202200258Y-109118928D01*
X202241643Y-109056487D01*
X202277724Y-109019300D01*
X202311699Y-109003281D01*
X202346765Y-109004345D01*
G36*
X203238627Y-109014074D02*
X203286265Y-109043746D01*
X203339804Y-109087100D01*
X203339804Y-109733062D01*
X203339633Y-109922015D01*
X203338903Y-110070881D01*
X203337285Y-110184932D01*
X203334451Y-110269436D01*
X203330072Y-110329663D01*
X203323821Y-110370885D01*
X203315369Y-110398370D01*
X203304388Y-110417390D01*
X203296601Y-110426762D01*
X203233443Y-110467931D01*
X203161523Y-110466252D01*
X203098522Y-110431147D01*
X203044982Y-110387793D01*
X203044982Y-109087100D01*
X203098522Y-109043746D01*
X203150195Y-109012210D01*
X203192393Y-109000393D01*
X203238627Y-109014074D01*
X203238627Y-109014074D01*
G37*
X203238627Y-109014074D02*
X203286265Y-109043746D01*
X203339804Y-109087100D01*
X203339804Y-109733062D01*
X203339633Y-109922015D01*
X203338903Y-110070881D01*
X203337285Y-110184932D01*
X203334451Y-110269436D01*
X203330072Y-110329663D01*
X203323821Y-110370885D01*
X203315369Y-110398370D01*
X203304388Y-110417390D01*
X203296601Y-110426762D01*
X203233443Y-110467931D01*
X203161523Y-110466252D01*
X203098522Y-110431147D01*
X203044982Y-110387793D01*
X203044982Y-109087100D01*
X203098522Y-109043746D01*
X203150195Y-109012210D01*
X203192393Y-109000393D01*
X203238627Y-109014074D01*
G36*
X204794443Y-109000587D02*
X204952561Y-109001347D01*
X205075288Y-109002937D01*
X205167606Y-109005622D01*
X205234499Y-109009667D01*
X205280948Y-109015337D01*
X205311937Y-109022897D01*
X205332448Y-109032612D01*
X205342374Y-109040080D01*
X205393891Y-109105442D01*
X205400123Y-109173305D01*
X205368287Y-109234954D01*
X205347468Y-109259589D01*
X205325065Y-109276387D01*
X205292597Y-109286847D01*
X205241586Y-109292472D01*
X205163550Y-109294760D01*
X205050010Y-109295212D01*
X205027711Y-109295214D01*
X204734536Y-109295214D01*
X204734536Y-109839500D01*
X204734343Y-110011059D01*
X204733466Y-110143066D01*
X204731458Y-110241322D01*
X204727874Y-110311633D01*
X204722267Y-110359800D01*
X204714191Y-110391628D01*
X204703198Y-110412919D01*
X204689179Y-110429143D01*
X204623019Y-110469011D01*
X204553954Y-110465869D01*
X204491320Y-110420382D01*
X204486718Y-110414745D01*
X204471737Y-110393435D01*
X204460323Y-110368502D01*
X204451994Y-110333886D01*
X204446267Y-110283530D01*
X204442659Y-110211375D01*
X204440686Y-110111363D01*
X204439866Y-109977435D01*
X204439715Y-109825102D01*
X204439715Y-109295214D01*
X204159747Y-109295214D01*
X204039602Y-109294401D01*
X203956425Y-109291233D01*
X203901843Y-109284616D01*
X203867486Y-109273456D01*
X203844980Y-109256661D01*
X203842247Y-109253741D01*
X203809386Y-109186967D01*
X203812292Y-109111477D01*
X203850072Y-109045750D01*
X203864682Y-109033001D01*
X203883520Y-109022892D01*
X203911608Y-109015117D01*
X203953970Y-109009372D01*
X204015630Y-109005351D01*
X204101612Y-109002749D01*
X204216938Y-109001259D01*
X204366632Y-109000576D01*
X204555718Y-109000396D01*
X204595952Y-109000393D01*
X204794443Y-109000587D01*
X204794443Y-109000587D01*
G37*
X204794443Y-109000587D02*
X204952561Y-109001347D01*
X205075288Y-109002937D01*
X205167606Y-109005622D01*
X205234499Y-109009667D01*
X205280948Y-109015337D01*
X205311937Y-109022897D01*
X205332448Y-109032612D01*
X205342374Y-109040080D01*
X205393891Y-109105442D01*
X205400123Y-109173305D01*
X205368287Y-109234954D01*
X205347468Y-109259589D01*
X205325065Y-109276387D01*
X205292597Y-109286847D01*
X205241586Y-109292472D01*
X205163550Y-109294760D01*
X205050010Y-109295212D01*
X205027711Y-109295214D01*
X204734536Y-109295214D01*
X204734536Y-109839500D01*
X204734343Y-110011059D01*
X204733466Y-110143066D01*
X204731458Y-110241322D01*
X204727874Y-110311633D01*
X204722267Y-110359800D01*
X204714191Y-110391628D01*
X204703198Y-110412919D01*
X204689179Y-110429143D01*
X204623019Y-110469011D01*
X204553954Y-110465869D01*
X204491320Y-110420382D01*
X204486718Y-110414745D01*
X204471737Y-110393435D01*
X204460323Y-110368502D01*
X204451994Y-110333886D01*
X204446267Y-110283530D01*
X204442659Y-110211375D01*
X204440686Y-110111363D01*
X204439866Y-109977435D01*
X204439715Y-109825102D01*
X204439715Y-109295214D01*
X204159747Y-109295214D01*
X204039602Y-109294401D01*
X203956425Y-109291233D01*
X203901843Y-109284616D01*
X203867486Y-109273456D01*
X203844980Y-109256661D01*
X203842247Y-109253741D01*
X203809386Y-109186967D01*
X203812292Y-109111477D01*
X203850072Y-109045750D01*
X203864682Y-109033001D01*
X203883520Y-109022892D01*
X203911608Y-109015117D01*
X203953970Y-109009372D01*
X204015630Y-109005351D01*
X204101612Y-109002749D01*
X204216938Y-109001259D01*
X204366632Y-109000576D01*
X204555718Y-109000396D01*
X204595952Y-109000393D01*
X204794443Y-109000587D01*
G36*
X207337262Y-109011374D02*
X207400299Y-109056058D01*
X207455965Y-109111724D01*
X207455965Y-109733357D01*
X207455819Y-109917936D01*
X207455130Y-110062660D01*
X207453517Y-110173032D01*
X207450600Y-110254553D01*
X207446002Y-110312726D01*
X207439341Y-110353054D01*
X207430238Y-110381037D01*
X207418314Y-110402180D01*
X207408961Y-110414745D01*
X207347225Y-110464112D01*
X207276337Y-110469470D01*
X207211546Y-110439196D01*
X207190137Y-110421323D01*
X207175826Y-110397582D01*
X207167194Y-110359352D01*
X207162822Y-110298010D01*
X207161290Y-110204937D01*
X207161143Y-110133035D01*
X207161143Y-109862179D01*
X206163286Y-109862179D01*
X206163286Y-110108584D01*
X206162254Y-110221259D01*
X206158126Y-110298695D01*
X206149351Y-110350985D01*
X206134382Y-110388221D01*
X206116283Y-110414745D01*
X206054201Y-110463973D01*
X205983992Y-110469802D01*
X205916779Y-110434812D01*
X205898428Y-110416470D01*
X205885468Y-110392154D01*
X205876919Y-110354278D01*
X205871805Y-110295255D01*
X205869149Y-110207499D01*
X205867971Y-110083423D01*
X205867834Y-110054946D01*
X205866862Y-109821169D01*
X205866361Y-109628505D01*
X205866524Y-109472712D01*
X205867545Y-109349548D01*
X205869617Y-109254770D01*
X205872933Y-109184136D01*
X205877687Y-109133403D01*
X205884071Y-109098329D01*
X205892280Y-109074670D01*
X205902507Y-109058186D01*
X205913822Y-109045750D01*
X205977829Y-109005971D01*
X206044583Y-109011374D01*
X206107620Y-109056058D01*
X206133129Y-109084887D01*
X206149389Y-109116732D01*
X206158461Y-109162085D01*
X206162406Y-109231443D01*
X206163285Y-109335299D01*
X206163286Y-109339541D01*
X206163286Y-109567357D01*
X207161143Y-109567357D01*
X207161143Y-109329232D01*
X207162161Y-109219528D01*
X207166251Y-109145453D01*
X207174965Y-109097304D01*
X207189855Y-109065378D01*
X207206500Y-109045750D01*
X207270507Y-109005971D01*
X207337262Y-109011374D01*
X207337262Y-109011374D01*
G37*
X207337262Y-109011374D02*
X207400299Y-109056058D01*
X207455965Y-109111724D01*
X207455965Y-109733357D01*
X207455819Y-109917936D01*
X207455130Y-110062660D01*
X207453517Y-110173032D01*
X207450600Y-110254553D01*
X207446002Y-110312726D01*
X207439341Y-110353054D01*
X207430238Y-110381037D01*
X207418314Y-110402180D01*
X207408961Y-110414745D01*
X207347225Y-110464112D01*
X207276337Y-110469470D01*
X207211546Y-110439196D01*
X207190137Y-110421323D01*
X207175826Y-110397582D01*
X207167194Y-110359352D01*
X207162822Y-110298010D01*
X207161290Y-110204937D01*
X207161143Y-110133035D01*
X207161143Y-109862179D01*
X206163286Y-109862179D01*
X206163286Y-110108584D01*
X206162254Y-110221259D01*
X206158126Y-110298695D01*
X206149351Y-110350985D01*
X206134382Y-110388221D01*
X206116283Y-110414745D01*
X206054201Y-110463973D01*
X205983992Y-110469802D01*
X205916779Y-110434812D01*
X205898428Y-110416470D01*
X205885468Y-110392154D01*
X205876919Y-110354278D01*
X205871805Y-110295255D01*
X205869149Y-110207499D01*
X205867971Y-110083423D01*
X205867834Y-110054946D01*
X205866862Y-109821169D01*
X205866361Y-109628505D01*
X205866524Y-109472712D01*
X205867545Y-109349548D01*
X205869617Y-109254770D01*
X205872933Y-109184136D01*
X205877687Y-109133403D01*
X205884071Y-109098329D01*
X205892280Y-109074670D01*
X205902507Y-109058186D01*
X205913822Y-109045750D01*
X205977829Y-109005971D01*
X206044583Y-109011374D01*
X206107620Y-109056058D01*
X206133129Y-109084887D01*
X206149389Y-109116732D01*
X206158461Y-109162085D01*
X206162406Y-109231443D01*
X206163285Y-109335299D01*
X206163286Y-109339541D01*
X206163286Y-109567357D01*
X207161143Y-109567357D01*
X207161143Y-109329232D01*
X207162161Y-109219528D01*
X207166251Y-109145453D01*
X207174965Y-109097304D01*
X207189855Y-109065378D01*
X207206500Y-109045750D01*
X207270507Y-109005971D01*
X207337262Y-109011374D01*
G36*
X188904893Y-99397689D02*
X188926720Y-99626585D01*
X188990237Y-99842791D01*
X189092497Y-100041673D01*
X189230554Y-100218597D01*
X189401462Y-100368929D01*
X189596302Y-100485181D01*
X189809788Y-100564777D01*
X190024771Y-100602080D01*
X190237014Y-100599791D01*
X190442276Y-100560609D01*
X190636320Y-100487234D01*
X190814907Y-100382368D01*
X190973796Y-100248708D01*
X191108750Y-100088957D01*
X191215529Y-99905814D01*
X191289895Y-99701978D01*
X191327608Y-99480151D01*
X191331500Y-99379914D01*
X191331500Y-99203250D01*
X191435822Y-99203250D01*
X191508761Y-99208965D01*
X191562796Y-99232669D01*
X191617250Y-99280357D01*
X191694357Y-99357464D01*
X191694357Y-103760173D01*
X191694339Y-104286789D01*
X191694274Y-104769939D01*
X191694146Y-105211515D01*
X191693938Y-105613409D01*
X191693634Y-105977512D01*
X191693217Y-106305715D01*
X191692672Y-106599911D01*
X191691981Y-106861990D01*
X191691128Y-107093845D01*
X191690098Y-107297366D01*
X191688873Y-107474446D01*
X191687437Y-107626976D01*
X191685774Y-107756847D01*
X191683867Y-107865951D01*
X191681701Y-107956179D01*
X191679258Y-108029424D01*
X191676522Y-108087576D01*
X191673477Y-108132528D01*
X191670107Y-108166170D01*
X191666394Y-108190395D01*
X191662324Y-108207093D01*
X191657878Y-108218157D01*
X191655704Y-108221874D01*
X191647341Y-108235960D01*
X191640240Y-108248911D01*
X191632547Y-108260772D01*
X191622407Y-108271593D01*
X191607966Y-108281420D01*
X191587369Y-108290300D01*
X191558761Y-108298282D01*
X191520289Y-108305412D01*
X191470097Y-108311738D01*
X191406331Y-108317308D01*
X191327136Y-108322168D01*
X191230658Y-108326366D01*
X191115042Y-108329950D01*
X190978435Y-108332968D01*
X190818980Y-108335465D01*
X190634825Y-108337490D01*
X190424114Y-108339091D01*
X190184992Y-108340314D01*
X189915605Y-108341208D01*
X189614100Y-108341819D01*
X189278620Y-108342194D01*
X188907312Y-108342383D01*
X188498321Y-108342431D01*
X188049792Y-108342386D01*
X187559872Y-108342295D01*
X187026705Y-108342207D01*
X186949595Y-108342198D01*
X186413255Y-108342111D01*
X185920425Y-108341969D01*
X185469258Y-108341758D01*
X185057907Y-108341462D01*
X184684524Y-108341067D01*
X184347262Y-108340559D01*
X184044275Y-108339924D01*
X183773714Y-108339146D01*
X183533733Y-108338211D01*
X183322485Y-108337105D01*
X183138122Y-108335813D01*
X182978798Y-108334320D01*
X182842665Y-108332613D01*
X182727875Y-108330676D01*
X182632583Y-108328496D01*
X182554940Y-108326057D01*
X182493100Y-108323345D01*
X182445215Y-108320346D01*
X182409438Y-108317045D01*
X182383922Y-108313427D01*
X182366819Y-108309479D01*
X182358065Y-108306127D01*
X182341065Y-108298954D01*
X182325458Y-108293659D01*
X182311184Y-108288362D01*
X182298184Y-108281188D01*
X182286400Y-108270256D01*
X182275772Y-108253691D01*
X182266241Y-108229614D01*
X182257747Y-108196147D01*
X182250231Y-108151413D01*
X182243634Y-108093533D01*
X182237896Y-108020631D01*
X182232960Y-107930828D01*
X182228764Y-107822246D01*
X182225250Y-107693007D01*
X182222359Y-107541235D01*
X182220032Y-107365050D01*
X182218209Y-107162576D01*
X182216830Y-106931935D01*
X182215838Y-106671248D01*
X182215172Y-106378638D01*
X182214773Y-106052227D01*
X182214583Y-105690138D01*
X182214541Y-105290492D01*
X182214588Y-104851412D01*
X182214666Y-104371020D01*
X182214714Y-103847438D01*
X182214715Y-103762759D01*
X182214687Y-103234618D01*
X182214637Y-102749943D01*
X182214615Y-102306841D01*
X182214674Y-101903421D01*
X182214864Y-101537791D01*
X182215237Y-101208060D01*
X182215846Y-100912334D01*
X182216740Y-100648724D01*
X182217904Y-100427893D01*
X182826284Y-100427893D01*
X182906219Y-100544098D01*
X182928660Y-100575775D01*
X182948891Y-100603823D01*
X182967027Y-100630628D01*
X182983180Y-100658571D01*
X182997466Y-100690036D01*
X183009999Y-100727406D01*
X183020893Y-100773066D01*
X183030261Y-100829399D01*
X183038218Y-100898787D01*
X183044878Y-100983614D01*
X183050356Y-101086264D01*
X183054764Y-101209120D01*
X183058218Y-101354566D01*
X183060832Y-101524984D01*
X183062719Y-101722759D01*
X183063994Y-101950274D01*
X183064770Y-102209911D01*
X183065163Y-102504055D01*
X183065286Y-102835090D01*
X183065253Y-103205397D01*
X183065178Y-103617361D01*
X183065161Y-103863696D01*
X183065209Y-104299532D01*
X183065277Y-104692396D01*
X183065253Y-105044675D01*
X183065023Y-105358756D01*
X183064475Y-105637025D01*
X183063496Y-105881867D01*
X183061972Y-106095669D01*
X183059791Y-106280817D01*
X183056840Y-106439696D01*
X183053006Y-106574694D01*
X183048175Y-106688196D01*
X183042235Y-106782588D01*
X183035074Y-106860257D01*
X183026577Y-106923588D01*
X183016632Y-106974968D01*
X183005127Y-107016783D01*
X182991947Y-107051418D01*
X182976981Y-107081261D01*
X182960115Y-107108696D01*
X182941236Y-107136111D01*
X182920232Y-107165891D01*
X182907996Y-107183752D01*
X182830103Y-107299500D01*
X183897977Y-107299500D01*
X184145575Y-107299430D01*
X184351482Y-107299128D01*
X184519363Y-107298452D01*
X184652884Y-107297261D01*
X184755710Y-107295415D01*
X184831508Y-107292772D01*
X184883943Y-107289193D01*
X184916680Y-107284535D01*
X184933386Y-107278659D01*
X184937725Y-107271423D01*
X184933364Y-107262686D01*
X184930961Y-107259812D01*
X184880437Y-107185339D01*
X184828410Y-107079265D01*
X184780981Y-106954708D01*
X184764369Y-106901646D01*
X184755094Y-106865603D01*
X184747256Y-106823293D01*
X184740690Y-106770526D01*
X184735231Y-106703113D01*
X184730712Y-106616863D01*
X184726970Y-106507588D01*
X184723839Y-106371098D01*
X184721155Y-106203203D01*
X184718751Y-105999714D01*
X184716463Y-105756441D01*
X184715705Y-105666643D01*
X184713663Y-105415223D01*
X184712139Y-105205557D01*
X184711250Y-105034046D01*
X184711114Y-104897088D01*
X184711848Y-104791082D01*
X184713570Y-104712429D01*
X184716396Y-104657527D01*
X184720445Y-104622776D01*
X184725834Y-104604575D01*
X184732679Y-104599323D01*
X184741099Y-104603420D01*
X184750087Y-104612089D01*
X184770889Y-104638075D01*
X184815202Y-104696483D01*
X184879891Y-104783033D01*
X184961821Y-104893443D01*
X185057856Y-105023430D01*
X185164861Y-105168714D01*
X185279701Y-105325013D01*
X185399240Y-105488045D01*
X185520342Y-105653529D01*
X185639873Y-105817183D01*
X185754696Y-105974725D01*
X185861678Y-106121874D01*
X185957682Y-106254349D01*
X186039572Y-106367866D01*
X186104214Y-106458146D01*
X186148472Y-106520907D01*
X186157649Y-106534231D01*
X186203697Y-106608366D01*
X186257553Y-106704774D01*
X186308577Y-106804292D01*
X186315047Y-106817713D01*
X186358596Y-106914534D01*
X186383881Y-106989992D01*
X186395392Y-107061963D01*
X186397638Y-107146420D01*
X186396365Y-107299500D01*
X188715550Y-107299500D01*
X188532409Y-107111201D01*
X188438397Y-107010967D01*
X188337373Y-106897504D01*
X188244873Y-106788480D01*
X188203840Y-106737549D01*
X188142691Y-106658105D01*
X188062225Y-106551207D01*
X187964793Y-106420126D01*
X187852748Y-106268138D01*
X187728443Y-106098516D01*
X187594231Y-105914532D01*
X187452464Y-105719462D01*
X187305495Y-105516577D01*
X187155678Y-105309153D01*
X187005364Y-105100462D01*
X186856906Y-104893779D01*
X186712658Y-104692376D01*
X186574971Y-104499527D01*
X186446199Y-104318506D01*
X186328694Y-104152586D01*
X186224810Y-104005041D01*
X186136898Y-103879145D01*
X186067312Y-103778171D01*
X186018405Y-103705393D01*
X185992528Y-103664084D01*
X185988996Y-103655843D01*
X186004986Y-103633089D01*
X186046761Y-103578486D01*
X186111584Y-103495451D01*
X186196716Y-103387400D01*
X186299419Y-103257749D01*
X186416955Y-103109914D01*
X186546584Y-102947312D01*
X186685568Y-102773360D01*
X186831170Y-102591472D01*
X186980650Y-102405066D01*
X187100642Y-102255687D01*
X189131679Y-102255687D01*
X189143551Y-102281717D01*
X189172338Y-102326414D01*
X189174442Y-102329392D01*
X189212184Y-102389967D01*
X189251653Y-102463959D01*
X189259486Y-102480304D01*
X189266590Y-102497237D01*
X189272868Y-102517565D01*
X189278382Y-102544086D01*
X189283191Y-102579598D01*
X189287356Y-102626901D01*
X189290939Y-102688794D01*
X189293999Y-102768074D01*
X189296596Y-102867541D01*
X189298792Y-102989993D01*
X189300647Y-103138228D01*
X189302221Y-103315046D01*
X189303576Y-103523246D01*
X189304770Y-103765625D01*
X189305866Y-104044983D01*
X189306923Y-104364118D01*
X189307996Y-104723428D01*
X189309077Y-105095317D01*
X189309950Y-105424658D01*
X189310479Y-105714261D01*
X189310529Y-105966935D01*
X189309964Y-106185490D01*
X189308650Y-106372735D01*
X189306450Y-106531480D01*
X189303229Y-106664535D01*
X189298851Y-106774708D01*
X189293182Y-106864809D01*
X189286086Y-106937648D01*
X189277427Y-106996034D01*
X189267070Y-107042777D01*
X189254879Y-107080686D01*
X189240720Y-107112570D01*
X189224456Y-107141240D01*
X189205953Y-107169504D01*
X189188876Y-107194550D01*
X189154451Y-107247373D01*
X189134068Y-107282698D01*
X189131679Y-107289168D01*
X189153590Y-107291332D01*
X189216255Y-107293342D01*
X189315070Y-107295150D01*
X189445431Y-107296708D01*
X189602735Y-107297967D01*
X189782379Y-107298880D01*
X189979759Y-107299398D01*
X190118197Y-107299500D01*
X190329120Y-107299057D01*
X190523669Y-107297788D01*
X190697446Y-107295782D01*
X190846056Y-107293126D01*
X190965102Y-107289910D01*
X191050188Y-107286223D01*
X191096916Y-107282153D01*
X191104715Y-107279598D01*
X191089251Y-107249659D01*
X191073182Y-107233527D01*
X191046721Y-107199121D01*
X191012088Y-107138349D01*
X190988138Y-107089009D01*
X190934625Y-106970661D01*
X190928448Y-104606420D01*
X190922270Y-102242178D01*
X190026974Y-102242179D01*
X189830468Y-102242509D01*
X189648873Y-102243450D01*
X189487021Y-102244930D01*
X189349747Y-102246875D01*
X189241880Y-102249214D01*
X189168255Y-102251872D01*
X189133703Y-102254777D01*
X189131679Y-102255687D01*
X187100642Y-102255687D01*
X187131271Y-102217558D01*
X187280293Y-102032364D01*
X187424979Y-101852901D01*
X187562589Y-101682584D01*
X187690386Y-101524831D01*
X187805631Y-101383057D01*
X187905586Y-101260679D01*
X187987512Y-101161112D01*
X188021994Y-101119589D01*
X188195349Y-100917368D01*
X188349231Y-100750109D01*
X188487472Y-100613863D01*
X188613905Y-100504679D01*
X188632750Y-100489878D01*
X188712125Y-100428396D01*
X187575313Y-100428144D01*
X186438500Y-100427893D01*
X186449126Y-100524277D01*
X186442490Y-100639476D01*
X186399236Y-100776635D01*
X186318929Y-100936846D01*
X186227911Y-101082057D01*
X186195329Y-101127550D01*
X186138972Y-101202997D01*
X186062199Y-101304095D01*
X185968369Y-101426544D01*
X185860842Y-101566040D01*
X185742978Y-101718283D01*
X185618135Y-101878969D01*
X185489673Y-102043797D01*
X185360952Y-102208465D01*
X185235331Y-102368671D01*
X185116170Y-102520112D01*
X185006828Y-102658487D01*
X184910664Y-102779494D01*
X184831038Y-102878831D01*
X184771309Y-102952195D01*
X184734838Y-102995285D01*
X184728694Y-103001911D01*
X184722949Y-102985826D01*
X184718502Y-102924968D01*
X184715360Y-102819902D01*
X184713532Y-102671192D01*
X184713023Y-102479404D01*
X184713841Y-102245103D01*
X184715667Y-102004054D01*
X184718324Y-101738651D01*
X184721387Y-101514176D01*
X184725356Y-101326201D01*
X184730731Y-101170298D01*
X184738011Y-101042036D01*
X184747696Y-100936989D01*
X184760286Y-100850727D01*
X184776280Y-100778821D01*
X184796178Y-100716843D01*
X184820480Y-100660364D01*
X184849684Y-100604956D01*
X184879180Y-100554655D01*
X184955513Y-100427893D01*
X182826284Y-100427893D01*
X182217904Y-100427893D01*
X182217971Y-100415337D01*
X182219591Y-100210281D01*
X182221651Y-100031665D01*
X182224202Y-99877596D01*
X182227296Y-99746184D01*
X182230984Y-99635535D01*
X182235317Y-99543760D01*
X182240347Y-99468965D01*
X182246125Y-99409259D01*
X182252702Y-99362750D01*
X182260131Y-99327547D01*
X182268461Y-99301757D01*
X182277745Y-99283490D01*
X182288034Y-99270852D01*
X182299379Y-99261954D01*
X182311832Y-99254902D01*
X182325444Y-99247804D01*
X182337490Y-99240636D01*
X182348002Y-99235461D01*
X182364427Y-99230783D01*
X182388962Y-99226577D01*
X182423807Y-99222818D01*
X182471161Y-99219483D01*
X182533222Y-99216544D01*
X182612189Y-99213979D01*
X182710262Y-99211762D01*
X182829639Y-99209868D01*
X182972519Y-99208273D01*
X183141102Y-99206951D01*
X183337585Y-99205878D01*
X183564168Y-99205029D01*
X183823050Y-99204380D01*
X184116430Y-99203904D01*
X184446507Y-99203578D01*
X184815479Y-99203377D01*
X185225546Y-99203276D01*
X185649720Y-99203250D01*
X188904893Y-99203250D01*
X188904893Y-99397689D01*
X188904893Y-99397689D01*
G37*
X188904893Y-99397689D02*
X188926720Y-99626585D01*
X188990237Y-99842791D01*
X189092497Y-100041673D01*
X189230554Y-100218597D01*
X189401462Y-100368929D01*
X189596302Y-100485181D01*
X189809788Y-100564777D01*
X190024771Y-100602080D01*
X190237014Y-100599791D01*
X190442276Y-100560609D01*
X190636320Y-100487234D01*
X190814907Y-100382368D01*
X190973796Y-100248708D01*
X191108750Y-100088957D01*
X191215529Y-99905814D01*
X191289895Y-99701978D01*
X191327608Y-99480151D01*
X191331500Y-99379914D01*
X191331500Y-99203250D01*
X191435822Y-99203250D01*
X191508761Y-99208965D01*
X191562796Y-99232669D01*
X191617250Y-99280357D01*
X191694357Y-99357464D01*
X191694357Y-103760173D01*
X191694339Y-104286789D01*
X191694274Y-104769939D01*
X191694146Y-105211515D01*
X191693938Y-105613409D01*
X191693634Y-105977512D01*
X191693217Y-106305715D01*
X191692672Y-106599911D01*
X191691981Y-106861990D01*
X191691128Y-107093845D01*
X191690098Y-107297366D01*
X191688873Y-107474446D01*
X191687437Y-107626976D01*
X191685774Y-107756847D01*
X191683867Y-107865951D01*
X191681701Y-107956179D01*
X191679258Y-108029424D01*
X191676522Y-108087576D01*
X191673477Y-108132528D01*
X191670107Y-108166170D01*
X191666394Y-108190395D01*
X191662324Y-108207093D01*
X191657878Y-108218157D01*
X191655704Y-108221874D01*
X191647341Y-108235960D01*
X191640240Y-108248911D01*
X191632547Y-108260772D01*
X191622407Y-108271593D01*
X191607966Y-108281420D01*
X191587369Y-108290300D01*
X191558761Y-108298282D01*
X191520289Y-108305412D01*
X191470097Y-108311738D01*
X191406331Y-108317308D01*
X191327136Y-108322168D01*
X191230658Y-108326366D01*
X191115042Y-108329950D01*
X190978435Y-108332968D01*
X190818980Y-108335465D01*
X190634825Y-108337490D01*
X190424114Y-108339091D01*
X190184992Y-108340314D01*
X189915605Y-108341208D01*
X189614100Y-108341819D01*
X189278620Y-108342194D01*
X188907312Y-108342383D01*
X188498321Y-108342431D01*
X188049792Y-108342386D01*
X187559872Y-108342295D01*
X187026705Y-108342207D01*
X186949595Y-108342198D01*
X186413255Y-108342111D01*
X185920425Y-108341969D01*
X185469258Y-108341758D01*
X185057907Y-108341462D01*
X184684524Y-108341067D01*
X184347262Y-108340559D01*
X184044275Y-108339924D01*
X183773714Y-108339146D01*
X183533733Y-108338211D01*
X183322485Y-108337105D01*
X183138122Y-108335813D01*
X182978798Y-108334320D01*
X182842665Y-108332613D01*
X182727875Y-108330676D01*
X182632583Y-108328496D01*
X182554940Y-108326057D01*
X182493100Y-108323345D01*
X182445215Y-108320346D01*
X182409438Y-108317045D01*
X182383922Y-108313427D01*
X182366819Y-108309479D01*
X182358065Y-108306127D01*
X182341065Y-108298954D01*
X182325458Y-108293659D01*
X182311184Y-108288362D01*
X182298184Y-108281188D01*
X182286400Y-108270256D01*
X182275772Y-108253691D01*
X182266241Y-108229614D01*
X182257747Y-108196147D01*
X182250231Y-108151413D01*
X182243634Y-108093533D01*
X182237896Y-108020631D01*
X182232960Y-107930828D01*
X182228764Y-107822246D01*
X182225250Y-107693007D01*
X182222359Y-107541235D01*
X182220032Y-107365050D01*
X182218209Y-107162576D01*
X182216830Y-106931935D01*
X182215838Y-106671248D01*
X182215172Y-106378638D01*
X182214773Y-106052227D01*
X182214583Y-105690138D01*
X182214541Y-105290492D01*
X182214588Y-104851412D01*
X182214666Y-104371020D01*
X182214714Y-103847438D01*
X182214715Y-103762759D01*
X182214687Y-103234618D01*
X182214637Y-102749943D01*
X182214615Y-102306841D01*
X182214674Y-101903421D01*
X182214864Y-101537791D01*
X182215237Y-101208060D01*
X182215846Y-100912334D01*
X182216740Y-100648724D01*
X182217904Y-100427893D01*
X182826284Y-100427893D01*
X182906219Y-100544098D01*
X182928660Y-100575775D01*
X182948891Y-100603823D01*
X182967027Y-100630628D01*
X182983180Y-100658571D01*
X182997466Y-100690036D01*
X183009999Y-100727406D01*
X183020893Y-100773066D01*
X183030261Y-100829399D01*
X183038218Y-100898787D01*
X183044878Y-100983614D01*
X183050356Y-101086264D01*
X183054764Y-101209120D01*
X183058218Y-101354566D01*
X183060832Y-101524984D01*
X183062719Y-101722759D01*
X183063994Y-101950274D01*
X183064770Y-102209911D01*
X183065163Y-102504055D01*
X183065286Y-102835090D01*
X183065253Y-103205397D01*
X183065178Y-103617361D01*
X183065161Y-103863696D01*
X183065209Y-104299532D01*
X183065277Y-104692396D01*
X183065253Y-105044675D01*
X183065023Y-105358756D01*
X183064475Y-105637025D01*
X183063496Y-105881867D01*
X183061972Y-106095669D01*
X183059791Y-106280817D01*
X183056840Y-106439696D01*
X183053006Y-106574694D01*
X183048175Y-106688196D01*
X183042235Y-106782588D01*
X183035074Y-106860257D01*
X183026577Y-106923588D01*
X183016632Y-106974968D01*
X183005127Y-107016783D01*
X182991947Y-107051418D01*
X182976981Y-107081261D01*
X182960115Y-107108696D01*
X182941236Y-107136111D01*
X182920232Y-107165891D01*
X182907996Y-107183752D01*
X182830103Y-107299500D01*
X183897977Y-107299500D01*
X184145575Y-107299430D01*
X184351482Y-107299128D01*
X184519363Y-107298452D01*
X184652884Y-107297261D01*
X184755710Y-107295415D01*
X184831508Y-107292772D01*
X184883943Y-107289193D01*
X184916680Y-107284535D01*
X184933386Y-107278659D01*
X184937725Y-107271423D01*
X184933364Y-107262686D01*
X184930961Y-107259812D01*
X184880437Y-107185339D01*
X184828410Y-107079265D01*
X184780981Y-106954708D01*
X184764369Y-106901646D01*
X184755094Y-106865603D01*
X184747256Y-106823293D01*
X184740690Y-106770526D01*
X184735231Y-106703113D01*
X184730712Y-106616863D01*
X184726970Y-106507588D01*
X184723839Y-106371098D01*
X184721155Y-106203203D01*
X184718751Y-105999714D01*
X184716463Y-105756441D01*
X184715705Y-105666643D01*
X184713663Y-105415223D01*
X184712139Y-105205557D01*
X184711250Y-105034046D01*
X184711114Y-104897088D01*
X184711848Y-104791082D01*
X184713570Y-104712429D01*
X184716396Y-104657527D01*
X184720445Y-104622776D01*
X184725834Y-104604575D01*
X184732679Y-104599323D01*
X184741099Y-104603420D01*
X184750087Y-104612089D01*
X184770889Y-104638075D01*
X184815202Y-104696483D01*
X184879891Y-104783033D01*
X184961821Y-104893443D01*
X185057856Y-105023430D01*
X185164861Y-105168714D01*
X185279701Y-105325013D01*
X185399240Y-105488045D01*
X185520342Y-105653529D01*
X185639873Y-105817183D01*
X185754696Y-105974725D01*
X185861678Y-106121874D01*
X185957682Y-106254349D01*
X186039572Y-106367866D01*
X186104214Y-106458146D01*
X186148472Y-106520907D01*
X186157649Y-106534231D01*
X186203697Y-106608366D01*
X186257553Y-106704774D01*
X186308577Y-106804292D01*
X186315047Y-106817713D01*
X186358596Y-106914534D01*
X186383881Y-106989992D01*
X186395392Y-107061963D01*
X186397638Y-107146420D01*
X186396365Y-107299500D01*
X188715550Y-107299500D01*
X188532409Y-107111201D01*
X188438397Y-107010967D01*
X188337373Y-106897504D01*
X188244873Y-106788480D01*
X188203840Y-106737549D01*
X188142691Y-106658105D01*
X188062225Y-106551207D01*
X187964793Y-106420126D01*
X187852748Y-106268138D01*
X187728443Y-106098516D01*
X187594231Y-105914532D01*
X187452464Y-105719462D01*
X187305495Y-105516577D01*
X187155678Y-105309153D01*
X187005364Y-105100462D01*
X186856906Y-104893779D01*
X186712658Y-104692376D01*
X186574971Y-104499527D01*
X186446199Y-104318506D01*
X186328694Y-104152586D01*
X186224810Y-104005041D01*
X186136898Y-103879145D01*
X186067312Y-103778171D01*
X186018405Y-103705393D01*
X185992528Y-103664084D01*
X185988996Y-103655843D01*
X186004986Y-103633089D01*
X186046761Y-103578486D01*
X186111584Y-103495451D01*
X186196716Y-103387400D01*
X186299419Y-103257749D01*
X186416955Y-103109914D01*
X186546584Y-102947312D01*
X186685568Y-102773360D01*
X186831170Y-102591472D01*
X186980650Y-102405066D01*
X187100642Y-102255687D01*
X189131679Y-102255687D01*
X189143551Y-102281717D01*
X189172338Y-102326414D01*
X189174442Y-102329392D01*
X189212184Y-102389967D01*
X189251653Y-102463959D01*
X189259486Y-102480304D01*
X189266590Y-102497237D01*
X189272868Y-102517565D01*
X189278382Y-102544086D01*
X189283191Y-102579598D01*
X189287356Y-102626901D01*
X189290939Y-102688794D01*
X189293999Y-102768074D01*
X189296596Y-102867541D01*
X189298792Y-102989993D01*
X189300647Y-103138228D01*
X189302221Y-103315046D01*
X189303576Y-103523246D01*
X189304770Y-103765625D01*
X189305866Y-104044983D01*
X189306923Y-104364118D01*
X189307996Y-104723428D01*
X189309077Y-105095317D01*
X189309950Y-105424658D01*
X189310479Y-105714261D01*
X189310529Y-105966935D01*
X189309964Y-106185490D01*
X189308650Y-106372735D01*
X189306450Y-106531480D01*
X189303229Y-106664535D01*
X189298851Y-106774708D01*
X189293182Y-106864809D01*
X189286086Y-106937648D01*
X189277427Y-106996034D01*
X189267070Y-107042777D01*
X189254879Y-107080686D01*
X189240720Y-107112570D01*
X189224456Y-107141240D01*
X189205953Y-107169504D01*
X189188876Y-107194550D01*
X189154451Y-107247373D01*
X189134068Y-107282698D01*
X189131679Y-107289168D01*
X189153590Y-107291332D01*
X189216255Y-107293342D01*
X189315070Y-107295150D01*
X189445431Y-107296708D01*
X189602735Y-107297967D01*
X189782379Y-107298880D01*
X189979759Y-107299398D01*
X190118197Y-107299500D01*
X190329120Y-107299057D01*
X190523669Y-107297788D01*
X190697446Y-107295782D01*
X190846056Y-107293126D01*
X190965102Y-107289910D01*
X191050188Y-107286223D01*
X191096916Y-107282153D01*
X191104715Y-107279598D01*
X191089251Y-107249659D01*
X191073182Y-107233527D01*
X191046721Y-107199121D01*
X191012088Y-107138349D01*
X190988138Y-107089009D01*
X190934625Y-106970661D01*
X190928448Y-104606420D01*
X190922270Y-102242178D01*
X190026974Y-102242179D01*
X189830468Y-102242509D01*
X189648873Y-102243450D01*
X189487021Y-102244930D01*
X189349747Y-102246875D01*
X189241880Y-102249214D01*
X189168255Y-102251872D01*
X189133703Y-102254777D01*
X189131679Y-102255687D01*
X187100642Y-102255687D01*
X187131271Y-102217558D01*
X187280293Y-102032364D01*
X187424979Y-101852901D01*
X187562589Y-101682584D01*
X187690386Y-101524831D01*
X187805631Y-101383057D01*
X187905586Y-101260679D01*
X187987512Y-101161112D01*
X188021994Y-101119589D01*
X188195349Y-100917368D01*
X188349231Y-100750109D01*
X188487472Y-100613863D01*
X188613905Y-100504679D01*
X188632750Y-100489878D01*
X188712125Y-100428396D01*
X187575313Y-100428144D01*
X186438500Y-100427893D01*
X186449126Y-100524277D01*
X186442490Y-100639476D01*
X186399236Y-100776635D01*
X186318929Y-100936846D01*
X186227911Y-101082057D01*
X186195329Y-101127550D01*
X186138972Y-101202997D01*
X186062199Y-101304095D01*
X185968369Y-101426544D01*
X185860842Y-101566040D01*
X185742978Y-101718283D01*
X185618135Y-101878969D01*
X185489673Y-102043797D01*
X185360952Y-102208465D01*
X185235331Y-102368671D01*
X185116170Y-102520112D01*
X185006828Y-102658487D01*
X184910664Y-102779494D01*
X184831038Y-102878831D01*
X184771309Y-102952195D01*
X184734838Y-102995285D01*
X184728694Y-103001911D01*
X184722949Y-102985826D01*
X184718502Y-102924968D01*
X184715360Y-102819902D01*
X184713532Y-102671192D01*
X184713023Y-102479404D01*
X184713841Y-102245103D01*
X184715667Y-102004054D01*
X184718324Y-101738651D01*
X184721387Y-101514176D01*
X184725356Y-101326201D01*
X184730731Y-101170298D01*
X184738011Y-101042036D01*
X184747696Y-100936989D01*
X184760286Y-100850727D01*
X184776280Y-100778821D01*
X184796178Y-100716843D01*
X184820480Y-100660364D01*
X184849684Y-100604956D01*
X184879180Y-100554655D01*
X184955513Y-100427893D01*
X182826284Y-100427893D01*
X182217904Y-100427893D01*
X182217971Y-100415337D01*
X182219591Y-100210281D01*
X182221651Y-100031665D01*
X182224202Y-99877596D01*
X182227296Y-99746184D01*
X182230984Y-99635535D01*
X182235317Y-99543760D01*
X182240347Y-99468965D01*
X182246125Y-99409259D01*
X182252702Y-99362750D01*
X182260131Y-99327547D01*
X182268461Y-99301757D01*
X182277745Y-99283490D01*
X182288034Y-99270852D01*
X182299379Y-99261954D01*
X182311832Y-99254902D01*
X182325444Y-99247804D01*
X182337490Y-99240636D01*
X182348002Y-99235461D01*
X182364427Y-99230783D01*
X182388962Y-99226577D01*
X182423807Y-99222818D01*
X182471161Y-99219483D01*
X182533222Y-99216544D01*
X182612189Y-99213979D01*
X182710262Y-99211762D01*
X182829639Y-99209868D01*
X182972519Y-99208273D01*
X183141102Y-99206951D01*
X183337585Y-99205878D01*
X183564168Y-99205029D01*
X183823050Y-99204380D01*
X184116430Y-99203904D01*
X184446507Y-99203578D01*
X184815479Y-99203377D01*
X185225546Y-99203276D01*
X185649720Y-99203250D01*
X188904893Y-99203250D01*
X188904893Y-99397689D01*
G36*
X195483791Y-100321830D02*
X195805503Y-100364366D01*
X196134847Y-100445005D01*
X196475969Y-100564544D01*
X196833015Y-100723783D01*
X196855651Y-100734922D01*
X196971556Y-100791223D01*
X197075111Y-100839593D01*
X197158760Y-100876652D01*
X197214951Y-100899025D01*
X197234179Y-100904143D01*
X197272784Y-100914203D01*
X197282048Y-100922652D01*
X197271796Y-100943611D01*
X197239573Y-100996422D01*
X197189088Y-101075551D01*
X197124051Y-101175463D01*
X197048172Y-101290625D01*
X196965161Y-101415501D01*
X196878729Y-101544558D01*
X196792583Y-101672261D01*
X196710436Y-101793076D01*
X196635996Y-101901469D01*
X196572974Y-101991905D01*
X196525079Y-102058851D01*
X196496021Y-102096771D01*
X196492033Y-102101169D01*
X196471706Y-102091831D01*
X196426825Y-102057324D01*
X196365411Y-102004045D01*
X196333783Y-101974963D01*
X196139943Y-101823728D01*
X195925569Y-101712351D01*
X195693529Y-101641836D01*
X195446692Y-101613188D01*
X195307272Y-101615540D01*
X195063913Y-101650015D01*
X194844502Y-101722100D01*
X194648385Y-101832320D01*
X194474905Y-101981203D01*
X194323407Y-102169275D01*
X194193234Y-102397064D01*
X194118065Y-102571018D01*
X194029968Y-102843629D01*
X193965039Y-103139913D01*
X193923110Y-103452229D01*
X193904013Y-103772938D01*
X193907582Y-104094400D01*
X193933649Y-104408975D01*
X193982047Y-104709022D01*
X194052609Y-104986901D01*
X194145167Y-105234973D01*
X194177876Y-105303786D01*
X194314978Y-105532977D01*
X194476616Y-105726824D01*
X194660415Y-105883748D01*
X194864001Y-106002168D01*
X195085001Y-106080506D01*
X195321040Y-106117181D01*
X195404346Y-106119879D01*
X195648548Y-106097940D01*
X195890498Y-106032014D01*
X196127125Y-105923463D01*
X196355362Y-105773648D01*
X196538993Y-105616296D01*
X196632469Y-105526837D01*
X196996623Y-106124017D01*
X197087221Y-106273004D01*
X197170065Y-106410039D01*
X197242218Y-106530199D01*
X197300741Y-106628558D01*
X197342695Y-106700194D01*
X197365142Y-106740182D01*
X197368059Y-106746399D01*
X197351527Y-106765764D01*
X197300141Y-106800479D01*
X197220398Y-106847256D01*
X197118794Y-106902805D01*
X197001828Y-106963839D01*
X196875996Y-107027070D01*
X196747794Y-107089209D01*
X196623720Y-107146968D01*
X196510271Y-107197060D01*
X196413944Y-107236196D01*
X196366830Y-107253130D01*
X196098105Y-107329097D01*
X195821086Y-107379326D01*
X195524357Y-107405450D01*
X195269648Y-107410127D01*
X195133130Y-107407928D01*
X195001342Y-107403714D01*
X194885969Y-107398005D01*
X194798695Y-107391320D01*
X194770359Y-107387938D01*
X194491088Y-107330010D01*
X194206771Y-107239368D01*
X193930579Y-107121408D01*
X193675686Y-106981527D01*
X193519982Y-106875697D01*
X193264030Y-106658328D01*
X193026368Y-106404063D01*
X192811399Y-106119187D01*
X192623525Y-105809982D01*
X192467147Y-105482731D01*
X192379046Y-105247089D01*
X192278102Y-104878195D01*
X192210806Y-104487364D01*
X192177135Y-104083055D01*
X192177069Y-103673722D01*
X192210588Y-103267823D01*
X192277669Y-102873814D01*
X192378292Y-102500152D01*
X192385959Y-102476872D01*
X192512287Y-102151318D01*
X192666467Y-101854163D01*
X192853728Y-101576996D01*
X193079301Y-101311408D01*
X193167423Y-101220479D01*
X193440923Y-100971489D01*
X193722085Y-100765489D01*
X194015227Y-100600237D01*
X194324665Y-100473490D01*
X194654713Y-100383005D01*
X194846679Y-100347869D01*
X195165565Y-100316597D01*
X195483791Y-100321830D01*
X195483791Y-100321830D01*
G37*
X195483791Y-100321830D02*
X195805503Y-100364366D01*
X196134847Y-100445005D01*
X196475969Y-100564544D01*
X196833015Y-100723783D01*
X196855651Y-100734922D01*
X196971556Y-100791223D01*
X197075111Y-100839593D01*
X197158760Y-100876652D01*
X197214951Y-100899025D01*
X197234179Y-100904143D01*
X197272784Y-100914203D01*
X197282048Y-100922652D01*
X197271796Y-100943611D01*
X197239573Y-100996422D01*
X197189088Y-101075551D01*
X197124051Y-101175463D01*
X197048172Y-101290625D01*
X196965161Y-101415501D01*
X196878729Y-101544558D01*
X196792583Y-101672261D01*
X196710436Y-101793076D01*
X196635996Y-101901469D01*
X196572974Y-101991905D01*
X196525079Y-102058851D01*
X196496021Y-102096771D01*
X196492033Y-102101169D01*
X196471706Y-102091831D01*
X196426825Y-102057324D01*
X196365411Y-102004045D01*
X196333783Y-101974963D01*
X196139943Y-101823728D01*
X195925569Y-101712351D01*
X195693529Y-101641836D01*
X195446692Y-101613188D01*
X195307272Y-101615540D01*
X195063913Y-101650015D01*
X194844502Y-101722100D01*
X194648385Y-101832320D01*
X194474905Y-101981203D01*
X194323407Y-102169275D01*
X194193234Y-102397064D01*
X194118065Y-102571018D01*
X194029968Y-102843629D01*
X193965039Y-103139913D01*
X193923110Y-103452229D01*
X193904013Y-103772938D01*
X193907582Y-104094400D01*
X193933649Y-104408975D01*
X193982047Y-104709022D01*
X194052609Y-104986901D01*
X194145167Y-105234973D01*
X194177876Y-105303786D01*
X194314978Y-105532977D01*
X194476616Y-105726824D01*
X194660415Y-105883748D01*
X194864001Y-106002168D01*
X195085001Y-106080506D01*
X195321040Y-106117181D01*
X195404346Y-106119879D01*
X195648548Y-106097940D01*
X195890498Y-106032014D01*
X196127125Y-105923463D01*
X196355362Y-105773648D01*
X196538993Y-105616296D01*
X196632469Y-105526837D01*
X196996623Y-106124017D01*
X197087221Y-106273004D01*
X197170065Y-106410039D01*
X197242218Y-106530199D01*
X197300741Y-106628558D01*
X197342695Y-106700194D01*
X197365142Y-106740182D01*
X197368059Y-106746399D01*
X197351527Y-106765764D01*
X197300141Y-106800479D01*
X197220398Y-106847256D01*
X197118794Y-106902805D01*
X197001828Y-106963839D01*
X196875996Y-107027070D01*
X196747794Y-107089209D01*
X196623720Y-107146968D01*
X196510271Y-107197060D01*
X196413944Y-107236196D01*
X196366830Y-107253130D01*
X196098105Y-107329097D01*
X195821086Y-107379326D01*
X195524357Y-107405450D01*
X195269648Y-107410127D01*
X195133130Y-107407928D01*
X195001342Y-107403714D01*
X194885969Y-107398005D01*
X194798695Y-107391320D01*
X194770359Y-107387938D01*
X194491088Y-107330010D01*
X194206771Y-107239368D01*
X193930579Y-107121408D01*
X193675686Y-106981527D01*
X193519982Y-106875697D01*
X193264030Y-106658328D01*
X193026368Y-106404063D01*
X192811399Y-106119187D01*
X192623525Y-105809982D01*
X192467147Y-105482731D01*
X192379046Y-105247089D01*
X192278102Y-104878195D01*
X192210806Y-104487364D01*
X192177135Y-104083055D01*
X192177069Y-103673722D01*
X192210588Y-103267823D01*
X192277669Y-102873814D01*
X192378292Y-102500152D01*
X192385959Y-102476872D01*
X192512287Y-102151318D01*
X192666467Y-101854163D01*
X192853728Y-101576996D01*
X193079301Y-101311408D01*
X193167423Y-101220479D01*
X193440923Y-100971489D01*
X193722085Y-100765489D01*
X194015227Y-100600237D01*
X194324665Y-100473490D01*
X194654713Y-100383005D01*
X194846679Y-100347869D01*
X195165565Y-100316597D01*
X195483791Y-100321830D01*
G36*
X200195019Y-102164984D02*
X200500212Y-102205192D01*
X200771948Y-102272762D01*
X201011981Y-102368233D01*
X201222066Y-102492143D01*
X201377978Y-102619831D01*
X201516274Y-102768761D01*
X201624236Y-102929017D01*
X201710427Y-103114281D01*
X201741514Y-103200805D01*
X201767347Y-103279115D01*
X201789851Y-103351732D01*
X201809286Y-103422336D01*
X201825912Y-103494610D01*
X201839989Y-103572234D01*
X201851779Y-103658890D01*
X201861540Y-103758259D01*
X201869535Y-103874022D01*
X201876022Y-104009861D01*
X201881264Y-104169457D01*
X201885519Y-104356491D01*
X201889048Y-104574644D01*
X201892112Y-104827598D01*
X201894972Y-105119033D01*
X201897487Y-105405839D01*
X201900152Y-105719615D01*
X201902574Y-105991364D01*
X201905004Y-106224413D01*
X201907695Y-106422090D01*
X201910899Y-106587722D01*
X201914866Y-106724636D01*
X201919851Y-106836160D01*
X201926103Y-106925622D01*
X201933876Y-106996348D01*
X201943420Y-107051666D01*
X201954989Y-107094903D01*
X201968834Y-107129388D01*
X201985207Y-107158446D01*
X202004359Y-107185406D01*
X202026543Y-107213594D01*
X202035183Y-107224509D01*
X202066963Y-107270390D01*
X202081098Y-107301635D01*
X202081143Y-107302558D01*
X202059292Y-107306975D01*
X201997044Y-107311045D01*
X201899361Y-107314652D01*
X201771204Y-107317683D01*
X201617532Y-107320023D01*
X201443307Y-107321558D01*
X201253490Y-107322172D01*
X201231580Y-107322179D01*
X200382016Y-107322179D01*
X200375464Y-107129188D01*
X200368911Y-106936197D01*
X200244179Y-107038627D01*
X200048650Y-107174257D01*
X199827866Y-107284129D01*
X199654165Y-107344857D01*
X199515407Y-107374365D01*
X199347958Y-107394440D01*
X199167624Y-107404458D01*
X198990207Y-107403790D01*
X198831513Y-107391812D01*
X198758732Y-107380334D01*
X198477445Y-107304272D01*
X198223465Y-107194096D01*
X197998629Y-107051446D01*
X197804774Y-106877962D01*
X197643734Y-106675284D01*
X197517346Y-106445054D01*
X197428199Y-106191745D01*
X197403420Y-106078073D01*
X197388133Y-105953119D01*
X197380843Y-105802774D01*
X197379849Y-105734679D01*
X197379980Y-105728280D01*
X198906641Y-105728280D01*
X198925312Y-105879053D01*
X198981937Y-106007277D01*
X199079307Y-106119050D01*
X199089466Y-106127914D01*
X199186486Y-106197879D01*
X199290365Y-106243244D01*
X199412371Y-106267192D01*
X199563770Y-106272904D01*
X199600147Y-106272090D01*
X199708264Y-106266761D01*
X199788681Y-106255880D01*
X199859027Y-106235462D01*
X199936931Y-106201520D01*
X199958310Y-106191117D01*
X200080154Y-106119141D01*
X200174209Y-106033496D01*
X200199797Y-106002884D01*
X200289536Y-105889356D01*
X200289536Y-105495855D01*
X200288460Y-105337860D01*
X200285065Y-105221441D01*
X200279102Y-105142865D01*
X200270321Y-105098399D01*
X200262115Y-105085408D01*
X200230122Y-105079052D01*
X200162254Y-105073784D01*
X200067987Y-105070101D01*
X199956800Y-105068499D01*
X199938945Y-105068469D01*
X199696316Y-105079023D01*
X199490059Y-105111502D01*
X199316179Y-105167145D01*
X199170681Y-105247195D01*
X199060331Y-105341514D01*
X198970839Y-105457804D01*
X198921170Y-105584463D01*
X198906641Y-105728280D01*
X197379980Y-105728280D01*
X197383733Y-105546331D01*
X197400496Y-105387828D01*
X197433133Y-105244747D01*
X197484635Y-105102665D01*
X197532842Y-104997454D01*
X197650603Y-104806009D01*
X197807494Y-104629171D01*
X197998741Y-104470160D01*
X198219569Y-104332192D01*
X198465205Y-104218488D01*
X198730874Y-104132265D01*
X198860786Y-104102253D01*
X199134365Y-104057846D01*
X199432582Y-104028549D01*
X199736846Y-104015731D01*
X199991093Y-104019010D01*
X200316312Y-104032629D01*
X200301406Y-103914145D01*
X200262648Y-103714953D01*
X200200103Y-103552792D01*
X200112041Y-103426418D01*
X199996732Y-103334590D01*
X199852446Y-103276063D01*
X199677453Y-103249594D01*
X199470022Y-103253941D01*
X199393732Y-103261979D01*
X199110091Y-103312539D01*
X198835243Y-103394974D01*
X198645340Y-103471316D01*
X198554617Y-103510238D01*
X198477409Y-103541518D01*
X198424471Y-103560893D01*
X198409026Y-103565007D01*
X198389450Y-103546769D01*
X198355864Y-103488571D01*
X198307950Y-103389757D01*
X198245393Y-103249669D01*
X198167877Y-103067649D01*
X198154623Y-103035929D01*
X198094242Y-102890649D01*
X198040042Y-102759371D01*
X197994364Y-102647837D01*
X197959548Y-102561787D01*
X197937936Y-102506961D01*
X197931695Y-102489204D01*
X197951782Y-102479652D01*
X198004570Y-102469051D01*
X198061366Y-102461659D01*
X198121950Y-102452103D01*
X198217951Y-102433128D01*
X198340856Y-102406594D01*
X198482150Y-102374361D01*
X198633320Y-102338289D01*
X198690697Y-102324182D01*
X198901757Y-102272777D01*
X199077867Y-102232473D01*
X199227709Y-102201982D01*
X199359967Y-102180016D01*
X199483324Y-102165289D01*
X199606460Y-102156511D01*
X199738061Y-102152397D01*
X199854614Y-102151598D01*
X200195019Y-102164984D01*
X200195019Y-102164984D01*
G37*
X200195019Y-102164984D02*
X200500212Y-102205192D01*
X200771948Y-102272762D01*
X201011981Y-102368233D01*
X201222066Y-102492143D01*
X201377978Y-102619831D01*
X201516274Y-102768761D01*
X201624236Y-102929017D01*
X201710427Y-103114281D01*
X201741514Y-103200805D01*
X201767347Y-103279115D01*
X201789851Y-103351732D01*
X201809286Y-103422336D01*
X201825912Y-103494610D01*
X201839989Y-103572234D01*
X201851779Y-103658890D01*
X201861540Y-103758259D01*
X201869535Y-103874022D01*
X201876022Y-104009861D01*
X201881264Y-104169457D01*
X201885519Y-104356491D01*
X201889048Y-104574644D01*
X201892112Y-104827598D01*
X201894972Y-105119033D01*
X201897487Y-105405839D01*
X201900152Y-105719615D01*
X201902574Y-105991364D01*
X201905004Y-106224413D01*
X201907695Y-106422090D01*
X201910899Y-106587722D01*
X201914866Y-106724636D01*
X201919851Y-106836160D01*
X201926103Y-106925622D01*
X201933876Y-106996348D01*
X201943420Y-107051666D01*
X201954989Y-107094903D01*
X201968834Y-107129388D01*
X201985207Y-107158446D01*
X202004359Y-107185406D01*
X202026543Y-107213594D01*
X202035183Y-107224509D01*
X202066963Y-107270390D01*
X202081098Y-107301635D01*
X202081143Y-107302558D01*
X202059292Y-107306975D01*
X201997044Y-107311045D01*
X201899361Y-107314652D01*
X201771204Y-107317683D01*
X201617532Y-107320023D01*
X201443307Y-107321558D01*
X201253490Y-107322172D01*
X201231580Y-107322179D01*
X200382016Y-107322179D01*
X200375464Y-107129188D01*
X200368911Y-106936197D01*
X200244179Y-107038627D01*
X200048650Y-107174257D01*
X199827866Y-107284129D01*
X199654165Y-107344857D01*
X199515407Y-107374365D01*
X199347958Y-107394440D01*
X199167624Y-107404458D01*
X198990207Y-107403790D01*
X198831513Y-107391812D01*
X198758732Y-107380334D01*
X198477445Y-107304272D01*
X198223465Y-107194096D01*
X197998629Y-107051446D01*
X197804774Y-106877962D01*
X197643734Y-106675284D01*
X197517346Y-106445054D01*
X197428199Y-106191745D01*
X197403420Y-106078073D01*
X197388133Y-105953119D01*
X197380843Y-105802774D01*
X197379849Y-105734679D01*
X197379980Y-105728280D01*
X198906641Y-105728280D01*
X198925312Y-105879053D01*
X198981937Y-106007277D01*
X199079307Y-106119050D01*
X199089466Y-106127914D01*
X199186486Y-106197879D01*
X199290365Y-106243244D01*
X199412371Y-106267192D01*
X199563770Y-106272904D01*
X199600147Y-106272090D01*
X199708264Y-106266761D01*
X199788681Y-106255880D01*
X199859027Y-106235462D01*
X199936931Y-106201520D01*
X199958310Y-106191117D01*
X200080154Y-106119141D01*
X200174209Y-106033496D01*
X200199797Y-106002884D01*
X200289536Y-105889356D01*
X200289536Y-105495855D01*
X200288460Y-105337860D01*
X200285065Y-105221441D01*
X200279102Y-105142865D01*
X200270321Y-105098399D01*
X200262115Y-105085408D01*
X200230122Y-105079052D01*
X200162254Y-105073784D01*
X200067987Y-105070101D01*
X199956800Y-105068499D01*
X199938945Y-105068469D01*
X199696316Y-105079023D01*
X199490059Y-105111502D01*
X199316179Y-105167145D01*
X199170681Y-105247195D01*
X199060331Y-105341514D01*
X198970839Y-105457804D01*
X198921170Y-105584463D01*
X198906641Y-105728280D01*
X197379980Y-105728280D01*
X197383733Y-105546331D01*
X197400496Y-105387828D01*
X197433133Y-105244747D01*
X197484635Y-105102665D01*
X197532842Y-104997454D01*
X197650603Y-104806009D01*
X197807494Y-104629171D01*
X197998741Y-104470160D01*
X198219569Y-104332192D01*
X198465205Y-104218488D01*
X198730874Y-104132265D01*
X198860786Y-104102253D01*
X199134365Y-104057846D01*
X199432582Y-104028549D01*
X199736846Y-104015731D01*
X199991093Y-104019010D01*
X200316312Y-104032629D01*
X200301406Y-103914145D01*
X200262648Y-103714953D01*
X200200103Y-103552792D01*
X200112041Y-103426418D01*
X199996732Y-103334590D01*
X199852446Y-103276063D01*
X199677453Y-103249594D01*
X199470022Y-103253941D01*
X199393732Y-103261979D01*
X199110091Y-103312539D01*
X198835243Y-103394974D01*
X198645340Y-103471316D01*
X198554617Y-103510238D01*
X198477409Y-103541518D01*
X198424471Y-103560893D01*
X198409026Y-103565007D01*
X198389450Y-103546769D01*
X198355864Y-103488571D01*
X198307950Y-103389757D01*
X198245393Y-103249669D01*
X198167877Y-103067649D01*
X198154623Y-103035929D01*
X198094242Y-102890649D01*
X198040042Y-102759371D01*
X197994364Y-102647837D01*
X197959548Y-102561787D01*
X197937936Y-102506961D01*
X197931695Y-102489204D01*
X197951782Y-102479652D01*
X198004570Y-102469051D01*
X198061366Y-102461659D01*
X198121950Y-102452103D01*
X198217951Y-102433128D01*
X198340856Y-102406594D01*
X198482150Y-102374361D01*
X198633320Y-102338289D01*
X198690697Y-102324182D01*
X198901757Y-102272777D01*
X199077867Y-102232473D01*
X199227709Y-102201982D01*
X199359967Y-102180016D01*
X199483324Y-102165289D01*
X199606460Y-102156511D01*
X199738061Y-102152397D01*
X199854614Y-102151598D01*
X200195019Y-102164984D01*
G36*
X207252251Y-103381777D02*
X207252290Y-103852705D01*
X207252342Y-104280488D01*
X207252488Y-104667338D01*
X207252805Y-105015466D01*
X207253371Y-105327085D01*
X207254265Y-105604406D01*
X207255565Y-105849640D01*
X207257349Y-106065001D01*
X207259697Y-106252700D01*
X207262685Y-106414948D01*
X207266393Y-106553957D01*
X207270899Y-106671940D01*
X207276282Y-106771109D01*
X207282619Y-106853674D01*
X207289988Y-106921848D01*
X207298470Y-106977843D01*
X207308141Y-107023870D01*
X207319079Y-107062143D01*
X207331365Y-107094871D01*
X207345075Y-107124268D01*
X207360288Y-107152544D01*
X207377083Y-107181913D01*
X207387516Y-107200207D01*
X207456352Y-107322179D01*
X205732393Y-107322179D01*
X205732393Y-107129411D01*
X205730923Y-107042296D01*
X205727002Y-106975671D01*
X205721359Y-106939950D01*
X205718864Y-106936643D01*
X205695918Y-106950472D01*
X205650286Y-106986317D01*
X205604684Y-107025239D01*
X205495027Y-107107072D01*
X205355450Y-107189445D01*
X205200659Y-107264791D01*
X205045360Y-107325543D01*
X204983380Y-107344926D01*
X204845773Y-107374188D01*
X204679331Y-107394199D01*
X204499746Y-107404331D01*
X204322713Y-107403956D01*
X204163925Y-107392445D01*
X204088197Y-107380777D01*
X203810770Y-107304314D01*
X203555031Y-107188351D01*
X203322355Y-107033942D01*
X203114119Y-106842144D01*
X202931701Y-106614012D01*
X202797501Y-106391426D01*
X202687276Y-106156872D01*
X202602900Y-105917108D01*
X202542639Y-105663996D01*
X202504759Y-105389398D01*
X202487526Y-105085174D01*
X202486066Y-104929589D01*
X202490274Y-104815527D01*
X204155909Y-104815527D01*
X204156327Y-105002495D01*
X204162179Y-105178658D01*
X204173554Y-105333506D01*
X204190540Y-105456527D01*
X204195730Y-105481319D01*
X204259616Y-105696843D01*
X204343306Y-105871670D01*
X204447498Y-106006237D01*
X204572891Y-106100983D01*
X204720185Y-106156350D01*
X204890077Y-106172774D01*
X205083267Y-106150695D01*
X205210786Y-106119111D01*
X205309511Y-106082569D01*
X205418252Y-106030642D01*
X205499938Y-105983026D01*
X205641679Y-105889877D01*
X205641679Y-103579225D01*
X205506262Y-103491701D01*
X205348510Y-103409490D01*
X205179387Y-103355951D01*
X205008379Y-103331996D01*
X204844971Y-103338539D01*
X204698647Y-103376493D01*
X204634454Y-103407770D01*
X204518088Y-103494148D01*
X204419736Y-103608199D01*
X204337060Y-103754092D01*
X204267721Y-103935992D01*
X204209380Y-104158069D01*
X204206806Y-104169857D01*
X204186374Y-104294921D01*
X204171021Y-104451229D01*
X204160837Y-104628268D01*
X204155909Y-104815527D01*
X202490274Y-104815527D01*
X202501839Y-104502058D01*
X202545924Y-104108637D01*
X202618214Y-103749587D01*
X202718606Y-103425170D01*
X202846995Y-103135646D01*
X203003278Y-102881276D01*
X203187350Y-102662321D01*
X203399107Y-102479042D01*
X203489839Y-102416864D01*
X203692638Y-102304068D01*
X203900141Y-102224492D01*
X204121300Y-102175957D01*
X204365066Y-102156280D01*
X204550903Y-102158380D01*
X204811369Y-102180410D01*
X205037562Y-102224236D01*
X205236027Y-102291872D01*
X205413306Y-102385331D01*
X205511473Y-102454060D01*
X205570468Y-102498085D01*
X205614043Y-102528160D01*
X205630536Y-102537000D01*
X205633780Y-102515245D01*
X205636373Y-102453665D01*
X205638340Y-102357788D01*
X205639705Y-102233141D01*
X205640495Y-102085250D01*
X205640735Y-101919644D01*
X205640450Y-101741849D01*
X205639665Y-101557393D01*
X205638406Y-101371803D01*
X205636698Y-101190606D01*
X205634567Y-101019330D01*
X205632037Y-100863501D01*
X205629135Y-100728648D01*
X205625886Y-100620297D01*
X205622315Y-100543975D01*
X205621327Y-100529946D01*
X205606105Y-100388486D01*
X205582879Y-100277696D01*
X205547243Y-100183032D01*
X205494791Y-100089952D01*
X205482201Y-100070705D01*
X205433118Y-99997000D01*
X207251857Y-99997000D01*
X207252251Y-103381777D01*
X207252251Y-103381777D01*
G37*
X207252251Y-103381777D02*
X207252290Y-103852705D01*
X207252342Y-104280488D01*
X207252488Y-104667338D01*
X207252805Y-105015466D01*
X207253371Y-105327085D01*
X207254265Y-105604406D01*
X207255565Y-105849640D01*
X207257349Y-106065001D01*
X207259697Y-106252700D01*
X207262685Y-106414948D01*
X207266393Y-106553957D01*
X207270899Y-106671940D01*
X207276282Y-106771109D01*
X207282619Y-106853674D01*
X207289988Y-106921848D01*
X207298470Y-106977843D01*
X207308141Y-107023870D01*
X207319079Y-107062143D01*
X207331365Y-107094871D01*
X207345075Y-107124268D01*
X207360288Y-107152544D01*
X207377083Y-107181913D01*
X207387516Y-107200207D01*
X207456352Y-107322179D01*
X205732393Y-107322179D01*
X205732393Y-107129411D01*
X205730923Y-107042296D01*
X205727002Y-106975671D01*
X205721359Y-106939950D01*
X205718864Y-106936643D01*
X205695918Y-106950472D01*
X205650286Y-106986317D01*
X205604684Y-107025239D01*
X205495027Y-107107072D01*
X205355450Y-107189445D01*
X205200659Y-107264791D01*
X205045360Y-107325543D01*
X204983380Y-107344926D01*
X204845773Y-107374188D01*
X204679331Y-107394199D01*
X204499746Y-107404331D01*
X204322713Y-107403956D01*
X204163925Y-107392445D01*
X204088197Y-107380777D01*
X203810770Y-107304314D01*
X203555031Y-107188351D01*
X203322355Y-107033942D01*
X203114119Y-106842144D01*
X202931701Y-106614012D01*
X202797501Y-106391426D01*
X202687276Y-106156872D01*
X202602900Y-105917108D01*
X202542639Y-105663996D01*
X202504759Y-105389398D01*
X202487526Y-105085174D01*
X202486066Y-104929589D01*
X202490274Y-104815527D01*
X204155909Y-104815527D01*
X204156327Y-105002495D01*
X204162179Y-105178658D01*
X204173554Y-105333506D01*
X204190540Y-105456527D01*
X204195730Y-105481319D01*
X204259616Y-105696843D01*
X204343306Y-105871670D01*
X204447498Y-106006237D01*
X204572891Y-106100983D01*
X204720185Y-106156350D01*
X204890077Y-106172774D01*
X205083267Y-106150695D01*
X205210786Y-106119111D01*
X205309511Y-106082569D01*
X205418252Y-106030642D01*
X205499938Y-105983026D01*
X205641679Y-105889877D01*
X205641679Y-103579225D01*
X205506262Y-103491701D01*
X205348510Y-103409490D01*
X205179387Y-103355951D01*
X205008379Y-103331996D01*
X204844971Y-103338539D01*
X204698647Y-103376493D01*
X204634454Y-103407770D01*
X204518088Y-103494148D01*
X204419736Y-103608199D01*
X204337060Y-103754092D01*
X204267721Y-103935992D01*
X204209380Y-104158069D01*
X204206806Y-104169857D01*
X204186374Y-104294921D01*
X204171021Y-104451229D01*
X204160837Y-104628268D01*
X204155909Y-104815527D01*
X202490274Y-104815527D01*
X202501839Y-104502058D01*
X202545924Y-104108637D01*
X202618214Y-103749587D01*
X202718606Y-103425170D01*
X202846995Y-103135646D01*
X203003278Y-102881276D01*
X203187350Y-102662321D01*
X203399107Y-102479042D01*
X203489839Y-102416864D01*
X203692638Y-102304068D01*
X203900141Y-102224492D01*
X204121300Y-102175957D01*
X204365066Y-102156280D01*
X204550903Y-102158380D01*
X204811369Y-102180410D01*
X205037562Y-102224236D01*
X205236027Y-102291872D01*
X205413306Y-102385331D01*
X205511473Y-102454060D01*
X205570468Y-102498085D01*
X205614043Y-102528160D01*
X205630536Y-102537000D01*
X205633780Y-102515245D01*
X205636373Y-102453665D01*
X205638340Y-102357788D01*
X205639705Y-102233141D01*
X205640495Y-102085250D01*
X205640735Y-101919644D01*
X205640450Y-101741849D01*
X205639665Y-101557393D01*
X205638406Y-101371803D01*
X205636698Y-101190606D01*
X205634567Y-101019330D01*
X205632037Y-100863501D01*
X205629135Y-100728648D01*
X205625886Y-100620297D01*
X205622315Y-100543975D01*
X205621327Y-100529946D01*
X205606105Y-100388486D01*
X205582879Y-100277696D01*
X205547243Y-100183032D01*
X205494791Y-100089952D01*
X205482201Y-100070705D01*
X205433118Y-99997000D01*
X207251857Y-99997000D01*
X207252251Y-103381777D01*
G36*
X190257620Y-98468594D02*
X190451030Y-98517286D01*
X190624971Y-98603332D01*
X190775260Y-98723421D01*
X190897716Y-98874243D01*
X190988155Y-99052486D01*
X191040914Y-99245967D01*
X191052668Y-99441364D01*
X191022827Y-99629920D01*
X190955126Y-99806419D01*
X190853297Y-99965645D01*
X190721075Y-100102385D01*
X190562192Y-100211422D01*
X190380383Y-100287540D01*
X190277394Y-100312498D01*
X190188001Y-100327608D01*
X190119091Y-100333579D01*
X190052876Y-100329913D01*
X189971566Y-100316113D01*
X189905078Y-100302100D01*
X189717412Y-100238800D01*
X189549319Y-100136096D01*
X189404584Y-99997102D01*
X189286993Y-99824935D01*
X189258971Y-99770214D01*
X189225949Y-99697155D01*
X189205240Y-99635803D01*
X189194059Y-99571252D01*
X189189620Y-99488599D01*
X189189061Y-99396018D01*
X189197271Y-99226549D01*
X189224221Y-99087373D01*
X189274826Y-98965582D01*
X189353998Y-98848272D01*
X189431438Y-98759349D01*
X189575864Y-98627125D01*
X189726721Y-98535855D01*
X189892962Y-98481208D01*
X190048922Y-98460567D01*
X190257620Y-98468594D01*
X190257620Y-98468594D01*
G37*
X190257620Y-98468594D02*
X190451030Y-98517286D01*
X190624971Y-98603332D01*
X190775260Y-98723421D01*
X190897716Y-98874243D01*
X190988155Y-99052486D01*
X191040914Y-99245967D01*
X191052668Y-99441364D01*
X191022827Y-99629920D01*
X190955126Y-99806419D01*
X190853297Y-99965645D01*
X190721075Y-100102385D01*
X190562192Y-100211422D01*
X190380383Y-100287540D01*
X190277394Y-100312498D01*
X190188001Y-100327608D01*
X190119091Y-100333579D01*
X190052876Y-100329913D01*
X189971566Y-100316113D01*
X189905078Y-100302100D01*
X189717412Y-100238800D01*
X189549319Y-100136096D01*
X189404584Y-99997102D01*
X189286993Y-99824935D01*
X189258971Y-99770214D01*
X189225949Y-99697155D01*
X189205240Y-99635803D01*
X189194059Y-99571252D01*
X189189620Y-99488599D01*
X189189061Y-99396018D01*
X189197271Y-99226549D01*
X189224221Y-99087373D01*
X189274826Y-98965582D01*
X189353998Y-98848272D01*
X189431438Y-98759349D01*
X189575864Y-98627125D01*
X189726721Y-98535855D01*
X189892962Y-98481208D01*
X190048922Y-98460567D01*
X190257620Y-98468594D01*
D13*
X121131665Y-126770608D02*
G75*
G03X124364000Y-126927516I1672335J1078608D01*
G01*
X121131665Y-124613392D02*
G75*
G02X124364000Y-124456484I1672335J-1078608D01*
G01*
X121762870Y-126771837D02*
G75*
G03X123844961Y-126772000I1041130J1079837D01*
G01*
X121762870Y-124612163D02*
G75*
G02X123844961Y-124612000I1041130J-1079837D01*
G01*
X124364000Y-126928000D02*
X124364000Y-126772000D01*
X124364000Y-124612000D02*
X124364000Y-124456000D01*
X136174000Y-150192000D02*
X136174000Y-152192000D01*
X136174000Y-152192000D02*
X140024000Y-152192000D01*
X136174000Y-150192000D02*
X140024000Y-150192000D01*
X150674000Y-150192000D02*
X154524000Y-150192000D01*
X150674000Y-152192000D02*
X154524000Y-152192000D01*
X150674000Y-150192000D02*
X150674000Y-152192000D01*
X165124000Y-150192000D02*
X168974000Y-150192000D01*
X165124000Y-152192000D02*
X168974000Y-152192000D01*
X165124000Y-150192000D02*
X165124000Y-152192000D01*
X179174000Y-150192000D02*
X183024000Y-150192000D01*
X179174000Y-152192000D02*
X183024000Y-152192000D01*
X179174000Y-150192000D02*
X179174000Y-152192000D01*
X193624000Y-150192000D02*
X197474000Y-150192000D01*
X193624000Y-152192000D02*
X197474000Y-152192000D01*
X193624000Y-150192000D02*
X193624000Y-152192000D01*
X137124000Y-79252000D02*
X140324000Y-79252000D01*
X140324000Y-77132000D02*
X137124000Y-77132000D01*
X137124000Y-77132000D02*
X137124000Y-79252000D01*
X146874000Y-77132000D02*
X146874000Y-79252000D01*
X150074000Y-77132000D02*
X146874000Y-77132000D01*
X146874000Y-79252000D02*
X150074000Y-79252000D01*
X140334000Y-136122000D02*
X140334000Y-133692000D01*
X140324000Y-136142000D02*
X139324000Y-136142000D01*
X137274000Y-136142000D02*
X137274000Y-134292000D01*
X138324000Y-136142000D02*
X137274000Y-136142000D01*
X152074000Y-136392000D02*
X151024000Y-136392000D01*
X151024000Y-136392000D02*
X151024000Y-134542000D01*
X154074000Y-136392000D02*
X153074000Y-136392000D01*
X154084000Y-136372000D02*
X154084000Y-133942000D01*
X166824000Y-136392000D02*
X165774000Y-136392000D01*
X165774000Y-136392000D02*
X165774000Y-134542000D01*
X168824000Y-136392000D02*
X167824000Y-136392000D01*
X168834000Y-136372000D02*
X168834000Y-133942000D01*
X183334000Y-136372000D02*
X183334000Y-133942000D01*
X183324000Y-136392000D02*
X182324000Y-136392000D01*
X180274000Y-136392000D02*
X180274000Y-134542000D01*
X181324000Y-136392000D02*
X180274000Y-136392000D01*
X197334000Y-136372000D02*
X197334000Y-133942000D01*
X197324000Y-136392000D02*
X196324000Y-136392000D01*
X194274000Y-136392000D02*
X194274000Y-134542000D01*
X195324000Y-136392000D02*
X194274000Y-136392000D01*
X136624000Y-131002000D02*
X139824000Y-131002000D01*
X139824000Y-128882000D02*
X136624000Y-128882000D01*
X136624000Y-128882000D02*
X136624000Y-131002000D01*
X150374000Y-128632000D02*
X150374000Y-130752000D01*
X153574000Y-128632000D02*
X150374000Y-128632000D01*
X150374000Y-130752000D02*
X153574000Y-130752000D01*
X165374000Y-130752000D02*
X168574000Y-130752000D01*
X168574000Y-128632000D02*
X165374000Y-128632000D01*
X165374000Y-128632000D02*
X165374000Y-130752000D01*
X179374000Y-128632000D02*
X179374000Y-130752000D01*
X182574000Y-128632000D02*
X179374000Y-128632000D01*
X179374000Y-130752000D02*
X182574000Y-130752000D01*
X193374000Y-130752000D02*
X196574000Y-130752000D01*
X196574000Y-128632000D02*
X193374000Y-128632000D01*
X193374000Y-128632000D02*
X193374000Y-130752000D01*
D14*
X142728761Y-149739619D02*
X142633523Y-149692000D01*
X142538285Y-149596761D01*
X142395428Y-149453904D01*
X142300190Y-149406285D01*
X142204952Y-149406285D01*
X142252571Y-149644380D02*
X142157333Y-149596761D01*
X142062095Y-149501523D01*
X142014476Y-149311047D01*
X142014476Y-148977714D01*
X142062095Y-148787238D01*
X142157333Y-148692000D01*
X142252571Y-148644380D01*
X142443047Y-148644380D01*
X142538285Y-148692000D01*
X142633523Y-148787238D01*
X142681142Y-148977714D01*
X142681142Y-149311047D01*
X142633523Y-149501523D01*
X142538285Y-149596761D01*
X142443047Y-149644380D01*
X142252571Y-149644380D01*
X143062095Y-148739619D02*
X143109714Y-148692000D01*
X143204952Y-148644380D01*
X143443047Y-148644380D01*
X143538285Y-148692000D01*
X143585904Y-148739619D01*
X143633523Y-148834857D01*
X143633523Y-148930095D01*
X143585904Y-149072952D01*
X143014476Y-149644380D01*
X143633523Y-149644380D01*
X156978761Y-149739619D02*
X156883523Y-149692000D01*
X156788285Y-149596761D01*
X156645428Y-149453904D01*
X156550190Y-149406285D01*
X156454952Y-149406285D01*
X156502571Y-149644380D02*
X156407333Y-149596761D01*
X156312095Y-149501523D01*
X156264476Y-149311047D01*
X156264476Y-148977714D01*
X156312095Y-148787238D01*
X156407333Y-148692000D01*
X156502571Y-148644380D01*
X156693047Y-148644380D01*
X156788285Y-148692000D01*
X156883523Y-148787238D01*
X156931142Y-148977714D01*
X156931142Y-149311047D01*
X156883523Y-149501523D01*
X156788285Y-149596761D01*
X156693047Y-149644380D01*
X156502571Y-149644380D01*
X157788285Y-148977714D02*
X157788285Y-149644380D01*
X157550190Y-148596761D02*
X157312095Y-149311047D01*
X157931142Y-149311047D01*
X171478761Y-149739619D02*
X171383523Y-149692000D01*
X171288285Y-149596761D01*
X171145428Y-149453904D01*
X171050190Y-149406285D01*
X170954952Y-149406285D01*
X171002571Y-149644380D02*
X170907333Y-149596761D01*
X170812095Y-149501523D01*
X170764476Y-149311047D01*
X170764476Y-148977714D01*
X170812095Y-148787238D01*
X170907333Y-148692000D01*
X171002571Y-148644380D01*
X171193047Y-148644380D01*
X171288285Y-148692000D01*
X171383523Y-148787238D01*
X171431142Y-148977714D01*
X171431142Y-149311047D01*
X171383523Y-149501523D01*
X171288285Y-149596761D01*
X171193047Y-149644380D01*
X171002571Y-149644380D01*
X172288285Y-148644380D02*
X172097809Y-148644380D01*
X172002571Y-148692000D01*
X171954952Y-148739619D01*
X171859714Y-148882476D01*
X171812095Y-149072952D01*
X171812095Y-149453904D01*
X171859714Y-149549142D01*
X171907333Y-149596761D01*
X172002571Y-149644380D01*
X172193047Y-149644380D01*
X172288285Y-149596761D01*
X172335904Y-149549142D01*
X172383523Y-149453904D01*
X172383523Y-149215809D01*
X172335904Y-149120571D01*
X172288285Y-149072952D01*
X172193047Y-149025333D01*
X172002571Y-149025333D01*
X171907333Y-149072952D01*
X171859714Y-149120571D01*
X171812095Y-149215809D01*
X185728761Y-149739619D02*
X185633523Y-149692000D01*
X185538285Y-149596761D01*
X185395428Y-149453904D01*
X185300190Y-149406285D01*
X185204952Y-149406285D01*
X185252571Y-149644380D02*
X185157333Y-149596761D01*
X185062095Y-149501523D01*
X185014476Y-149311047D01*
X185014476Y-148977714D01*
X185062095Y-148787238D01*
X185157333Y-148692000D01*
X185252571Y-148644380D01*
X185443047Y-148644380D01*
X185538285Y-148692000D01*
X185633523Y-148787238D01*
X185681142Y-148977714D01*
X185681142Y-149311047D01*
X185633523Y-149501523D01*
X185538285Y-149596761D01*
X185443047Y-149644380D01*
X185252571Y-149644380D01*
X186252571Y-149072952D02*
X186157333Y-149025333D01*
X186109714Y-148977714D01*
X186062095Y-148882476D01*
X186062095Y-148834857D01*
X186109714Y-148739619D01*
X186157333Y-148692000D01*
X186252571Y-148644380D01*
X186443047Y-148644380D01*
X186538285Y-148692000D01*
X186585904Y-148739619D01*
X186633523Y-148834857D01*
X186633523Y-148882476D01*
X186585904Y-148977714D01*
X186538285Y-149025333D01*
X186443047Y-149072952D01*
X186252571Y-149072952D01*
X186157333Y-149120571D01*
X186109714Y-149168190D01*
X186062095Y-149263428D01*
X186062095Y-149453904D01*
X186109714Y-149549142D01*
X186157333Y-149596761D01*
X186252571Y-149644380D01*
X186443047Y-149644380D01*
X186538285Y-149596761D01*
X186585904Y-149549142D01*
X186633523Y-149453904D01*
X186633523Y-149263428D01*
X186585904Y-149168190D01*
X186538285Y-149120571D01*
X186443047Y-149072952D01*
X200002571Y-149739619D02*
X199907333Y-149692000D01*
X199812095Y-149596761D01*
X199669238Y-149453904D01*
X199574000Y-149406285D01*
X199478761Y-149406285D01*
X199526380Y-149644380D02*
X199431142Y-149596761D01*
X199335904Y-149501523D01*
X199288285Y-149311047D01*
X199288285Y-148977714D01*
X199335904Y-148787238D01*
X199431142Y-148692000D01*
X199526380Y-148644380D01*
X199716857Y-148644380D01*
X199812095Y-148692000D01*
X199907333Y-148787238D01*
X199954952Y-148977714D01*
X199954952Y-149311047D01*
X199907333Y-149501523D01*
X199812095Y-149596761D01*
X199716857Y-149644380D01*
X199526380Y-149644380D01*
X200907333Y-149644380D02*
X200335904Y-149644380D01*
X200621619Y-149644380D02*
X200621619Y-148644380D01*
X200526380Y-148787238D01*
X200431142Y-148882476D01*
X200335904Y-148930095D01*
X201526380Y-148644380D02*
X201621619Y-148644380D01*
X201716857Y-148692000D01*
X201764476Y-148739619D01*
X201812095Y-148834857D01*
X201859714Y-149025333D01*
X201859714Y-149263428D01*
X201812095Y-149453904D01*
X201764476Y-149549142D01*
X201716857Y-149596761D01*
X201621619Y-149644380D01*
X201526380Y-149644380D01*
X201431142Y-149596761D01*
X201383523Y-149549142D01*
X201335904Y-149453904D01*
X201288285Y-149263428D01*
X201288285Y-149025333D01*
X201335904Y-148834857D01*
X201383523Y-148739619D01*
X201431142Y-148692000D01*
X201526380Y-148644380D01*
X117576380Y-125458666D02*
X117100190Y-125792000D01*
X117576380Y-126030095D02*
X116576380Y-126030095D01*
X116576380Y-125649142D01*
X116624000Y-125553904D01*
X116671619Y-125506285D01*
X116766857Y-125458666D01*
X116909714Y-125458666D01*
X117004952Y-125506285D01*
X117052571Y-125553904D01*
X117100190Y-125649142D01*
X117100190Y-126030095D01*
X117576380Y-124506285D02*
X117576380Y-125077714D01*
X117576380Y-124792000D02*
X116576380Y-124792000D01*
X116719238Y-124887238D01*
X116814476Y-124982476D01*
X116862095Y-125077714D01*
X156407333Y-78144380D02*
X156074000Y-77668190D01*
X155835904Y-78144380D02*
X155835904Y-77144380D01*
X156216857Y-77144380D01*
X156312095Y-77192000D01*
X156359714Y-77239619D01*
X156407333Y-77334857D01*
X156407333Y-77477714D01*
X156359714Y-77572952D01*
X156312095Y-77620571D01*
X156216857Y-77668190D01*
X155835904Y-77668190D01*
X157264476Y-77144380D02*
X157074000Y-77144380D01*
X156978761Y-77192000D01*
X156931142Y-77239619D01*
X156835904Y-77382476D01*
X156788285Y-77572952D01*
X156788285Y-77953904D01*
X156835904Y-78049142D01*
X156883523Y-78096761D01*
X156978761Y-78144380D01*
X157169238Y-78144380D01*
X157264476Y-78096761D01*
X157312095Y-78049142D01*
X157359714Y-77953904D01*
X157359714Y-77715809D01*
X157312095Y-77620571D01*
X157264476Y-77572952D01*
X157169238Y-77525333D01*
X156978761Y-77525333D01*
X156883523Y-77572952D01*
X156835904Y-77620571D01*
X156788285Y-77715809D01*
X152657333Y-80644380D02*
X152324000Y-80168190D01*
X152085904Y-80644380D02*
X152085904Y-79644380D01*
X152466857Y-79644380D01*
X152562095Y-79692000D01*
X152609714Y-79739619D01*
X152657333Y-79834857D01*
X152657333Y-79977714D01*
X152609714Y-80072952D01*
X152562095Y-80120571D01*
X152466857Y-80168190D01*
X152085904Y-80168190D01*
X152990666Y-79644380D02*
X153657333Y-79644380D01*
X153228761Y-80644380D01*
X156407333Y-87894380D02*
X156074000Y-87418190D01*
X155835904Y-87894380D02*
X155835904Y-86894380D01*
X156216857Y-86894380D01*
X156312095Y-86942000D01*
X156359714Y-86989619D01*
X156407333Y-87084857D01*
X156407333Y-87227714D01*
X156359714Y-87322952D01*
X156312095Y-87370571D01*
X156216857Y-87418190D01*
X155835904Y-87418190D01*
X156978761Y-87322952D02*
X156883523Y-87275333D01*
X156835904Y-87227714D01*
X156788285Y-87132476D01*
X156788285Y-87084857D01*
X156835904Y-86989619D01*
X156883523Y-86942000D01*
X156978761Y-86894380D01*
X157169238Y-86894380D01*
X157264476Y-86942000D01*
X157312095Y-86989619D01*
X157359714Y-87084857D01*
X157359714Y-87132476D01*
X157312095Y-87227714D01*
X157264476Y-87275333D01*
X157169238Y-87322952D01*
X156978761Y-87322952D01*
X156883523Y-87370571D01*
X156835904Y-87418190D01*
X156788285Y-87513428D01*
X156788285Y-87703904D01*
X156835904Y-87799142D01*
X156883523Y-87846761D01*
X156978761Y-87894380D01*
X157169238Y-87894380D01*
X157264476Y-87846761D01*
X157312095Y-87799142D01*
X157359714Y-87703904D01*
X157359714Y-87513428D01*
X157312095Y-87418190D01*
X157264476Y-87370571D01*
X157169238Y-87322952D01*
X171498761Y-83965333D02*
X171546380Y-83822476D01*
X171546380Y-83584380D01*
X171498761Y-83489142D01*
X171451142Y-83441523D01*
X171355904Y-83393904D01*
X171260666Y-83393904D01*
X171165428Y-83441523D01*
X171117809Y-83489142D01*
X171070190Y-83584380D01*
X171022571Y-83774857D01*
X170974952Y-83870095D01*
X170927333Y-83917714D01*
X170832095Y-83965333D01*
X170736857Y-83965333D01*
X170641619Y-83917714D01*
X170594000Y-83870095D01*
X170546380Y-83774857D01*
X170546380Y-83536761D01*
X170594000Y-83393904D01*
X170546380Y-83060571D02*
X171546380Y-82822476D01*
X170832095Y-82632000D01*
X171546380Y-82441523D01*
X170546380Y-82203428D01*
X171546380Y-81298666D02*
X171546380Y-81870095D01*
X171546380Y-81584380D02*
X170546380Y-81584380D01*
X170689238Y-81679619D01*
X170784476Y-81774857D01*
X170832095Y-81870095D01*
X122045904Y-129394380D02*
X122045904Y-128394380D01*
X122284000Y-128394380D01*
X122426857Y-128442000D01*
X122522095Y-128537238D01*
X122569714Y-128632476D01*
X122617333Y-128822952D01*
X122617333Y-128965809D01*
X122569714Y-129156285D01*
X122522095Y-129251523D01*
X122426857Y-129346761D01*
X122284000Y-129394380D01*
X122045904Y-129394380D01*
X123569714Y-129394380D02*
X122998285Y-129394380D01*
X123284000Y-129394380D02*
X123284000Y-128394380D01*
X123188761Y-128537238D01*
X123093523Y-128632476D01*
X122998285Y-128680095D01*
X137508904Y-149739380D02*
X137508904Y-148739380D01*
X137747000Y-148739380D01*
X137889857Y-148787000D01*
X137985095Y-148882238D01*
X138032714Y-148977476D01*
X138080333Y-149167952D01*
X138080333Y-149310809D01*
X138032714Y-149501285D01*
X137985095Y-149596523D01*
X137889857Y-149691761D01*
X137747000Y-149739380D01*
X137508904Y-149739380D01*
X138413666Y-148739380D02*
X139032714Y-148739380D01*
X138699380Y-149120333D01*
X138842238Y-149120333D01*
X138937476Y-149167952D01*
X138985095Y-149215571D01*
X139032714Y-149310809D01*
X139032714Y-149548904D01*
X138985095Y-149644142D01*
X138937476Y-149691761D01*
X138842238Y-149739380D01*
X138556523Y-149739380D01*
X138461285Y-149691761D01*
X138413666Y-149644142D01*
X152008904Y-149739380D02*
X152008904Y-148739380D01*
X152247000Y-148739380D01*
X152389857Y-148787000D01*
X152485095Y-148882238D01*
X152532714Y-148977476D01*
X152580333Y-149167952D01*
X152580333Y-149310809D01*
X152532714Y-149501285D01*
X152485095Y-149596523D01*
X152389857Y-149691761D01*
X152247000Y-149739380D01*
X152008904Y-149739380D01*
X153485095Y-148739380D02*
X153008904Y-148739380D01*
X152961285Y-149215571D01*
X153008904Y-149167952D01*
X153104142Y-149120333D01*
X153342238Y-149120333D01*
X153437476Y-149167952D01*
X153485095Y-149215571D01*
X153532714Y-149310809D01*
X153532714Y-149548904D01*
X153485095Y-149644142D01*
X153437476Y-149691761D01*
X153342238Y-149739380D01*
X153104142Y-149739380D01*
X153008904Y-149691761D01*
X152961285Y-149644142D01*
X166458904Y-149739380D02*
X166458904Y-148739380D01*
X166697000Y-148739380D01*
X166839857Y-148787000D01*
X166935095Y-148882238D01*
X166982714Y-148977476D01*
X167030333Y-149167952D01*
X167030333Y-149310809D01*
X166982714Y-149501285D01*
X166935095Y-149596523D01*
X166839857Y-149691761D01*
X166697000Y-149739380D01*
X166458904Y-149739380D01*
X167363666Y-148739380D02*
X168030333Y-148739380D01*
X167601761Y-149739380D01*
X180508904Y-149739380D02*
X180508904Y-148739380D01*
X180747000Y-148739380D01*
X180889857Y-148787000D01*
X180985095Y-148882238D01*
X181032714Y-148977476D01*
X181080333Y-149167952D01*
X181080333Y-149310809D01*
X181032714Y-149501285D01*
X180985095Y-149596523D01*
X180889857Y-149691761D01*
X180747000Y-149739380D01*
X180508904Y-149739380D01*
X181556523Y-149739380D02*
X181747000Y-149739380D01*
X181842238Y-149691761D01*
X181889857Y-149644142D01*
X181985095Y-149501285D01*
X182032714Y-149310809D01*
X182032714Y-148929857D01*
X181985095Y-148834619D01*
X181937476Y-148787000D01*
X181842238Y-148739380D01*
X181651761Y-148739380D01*
X181556523Y-148787000D01*
X181508904Y-148834619D01*
X181461285Y-148929857D01*
X181461285Y-149167952D01*
X181508904Y-149263190D01*
X181556523Y-149310809D01*
X181651761Y-149358428D01*
X181842238Y-149358428D01*
X181937476Y-149310809D01*
X181985095Y-149263190D01*
X182032714Y-149167952D01*
X194482714Y-149739380D02*
X194482714Y-148739380D01*
X194720809Y-148739380D01*
X194863666Y-148787000D01*
X194958904Y-148882238D01*
X195006523Y-148977476D01*
X195054142Y-149167952D01*
X195054142Y-149310809D01*
X195006523Y-149501285D01*
X194958904Y-149596523D01*
X194863666Y-149691761D01*
X194720809Y-149739380D01*
X194482714Y-149739380D01*
X196006523Y-149739380D02*
X195435095Y-149739380D01*
X195720809Y-149739380D02*
X195720809Y-148739380D01*
X195625571Y-148882238D01*
X195530333Y-148977476D01*
X195435095Y-149025095D01*
X196958904Y-149739380D02*
X196387476Y-149739380D01*
X196673190Y-149739380D02*
X196673190Y-148739380D01*
X196577952Y-148882238D01*
X196482714Y-148977476D01*
X196387476Y-149025095D01*
X138109714Y-76844380D02*
X138109714Y-75844380D01*
X138347809Y-75844380D01*
X138490666Y-75892000D01*
X138585904Y-75987238D01*
X138633523Y-76082476D01*
X138681142Y-76272952D01*
X138681142Y-76415809D01*
X138633523Y-76606285D01*
X138585904Y-76701523D01*
X138490666Y-76796761D01*
X138347809Y-76844380D01*
X138109714Y-76844380D01*
X139633523Y-76844380D02*
X139062095Y-76844380D01*
X139347809Y-76844380D02*
X139347809Y-75844380D01*
X139252571Y-75987238D01*
X139157333Y-76082476D01*
X139062095Y-76130095D01*
X140014476Y-75939619D02*
X140062095Y-75892000D01*
X140157333Y-75844380D01*
X140395428Y-75844380D01*
X140490666Y-75892000D01*
X140538285Y-75939619D01*
X140585904Y-76034857D01*
X140585904Y-76130095D01*
X140538285Y-76272952D01*
X139966857Y-76844380D01*
X140585904Y-76844380D01*
X147859714Y-76844380D02*
X147859714Y-75844380D01*
X148097809Y-75844380D01*
X148240666Y-75892000D01*
X148335904Y-75987238D01*
X148383523Y-76082476D01*
X148431142Y-76272952D01*
X148431142Y-76415809D01*
X148383523Y-76606285D01*
X148335904Y-76701523D01*
X148240666Y-76796761D01*
X148097809Y-76844380D01*
X147859714Y-76844380D01*
X149383523Y-76844380D02*
X148812095Y-76844380D01*
X149097809Y-76844380D02*
X149097809Y-75844380D01*
X149002571Y-75987238D01*
X148907333Y-76082476D01*
X148812095Y-76130095D01*
X149716857Y-75844380D02*
X150335904Y-75844380D01*
X150002571Y-76225333D01*
X150145428Y-76225333D01*
X150240666Y-76272952D01*
X150288285Y-76320571D01*
X150335904Y-76415809D01*
X150335904Y-76653904D01*
X150288285Y-76749142D01*
X150240666Y-76796761D01*
X150145428Y-76844380D01*
X149859714Y-76844380D01*
X149764476Y-76796761D01*
X149716857Y-76749142D01*
X141821619Y-135287238D02*
X141774000Y-135382476D01*
X141678761Y-135477714D01*
X141535904Y-135620571D01*
X141488285Y-135715809D01*
X141488285Y-135811047D01*
X141726380Y-135763428D02*
X141678761Y-135858666D01*
X141583523Y-135953904D01*
X141393047Y-136001523D01*
X141059714Y-136001523D01*
X140869238Y-135953904D01*
X140774000Y-135858666D01*
X140726380Y-135763428D01*
X140726380Y-135572952D01*
X140774000Y-135477714D01*
X140869238Y-135382476D01*
X141059714Y-135334857D01*
X141393047Y-135334857D01*
X141583523Y-135382476D01*
X141678761Y-135477714D01*
X141726380Y-135572952D01*
X141726380Y-135763428D01*
X141726380Y-134382476D02*
X141726380Y-134953904D01*
X141726380Y-134668190D02*
X140726380Y-134668190D01*
X140869238Y-134763428D01*
X140964476Y-134858666D01*
X141012095Y-134953904D01*
X155571619Y-135537238D02*
X155524000Y-135632476D01*
X155428761Y-135727714D01*
X155285904Y-135870571D01*
X155238285Y-135965809D01*
X155238285Y-136061047D01*
X155476380Y-136013428D02*
X155428761Y-136108666D01*
X155333523Y-136203904D01*
X155143047Y-136251523D01*
X154809714Y-136251523D01*
X154619238Y-136203904D01*
X154524000Y-136108666D01*
X154476380Y-136013428D01*
X154476380Y-135822952D01*
X154524000Y-135727714D01*
X154619238Y-135632476D01*
X154809714Y-135584857D01*
X155143047Y-135584857D01*
X155333523Y-135632476D01*
X155428761Y-135727714D01*
X155476380Y-135822952D01*
X155476380Y-136013428D01*
X154476380Y-135251523D02*
X154476380Y-134632476D01*
X154857333Y-134965809D01*
X154857333Y-134822952D01*
X154904952Y-134727714D01*
X154952571Y-134680095D01*
X155047809Y-134632476D01*
X155285904Y-134632476D01*
X155381142Y-134680095D01*
X155428761Y-134727714D01*
X155476380Y-134822952D01*
X155476380Y-135108666D01*
X155428761Y-135203904D01*
X155381142Y-135251523D01*
X170321619Y-135537238D02*
X170274000Y-135632476D01*
X170178761Y-135727714D01*
X170035904Y-135870571D01*
X169988285Y-135965809D01*
X169988285Y-136061047D01*
X170226380Y-136013428D02*
X170178761Y-136108666D01*
X170083523Y-136203904D01*
X169893047Y-136251523D01*
X169559714Y-136251523D01*
X169369238Y-136203904D01*
X169274000Y-136108666D01*
X169226380Y-136013428D01*
X169226380Y-135822952D01*
X169274000Y-135727714D01*
X169369238Y-135632476D01*
X169559714Y-135584857D01*
X169893047Y-135584857D01*
X170083523Y-135632476D01*
X170178761Y-135727714D01*
X170226380Y-135822952D01*
X170226380Y-136013428D01*
X169226380Y-134680095D02*
X169226380Y-135156285D01*
X169702571Y-135203904D01*
X169654952Y-135156285D01*
X169607333Y-135061047D01*
X169607333Y-134822952D01*
X169654952Y-134727714D01*
X169702571Y-134680095D01*
X169797809Y-134632476D01*
X170035904Y-134632476D01*
X170131142Y-134680095D01*
X170178761Y-134727714D01*
X170226380Y-134822952D01*
X170226380Y-135061047D01*
X170178761Y-135156285D01*
X170131142Y-135203904D01*
X184821619Y-135537238D02*
X184774000Y-135632476D01*
X184678761Y-135727714D01*
X184535904Y-135870571D01*
X184488285Y-135965809D01*
X184488285Y-136061047D01*
X184726380Y-136013428D02*
X184678761Y-136108666D01*
X184583523Y-136203904D01*
X184393047Y-136251523D01*
X184059714Y-136251523D01*
X183869238Y-136203904D01*
X183774000Y-136108666D01*
X183726380Y-136013428D01*
X183726380Y-135822952D01*
X183774000Y-135727714D01*
X183869238Y-135632476D01*
X184059714Y-135584857D01*
X184393047Y-135584857D01*
X184583523Y-135632476D01*
X184678761Y-135727714D01*
X184726380Y-135822952D01*
X184726380Y-136013428D01*
X183726380Y-135251523D02*
X183726380Y-134584857D01*
X184726380Y-135013428D01*
X198821619Y-135537238D02*
X198774000Y-135632476D01*
X198678761Y-135727714D01*
X198535904Y-135870571D01*
X198488285Y-135965809D01*
X198488285Y-136061047D01*
X198726380Y-136013428D02*
X198678761Y-136108666D01*
X198583523Y-136203904D01*
X198393047Y-136251523D01*
X198059714Y-136251523D01*
X197869238Y-136203904D01*
X197774000Y-136108666D01*
X197726380Y-136013428D01*
X197726380Y-135822952D01*
X197774000Y-135727714D01*
X197869238Y-135632476D01*
X198059714Y-135584857D01*
X198393047Y-135584857D01*
X198583523Y-135632476D01*
X198678761Y-135727714D01*
X198726380Y-135822952D01*
X198726380Y-136013428D01*
X198726380Y-135108666D02*
X198726380Y-134918190D01*
X198678761Y-134822952D01*
X198631142Y-134775333D01*
X198488285Y-134680095D01*
X198297809Y-134632476D01*
X197916857Y-134632476D01*
X197821619Y-134680095D01*
X197774000Y-134727714D01*
X197726380Y-134822952D01*
X197726380Y-135013428D01*
X197774000Y-135108666D01*
X197821619Y-135156285D01*
X197916857Y-135203904D01*
X198154952Y-135203904D01*
X198250190Y-135156285D01*
X198297809Y-135108666D01*
X198345428Y-135013428D01*
X198345428Y-134822952D01*
X198297809Y-134727714D01*
X198250190Y-134680095D01*
X198154952Y-134632476D01*
X137609714Y-128594380D02*
X137609714Y-127594380D01*
X137847809Y-127594380D01*
X137990666Y-127642000D01*
X138085904Y-127737238D01*
X138133523Y-127832476D01*
X138181142Y-128022952D01*
X138181142Y-128165809D01*
X138133523Y-128356285D01*
X138085904Y-128451523D01*
X137990666Y-128546761D01*
X137847809Y-128594380D01*
X137609714Y-128594380D01*
X139133523Y-128594380D02*
X138562095Y-128594380D01*
X138847809Y-128594380D02*
X138847809Y-127594380D01*
X138752571Y-127737238D01*
X138657333Y-127832476D01*
X138562095Y-127880095D01*
X139990666Y-127927714D02*
X139990666Y-128594380D01*
X139752571Y-127546761D02*
X139514476Y-128261047D01*
X140133523Y-128261047D01*
X151359714Y-128344380D02*
X151359714Y-127344380D01*
X151597809Y-127344380D01*
X151740666Y-127392000D01*
X151835904Y-127487238D01*
X151883523Y-127582476D01*
X151931142Y-127772952D01*
X151931142Y-127915809D01*
X151883523Y-128106285D01*
X151835904Y-128201523D01*
X151740666Y-128296761D01*
X151597809Y-128344380D01*
X151359714Y-128344380D01*
X152883523Y-128344380D02*
X152312095Y-128344380D01*
X152597809Y-128344380D02*
X152597809Y-127344380D01*
X152502571Y-127487238D01*
X152407333Y-127582476D01*
X152312095Y-127630095D01*
X153788285Y-127344380D02*
X153312095Y-127344380D01*
X153264476Y-127820571D01*
X153312095Y-127772952D01*
X153407333Y-127725333D01*
X153645428Y-127725333D01*
X153740666Y-127772952D01*
X153788285Y-127820571D01*
X153835904Y-127915809D01*
X153835904Y-128153904D01*
X153788285Y-128249142D01*
X153740666Y-128296761D01*
X153645428Y-128344380D01*
X153407333Y-128344380D01*
X153312095Y-128296761D01*
X153264476Y-128249142D01*
X166359714Y-128344380D02*
X166359714Y-127344380D01*
X166597809Y-127344380D01*
X166740666Y-127392000D01*
X166835904Y-127487238D01*
X166883523Y-127582476D01*
X166931142Y-127772952D01*
X166931142Y-127915809D01*
X166883523Y-128106285D01*
X166835904Y-128201523D01*
X166740666Y-128296761D01*
X166597809Y-128344380D01*
X166359714Y-128344380D01*
X167883523Y-128344380D02*
X167312095Y-128344380D01*
X167597809Y-128344380D02*
X167597809Y-127344380D01*
X167502571Y-127487238D01*
X167407333Y-127582476D01*
X167312095Y-127630095D01*
X168740666Y-127344380D02*
X168550190Y-127344380D01*
X168454952Y-127392000D01*
X168407333Y-127439619D01*
X168312095Y-127582476D01*
X168264476Y-127772952D01*
X168264476Y-128153904D01*
X168312095Y-128249142D01*
X168359714Y-128296761D01*
X168454952Y-128344380D01*
X168645428Y-128344380D01*
X168740666Y-128296761D01*
X168788285Y-128249142D01*
X168835904Y-128153904D01*
X168835904Y-127915809D01*
X168788285Y-127820571D01*
X168740666Y-127772952D01*
X168645428Y-127725333D01*
X168454952Y-127725333D01*
X168359714Y-127772952D01*
X168312095Y-127820571D01*
X168264476Y-127915809D01*
X180359714Y-128344380D02*
X180359714Y-127344380D01*
X180597809Y-127344380D01*
X180740666Y-127392000D01*
X180835904Y-127487238D01*
X180883523Y-127582476D01*
X180931142Y-127772952D01*
X180931142Y-127915809D01*
X180883523Y-128106285D01*
X180835904Y-128201523D01*
X180740666Y-128296761D01*
X180597809Y-128344380D01*
X180359714Y-128344380D01*
X181883523Y-128344380D02*
X181312095Y-128344380D01*
X181597809Y-128344380D02*
X181597809Y-127344380D01*
X181502571Y-127487238D01*
X181407333Y-127582476D01*
X181312095Y-127630095D01*
X182216857Y-127344380D02*
X182883523Y-127344380D01*
X182454952Y-128344380D01*
X194359714Y-128344380D02*
X194359714Y-127344380D01*
X194597809Y-127344380D01*
X194740666Y-127392000D01*
X194835904Y-127487238D01*
X194883523Y-127582476D01*
X194931142Y-127772952D01*
X194931142Y-127915809D01*
X194883523Y-128106285D01*
X194835904Y-128201523D01*
X194740666Y-128296761D01*
X194597809Y-128344380D01*
X194359714Y-128344380D01*
X195883523Y-128344380D02*
X195312095Y-128344380D01*
X195597809Y-128344380D02*
X195597809Y-127344380D01*
X195502571Y-127487238D01*
X195407333Y-127582476D01*
X195312095Y-127630095D01*
X196454952Y-127772952D02*
X196359714Y-127725333D01*
X196312095Y-127677714D01*
X196264476Y-127582476D01*
X196264476Y-127534857D01*
X196312095Y-127439619D01*
X196359714Y-127392000D01*
X196454952Y-127344380D01*
X196645428Y-127344380D01*
X196740666Y-127392000D01*
X196788285Y-127439619D01*
X196835904Y-127534857D01*
X196835904Y-127582476D01*
X196788285Y-127677714D01*
X196740666Y-127725333D01*
X196645428Y-127772952D01*
X196454952Y-127772952D01*
X196359714Y-127820571D01*
X196312095Y-127868190D01*
X196264476Y-127963428D01*
X196264476Y-128153904D01*
X196312095Y-128249142D01*
X196359714Y-128296761D01*
X196454952Y-128344380D01*
X196645428Y-128344380D01*
X196740666Y-128296761D01*
X196788285Y-128249142D01*
X196835904Y-128153904D01*
X196835904Y-127963428D01*
X196788285Y-127868190D01*
X196740666Y-127820571D01*
X196645428Y-127772952D01*
M02*
