G04 #@! TF.GenerationSoftware,KiCad,Pcbnew,(5.0.0-rc2-dev-340-g7483a73a5)*
G04 #@! TF.CreationDate,2018-04-20T18:58:31+02:00*
G04 #@! TF.ProjectId,PWRCTRLBRD,5057524354524C4252442E6B69636164,rev?*
G04 #@! TF.SameCoordinates,Original*
G04 #@! TF.FileFunction,Soldermask,Top*
G04 #@! TF.FilePolarity,Negative*
%FSLAX46Y46*%
G04 Gerber Fmt 4.6, Leading zero omitted, Abs format (unit mm)*
G04 Created by KiCad (PCBNEW (5.0.0-rc2-dev-340-g7483a73a5)) date 04/20/18 18:58:31*
%MOMM*%
%LPD*%
G01*
G04 APERTURE LIST*
%ADD10C,7.400000*%
%ADD11C,4.050000*%
%ADD12R,1.900000X1.900000*%
%ADD13C,1.900000*%
%ADD14C,3.000000*%
%ADD15R,1.600000X2.600000*%
%ADD16R,6.200000X6.800000*%
%ADD17R,1.700000X1.900000*%
%ADD18R,1.900000X1.700000*%
%ADD19R,2.000000X2.000000*%
%ADD20O,2.000000X2.000000*%
%ADD21R,2.100000X2.100000*%
%ADD22O,2.100000X2.100000*%
%ADD23R,2.200000X2.200000*%
%ADD24C,2.200000*%
%ADD25R,1.500000X1.500000*%
%ADD26R,1.400000X2.000000*%
%ADD27R,1.050000X2.400000*%
G04 APERTURE END LIST*
D10*
X177824000Y-102692000D03*
X212824000Y-137692000D03*
X122824000Y-137692000D03*
X119824000Y-79692000D03*
D11*
X123974000Y-119992000D03*
X123974000Y-108122000D03*
D12*
X130324000Y-109612000D03*
D13*
X132864000Y-110882000D03*
X130324000Y-112152000D03*
X132864000Y-113422000D03*
X130324000Y-114692000D03*
X132864000Y-115962000D03*
X130324000Y-117232000D03*
X132864000Y-118502000D03*
D14*
X123574000Y-129692000D03*
X118494000Y-129692000D03*
X176824000Y-88272000D03*
X176824000Y-83192000D03*
X184324000Y-88272000D03*
X184324000Y-83192000D03*
X191824000Y-88272000D03*
X191824000Y-83192000D03*
X199324000Y-88272000D03*
X199324000Y-83192000D03*
X145824000Y-143442000D03*
X145824000Y-148522000D03*
D11*
X123974000Y-102282000D03*
X123974000Y-90412000D03*
D12*
X130324000Y-91902000D03*
D13*
X132864000Y-93172000D03*
X130324000Y-94442000D03*
X132864000Y-95712000D03*
X130324000Y-96982000D03*
X132864000Y-98252000D03*
X130324000Y-99522000D03*
X132864000Y-100792000D03*
D14*
X160574000Y-143362000D03*
X160574000Y-148442000D03*
X175074000Y-143362000D03*
X175074000Y-148442000D03*
X189324000Y-143362000D03*
X189324000Y-148442000D03*
X203574000Y-143362000D03*
X203574000Y-148442000D03*
D15*
X140854000Y-140142000D03*
X136294000Y-140142000D03*
D16*
X138574000Y-146442000D03*
D15*
X155129000Y-140217000D03*
X150569000Y-140217000D03*
D16*
X152849000Y-146517000D03*
D15*
X169629000Y-140217000D03*
X165069000Y-140217000D03*
D16*
X167349000Y-146517000D03*
D15*
X183854000Y-140242000D03*
X179294000Y-140242000D03*
D16*
X181574000Y-146542000D03*
D15*
X198079000Y-140217000D03*
X193519000Y-140217000D03*
D16*
X195799000Y-146517000D03*
D17*
X118824000Y-126642000D03*
X118824000Y-123942000D03*
D18*
X155224000Y-79692000D03*
X157924000Y-79692000D03*
X155224000Y-82692000D03*
X157924000Y-82692000D03*
X155224000Y-85442000D03*
X157924000Y-85442000D03*
D19*
X167614000Y-78822000D03*
D20*
X162534000Y-86442000D03*
X165074000Y-78822000D03*
X165074000Y-86442000D03*
X162534000Y-78822000D03*
X167614000Y-86442000D03*
D21*
X136744000Y-84942000D03*
D22*
X136744000Y-82402000D03*
X139284000Y-84942000D03*
X139284000Y-82402000D03*
X141824000Y-84942000D03*
X141824000Y-82402000D03*
D21*
X146494000Y-84942000D03*
D22*
X146494000Y-82402000D03*
X149034000Y-84942000D03*
X149034000Y-82402000D03*
X151574000Y-84942000D03*
X151574000Y-82402000D03*
D21*
X144574000Y-131612000D03*
D22*
X144574000Y-134152000D03*
X144574000Y-136692000D03*
D21*
X158824000Y-131652000D03*
D22*
X158824000Y-134192000D03*
X158824000Y-136732000D03*
D21*
X173824000Y-131652000D03*
D22*
X173824000Y-134192000D03*
X173824000Y-136732000D03*
D21*
X188074000Y-131652000D03*
D22*
X188074000Y-134192000D03*
X188074000Y-136732000D03*
D21*
X202324000Y-131612000D03*
D22*
X202324000Y-134152000D03*
X202324000Y-136692000D03*
D23*
X124074000Y-125692000D03*
D24*
X121534000Y-125692000D03*
D25*
X136974000Y-151192000D03*
X139774000Y-151192000D03*
X154274000Y-151192000D03*
X151474000Y-151192000D03*
X168724000Y-151192000D03*
X165924000Y-151192000D03*
X182774000Y-151192000D03*
X179974000Y-151192000D03*
X197224000Y-151192000D03*
X194424000Y-151192000D03*
D26*
X140824000Y-78192000D03*
X137824000Y-78192000D03*
X147574000Y-78192000D03*
X150574000Y-78192000D03*
D27*
X138824000Y-136902000D03*
X137874000Y-133482000D03*
X139774000Y-133482000D03*
X153524000Y-133732000D03*
X151624000Y-133732000D03*
X152574000Y-137152000D03*
X168274000Y-133732000D03*
X166374000Y-133732000D03*
X167324000Y-137152000D03*
X181824000Y-137152000D03*
X180874000Y-133732000D03*
X182774000Y-133732000D03*
X195824000Y-137152000D03*
X194874000Y-133732000D03*
X196774000Y-133732000D03*
D26*
X140324000Y-129942000D03*
X137324000Y-129942000D03*
X151074000Y-129692000D03*
X154074000Y-129692000D03*
X169074000Y-129692000D03*
X166074000Y-129692000D03*
X180074000Y-129692000D03*
X183074000Y-129692000D03*
X197074000Y-129692000D03*
X194074000Y-129692000D03*
D10*
X215824000Y-79692000D03*
M02*
